<svg width="100" height="100" viewBox="0 0 100 100" fill="none" xmlns="http://www.w3.org/2000/svg">
<rect width="100" height="100" rx="50" fill="#F7931A" fill-opacity="0.1"/>
<path fill-rule="evenodd" clip-rule="evenodd" d="M70.351 44.1095C71.1724 38.6103 66.9854 35.6541 61.2602 33.682L63.1174 26.2326L58.5817 25.1026L56.7736 32.3556C55.5828 32.0586 54.3585 31.7783 53.1419 31.5006L54.9629 24.1998L50.431 23.0698L48.5726 30.5165C47.5859 30.2918 46.6173 30.0697 45.6771 29.8359L45.6822 29.8126L39.4288 28.2512L38.2226 33.0943C38.2226 33.0943 41.5869 33.8654 41.5159 33.9131C43.3524 34.3716 43.6856 35.5869 43.6287 36.5504L41.5133 45.0368C41.6398 45.0691 41.8039 45.1156 41.9847 45.1879L41.5068 45.0691L38.5403 56.9573C38.3155 57.5152 37.746 58.3521 36.4622 58.0344C36.5074 58.1002 33.1664 57.2117 33.1664 57.2117L30.9153 62.4035L36.8174 63.8745C37.4837 64.0414 38.1418 64.2132 38.7928 64.383L38.7929 64.383C39.2144 64.493 39.633 64.6022 40.0487 64.7088L38.1722 72.2447L42.7015 73.3747L44.5612 65.9202C45.7972 66.256 46.9982 66.566 48.1735 66.8578L46.3215 74.2775L50.8559 75.4075L52.7325 67.8872C60.4646 69.3504 66.2802 68.7602 68.725 61.7681C70.6972 56.1372 68.6282 52.889 64.56 50.7697C67.5227 50.0839 69.7544 48.1351 70.3497 44.1095H70.351ZM59.9896 58.6375C58.7023 63.8056 50.6112 61.6672 46.9124 60.6897L46.9122 60.6897C46.581 60.6021 46.2851 60.5239 46.0324 60.4611L48.5224 50.4792C48.8313 50.5562 49.2086 50.6409 49.6361 50.7368L49.6363 50.7369C53.4628 51.5956 61.3048 53.3553 59.9909 58.6375H59.9896ZM50.4054 46.1048C53.4916 46.9282 60.2189 48.7229 61.3908 44.0281C62.589 39.2251 56.0474 37.7775 52.8526 37.0705C52.4934 36.991 52.1765 36.9209 51.9177 36.8564L49.6602 45.9098C49.8738 45.963 50.1245 46.0299 50.4054 46.1048Z" fill="#F7931A"/>
</svg>
