<svg width="21" height="20" viewBox="0 0 21 20" fill="none" xmlns="http://www.w3.org/2000/svg">
<path d="M10.6875 2C12.3486 2 13.885 2.30952 15.2966 2.92856C16.7083 3.54759 17.8242 4.38935 18.6445 5.45383C19.4648 6.51832 19.875 7.67942 19.875 8.93715C19.875 10.1949 19.4648 11.3576 18.6445 12.4254C17.8242 13.4931 16.71 14.3365 15.3018 14.9556C13.8936 15.5746 12.3555 15.8841 10.6875 15.8841C10.1611 15.8841 9.61768 15.8481 9.05713 15.776C6.62354 17.394 5.32812 18.2129 5.1709 18.2325C5.0957 18.2587 5.02393 18.2555 4.95557 18.2227C4.92822 18.2031 4.90771 18.1769 4.89404 18.1441C4.88037 18.1113 4.87354 18.0819 4.87354 18.0557V18.0164C4.91455 17.7609 5.22559 16.6964 5.80664 14.8229C4.4873 14.1941 3.4397 13.3605 2.66382 12.3222C1.88794 11.2839 1.5 10.1556 1.5 8.93715C1.5 7.67942 1.91016 6.51832 2.73047 5.45383C3.55078 4.38935 4.66675 3.54759 6.07837 2.92856C7.48999 2.30952 9.02637 2 10.6875 2Z" fill="#3C1E1E"/>
</svg>
