<svg width="30" height="30" viewBox="0 0 30 30" fill="none" xmlns="http://www.w3.org/2000/svg">
<path d="M23.9405 17.5799C23.6885 17.3167 23.3299 17.1523 22.9323 17.1523C22.1707 17.1523 21.552 17.7562 21.552 18.5008C21.552 18.8981 21.7272 19.2547 22.0063 19.502C22.1572 19.652 22.2422 19.8493 22.2422 20.0612C22.2422 20.5006 21.8769 20.8571 21.428 20.8571C21.2501 20.8571 21.0816 20.8005 20.9414 20.6992L11.4062 11.3753C13.9268 9.53607 15.8557 9.58738 16.7898 9.78735C17.697 9.98207 18.4168 10.4649 18.7659 11.1122C19.5113 12.4976 19.1675 13.558 19.0732 13.7974C18.9815 13.9777 18.929 14.1816 18.929 14.3973C18.929 15.142 19.5463 15.7459 20.3092 15.7459C20.8268 15.7459 21.277 15.467 21.5129 15.0552H21.5156C21.9726 14.1882 22.4214 12.1147 21.207 9.8584C20.4791 8.50592 19.084 7.52051 17.3816 7.15608C15.9622 6.85217 13.0615 6.73245 9.58788 9.34267C9.53935 9.37951 9.49218 9.41766 9.44365 9.4545L7.42447 7.48236C7.1724 7.21529 6.81116 7.0482 6.41083 7.0482C5.64791 7.0482 5.03056 7.65208 5.03056 8.39673C5.03056 8.78879 5.20174 9.14006 5.47402 9.3874L7.48917 11.3569C5.64251 13.6106 4.69358 16.4103 5.08852 18.8113C5.43763 20.9321 6.7869 22.4938 8.88696 23.2121C9.60001 23.4555 10.3131 23.5752 11.0072 23.5752C12.4104 23.5752 13.7327 23.0845 14.8084 22.132C15.481 21.536 16.0053 20.8045 16.3531 20.0204L18.9007 22.5109L18.8939 22.5175C19.5692 23.1832 20.4696 23.5502 21.4294 23.5502C23.3987 23.5502 25 21.9846 25 20.0585C25 19.1297 24.6145 18.2311 23.9405 17.5786V17.5799ZM12.959 20.1348C12.3592 20.6664 11.3227 21.19 9.79681 20.6677C8.66455 20.2809 7.99733 19.5125 7.81132 18.3824C7.55656 16.8379 8.22513 14.9025 9.46117 13.283L14.0805 17.7983C14.0913 18.5798 13.6546 19.5204 12.9604 20.1348H12.959Z" fill="url(#paint0_linear_3880_21136)"/>
<defs>
<linearGradient id="paint0_linear_3880_21136" x1="15" y1="7" x2="15" y2="23.5752" gradientUnits="userSpaceOnUse">
<stop offset="0.1875" stop-color="#0148FF"/>
<stop offset="1" stop-color="#0198FF"/>
</linearGradient>
</defs>
</svg>
