<svg width="30" height="30" viewBox="0 0 30 30" fill="none" xmlns="http://www.w3.org/2000/svg">
<mask id="mask0_2859_27745" style="mask-type:alpha" maskUnits="userSpaceOnUse" x="0" y="0" width="30" height="30">
<rect width="30" height="30" fill="#D9D9D9"/>
</mask>
<g mask="url(#mask0_2859_27745)">
<path d="M15 26.4375C14.3125 26.4375 13.724 26.1928 13.2344 25.7032C12.7448 25.2136 12.5 24.625 12.5 23.9375H17.5C17.5 24.625 17.2552 25.2136 16.7656 25.7032C16.276 26.1928 15.6875 26.4375 15 26.4375Z" fill="#C1C7CD"/>
<path d="M6.25 22.6875C5.89583 22.6875 5.59896 22.5678 5.35938 22.3282C5.11979 22.0886 5 21.7917 5 21.4375C5 21.0834 5.11979 20.7865 5.35938 20.5469C5.59896 20.3073 5.89583 20.1875 6.25 20.1875H7.5V11.4375C7.5 9.70838 8.02083 8.17192 9.0625 6.82817C10.1042 5.48442 11.75 4.43743 13.125 4.18754C14.5 3.93766 15.5 3.93731 16.875 4.18754C18.25 4.43777 19.8958 5.48442 20.9375 6.82817C21.9792 8.17192 22.5 9.70838 22.5 11.4375V20.1875H23.75C24.1042 20.1875 24.401 20.3073 24.6406 20.5469C24.8802 20.7865 25 21.0834 25 21.4375C25 21.7917 24.8802 22.0886 24.6406 22.3282C24.401 22.5678 24.1042 22.6875 23.75 22.6875H6.25Z" fill="#C1C7CD"/>
<circle cx="23" cy="7" r="3.5" fill="#FA4D56" stroke="white"/>
</g>
</svg>
