<svg width="20" height="23" viewBox="0 0 20 23" fill="none" xmlns="http://www.w3.org/2000/svg">
<path d="M10 22.4375C9.3125 22.4375 8.72396 22.1928 8.23438 21.7032C7.74479 21.2136 7.5 20.625 7.5 19.9375H12.5C12.5 20.625 12.2552 21.2136 11.7656 21.7032C11.276 22.1928 10.6875 22.4375 10 22.4375Z" fill="#C1C7CD"/>
<path d="M1.25 18.6875C0.895833 18.6875 0.598958 18.5678 0.359375 18.3282C0.119792 18.0886 0 17.7917 0 17.4375C0 17.0834 0.119792 16.7865 0.359375 16.5469C0.598958 16.3073 0.895833 16.1875 1.25 16.1875H2.5V7.43754C2.5 5.70838 3.02083 4.17192 4.0625 2.82817C5.10417 1.48442 6.75 0.437429 8.125 0.187544C9.5 -0.0623422 10.5 -0.0626868 11.875 0.187544C13.25 0.437774 14.8958 1.48442 15.9375 2.82817C16.9792 4.17192 17.5 5.70838 17.5 7.43754V16.1875H18.75C19.1042 16.1875 19.401 16.3073 19.6406 16.5469C19.8802 16.7865 20 17.0834 20 17.4375C20 17.7917 19.8802 18.0886 19.6406 18.3282C19.401 18.5678 19.1042 18.6875 18.75 18.6875H1.25Z" fill="#C1C7CD"/>
</svg>
