<svg width="52" height="52" viewBox="0 0 52 52" fill="none" xmlns="http://www.w3.org/2000/svg">
<circle cx="26" cy="26" r="25.5" fill="white" stroke="#E5E7EB"/>
<path d="M35.286 35.2852H16.7146C16.222 35.2852 15.7496 35.0895 15.4014 34.7412C15.0531 34.3929 14.8574 33.9206 14.8574 33.428V20.428C14.8574 19.9355 15.0531 19.4631 15.4014 19.1148C15.7496 18.7665 16.222 18.5709 16.7146 18.5709H20.4282L22.2853 15.7852H29.7139L31.571 18.5709H35.286C35.7785 18.5709 36.2509 18.7665 36.5992 19.1148C36.9475 19.4631 37.1431 19.9355 37.1431 20.428V33.428C37.1431 33.9206 36.9475 34.3929 36.5992 34.7412C36.2509 35.0895 35.7785 35.2852 35.286 35.2852Z" stroke="#9CA3AF" stroke-width="1.2" stroke-linecap="round" stroke-linejoin="round"/>
<path d="M25.9989 30.6423C28.3066 30.6423 30.1775 28.7715 30.1775 26.4637C30.1775 24.156 28.3066 22.2852 25.9989 22.2852C23.6911 22.2852 21.8203 24.156 21.8203 26.4637C21.8203 28.7715 23.6911 30.6423 25.9989 30.6423Z" stroke="#9CA3AF" stroke-width="1.2" stroke-linecap="round" stroke-linejoin="round"/>
</svg>
