<svg width="100" height="100" viewBox="0 0 100 100" fill="none" xmlns="http://www.w3.org/2000/svg">
<circle cx="50" cy="50" r="49.5" fill="white" stroke="#E5E7EB"/>
<path d="M55.0733 21.4395C49.1201 17.2528 35.5709 19.5669 31.4196 33.9287C27.0917 48.8735 33.6101 56.2575 42.2307 55.4272L55.7622 55.0563C58.995 55.7629 64.6125 55.0033 66.9796 50.216C70.1947 43.7152 67.5626 31.6676 65.1778 26.9863C61.4151 19.6023 57.3874 20.4679 55.0733 21.4395Z" fill="#3A3E77"/>
<path d="M36.8062 54.1382C36.8415 54.1559 36.8415 54.1559 36.8062 54.1382C36.7886 54.1206 36.7886 54.1206 36.8062 54.1382Z" fill="#21223F"/>
<path d="M33.1134 51.2931C33.0792 51.2589 33.1476 51.3273 33.1134 51.2931V51.2931Z" fill="#21223F"/>
<path d="M31.7364 48.8908C31.7364 48.8731 31.7364 48.8731 31.7188 48.8555C31.7364 48.9085 31.7364 48.9085 31.7364 48.8908Z" fill="#21223F"/>
<path d="M34.775 52.9541C34.7397 52.9364 34.8457 53.0071 34.775 52.9541V52.9541Z" fill="#21223F"/>
<path d="M42.4772 21.3869C42.4422 21.4044 42.4947 21.3694 42.4772 21.3869V21.3869Z" fill="#21223F"/>
<path d="M53.1111 21.0159C53.024 20.9811 53.1981 21.0507 53.1111 21.0159V21.0159Z" fill="#21223F"/>
<path d="M55.3549 20.945C54.1537 20.0971 52.7228 19.5495 51.2743 19.2668C49.5961 18.9312 47.8649 18.9312 46.169 19.1609C44.3319 19.4258 42.5477 20.0088 40.8872 20.8391C39.0677 21.7576 37.4071 23.0119 36.0116 24.4781C34.404 26.1739 33.0968 28.1524 32.1429 30.2722C30.9594 32.9044 30.1997 35.7308 29.7758 38.5749C29.4048 41.0833 29.3165 43.6448 29.7581 46.1532C30.0938 48.0611 30.7827 49.9513 31.8956 51.5411C32.9025 52.9543 34.2274 54.1379 35.7819 54.8975C37.3718 55.6748 39.1207 56.0457 40.8872 56.0457C41.3288 56.0457 41.7704 56.0281 42.2121 55.9927C42.53 55.9574 42.795 55.7454 42.795 55.4098C42.795 55.1271 42.53 54.8092 42.2121 54.8268C41.3465 54.9152 40.4632 54.9152 39.5976 54.8092C39.5446 54.8092 39.5093 54.7915 39.4563 54.7915C39.4386 54.7915 39.3856 54.7738 39.3503 54.7738C39.368 54.7738 39.3856 54.7738 39.3503 54.7738C39.315 54.7738 39.3326 54.7738 39.3503 54.7738C39.315 54.7738 39.262 54.7562 39.2443 54.7562C39.1913 54.7562 39.1383 54.7385 39.0853 54.7385C38.8733 54.7032 38.679 54.6678 38.467 54.6148C38.0607 54.5265 37.6721 54.4205 37.2835 54.2792C37.1952 54.2439 37.1068 54.2086 37.0185 54.1909C36.9655 54.1732 36.9302 54.1556 36.8772 54.1379C36.8595 54.1379 36.7888 54.1026 36.7712 54.0849C36.7888 54.1026 36.8065 54.1026 36.7712 54.0849C36.7535 54.0672 36.7535 54.0849 36.7712 54.0849C36.7535 54.0672 36.7182 54.0672 36.7005 54.0496C36.6475 54.0319 36.6122 54.0142 36.5592 53.9966C36.4709 53.9612 36.3826 53.9083 36.2942 53.8729C35.9409 53.6963 35.5876 53.5019 35.252 53.2723C35.093 53.1663 34.9163 53.0427 34.7573 52.919C34.7573 52.919 34.7397 52.919 34.7397 52.9013C34.7044 52.866 34.7927 52.9543 34.7397 52.9013L34.722 52.8837C34.6867 52.8483 34.6514 52.8307 34.616 52.7953C34.5277 52.7247 34.457 52.654 34.3687 52.5834C34.0508 52.3184 33.7681 52.0181 33.5031 51.7178C33.3618 51.5764 33.2382 51.4175 33.1145 51.2585C33.0968 51.2408 33.0968 51.2408 33.0968 51.2231C33.0615 51.1878 33.1321 51.2585 33.0968 51.2231C33.0968 51.2231 33.0968 51.2231 33.0792 51.2055C33.0438 51.1701 33.0085 51.1171 32.9908 51.0818C32.9202 50.9935 32.8672 50.9052 32.7965 50.8168C32.5492 50.4635 32.3196 50.0749 32.1252 49.7039C32.0192 49.5096 31.9133 49.2976 31.8249 49.1033C31.7896 49.015 31.7543 48.9267 31.7013 48.8383C31.7013 48.856 31.7013 48.856 31.6836 48.803C31.6836 48.8207 31.6836 48.8207 31.7013 48.8383C31.6836 48.8207 31.6659 48.7677 31.6659 48.75C31.6483 48.6794 31.6129 48.6264 31.5953 48.5557C31.4186 48.1141 31.2773 47.6548 31.1536 47.1955C31.0123 46.7009 30.9064 46.2062 30.818 45.6939C30.8004 45.5703 30.7827 45.4466 30.765 45.323C30.765 45.3053 30.7474 45.217 30.7474 45.1993V45.217C30.7474 45.1993 30.7474 45.1817 30.7474 45.1993C30.7297 45.1287 30.7297 45.058 30.7297 44.9873C30.6944 44.7047 30.6767 44.4397 30.6414 44.1571C30.5531 42.9558 30.5707 41.7546 30.6767 40.5534C30.9063 37.7976 31.5423 34.9712 32.4962 32.3391C32.9025 31.2262 33.3971 30.1486 33.9978 29.0887C34.2804 28.5941 34.5807 28.0994 34.8987 27.6225C35.0577 27.3928 35.2166 27.1632 35.3756 26.9335C35.5523 26.7039 35.6229 26.5979 35.8173 26.3506C36.4709 25.5556 37.1952 24.7961 37.9724 24.1071C38.1667 23.9481 38.361 23.7891 38.5554 23.6301C38.5907 23.5948 38.6437 23.5595 38.679 23.5242C38.6967 23.5065 38.732 23.4888 38.7497 23.4712C38.7143 23.5065 38.7497 23.4712 38.7674 23.4535C38.7674 23.4535 38.7497 23.4535 38.7497 23.4712C38.8557 23.3828 38.9617 23.3122 39.0677 23.2415C39.4563 22.9589 39.8449 22.6939 40.2512 22.4466C40.6575 22.1993 41.0638 21.9696 41.4878 21.7576C41.6998 21.6516 41.9118 21.5457 42.1237 21.4573C42.2297 21.422 42.318 21.369 42.424 21.3337C42.4417 21.3337 42.4417 21.316 42.4417 21.316C42.4064 21.3337 42.4594 21.2983 42.4417 21.316C42.4417 21.316 42.4594 21.316 42.477 21.2983C42.53 21.2807 42.6007 21.2453 42.6537 21.2277C43.4663 20.892 44.3142 20.6447 45.1798 20.4504C45.6038 20.3621 46.0277 20.2914 46.4517 20.2208H46.4694C46.3987 20.2384 46.54 20.2031 46.4694 20.2208C46.4694 20.2208 46.4694 20.2208 46.487 20.2208C46.54 20.2208 46.593 20.2031 46.646 20.2031C46.752 20.1854 46.8757 20.1854 46.9817 20.1678C47.176 20.1501 47.3879 20.1324 47.5823 20.1148C48.3772 20.0618 49.1898 20.0794 49.9847 20.1678C50.0731 20.1678 50.1437 20.1854 50.232 20.2031H50.2144C50.1967 20.2031 50.1967 20.2031 50.2144 20.2031C50.2144 20.2031 50.232 20.2031 50.2674 20.2031C50.2497 20.2031 50.2497 20.2031 50.232 20.2031C50.2497 20.2031 50.2674 20.2031 50.285 20.2031C50.338 20.2031 50.391 20.2208 50.444 20.2208C50.6207 20.2561 50.815 20.2738 50.9916 20.3091C51.3626 20.3798 51.7159 20.4681 52.0692 20.5741C52.4225 20.6801 52.7582 20.8037 53.0938 20.9274C53.0055 20.892 53.1821 20.9627 53.0938 20.9274C53.1291 20.945 53.1645 20.9627 53.2175 20.9804C53.3058 21.0157 53.3941 21.051 53.4648 21.104C53.6238 21.1747 53.7651 21.263 53.9241 21.3337C54.2067 21.4927 54.4894 21.6693 54.7543 21.846C55.0016 22.0226 55.3903 21.899 55.5493 21.634C55.7259 21.4397 55.6199 21.1217 55.3549 20.945Z" fill="#21223F"/>
<path d="M46.5037 20.2734C46.4166 20.2909 46.5733 20.2734 46.5037 20.2734V20.2734Z" fill="#21223F"/>
<path d="M58.4979 21.4218C58.4631 21.4044 58.6024 21.4218 58.4979 21.4218V21.4218Z" fill="#21223F"/>
<path d="M59.7363 21.7393C59.7363 21.7393 59.7537 21.7393 59.7537 21.7567C59.8408 21.7915 59.7537 21.7567 59.7363 21.7393Z" fill="#21223F"/>
<path d="M57.1388 21.4221C57.1565 21.4221 57.1565 21.4221 57.1741 21.4221C57.2978 21.4044 57.0682 21.4398 57.1388 21.4221Z" fill="#21223F"/>
<path d="M65.936 27.2866C65.1057 25.4671 63.9928 23.6476 62.5266 22.252C61.4844 21.2628 60.1948 20.4855 58.7463 20.2912C57.651 20.1322 56.5558 20.2912 55.5135 20.6445C55.3192 20.7152 55.1072 20.7858 54.9129 20.8741C54.6303 20.9978 54.4183 21.2628 54.5066 21.5808C54.5773 21.8457 54.9306 22.1107 55.2132 21.9871C55.6195 21.8104 56.0435 21.6691 56.4674 21.5454C56.6971 21.4924 56.9267 21.4394 57.1564 21.4041C57.1387 21.4041 57.1387 21.4041 57.121 21.4041C57.0327 21.4041 57.28 21.3864 57.1564 21.4041C57.1741 21.4041 57.1917 21.4041 57.2094 21.4041C57.2624 21.4041 57.333 21.3864 57.386 21.3864C57.5097 21.3688 57.651 21.3688 57.7747 21.3688C57.8983 21.3688 58.022 21.3688 58.1456 21.3688C58.2163 21.3688 58.2869 21.3864 58.3576 21.3864C58.3929 21.3864 58.4283 21.3864 58.4459 21.4041C58.4636 21.4041 58.4636 21.4041 58.4636 21.4041C58.446 21.4041 58.5696 21.4218 58.4636 21.4041C58.7463 21.4571 59.0289 21.5101 59.3115 21.5984C59.4529 21.6338 59.5765 21.6868 59.7178 21.7397C59.7178 21.7397 59.7002 21.7398 59.7002 21.7221C59.7178 21.7221 59.8062 21.7574 59.7178 21.7397C59.7532 21.7574 59.7885 21.7751 59.8238 21.7751C59.9122 21.8104 59.9828 21.8457 60.0711 21.8987C60.3714 22.0577 60.6718 22.2344 60.9544 22.4287C61.1311 22.5523 61.1134 22.5523 61.3077 22.6937C61.4667 22.835 61.6257 22.9763 61.7847 23.1176C62.1203 23.4356 62.4206 23.7712 62.7033 24.1422C63.3745 24.9901 63.9751 25.9617 64.4874 26.9333C64.6641 27.2513 64.8231 27.5869 64.9644 27.9226C64.9997 27.9932 65.0174 28.0639 65.0527 28.1345C65.0704 28.1522 65.1057 28.2582 65.1234 28.2759C65.1234 28.2582 65.1234 28.2582 65.1057 28.2405C65.1234 28.2759 65.1234 28.2759 65.1234 28.2759C65.194 28.4348 65.247 28.5938 65.3177 28.7528C65.6003 29.4771 65.8477 30.219 66.0773 30.961C67.1725 34.5293 67.8085 38.2037 67.8615 41.9134C67.8968 43.7505 67.7731 45.5347 67.3668 47.2836C66.9782 48.9618 66.3599 50.4986 65.2294 51.7705C64.9291 52.1062 64.5934 52.4241 64.2401 52.7068C64.1518 52.7774 64.1695 52.7598 64.0635 52.8304C63.9751 52.8834 63.9045 52.9541 63.8161 53.0071C63.6395 53.1308 63.4452 53.2544 63.2685 53.3604C62.5266 53.7844 61.926 54.0493 61.1134 54.279C60.7248 54.385 60.3361 54.491 59.9298 54.5616C59.8415 54.5793 59.7532 54.597 59.6472 54.6146C59.5942 54.6146 59.5588 54.6323 59.5058 54.6323C59.4882 54.6323 59.4882 54.6323 59.4705 54.6323C59.3645 54.65 59.5588 54.6146 59.4705 54.6323C59.4529 54.6323 59.4529 54.6323 59.4352 54.6323C59.2409 54.65 59.0466 54.6676 58.8346 54.6853C58.128 54.7383 57.4037 54.7206 56.6971 54.65C56.6618 54.65 56.5381 54.6323 56.5204 54.6323C56.5381 54.6323 56.5558 54.6323 56.5734 54.6323C56.5381 54.6323 56.5204 54.6323 56.5204 54.6323C56.4675 54.6323 56.3968 54.6146 56.3438 54.597C56.1848 54.5793 56.0258 54.544 55.8668 54.5086C55.5665 54.438 55.2485 54.597 55.1602 54.9149C55.0896 55.1976 55.2485 55.5509 55.5665 55.6215C58.7816 56.3105 62.4029 55.6039 64.982 53.5547C68.0028 51.1699 68.8331 47.1246 68.9744 43.4679C69.1334 39.5639 68.5328 35.5716 67.4905 31.8089C67.1195 30.272 66.6072 28.7528 65.936 27.2866Z" fill="#21223F"/>
<path d="M65.123 28.2754C65.123 28.2931 65.123 28.2931 65.1407 28.3107C65.1407 28.3284 65.1407 28.3284 65.123 28.2754Z" fill="#21223F"/>
<path d="M56.6089 54.6498C56.5915 54.6498 56.5741 54.6498 56.5566 54.6498C56.5566 54.6324 56.5566 54.6324 56.6089 54.6498Z" fill="#21223F"/>
<path d="M59.4872 54.632C59.3827 54.6494 59.5743 54.6146 59.4872 54.632V54.632Z" fill="#21223F"/>
<path d="M58.9936 42.2143C58.6757 42.8326 58.287 43.4156 57.8277 43.9279C57.2978 44.5285 56.4675 45.0761 55.7786 44.7051C55.3369 44.4755 55.1426 43.9279 55.0013 43.4509C54.4183 41.2074 54.436 38.858 53.9591 36.5792C53.5528 34.583 51.9452 32.1099 50.1611 30.8203C45.6564 35.5899 37.0888 40.4655 34.6687 39.5646C34.0504 45.2704 35.2163 51.4356 37.4244 54.5976C39.5089 57.5654 43.0773 59.0316 46.8753 58.6076L46.9283 61.6637C46.9283 61.6637 47.9352 63.6599 49.4191 64.6314C49.4191 64.6314 54.9483 63.8188 56.9091 60.6214C55.6549 54.9333 57.9514 49.987 57.9514 49.987C59.3823 50.4463 61.0428 50.146 62.191 49.1744C65.3001 46.507 63.5689 40.8011 58.9936 42.2143Z" fill="#FCC4B9"/>
<path d="M47.4052 61.5223C47.4052 61.5223 50.2493 59.3495 51.6271 57.1943C51.6271 57.1943 48.9774 58.3779 47.2285 58.5192L47.4052 61.5223Z" fill="#21223F"/>
<path d="M56.909 60.6211C54.9658 63.8185 49.419 64.6311 49.419 64.6311C47.9351 63.6595 46.9282 61.6633 46.9282 61.6633C46.9282 61.6633 37.6716 61.31 34.0326 70.8492C33.6263 71.9091 40.5334 81.6427 52.846 79.8055C65.4236 77.933 68.4444 70.8669 68.4444 70.8669C66.1126 60.9214 56.909 60.6211 56.909 60.6211Z" fill="white"/>
<path d="M67.9497 70.5664C67.9144 70.6371 67.8791 70.7254 67.8438 70.7961C67.8614 70.8667 67.8791 70.9374 67.8967 71.008C67.9144 70.849 67.9321 70.7077 67.9497 70.5664Z" fill="#21223F"/>
<path d="M65.4941 65.7617L65.5118 65.7794C65.5118 65.797 65.5118 65.797 65.4941 65.7617Z" fill="#21223F"/>
<path d="M64.3626 74.7178L64.3449 74.7354C64.3096 74.7531 64.3096 74.7531 64.3626 74.7178Z" fill="#21223F"/>
<path d="M63.4277 63.712C63.4454 63.7297 63.4631 63.7297 63.4631 63.7473C63.4277 63.712 63.4277 63.6943 63.4277 63.712Z" fill="#21223F"/>
<path d="M66.9774 72.121C66.96 72.1384 66.9774 72.1384 66.9774 72.121C66.9077 72.2081 67.0645 72.0165 66.9774 72.121Z" fill="#21223F"/>
<path d="M38.59 75.6183C38.5724 75.6007 38.5724 75.6007 38.5547 75.583C38.59 75.636 38.59 75.636 38.59 75.6183Z" fill="#21223F"/>
<path d="M60.7246 62.1399C60.6716 62.1222 60.7952 62.1575 60.7246 62.1399V62.1399Z" fill="#21223F"/>
<path d="M56.9082 60.0381C57.1025 60.1794 57.2792 60.3207 57.4735 60.4621C57.4381 60.3384 57.4205 60.2147 57.4028 60.0911C57.3322 60.0911 57.2615 60.0734 57.1908 60.0734C57.0849 60.0558 56.9965 60.0381 56.9082 60.0381Z" fill="#21223F"/>
<path d="M58.4109 50.3575C58.4109 50.3399 58.4285 50.3399 58.4285 50.3222V50.3046C58.4638 50.2516 58.3755 50.4635 58.4109 50.3575Z" fill="#21223F"/>
<path d="M57.4748 61.2395C57.4924 61.2395 57.5101 61.2395 57.5101 61.2395C57.5808 61.2571 57.3511 61.2218 57.4748 61.2395Z" fill="#21223F"/>
<path d="M45.373 62.3342H45.3907C45.3907 62.3342 45.3907 62.3342 45.4084 62.3342C45.532 62.3165 45.2847 62.3519 45.373 62.3342Z" fill="#21223F"/>
<path d="M41.8052 63.3061C41.7522 63.3414 41.8936 63.2708 41.8052 63.3061V63.3061Z" fill="#21223F"/>
<path d="M68.338 68.5172C67.1898 65.5848 65.1053 63.1117 62.2965 61.6101C60.7773 60.7975 59.0991 60.2676 57.3856 60.0733C57.4033 60.1969 57.4386 60.3206 57.4563 60.4442C57.262 60.3029 57.0853 60.1616 56.891 60.0203C56.9793 60.0203 57.0676 60.0379 57.156 60.0379C57.2266 60.0379 57.2973 60.0556 57.3679 60.0556C56.785 56.9642 57.1383 53.7315 58.2159 50.799C58.2689 50.6401 58.3395 50.4634 58.4102 50.3044C58.4102 50.3221 58.4102 50.3221 58.3925 50.3398C58.3395 50.4457 58.4279 50.2338 58.4102 50.2868V50.3044C58.4102 50.3044 58.4102 50.2868 58.4279 50.2868C58.4279 50.2691 58.4455 50.2514 58.4455 50.2338C58.5692 49.9511 58.5339 49.6155 58.2335 49.4388C57.9862 49.2975 57.5799 49.3682 57.4386 49.6508C57.1206 50.3397 56.8733 51.0817 56.679 51.806C56.202 53.4842 55.9547 55.2507 55.9371 56.9995C55.9371 58.2537 56.0607 59.508 56.3257 60.7445C56.3787 60.9918 56.6437 61.1508 56.891 61.1685C56.9793 61.1685 57.05 61.1862 57.1383 61.1862C57.2266 61.1862 57.3326 61.2038 57.4209 61.2215C57.4386 61.2215 57.4386 61.2215 57.4563 61.2215C57.315 61.2038 57.5623 61.2392 57.4916 61.2215C57.4739 61.2215 57.4739 61.2215 57.4563 61.2215C57.5269 61.2392 57.5976 61.2392 57.6683 61.2568C58.4455 61.3805 59.2051 61.5748 59.9471 61.8398C60.1944 61.9281 60.424 62.0164 60.6713 62.1224C60.689 62.1224 60.689 62.1401 60.7067 62.1401C60.6537 62.1224 60.7773 62.1577 60.7067 62.1401C60.7067 62.1401 60.7243 62.1401 60.7243 62.1577C60.7773 62.1754 60.848 62.2107 60.901 62.2284C61.0246 62.2814 61.1483 62.3521 61.2896 62.4051C61.8196 62.67 62.3319 62.9527 62.8088 63.2883C62.9325 63.3766 63.0385 63.4473 63.1621 63.5356C63.2328 63.5886 63.2858 63.624 63.3564 63.677C63.3741 63.6946 63.3918 63.6946 63.4094 63.7123C63.4094 63.7123 63.4094 63.7123 63.4448 63.7476C63.4271 63.7299 63.4094 63.7299 63.4094 63.7123C63.4271 63.7123 63.4801 63.7653 63.4801 63.7653C63.7451 63.9773 63.9924 64.1892 64.222 64.4189C64.4694 64.6485 64.7167 64.8958 64.9463 65.1608C65.07 65.2845 65.176 65.4258 65.282 65.5495C65.3349 65.6025 65.3879 65.6731 65.4409 65.7438C65.4409 65.7614 65.4763 65.7791 65.4763 65.7968L65.4586 65.7791C65.4939 65.8144 65.4939 65.8144 65.4763 65.7968C65.5116 65.8321 65.5293 65.8674 65.5646 65.9028C66.6775 67.4043 67.3841 69.0118 67.8257 70.8137C67.8611 70.743 67.8964 70.6547 67.9317 70.584C67.9141 70.7254 67.8964 70.8843 67.8787 71.0257C67.8611 70.955 67.8434 70.8843 67.8257 70.8137C67.5961 71.2553 67.2958 71.6793 67.0131 72.0679C66.9955 72.0856 66.9778 72.1209 66.9601 72.1386C67.0485 72.0326 66.8895 72.2269 66.9601 72.1562C66.9071 72.2092 66.8718 72.2622 66.8188 72.3329C66.7128 72.4565 66.6068 72.5802 66.5009 72.7039C66.2535 72.9865 66.0062 73.2515 65.7412 73.4988C65.4409 73.7991 65.123 74.0817 64.7873 74.3644C64.699 74.435 64.6107 74.5057 64.5223 74.5764C64.487 74.6117 64.4517 74.647 64.3987 74.6647C64.381 74.6823 64.328 74.7177 64.3104 74.7353L64.328 74.7177C64.275 74.753 64.2927 74.753 64.3104 74.7353C64.1161 74.8767 63.9217 75.0357 63.7274 75.177C61.6253 76.6609 59.3465 77.6501 56.891 78.3567C53.8349 79.24 50.6375 79.7169 47.4578 79.3283C45.02 79.028 42.5999 78.1801 40.4624 76.9082C39.9854 76.6255 39.5261 76.3252 39.0845 76.0072C38.9785 75.9366 38.8725 75.8483 38.7665 75.7776C38.7135 75.7423 38.6605 75.7069 38.6075 75.6539C38.5899 75.6363 38.5899 75.6363 38.5722 75.6186C38.5899 75.6363 38.5899 75.6186 38.5369 75.5833C38.5545 75.6009 38.5545 75.6009 38.5722 75.6186C38.5545 75.6009 38.5369 75.5833 38.5192 75.5833C38.3249 75.4243 38.1306 75.2653 37.9363 75.1063C37.265 74.5234 36.6114 73.9051 36.0284 73.2338C35.9048 73.0925 35.7811 72.9512 35.6574 72.7922C35.6398 72.7568 35.6045 72.7392 35.5868 72.7039C35.5161 72.6155 35.6575 72.7922 35.5868 72.7039C35.5338 72.6332 35.4808 72.5625 35.4278 72.4919C35.2512 72.2446 35.0922 71.9972 34.9332 71.7323C34.8802 71.6263 34.8095 71.5203 34.7565 71.4143C34.7389 71.3613 34.7035 71.326 34.6859 71.273C34.6859 71.273 34.6859 71.2553 34.6682 71.2553C34.7035 71.379 34.6152 71.1317 34.6505 71.2023C34.6505 71.22 34.6682 71.2376 34.6682 71.2376C34.6329 71.167 34.6152 71.0787 34.5975 71.008C34.5975 71.0257 34.5799 71.0433 34.5799 71.0433C34.5799 71.0433 34.5799 71.0257 34.5799 71.008C34.5799 70.9727 34.5622 70.8843 34.5799 70.9197C34.5799 70.9373 34.5799 70.955 34.5975 70.955C34.5975 70.9197 34.6152 70.9197 34.5975 70.955C34.5975 70.9727 34.5975 70.9903 34.5975 70.9903C34.6152 70.9373 34.6329 70.849 34.6505 70.8137C34.7919 70.478 34.9332 70.1424 35.0922 69.8068C35.3925 69.1708 35.7458 68.5525 36.1521 67.9519C36.8234 66.9627 37.636 66.0264 38.6075 65.2315C38.7135 65.1432 38.8195 65.0725 38.9078 64.9842C38.9432 64.9665 38.9432 64.9488 38.9432 64.9488C38.9432 64.9488 38.9608 64.9488 38.9962 64.9135C39.0492 64.8605 39.1198 64.8252 39.1905 64.7722C39.4201 64.6132 39.6498 64.4542 39.8794 64.3129C40.3211 64.0303 40.7627 63.7829 41.222 63.5533C41.328 63.5003 41.434 63.4473 41.5576 63.3943C41.6106 63.3766 41.6636 63.3413 41.7166 63.3237C41.7519 63.306 41.7696 63.306 41.8049 63.2883C41.7343 63.306 41.8933 63.253 41.8049 63.2883C42.0169 63.2 42.2466 63.1117 42.4585 63.041C42.8648 62.8997 43.2711 62.776 43.6774 62.6524C44.0484 62.564 44.4017 62.4757 44.7727 62.4051C44.9317 62.3697 45.1083 62.3521 45.2673 62.3167C45.3026 62.3167 45.338 62.2991 45.3733 62.2991H45.3556C45.2673 62.3167 45.5146 62.2814 45.391 62.2991C45.391 62.2991 45.391 62.2991 45.3733 62.2991C45.444 62.2991 45.5146 62.2814 45.5853 62.2637C45.9739 62.2284 46.3625 62.1931 46.7512 62.1931C46.8042 62.1931 46.8572 62.1931 46.9102 62.1931C47.2105 62.2107 47.4931 61.9281 47.4931 61.6101C47.4754 60.6915 47.4578 59.7729 47.4401 58.8544C47.4225 58.1124 46.2742 58.1124 46.2919 58.8544C46.3096 59.5786 46.3272 60.3029 46.3272 61.0448C46.5215 61.0272 46.7159 61.0272 46.9102 61.0272C46.7159 61.2215 46.5215 61.4158 46.3272 61.6101C46.3272 61.4158 46.3272 61.2392 46.3096 61.0448C46.1329 61.0625 45.9562 61.0625 45.7973 61.0802C44.8257 61.1685 43.8718 61.3628 42.9355 61.6278C40.0384 62.4934 37.4946 64.2069 35.6574 66.6094C35.0922 67.3513 34.5976 68.1639 34.1736 68.9942C33.9263 69.4888 33.7143 69.9834 33.52 70.4957C33.467 70.637 33.4316 70.7783 33.4316 70.955C33.467 71.6086 33.8909 72.2446 34.2442 72.7568C35.6574 74.8237 37.6536 76.5195 39.7911 77.7914C42.9002 79.6463 46.5039 80.6002 50.1429 80.5472C52.404 80.5119 54.6652 80.0879 56.838 79.5049C58.6752 79.0103 60.4594 78.3214 62.1375 77.4381C64.2927 76.3075 66.2889 74.7883 67.7904 72.8628C68.1614 72.3859 68.5147 71.8913 68.7973 71.3613C68.8503 71.273 68.8856 71.2023 68.921 71.114C69.0976 70.743 68.8856 70.2484 68.7796 69.8774C68.6736 69.4358 68.5147 68.9765 68.338 68.5172Z" fill="#21223F"/>
<path d="M46.9267 61.0801C46.7324 61.0801 46.5381 61.0801 46.3438 61.0977C46.3438 61.2921 46.3438 61.4687 46.3614 61.663C46.5557 61.4687 46.7501 61.2744 46.9267 61.0801Z" fill="#21223F"/>
<path d="M34.5977 70.9727C34.5977 70.9904 34.5977 71.008 34.5977 71.0257C34.5977 71.0434 34.5977 71.0257 34.5801 71.008C34.5801 71.0257 34.5801 71.061 34.5801 71.0433C34.5801 71.0433 34.5977 71.0257 34.5977 71.008C34.6154 70.9904 34.6154 70.9727 34.5977 70.9727Z" fill="#21223F"/>
<path d="M34.6852 71.2378C34.6852 71.2202 34.6675 71.2025 34.6675 71.1848C34.6322 71.1318 34.7382 71.3615 34.6852 71.2378Z" fill="#21223F"/>
<path d="M34.5977 70.9197C34.58 70.8843 34.5977 70.955 34.5977 71.008C34.5977 70.9903 34.5977 70.9727 34.6154 70.9727C34.5977 70.9373 34.5977 70.9197 34.5977 70.9197Z" fill="#21223F"/>
<path d="M35.6041 72.6863C35.5345 72.5992 35.6564 72.7733 35.6041 72.6863V72.6863Z" fill="#21223F"/>
<path d="M34.5977 70.9543C34.6147 70.9202 34.6147 70.9202 34.5977 70.9543V70.9543Z" fill="#21223F"/>
<path d="M34.6146 71.0073C34.6146 70.9899 34.6146 70.9725 34.6146 70.9551C34.5972 70.9725 34.5972 70.9899 34.6146 71.0073C34.5972 71.0247 34.5972 71.0247 34.6146 71.0073Z" fill="#21223F"/>
<path d="M39.3688 68.6055C39.0331 68.6055 38.8211 68.8704 38.7858 69.1884C38.7505 69.4181 38.6798 69.6477 38.5915 69.8067C38.4678 70.0363 38.4148 70.0893 38.2735 70.2483C37.9732 70.5663 37.6022 70.8313 37.3019 71.1493C36.4717 71.9972 35.6767 73.1101 35.7121 74.3643C35.7297 75.1063 36.878 75.1063 36.8603 74.3643C36.8426 73.8167 37.0546 73.3751 37.3549 72.9158C37.6376 72.4918 37.9909 72.0855 38.3618 71.7322C38.6975 71.4319 39.0508 71.1493 39.3158 70.796C39.6867 70.319 39.8634 69.789 39.9341 69.2061C39.987 68.8705 39.6691 68.6055 39.3688 68.6055Z" fill="#21223F"/>
<path d="M61.0959 74.7182C60.8839 73.9409 60.831 73.252 60.778 72.4394C60.7603 72.1214 60.5306 71.8564 60.195 71.8564C59.8947 71.8564 59.5944 72.1214 59.6121 72.4394C59.6651 73.305 59.7534 74.1882 59.9654 75.0362C60.1774 75.8841 60.5483 76.679 60.9193 77.474C61.0606 77.7566 61.4492 77.8273 61.7142 77.686C61.9969 77.5093 62.0499 77.1737 61.9262 76.891C61.5906 76.1667 61.2902 75.4778 61.0959 74.7182Z" fill="#21223F"/>
<path d="M62.0309 43.0965C61.9779 43.0612 62.0839 43.1495 62.0309 43.0965V43.0965Z" fill="#21223F"/>
<path d="M62.4902 43.5557C62.4902 43.5557 62.5079 43.5733 62.5079 43.591C62.5256 43.6087 62.5256 43.6087 62.4902 43.5557Z" fill="#21223F"/>
<path d="M62.9156 44.2802C62.8979 44.2448 62.8979 44.2625 62.9156 44.2802C62.9156 44.2978 62.9156 44.3155 62.9156 44.2802Z" fill="#21223F"/>
<path d="M61.4141 42.7432C61.4315 42.7432 61.4315 42.7606 61.4489 42.7606C61.5011 42.778 61.4141 42.7432 61.4141 42.7432Z" fill="#21223F"/>
<path d="M58.5172 50.1279C58.2875 50.2693 58.0402 50.3929 57.8105 50.5342C57.8105 50.5342 57.8105 50.5342 57.8282 50.5342C58.1285 50.6049 58.4112 50.4106 58.5172 50.1279Z" fill="#21223F"/>
<path d="M62.3672 41.9487C61.272 41.2951 59.9471 41.2951 58.7458 41.6837C58.4455 41.772 58.2512 42.09 58.3395 42.3903C58.4279 42.6906 58.7458 42.8849 59.0461 42.7966C59.3111 42.7083 59.5584 42.6553 59.8234 42.6023C59.8411 42.6023 59.8588 42.6023 59.8764 42.6023C59.8588 42.6023 59.8587 42.6023 59.9117 42.6023C59.8941 42.6023 59.8941 42.6023 59.8764 42.6023C59.8941 42.6023 59.9117 42.6023 59.9294 42.6023C59.9824 42.6023 60.0354 42.5846 60.0884 42.5846C60.2121 42.5846 60.3357 42.5669 60.4594 42.5846C60.5654 42.5846 60.6714 42.6023 60.7773 42.6023H60.7597C60.7597 42.6023 60.8657 42.6199 60.795 42.6023C60.795 42.6023 60.795 42.6023 60.7773 42.6023C60.795 42.6023 60.8303 42.6023 60.848 42.6199C60.901 42.6376 60.954 42.6376 61.007 42.6553C61.113 42.6729 61.2013 42.7083 61.2896 42.7436C61.3426 42.7613 61.3956 42.7789 61.4309 42.7966C61.4133 42.7966 61.4133 42.7789 61.3956 42.7789C61.3956 42.7789 61.4839 42.8143 61.4309 42.7966C61.4486 42.7966 61.4663 42.8142 61.4839 42.8142C61.6783 42.9026 61.8373 43.0086 62.0139 43.1322C61.9786 43.0969 62.0669 43.1675 62.0139 43.1322C62.0139 43.1322 62.0139 43.1322 62.0316 43.1499C62.0669 43.1852 62.1022 43.2205 62.1376 43.2559C62.2082 43.3265 62.2789 43.3972 62.3495 43.4679C62.3849 43.5032 62.4025 43.5385 62.4379 43.5738C62.4555 43.5915 62.4732 43.6268 62.4909 43.6445C62.4909 43.6268 62.4732 43.6268 62.4732 43.6092C62.5085 43.6622 62.5085 43.6622 62.4909 43.6445C62.5438 43.7152 62.5968 43.7858 62.6498 43.8742C62.7028 43.9625 62.7382 44.0331 62.7912 44.1215C62.8088 44.1568 62.8265 44.1921 62.8442 44.2451C62.8618 44.2628 62.8795 44.3335 62.8972 44.3688C62.8795 44.3335 62.8795 44.3511 62.8972 44.3688C62.8972 44.3864 62.8972 44.3864 62.8972 44.3688C62.9148 44.3864 62.9148 44.4218 62.9325 44.4394C62.9501 44.4924 62.9678 44.5454 62.9855 44.5808C63.0208 44.6868 63.0385 44.7751 63.0738 44.8811C63.0915 44.9694 63.1091 45.0754 63.1268 45.1637C63.1268 45.199 63.1445 45.2344 63.1445 45.2874C63.1445 45.2167 63.1621 45.3934 63.1445 45.305V45.2874C63.1445 45.3227 63.1445 45.3404 63.1621 45.3757C63.1798 45.5877 63.1798 45.7997 63.1798 45.994C63.1798 46.1 63.1621 46.1883 63.1621 46.2943C63.1621 46.312 63.1621 46.312 63.1621 46.3296C63.1621 46.2943 63.1621 46.3826 63.1621 46.3296V46.3473C63.1445 46.4003 63.1445 46.4533 63.1268 46.5063C63.0915 46.7183 63.0208 46.9302 62.9501 47.1246C62.9325 47.1775 62.9148 47.2305 62.8972 47.2835C62.8972 47.3012 62.8795 47.3189 62.8795 47.3189C62.9148 47.2659 62.8795 47.3365 62.8618 47.3365C62.8618 47.3365 62.8618 47.3189 62.8795 47.3189C62.8265 47.4249 62.7912 47.5308 62.7382 47.6192C62.6322 47.8135 62.5262 47.9901 62.3849 48.1668C62.4025 48.1491 62.4025 48.1491 62.3672 48.1845L62.3849 48.1668C62.3672 48.1845 62.3319 48.2375 62.3142 48.2551C62.2789 48.3081 62.2436 48.3435 62.1906 48.3964C62.1022 48.4848 62.0316 48.5731 61.9432 48.6614C60.9187 49.6153 59.4171 49.8803 58.1099 49.474C57.7919 49.368 57.4916 49.5977 57.4033 49.8803C57.2973 50.1806 57.5269 50.5163 57.8096 50.5869C57.8096 50.5869 57.8096 50.5869 57.8272 50.5869C57.8272 50.5869 57.8272 50.5869 57.8096 50.5869C58.0392 50.4456 58.2865 50.3219 58.5162 50.1806C58.4102 50.4633 58.1276 50.6576 57.8272 50.5869C59.2935 51.0462 61.007 50.7989 62.2612 49.8803C63.1798 49.209 63.8511 48.2728 64.1514 47.1775C64.6813 45.252 64.0984 42.9909 62.3672 41.9487Z" fill="#21223F"/>
<path d="M62.3847 48.1143L62.3672 48.1318C62.3847 48.1143 62.3847 48.1143 62.3847 48.1143Z" fill="#21223F"/>
<path d="M62.879 47.2658C62.879 47.2835 62.879 47.2835 62.8613 47.2835C62.8613 47.2835 62.8967 47.2128 62.879 47.2658Z" fill="#21223F"/>
<path d="M63.1445 46.2594C63.1445 46.33 63.1622 46.2241 63.1445 46.2594V46.2594Z" fill="#21223F"/>
<path d="M63.162 45.2161V45.2335C63.162 45.3206 63.1446 45.1464 63.162 45.2161Z" fill="#21223F"/>
<path d="M51.5042 56.47C49.7377 57.477 47.7415 58.0776 45.7277 58.0952C43.9258 58.1129 42.1416 57.689 40.5871 56.7527C39.0856 55.8518 37.9373 54.5446 37.1247 52.9547C36.2591 51.2235 35.7468 49.2273 35.4289 47.2842C35.0226 44.7404 34.9519 42.1083 35.2346 39.5468C35.2699 39.2288 34.9519 38.9639 34.6516 38.9639C34.316 38.9639 34.104 39.2288 34.0686 39.5468C33.8037 41.9846 33.8567 44.4401 34.1923 46.8779C34.4926 49.0153 35.0049 51.1352 35.9058 53.096C36.7008 54.8449 37.902 56.3464 39.4919 57.424C41.1171 58.5369 43.0779 59.1375 45.0564 59.2258C47.5119 59.3495 49.9496 58.6605 52.0695 57.4416C52.7231 57.0883 52.1401 56.0991 51.5042 56.47Z" fill="#21223F"/>
<path d="M49.2068 39.5463C47.9702 38.8044 46.4687 38.9633 45.1791 39.511C44.8965 39.6346 44.8258 40.0586 44.9671 40.3059C45.1615 40.5885 45.4618 40.6415 45.7621 40.5179C45.6738 40.5532 45.8681 40.4826 45.8857 40.4649C45.9564 40.4472 46.0271 40.4119 46.0977 40.3942C46.2214 40.3589 46.345 40.3236 46.4863 40.2882C46.557 40.2706 46.6277 40.2529 46.716 40.2352C46.7513 40.2352 46.7867 40.2176 46.822 40.2176C46.7867 40.2176 46.7867 40.2176 46.8397 40.2176C46.8397 40.2176 46.8397 40.2176 46.822 40.2176H46.8397C46.9633 40.1999 47.1046 40.1999 47.2283 40.1999C47.3519 40.1999 47.4933 40.1999 47.6169 40.2176C47.6346 40.2176 47.6699 40.2176 47.6876 40.2176C47.6699 40.2176 47.6876 40.2176 47.7229 40.2176C47.7052 40.2176 47.7053 40.2176 47.6876 40.2176C47.6876 40.2176 47.7052 40.2176 47.7406 40.2176C47.8112 40.2352 47.8819 40.2529 47.9526 40.2706C48.0762 40.3059 48.1999 40.3412 48.3235 40.3942C48.3942 40.4119 48.3942 40.4296 48.3412 40.3942C48.3765 40.4119 48.4118 40.4296 48.4472 40.4472C48.5178 40.4826 48.5708 40.5179 48.6415 40.5532C48.9065 40.7122 49.2774 40.6239 49.4364 40.3412C49.5601 40.0586 49.4894 39.723 49.2068 39.5463Z" fill="#21223F"/>
<path d="M37.8474 40.7485C37.8648 40.7485 37.8648 40.7485 37.8474 40.7485C37.7603 40.8007 37.9171 40.6962 37.8474 40.7485Z" fill="#21223F"/>
<path d="M38.6074 40.4657C38.6248 40.4657 38.6422 40.4482 38.6597 40.4482C38.6945 40.4482 38.6248 40.4482 38.6074 40.4657Z" fill="#21223F"/>
<path d="M40.6924 39.6706C40.1447 39.3879 39.4911 39.2643 38.8729 39.2819C38.1839 39.3173 37.495 39.4939 37.0004 39.9709C36.7707 40.1829 36.7707 40.5891 37.0004 40.7835C37.23 40.9954 37.5833 40.9954 37.813 40.7835C37.8306 40.7658 37.8483 40.7481 37.8659 40.7305C37.7776 40.7835 37.9189 40.6598 37.8836 40.7128C37.9366 40.6775 37.9719 40.6421 38.0249 40.6245C38.0603 40.6068 38.0779 40.5892 38.1133 40.5892C38.1309 40.5892 38.1309 40.5715 38.1486 40.5715C38.1839 40.5538 38.1663 40.5538 38.0956 40.5892C38.1133 40.5538 38.2369 40.5362 38.2722 40.5185C38.3959 40.4832 38.5196 40.4478 38.6432 40.4302C38.6609 40.4302 38.6786 40.4302 38.6786 40.4302C38.6609 40.4302 38.6432 40.4302 38.6255 40.4478C38.6432 40.4302 38.7139 40.4302 38.6786 40.4302C38.6962 40.4302 38.7139 40.4302 38.7315 40.4302C38.8022 40.4302 38.8729 40.4125 38.9258 40.4125C39.0495 40.4125 39.1732 40.4125 39.3145 40.4302C39.3498 40.4302 39.3851 40.4302 39.4205 40.4478C39.4558 40.4478 39.4735 40.4478 39.4735 40.4478C39.4558 40.4478 39.4381 40.4478 39.4205 40.4478C39.4205 40.4478 39.4205 40.4478 39.4028 40.4478C39.4028 40.4478 39.4028 40.4478 39.4205 40.4478C39.4381 40.4478 39.4735 40.4478 39.4735 40.4478C39.5265 40.4655 39.5795 40.4655 39.5971 40.4655C39.7208 40.4832 39.8268 40.5185 39.9504 40.5538C39.9681 40.5538 39.9858 40.5715 40.0211 40.5715C40.0388 40.5715 40.0917 40.6068 40.0741 40.5892H40.0564C40.0388 40.5715 39.9504 40.5362 40.0388 40.5715C40.0564 40.5891 40.0741 40.5892 40.0741 40.5892C40.0917 40.6068 40.1271 40.6068 40.1447 40.6245C40.4097 40.7658 40.7807 40.6951 40.9397 40.4125C41.0457 40.2005 40.975 39.8119 40.6924 39.6706Z" fill="#21223F"/>
<path d="M39.3848 40.4482C39.4022 40.4482 39.4196 40.4482 39.437 40.4482C39.4544 40.4657 39.4196 40.4657 39.3848 40.4482Z" fill="#21223F"/>
<path d="M40.0035 40.6069C39.9152 40.5716 40.0035 40.6069 40.0211 40.6246H40.0388C40.0388 40.6246 40.0211 40.6246 40.0035 40.6069Z" fill="#21223F"/>
<path d="M46.7688 43.0091C46.1505 43.0268 45.6735 43.7687 45.7089 44.6696C45.7442 45.5706 46.2565 46.2948 46.8748 46.2595C47.4931 46.2242 47.97 45.4999 47.9347 44.599C47.917 43.6981 47.3871 42.9914 46.7688 43.0091Z" fill="#21223F"/>
<path d="M39.1907 43.2386C38.5724 43.2563 38.0954 43.9982 38.1307 44.8991C38.1661 45.8 38.6784 46.5243 39.2967 46.489C39.9149 46.4713 40.3919 45.7294 40.3566 44.8285C40.3212 43.9452 39.8089 43.2209 39.1907 43.2386Z" fill="#21223F"/>
<path d="M58.8693 47.1602C58.9399 46.9482 59.0283 46.7539 59.1166 46.5596C58.8693 46.5949 58.6396 46.6832 58.4453 46.8245C58.5866 46.9482 58.728 47.0542 58.8693 47.1602Z" fill="#21223F"/>
<path d="M60.795 44.2281C60.3534 44.2634 59.9824 44.5637 59.6644 44.864C59.0462 45.4646 58.6045 46.2066 58.3042 47.0192C58.2159 47.2488 58.5339 47.4961 58.7282 47.3371C59.1875 47.0015 59.8941 47.0721 60.2297 47.5491C60.3181 47.6728 60.477 47.7434 60.6184 47.6551C60.742 47.5844 60.8127 47.3901 60.7243 47.2665C60.371 46.7542 59.7174 46.4892 59.0992 46.5775C58.9932 46.7718 58.9225 46.9662 58.8518 47.1781C58.7105 47.0722 58.5692 46.9662 58.4279 46.8602C58.6399 46.7189 58.8695 46.6305 59.0992 46.5952C59.3111 46.1889 59.5761 45.8003 59.8764 45.4646C60.0884 45.235 60.3181 44.97 60.6184 44.864C60.8303 44.7934 61.0953 44.811 61.219 45.023C61.378 45.3586 61.8902 45.0583 61.7136 44.7404C61.5723 44.3694 61.166 44.1927 60.795 44.2281Z" fill="#21223F"/>
<path d="M51.3702 50.9392C52.4721 50.9046 53.3453 50.2362 53.3204 49.4464C53.2956 48.6565 52.3822 48.0443 51.2803 48.0789C50.1784 48.1135 49.3053 48.7819 49.3301 49.5718C49.3549 50.3616 50.2683 50.9739 51.3702 50.9392Z" fill="#FFA697"/>
<path d="M41.1345 50.622C40.9578 51.311 41.2582 52.0882 41.8234 52.5122C42.4064 52.9185 43.2367 52.9362 43.8373 52.5475C44.4202 52.1412 44.7205 51.3463 44.5262 50.675C43.4486 50.4277 42.2297 50.463 41.1345 50.622Z" fill="#21223F"/>
<path d="M41.3281 51.9652C41.4518 52.1772 41.6108 52.3715 41.8227 52.5129C42.4057 52.9192 43.236 52.9368 43.8366 52.5482C44.0662 52.3892 44.2429 52.1772 44.3665 51.9476C43.7129 51.6826 42.6 51.4353 41.3281 51.9652Z" fill="#F96464"/>
<path d="M41.064 50.3398C41.0464 50.3398 41.0464 50.3575 41.064 50.3398H41.0817C41.064 50.3398 41.064 50.3398 41.064 50.3398Z" fill="#21223F"/>
<path d="M41.0098 50.3575C41.0274 50.3575 41.0274 50.3398 41.0451 50.3398C41.0451 50.3575 41.0274 50.3575 41.0098 50.3575Z" fill="#21223F"/>
<path d="M44.5963 50.3928C43.448 50.1454 42.2468 50.1984 41.0986 50.3574C41.2752 50.3398 41.4695 50.4987 41.4165 50.7107C41.3989 50.7637 41.3989 50.8344 41.3812 50.8874C42.3351 50.7637 43.3244 50.7284 44.2783 50.9227C44.2783 50.8697 44.2606 50.8167 44.243 50.7461C44.3136 50.8167 44.3843 50.8874 44.4373 50.9404C44.3843 50.9227 44.3313 50.9227 44.2783 50.905C44.3313 51.276 44.2253 51.6823 43.9957 51.9826C43.7307 52.3536 43.2891 52.5479 42.8298 52.5302C41.9465 52.5126 41.2929 51.7176 41.3812 50.8697C41.3282 50.8697 41.2576 50.8874 41.2046 50.8874C41.0456 50.905 40.8866 50.8521 40.8513 50.6931C40.8159 50.5694 40.8866 50.4104 40.9926 50.3574C40.9219 50.3928 40.8689 50.4457 40.8513 50.5341C40.6393 51.4703 41.0809 52.5302 41.9818 52.9189C42.9181 53.3252 44.031 53.0249 44.5609 52.1416C44.8436 51.6646 44.9319 51.0994 44.7906 50.5694C44.7729 50.4987 44.6846 50.4104 44.5963 50.3928Z" fill="#21223F"/>
<path d="M44.2422 50.7461C44.2599 50.7991 44.2598 50.8521 44.2775 50.9227C44.3305 50.9404 44.3835 50.9404 44.4365 50.9581C44.3658 50.8698 44.3128 50.8168 44.2422 50.7461Z" fill="#21223F"/>
<path d="M40.8509 50.7112C40.9039 50.8702 41.0452 50.9409 41.2042 50.9055C41.2572 50.9055 41.3279 50.8879 41.3808 50.8879C41.3808 50.8349 41.3985 50.7642 41.4162 50.7112C41.4692 50.4816 41.2749 50.3403 41.0982 50.3579H41.0805H41.0629C41.0452 50.3579 41.0452 50.3579 41.0275 50.3756H41.0099C40.8862 50.4286 40.8156 50.5876 40.8509 50.7112Z" fill="#21223F"/>
<path d="M47.1593 43.9456C46.9473 43.9632 46.7707 44.1575 46.7883 44.3695C46.806 44.5815 47.0003 44.7582 47.2123 44.7405C47.4243 44.7228 47.6009 44.5285 47.5833 44.3165C47.5656 44.1045 47.3713 43.9279 47.1593 43.9456Z" fill="white"/>
<path d="M39.5792 44.1575C39.3672 44.1751 39.1906 44.3694 39.2083 44.5814C39.2259 44.7934 39.4202 44.9701 39.6322 44.9524C39.8442 44.9347 40.0208 44.7404 40.0032 44.5284C39.9855 44.3165 39.8089 44.1398 39.5792 44.1575Z" fill="white"/>
<path d="M56.9105 60.6215C56.9105 60.6215 56.0979 63.4479 49.4205 64.6315C49.4205 64.6315 49.2085 70.6906 52.6709 70.6906C56.7869 70.6906 60.6026 64.4725 60.8499 61.5401C60.8675 61.5224 58.5181 60.2505 56.9105 60.6215Z" fill="#0198FF"/>
<path d="M46.928 61.6628C45.1262 61.1505 43.13 62.2458 43.13 62.2458C41.8581 66.2381 43.0594 70.9017 45.5501 70.3364C48.0586 69.7711 49.4188 64.6306 49.4188 64.6306C47.9349 63.6943 46.928 61.6628 46.928 61.6628Z" fill="#0198FF"/>
<path d="M51.5031 69.7006C51.3986 69.6483 51.5727 69.7876 51.5031 69.7006V69.7006Z" fill="#21223F"/>
<path d="M52.3864 70.0713C52.369 70.0713 52.369 70.0713 52.3516 70.0713C52.4212 70.0887 52.4386 70.0887 52.3864 70.0713Z" fill="#21223F"/>
<path d="M51.9085 69.9482C51.9433 69.9656 51.9781 69.983 51.9085 69.9482C51.8562 69.9308 51.891 69.9482 51.9085 69.9482Z" fill="#21223F"/>
<path d="M50.6187 68.4455C50.5665 68.3236 50.6535 68.5326 50.6187 68.4455V68.4455Z" fill="#21223F"/>
<path d="M51.1147 69.3288L51.0977 69.3117C51.0977 69.2947 51.1147 69.3118 51.1147 69.3288Z" fill="#21223F"/>
<path d="M60.2656 61.627C60.2656 61.7663 60.283 61.5399 60.2656 61.627V61.627Z" fill="#21223F"/>
<path d="M59.8931 61.6985C59.7886 61.6463 59.9279 61.7159 59.8931 61.6985V61.6985Z" fill="#21223F"/>
<path d="M60.2835 61.5215C60.2835 61.5568 60.2835 61.5921 60.2658 61.6275V61.6098C60.2835 61.5215 60.2481 61.7511 60.2658 61.6275C60.2481 61.6981 60.2481 61.7688 60.2305 61.8395C60.3365 61.8925 60.4601 61.9455 60.5661 61.9984C60.4778 61.8571 60.3718 61.6805 60.2835 61.5215Z" fill="#21223F"/>
<path d="M53.1987 70.0537C53.1813 70.0537 53.1639 70.0537 53.1465 70.0537C53.1465 70.0711 53.1639 70.0711 53.1987 70.0537Z" fill="#21223F"/>
<path d="M56.0424 60.9738L56.0248 60.9915L56.0071 61.0092C55.9541 61.0975 56.1131 60.9032 56.0424 60.9738Z" fill="#21223F"/>
<path d="M56.361 60.4619C56.361 60.4619 56.361 60.4619 56.3436 60.4793C56.3436 60.4967 56.3262 60.5142 56.3262 60.5142C56.3262 60.5316 56.3436 60.4967 56.361 60.4619Z" fill="#21223F"/>
<path d="M56.3622 60.4621C56.3445 60.5681 56.3269 60.6564 56.3622 60.7624C56.4505 61.0804 56.7685 61.2217 57.0688 61.1687C57.1218 61.1511 57.1571 61.1511 57.2101 61.1334H57.2278C57.2101 61.1334 57.2455 61.1334 57.2278 61.1334C57.2278 61.1334 57.2454 61.1334 57.2631 61.1334C57.2808 61.1334 57.2985 61.1334 57.3161 61.1334C57.3868 61.0097 57.4398 60.8861 57.4751 60.7624C57.6517 60.1441 56.8391 59.8262 56.4858 60.2325C56.4152 60.3031 56.3799 60.3738 56.3622 60.4621C56.3799 60.4268 56.3622 60.4444 56.3622 60.4621Z" fill="#21223F"/>
<path d="M56.3614 60.4621C56.3437 60.4797 56.3438 60.4797 56.3438 60.4974C56.3438 60.4797 56.3614 60.4621 56.3614 60.4621Z" fill="#21223F"/>
<path d="M55.1772 61.8395C55.1598 61.857 55.1424 61.8744 55.125 61.8918C55.1772 61.8395 55.1772 61.8221 55.1772 61.8395Z" fill="#21223F"/>
<path d="M50.1073 66.4149C50.0899 66.3452 50.1073 66.502 50.1073 66.4149V66.4149Z" fill="#21223F"/>
<path d="M50.0021 64.6133C49.8608 64.8076 49.7194 64.9843 49.5781 65.1786C49.7194 65.1609 49.8608 65.1256 50.0021 65.0902C50.0021 64.9313 50.0021 64.7723 50.0021 64.6133Z" fill="#21223F"/>
<path d="M61.1486 61.0271C60.654 60.7621 60.1417 60.5501 59.6117 60.3735C58.7108 60.0555 57.7039 59.8612 56.75 60.0732C56.6263 60.0908 56.538 60.1615 56.4673 60.2498C56.8206 59.8435 57.6509 60.1615 57.4566 60.7798C57.4212 60.9034 57.3682 61.0271 57.2976 61.1508C57.3859 61.1508 57.4742 61.1331 57.5626 61.1331C57.6685 61.1331 57.7745 61.1331 57.8805 61.1508C58.0219 61.1684 57.9689 61.1508 58.1102 61.1861C58.5342 61.2567 58.9581 61.3804 59.3644 61.5217C59.5411 61.5747 59.7177 61.6454 59.8767 61.716H59.8944C59.7884 61.663 59.9297 61.7337 59.8944 61.716C59.9297 61.7337 59.965 61.7514 60.0004 61.769C60.071 61.8044 60.124 61.822 60.1947 61.8574C60.2123 61.8574 60.2123 61.875 60.23 61.875C60.2477 61.8044 60.2477 61.7337 60.2653 61.663C60.2653 61.6277 60.2653 61.5924 60.283 61.5571C60.3713 61.716 60.4773 61.8927 60.5656 62.0517C60.4596 61.9987 60.336 61.9457 60.23 61.8927C60.1947 62.0517 60.1593 62.2107 60.124 62.3697C60.0357 62.7053 59.9297 63.0409 59.7884 63.3589C59.6647 63.6945 59.5411 63.9772 59.3468 64.3658C59.1524 64.7545 58.9405 65.1254 58.7285 65.4964C57.8629 66.9273 56.697 68.3228 55.3367 69.2237C54.6478 69.683 54.0825 69.948 53.2699 70.0893C53.2523 70.0893 53.1816 70.107 53.1639 70.107C53.1816 70.107 53.1993 70.107 53.2169 70.107C53.1639 70.107 53.1639 70.107 53.1639 70.107C53.1286 70.107 53.1109 70.107 53.0756 70.1247C52.9873 70.1247 52.899 70.1423 52.8106 70.1423C52.7223 70.1423 52.634 70.1423 52.5457 70.1423C52.5103 70.1423 52.4927 70.1423 52.4573 70.1423C52.4397 70.1423 52.422 70.1423 52.3867 70.1423C52.4397 70.16 52.4397 70.1423 52.3513 70.1423C52.369 70.1423 52.369 70.1423 52.3867 70.1423C52.2453 70.107 52.104 70.0893 51.9804 70.0363C51.9804 70.0363 51.9627 70.0187 51.9274 70.0187C51.9627 70.0363 51.9804 70.0363 51.9274 70.0187C51.8744 70.001 51.892 70.001 51.9274 70.0187C51.9097 70.0187 51.892 70.001 51.892 70.001C51.8214 69.9657 51.7507 69.9303 51.6801 69.8774C51.6271 69.842 51.5741 69.8067 51.5211 69.7714C51.4151 69.7007 51.5917 69.842 51.5211 69.7714C51.5034 69.7537 51.4857 69.736 51.4681 69.7184C51.3444 69.6124 51.2561 69.5064 51.1501 69.3827C51.1501 69.3651 51.1324 69.3651 51.1324 69.3474C51.0971 69.2944 51.1148 69.3297 51.1324 69.3474C51.1148 69.3297 51.0971 69.2944 51.0794 69.2767C51.0441 69.2237 51.0088 69.1707 50.9735 69.1001C50.8851 68.9764 50.8145 68.8351 50.7438 68.6938C50.7085 68.6231 50.6908 68.5701 50.6555 68.4995C50.6025 68.3758 50.6908 68.5878 50.6555 68.4995C50.6378 68.4641 50.6202 68.4288 50.6202 68.3935C50.5672 68.2522 50.5142 68.0932 50.4612 67.9518C50.3728 67.6515 50.3022 67.3512 50.2315 67.0333C50.1962 66.8743 50.1785 66.7153 50.1432 66.5386C50.1432 66.521 50.1432 66.4856 50.1255 66.468C50.1079 66.3973 50.1432 66.5563 50.1255 66.468C50.1255 66.4503 50.1255 66.4503 50.1255 66.4326C50.1255 66.362 50.1079 66.2737 50.1079 66.203C50.0725 65.938 50.0549 65.673 50.0549 65.4081C50.0549 65.3197 50.0549 65.2314 50.0372 65.1254C49.8959 65.1607 49.7545 65.1784 49.6132 65.2137C49.7545 65.0194 49.8959 64.8428 50.0372 64.6485C50.0372 64.8075 50.0372 64.9664 50.0372 65.1254C51.839 64.7721 53.6586 64.2422 55.2131 63.2529C56.008 62.7583 56.7853 62.1223 57.2623 61.2921C57.2799 61.2568 57.3153 61.2037 57.3329 61.1508C57.3153 61.1508 57.2976 61.1508 57.2799 61.1508C57.2622 61.1508 57.2446 61.1508 57.2446 61.1508C57.2446 61.1508 57.2446 61.1508 57.2269 61.1508C57.1739 61.1508 57.1386 61.1684 57.0856 61.1861C56.7853 61.2567 56.4673 61.0978 56.379 60.7798C56.3613 60.6915 56.3613 60.5855 56.379 60.4795C56.3613 60.5148 56.3437 60.5501 56.3437 60.5501C56.3437 60.5325 56.3613 60.5148 56.3613 60.5148C56.3437 60.5501 56.326 60.6031 56.2907 60.6385C56.2377 60.7445 56.167 60.8505 56.0964 60.9564C56.0787 60.9741 56.061 60.9918 56.0434 61.0271L56.061 61.0094C56.1317 60.9388 55.9727 61.1331 56.0257 61.0624C55.955 61.1331 55.902 61.2214 55.8314 61.2921C55.6901 61.4511 55.5311 61.6101 55.3544 61.7337C55.3014 61.769 55.2484 61.822 55.1954 61.8574C55.1954 61.8574 55.1778 61.8574 55.1778 61.875C55.1778 61.875 55.1778 61.875 55.1248 61.928C55.1424 61.9104 55.1601 61.8927 55.1778 61.875C55.1601 61.875 55.1248 61.9104 55.1071 61.928C54.9835 62.0164 54.8598 62.1047 54.7361 62.193C54.4535 62.3873 54.1532 62.5463 53.8529 62.7053C53.4642 62.8996 53.1639 63.0233 52.8283 63.1646C51.6801 63.6062 50.4788 63.9065 49.2599 64.1185C49.0126 64.1715 48.836 64.4365 48.836 64.6838C48.8006 65.4787 48.889 66.2913 49.0126 67.0863C49.2246 68.3405 49.6662 69.7714 50.6908 70.6193C52.0334 71.7145 53.8529 71.3612 55.2838 70.6193C56.9443 69.736 58.2692 68.2698 59.3114 66.733C59.8944 65.8674 60.389 64.9664 60.7776 63.9949C61.0956 63.2176 61.3429 62.4226 61.4312 61.5924C61.4489 61.3274 61.3076 61.1154 61.1486 61.0271Z" fill="#21223F"/>
<path d="M56.3613 60.4612C56.3613 60.4441 56.3784 60.4269 56.3613 60.4612V60.4612Z" fill="#21223F"/>
<path d="M48.8716 64.4717C48.8363 64.5953 48.801 64.7366 48.7656 64.8603C48.8893 64.9486 49.0129 65.037 49.1366 65.1253C49.0483 64.8956 48.9599 64.6837 48.8716 64.4717Z" fill="#21223F"/>
<path d="M46.9637 68.6054C46.9284 68.6584 47.0167 68.5348 46.9637 68.6054V68.6054Z" fill="#21223F"/>
<path d="M48.2013 66.3623C48.2013 66.38 48.1836 66.38 48.1836 66.3976C48.2013 66.38 48.2013 66.38 48.2013 66.3623Z" fill="#21223F"/>
<path d="M47.1934 61.1328C47.211 61.1505 47.2464 61.1505 47.264 61.1681C47.2464 61.1681 47.211 61.1505 47.1934 61.1328Z" fill="#21223F"/>
<path d="M46.2404 69.3477C46.2227 69.3653 46.2227 69.3653 46.2051 69.383C46.2404 69.3653 46.2404 69.3477 46.2404 69.3477Z" fill="#21223F"/>
<path d="M47.1758 61.1328C47.1934 61.1328 47.1934 61.1328 47.2111 61.1505C47.1934 61.1328 47.1758 61.1328 47.1758 61.1328Z" fill="#21223F"/>
<path d="M47.2637 61.1855C47.2813 61.1855 47.2813 61.2032 47.299 61.2032C47.2813 61.1856 47.2637 61.1855 47.2637 61.1855Z" fill="#21223F"/>
<path d="M43.7148 68.4639C43.7325 68.4816 43.7325 68.5169 43.7148 68.4639V68.4639Z" fill="#21223F"/>
<path d="M43.784 62.5633C43.8014 62.5633 43.8014 62.5633 43.8188 62.5459C43.784 62.5633 43.7491 62.5807 43.784 62.5633Z" fill="#21223F"/>
<path d="M46.6459 61.1507C46.3633 61.3097 46.2926 61.663 46.4339 61.9456C46.4693 62.0163 46.5046 62.0869 46.5399 62.1576C46.6106 62.1752 46.6989 62.1929 46.7696 62.2106C47.2995 62.3519 47.5999 61.7866 47.4409 61.398C47.4409 61.3803 47.4232 61.3803 47.4232 61.3627C47.4055 61.3273 47.3879 61.292 47.3702 61.2743L47.3525 61.2567C47.3349 61.239 47.3172 61.2213 47.2995 61.2037C47.2819 61.2037 47.2819 61.186 47.2642 61.186C47.2465 61.1683 47.2289 61.1507 47.1935 61.1507C47.1935 61.1507 47.1759 61.1507 47.1582 61.133C46.9992 61.0623 46.8049 61.0623 46.6459 61.1507Z" fill="#21223F"/>
<path d="M43.4316 62.7233C43.5023 62.688 43.5553 62.6527 43.626 62.635C43.6436 62.5467 43.679 62.476 43.6966 62.3877C43.6083 62.4937 43.52 62.6173 43.4316 62.7233Z" fill="#21223F"/>
<path d="M45.7105 69.665C45.7282 69.665 45.7458 69.665 45.7105 69.665C45.6928 69.6827 45.6928 69.6827 45.7105 69.665Z" fill="#21223F"/>
<path d="M47.4593 61.3981C47.4417 61.3627 47.424 61.3097 47.3887 61.2744C47.4063 61.3097 47.424 61.3274 47.4417 61.3627C47.4417 61.3804 47.4417 61.3804 47.4593 61.3981Z" fill="#21223F"/>
<path d="M49.72 64.1185C49.0663 63.7122 48.501 63.0585 48.0947 62.4579C47.8651 62.1223 47.6355 61.769 47.4588 61.398C47.6355 61.7867 47.3175 62.3519 46.7875 62.2106C46.7169 62.1929 46.6285 62.1753 46.5579 62.1576C47.0878 63.1822 47.8474 64.1538 48.766 64.8427C48.8014 64.7191 48.8367 64.5777 48.872 64.4541C48.9603 64.6661 49.0487 64.8957 49.137 65.1077C49.0133 65.0194 48.8897 64.9311 48.766 64.8427C48.6424 65.249 48.501 65.6377 48.3421 66.0263C48.3067 66.1323 48.2537 66.2559 48.2007 66.3619C48.2007 66.3796 48.1654 66.4326 48.1831 66.3973C48.1831 66.4149 48.1654 66.4326 48.1654 66.4503C48.1477 66.5032 48.1124 66.5739 48.0947 66.6269C47.9888 66.8742 47.8651 67.1215 47.7238 67.3688C47.5825 67.6162 47.4411 67.8635 47.2998 68.1108C47.2291 68.2168 47.1585 68.3228 47.0878 68.4288C47.0525 68.4817 46.9995 68.5347 46.9642 68.5877C46.9288 68.6407 47.0172 68.5171 46.9642 68.5877C46.9465 68.6231 46.9112 68.6584 46.8935 68.6761C46.7345 68.8704 46.5579 69.0647 46.3636 69.2414C46.3282 69.2767 46.2929 69.312 46.2576 69.3297C46.2576 69.3297 46.2399 69.3473 46.2222 69.365C46.2399 69.3473 46.2399 69.3473 46.2576 69.3297C46.2752 69.312 46.1869 69.3827 46.1516 69.4003C46.0456 69.471 45.9396 69.5417 45.8336 69.5947C45.8159 69.5947 45.7453 69.63 45.7276 69.6477C45.7453 69.6477 45.7629 69.63 45.7276 69.6477C45.7099 69.6477 45.7099 69.6653 45.7276 69.6477C45.6923 69.6653 45.6569 69.683 45.6393 69.683C45.5863 69.7007 45.5333 69.7183 45.4803 69.736C45.4626 69.736 45.3743 69.7536 45.339 69.7713C45.3566 69.7713 45.3743 69.7713 45.339 69.7713C45.3213 69.7713 45.3213 69.7713 45.339 69.7713C45.3036 69.7713 45.233 69.7713 45.2153 69.7713C45.1623 69.7713 45.1093 69.7713 45.0387 69.7713C45.021 69.7713 45.021 69.7713 45.021 69.7713C44.9327 69.7713 45.074 69.789 45.021 69.7713C45.021 69.7713 45.0033 69.7713 44.9857 69.7713C44.9327 69.7536 44.862 69.736 44.809 69.7183C44.7914 69.7183 44.7737 69.7006 44.756 69.7006C44.8443 69.7536 44.756 69.7007 44.7384 69.683C44.7384 69.683 44.756 69.683 44.756 69.7006C44.703 69.6653 44.65 69.6476 44.6147 69.63C44.5794 69.6123 44.5264 69.577 44.491 69.5417L44.5087 69.5593C44.5617 69.6123 44.438 69.5063 44.491 69.5417C44.4734 69.524 44.4381 69.5063 44.4204 69.4887C44.3321 69.4003 44.2614 69.312 44.1731 69.2237L44.1554 69.206C44.1554 69.2237 44.1731 69.2237 44.1731 69.2414C44.1201 69.1707 44.1378 69.1884 44.1554 69.206C44.1378 69.1884 44.1377 69.1707 44.1201 69.153C44.0847 69.1 44.0318 69.0294 43.9964 68.9764C43.9258 68.8704 43.8728 68.7467 43.8021 68.6407C43.7668 68.5877 43.7491 68.5171 43.7138 68.4464C43.7315 68.4641 43.7315 68.4994 43.7138 68.4464C43.7138 68.4288 43.7138 68.4288 43.6961 68.4288C43.6784 68.3934 43.6608 68.3404 43.6431 68.3051C43.5371 68.0048 43.4488 67.6868 43.3781 67.3512C43.2192 66.6092 43.1838 65.8143 43.2192 65.0017C43.2545 64.1891 43.3958 63.4118 43.6255 62.6346C43.5548 62.6699 43.5018 62.6876 43.4311 62.7229C43.5195 62.5992 43.6078 62.4933 43.6961 62.3696C43.6784 62.4579 43.6431 62.5286 43.6255 62.6169C43.6608 62.5993 43.7138 62.5816 43.7491 62.5639C43.7668 62.5639 43.7845 62.5463 43.8021 62.5463C43.7668 62.5639 43.7844 62.5463 43.8374 62.5286C43.8198 62.5286 43.8198 62.5286 43.8021 62.5463C43.8021 62.5463 43.8021 62.5463 43.8198 62.5463C43.8904 62.5109 43.9611 62.4933 44.0318 62.4579C44.1907 62.4049 44.3497 62.3519 44.5087 62.2989C45.18 62.1046 45.8689 62.0163 46.5755 62.14C46.5402 62.0693 46.5049 61.9986 46.4696 61.928C46.3282 61.6453 46.3989 61.3097 46.6815 61.133C46.8405 61.0447 47.0348 61.0447 47.2115 61.0977C47.1938 61.08 47.1585 61.08 47.1408 61.0624C46.0809 60.7797 44.968 60.9211 43.9434 61.2567C43.6255 61.3627 43.3252 61.4863 43.0248 61.6277C42.6539 61.8043 42.5832 62.2283 42.4772 62.6169C42.0003 64.5071 41.9119 66.6622 42.5832 68.5171C42.8482 69.2767 43.2545 69.9833 43.9081 70.4779C44.4911 70.9019 45.233 71.0079 45.9043 70.8136C47.3351 70.3896 48.2537 68.9764 48.8897 67.7221C49.3666 66.7682 49.7729 65.7613 50.0379 64.7367C50.0556 64.5071 49.9319 64.2598 49.72 64.1185Z" fill="#21223F"/>
<path d="M45.0029 69.7891C44.9322 69.7891 45.0559 69.8067 45.0029 69.7891V69.7891Z" fill="#21223F"/>
<path d="M44.1725 69.2408C44.1725 69.2234 44.1551 69.2234 44.1551 69.206C44.1203 69.1886 44.1203 69.1712 44.1725 69.2408Z" fill="#21223F"/>
<path d="M44.4911 69.5592C44.4204 69.5062 44.5618 69.6122 44.4911 69.5592V69.5592Z" fill="#21223F"/>
<path d="M44.7559 69.7179C44.7383 69.7179 44.7383 69.7179 44.7559 69.7179C44.7383 69.7179 44.7383 69.7179 44.7383 69.7002C44.7383 69.7002 44.8266 69.7532 44.7559 69.7179Z" fill="#21223F"/>
<path d="M35.8357 39.0705C35.6944 39.0882 35.977 39.0529 35.8357 39.0705V39.0705Z" fill="#21223F"/>
<path d="M34.8296 39.0164C34.8122 39.0164 34.7948 38.999 34.7773 38.999C34.847 39.0164 34.847 39.0164 34.8296 39.0164Z" fill="#21223F"/>
<path d="M50.8868 29.1072C50.8868 29.1249 50.8691 29.1249 50.8691 29.1426C50.8868 29.0896 50.8868 29.0896 50.8868 29.1072Z" fill="#21223F"/>
<path d="M38.4689 38.2578C38.4513 38.2578 38.4513 38.2755 38.4336 38.2755C38.4336 38.2755 38.4336 38.2755 38.4689 38.2578Z" fill="#21223F"/>
<path d="M34.4236 34.1945C34.406 34.1945 34.459 34.1238 34.4236 34.1945V34.1945Z" fill="#21223F"/>
<path d="M51.7523 28.7889C51.452 28.6122 51.1517 28.7536 50.9574 29.0009C50.9397 29.0362 50.9044 29.0715 50.8867 29.0892C50.8867 29.0892 50.8868 29.0892 50.8691 29.1245C50.8691 29.1069 50.8867 29.1069 50.8867 29.0892C50.8691 29.1069 50.8337 29.1599 50.8161 29.1775C50.7454 29.2658 50.6748 29.3542 50.6041 29.4248C50.4628 29.6015 50.3215 29.7605 50.1625 29.9371C49.8445 30.2904 49.5265 30.6261 49.1909 30.9617C48.4666 31.6683 47.707 32.3396 46.9297 32.9932C45.3752 34.2651 43.644 35.4663 41.8599 36.5086C41.0473 36.9855 40.1993 37.4448 39.3514 37.8511C39.1571 37.9394 38.9451 38.0454 38.7508 38.1338C38.6624 38.1691 38.5918 38.2044 38.5035 38.2398C38.5035 38.2398 38.4328 38.2751 38.4151 38.2751C38.4328 38.2751 38.4328 38.2574 38.4505 38.2574C38.4151 38.2751 38.3975 38.2751 38.4151 38.2751C38.3621 38.2927 38.3091 38.3104 38.2562 38.3457C37.9028 38.4871 37.5319 38.6284 37.1786 38.7344C36.8606 38.8404 36.5426 38.9287 36.207 38.9994C36.0833 39.0347 35.942 39.0523 35.8184 39.07C35.942 39.0523 35.677 39.0877 35.8007 39.07C35.7654 39.07 35.73 39.07 35.7124 39.0877C35.6417 39.0877 35.5534 39.1053 35.4827 39.1053C35.3767 39.1053 35.2707 39.1053 35.1471 39.1053C35.1118 39.1053 35.0941 39.1053 35.0588 39.1053H35.0411C35.0764 39.1053 35.1117 39.1053 35.0941 39.1053C35.0941 39.1053 35.0587 39.1053 35.0234 39.0877C34.9881 39.0877 35.0058 39.0877 35.0234 39.0877C34.9881 39.07 34.9351 39.07 34.9174 39.07C34.8821 39.0523 34.8468 39.0524 34.7938 39.0347C34.7938 39.0347 34.7761 39.0347 34.7761 39.017C34.7938 39.017 34.7761 39.017 34.7231 38.9994C34.7408 38.9994 34.7584 39.017 34.7761 39.017C34.7584 39.017 34.7231 38.9817 34.7055 38.9817C34.6701 38.964 34.4581 38.805 34.5818 38.911C34.5111 38.858 34.4405 38.7874 34.3875 38.7167C34.3698 38.699 34.3522 38.6814 34.3522 38.6637C34.3522 38.6637 34.3345 38.646 34.3168 38.6284C34.3345 38.646 34.3345 38.6461 34.3522 38.6637C34.3698 38.6814 34.2992 38.5754 34.2815 38.5577C34.2285 38.4694 34.1755 38.3634 34.1225 38.2751C34.1048 38.2397 34.0872 38.2221 34.0872 38.1868C34.0872 38.1868 34.0872 38.1868 34.0695 38.1514C34.0695 38.1691 34.0872 38.1868 34.0872 38.1868C34.0872 38.1691 34.0342 38.0631 34.0342 38.0631C33.9988 37.9748 33.9635 37.8688 33.9458 37.7628C33.9105 37.6391 33.8929 37.5331 33.8575 37.4095C33.8399 37.3565 33.8399 37.3035 33.8222 37.2505V37.2328C33.8222 37.2328 33.8222 37.2328 33.8222 37.2505C33.8222 37.1975 33.8222 37.1975 33.8222 37.2328C33.8222 37.1975 33.8222 37.1622 33.8045 37.1445C33.7869 36.9149 33.7692 36.6676 33.7692 36.4379C33.7692 36.3143 33.7692 36.1729 33.7869 36.0493C33.7869 35.9963 33.8045 35.9433 33.8045 35.8903C33.8045 35.8726 33.8045 35.8196 33.8222 35.802C33.8222 35.8196 33.8222 35.8196 33.8222 35.8373C33.8222 35.7843 33.8222 35.7843 33.8222 35.802C33.8575 35.5723 33.9105 35.3427 33.9635 35.113C33.9988 35.0247 34.0165 34.9187 34.0518 34.8304C34.0695 34.7774 34.0872 34.742 34.1048 34.6891C34.1048 34.6891 34.1048 34.6891 34.1048 34.7067C34.1402 34.6361 34.1402 34.6361 34.1048 34.6891C34.1225 34.6714 34.1225 34.6361 34.1402 34.6184C34.1932 34.5301 34.2285 34.4417 34.2815 34.3534C34.2992 34.3181 34.3345 34.2828 34.3522 34.2474C34.3522 34.2298 34.3698 34.2298 34.3698 34.2298C34.3698 34.2298 34.3698 34.2298 34.3875 34.2121C34.5818 33.9648 34.6171 33.6291 34.3875 33.3995C34.1755 33.1875 33.7692 33.1522 33.5749 33.3995C32.9743 34.1061 32.7446 35.0247 32.6563 35.9433C32.568 36.8972 32.674 37.8688 33.0449 38.752C33.3452 39.4586 33.9459 40.0946 34.7231 40.2359C35.3414 40.3596 35.9773 40.2712 36.578 40.1299C38.2738 39.7413 39.899 38.9464 41.4182 38.1161C43.3437 37.0562 45.1809 35.8373 46.9121 34.4947C48.5373 33.2228 50.1271 31.845 51.4344 30.2374C51.5934 30.0431 51.7523 29.8311 51.9113 29.6368C52.141 29.3365 51.9997 28.9479 51.7523 28.7889Z" fill="#21223F"/>
<path d="M34.1582 34.6709C34.1756 34.6013 34.1756 34.6187 34.1582 34.6709V34.6709Z" fill="#21223F"/>
<path d="M34.3869 38.6642C34.3692 38.6466 34.3692 38.6466 34.3516 38.6289C34.3692 38.6466 34.3869 38.6466 34.3869 38.6642Z" fill="#21223F"/>
<path d="M34.1231 38.1867C34.1231 38.169 34.1055 38.1514 34.1055 38.1514C34.1055 38.169 34.1231 38.1867 34.1231 38.1867Z" fill="#21223F"/>
<path d="M33.8574 35.8017C33.8574 35.7841 33.8574 35.7841 33.8574 35.7664C33.8751 35.7488 33.8751 35.7488 33.8574 35.8017Z" fill="#21223F"/>
<path d="M33.8746 37.2331C33.8569 37.1801 33.8569 37.1801 33.8746 37.2331V37.2331Z" fill="#21223F"/>
<path d="M59.7348 36.243C59.3991 36.3313 59.2755 36.6493 59.3285 36.9496C59.5581 38.4512 59.3461 40.041 58.7279 41.4189C58.4275 42.1255 58.0212 42.7968 57.509 43.3974C57.2793 43.6801 57.0143 43.9274 56.6964 44.104C56.4137 44.263 56.1664 44.316 55.9368 44.1217C55.7778 43.998 55.6541 43.6624 55.5834 43.4151C55.4598 42.9735 55.3715 42.5318 55.2831 42.0725C55.1242 41.1539 55.0358 40.2354 54.9298 39.3168C54.7355 37.6209 54.5235 35.9074 53.8876 34.3175C53.234 32.71 52.1917 31.2261 50.6195 30.3959C50.3369 30.2545 49.9836 30.3252 49.8246 30.6078C49.6656 30.8728 49.7539 31.2438 50.0366 31.4028C53.0927 33.0103 53.499 36.9143 53.8523 40.0057C53.9582 41.0126 54.0819 42.0195 54.2939 43.0088C54.4705 43.8214 54.7002 44.8283 55.5304 45.2169C56.449 45.6586 57.403 45.1286 58.0566 44.475C58.6572 43.8744 59.1518 43.1324 59.5228 42.3728C60.406 40.5887 60.724 38.5925 60.406 36.6317C60.3884 36.3313 60.0174 36.1724 59.7348 36.243Z" fill="#21223F"/>
</svg>
