<svg width="100" height="100" viewBox="0 0 100 100" fill="none" xmlns="http://www.w3.org/2000/svg">
<circle cx="50" cy="50" r="49.5" fill="white" stroke="#E5E7EB"/>
<path d="M68.5709 31.0258C66.2172 21.6109 59.0648 23.8187 59.0648 23.8187C47.661 14.7321 32.681 19.6221 30.163 35.9523C28.9953 43.4696 30.7834 51.1147 30.0718 58.6868C29.7981 61.6609 29.0318 64.6533 29.5792 67.5909C29.9076 69.379 30.9111 71.1854 32.3526 72.2984C36.2025 63.1389 45.5262 63.4673 45.5262 63.4673C45.5079 62.5185 45.4715 60.4385 45.4715 60.037C41.5486 60.4567 38.2278 59.289 36.093 56.3331C32.1336 50.8593 32.8087 42.1559 33.1736 36.5909C39.4503 36.9376 46.9494 34.9487 51.7846 30.6792C51.4197 36.7369 51.8576 41.8458 55.2149 42.9588C55.2149 42.9588 56.5651 43.2872 57.897 43.05C62.8417 42.1377 64.5203 47.5385 61.2908 50.2024C60.1048 51.1695 58.3896 51.5161 56.93 51.0418C56.93 51.0418 54.5762 56.4243 55.8535 62.0259C55.8535 62.0259 64.1919 62.4638 66.947 70.1454C68.2243 69.9629 71.3443 66.6786 71.4173 62.4455C71.4721 58.7051 69.3373 55.2748 68.4432 51.6256C66.8011 45.0388 70.2313 37.6856 68.5709 31.0258Z" fill="#3A3E77"/>
<path d="M55.8187 62.0625C54.5415 56.2603 56.8405 51.2061 56.8952 51.0784C58.3731 51.5528 60.0883 51.2426 61.256 50.2391C64.4856 47.4839 62.8252 42.1561 57.8623 43.0866C56.5303 43.3421 55.1801 42.9954 55.1801 42.9954C51.8228 41.8459 51.3849 36.9925 51.7498 30.7158C46.9146 35.1131 39.4155 37.3391 33.1389 36.9925L32.8287 40.3315C32.1901 46.225 33.3943 52.5928 35.6751 55.8589C37.8281 58.9242 41.5138 60.4386 45.4367 60.0007V60.3109L45.4914 63.1573C45.4914 63.1573 35.9305 62.7924 32.1718 72.6452C31.7522 73.74 38.8864 83.7935 51.6039 81.896C64.6315 79.9254 67.7516 72.627 67.7516 72.627C65.3249 62.3727 55.8187 62.0625 55.8187 62.0625Z" fill="#FCC4B9"/>
<path d="M42.6071 51.2246C42.5341 51.2611 42.4794 51.2976 42.4064 51.3341C42.3699 51.3523 42.3517 51.3706 42.3152 51.3706C42.3517 51.3523 42.3517 51.3523 42.2969 51.3706C42.2969 51.3706 42.2969 51.3706 42.3152 51.3706H42.2969C42.1692 51.4253 42.0232 51.4618 41.8773 51.4983C41.7678 51.5166 41.6583 51.553 41.5488 51.5713C41.5488 51.5713 41.5488 51.5713 41.5123 51.5713C41.5306 51.5713 41.5488 51.5713 41.5488 51.5713C41.5306 51.5713 41.4211 51.5895 41.4029 51.5895C41.3299 51.5895 41.2569 51.5895 41.2022 51.5895C41.1292 51.5895 41.0562 51.5895 41.0015 51.5895C40.9832 51.5895 40.8555 51.5713 40.8555 51.5713C40.8737 51.5713 40.892 51.5713 40.9102 51.5713C40.8737 51.5713 40.8555 51.5713 40.8555 51.5713C40.7642 51.553 40.6548 51.5348 40.5635 51.5165C40.4906 51.4983 40.4358 51.4801 40.3811 51.4618C40.3628 51.4618 40.3263 51.4436 40.3081 51.4253C40.3628 51.4436 40.3446 51.4436 40.2899 51.4253H40.3081C40.3081 51.4253 40.3081 51.4253 40.2899 51.4253C40.1621 51.3706 40.0527 51.2976 39.9432 51.2246C39.6877 51.0604 39.2681 51.1699 39.1221 51.4436C38.9579 51.7355 39.0491 52.0822 39.3411 52.2646C40.5088 53.031 42.0415 52.9033 43.2092 52.2646C43.4829 52.1187 43.5924 51.7173 43.4282 51.4436C43.2457 51.1699 42.9173 51.0786 42.6071 51.2246Z" fill="#21223F"/>
<path d="M42.3342 51.37C42.3704 51.3519 42.3704 51.3519 42.3342 51.37V51.37Z" fill="#21223F"/>
<path d="M40.3085 51.4248C40.2904 51.4248 40.2904 51.4248 40.3085 51.4248C40.3446 51.461 40.3446 51.461 40.3085 51.4248Z" fill="#21223F"/>
<path d="M55.4718 59.4347L55.2164 59.3252C52.3883 60.9491 48.9762 61.4965 45.7832 60.8214L45.4913 61.0038L45.5277 63.1204C45.5277 63.1204 43.4295 63.0474 40.8203 63.9779L38.8132 65.2552C38.9227 67.0798 38.5578 68.9409 37.7732 70.6013C37.7732 70.6013 37.9556 71.2946 36.131 73.1922C34.9998 74.3599 34.6349 75.0898 34.5254 76.221C37.5542 79.3411 43.4295 83.0998 51.6584 81.8591C55.4536 81.2934 58.4094 80.2717 60.672 79.1039C60.2705 78.3923 59.9056 77.6807 59.7049 77.1151C57.7708 71.623 59.2853 67.7366 62.3871 64.9085L62.4966 64.4523C59.2488 62.1533 55.8368 62.0439 55.8368 62.0439C55.6178 61.1498 55.5083 60.274 55.4718 59.4347Z" fill="#0198FF"/>
<path d="M41.2939 26.0992C35.6742 29.9127 34.5977 36.609 34.5977 36.609C40.8743 36.9556 46.932 35.0945 51.7672 30.6973C51.4023 36.9739 51.8401 41.8273 55.1974 42.9768C57.5512 43.7797 61.0544 42.6302 62.7695 41.6631C62.7695 41.6631 63.8825 35.5324 60.7077 29.3835C57.5512 23.1981 46.932 22.3041 41.2939 26.0992Z" fill="#3A3E77"/>
<path d="M67.2403 72.335C67.2038 72.4079 67.1674 72.4992 67.1309 72.5722C67.1491 72.6451 67.1674 72.7181 67.1856 72.7911C67.1856 72.6269 67.2038 72.4809 67.2403 72.335Z" fill="#21223F"/>
<path d="M64.6855 67.3721L64.7036 67.3901C64.7217 67.4082 64.7217 67.4082 64.6855 67.3721Z" fill="#21223F"/>
<path d="M36.8955 77.5528C36.8775 77.5347 36.8775 77.5347 36.8594 77.5166C36.8955 77.5708 36.9136 77.5708 36.8955 77.5528Z" fill="#21223F"/>
<path d="M63.5159 76.623L63.4978 76.6411C63.4617 76.6592 63.4617 76.6592 63.5159 76.623Z" fill="#21223F"/>
<path d="M66.2181 73.9391C66.2181 73.9569 66.2181 73.9569 66.2181 73.9391C66.1468 74.0282 66.3072 73.8322 66.2181 73.9391Z" fill="#21223F"/>
<path d="M57.3867 51.4605C57.3867 51.4425 57.4048 51.4425 57.4048 51.4244V51.4063C57.4229 51.3521 57.3325 51.569 57.3867 51.4605Z" fill="#21223F"/>
<path d="M55.8164 61.46C56.0171 61.6059 56.1996 61.7519 56.4003 61.8979C56.3638 61.7701 56.3456 61.6424 56.3273 61.5147C56.2543 61.5147 56.1813 61.4965 56.1083 61.4965C55.9989 61.4782 55.9076 61.46 55.8164 61.46Z" fill="#21223F"/>
<path d="M56.4014 62.7005C56.4195 62.7005 56.4376 62.7005 56.4376 62.7005C56.5099 62.7186 56.2749 62.6825 56.4014 62.7005Z" fill="#21223F"/>
<path d="M59.7576 63.6312C59.7215 63.6131 59.8299 63.6493 59.7576 63.6312V63.6312Z" fill="#21223F"/>
<path d="M62.5508 65.2549C62.5689 65.273 62.5869 65.273 62.5869 65.291C62.5508 65.2549 62.5508 65.2549 62.5508 65.2549Z" fill="#21223F"/>
<path d="M32.7907 72.7898C32.7907 72.772 32.7907 72.7541 32.7907 72.7363C32.7729 72.7541 32.7729 72.772 32.7907 72.7898C32.7907 72.8076 32.7729 72.8076 32.7907 72.7898Z" fill="#21223F"/>
<path d="M40.2176 64.8356C40.1634 64.8718 40.308 64.7995 40.2176 64.8356V64.8356Z" fill="#21223F"/>
<path d="M43.9028 63.8324H43.9209C43.9209 63.8324 43.9209 63.8324 43.9389 63.8324C44.0655 63.8143 43.8124 63.8504 43.9028 63.8324Z" fill="#21223F"/>
<path d="M67.6225 70.2182C66.4366 67.1893 64.2835 64.6349 61.3824 63.084C59.8132 62.2446 58.0799 61.6973 56.31 61.4966C56.3283 61.6243 56.3647 61.752 56.383 61.8797C56.1823 61.7337 55.9998 61.5878 55.7991 61.4418C55.8903 61.4418 55.9816 61.4601 56.0728 61.4601C56.1458 61.4601 56.2188 61.4783 56.2917 61.4783C55.6896 58.2853 56.0546 54.9462 57.1676 51.9174C57.2223 51.7532 57.2953 51.5707 57.3683 51.4065C57.3683 51.4247 57.35 51.4247 57.35 51.443C57.2953 51.5525 57.3865 51.3335 57.3683 51.3882V51.4065C57.3683 51.4065 57.3683 51.3882 57.3865 51.3882C57.3865 51.37 57.4048 51.3518 57.4048 51.3335C57.5325 51.0416 57.496 50.6949 57.1858 50.5124C56.9304 50.3665 56.5107 50.4395 56.3647 50.7314C56.0363 51.443 55.7809 52.2093 55.5802 52.9574C55.0875 54.6908 54.8321 56.5154 54.8138 58.3217C54.8138 59.6172 54.9416 60.9127 55.2152 62.1899C55.27 62.4453 55.5437 62.6096 55.7991 62.6278C55.8903 62.6278 55.9633 62.6461 56.0546 62.6461C56.1458 62.6461 56.2553 62.6643 56.3465 62.6825C56.3647 62.6825 56.3647 62.6825 56.383 62.6825C56.237 62.6643 56.4925 62.7008 56.4195 62.6825C56.4012 62.6825 56.4012 62.6825 56.383 62.6825C56.456 62.7008 56.529 62.7008 56.6019 62.719C57.4048 62.8468 58.1893 63.0475 58.9557 63.3212C59.2111 63.4124 59.4483 63.5036 59.7038 63.6131C59.722 63.6131 59.722 63.6313 59.7402 63.6313C59.6855 63.6131 59.8132 63.6496 59.7402 63.6313C59.7402 63.6313 59.7585 63.6313 59.7585 63.6496C59.8132 63.6678 59.8862 63.7043 59.9409 63.7226C60.0687 63.7773 60.1964 63.8503 60.3424 63.905C60.8898 64.1787 61.4189 64.4707 61.9115 64.8173C62.0393 64.9086 62.1487 64.9815 62.2765 65.0728C62.3494 65.1275 62.4042 65.164 62.4772 65.2187C62.4954 65.237 62.5137 65.237 62.5319 65.2552C62.5319 65.2552 62.5319 65.2552 62.5684 65.2917C62.5501 65.2735 62.5319 65.2735 62.5319 65.2552C62.5501 65.2552 62.6049 65.31 62.6049 65.31C62.8786 65.5289 63.134 65.7479 63.3712 65.9851C63.6267 66.2223 63.8821 66.4777 64.1193 66.7514C64.247 66.8791 64.3565 67.0251 64.466 67.1528C64.5207 67.2076 64.5755 67.2805 64.6302 67.3535C64.6302 67.3718 64.6667 67.39 64.6667 67.4083L64.6484 67.39C64.6849 67.4265 64.6849 67.4265 64.6667 67.4083C64.7032 67.4448 64.7214 67.4813 64.7579 67.5177C65.9074 69.0687 66.6373 70.729 67.0934 72.5901C67.1299 72.5172 67.1664 72.4259 67.2029 72.3529C67.1846 72.4989 67.1664 72.6631 67.1481 72.8091C67.1299 72.7361 67.1117 72.6631 67.0934 72.5901C66.8562 73.0463 66.546 73.4842 66.2541 73.8856C66.2359 73.9039 66.2176 73.9403 66.1993 73.9586C66.2906 73.8491 66.1264 74.0498 66.1993 73.9768C66.1446 74.0316 66.1081 74.0863 66.0534 74.1593C65.9439 74.287 65.8344 74.4147 65.725 74.5425C65.4695 74.8344 65.2141 75.1081 64.9404 75.3635C64.6302 75.6737 64.3018 75.9657 63.9551 76.2576C63.8638 76.3306 63.7726 76.4036 63.6814 76.4765C63.6449 76.513 63.6084 76.5495 63.5537 76.5678C63.5354 76.586 63.4807 76.6225 63.4624 76.6408L63.4807 76.6225C63.4259 76.659 63.4442 76.659 63.4624 76.6408C63.2617 76.7867 63.061 76.9509 62.8603 77.0969C60.689 78.6296 58.3353 79.6514 55.7991 80.3812C52.6425 81.2935 49.34 81.7861 46.0557 81.3847C43.5378 81.0746 41.0381 80.1987 38.8303 78.885C38.3376 78.5931 37.8632 78.2829 37.4071 77.9545C37.2976 77.8815 37.1882 77.7903 37.0787 77.7173C37.0239 77.6808 36.9692 77.6443 36.9145 77.5896C36.8962 77.5713 36.8962 77.5713 36.878 77.5531C36.8962 77.5713 36.8962 77.5531 36.8415 77.5166C36.8597 77.5348 36.8597 77.5348 36.878 77.5531C36.8597 77.5348 36.8415 77.5166 36.8232 77.5166C36.6225 77.3524 36.4218 77.1881 36.2211 77.0239C35.5277 76.4218 34.8527 75.7832 34.2505 75.0898C34.1228 74.9439 33.9951 74.7979 33.8674 74.6337C33.8491 74.5972 33.8126 74.579 33.7944 74.5425C33.7214 74.4512 33.8674 74.6337 33.7944 74.5425C33.7397 74.4695 33.6849 74.3965 33.6302 74.3235C33.4477 74.0681 33.2835 73.8126 33.1193 73.5389C33.0645 73.4295 32.9916 73.32 32.9368 73.2105C32.9186 73.1558 32.8821 73.1193 32.8638 73.0645C32.8638 73.0645 32.8638 73.0463 32.8456 73.0463C32.8821 73.174 32.7908 72.9186 32.8273 72.9916C32.8273 73.0098 32.8456 73.028 32.8456 73.028C32.8091 72.9551 32.7909 72.8638 32.7726 72.7909C32.7726 72.8091 32.7544 72.8273 32.7544 72.8273C32.7544 72.8273 32.7544 72.8091 32.7544 72.7909C32.7544 72.7544 32.7361 72.6631 32.7544 72.6996C32.7544 72.7179 32.7544 72.7361 32.7726 72.7361C32.7726 72.6996 32.7909 72.6996 32.7726 72.7361C32.7726 72.7544 32.7726 72.7726 32.7726 72.7726C32.7909 72.7179 32.8091 72.6266 32.8273 72.5901C32.9733 72.2435 33.1193 71.8968 33.2835 71.5501C33.5937 70.8933 33.9586 70.2546 34.3783 69.6343C35.0716 68.6125 35.9109 67.6455 36.9145 66.8244C37.0239 66.7332 37.1334 66.6602 37.2246 66.5689C37.2611 66.5507 37.2611 66.5325 37.2611 66.5325C37.2611 66.5325 37.2794 66.5325 37.3159 66.496C37.3706 66.4412 37.4436 66.4047 37.5166 66.35C37.7538 66.1858 37.991 66.0216 38.2282 65.8756C38.6843 65.5837 39.1405 65.3282 39.6149 65.091C39.7244 65.0363 39.8338 64.9815 39.9615 64.9268C40.0163 64.9086 40.071 64.8721 40.1258 64.8538C40.1622 64.8356 40.1805 64.8356 40.217 64.8173C40.144 64.8356 40.3082 64.7808 40.217 64.8173C40.4359 64.7261 40.6732 64.6349 40.8921 64.5619C41.3118 64.4159 41.7314 64.2882 42.1511 64.1605C42.5342 64.0692 42.8992 63.978 43.2823 63.905C43.4465 63.8685 43.629 63.8503 43.7932 63.8138C43.8297 63.8138 43.8662 63.7955 43.9027 63.7955H43.8844C43.7932 63.8138 44.0487 63.7773 43.9209 63.7955C43.9209 63.7955 43.9209 63.7955 43.9027 63.7955C43.9757 63.7955 44.0487 63.7773 44.1216 63.7591C44.5231 63.7226 44.9245 63.6861 45.3259 63.6861C45.3806 63.6861 45.4354 63.6861 45.4901 63.6861C45.8003 63.7043 46.0922 63.4124 46.0922 63.084C46.074 62.1352 46.0557 61.1864 46.0375 60.2376C46.0192 59.4712 44.8332 59.4712 44.8515 60.2376C44.8697 60.9857 44.888 61.7338 44.888 62.5001C45.0887 62.4818 45.2894 62.4818 45.4901 62.4818C45.2894 62.6825 45.0887 62.8833 44.888 63.084C44.888 62.8833 44.888 62.7008 44.8697 62.5001C44.6873 62.5183 44.5048 62.5183 44.3406 62.5366C43.3371 62.6278 42.3518 62.8285 41.3847 63.1022C38.3924 63.9963 35.765 65.7661 33.8674 68.2476C33.2835 69.0139 32.7726 69.8532 32.3347 70.7108C32.0793 71.2217 31.8603 71.7326 31.6596 72.2617C31.6049 72.4077 31.5684 72.5536 31.5684 72.7361C31.6049 73.4112 32.0428 74.0681 32.4077 74.5972C33.8674 76.732 35.9292 78.4836 38.1369 79.7973C41.3482 81.7132 45.0704 82.6985 48.8291 82.6437C51.1646 82.6072 53.5001 82.1693 55.7444 81.5672C57.6419 81.0563 59.4848 80.3447 61.2182 79.4324C63.4442 78.2647 65.506 76.6955 67.0569 74.7067C67.4401 74.214 67.805 73.7032 68.0969 73.1558C68.1517 73.0645 68.1882 72.9916 68.2247 72.9003C68.4071 72.5172 68.1882 72.0063 68.0787 71.6231C67.9692 71.167 67.805 70.6926 67.6225 70.2182Z" fill="#21223F"/>
<path d="M45.5259 62.5361C45.3252 62.5361 45.1245 62.5361 44.9238 62.5544C44.9238 62.7551 44.9238 62.9375 44.9421 63.1382C45.1245 62.9375 45.3252 62.7368 45.5259 62.5361Z" fill="#21223F"/>
<path d="M32.7717 72.6992C32.7536 72.663 32.7717 72.7353 32.7717 72.7896C32.7717 72.7715 32.7717 72.7534 32.7898 72.7534C32.7717 72.7173 32.7717 72.6992 32.7717 72.6992Z" fill="#21223F"/>
<path d="M32.8812 73.0273C32.8812 73.0093 32.8631 72.9912 32.8631 72.9731C32.8089 72.9189 32.9174 73.1539 32.8812 73.0273Z" fill="#21223F"/>
<path d="M33.8116 74.5238C33.7403 74.4347 33.8829 74.6129 33.8116 74.5238V74.5238Z" fill="#21223F"/>
<path d="M32.7915 72.7541C32.7915 72.7722 32.7915 72.7903 32.7915 72.8084C32.7915 72.8264 32.7915 72.8084 32.7734 72.7903C32.7734 72.8084 32.7734 72.8445 32.7734 72.8264C32.7734 72.8264 32.7915 72.8084 32.7915 72.7903C32.7915 72.7722 32.7915 72.7541 32.7915 72.7541Z" fill="#21223F"/>
<path d="M37.8645 70.3278C37.5178 70.2366 37.2623 70.4373 37.1346 70.7475C36.7332 71.7145 35.9122 72.4808 35.2553 73.2836C34.5437 74.1412 33.8868 75.0718 33.9233 76.2395C33.9416 77.0058 35.1276 77.0058 35.1093 76.2395C35.0911 75.2725 35.7662 74.5244 36.3683 73.8128C37.0981 72.9552 37.8462 72.1342 38.2841 71.0759C38.4119 70.7657 38.1564 70.419 37.8645 70.3278Z" fill="#21223F"/>
<path d="M59.5039 73.0279C59.4856 72.6995 59.2484 72.4258 58.9017 72.4258C58.5915 72.4258 58.2813 72.6995 58.2996 73.0279C58.4638 75.2539 59.0295 77.4069 59.9782 79.4323C60.106 79.7242 60.5256 79.7972 60.7993 79.6512C61.0913 79.4687 61.146 79.1221 61.0183 78.8301C60.1607 77.0238 59.6316 75.035 59.5039 73.0279Z" fill="#21223F"/>
<path d="M61.583 44.3997C61.5469 44.3455 61.6373 44.472 61.583 44.3997V44.3997Z" fill="#21223F"/>
<path d="M62.002 45.1299C62.002 45.148 62.0019 45.148 62.02 45.166C62.02 45.166 62.02 45.166 62.002 45.1299Z" fill="#21223F"/>
<path d="M60.4516 42.2467C60.1414 42.1555 59.7947 42.3562 59.7218 42.6664C59.6305 42.9948 59.8312 43.305 60.1414 43.3962C60.4334 43.4875 60.78 43.6699 61.0355 43.8524C61.0355 43.8524 61.0355 43.8524 61.0537 43.8524C61.0537 43.8524 61.0537 43.8524 61.0355 43.8524C61.0537 43.8706 61.1267 43.9254 61.1084 43.9254C61.1449 43.9436 61.1632 43.9801 61.1997 43.9984C61.2727 44.0531 61.3274 44.1261 61.4004 44.1808C61.4551 44.2538 61.5281 44.3085 61.5828 44.3815C61.5828 44.3998 61.6011 44.3998 61.6011 44.3998C61.5646 44.345 61.6741 44.4728 61.6011 44.3998C61.6376 44.4545 61.6741 44.5092 61.7106 44.5457C61.8018 44.6917 61.893 44.8377 61.966 44.9836C61.9843 45.0019 62.039 45.1296 62.039 45.1479C62.039 45.1296 62.039 45.1296 62.0207 45.1114C62.039 45.1296 62.039 45.1479 62.039 45.1479C62.0755 45.2391 62.112 45.3303 62.1302 45.4216C62.185 45.604 62.2215 45.7682 62.258 45.9507C62.258 45.9872 62.2762 46.0237 62.2762 46.0602V46.0784C62.2762 46.0237 62.2944 46.1879 62.2762 46.0784C62.2762 46.0784 62.2762 46.0784 62.2762 46.0967C62.2944 46.2061 62.2944 46.2974 62.2944 46.4068C62.3309 47.1549 62.185 47.8665 61.8748 48.4869C61.6741 48.8701 61.5099 49.1255 61.2544 49.3992C60.9442 49.7276 60.6158 50.0013 60.2144 50.202C59.2473 50.7311 58.0979 50.8041 57.0578 50.4757C56.7294 50.3662 56.4192 50.6034 56.328 50.8954C56.2185 51.2056 56.4557 51.5522 56.7476 51.6252C56.9848 51.4792 57.2403 51.3515 57.4775 51.2055C57.368 51.4975 57.0761 51.6982 56.7659 51.6252C59.0284 52.3368 61.5646 51.388 62.7688 49.3445C63.6994 47.7753 63.7724 45.7135 62.8418 44.1261C62.2944 43.232 61.4551 42.5752 60.4516 42.2467Z" fill="#21223F"/>
<path d="M57.4779 51.2236C57.2407 51.3696 56.9852 51.4973 56.748 51.6433H56.7663C57.0765 51.7163 57.3684 51.5156 57.4779 51.2236Z" fill="#21223F"/>
<path d="M62.2754 46.1148C62.2754 46.0613 62.2932 46.2217 62.2754 46.1148V46.1148Z" fill="#21223F"/>
<path d="M35.1275 53.5766C35.0918 53.4875 35.1631 53.6479 35.1275 53.5766V53.5766Z" fill="#21223F"/>
<path d="M50.2356 57.7743C48.1008 58.9785 45.7106 59.6172 43.2657 59.4347C41.1491 59.2705 39.0326 58.4129 37.4634 56.9715C36.7518 56.3146 36.2044 55.6213 35.73 54.8002C35.5293 54.4535 35.3651 54.1069 35.2009 53.7602C35.1826 53.7054 35.1644 53.669 35.1462 53.6142C35.1462 53.596 35.1462 53.596 35.1279 53.596C35.0914 53.5047 35.1644 53.6872 35.1279 53.596C35.1279 53.596 35.1279 53.5777 35.1097 53.5777C35.0732 53.4865 35.0367 53.377 35.0002 53.2858C34.9272 53.0851 34.8542 52.8844 34.7812 52.6654C34.0879 50.6401 33.7412 48.5418 33.5588 46.4618C33.2851 43.3052 33.4128 40.1486 33.7412 37.0103C33.7777 36.6819 33.4493 36.4082 33.1391 36.4082C32.7924 36.4082 32.5735 36.6819 32.537 37.0103C32.2268 39.9297 32.0991 42.8673 32.2998 45.7867C32.4457 48.0674 32.7742 50.3664 33.4675 52.5559C34.0331 54.3441 34.8725 56.0592 36.1862 57.4276C37.8101 59.1245 40.0361 60.2193 42.3534 60.5477C44.9443 60.9126 47.5535 60.4382 49.9072 59.307C50.2174 59.161 50.5093 58.9968 50.8013 58.8326C51.4946 58.4129 50.9107 57.3911 50.2356 57.7743Z" fill="#21223F"/>
<path d="M47.8622 40.2952C46.585 39.5289 45.034 39.6931 43.7021 40.2587C43.4101 40.3865 43.3372 40.8244 43.4831 41.0798C43.6838 41.3718 43.994 41.4265 44.3042 41.2988C44.213 41.3353 44.4137 41.2623 44.4319 41.244C44.5049 41.2258 44.5779 41.1893 44.6509 41.171C44.7786 41.1346 44.9063 41.0981 45.0523 41.0616C45.1253 41.0433 45.1983 41.0251 45.2895 41.0068C45.326 41.0068 45.3625 40.9886 45.399 40.9886C45.3625 40.9886 45.3625 40.9886 45.4172 40.9886C45.4172 40.9886 45.4172 40.9886 45.399 40.9886H45.4172C45.5449 40.9703 45.6909 40.9703 45.8186 40.9703C45.9464 40.9703 46.0923 40.9703 46.22 40.9886C46.2383 40.9886 46.2748 40.9886 46.293 40.9886C46.2748 40.9886 46.293 40.9886 46.3295 40.9886C46.3113 40.9886 46.3113 40.9886 46.293 40.9886C46.293 40.9886 46.3113 40.9886 46.3478 40.9886C46.4207 41.0068 46.4937 41.0251 46.5667 41.0433C46.6945 41.0798 46.8222 41.1163 46.9499 41.171C47.0229 41.1893 47.0229 41.2075 46.9681 41.171C47.0046 41.1893 47.0411 41.2075 47.0776 41.2258C47.1506 41.2623 47.2053 41.2988 47.2783 41.3353C47.552 41.4995 47.9534 41.4082 48.0994 41.1163C48.2271 40.8244 48.1541 40.4777 47.8622 40.2952Z" fill="#21223F"/>
<path d="M36.1302 41.5352C36.0579 41.5894 36.2026 41.481 36.1302 41.5352V41.5352Z" fill="#21223F"/>
<path d="M36.9141 41.2434C36.9319 41.2434 36.9497 41.2256 36.9675 41.2256C37.0032 41.2256 36.9319 41.2256 36.9141 41.2434Z" fill="#21223F"/>
<path d="M39.0675 40.4227C38.5019 40.1307 37.8268 40.003 37.1881 40.0212C36.4766 40.0577 35.765 40.2402 35.2541 40.7328C35.0169 40.9518 35.0169 41.3714 35.2541 41.5722C35.4913 41.7911 35.8562 41.7911 36.0934 41.5722C36.1116 41.5539 36.1299 41.5357 36.1481 41.5174C36.0569 41.5722 36.2029 41.4444 36.1664 41.4992C36.2211 41.4627 36.2576 41.4262 36.3123 41.4079C36.3488 41.3897 36.3671 41.3714 36.4036 41.3714C36.4218 41.3714 36.4218 41.3532 36.4401 41.3532C36.4766 41.3349 36.4583 41.335 36.3853 41.3714C36.4036 41.335 36.5313 41.3167 36.5678 41.2985C36.6955 41.262 36.8232 41.2255 36.9509 41.2072C36.9692 41.2072 36.9874 41.2072 36.9874 41.2072C36.9692 41.2072 36.9509 41.2072 36.9327 41.2255C36.9509 41.2072 37.0239 41.2072 36.9874 41.2072C37.0057 41.2072 37.0239 41.2072 37.0422 41.2072C37.1152 41.2072 37.1882 41.189 37.2429 41.189C37.3706 41.189 37.4983 41.189 37.6443 41.2072C37.6808 41.2072 37.7173 41.2072 37.7538 41.2255C37.7903 41.2255 37.8085 41.2255 37.8085 41.2255C37.7903 41.2255 37.772 41.2255 37.7538 41.2255C37.7538 41.2255 37.7538 41.2255 37.7355 41.2255C37.7355 41.2255 37.7355 41.2255 37.7538 41.2255C37.772 41.2255 37.8085 41.2255 37.8085 41.2255C37.8633 41.2437 37.918 41.2437 37.9362 41.2437C38.064 41.262 38.1734 41.2985 38.3012 41.335C38.3194 41.335 38.3376 41.3532 38.3741 41.3532C38.3924 41.3532 38.4471 41.3897 38.4289 41.3714H38.4106C38.3924 41.3532 38.3012 41.3167 38.3924 41.3532C38.4106 41.3714 38.4289 41.3714 38.4289 41.3714C38.4471 41.3897 38.4836 41.3897 38.5019 41.4079C38.7755 41.5539 39.1587 41.4809 39.3229 41.189C39.4324 40.97 39.3594 40.5686 39.0675 40.4227Z" fill="#21223F"/>
<path d="M37.7168 41.2256C37.7346 41.2256 37.7524 41.2256 37.7702 41.2256C37.7881 41.2434 37.7524 41.2434 37.7168 41.2256Z" fill="#21223F"/>
<path d="M38.3559 41.3895C38.2656 41.3533 38.3559 41.3895 38.374 41.4076H38.3921C38.3921 41.4076 38.3921 41.4076 38.3559 41.3895Z" fill="#21223F"/>
<path d="M45.3447 43.8714C44.7061 43.8897 44.2135 44.656 44.25 45.5865C44.2864 46.5171 44.8156 47.2652 45.4542 47.2287C46.0928 47.1922 46.5855 46.4441 46.549 45.5136C46.5307 44.583 45.9833 43.8532 45.3447 43.8714Z" fill="#21223F"/>
<path d="M37.5166 44.1077C36.878 44.126 36.3853 44.8923 36.4218 45.8229C36.4583 46.7534 36.9874 47.5015 37.6261 47.465C38.2647 47.4468 38.7573 46.6804 38.7208 45.7499C38.7026 44.8376 38.1552 44.0895 37.5166 44.1077Z" fill="#21223F"/>
<path d="M57.8441 48.1585C57.9171 47.9395 58.0084 47.7388 58.0996 47.5381C57.8441 47.5746 57.607 47.6658 57.4062 47.8118C57.5522 47.9395 57.6982 48.049 57.8441 48.1585Z" fill="#21223F"/>
<path d="M59.8325 45.1296C59.3763 45.1661 58.9932 45.4763 58.6647 45.7864C58.0261 46.4068 57.57 47.1731 57.2598 48.0124C57.1686 48.2496 57.497 48.5051 57.6977 48.3409C58.1721 47.9942 58.902 48.0672 59.2486 48.5598C59.3399 48.6875 59.5041 48.7605 59.65 48.6693C59.7778 48.5963 59.8507 48.3956 59.7595 48.2679C59.3946 47.7388 58.7195 47.4651 58.0809 47.5563C57.9714 47.757 57.8984 47.9577 57.8254 48.1767C57.6795 48.0672 57.5335 47.9577 57.3875 47.8482C57.6065 47.7023 57.8437 47.611 58.0809 47.5745C58.2998 47.1549 58.5735 46.7535 58.8837 46.4068C59.1027 46.1696 59.3398 45.8959 59.65 45.7864C59.869 45.7135 60.1427 45.7317 60.2704 45.9506C60.4346 46.2973 60.9638 45.9871 60.7813 45.6587C60.6353 45.2755 60.2157 45.0931 59.8325 45.1296Z" fill="#21223F"/>
<path d="M50.097 52.0615C51.2351 52.0258 52.137 51.3354 52.1113 50.5196C52.0857 49.7038 51.1423 49.0714 50.0041 49.1071C48.866 49.1429 47.9641 49.8332 47.9898 50.6491C48.0154 51.4649 48.9588 52.0973 50.097 52.0615Z" fill="#FFA697"/>
<path d="M45.7458 44.8382C45.5268 44.8564 45.3443 45.0571 45.3626 45.2761C45.3808 45.495 45.5815 45.6775 45.8005 45.6592C46.0194 45.641 46.2019 45.4403 46.1837 45.2213C46.1654 45.0024 45.9829 44.8199 45.7458 44.8382Z" fill="white"/>
<path d="M37.9372 45.0569C37.7182 45.0752 37.5357 45.2759 37.554 45.4948C37.5722 45.7138 37.773 45.8962 37.9919 45.878C38.2109 45.8597 38.3933 45.659 38.3751 45.4401C38.3568 45.2211 38.1561 45.0387 37.9372 45.0569Z" fill="white"/>
<path d="M61.9491 64.5071C60.1427 66.1675 58.756 68.2475 58.4093 70.7107C58.2999 71.477 58.2634 72.2616 58.3181 73.028C58.3364 73.3564 58.5735 73.6301 58.9202 73.6301C59.2304 73.6301 59.5406 73.3564 59.5224 73.028C59.4311 71.55 59.6318 70.0356 60.234 68.7219C60.8543 67.3899 61.7301 66.3317 62.8066 65.3464C63.0438 65.1274 63.0256 64.726 62.8066 64.5071C62.5512 64.2699 62.1863 64.2881 61.9491 64.5071Z" fill="#21223F"/>
<path d="M38.8121 64.6533C38.5019 64.6533 38.1917 64.927 38.2099 65.2554C38.3012 66.9888 37.991 68.7222 37.2429 70.2914C37.0969 70.5833 37.1699 70.93 37.4619 71.1124C37.7173 71.2584 38.137 71.1854 38.2829 70.8935C39.1222 69.1418 39.5236 67.2078 39.4142 65.2554C39.3777 64.927 39.1405 64.6533 38.8121 64.6533Z" fill="#21223F"/>
<path d="M54.9056 58.815C52.2052 60.3477 48.9757 60.8768 45.9286 60.2564C45.6184 60.1835 45.29 60.3477 45.1988 60.6761C45.1258 60.968 45.29 61.3512 45.6184 61.4059C48.9757 62.0993 52.5337 61.5519 55.5078 59.8368C56.1646 59.4536 55.5807 58.4318 54.9056 58.815Z" fill="#21223F"/>
<path d="M45.5633 63.1207C45.5633 63.1207 48.5009 60.8764 49.9241 58.6504C49.9241 58.6504 47.1872 59.8729 45.3809 60.0188L45.5633 63.1207Z" fill="#21223F"/>
<path d="M30.0718 58.1762C29.7981 61.2598 29.0318 64.3434 29.5792 67.3904C30.1083 70.4375 32.4803 73.4846 35.5639 73.4481C36.7316 73.4299 38.0636 72.9372 38.4467 71.8425C39.6692 68.3575 34.5238 65.6388 34.5421 58.085L30.0718 58.1762Z" fill="#3A3E77"/>
<path d="M37.6627 69.3603C37.6627 69.3781 37.6805 69.396 37.6805 69.396C37.6448 69.3247 37.6627 69.3247 37.6627 69.3603Z" fill="#21223F"/>
<path d="M34.5055 26.1533C34.5055 26.1353 34.5236 26.1353 34.5236 26.1172C34.5055 26.1533 34.4875 26.1533 34.5055 26.1533Z" fill="#21223F"/>
<path d="M37.37 23.2706C37.3157 23.3067 37.4604 23.1983 37.37 23.2706V23.2706Z" fill="#21223F"/>
<path d="M53.9941 21.1914C53.9941 21.1914 54.012 21.1914 54.012 21.2092L53.9941 21.1914Z" fill="#21223F"/>
<path d="M57.3867 23.1621L57.4048 23.1802C57.4229 23.1983 57.4229 23.1983 57.3867 23.1621Z" fill="#21223F"/>
<path d="M53.2269 19.6403C50.9097 18.8557 48.4282 18.5637 46.0015 18.7645C43.4653 18.9652 40.9838 19.695 38.7578 20.9357C36.4041 22.2495 34.4153 24.1105 32.9009 26.3366C31.1492 28.9093 30.1275 31.9381 29.6896 35.0217C28.9962 39.8569 29.3611 44.7468 29.5618 49.6003C29.6713 52.0817 29.726 54.5632 29.5983 57.0446C29.5253 58.2489 29.4159 59.4349 29.2516 60.6209C29.0874 61.8434 28.905 63.0658 28.832 64.2883C28.7043 66.4596 28.9415 68.6491 30.0545 70.5467C30.985 72.1341 32.4994 73.5208 34.3605 73.9222C36.0939 74.2872 38.4659 73.831 39.068 71.9152C39.3965 70.8386 39.1592 69.7621 38.7213 68.7586C38.2287 67.6456 37.5536 66.6056 36.9697 65.5473C36.8055 65.2371 36.6413 64.9269 36.4953 64.5985C36.3129 64.2336 36.2216 63.9964 36.0939 63.668C35.7837 62.8834 35.5465 62.0806 35.3823 61.2595C35.1998 60.3837 35.1269 59.5261 35.1269 58.5956C35.1269 57.8292 33.9409 57.8292 33.9409 58.5956C33.9409 60.3837 34.2511 62.1535 34.8714 63.8139C35.3641 65.1276 36.0392 66.3501 36.7325 67.5544C37.0245 68.047 37.2981 68.5397 37.5536 69.0505C37.6083 69.1418 37.6448 69.2512 37.6813 69.3425C37.6631 69.306 37.6631 69.306 37.6996 69.379C37.6996 69.3607 37.6813 69.3425 37.6813 69.3425C37.6996 69.3607 37.7178 69.4155 37.7178 69.4337C37.7361 69.5067 37.7726 69.5614 37.7908 69.6344C37.8638 69.8534 37.9368 70.0723 37.9733 70.3095C37.9733 70.346 37.9915 70.3825 37.9915 70.4372C37.9915 70.419 37.9915 70.4372 37.9915 70.4555C37.9915 70.4737 37.9915 70.492 37.9915 70.492C37.9915 70.4737 37.9915 70.4737 37.9915 70.4555C37.9915 70.4737 37.9915 70.492 37.9915 70.5102C38.0097 70.638 38.0097 70.7474 38.0097 70.8751C38.0097 70.9846 37.9915 71.0941 37.9915 71.2036C38.0097 71.0211 37.9915 71.1853 37.9915 71.2218C37.9733 71.2948 37.955 71.3495 37.9368 71.4225C37.8638 71.7327 37.7543 71.9152 37.5536 72.1341C37.3164 72.3713 36.9515 72.5538 36.6048 72.6633C35.8385 72.9005 35.0356 72.8822 34.2511 72.645C33.4847 72.4078 32.7914 71.9699 32.2075 71.4043C30.9485 70.1818 30.2187 68.5032 30.0362 66.7333C29.799 64.3431 30.2734 61.9711 30.5471 59.6173C30.839 57.2271 30.8755 54.8186 30.839 52.4284C30.7478 47.6114 30.2552 42.7945 30.5653 37.9593C30.7661 34.6932 31.4412 31.3907 32.9556 28.5261C33.284 27.9057 33.6489 27.3036 34.0504 26.738C34.1416 26.6103 34.2328 26.4825 34.3241 26.3731C34.3788 26.3001 34.4153 26.2453 34.47 26.1724C34.4883 26.1541 34.4883 26.1358 34.5065 26.1176C34.5065 26.1176 34.5065 26.1176 34.5248 26.0811C34.5248 26.0994 34.5065 26.0994 34.5065 26.1176L34.5612 26.0446C34.7619 25.7892 34.9809 25.5337 35.1998 25.2783C35.6195 24.8039 36.0757 24.3477 36.5318 23.9281C36.769 23.7091 37.0062 23.5084 37.2617 23.3077C37.2799 23.2895 37.3164 23.2712 37.3346 23.253C37.3346 23.253 37.3346 23.253 37.3529 23.253C37.2982 23.2895 37.4441 23.18 37.3529 23.253C37.4076 23.2165 37.4806 23.1618 37.5353 23.1253C37.6631 23.034 37.809 22.9245 37.9368 22.8333C38.4294 22.4866 38.9585 22.1582 39.4877 21.8845C39.7614 21.7386 40.035 21.5926 40.3087 21.4649C40.4365 21.4101 40.5642 21.3554 40.6919 21.3007C40.7466 21.2824 40.8014 21.2459 40.8561 21.2277C40.8561 21.2277 40.8744 21.2277 40.8926 21.2094C40.8744 21.2094 40.8744 21.2277 40.8561 21.2277C40.8379 21.2459 40.9838 21.1729 41.0203 21.1547C42.1333 20.6985 43.3011 20.3701 44.4871 20.1512C44.6331 20.1329 44.779 20.0964 44.9068 20.0782C44.9797 20.0599 45.0527 20.0599 45.1257 20.0417C45.1257 20.0417 45.1439 20.0417 45.1622 20.0417C45.1439 20.0417 45.1439 20.0417 45.1257 20.0417C45.1439 20.0417 45.1622 20.0417 45.1622 20.0417C45.1804 20.0417 45.1987 20.0417 45.1622 20.0417C45.1622 20.0417 45.1622 20.0417 45.1439 20.0417C45.1804 20.0417 45.2169 20.0234 45.2534 20.0234C45.5453 19.9869 45.8191 19.9687 46.111 19.9322C46.7131 19.8957 47.3152 19.8775 47.9174 19.8957C48.5012 19.914 49.0851 19.9504 49.669 20.0234H49.6872C49.6872 20.0234 49.7054 20.0234 49.7237 20.0234C49.7419 20.0234 49.742 20.0234 49.7602 20.0234C49.742 20.0234 49.742 20.0234 49.742 20.0234C49.7602 20.0234 49.7602 20.0234 49.7784 20.0234C49.8514 20.0417 49.9244 20.0417 49.9974 20.0599C50.1616 20.0782 50.3076 20.1147 50.4535 20.1329C50.7272 20.1876 51.0009 20.2424 51.2746 20.2971C51.8585 20.4248 52.4241 20.5891 52.9897 20.7898C53.2634 20.881 53.5189 20.9722 53.7743 21.0817C53.8473 21.1182 53.9203 21.1364 53.9933 21.1729C53.9933 21.1729 53.975 21.1729 53.975 21.1547C53.9933 21.1547 53.9933 21.1547 53.9933 21.1729C54.0298 21.1912 54.0663 21.2094 53.9933 21.1729C54.0115 21.1729 54.0298 21.1912 54.048 21.1912C54.194 21.2459 54.3399 21.3189 54.4677 21.3736C54.9786 21.6108 55.4895 21.8845 55.9821 22.1765C56.2375 22.3224 56.4747 22.4866 56.7302 22.6509C56.8397 22.7238 56.9491 22.8151 57.0769 22.8881C57.1316 22.9246 57.1863 22.961 57.2411 23.0158C57.2593 23.034 57.3505 23.0888 57.387 23.1253L57.3688 23.107C57.4053 23.1435 57.4053 23.1435 57.387 23.1253C57.8249 23.4719 58.2264 23.8186 58.6278 24.2018C59.1751 24.7309 60.0145 23.8916 59.4671 23.3625C57.7155 21.6838 55.5624 20.4248 53.2269 19.6403Z" fill="#21223F"/>
<path d="M40.875 21.2271C40.8931 21.2271 40.8931 21.209 40.9112 21.209C40.8931 21.209 40.875 21.2271 40.875 21.2271Z" fill="#21223F"/>
<path d="M68.7178 50.0742C68.1522 46.2243 68.9003 42.3014 69.2652 38.4697C69.4476 36.5174 69.5571 34.5286 69.3747 32.5763C69.2104 30.8246 68.8273 29.146 67.9332 27.6133C66.3458 24.8947 63.39 22.8146 60.1422 23.0701C59.7225 23.1066 59.3211 23.1613 58.9197 23.2708C58.1716 23.4532 58.4818 24.6027 59.2299 24.4203C60.5801 24.0918 62.0398 24.2561 63.2622 24.8217C64.5759 25.4238 65.6707 26.4091 66.4918 27.5586C67.4041 28.8723 67.8967 30.2955 68.1157 31.8829C68.3711 33.744 68.3164 35.6416 68.1704 37.5027C67.8785 41.2796 67.1486 45.0565 67.4041 48.8517C67.5318 50.7493 67.988 52.5557 68.6266 54.3438C69.2652 56.1136 70.0133 57.8653 70.4694 59.6899C70.8708 61.3685 70.9438 63.0654 70.4694 64.7258C70.0315 66.2767 69.1557 67.6999 67.988 68.8311C67.7143 69.1048 67.4041 69.3603 67.0939 69.5975C66.8385 69.7799 66.7107 70.1084 66.8749 70.4185C67.0209 70.674 67.4223 70.8199 67.696 70.6375C70.6336 68.4845 72.3305 64.9082 71.9473 61.259C71.5094 57.3361 69.2834 53.9424 68.7178 50.0742Z" fill="#21223F"/>
<path d="M53.7754 41.2435C53.7212 41.1712 53.8297 41.3158 53.7754 41.2435V41.2435Z" fill="#21223F"/>
<path d="M54.4302 41.9182C54.4302 41.9004 54.4302 41.9004 54.4302 41.9182C54.4123 41.9004 54.4124 41.9004 54.3945 41.9004C54.4124 41.9004 54.4836 41.9539 54.4302 41.9182Z" fill="#21223F"/>
<path d="M55.1605 42.3203C55.1256 42.3203 55.1953 42.3377 55.1605 42.3203V42.3203Z" fill="#21223F"/>
<path d="M51.1843 30.6973C51.166 31.1352 51.1296 31.5913 51.1113 32.0292C51.4762 31.7373 51.8412 31.4454 52.1878 31.1169C51.8594 30.9892 51.5127 30.8432 51.1843 30.6973Z" fill="#21223F"/>
<path d="M53.1372 40.1123C53.1372 40.0943 53.1191 40.0942 53.1191 40.0762C53.1372 40.1123 53.1372 40.1123 53.1372 40.1123Z" fill="#21223F"/>
<path d="M62.4784 41.1344C61.2742 41.8095 59.9605 42.2656 58.5555 42.5028C57.8439 42.6305 57.0594 42.6853 56.3113 42.6123C56.0558 42.594 55.6726 42.5028 55.3625 42.3933C55.3077 42.3751 55.253 42.3568 55.1982 42.3386C55.18 42.3386 55.1618 42.3204 55.1618 42.3204C55.1253 42.3021 55.1983 42.3386 55.1618 42.3204C55.1618 42.3204 55.1435 42.3021 55.1253 42.3021C55.0158 42.2474 54.8881 42.1926 54.7786 42.1196C54.6691 42.0649 54.5779 41.9919 54.4867 41.9372C54.4684 41.9189 54.4502 41.9007 54.4319 41.9007C54.4319 41.9007 54.4319 41.9007 54.4502 41.9189C54.5049 41.9554 54.4319 41.9007 54.4137 41.9007C54.4137 41.9007 54.4319 41.9007 54.4319 41.9189C54.3772 41.8825 54.3224 41.8277 54.2859 41.7912C54.1035 41.627 53.9393 41.4445 53.7751 41.2621C53.7203 41.1891 53.8298 41.3351 53.7751 41.2621C53.7568 41.2438 53.7386 41.2074 53.7203 41.1891C53.6838 41.1344 53.6473 41.0979 53.6291 41.0431C53.5561 40.9337 53.4831 40.8242 53.4284 40.6965C53.3737 40.587 53.3007 40.4775 53.2459 40.3498C53.2094 40.295 53.1912 40.2221 53.1547 40.1491C53.1547 40.1308 53.1365 40.1308 53.1365 40.1126C53.1365 40.1126 53.1365 40.1126 53.1182 40.0761C53.1182 40.0943 53.1365 40.0943 53.1365 40.1126C53.1365 40.0943 53.1182 40.0579 53.1 40.0396C52.6256 38.8171 52.4249 37.5581 52.3336 36.2992C52.1877 34.4381 52.2606 32.5587 52.3701 30.6976C52.4066 30.1503 51.7133 29.9495 51.3483 30.278C49.469 31.9931 47.1882 33.2521 44.798 34.1461C42.2436 35.0949 39.5432 35.6788 36.8245 35.8978C35.2736 36.0255 33.7227 36.0437 32.19 35.9525C31.8616 35.9342 31.5879 36.2444 31.5879 36.5546C31.5879 36.9013 31.8616 37.1385 32.19 37.1567C35.0181 37.3209 37.8828 37.1202 40.6744 36.5546C43.3931 36.0072 46.0752 35.0949 48.5202 33.7447C49.4325 33.2338 50.3083 32.6682 51.1294 32.0296C51.1476 31.5917 51.1659 31.1355 51.2024 30.6976C51.5491 30.8436 51.8775 30.9713 52.2242 31.1173C51.8775 31.4275 51.5126 31.7377 51.1476 32.0296C51.0929 33.3433 51.0746 34.657 51.1659 35.9707C51.2571 37.3939 51.4213 38.8354 51.9322 40.1673C52.3519 41.2803 52.9905 42.3021 53.9758 42.9955C55.1618 43.8165 56.7127 43.9443 58.1176 43.78C59.851 43.5793 61.6026 43.0319 63.117 42.1744C63.7374 41.7912 63.1353 40.7694 62.4784 41.1344Z" fill="#21223F"/>
</svg>
