<svg width="100" height="100" viewBox="0 0 100 100" fill="none" xmlns="http://www.w3.org/2000/svg">
<circle cx="50" cy="50" r="49.5" fill="white" stroke="#E5E7EB"/>
<path d="M59.7247 26.0763C51.7167 22.7863 48.9328 20.2374 46.167 19.7493C41.2863 18.8817 36.5682 22.027 35.574 26.7993C32.284 27.1609 29.2109 31.0655 31.1994 36.579C31.8863 38.5132 33.0613 40.2486 34.2724 41.9116C34.6159 39.2905 36.1163 36.4163 37.9601 34.5001L56.6697 58.7593C60.1947 57.3674 62.4543 53.969 63.9728 50.3897C65.4913 46.8286 67.3351 43.9724 67.3351 39.5797C67.3351 32.4393 65.202 28.3359 59.7247 26.0763Z" fill="#3A3E77"/>
<path d="M59.2364 44.3163C58.8387 45.6359 58.6941 46.5759 57.1395 46.5759C55.0787 46.5759 56.2537 43.8282 52.5479 41.4963C50.4872 41.4963 45.281 42.147 37.9779 34.4824C30.2772 42.5267 35.6822 55.1082 37.0379 57.0605C39.1891 60.1336 42.9491 61.652 46.9079 61.1459L46.7091 61.2905L46.7633 64.3636L44.0879 73.4743C47.0526 74.5047 50.3064 74.6493 53.3614 73.8901C53.3614 73.8901 55.7476 65.9363 57.6637 63.3693C57.2299 63.3151 56.9768 63.297 56.9768 63.297C55.6933 57.4943 58.0433 52.3786 58.0614 52.3424C59.5256 52.8124 61.2249 52.5051 62.3999 51.5109C65.5633 48.7632 63.8099 43.069 59.2364 44.3163Z" fill="#FCC4B9"/>
<path d="M42.2234 52.9391C42.2056 52.9391 42.1877 52.9391 42.1699 52.9391C42.1699 52.9213 42.1699 52.9213 42.2234 52.9391Z" fill="#21223F"/>
<path d="M43.6172 52.7216C43.6533 52.7035 43.6714 52.7035 43.6172 52.7216V52.7216Z" fill="#21223F"/>
<path d="M41.6096 52.7764C41.6458 52.7944 41.6638 52.7944 41.6096 52.7764V52.7764Z" fill="#21223F"/>
<path d="M43.9061 52.5774C43.8338 52.6136 43.7795 52.6497 43.7072 52.6859C43.6711 52.704 43.653 52.722 43.6169 52.722C43.653 52.704 43.653 52.704 43.5988 52.722C43.5988 52.722 43.5988 52.722 43.6169 52.722H43.5988C43.4722 52.7763 43.3276 52.8124 43.183 52.8486C43.0745 52.8666 42.9661 52.9028 42.8576 52.9209C42.8576 52.9209 42.8576 52.9209 42.8215 52.9209C42.8395 52.9209 42.8576 52.9209 42.8576 52.9209C42.8395 52.9209 42.7311 52.939 42.713 52.939C42.6407 52.939 42.5684 52.939 42.5142 52.939C42.4418 52.939 42.3695 52.939 42.3153 52.939C42.2972 52.939 42.1707 52.9209 42.1707 52.9209C42.1888 52.9209 42.2069 52.9209 42.2249 52.9209C42.1888 52.9209 42.1707 52.9209 42.1707 52.9209C42.0803 52.9028 41.9718 52.8847 41.8815 52.8667C41.8092 52.8486 41.7549 52.8305 41.7007 52.8124C41.6826 52.8124 41.6465 52.7943 41.6284 52.7763C41.6826 52.7943 41.6645 52.7943 41.6103 52.7763H41.6284C41.6284 52.7763 41.6284 52.7763 41.6103 52.7763C41.4838 52.722 41.3753 52.6497 41.2669 52.5774C41.0138 52.4147 40.598 52.5232 40.4534 52.7943C40.2907 53.0836 40.3811 53.427 40.6703 53.6078C41.8272 54.367 43.3457 54.2405 44.5026 53.6078C44.7738 53.4632 44.8822 53.0655 44.7195 52.7943C44.5388 52.5232 44.1953 52.4147 43.9061 52.5774Z" fill="#21223F"/>
<path d="M46.7447 63.9659C46.7447 63.9659 50.1251 62.1763 51.5531 59.6816C51.5531 59.6816 48.4439 60.9651 46.6543 61.1097L46.7447 63.9659Z" fill="#21223F"/>
<path d="M57.6632 63.3516C55.7651 65.9185 53.3608 73.8723 53.3608 73.8723C50.3239 74.6316 47.052 74.4869 44.0874 73.4566L46.7447 64.3458C46.7447 64.3458 37.652 64.0566 33.7655 73.7096C33.3316 74.7762 40.2009 84.7908 52.8005 82.9108C65.6712 80.9946 68.7443 73.7096 68.7443 73.7096C66.7559 65.2316 59.8685 63.6589 57.6632 63.3516Z" fill="#0085E6"/>
<path d="M45.2813 68.4854L41.8828 82.278C44.6124 83.0553 47.8844 83.4711 51.6444 83.0734C52.259 79.3496 54.9524 69.0096 54.9524 69.0096C51.9878 69.7507 48.7701 69.3711 45.2813 68.4854Z" fill="white"/>
<path d="M57.4819 63.3329C54.2461 69.3345 52.7096 76.0591 51.6973 82.8018L56.4877 81.7533C56.8311 78.9333 57.6084 75.2276 58.4761 72.3353C59.4703 72.2629 60.1934 72.4076 60.1934 72.4076C60.1934 72.4076 62.0915 67.3822 61.043 65.4118C59.6511 62.8449 57.4819 63.3329 57.4819 63.3329Z" fill="#0148FF"/>
<path d="M44.3585 64.6169C42.7496 65.5569 41.0323 67.7803 40.02 70.3111C40.4177 70.4376 40.96 70.763 41.4481 71.1607C39.9658 73.7095 38.9173 76.6561 38.375 79.3857C39.4235 80.1811 40.6708 80.9222 42.0627 81.5369C43.5631 72.7153 45.5515 67.6719 46.7627 64.3457C46.7627 64.3638 45.7865 64.3276 44.3585 64.6169Z" fill="#0148FF"/>
<path d="M63.1055 46.4678V46.4856C63.1233 46.5212 63.1411 46.5391 63.1055 46.4678Z" fill="#21223F"/>
<path d="M62.7076 45.7806C62.6727 45.7457 62.725 45.8154 62.7076 45.7806V45.7806Z" fill="#21223F"/>
<path d="M61.6231 44.9488C61.6409 44.9488 61.6409 44.9488 61.6587 44.9667C61.6409 44.9488 61.5696 44.9132 61.6231 44.9488Z" fill="#21223F"/>
<path d="M62.1836 45.2738C62.2014 45.2916 62.2014 45.2916 62.2192 45.2916C62.2014 45.2916 62.1301 45.2203 62.1836 45.2738Z" fill="#21223F"/>
<path d="M58.6039 52.4873C58.3689 52.6319 58.1159 52.7585 57.8809 52.9031C57.8809 52.9031 57.8809 52.9031 57.8989 52.9031C58.2243 52.9754 58.5136 52.7765 58.6039 52.4873Z" fill="#21223F"/>
<path d="M62.9608 44.3886C61.9666 43.6113 60.7193 43.4125 59.4901 43.6475C59.1828 43.7017 59.002 44.0813 59.0743 44.3705C59.1647 44.6959 59.4901 44.8405 59.7974 44.7863C59.8516 44.7682 59.9058 44.7682 59.9601 44.7682C59.9601 44.7682 59.9601 44.7682 59.9782 44.7682H59.9601C59.9781 44.7682 60.0505 44.7502 60.0685 44.7502C60.1951 44.7321 60.3216 44.7321 60.4301 44.7321C60.5385 44.7321 60.647 44.7321 60.7555 44.7502C60.8097 44.7502 60.8458 44.7501 60.9001 44.7682C60.9001 44.7682 60.9001 44.7682 60.882 44.7682C60.882 44.7682 60.9724 44.7863 60.9181 44.7682H60.9001C60.9362 44.7682 60.9543 44.7863 60.9905 44.7863C61.1893 44.8225 61.3881 44.8767 61.587 44.949C61.6051 44.949 61.6051 44.949 61.6232 44.9671C61.5689 44.949 61.6593 44.9851 61.6593 44.9851C61.6412 44.9851 61.6412 44.9852 61.6232 44.9671C61.6774 44.9852 61.7316 45.0213 61.7678 45.0394C61.8581 45.0936 61.9485 45.1298 62.0389 45.184C62.0751 45.2021 62.1112 45.2382 62.1474 45.2563C62.1655 45.2744 62.1655 45.2744 62.1835 45.2925C62.1835 45.2925 62.1835 45.2925 62.1655 45.2744C62.1112 45.2382 62.1835 45.2925 62.2016 45.2925C62.2016 45.2925 62.1835 45.2925 62.1835 45.2744C62.2558 45.3286 62.3281 45.4009 62.4005 45.4552C62.4728 45.5275 62.527 45.5817 62.5993 45.654C62.6355 45.6902 62.6535 45.7263 62.6897 45.7625L62.7078 45.7805C62.6897 45.7444 62.7258 45.8167 62.7078 45.7805C62.7078 45.7805 62.7258 45.7986 62.7258 45.8167C62.8343 45.9794 62.9428 46.1421 63.0331 46.3228C63.0512 46.359 63.0693 46.4132 63.0874 46.4494C63.0874 46.4675 63.1055 46.4855 63.1055 46.5036V46.4855C63.1235 46.5398 63.1235 46.5398 63.1055 46.5036C63.1416 46.594 63.1778 46.6844 63.1958 46.7748C63.2501 46.9736 63.3043 47.1544 63.3405 47.3532C63.3405 47.3894 63.3585 47.4255 63.3585 47.4617C63.3585 47.4436 63.3585 47.4436 63.3585 47.4978C63.3585 47.4798 63.3585 47.4798 63.3585 47.4617C63.3585 47.4798 63.3585 47.5159 63.3585 47.534C63.3766 47.6425 63.3766 47.7509 63.3766 47.8594C63.3766 48.0763 63.3766 48.2932 63.3405 48.5101C63.3405 48.5101 63.3405 48.5102 63.3405 48.5282C63.3405 48.5102 63.3405 48.4921 63.3405 48.4921C63.3405 48.4921 63.3224 48.5825 63.3405 48.5282C63.3405 48.5463 63.3405 48.5463 63.3405 48.5644C63.3405 48.6186 63.3224 48.6728 63.3224 48.709C63.3043 48.8175 63.2862 48.9259 63.2501 49.0344C63.232 49.1248 63.1958 49.2332 63.1597 49.3236C63.1416 49.3778 63.1235 49.414 63.1055 49.4682C63.0874 49.4863 63.0874 49.5225 63.0693 49.5405C63.0512 49.6128 63.1055 49.4682 63.0693 49.5405C62.9789 49.7394 62.8885 49.9382 62.762 50.119C62.7078 50.2094 62.6535 50.2998 62.5812 50.3902C62.5631 50.4082 62.5451 50.4444 62.527 50.4625L62.5451 50.4444C62.527 50.4805 62.527 50.4805 62.527 50.4625C62.4908 50.4986 62.4547 50.5528 62.4185 50.589C62.2558 50.7698 62.0931 50.9325 61.9124 51.0771C60.882 51.9448 59.4178 52.1617 58.1524 51.764C57.827 51.6555 57.5197 51.8905 57.4293 52.1798C57.3208 52.4871 57.5558 52.8305 57.8451 52.9028C57.8451 52.9028 57.8451 52.9028 57.8632 52.9028C57.8632 52.9028 57.8631 52.9028 57.8451 52.9028C58.0801 52.7582 58.3331 52.6317 58.5681 52.4871C58.4597 52.7763 58.1705 52.9751 57.8632 52.9028C59.2732 53.3367 60.9001 53.1559 62.1474 52.3605C63.1416 51.7459 63.8647 50.7878 64.2624 49.6851C64.9493 47.8775 64.5155 45.6178 62.9608 44.3886Z" fill="#21223F"/>
<path d="M62.5806 50.4268L62.5625 50.4448C62.5625 50.4629 62.5625 50.4629 62.5806 50.4268Z" fill="#21223F"/>
<path d="M63.1054 49.522C63.0873 49.5762 63.1415 49.4497 63.1054 49.522V49.522Z" fill="#21223F"/>
<path d="M51.4262 58.9767C49.6185 60.0071 47.5758 60.6217 45.5151 60.6398C43.6712 60.6579 41.8454 60.224 40.2547 59.266C38.7181 58.344 37.5431 57.0063 36.7116 55.3794C35.8258 53.6079 35.3016 51.5652 34.9762 49.5767C34.5604 46.9737 34.4881 44.2802 34.7774 41.659C34.8135 41.3337 34.4881 41.0625 34.1808 41.0625C33.8374 41.0625 33.6204 41.3337 33.5843 41.659C33.3131 44.1537 33.3674 46.6664 33.7108 49.161C34.0181 51.3483 34.5424 53.5175 35.4643 55.524C36.2778 57.3137 37.507 58.8502 39.1339 59.9529C40.797 61.0917 42.8035 61.7063 44.8281 61.7967C47.3408 61.9233 49.8354 61.2183 52.0047 59.971C52.6916 59.6275 52.0951 58.5971 51.4262 58.9767Z" fill="#21223F"/>
<path d="M49.0768 41.6772C47.8114 40.9179 46.2749 41.0806 44.9552 41.641C44.666 41.7675 44.5937 42.2014 44.7383 42.4545C44.9372 42.7437 45.2445 42.7979 45.5518 42.6714C45.4614 42.7075 45.6602 42.6352 45.6783 42.6172C45.7506 42.5991 45.8229 42.5629 45.8953 42.5448C46.0218 42.5087 46.1483 42.4725 46.2929 42.4364C46.3653 42.4183 46.4376 42.4002 46.5279 42.3822C46.5641 42.3822 46.6002 42.3641 46.6364 42.3641C46.6002 42.3641 46.6003 42.3641 46.6545 42.3641C46.6545 42.3641 46.6545 42.3641 46.6364 42.3641H46.6545C46.781 42.346 46.9256 42.346 47.0522 42.346C47.1787 42.346 47.3233 42.346 47.4499 42.3641C47.4679 42.3641 47.5041 42.3641 47.5222 42.3641C47.5041 42.3641 47.5222 42.3641 47.5583 42.3641C47.5403 42.3641 47.5403 42.3641 47.5222 42.3641C47.5222 42.3641 47.5402 42.3641 47.5764 42.3641C47.6487 42.3821 47.721 42.4002 47.7933 42.4183C47.9199 42.4545 48.0464 42.4906 48.1729 42.5448C48.2452 42.5629 48.2453 42.581 48.191 42.5448C48.2272 42.5629 48.2633 42.581 48.2995 42.5991C48.3718 42.6352 48.426 42.6714 48.4983 42.7075C48.7695 42.8702 49.1672 42.7798 49.3118 42.4906C49.4383 42.2014 49.366 41.8398 49.0768 41.6772Z" fill="#21223F"/>
<path d="M37.4719 42.8877C37.3815 42.942 37.5261 42.8335 37.4719 42.8877V42.8877Z" fill="#21223F"/>
<path d="M38.2305 42.5979C38.2483 42.5979 38.2661 42.5801 38.2839 42.5801C38.3196 42.5801 38.2661 42.5801 38.2305 42.5979Z" fill="#21223F"/>
<path d="M40.3821 41.7851C39.8217 41.4959 39.1528 41.3694 38.5201 41.3874C37.8151 41.4236 37.1101 41.6043 36.604 42.0924C36.369 42.3093 36.369 42.7251 36.604 42.924C36.839 43.1409 37.2005 43.1409 37.4355 42.924C37.4536 42.9059 37.4717 42.8878 37.4898 42.8697C37.3994 42.924 37.544 42.7974 37.5078 42.8517C37.5621 42.8155 37.5982 42.7794 37.6524 42.7613C37.6886 42.7432 37.7067 42.7251 37.7428 42.7251C37.7609 42.7251 37.7609 42.707 37.779 42.707C37.8151 42.689 37.7971 42.689 37.7248 42.7251C37.7428 42.689 37.8694 42.6709 37.9055 42.6528C38.0321 42.6167 38.1586 42.5805 38.2851 42.5624C38.3032 42.5624 38.3213 42.5624 38.3213 42.5624C38.3032 42.5624 38.2851 42.5624 38.2671 42.5805C38.2851 42.5624 38.3574 42.5624 38.3213 42.5624C38.3394 42.5624 38.3574 42.5624 38.3755 42.5624C38.4478 42.5624 38.5201 42.5443 38.5744 42.5443C38.7009 42.5443 38.8274 42.5444 38.9721 42.5624C39.0082 42.5624 39.0444 42.5624 39.0805 42.5805C39.1167 42.5805 39.1348 42.5805 39.1348 42.5805C39.1167 42.5805 39.0986 42.5805 39.0805 42.5805C39.0805 42.5805 39.0805 42.5805 39.0624 42.5805C39.0624 42.5805 39.0624 42.5805 39.0805 42.5805C39.0986 42.5805 39.1348 42.5805 39.1348 42.5805C39.189 42.5986 39.2432 42.5986 39.2613 42.5986C39.3878 42.6167 39.4963 42.6528 39.6228 42.689C39.6409 42.689 39.659 42.707 39.6951 42.707C39.7132 42.707 39.7674 42.7432 39.7494 42.7251H39.7313C39.7132 42.707 39.6228 42.6709 39.7132 42.707C39.7313 42.7251 39.7494 42.7251 39.7494 42.7251C39.7674 42.7432 39.8036 42.7432 39.8217 42.7613C40.0928 42.9059 40.4724 42.8336 40.6351 42.5443C40.7255 42.3274 40.6713 41.9478 40.3821 41.7851Z" fill="#21223F"/>
<path d="M39.6763 42.7616C39.5859 42.7254 39.6763 42.7616 39.6943 42.7796H39.7124C39.7124 42.7616 39.6943 42.7616 39.6763 42.7616Z" fill="#21223F"/>
<path d="M46.6002 45.2025C45.9675 45.2206 45.4794 45.9798 45.5156 46.9017C45.5517 47.8236 46.0759 48.5648 46.7086 48.5286C47.3413 48.5106 47.8294 47.7513 47.7932 46.8294C47.7571 45.9075 47.2329 45.1844 46.6002 45.2025Z" fill="#21223F"/>
<path d="M38.9517 48.779C39.5803 48.7592 40.0666 47.999 40.0378 47.081C40.0089 46.1629 39.4759 45.4347 38.8473 45.4545C38.2186 45.4742 37.7324 46.2344 37.7612 47.1525C37.79 48.0705 38.323 48.7987 38.9517 48.779Z" fill="#21223F"/>
<path d="M58.9827 49.4496C59.055 49.2327 59.1454 49.0338 59.2357 48.835C58.9827 48.8711 58.7477 48.9615 58.5488 49.1061C58.6934 49.2327 58.8381 49.3411 58.9827 49.4496Z" fill="#21223F"/>
<path d="M60.9355 46.4489C60.4835 46.485 60.1039 46.7923 59.7785 47.0996C59.1458 47.7142 58.6939 48.4735 58.3866 49.305C58.2962 49.54 58.6216 49.7931 58.8205 49.6304C59.2905 49.2869 60.0135 49.3592 60.357 49.8473C60.4474 49.9739 60.6101 50.0462 60.7547 49.9558C60.8812 49.8835 60.9535 49.6846 60.8632 49.5581C60.5016 49.0339 59.8328 48.7627 59.2001 48.8531C59.0916 49.0519 59.0193 49.2508 58.947 49.4677C58.8024 49.3592 58.6578 49.2508 58.5132 49.1423C58.7301 48.9977 58.9651 48.9073 59.2001 48.8712C59.417 48.4554 59.6882 48.0577 59.9955 47.7143C60.2124 47.4793 60.4474 47.2081 60.7547 47.0996C60.9716 47.0273 61.2428 47.0454 61.3693 47.2623C61.532 47.6058 62.0562 47.2985 61.8755 46.9731C61.7309 46.5935 61.3151 46.4127 60.9355 46.4489Z" fill="#21223F"/>
<path d="M51.2094 50.3901C50.0887 50.4263 49.2029 51.1132 49.221 51.9086C49.2391 52.7221 50.1791 53.3367 51.2998 53.3005C52.4206 53.2644 53.3064 52.5775 53.2883 51.7821C53.2702 50.9867 52.3302 50.354 51.2094 50.3901Z" fill="#FFA697"/>
<path d="M68.2569 73.4199C68.2208 73.5103 68.1846 73.5826 68.1484 73.6549C68.1665 73.7272 68.1846 73.7995 68.2027 73.8718C68.2208 73.7272 68.2388 73.5826 68.2569 73.4199Z" fill="#21223F"/>
<path d="M34.4526 74.1793C34.4526 74.1612 34.4346 74.1612 34.4346 74.1431C34.4346 74.1431 34.4346 74.1251 34.4165 74.1251C34.3984 74.0708 34.4888 74.2878 34.4526 74.1793Z" fill="#21223F"/>
<path d="M64.5147 77.7585C64.4966 77.7585 64.4966 77.7585 64.5147 77.7585C64.4966 77.7766 64.4966 77.7766 64.4785 77.7766C64.4785 77.7766 64.5508 77.7224 64.5147 77.7585Z" fill="#21223F"/>
<path d="M38.484 78.7523C38.4317 78.7174 38.5188 78.7871 38.484 78.7523V78.7523Z" fill="#21223F"/>
<path d="M35.4473 75.77C35.3931 75.6977 35.5015 75.8243 35.4473 75.77V75.77Z" fill="#21223F"/>
<path d="M42.5694 81.1386C42.5152 81.1205 42.5332 81.1205 42.5694 81.1386V81.1386Z" fill="#21223F"/>
<path d="M56.959 62.7002C57.1578 62.8448 57.3386 62.9894 57.5374 63.134C57.5013 63.0075 57.4832 62.881 57.4651 62.7364C57.3928 62.7364 57.3205 62.7183 57.2482 62.7183C57.1397 62.7183 57.0494 62.7002 56.959 62.7002Z" fill="#21223F"/>
<path d="M58.5313 52.6859C58.459 52.8125 58.5675 52.5594 58.5313 52.6859V52.6859Z" fill="#21223F"/>
<path d="M63.6644 66.4603C63.6295 66.4254 63.6992 66.4951 63.6644 66.4603V66.4603Z" fill="#21223F"/>
<path d="M65.7617 68.5576L65.7795 68.5754C65.7617 68.5576 65.7617 68.5576 65.7617 68.5576Z" fill="#21223F"/>
<path d="M68.6187 71.2687C67.4256 68.286 65.2925 65.7733 62.4364 64.2729C60.8999 63.4595 59.1825 62.9172 57.4652 62.7364C57.4833 62.8629 57.5195 62.9895 57.5375 63.1341C57.3387 62.9895 57.1579 62.8448 56.9591 62.7002C57.0495 62.7002 57.1399 62.7183 57.2302 62.7183C57.3025 62.7183 57.3749 62.7364 57.4472 62.7364C56.8325 59.5548 57.2122 56.2287 58.3149 53.1918C58.3872 53.011 58.4414 52.8483 58.5137 52.6675C58.4595 52.7941 58.5679 52.541 58.5137 52.6675C58.5137 52.6495 58.5318 52.6314 58.5318 52.6133C58.6583 52.3241 58.6222 51.9806 58.3149 51.7998C58.0618 51.6552 57.646 51.7275 57.5014 52.0168C57.176 52.7398 56.9229 53.481 56.7241 54.2402C56.236 55.9756 55.9829 57.7833 55.9649 59.591C55.9649 60.8745 56.0914 62.176 56.3625 63.4233C56.4168 63.6764 56.6879 63.8572 56.941 63.8572C57.0314 63.8572 57.1037 63.8752 57.1941 63.8752C57.2845 63.8752 57.3929 63.8933 57.4833 63.9114C57.5195 63.9114 57.6279 63.9295 57.646 63.9475C57.646 63.9475 57.6099 63.9475 57.5375 63.9295C57.6099 63.9475 57.6822 63.9475 57.7725 63.9656C58.5679 64.0922 59.3452 64.291 60.1045 64.5441C60.3395 64.6345 60.5745 64.7068 60.8095 64.8152C60.8456 64.8333 61.0445 64.9237 60.8818 64.8514C60.936 64.8695 61.0083 64.9056 61.0625 64.9237C61.1891 64.9779 61.3156 65.0502 61.4602 65.1045C61.9845 65.3575 62.5087 65.6468 62.9968 65.9902C63.1233 66.0806 63.2499 66.171 63.3764 66.2614C63.4487 66.3156 63.5029 66.3518 63.5752 66.406C63.5933 66.4241 63.6295 66.4421 63.6475 66.4602L63.6656 66.4783C63.6295 66.4422 63.7018 66.5145 63.6656 66.4783C63.6656 66.4783 63.6837 66.4964 63.7018 66.4964C63.9729 66.7133 64.226 66.9302 64.461 67.1472C64.7141 67.3822 64.9491 67.6352 65.1841 67.8883C65.3106 68.0148 65.4191 68.1595 65.5275 68.286C65.5818 68.3583 65.636 68.4306 65.6902 68.5029C65.7083 68.521 65.7264 68.5391 65.7445 68.5572C65.7445 68.5572 65.7445 68.5572 65.7625 68.5752C65.7625 68.5572 65.7445 68.5572 65.7445 68.5572C65.7445 68.5572 65.8168 68.6475 65.8168 68.6656C66.9556 70.1841 67.6606 71.8472 68.1125 73.6729C68.1487 73.6006 68.1848 73.5102 68.221 73.4379C68.2029 73.5825 68.1849 73.7452 68.1668 73.8898C68.1487 73.8175 68.1306 73.7452 68.1125 73.6729C67.8956 74.1248 67.5883 74.5406 67.2991 74.9383C67.2629 74.9925 67.2087 75.0468 67.1725 75.101C67.281 74.9383 67.1545 75.1191 67.1002 75.1733C66.9918 75.2998 66.8833 75.4264 66.7748 75.5529C66.5399 75.8422 66.2687 76.1133 66.0156 76.3664C65.7083 76.6737 65.401 76.9629 65.0756 77.2341C64.8948 77.3968 64.7141 77.5414 64.5152 77.686C64.4972 77.7041 64.4791 77.7041 64.461 77.7222C64.5152 77.686 64.4429 77.7402 64.4249 77.7402L64.4429 77.7222C64.3887 77.7583 64.3525 77.7945 64.2983 77.8306C64.1898 77.9029 64.0814 77.9933 63.9729 78.0656C63.0329 78.7345 62.0387 79.331 60.9902 79.8371C59.7429 80.4518 58.4775 80.9218 57.0856 81.3375C53.9945 82.2595 50.7406 82.7656 47.5049 82.4222C47.1433 82.386 46.9264 82.3498 46.5468 82.2956C46.2033 82.2414 45.8779 82.1691 45.5525 82.0968C44.9018 81.9522 44.251 81.7714 43.6002 81.5364C43.311 81.4279 43.0037 81.3195 42.7145 81.211C42.6422 81.1748 42.5699 81.1568 42.4975 81.1206C42.4975 81.1206 42.4795 81.1206 42.4795 81.1025C42.4252 81.0845 42.4433 81.0845 42.4795 81.1025C42.4433 81.0845 42.4072 81.0664 42.3891 81.0664C42.2445 81.0122 42.1179 80.9398 41.9733 80.8856C41.431 80.6325 40.8887 80.3433 40.3645 80.0541C39.8945 79.7829 39.4245 79.4756 38.9725 79.1502C38.8641 79.0779 38.7556 78.9875 38.6472 78.9152C38.5929 78.8791 38.5387 78.8429 38.4845 78.7887C38.4664 78.7706 38.4302 78.7525 38.4122 78.7345C38.4122 78.7345 38.4122 78.7345 38.3941 78.7164C38.3399 78.6802 38.4302 78.7525 38.3941 78.7164C38.1952 78.5537 37.9783 78.391 37.7795 78.2283C37.0925 77.6498 36.4418 77.0172 35.8452 76.3302C35.7187 76.1856 35.5922 76.0229 35.4656 75.8783C35.4295 75.8422 35.4114 75.806 35.3752 75.7698C35.3752 75.7698 35.3752 75.7518 35.3572 75.7518C35.3029 75.6795 35.3933 75.806 35.3572 75.7518C35.3029 75.6795 35.2487 75.6072 35.1945 75.5348C35.0137 75.2818 34.8329 75.0287 34.6702 74.7575C34.5437 74.5587 34.4533 74.3418 34.3449 74.1248C34.3449 74.1429 34.3629 74.1429 34.3629 74.161C34.3991 74.2695 34.3087 74.0525 34.3449 74.1068C34.3449 74.1068 34.3449 74.1248 34.3629 74.1248C34.3629 74.1068 34.3629 74.1068 34.3449 74.0887C34.3268 74.0525 34.3087 73.9983 34.3087 73.9621C34.2906 73.926 34.2906 73.8898 34.2725 73.8537V73.8718C34.2725 73.8898 34.2725 73.8898 34.2725 73.8718C34.2725 73.8718 34.2725 73.8718 34.2725 73.8537C34.2725 73.8537 34.2725 73.8718 34.2545 73.8718C34.2364 73.9079 34.2545 73.8175 34.2545 73.7814C34.2545 73.7271 34.2545 73.7452 34.2545 73.7814C34.2545 73.7633 34.2725 73.7633 34.2545 73.7995C34.2545 73.7995 34.2545 73.7995 34.2545 73.8175C34.2545 73.8356 34.2545 73.8356 34.2545 73.8537C34.2906 73.7995 34.2906 73.7272 34.3268 73.6729C34.3991 73.5102 34.4714 73.3295 34.5437 73.1668C34.8691 72.4798 35.2306 71.811 35.6283 71.1602C36.3333 70.0756 37.1287 69.1175 38.141 68.2318C38.2495 68.1414 38.3579 68.051 38.4483 67.9606C38.5025 67.9064 38.5568 67.8702 38.611 67.816C38.6472 67.7979 38.6652 67.7798 38.7014 67.7437C38.7014 67.7437 38.7556 67.7075 38.7737 67.6895L38.7556 67.7075C38.7918 67.6714 38.7918 67.6714 38.7737 67.6895C38.9906 67.5268 39.2075 67.3641 39.4425 67.2195C39.8945 66.9122 40.3464 66.641 40.8345 66.406C41.0695 66.2975 41.2864 66.171 41.5214 66.0806C41.5756 66.0625 41.6118 66.0445 41.666 66.0083C41.6841 66.0083 41.7022 65.9902 41.7202 65.9902C41.6479 66.0264 41.8106 65.9541 41.7383 65.9902H41.7202C41.8287 65.936 41.9552 65.8998 42.0637 65.8456C42.4795 65.6829 42.8952 65.5383 43.3291 65.4299C43.7087 65.3214 44.0883 65.231 44.4679 65.1587C44.6306 65.1225 44.7933 65.1045 44.956 65.0683C45.0283 65.0502 45.1006 65.0502 45.191 65.0322C45.2091 65.0322 45.2272 65.0321 45.2452 65.0141C45.191 65.0141 45.2091 65.0141 45.2995 65.0141C45.2814 65.0141 45.2633 65.0141 45.2452 65.0141C45.2633 65.0141 45.2633 65.0141 45.2814 65.0141C45.6791 64.9598 46.0768 64.9237 46.4745 64.9237C46.5287 64.9237 46.5829 64.9237 46.6372 64.9237C46.9445 64.9418 47.2337 64.6525 47.2337 64.3272C47.2156 63.2968 47.1975 62.2845 47.1795 61.2541C47.1614 60.4948 45.9864 60.4948 46.0045 61.2541C46.0225 62.0856 46.0406 62.9171 46.0587 63.7487C46.2575 63.7306 46.4564 63.7306 46.6552 63.7306C46.4564 63.9295 46.2575 64.1283 46.0587 64.3272C46.0587 64.1283 46.0587 63.9475 46.0406 63.7487C45.8598 63.7668 45.6791 63.7849 45.4983 63.8029C44.5041 63.9114 43.5279 64.1102 42.5879 64.4175C39.5872 65.3756 37.0022 67.2556 35.1402 69.7864C34.5437 70.5998 34.0375 71.4675 33.6037 72.3714C33.4229 72.751 33.1879 73.1668 33.0795 73.5825C33.0433 73.7452 33.0614 73.926 33.0795 74.0887C33.206 74.7214 33.6037 75.336 33.9652 75.8602C35.4295 77.9752 37.4722 79.7106 39.6775 81.0121C42.8591 82.8921 46.5468 83.8141 50.2345 83.6875C52.5302 83.6152 54.8622 83.1814 57.0675 82.5487C58.8933 82.0245 60.701 81.3195 62.3822 80.4156C64.5695 79.2225 66.5941 77.6499 68.1125 75.6433C68.456 75.1914 68.7814 74.7214 69.0345 74.2152C69.0706 74.1248 69.1249 74.0525 69.161 73.9621C69.3418 73.5464 69.1068 73.0041 68.9802 72.5883C68.9622 72.1906 68.7995 71.7206 68.6187 71.2687Z" fill="#21223F"/>
<path d="M38.8633 67.7438L38.8814 67.7257C38.8994 67.7077 38.8994 67.7077 38.8633 67.7438Z" fill="#21223F"/>
<path d="M34.3632 73.8897C34.3632 73.8716 34.3632 73.8716 34.3632 73.8535C34.3451 73.8716 34.3451 73.8716 34.3632 73.8897Z" fill="#21223F"/>
<path d="M41.8278 66.0083H41.8456C41.9347 65.9727 41.7565 66.044 41.8278 66.0083Z" fill="#21223F"/>
<path d="M46.7645 63.7666C46.5657 63.7666 46.3668 63.7666 46.168 63.7847C46.168 63.9835 46.168 64.1643 46.186 64.3631C46.3668 64.1643 46.5657 63.9654 46.7645 63.7666Z" fill="#21223F"/>
<path d="M45.3528 65.0322C45.3708 65.0322 45.3889 65.0322 45.407 65.0322C45.3166 65.0322 45.2985 65.0503 45.3528 65.0322Z" fill="#21223F"/>
<path d="M34.3451 73.8174C34.327 73.8535 34.3089 73.9439 34.3451 73.9078L34.3632 73.8897C34.3632 73.8716 34.3632 73.8716 34.3632 73.8535C34.3451 73.8355 34.3451 73.8355 34.3451 73.8174Z" fill="#21223F"/>
<path d="M46.998 46.1605C46.7811 46.1786 46.6004 46.3775 46.6184 46.5944C46.6365 46.8113 46.8354 46.9921 47.0523 46.974C47.2692 46.9559 47.45 46.7571 47.4319 46.5402C47.4138 46.3052 47.215 46.1425 46.998 46.1605Z" fill="white"/>
<path d="M39.2441 46.3948C39.0272 46.4129 38.8465 46.6117 38.8645 46.8287C38.8826 47.0456 39.0815 47.2263 39.2984 47.2083C39.5153 47.1902 39.6961 46.9913 39.678 46.7744C39.6599 46.5575 39.4611 46.3767 39.2441 46.3948Z" fill="white"/>
<path d="M33.3685 28.3184C33.386 28.3184 33.386 28.3184 33.3685 28.3184C33.3511 28.3358 33.3511 28.3358 33.3685 28.3184Z" fill="#21223F"/>
<path d="M34.4169 27.7026C34.4004 27.7026 34.4333 27.6862 34.4169 27.7026V27.7026Z" fill="#21223F"/>
<path d="M34.7775 41.6052C34.5063 41.2255 34.2352 40.8459 33.964 40.4482C33.8556 40.8821 33.7652 41.2979 33.7109 41.7498C34.0544 41.6956 34.4159 41.6594 34.7775 41.6052Z" fill="#21223F"/>
<path d="M35.5746 26.2031C35.4119 26.2212 35.2492 26.2573 35.0865 26.2754C35.0503 26.3839 35.0322 26.5104 34.9961 26.637C35.1949 26.4923 35.3938 26.3477 35.5746 26.2031Z" fill="#21223F"/>
<path d="M35.555 27.3779C35.4659 27.3958 35.6441 27.3779 35.555 27.3779V27.3779Z" fill="#21223F"/>
<path d="M66.7925 32.2228C66.0695 30.379 64.9306 28.734 63.376 27.5047C61.4056 25.9501 58.9833 25.1728 56.7418 24.1244C54.7172 23.1844 52.7468 22.1359 50.7764 21.0694C49.5291 20.4005 48.2637 19.6774 46.8899 19.2978C44.7387 18.7194 42.3706 19.0086 40.3641 19.9486C38.2129 20.9428 36.4775 22.7505 35.5556 24.9197C35.3749 25.3536 35.2122 25.8055 35.1037 26.2755C35.2664 26.2393 35.4291 26.2213 35.5918 26.2032C35.3929 26.3478 35.2122 26.4924 35.0133 26.637C35.0314 26.5105 35.0675 26.402 35.1037 26.2755C33.2056 26.6551 31.6149 27.9747 30.7652 29.7101C29.536 32.2409 29.9156 35.1332 31.0002 37.6459C31.7052 39.2909 32.7176 40.7732 33.766 42.2013C33.9106 42.4001 34.1095 42.5267 34.3626 42.4905C34.5614 42.4544 34.8145 42.2917 34.8506 42.0747C35.2122 39.4174 36.5499 36.8505 38.3937 34.9163C38.9179 34.3559 38.0864 33.5244 37.5622 34.0847C36.5679 35.1332 35.7183 36.3624 35.0676 37.6459C34.6156 38.5497 34.236 39.4897 33.9829 40.4659C34.2541 40.8636 34.5252 41.2432 34.7964 41.6228C34.4349 41.677 34.0733 41.7132 33.7118 41.7674C33.766 41.3336 33.8564 40.8997 33.9649 40.4659C32.6091 38.5136 31.416 36.3624 31.1991 33.9763C31.0906 32.8194 31.1991 31.7709 31.6149 30.6863C31.6691 30.5597 31.651 30.5778 31.7233 30.4332C31.7776 30.3067 31.8318 30.1982 31.9041 30.0897C32.0126 29.8728 32.1572 29.674 32.2837 29.457C32.3199 29.4028 32.356 29.3667 32.3922 29.3124C32.4102 29.2943 32.4102 29.2763 32.4102 29.2763C32.4102 29.2582 32.4102 29.2944 32.4102 29.2763C32.4102 29.2763 32.4283 29.2582 32.4283 29.2401C32.5006 29.1497 32.591 29.0594 32.6633 28.969C32.826 28.8063 32.9887 28.6436 33.1514 28.4809C33.2056 28.4447 33.2418 28.3905 33.296 28.3543C33.3141 28.3363 33.3322 28.3182 33.3502 28.3182C33.3322 28.3363 33.3322 28.3363 33.3683 28.3001C33.3683 28.3001 33.3683 28.3001 33.3502 28.3182L33.3683 28.3001C33.4768 28.2278 33.5852 28.1374 33.6937 28.0651C33.9106 27.9386 34.1276 27.812 34.3445 27.7217C34.3806 27.7036 34.3806 27.7036 34.3987 27.7036C34.3806 27.7036 34.4168 27.7036 34.3987 27.7036C34.3987 27.7036 34.4168 27.7036 34.4168 27.6855C34.471 27.6674 34.5252 27.6494 34.5795 27.6132C34.6879 27.577 34.8145 27.5409 34.9229 27.5047C35.0314 27.4686 35.1579 27.4505 35.2664 27.4143C35.3206 27.3963 35.3749 27.3963 35.4472 27.3782C35.4652 27.3782 35.4833 27.3782 35.5195 27.3601C35.4291 27.3782 35.6099 27.342 35.5376 27.3601C35.5376 27.3601 35.5376 27.3601 35.5195 27.3601C35.5195 27.3601 35.5375 27.3601 35.5556 27.3601C35.8087 27.324 36.0618 27.1974 36.1341 26.9263C36.586 24.7751 37.8514 22.8951 39.641 21.684C40.581 21.0513 41.521 20.6355 42.6237 20.3824C43.6541 20.1474 44.8291 20.0932 45.8595 20.274C46.4379 20.3643 47.0164 20.5451 47.5587 20.762C47.5949 20.7801 47.6129 20.7801 47.6491 20.7982C47.5587 20.762 47.7033 20.8163 47.6672 20.7982H47.6491C47.6491 20.7982 47.6491 20.7982 47.6672 20.7982C47.7395 20.8344 47.8118 20.8705 47.8841 20.8886C48.0287 20.9609 48.1733 21.0332 48.336 21.1055C48.6614 21.2682 48.9687 21.4309 49.2941 21.5936C51.0114 22.4974 52.7106 23.4555 54.4641 24.3232C55.7114 24.9378 56.9768 25.5163 58.2422 26.0767C59.3449 26.5467 60.3752 26.9444 61.4418 27.577C61.6587 27.7036 61.8756 27.8482 62.0745 27.9747C62.1649 28.047 62.2552 28.1013 62.3456 28.1736C62.3999 28.2097 62.436 28.2459 62.4722 28.282C62.4902 28.3001 62.5083 28.3001 62.5264 28.3182C62.5083 28.3182 62.5083 28.3182 62.5445 28.3363L62.5264 28.3182C62.5264 28.3182 62.5445 28.3363 62.5625 28.3363C62.9241 28.6255 63.2675 28.9328 63.5749 29.2582C63.7375 29.4209 63.8822 29.5836 64.0268 29.7643C64.0991 29.8547 64.1714 29.927 64.2256 30.0174C64.2437 30.0355 64.2437 30.0536 64.2618 30.0536C64.2437 30.0174 64.2799 30.0717 64.2799 30.0717L64.2618 30.0536C64.2979 30.1078 64.3341 30.162 64.3702 30.1982C64.6414 30.5597 64.8764 30.9574 65.0933 31.3551C65.2018 31.572 65.3102 31.789 65.4187 32.0059C65.4549 32.0963 65.5091 32.2047 65.5452 32.2951C65.5452 32.277 65.5452 32.277 65.5452 32.3132V32.2951C65.5452 32.3132 65.5814 32.3674 65.5814 32.3855C65.5995 32.4397 65.6356 32.512 65.6537 32.5663C65.8345 33.0182 65.9791 33.4882 66.1056 33.9763C66.3949 35.0609 66.5395 36.0732 66.6299 37.1397C66.7383 38.4413 66.7745 39.7609 66.6479 41.0624C66.5214 42.364 66.1779 43.6294 65.7441 44.8405C65.3102 45.9974 64.786 47.1182 64.2618 48.257C63.7195 49.432 63.2314 50.6613 62.6349 51.8182C61.5322 53.9693 60.0679 56.0663 58.0072 57.3859C57.5372 57.6932 56.9949 57.9824 56.4887 58.1813C56.1995 58.3078 55.9825 58.579 56.0729 58.9043C56.1452 59.1936 56.5068 59.4286 56.796 59.3201C59.2725 58.3259 61.1706 56.4459 62.5987 54.2224C63.3218 53.1197 63.9183 51.9267 64.4245 50.7155C64.9487 49.4863 65.5452 48.2751 66.0876 47.0459C66.6299 45.8347 67.1179 44.5874 67.4252 43.2859C67.7687 41.8578 67.8952 40.4117 67.8772 38.9655C67.8772 36.7059 67.6241 34.3559 66.7925 32.2228Z" fill="#21223F"/>
<path d="M64.2607 30.0537L64.2782 30.0711C64.2782 30.0711 64.2433 30.0363 64.2607 30.0537Z" fill="#21223F"/>
<path d="M47.668 20.8164C47.5776 20.7803 47.7042 20.8345 47.668 20.8164V20.8164Z" fill="#21223F"/>
<path d="M62.5273 28.3356C62.5452 28.3356 62.5452 28.3356 62.5273 28.3356C62.5273 28.3178 62.5273 28.3178 62.5273 28.3356Z" fill="#21223F"/>
<path d="M55.2224 68.322C52.077 69.027 48.787 68.8824 45.7139 67.9243C44.9908 67.6893 44.6835 68.8282 45.4066 69.0632C48.6785 70.0936 52.2035 70.2201 55.5478 69.4609C55.8551 69.3886 56.0358 69.027 55.9635 68.7378C55.8551 68.4124 55.5297 68.2497 55.2224 68.322Z" fill="#21223F"/>
<path d="M57.4822 63.3329C55.7649 66.5145 54.5176 69.9129 53.5957 73.4018L55.7288 73.1487C57.8438 71.9014 60.1938 72.4076 60.1938 72.4076C60.1938 72.4076 62.0919 67.3822 61.0434 65.4118C59.6515 62.8449 57.4822 63.3329 57.4822 63.3329Z" fill="#0148FF"/>
<path d="M58.4772 72.5703C57.5192 75.553 56.8503 78.6261 56.4707 81.7534L58.4772 72.5703Z" fill="#0085E6"/>
<path d="M58.8555 64.0742C58.8733 64.0742 58.8733 64.092 58.8911 64.092C58.9446 64.092 58.8555 64.0742 58.8555 64.0742Z" fill="#21223F"/>
<path d="M58.242 63.9113C58.1351 63.8757 58.3667 63.9113 58.242 63.9113V63.9113Z" fill="#21223F"/>
<path d="M57.6445 63.8937C57.6988 63.8937 57.7711 63.8937 57.6445 63.8937C57.6807 63.8937 57.6807 63.8937 57.6988 63.8937C57.753 63.8937 57.8072 63.8937 57.8615 63.8937C57.8976 63.8033 57.9518 63.731 57.988 63.6406C57.8795 63.731 57.753 63.8214 57.6445 63.8937Z" fill="#21223F"/>
<path d="M60.5547 65.8096C60.5547 65.8274 60.5547 65.8274 60.5725 65.8274C60.5547 65.8096 60.5547 65.8096 60.5547 65.8096Z" fill="#21223F"/>
<path d="M60.0495 63.3876C59.4168 62.9357 58.6214 62.7007 57.8622 62.7187C57.6995 62.7187 57.5007 62.7187 57.338 62.773C56.9945 62.8814 56.868 63.243 56.7234 63.5141C56.5426 63.8576 56.3618 64.201 56.1991 64.5626C54.8976 67.238 53.9034 70.0399 53.108 72.9141C52.2222 76.1137 51.6076 79.3857 51.1195 82.6757C51.0653 82.983 51.1918 83.3083 51.5353 83.3987C51.8064 83.471 52.2222 83.3084 52.2583 82.983C53.0537 77.7587 54.1383 72.5526 56.1268 67.6357C56.633 66.3703 57.2295 65.123 57.8622 63.9118C57.808 63.9118 57.7537 63.9118 57.6995 63.9118C57.6995 63.9118 57.6814 63.9118 57.6633 63.9118H57.6453C57.573 63.9118 57.6091 63.9118 57.6453 63.9118C57.7537 63.8214 57.8803 63.731 57.9887 63.6407C57.9345 63.731 57.8983 63.8034 57.8622 63.8937C57.9887 63.8937 58.1153 63.8937 58.2599 63.9118C58.1514 63.8937 58.3864 63.9118 58.278 63.9118C58.3141 63.9118 58.3503 63.9299 58.3864 63.9299C58.4768 63.948 58.5672 63.966 58.6576 64.0022C58.748 64.0203 58.8383 64.0564 58.9107 64.0926C58.8926 64.0926 58.8926 64.0745 58.8745 64.0745C58.8745 64.0745 58.9649 64.1107 58.9107 64.0926C58.9287 64.0926 58.9287 64.1107 58.9468 64.1107C59.001 64.1287 59.0553 64.1649 59.1095 64.183C59.1999 64.2372 59.2903 64.2914 59.3806 64.3457C59.4168 64.3818 59.453 64.3999 59.5072 64.4361C59.5072 64.4361 59.5072 64.436 59.5253 64.4541C59.5253 64.4541 59.5072 64.4541 59.5072 64.4361C59.5072 64.4361 59.5976 64.5084 59.6157 64.5264C60.0495 64.888 60.3387 65.3218 60.5918 65.828C60.5737 65.7737 60.5737 65.7918 60.5918 65.828C60.5918 65.828 60.5918 65.846 60.6099 65.846V65.828C60.6099 65.846 60.6099 65.846 60.628 65.8641C60.646 65.9003 60.6641 65.9545 60.6641 65.9907C60.7003 66.081 60.7183 66.1895 60.7364 66.2799C60.7545 66.3341 60.7545 66.3703 60.7545 66.4245C60.7545 66.4426 60.7545 66.4426 60.7545 66.4607C60.7545 66.4064 60.7545 66.4968 60.7545 66.4968C60.7545 66.4787 60.7545 66.4787 60.7545 66.4607C60.7726 66.5691 60.7726 66.6776 60.7726 66.7861C60.7907 67.2561 60.7545 67.726 60.7003 68.178C60.7003 68.196 60.7003 68.2141 60.7003 68.2322C60.7003 68.1961 60.7003 68.2503 60.7003 68.2684C60.7003 68.2503 60.7003 68.2503 60.7003 68.2322V68.2503C60.7003 68.3045 60.6822 68.3587 60.6822 68.413C60.6641 68.5395 60.646 68.666 60.628 68.7926C60.5918 69.0276 60.5376 69.2626 60.4833 69.4976C60.393 69.9314 60.2664 70.3653 60.1399 70.7991C60.0495 71.1245 59.941 71.4499 59.8326 71.7753C60.0133 71.7934 60.2122 71.8295 60.393 71.8657C60.158 72.0103 59.9049 72.1368 59.6699 72.2814C59.7241 72.1187 59.7783 71.956 59.8507 71.7753C58.3683 71.5945 56.7776 71.938 55.4941 72.6611C54.8433 73.0407 55.4218 74.053 56.0907 73.6734C56.9403 73.1853 57.8983 72.9503 58.8383 72.9141C59.1637 72.896 59.4891 72.9141 59.8145 72.9503C59.8868 72.9503 60.0314 72.9864 59.8687 72.9503C59.9049 72.9503 59.9591 72.9683 59.9953 72.9683C60.0314 72.9683 60.0676 72.9864 60.1037 72.9864C60.4291 73.0587 60.7183 72.8961 60.8268 72.5707C61.2787 71.3776 61.6222 70.1122 61.8391 68.8468C62.0018 67.8887 62.0922 66.9126 61.9114 65.9545C61.6222 64.9241 60.881 63.9841 60.0495 63.3876Z" fill="#21223F"/>
<path d="M60.3388 71.8472C60.158 71.8111 59.9773 71.7749 59.7784 71.7568C59.7242 71.9195 59.67 72.1003 59.5977 72.263C59.8507 72.1184 60.0857 71.9738 60.3388 71.8472Z" fill="#21223F"/>
<path d="M59.4707 64.418C59.4707 64.4358 59.4885 64.4358 59.4707 64.418V64.418Z" fill="#21223F"/>
<path d="M60.7189 66.4239C60.7189 66.4417 60.7189 66.4417 60.7189 66.4596C60.7189 66.4596 60.701 66.3526 60.7189 66.4239Z" fill="#21223F"/>
<path d="M58.639 72.0102C58.3136 71.9198 58.0063 72.1187 57.9159 72.426C56.9398 75.4629 56.2709 78.5902 55.8913 81.7537C55.8551 82.0791 56.1986 82.3502 56.4878 82.3502C56.8313 82.3502 57.0482 82.0791 57.0844 81.7537C57.464 78.6987 58.1328 75.6617 59.0728 72.7333C59.1452 72.426 58.9463 72.0825 58.639 72.0102Z" fill="#21223F"/>
<path d="M44.3599 64.6165C42.7511 65.5565 41.0338 67.7799 40.0215 70.3107C41.4315 70.8891 43.1126 73.0041 43.673 73.8176C44.7396 69.8045 46.0049 66.4603 46.7642 64.3453C46.7642 64.3634 46.0773 63.6222 44.3599 64.6165Z" fill="#0148FF"/>
<path d="M45.7874 64.6884C45.7525 64.6884 45.8223 64.671 45.7874 64.6884V64.6884Z" fill="#21223F"/>
<path d="M46.2753 64.7425C46.2931 64.7425 46.2931 64.7425 46.3109 64.7425C46.2931 64.7425 46.204 64.689 46.2753 64.7425Z" fill="#21223F"/>
<path d="M46.293 64.7432C46.3653 64.7974 46.4376 64.8697 46.311 64.7432C46.293 64.7432 46.293 64.7432 46.293 64.7432Z" fill="#21223F"/>
<path d="M40.5818 70.4741C40.636 70.3114 40.7083 70.1667 40.7806 70.0221C40.5818 69.9137 40.3829 69.8233 40.166 69.751C40.3106 69.986 40.4372 70.221 40.5818 70.4741Z" fill="#21223F"/>
<path d="M46.4018 63.5503C45.6787 63.4056 44.9556 63.6406 44.3049 63.9841C42.8768 64.7253 41.756 66.0449 40.8883 67.3645C40.3099 68.2502 39.8399 69.1903 39.4422 70.1483C39.3156 70.4556 39.5868 70.781 39.858 70.8714C39.8941 70.8895 39.9303 70.9076 39.9845 70.9076C39.9664 70.9076 39.9664 70.9076 40.0026 70.9076H39.9845C40.0026 70.9076 40.0387 70.9256 40.0568 70.9437C40.1653 70.9979 40.2556 71.0522 40.3641 71.1064C40.563 71.2149 40.7799 71.3595 40.9426 71.486C41.3403 71.7933 41.6656 72.1187 41.8645 72.5345C42.0091 72.8237 42.4068 72.896 42.678 72.7514C42.9672 72.5887 43.0395 72.2272 42.8949 71.9379C42.6237 71.4137 42.1899 70.9799 41.7199 70.6183C41.4307 70.3833 41.1233 70.1845 40.798 70.0037C40.7256 70.1483 40.6714 70.311 40.5991 70.4556C40.4545 70.2206 40.328 69.9676 40.1833 69.7326C40.4003 69.8049 40.5991 69.8953 40.798 70.0037C41.3583 68.7564 42.0995 67.5453 43.0214 66.5329C43.4553 66.0449 43.9433 65.5929 44.4495 65.2676C44.7387 65.0868 45.046 64.906 45.3714 64.7976C45.516 64.7433 45.6606 64.7252 45.8053 64.6891C45.8233 64.6891 45.8233 64.6891 45.8233 64.6891C45.7872 64.6891 45.8595 64.671 45.8233 64.6891H45.8414C45.8956 64.6891 45.968 64.6891 46.0222 64.6891C46.0222 64.6891 46.0222 64.6891 46.0403 64.6891C46.0945 64.5264 46.1668 64.3637 46.221 64.201C46.2753 64.3999 46.3295 64.5806 46.3656 64.7795L46.3476 64.7614C46.4741 64.8879 46.4018 64.7976 46.3295 64.7614C46.2933 64.7433 46.2753 64.7433 46.2391 64.7253C46.1849 64.7072 46.1306 64.7072 46.0764 64.6891C46.203 64.7252 46.1126 64.6891 46.0403 64.6891C45.516 66.0991 44.9918 67.5272 44.5218 68.9553C43.7626 71.2691 43.1299 73.6191 42.5876 75.9872C42.1899 77.7587 41.8464 79.5483 41.5391 81.356C41.4849 81.6633 41.6295 81.9887 41.9549 82.0791C42.2441 82.1514 42.6237 81.9887 42.678 81.6633C43.166 78.7168 43.7806 75.7702 44.5579 72.8779C45.1003 70.8895 45.733 68.9191 46.438 66.9668C46.7272 66.1533 47.0345 65.3399 47.3418 64.5083C47.4141 64.3095 47.3237 64.0745 47.1972 63.9299C46.9803 63.731 46.673 63.6045 46.4018 63.5503Z" fill="#21223F"/>
<path d="M46.0401 64.6893C46.0943 64.7073 46.1485 64.7073 46.2028 64.7254C46.2389 64.7254 46.257 64.7435 46.2931 64.7616C46.2208 64.7073 46.2931 64.7616 46.3112 64.7616C46.3112 64.7616 46.3112 64.7616 46.2931 64.7435C46.2931 64.7435 46.2931 64.7435 46.3112 64.7616L46.3293 64.7796C46.2751 64.5808 46.2208 64.4 46.1847 64.2012C46.1304 64.3639 46.0581 64.5266 46.0039 64.6893C46.0762 64.6893 46.1666 64.7073 46.0401 64.6893Z" fill="#21223F"/>
<path d="M40.7438 71.1421C39.2253 73.6186 38.3034 76.4025 37.8334 79.2586C37.7792 79.5659 37.9238 79.8913 38.2492 79.9817C38.5384 80.054 38.918 79.8913 38.9723 79.5659C39.4242 76.8002 40.2919 74.1248 41.7561 71.7205C42.1538 71.0879 41.1415 70.4913 40.7438 71.1421Z" fill="#21223F"/>
<path d="M58.8923 44.334C58.8745 44.334 58.8745 44.334 58.8923 44.334C58.8745 44.3518 58.8745 44.3518 58.8923 44.334Z" fill="#21223F"/>
<path d="M56.7583 45.9064C56.7405 45.9064 56.7227 45.9064 56.7227 45.9064C56.7405 45.8885 56.8296 45.9064 56.7583 45.9064Z" fill="#21223F"/>
<path d="M58.3683 45.2559L58.3502 45.2739C58.3502 45.292 58.3321 45.292 58.3683 45.2559Z" fill="#21223F"/>
<path d="M58.0248 45.618C58.0429 45.6 58.0429 45.6 58.0248 45.618C57.9886 45.6361 58.0067 45.6361 58.0248 45.618Z" fill="#21223F"/>
<path d="M57.7161 45.7987C57.6448 45.8343 57.8052 45.7809 57.7161 45.7987V45.7987Z" fill="#21223F"/>
<path d="M56 45.3278C55.9465 45.2209 56.0356 45.4169 56 45.3278V45.3278Z" fill="#21223F"/>
<path d="M53.9216 43.1585C53.9042 43.1236 53.9565 43.1934 53.9216 43.1585V43.1585Z" fill="#21223F"/>
<path d="M60.3383 41.3876C60.0491 41.3153 59.6875 41.496 59.6152 41.8034C59.4706 42.436 59.326 43.0507 59.1272 43.6653C59.091 43.7918 59.0368 43.9184 59.0006 44.0449C58.9825 44.0991 58.9645 44.1534 58.9283 44.2257C58.9283 44.2437 58.8922 44.3341 58.8741 44.3522V44.3341C58.8741 44.3522 58.856 44.3522 58.8741 44.3522C58.7837 44.551 58.6933 44.768 58.5668 44.9487C58.5125 45.0391 58.4583 45.1295 58.386 45.2199C58.3679 45.238 58.3499 45.2561 58.3499 45.2741L58.3679 45.256C58.3318 45.2922 58.3318 45.2922 58.3499 45.2741C58.3137 45.3103 58.2956 45.3464 58.2595 45.3645C58.2052 45.4368 58.1329 45.4911 58.0787 45.5453C58.0787 45.5453 58.0425 45.5814 58.0245 45.5995C58.0425 45.5814 58.0606 45.5814 58.0245 45.5995C57.9883 45.6176 58.0064 45.6176 58.0245 45.5995C58.0064 45.6176 57.9522 45.6537 57.9522 45.6537C57.8799 45.708 57.8075 45.7441 57.7352 45.7803C57.7352 45.7803 57.7352 45.7803 57.7172 45.7803C57.6449 45.8164 57.8075 45.7622 57.7172 45.7803C57.6629 45.7984 57.6268 45.8164 57.5725 45.8345C57.4822 45.8526 57.4099 45.8707 57.3195 45.8887H57.3375C57.3375 45.8887 57.3195 45.8887 57.2833 45.8887C57.3014 45.8887 57.3014 45.8887 57.3195 45.8887C57.3014 45.8887 57.2833 45.8887 57.2652 45.8887C57.211 45.8887 57.1568 45.8887 57.1025 45.8887C56.9941 45.8887 56.9037 45.8887 56.8133 45.8707C56.7952 45.8707 56.7772 45.8707 56.7591 45.8707H56.7772C56.8495 45.8887 56.741 45.8707 56.741 45.8707H56.7591C56.7229 45.8707 56.6687 45.8526 56.6325 45.8526C56.5602 45.8345 56.506 45.8164 56.4337 45.7984C56.4518 45.8164 56.4518 45.8164 56.4337 45.7984C56.4156 45.7984 56.4156 45.7984 56.3975 45.7803C56.4156 45.7803 56.4156 45.7803 56.4337 45.7984C56.4337 45.7984 56.4156 45.7984 56.4156 45.7803C56.3795 45.7622 56.3433 45.7441 56.3072 45.7261C56.2168 45.6718 56.3614 45.7803 56.3072 45.7261C56.2891 45.708 56.2529 45.6899 56.2349 45.6537C56.2168 45.6357 56.1987 45.5995 56.1806 45.5814C56.1083 45.5091 56.2349 45.6718 56.1806 45.5814C56.1445 45.5272 56.1083 45.473 56.0722 45.4007C56.0541 45.3645 56.036 45.3464 56.0179 45.3103C55.9637 45.2018 56.036 45.4007 56.0179 45.3103C55.7829 44.6053 55.6383 43.8822 55.3491 43.2134C54.8429 42.0745 53.8487 41.3514 52.7099 40.9176C52.4206 40.8091 52.0591 41.0441 51.9868 41.3334C51.8964 41.6587 52.0952 41.948 52.4025 42.0564C52.9087 42.2553 53.3606 42.5264 53.7041 42.8699C53.7945 42.9603 53.8668 43.0326 53.9391 43.123L53.9572 43.141C53.9391 43.1049 53.9933 43.1772 53.9572 43.141C53.9572 43.141 53.9572 43.1591 53.9752 43.1591C54.0114 43.2134 54.0475 43.2676 54.0837 43.3218C54.1379 43.4122 54.1922 43.4845 54.2283 43.5749C54.2464 43.6291 54.2825 43.6653 54.3006 43.7195C54.3187 43.7376 54.3368 43.7737 54.3368 43.8099C54.3368 43.7918 54.3368 43.7918 54.3187 43.7737C54.3368 43.828 54.3368 43.828 54.3368 43.8099C54.6079 44.4968 54.6983 45.256 55.0237 45.9249C55.4033 46.7384 56.1987 47.0637 57.0664 47.0818C58.0425 47.0999 58.856 46.6118 59.4345 45.8345C60.2118 44.768 60.5191 43.358 60.7902 42.0926C60.8083 41.8034 60.6456 41.478 60.3383 41.3876Z" fill="#21223F"/>
<path d="M54.3008 43.792C54.3008 43.8101 54.3008 43.8101 54.3189 43.8281C54.3189 43.8462 54.3189 43.8462 54.3008 43.792Z" fill="#21223F"/>
<path d="M56.2883 45.7442C56.1979 45.6899 56.3425 45.7984 56.2883 45.7442V45.7442Z" fill="#21223F"/>
<path d="M56.1616 45.5995C56.0893 45.5452 56.2159 45.6899 56.1616 45.5995V45.5995Z" fill="#21223F"/>
<path d="M56.3621 40.3209C53.4698 41.1163 50.3967 41.1163 47.5224 40.2848C45.1001 39.5798 42.8405 38.2963 40.9967 36.579C39.9482 35.6209 39.0444 34.5182 38.2851 33.3252C37.8874 32.6744 36.8571 33.2709 37.2728 33.9217C38.719 36.2175 40.6894 38.1517 42.9851 39.5617C45.4978 41.0982 48.3721 41.9659 51.3186 42.0744C53.1263 42.1467 54.9521 41.9298 56.6874 41.4598C57.4105 41.2609 57.0851 40.1221 56.3621 40.3209Z" fill="#21223F"/>
</svg>
