<svg width="100" height="100" viewBox="0 0 100 100" fill="none" xmlns="http://www.w3.org/2000/svg">
<circle cx="50" cy="50" r="49.5" fill="white" stroke="#E5E7EB"/>
<path d="M60.8347 62.0205C56.7348 66.9134 46.9491 66.6039 44.6477 62.8134C39.0006 63.8577 35.1521 67.5322 33.0827 72.5798C32.5799 73.7982 39.9482 84.4542 53.4277 82.4429C63.4069 80.9537 69.0733 75.9062 70.4851 72.5991C69.2667 67.4162 65.979 63.6063 60.8347 62.0205Z" fill="white"/>
<path d="M63.5427 63.2393C62.7498 62.8719 61.9955 62.7559 61.9955 62.7559C60.0616 68.403 58.8819 75.5198 59.3074 81.0896L62.3823 79.8519C62.1502 75.5585 62.9625 68.7511 64.7611 64.4384C64.7417 64.4577 64.3163 63.6068 63.5427 63.2393Z" fill="#0148FF"/>
<path d="M40.1409 64.419C38.6904 68.3642 38.1103 73.8759 38.2456 78.9041C39.1933 79.581 40.2569 80.2385 41.4366 80.7994C40.9145 74.3594 41.2432 68.7123 43.4286 63.2393L40.1409 64.419Z" fill="#0148FF"/>
<path d="M60.0419 41.3083L58.8622 42.7008C57.5665 43.455 56.8703 40.7088 56.5995 38.3688C54.1821 39.3551 51.5133 39.8192 49.9081 39.239C45.6148 37.6725 47.9742 36.4155 48.2063 33.0118C48.535 28.1963 43.7002 27.9449 43.1974 30.6137C41.8436 28.1189 36.9894 29.6854 37.9177 36.2608C38.1111 37.6725 36.9121 39.7419 33.605 38.1173C33.1022 40.09 32.8701 50.2625 36.564 54.8072C40.8573 60.0869 46.9105 59.3326 46.9105 59.3326L46.9685 62.6203C46.9685 62.6203 46.0596 62.601 44.6671 62.8524C46.7945 66.3915 55.9807 67.8033 60.8542 62.0595C60.8542 62.0595 59.6551 61.5567 57.8953 61.4986C56.5222 55.2907 59.0363 49.8177 59.0556 49.779C61.2023 50.4752 63.7938 49.6049 64.9735 47.2455C66.656 41.3857 62.266 40.3801 60.0419 41.3083Z" fill="#FCC4B9"/>
<path d="M47.1035 62.4657C47.1035 62.4657 50.2172 60.0869 51.7256 57.7275C51.7256 57.7275 48.8248 59.0233 46.9102 59.178L47.1035 62.4657Z" fill="#21223F"/>
<path d="M50.6042 15.4133C36.2157 15.1618 29.7177 22.8009 30.3172 32.6059C30.5686 36.7832 33.1794 38.3304 35.5002 38.6978C36.9119 38.9106 38.111 37.6729 37.8982 36.2611C37.6275 34.2885 37.7629 31.9291 38.9426 30.7494C41.7468 27.9645 43.1779 30.614 43.1779 30.614C43.6807 27.9452 48.5155 28.1966 48.1868 33.0121C47.9547 36.4158 45.5953 37.6729 49.8886 39.2393C51.4938 39.8195 54.1626 39.3747 56.5801 38.3691C56.8508 40.7091 57.547 43.4553 58.8428 42.7011L60.0225 41.3087C60.0225 41.3087 61.8597 40.5351 63.6969 41.5214C65.5342 42.5077 65.4568 45.1378 65.4375 45.3312C65.4181 45.5246 64.8766 47.3232 64.8766 47.3232C73.1152 39.9162 72.0129 15.7807 50.6042 15.4133Z" fill="#3A3E77"/>
<path d="M64.5273 43.416C64.5273 43.4351 64.5464 43.4541 64.5464 43.4732C64.5464 43.4732 64.5464 43.4541 64.5273 43.416Z" fill="#21223F"/>
<path d="M64.1035 42.7012C64.1035 42.7205 64.1229 42.7205 64.1229 42.7399C64.1422 42.7399 64.1422 42.7399 64.1035 42.7012Z" fill="#21223F"/>
<path d="M63.638 42.2171C63.638 42.2365 63.638 42.2365 63.638 42.2171C63.5799 42.1784 63.7153 42.2945 63.638 42.2171Z" fill="#21223F"/>
<path d="M62.9629 41.8301C62.982 41.8301 62.982 41.8491 63.001 41.8491C63.0582 41.8682 62.9629 41.8491 62.9629 41.8301Z" fill="#21223F"/>
<path d="M59.6349 49.8945C59.3835 50.0492 59.1127 50.1846 58.8613 50.3393C58.8613 50.3393 58.8613 50.3393 58.8807 50.3393C59.2094 50.436 59.5189 50.2233 59.6349 49.8945Z" fill="#21223F"/>
<path d="M64.1019 41.0181C62.9416 40.2638 61.5105 40.2252 60.1954 40.5539C59.4025 40.7473 59.7312 41.9657 60.5242 41.7723C61.0657 41.6369 61.4524 41.5789 62.052 41.6369C62.11 41.6369 62.1487 41.6563 62.2067 41.6563C62.1874 41.6563 62.1873 41.6563 62.2454 41.6563C62.226 41.6563 62.226 41.6563 62.2067 41.6563C62.226 41.6563 62.2647 41.6756 62.284 41.6756C62.4001 41.695 62.5161 41.7336 62.6515 41.753C62.7675 41.7917 62.8642 41.8303 62.9609 41.8497C62.9416 41.8497 62.9416 41.8303 62.9222 41.8303C62.9222 41.8303 63.0189 41.869 62.9609 41.8497C62.9609 41.8497 62.9803 41.8497 62.9803 41.869C63.0383 41.8884 63.0769 41.927 63.135 41.9464C63.2317 42.0044 63.3284 42.0431 63.4057 42.1011C63.4444 42.1398 63.5024 42.1591 63.5411 42.1978C63.5604 42.1978 63.5604 42.2171 63.5798 42.2171C63.5218 42.1784 63.6765 42.2751 63.5991 42.2365C63.5991 42.2365 63.5798 42.2365 63.5798 42.2171C63.7345 42.3525 63.8892 42.5072 64.0246 42.6619C64.0439 42.6813 64.0633 42.7006 64.0633 42.72C64.0633 42.7006 64.0439 42.7006 64.0439 42.6813C64.0826 42.7393 64.0826 42.7393 64.0633 42.72C64.0826 42.7393 64.1019 42.778 64.1213 42.7973C64.1793 42.894 64.2373 42.9907 64.2953 43.0681C64.3533 43.1648 64.392 43.2421 64.4307 43.3388C64.4501 43.3581 64.4694 43.4355 64.4694 43.4355C64.4694 43.4162 64.4501 43.3968 64.4501 43.3775C64.4694 43.4355 64.4694 43.4355 64.4694 43.4355C64.4887 43.4742 64.4887 43.4935 64.5081 43.5322C64.5854 43.7449 64.6434 43.9577 64.6821 44.1704C64.7015 44.2284 64.7015 44.2671 64.7015 44.3251C64.7015 44.3445 64.7015 44.3638 64.7015 44.3831V44.3638C64.7015 44.3831 64.7015 44.4025 64.7015 44.4218C64.7015 44.4218 64.7015 44.4025 64.7015 44.3831C64.7208 44.4992 64.7208 44.5959 64.7208 44.7119C64.7401 44.944 64.7208 45.176 64.7015 45.3888C64.7015 45.4275 64.7015 45.4855 64.6821 45.5242V45.5048C64.6821 45.5048 64.6628 45.6209 64.6821 45.5435V45.5242C64.6821 45.5435 64.6821 45.5822 64.6628 45.6015C64.6434 45.7175 64.6241 45.8142 64.5854 45.9303C64.5274 46.1624 64.45 46.3944 64.3727 46.6072C64.3727 46.6265 64.3727 46.6265 64.3727 46.6265C64.3534 46.6652 64.392 46.5685 64.3727 46.6265C64.3727 46.6265 64.3727 46.6458 64.3534 46.6458C64.334 46.7039 64.2953 46.7619 64.276 46.8199C64.218 46.9359 64.16 47.052 64.1019 47.1487C64.0439 47.2454 63.9859 47.3421 63.9279 47.4388C63.8892 47.4968 63.8505 47.5548 63.8118 47.5935C63.8118 47.5935 63.8118 47.6128 63.7925 47.6128C63.8118 47.5935 63.8118 47.5935 63.7925 47.6128C63.7732 47.6321 63.7732 47.6515 63.7925 47.6128C63.7732 47.6321 63.7538 47.6515 63.7538 47.6708C63.5798 47.8642 63.4057 48.0576 63.2123 48.2317C62.0906 49.2567 60.4661 49.5274 59.0544 49.0826C58.7063 48.9666 58.3775 49.218 58.2808 49.5274C58.1648 49.8562 58.4162 50.2236 58.7256 50.301C58.7256 50.301 58.7256 50.301 58.7449 50.301C58.7449 50.301 58.7449 50.301 58.7256 50.301C58.977 50.1463 59.2478 50.0109 59.4992 49.8562C59.3831 50.1656 59.0737 50.3783 58.7449 50.301C60.3308 50.8038 62.168 50.5524 63.5411 49.5854C64.5661 48.8699 65.3203 47.8449 65.7071 46.6458C66.4807 44.6732 65.9392 42.2365 64.1019 41.0181Z" fill="#21223F"/>
<path d="M64.4902 46.6649C64.4902 46.7022 64.5275 46.6089 64.4902 46.6649V46.6649Z" fill="#21223F"/>
<path d="M63.909 47.6512C63.9283 47.6319 63.9283 47.6319 63.909 47.6512C63.8896 47.6899 63.909 47.6706 63.909 47.6512Z" fill="#21223F"/>
<path d="M51.9577 56.8382C50.0238 57.9405 47.8384 58.598 45.6337 58.6174C43.6611 58.6367 41.7078 58.1726 40.006 57.1476C38.3621 56.1613 37.1051 54.7302 36.2155 52.9896C35.2678 51.0944 34.707 48.909 34.3589 46.7817C33.9141 43.9968 33.8367 41.1153 34.1462 38.311C34.1848 37.9629 33.8367 37.6729 33.508 37.6729C33.1405 37.6729 32.9084 37.9629 32.8698 38.311C32.5797 40.9799 32.6377 43.668 33.0051 46.3369C33.3339 48.6769 33.8947 50.9977 34.8811 53.1443C35.7513 55.0589 37.0664 56.7028 38.8069 57.8825C40.5862 59.1009 42.7328 59.7584 44.8988 59.8551C47.587 59.9905 50.2558 59.2362 52.5766 57.9018C53.2921 57.5344 52.6539 56.432 51.9577 56.8382Z" fill="#21223F"/>
<path d="M49.4434 38.3302C48.0897 37.518 46.4458 37.692 45.034 38.2916C44.7246 38.4269 44.6473 38.8911 44.802 39.1618C45.0147 39.4713 45.3435 39.5293 45.6722 39.3939C45.5755 39.4326 45.7883 39.3552 45.8076 39.3359C45.885 39.3165 45.9623 39.2779 46.0397 39.2585C46.1751 39.2198 46.3104 39.1812 46.4652 39.1425C46.5425 39.1232 46.6199 39.1038 46.7166 39.0845C46.7552 39.0845 46.7939 39.0651 46.8326 39.0651C46.7939 39.0651 46.7939 39.0651 46.8519 39.0651C46.8519 39.0651 46.8519 39.0651 46.8326 39.0651H46.8519C46.9873 39.0458 47.142 39.0458 47.2774 39.0458C47.4128 39.0458 47.5675 39.0458 47.7029 39.0651C47.7222 39.0651 47.7609 39.0651 47.7802 39.0651C47.7609 39.0651 47.7802 39.0651 47.8189 39.0651C47.7996 39.0651 47.7996 39.0651 47.7802 39.0651C47.7802 39.0651 47.7996 39.0651 47.8382 39.0651C47.9156 39.0845 47.993 39.1038 48.0703 39.1232C48.2057 39.1618 48.3411 39.2005 48.4764 39.2585C48.5538 39.2779 48.5538 39.2972 48.4958 39.2585C48.5345 39.2779 48.5731 39.2972 48.6118 39.3165C48.6892 39.3552 48.7472 39.3939 48.8245 39.4326C49.1146 39.6066 49.5401 39.5099 49.6948 39.2005C49.8302 38.8911 49.7528 38.5043 49.4434 38.3302Z" fill="#21223F"/>
<path d="M37.0087 39.6447C36.9313 39.7027 37.086 39.5673 37.0087 39.6447V39.6447Z" fill="#21223F"/>
<path d="M37.8398 39.3159C37.8589 39.3159 37.878 39.2969 37.897 39.2969C37.9352 39.2969 37.8589 39.2969 37.8398 39.3159Z" fill="#21223F"/>
<path d="M39.3685 39.4902C39.2718 39.4515 39.3685 39.4902 39.3878 39.5095H39.4071C39.4071 39.5095 39.4071 39.5095 39.3685 39.4902Z" fill="#21223F"/>
<path d="M40.1231 38.4458C39.5235 38.1364 38.808 38.001 38.1311 38.0204C37.3769 38.059 36.6226 38.2524 36.0811 38.7746C35.8297 39.0067 35.8297 39.4515 36.0811 39.6642C36.3325 39.8963 36.7193 39.8963 36.9707 39.6642C36.9901 39.6449 37.0094 39.6255 37.0288 39.6062C36.9321 39.6642 37.0868 39.5288 37.0481 39.5869C37.1061 39.5482 37.1448 39.5095 37.2028 39.4902C37.2415 39.4708 37.2608 39.4515 37.2995 39.4515C37.3189 39.4515 37.3189 39.4321 37.3382 39.4321C37.3769 39.4128 37.3575 39.4128 37.2802 39.4515C37.2995 39.4128 37.4349 39.3935 37.4736 39.3741C37.6089 39.3354 37.7443 39.2968 37.8797 39.2774C37.899 39.2774 37.9184 39.2774 37.9184 39.2774C37.899 39.2774 37.8797 39.2774 37.8604 39.2968C37.8797 39.2774 37.9571 39.2774 37.9184 39.2774C37.9377 39.2774 37.9571 39.2774 37.9764 39.2774C38.0537 39.2774 38.1311 39.2581 38.1891 39.2581C38.3245 39.2581 38.4599 39.2581 38.6146 39.2774C38.6533 39.2774 38.692 39.2774 38.7306 39.2968C38.7693 39.2968 38.7886 39.2968 38.7886 39.2968C38.7693 39.2968 38.75 39.2968 38.7306 39.2968C38.7306 39.2968 38.7306 39.2968 38.7113 39.2968C38.7113 39.2968 38.7113 39.2968 38.7306 39.2968C38.75 39.2968 38.7886 39.2968 38.7886 39.2968C38.8467 39.3161 38.9047 39.3161 38.924 39.3161C39.0594 39.3354 39.1754 39.3741 39.3108 39.4128C39.3302 39.4128 39.3495 39.4321 39.3882 39.4321C39.4075 39.4321 39.4655 39.4708 39.4462 39.4515H39.4268C39.4075 39.4321 39.3108 39.3935 39.4075 39.4321C39.4268 39.4515 39.4462 39.4515 39.4462 39.4515C39.4655 39.4708 39.5042 39.4708 39.5235 39.4902C39.8136 39.6449 40.2198 39.5675 40.3938 39.2581C40.5098 39.026 40.4325 38.6199 40.1231 38.4458Z" fill="#21223F"/>
<path d="M46.8881 45.6776C47.5607 45.6564 48.0809 44.8431 48.05 43.861C48.0191 42.8788 47.4489 42.0998 46.7764 42.1209C46.1038 42.142 45.5836 42.9554 45.6145 43.9375C45.6453 44.9197 46.2156 45.6987 46.8881 45.6776Z" fill="#21223F"/>
<path d="M38.5912 45.9295C39.2638 45.9084 39.784 45.0951 39.7531 44.1129C39.7223 43.1308 39.1521 42.3517 38.4795 42.3729C37.8069 42.394 37.2867 43.2073 37.3176 44.1895C37.3484 45.1716 37.9187 45.9507 38.5912 45.9295Z" fill="#21223F"/>
<path d="M62.1302 43.4355C61.6467 43.4742 61.2406 43.803 60.8924 44.1317C60.2156 44.7893 59.7321 45.6015 59.4033 46.4911C59.3066 46.7425 59.6547 47.0133 59.8674 46.8392C60.3703 46.4718 61.1438 46.5491 61.5113 47.0713C61.608 47.2067 61.7821 47.284 61.9368 47.1873C62.0721 47.11 62.1495 46.8973 62.0528 46.7619C61.666 46.201 60.9505 45.911 60.2736 46.0076C60.1576 46.2204 60.0802 46.4331 60.0028 46.6652C59.8481 46.5491 59.6934 46.4331 59.5387 46.3171C59.7708 46.1624 60.0222 46.0657 60.2736 46.027C60.5057 45.5822 60.7957 45.1567 61.1245 44.7893C61.3566 44.5379 61.608 44.2478 61.9368 44.1317C62.1688 44.0544 62.4589 44.0737 62.5943 44.3058C62.7684 44.6732 63.3292 44.3445 63.1358 43.9964C62.9811 43.5902 62.5363 43.3968 62.1302 43.4355Z" fill="#21223F"/>
<path d="M60.0227 46.6653C60.1001 46.4333 60.1968 46.2205 60.2935 46.0078C60.0227 46.0465 59.7713 46.1432 59.5586 46.2979C59.7133 46.4333 59.868 46.5493 60.0227 46.6653Z" fill="#21223F"/>
<path d="M51.8119 50.7835C53.0183 50.7456 53.9742 50.0139 53.947 49.1492C53.9198 48.2844 52.9199 47.6142 51.7135 47.6521C50.5072 47.69 49.5513 48.4217 49.5785 49.2864C49.6057 50.1511 50.6056 50.8214 51.8119 50.7835Z" fill="#E18F81"/>
<path d="M40.6061 50.4556C40.4127 51.2098 40.7415 52.0608 41.3603 52.5249C41.9985 52.9697 42.9075 52.989 43.565 52.5636C44.2225 52.1381 44.532 51.2485 44.3192 50.5136C43.1395 50.2235 41.8051 50.2815 40.6061 50.4556Z" fill="#21223F"/>
<path d="M40.8379 51.9067C40.9733 52.1388 41.1473 52.3516 41.3794 52.5063C42.0176 52.9511 42.9265 52.9704 43.5841 52.5449C43.8355 52.3709 44.0289 52.1388 44.1643 51.8874C43.4294 51.5973 42.211 51.3459 40.8379 51.9067Z" fill="#F96464"/>
<path d="M40.4688 50.1658C40.4881 50.1658 40.4881 50.1465 40.5074 50.1465C40.5074 50.1465 40.4881 50.1465 40.4688 50.1658Z" fill="#21223F"/>
<path d="M44.3956 50.1852C43.1386 49.9145 41.8235 49.9725 40.5664 50.1466C40.7598 50.1272 40.9726 50.3013 40.9145 50.5334C40.8952 50.5914 40.8952 50.6687 40.8759 50.7267C41.9202 50.5914 43.0032 50.5527 44.0475 50.7654C44.0475 50.7074 44.0282 50.6494 44.0088 50.572C44.0862 50.6494 44.1635 50.7267 44.2216 50.7848C44.1635 50.7654 44.1055 50.7654 44.0475 50.7461C44.1055 51.1522 43.9895 51.597 43.7381 51.9258C43.448 52.3319 42.9645 52.5446 42.4617 52.5253C41.4947 52.506 40.7792 51.6357 40.8759 50.7074C40.8178 50.7074 40.7405 50.7267 40.6825 50.7267C40.5084 50.7461 40.3344 50.6881 40.2957 50.514C40.257 50.3786 40.3343 50.2046 40.4504 50.1466C40.373 50.1852 40.315 50.2433 40.2957 50.34C40.0636 51.3649 40.5471 52.5253 41.5334 52.9508C42.5584 53.3956 43.7768 53.0668 44.3569 52.0998C44.6664 51.5777 44.7631 50.9588 44.6083 50.3786C44.589 50.3013 44.4923 50.2046 44.3956 50.1852Z" fill="#21223F"/>
<path d="M40.2951 50.5329C40.3531 50.707 40.5078 50.7844 40.6819 50.7457C40.7399 50.7457 40.8173 50.7263 40.8753 50.7263C40.8753 50.6683 40.8946 50.591 40.914 50.5329C40.972 50.2815 40.7593 50.1268 40.5659 50.1462H40.5465H40.5272C40.5078 50.1462 40.5078 50.1462 40.4885 50.1655H40.4692C40.3338 50.2235 40.2564 50.3976 40.2951 50.5329Z" fill="#21223F"/>
<path d="M44.0098 50.5723C44.0291 50.6303 44.0291 50.6883 44.0484 50.7657C44.1065 50.785 44.1645 50.785 44.2225 50.8043C44.1645 50.727 44.0871 50.6496 44.0098 50.5723Z" fill="#21223F"/>
<path d="M42.5013 80.5675C42.4626 80.5482 42.598 80.6062 42.5013 80.5675V80.5675Z" fill="#21223F"/>
<path d="M38.1303 77.9949L38.1109 77.9756C38.0723 77.9756 38.0723 77.9756 38.1303 77.9949Z" fill="#21223F"/>
<path d="M34.882 74.8231C34.824 74.7458 34.94 74.9005 34.882 74.8231V74.8231Z" fill="#21223F"/>
<path d="M65.0498 64.8438C65.0125 64.8065 65.0871 64.8811 65.0498 64.8438V64.8438Z" fill="#21223F"/>
<path d="M57.875 60.8213C58.0877 60.976 58.2811 61.1307 58.4938 61.2854C58.4552 61.1501 58.4358 61.0147 58.4165 60.86C58.3391 60.86 58.2618 60.8406 58.1844 60.8406C58.0684 60.8406 57.9717 60.8213 57.875 60.8213Z" fill="#21223F"/>
<path d="M59.5382 50.1074C59.4802 50.2622 59.5963 49.9721 59.5382 50.1074V50.1074Z" fill="#21223F"/>
<path d="M67.293 67.0879C67.293 67.1072 67.3123 67.1072 67.3123 67.1266C67.293 67.1072 67.293 67.0879 67.293 67.0879Z" fill="#21223F"/>
<path d="M69.9617 72.3096C69.9231 72.4063 69.8844 72.4836 69.8457 72.561C69.865 72.6383 69.8844 72.7157 69.9037 72.7931C69.9037 72.619 69.9231 72.4643 69.9617 72.3096Z" fill="#21223F"/>
<path d="M65.9403 76.9309C65.9403 76.9503 65.9403 76.9503 65.9403 76.9309C65.8629 77.0083 66.0177 76.8729 65.9403 76.9309Z" fill="#21223F"/>
<path d="M46.9488 61.9629C46.736 61.9629 46.5233 61.9629 46.3105 61.9822C46.3105 62.195 46.3106 62.3884 46.3299 62.6011C46.5233 62.3884 46.736 62.1756 46.9488 61.9629Z" fill="#21223F"/>
<path d="M41.6687 64.3794C41.6877 64.3794 41.7068 64.3604 41.7068 64.3604C41.7068 64.3604 41.6115 64.3985 41.6687 64.3794Z" fill="#21223F"/>
<path d="M33.7012 72.7158C33.7012 72.7545 33.7012 72.7738 33.7012 72.7932C33.7012 72.7932 33.7012 72.7738 33.7205 72.7738C33.7012 72.7352 33.7012 72.7352 33.7012 72.7158Z" fill="#21223F"/>
<path d="M38.498 66.236C38.5354 66.1987 38.5354 66.1987 38.498 66.236V66.236Z" fill="#21223F"/>
<path d="M70.3307 69.9697C69.0543 66.7787 66.7722 64.1099 63.7166 62.5047C62.0728 61.6538 60.2549 61.0736 58.4176 60.8802C58.437 61.0156 58.4756 61.151 58.495 61.3057C58.2823 61.151 58.0889 60.9962 57.8761 60.8415C57.9728 60.8415 58.0695 60.8609 58.1662 60.8609C58.2436 60.8609 58.3209 60.8802 58.3983 60.8802C57.7408 57.4765 58.1469 53.918 59.3266 50.669C59.4039 50.4756 59.462 50.3016 59.5393 50.1082C59.4813 50.2436 59.5973 49.9728 59.5393 50.1082C59.5393 50.0888 59.5587 50.0695 59.5587 50.0502C59.694 49.7407 59.6554 49.3733 59.3266 49.1799C59.0558 49.0252 58.611 49.1025 58.4563 49.412C58.1082 50.1855 57.8374 50.9785 57.6247 51.7907C57.1026 53.6473 56.8318 55.5812 56.8125 57.5152C56.8125 58.8883 56.9478 60.2807 57.2379 61.6151C57.2959 61.8858 57.586 62.0792 57.8568 62.0792C57.9535 62.0792 58.0308 62.0986 58.1275 62.0986C58.2242 62.0986 58.3403 62.1179 58.437 62.1373C58.4756 62.1373 58.5917 62.1566 58.611 62.1759C58.611 62.1759 58.5723 62.1759 58.495 62.1566C58.5723 62.1759 58.6497 62.1759 58.7464 62.1953C59.5973 62.3307 60.4289 62.5434 61.2412 62.8141C61.4926 62.9108 61.744 62.9882 61.9954 63.1042C62.0341 63.1236 62.2468 63.2203 62.0728 63.1429C62.1308 63.1623 62.2081 63.2009 62.2662 63.2203C62.4015 63.2783 62.5369 63.3556 62.6916 63.4137C63.2525 63.6844 63.8133 63.9938 64.3355 64.3613C64.4709 64.458 64.6062 64.5547 64.7416 64.6514C64.819 64.7094 64.877 64.7481 64.9543 64.8061C64.9737 64.8254 65.0124 64.8448 65.0317 64.8641L65.051 64.8835C65.0124 64.8448 65.0897 64.9221 65.051 64.8835C65.051 64.8835 65.0704 64.9028 65.0897 64.9028C65.3798 65.1349 65.6506 65.3669 65.902 65.599C66.1727 65.8504 66.4241 66.1212 66.6755 66.3919C66.8109 66.5273 66.927 66.682 67.043 66.8174C67.101 66.8947 67.159 66.9721 67.217 67.0495C67.2364 67.0688 67.2557 67.0881 67.2751 67.1075C67.2751 67.1075 67.2751 67.1075 67.2944 67.1462C67.2944 67.1268 67.2751 67.1268 67.2751 67.1075C67.2751 67.1075 67.3524 67.2042 67.3524 67.2235C68.5708 68.848 69.325 70.6272 69.8085 72.5805C69.8472 72.5032 69.8859 72.4065 69.9245 72.3291C69.9052 72.4838 69.8859 72.6579 69.8665 72.8126C69.8472 72.7352 69.8278 72.6579 69.8085 72.5805C69.5764 73.064 69.2477 73.5088 68.9382 73.9343C68.8996 73.9923 68.8415 74.0503 68.8029 74.1083C68.9189 73.9343 68.7835 74.1277 68.7255 74.1857C68.6095 74.3211 68.4934 74.4564 68.3774 74.5918C68.126 74.9012 67.8359 75.1913 67.5651 75.4621C67.2364 75.7908 66.9076 76.1003 66.5595 76.3904C66.3661 76.5451 66.1727 76.7191 65.9793 76.8545C65.96 76.8739 65.9406 76.8932 65.902 76.9125C65.9793 76.8545 65.8246 76.9705 65.8826 76.9125C65.8246 76.9512 65.7859 76.9899 65.7279 77.0286C65.6119 77.1059 65.4958 77.2026 65.3798 77.28C63.1171 78.9045 60.6803 79.9875 58.0502 80.7611C54.7432 81.7474 51.2621 82.3082 47.8003 81.9214C47.1234 81.8441 46.4079 81.728 45.673 81.554C44.9768 81.3993 44.2999 81.2059 43.623 80.9738C43.3136 80.8578 42.9848 80.7417 42.6754 80.6257C42.598 80.587 42.5207 80.5677 42.4433 80.529H42.424C42.3853 80.5097 42.5013 80.5677 42.424 80.529C42.3853 80.5097 42.3466 80.4903 42.308 80.471C42.1532 80.3936 41.9985 80.3356 41.8438 80.2582C41.283 79.9875 40.7221 79.6974 40.1806 79.388C39.6585 79.0785 39.1363 78.7498 38.6335 78.4017C38.5174 78.3243 38.4207 78.2469 38.3047 78.1696C38.2467 78.1309 38.1887 78.0922 38.1306 78.0342C38.1113 78.0149 38.034 77.9569 38.0146 77.9375L38.034 77.9569C37.9953 77.9182 37.9953 77.9182 38.0146 77.9375C37.8019 77.7828 37.6085 77.6087 37.3958 77.4347C36.6415 76.7965 35.9453 76.1196 35.3071 75.3847C35.1717 75.23 35.0363 75.0753 34.901 74.9012C34.8623 74.8626 34.843 74.8239 34.8043 74.7852L34.7849 74.7659C34.7076 74.6885 34.843 74.8432 34.7849 74.7659C34.7269 74.6885 34.6689 74.6111 34.6109 74.5338C34.4175 74.263 34.2241 73.973 34.05 73.6829C33.934 73.4895 33.8373 73.2767 33.7213 73.064C33.7406 73.0833 33.7019 73.0447 33.6826 73.006C33.6826 73.006 33.6826 72.9866 33.6633 72.9866C33.6439 72.948 33.6246 72.8899 33.6052 72.8513C33.5859 72.8126 33.5859 72.7546 33.5859 72.7159C33.5859 72.7159 33.5859 72.7352 33.5666 72.7352C33.5666 72.7546 33.5472 72.7546 33.5472 72.7546C33.5472 72.7546 33.5666 72.6966 33.5666 72.6579C33.5666 72.6579 33.5666 72.6579 33.5666 72.6385C33.5666 72.6192 33.5666 72.6192 33.5472 72.5999C33.5472 72.6192 33.5472 72.6192 33.5666 72.6385C33.5666 72.6192 33.5666 72.6192 33.5666 72.6385C33.5666 72.6579 33.5666 72.6772 33.5859 72.6966C33.6052 72.6385 33.6246 72.5612 33.6246 72.5418C33.7019 72.3678 33.7793 72.1744 33.876 71.981C34.2241 71.2461 34.6109 70.5112 35.0364 69.8343C35.7906 68.6546 36.6415 67.6296 37.7245 66.682C37.8406 66.5853 37.9566 66.4886 38.0533 66.3919C38.1113 66.3339 38.1693 66.2952 38.2273 66.2372C38.266 66.2179 38.2854 66.1985 38.324 66.1598C38.324 66.1598 38.3627 66.1405 38.3821 66.1212C38.3821 66.1212 38.3627 66.1212 38.3627 66.1405C38.4207 66.1018 38.4014 66.1018 38.3821 66.1212C38.6141 65.9471 38.8462 65.7731 39.0976 65.599C39.5811 65.2702 40.0646 64.9801 40.5867 64.7287C40.8382 64.6127 41.0702 64.4773 41.3216 64.3806C41.3797 64.3613 41.4377 64.3226 41.4957 64.3033C41.515 64.3033 41.5344 64.2839 41.5537 64.2839C41.4957 64.3033 41.5924 64.2646 41.5924 64.2646C41.5731 64.2646 41.5731 64.2839 41.5537 64.2839C41.6698 64.2259 41.8051 64.1872 41.9212 64.1292C42.366 63.9552 42.8108 63.8004 43.2749 63.6844C43.681 63.5684 44.0872 63.4717 44.4933 63.3943C44.6674 63.3556 44.8414 63.3363 45.0155 63.2976C45.0928 63.2783 45.1895 63.2783 45.2669 63.2589C45.3056 63.2589 45.3249 63.2589 45.3636 63.2396C45.2282 63.2589 45.4796 63.2203 45.3829 63.2396H45.3636C45.3636 63.2396 45.3636 63.2396 45.3829 63.2396C45.8084 63.1816 46.2338 63.1429 46.6593 63.1429C46.7173 63.1429 46.7753 63.1429 46.8334 63.1429C47.1621 63.1623 47.4716 62.8528 47.4716 62.5047C47.4522 61.4024 47.4329 60.3194 47.4135 59.217C47.3942 58.4048 46.1371 58.4048 46.1565 59.217C46.1758 60.1066 46.1952 60.9962 46.2145 61.8859C46.4272 61.8665 46.64 61.8665 46.8527 61.8665C46.64 62.0792 46.4272 62.292 46.2145 62.5047C46.2145 62.292 46.2145 62.0986 46.1952 61.8859C46.0018 61.9052 45.8084 61.9245 45.615 61.9439C44.5513 62.0599 43.507 62.2726 42.482 62.6014C39.2717 63.6264 36.4868 65.6377 34.5142 68.3645C33.876 69.2348 33.3345 70.1631 32.8703 71.1494C32.5996 71.7102 32.2322 72.2904 32.3482 72.948C32.4836 73.6442 32.9284 74.3017 33.3152 74.8626C34.8816 77.1253 37.067 79.0012 39.4457 80.3936C42.8688 82.4049 46.814 83.3719 50.7592 83.2365C53.196 83.1591 55.6521 82.6757 57.9922 82.0181C59.9648 81.4573 61.8987 80.703 63.6973 79.7167C66.0373 78.4403 68.184 76.7578 69.8085 74.6111C70.176 74.1277 70.5047 73.6442 70.7948 73.1027C70.8335 73.0253 70.8915 72.9286 70.9302 72.8319C71.1236 72.3871 70.8722 71.8069 70.7368 71.3621C70.6981 70.956 70.5241 70.4532 70.3307 69.9697Z" fill="#21223F"/>
<path d="M45.4785 63.3357H45.4979C45.5946 63.3163 45.3431 63.355 45.4785 63.3357Z" fill="#21223F"/>
<path d="M33.6816 72.6963C33.7007 72.7154 33.7007 72.7154 33.6816 72.6963V72.6963Z" fill="#21223F"/>
<path d="M33.701 72.7352C33.701 72.7158 33.701 72.7158 33.701 72.7158C33.701 72.7545 33.6816 72.8125 33.6816 72.8125L33.701 72.7932C33.6816 72.7932 33.6816 72.7738 33.701 72.7352Z" fill="#21223F"/>
<path d="M47.2004 43.1459C46.9684 43.1652 46.775 43.3779 46.7943 43.61C46.8136 43.8421 47.0264 44.0355 47.2585 44.0161C47.4905 43.9968 47.6839 43.7841 47.6646 43.552C47.6452 43.3199 47.4325 43.1265 47.2004 43.1459Z" fill="white"/>
<path d="M38.9036 43.3773C38.6715 43.3967 38.4781 43.6094 38.4974 43.8415C38.5168 44.0735 38.7295 44.2669 38.9616 44.2476C39.1936 44.2282 39.387 44.0155 39.3677 43.7834C39.3484 43.5514 39.155 43.358 38.9036 43.3773Z" fill="white"/>
<path d="M42.4611 30.3617C42.423 30.2664 42.5374 30.438 42.4611 30.3617V30.3617Z" fill="#21223F"/>
<path d="M42.5587 30.5938C42.5396 30.4794 42.5968 30.6891 42.5587 30.5938V30.5938Z" fill="#21223F"/>
<path d="M37.2793 36.7246V36.744C37.2986 36.7053 37.2986 36.7053 37.2793 36.7246Z" fill="#21223F"/>
<path d="M34.1654 37.6727C34.1461 37.6727 34.1461 37.6533 34.1267 37.6533C34.1074 37.6533 34.1267 37.6533 34.1654 37.6727Z" fill="#21223F"/>
<path d="M42.2871 30.208L42.3065 30.2273C42.3065 30.2273 42.3258 30.2273 42.3258 30.2467C42.3258 30.2273 42.3064 30.2273 42.2871 30.208Z" fill="#21223F"/>
<path d="M40.6063 30.1884C40.529 30.2078 40.6837 30.1497 40.6063 30.1884V30.1884Z" fill="#21223F"/>
<path d="M41.2049 30.0137C41.2243 30.0137 41.2243 30.0137 41.2436 30.0137C41.1856 30.033 41.1856 30.033 41.2049 30.0137Z" fill="#21223F"/>
<path d="M42.0566 30.0918C42.076 30.0918 42.0953 30.1111 42.0953 30.1111C42.1147 30.1111 42.0953 30.1111 42.0566 30.0918Z" fill="#21223F"/>
<path d="M33.0048 37.0148C32.9274 36.9568 33.0821 37.0728 33.0048 37.0148V37.0148Z" fill="#21223F"/>
<path d="M68.4542 25.6821C67.2938 23.0519 65.534 20.6925 63.2906 18.9133C60.6605 16.844 57.5081 15.5869 54.2204 15.0841C52.0544 14.7554 49.8691 14.6973 47.6837 14.8327C45.5177 14.9681 43.3324 15.2969 41.2631 15.9544C37.8787 16.9987 34.8037 18.894 32.6571 21.7369C30.6844 24.3477 29.7562 27.5967 29.6595 30.8457C29.6014 32.8763 29.7948 35.0617 31.0326 36.7442C32.0575 38.1366 33.6047 39.0262 35.3066 39.2777C36.4863 39.4517 37.6466 38.9682 38.2268 37.9046C38.4975 37.4017 38.6136 36.8022 38.5556 36.2414C38.4782 35.6032 38.4395 34.9843 38.4782 34.3461C38.5362 33.2244 38.7876 32.0834 39.4258 31.1745C39.6966 30.807 40.0254 30.4976 40.4508 30.2849C40.4895 30.2655 40.5475 30.2268 40.6055 30.2075C40.6249 30.2075 40.6442 30.1882 40.6442 30.1882C40.5669 30.2268 40.7216 30.1495 40.6442 30.1882C40.6636 30.1882 40.6636 30.1882 40.6829 30.1688C40.7796 30.1301 40.8763 30.0915 40.973 30.0721C41.0503 30.0528 41.147 30.0334 41.2244 30.0141C41.2051 30.0141 41.2051 30.0141 41.2631 30.0141C41.2437 30.0141 41.2437 30.0141 41.2244 30.0141C41.2437 30.0141 41.3211 29.9948 41.3211 29.9948C41.3791 29.9948 41.4565 29.9948 41.5145 29.9948C41.5918 29.9948 41.6885 29.9948 41.7659 30.0141C41.7659 30.0141 41.7659 30.0141 41.8046 30.0141C41.7852 30.0141 41.7659 30.0141 41.7659 30.0141C41.7852 30.0141 41.9206 30.0528 41.94 30.0528C41.9786 30.0528 42.114 30.1108 42.114 30.1108C42.0947 30.1108 42.0753 30.0915 42.0753 30.0915C42.114 30.1108 42.1333 30.1108 42.114 30.1108C42.172 30.1495 42.23 30.1688 42.2881 30.2075C42.2881 30.2075 42.3074 30.2268 42.3267 30.2268L42.3074 30.2075C42.3267 30.2268 42.3461 30.2462 42.3461 30.2462C42.3654 30.2655 42.3654 30.2655 42.3461 30.2462C42.3461 30.2462 42.3461 30.2462 42.3267 30.2268C42.3461 30.2462 42.3848 30.2655 42.4041 30.2849C42.4234 30.3042 42.4428 30.3235 42.4621 30.3429C42.4234 30.2462 42.5395 30.4202 42.4621 30.3429C42.4621 30.3429 42.4621 30.3429 42.4621 30.3622C42.4815 30.4202 42.5588 30.6136 42.5201 30.4396C42.5395 30.4783 42.5395 30.5363 42.5588 30.5749C42.5588 30.5749 42.5588 30.5749 42.5588 30.5943C42.5395 30.4782 42.5975 30.691 42.5588 30.5943C42.5975 30.9424 42.8296 31.2325 43.197 31.2325C43.5064 31.2325 43.8545 30.9424 43.8352 30.5943C43.7385 29.6853 43.1003 29.0085 42.2107 28.8151C41.2631 28.6023 40.2381 28.8537 39.4645 29.3952C37.4339 30.8264 37.0084 33.6886 37.2598 35.99C37.2985 36.2414 37.3372 36.4541 37.2985 36.7249C37.2985 36.7055 37.2985 36.7055 37.2985 36.7442V36.7249C37.2985 36.7442 37.2792 36.8022 37.2792 36.8216C37.2598 36.8796 37.2598 36.9376 37.2405 36.9956C37.2018 37.1697 37.2018 37.1503 37.1244 37.2857C36.9311 37.6532 36.6023 37.9239 36.2348 38.0206C36.0028 38.098 35.9061 38.098 35.6353 38.0786C35.674 38.0786 35.4999 38.0593 35.4613 38.0593C35.3646 38.0399 35.2679 38.0206 35.1518 38.0013C34.9584 37.9626 34.7844 37.9046 34.591 37.8465C34.5136 37.8272 34.4169 37.7885 34.3396 37.7692C34.3009 37.7498 34.2816 37.7498 34.2429 37.7305C34.2236 37.7305 34.1269 37.6918 34.1075 37.6725C34.1269 37.6725 34.1269 37.6918 34.1462 37.6918C34.1075 37.6725 34.0882 37.6725 34.1075 37.6725C33.7787 37.5178 33.45 37.3437 33.1405 37.131C33.1019 37.0923 33.0438 37.073 33.0052 37.0343C32.9858 37.0343 32.9858 37.015 32.9858 37.015C32.9085 36.9569 33.0632 37.073 32.9858 37.015C32.9085 36.9569 32.8311 36.8796 32.7538 36.8216C32.599 36.6862 32.4443 36.5315 32.309 36.3768C32.1349 36.1834 32.1349 36.164 31.9995 35.9706C31.8641 35.7772 31.7481 35.5838 31.6321 35.3711C31.4193 34.9456 31.2646 34.5202 31.1292 33.998C30.8972 33.0697 30.8778 32.1028 30.8972 31.1551C30.8972 30.749 30.9165 30.3429 30.9552 29.9367C30.9745 29.7434 30.9939 29.55 31.0132 29.3566C31.0326 29.2599 31.0326 29.1632 31.0519 29.0858V29.0665C31.0326 29.1825 31.0712 28.9504 31.0519 29.0665C31.0519 29.0665 31.0519 29.0471 31.0519 29.0278C31.0519 28.9698 31.0712 28.9118 31.0712 28.8537C31.1873 28.0802 31.3613 27.3066 31.5934 26.5717C31.7094 26.2043 31.8448 25.8175 31.9802 25.45C31.9995 25.4113 32.0575 25.276 32.0575 25.276C32.0575 25.2953 32.0382 25.2953 32.0382 25.3146C32.0575 25.276 32.0575 25.276 32.0575 25.276C32.0962 25.1986 32.1156 25.1406 32.1542 25.0632C32.2316 24.8892 32.309 24.7151 32.4057 24.5411C32.7538 23.8642 33.1405 23.2067 33.5853 22.5878C33.6434 22.5104 33.7014 22.4331 33.7594 22.3557C33.7594 22.3557 33.7594 22.3557 33.7594 22.3364C33.682 22.4331 33.7981 22.2977 33.7594 22.3364C33.7594 22.3364 33.7594 22.3364 33.7594 22.317C33.7981 22.2784 33.8174 22.2397 33.8561 22.1817C33.9721 22.027 34.1075 21.8722 34.2429 21.7369C34.4943 21.4468 34.765 21.176 35.0358 20.9053C35.3259 20.6152 35.6353 20.3444 35.9448 20.093C36.0221 20.035 36.0995 19.977 36.1575 19.919C36.1768 19.919 36.1768 19.8996 36.1768 19.8996C36.0995 19.9576 36.2542 19.8416 36.1768 19.8996L36.1962 19.8803C36.2348 19.8609 36.2542 19.8416 36.2929 19.8029C36.4669 19.6869 36.6216 19.5515 36.7957 19.4355C37.5112 18.952 38.2655 18.5265 39.039 18.1397C39.4839 17.927 39.7546 17.811 40.1801 17.6369C40.6249 17.4629 41.0503 17.3081 41.5145 17.1728C42.4815 16.8633 43.4678 16.6313 44.4541 16.4572C46.6007 16.0704 48.8828 15.9544 51.1068 16.0318C54.4332 16.1478 57.7789 16.9407 60.6411 18.6232C60.9699 18.8166 61.2793 19.0294 61.6081 19.2421C61.7434 19.3388 61.8788 19.4355 62.0335 19.5322C62.1109 19.5902 62.1689 19.6289 62.2463 19.6869C62.2656 19.7062 62.3236 19.7449 62.3236 19.7449C62.3043 19.7256 62.2849 19.7256 62.2849 19.7062C62.3236 19.7256 62.3236 19.7449 62.3236 19.7449C62.343 19.7642 62.3623 19.7836 62.401 19.8029C62.9618 20.2477 63.484 20.7312 63.9868 21.234C64.2382 21.4854 64.4703 21.7562 64.7024 22.027C64.7991 22.143 64.9151 22.2784 65.0118 22.3944C65.0698 22.4524 65.1085 22.5298 65.1665 22.5878C65.1665 22.5878 65.1665 22.5878 65.1665 22.6071C65.1085 22.5298 65.2439 22.7038 65.1665 22.6071C65.1665 22.6071 65.1665 22.6071 65.1858 22.6265C65.2052 22.6651 65.2439 22.7038 65.2825 22.7425C65.6887 23.3033 66.0755 23.8642 66.4236 24.4637C66.7717 25.0632 67.0811 25.6628 67.3519 26.3009C67.3712 26.3396 67.3905 26.3976 67.4099 26.4363C67.4099 26.4363 67.4292 26.475 67.4292 26.4943C67.4099 26.4363 67.4099 26.4557 67.4292 26.4943C67.4486 26.533 67.4486 26.5524 67.4292 26.4943C67.4486 26.5137 67.4486 26.5524 67.4486 26.5524C67.4679 26.591 67.4872 26.6491 67.5066 26.6877C67.5646 26.8425 67.6419 27.0165 67.7 27.1712C67.816 27.4806 67.932 27.8094 68.0287 28.1382C68.2415 28.7764 68.3962 29.4339 68.5509 30.1108C68.6283 30.4396 68.6863 30.7683 68.7443 31.1165C68.7636 31.2712 68.8023 31.4259 68.8217 31.5806C68.8217 31.5999 68.841 31.658 68.841 31.6773C68.841 31.658 68.841 31.6386 68.841 31.5999C68.8603 31.6773 68.8603 31.6966 68.841 31.6773C68.841 31.6966 68.841 31.716 68.841 31.716C68.8603 31.8127 68.8603 31.9094 68.8797 32.0254C69.0344 33.3405 69.0537 34.6942 68.9764 36.0093C68.957 36.3187 68.9377 36.6475 68.899 36.9569C68.8797 37.131 68.8603 37.2857 68.841 37.4598C68.841 37.4598 68.841 37.4791 68.8217 37.5371C68.8217 37.5178 68.8217 37.4791 68.841 37.4598C68.841 37.4598 68.8217 37.5371 68.8217 37.5565C68.8023 37.6532 68.8023 37.7305 68.783 37.8272C68.6863 38.4654 68.5702 39.0843 68.4155 39.7031C68.2608 40.3026 68.0868 40.9022 67.8934 41.4823C67.7967 41.7724 67.6806 42.0432 67.5646 42.3333C67.5453 42.372 67.5453 42.3913 67.5259 42.43C67.4679 42.5653 67.5839 42.3139 67.5259 42.43C67.5066 42.488 67.4679 42.5653 67.4486 42.6234C67.3905 42.7587 67.3325 42.8941 67.2552 43.0295C67.0038 43.5517 66.733 44.0545 66.4236 44.538C66.2689 44.77 66.1141 45.0214 65.9401 45.2535C65.8821 45.3309 65.8241 45.4276 65.7467 45.5049C65.766 45.4856 65.766 45.4856 65.708 45.5629C65.7274 45.5436 65.7274 45.5243 65.7467 45.5049C65.7274 45.5243 65.6887 45.5823 65.6693 45.6016C65.6306 45.6596 65.5726 45.7177 65.534 45.7757C65.2052 46.1818 64.8571 46.5493 64.4703 46.8974C64.2189 47.1294 64.2382 47.5549 64.4703 47.787C64.7217 48.0384 65.1085 48.019 65.3599 47.787C67.1391 46.1818 68.3382 44.0158 69.1117 41.7724C69.982 39.2777 70.3495 36.5702 70.2721 33.94C70.1754 31.0971 69.5952 28.2736 68.4542 25.6821Z" fill="#21223F"/>
<path d="M68.8221 37.46C68.8221 37.4793 68.8221 37.518 68.8027 37.5373C68.8221 37.4793 68.8221 37.46 68.8221 37.46Z" fill="#21223F"/>
<path d="M65.7471 45.4852C65.728 45.5043 65.728 45.5233 65.709 45.5424C65.7662 45.4661 65.7662 45.4661 65.7471 45.4852Z" fill="#21223F"/>
<path d="M31.0524 29.0274C31.0333 29.1227 31.0714 28.8939 31.0524 29.0274V29.0274Z" fill="#21223F"/>
<path d="M67.4284 26.5136C67.4093 26.4564 67.4284 26.4755 67.4284 26.5136C67.4475 26.5327 67.4475 26.5518 67.4284 26.5136Z" fill="#21223F"/>
<path d="M67.5067 42.41C67.4496 42.5435 67.5639 42.2956 67.5067 42.41V42.41Z" fill="#21223F"/>
<path d="M65.1866 22.6266C65.1294 22.5503 65.2628 22.7219 65.1866 22.6266V22.6266Z" fill="#21223F"/>
<path d="M33.7788 22.2973C33.7025 22.4117 33.8169 22.2592 33.7788 22.2973V22.2973Z" fill="#21223F"/>
<path d="M32.0566 25.276C32.0566 25.2566 32.076 25.2566 32.076 25.2373C32.076 25.2373 32.076 25.2566 32.0566 25.276Z" fill="#21223F"/>
<path d="M36.2157 19.88C36.1383 19.938 36.293 19.822 36.2157 19.88V19.88Z" fill="#21223F"/>
<path d="M62.3047 19.7451C62.324 19.7645 62.3434 19.7645 62.3434 19.7838C62.3434 19.7838 62.3434 19.7645 62.3047 19.7451Z" fill="#21223F"/>
<path d="M44.5116 29.8983C44.5309 29.8983 44.5309 29.8983 44.5309 29.8983C44.6469 29.821 44.3762 29.937 44.5116 29.8983Z" fill="#21223F"/>
<path d="M50.8362 38.8135C50.7409 38.8135 50.9506 38.8325 50.8362 38.8135V38.8135Z" fill="#21223F"/>
<path d="M48.4566 37.827C48.4373 37.827 48.4373 37.8076 48.418 37.8076C48.4566 37.827 48.4566 37.827 48.4566 37.827Z" fill="#21223F"/>
<path d="M47.9938 37.1509V37.1315C47.9938 37.1315 47.9938 37.1315 47.9938 37.1122C47.9551 37.0155 47.9938 37.2862 47.9938 37.1509Z" fill="#21223F"/>
<path d="M43.9901 30.2844C43.8948 30.3797 44.0283 30.189 43.9901 30.2844V30.2844Z" fill="#21223F"/>
<path d="M48.0325 37.3239C47.9944 37.2476 48.0706 37.4573 48.0325 37.3239V37.3239Z" fill="#21223F"/>
<path d="M44.1445 30.1108C44.1639 30.0915 44.1832 30.0915 44.2025 30.0721C44.2412 30.0528 44.2606 30.0528 44.1445 30.1108Z" fill="#21223F"/>
<path d="M46.6191 30.1689C46.6382 30.188 46.6573 30.188 46.6763 30.2071C46.6191 30.1689 46.6191 30.1689 46.6191 30.1689Z" fill="#21223F"/>
<path d="M59.4032 36.0868C58.3976 36.8217 57.2759 37.4212 56.1349 37.866C55.5547 38.0981 54.9552 38.2915 54.3556 38.4462C54.0655 38.5236 53.7754 38.6009 53.466 38.6589C53.3306 38.6783 53.1759 38.717 53.0406 38.7363C52.9632 38.7556 52.9052 38.7556 52.8278 38.775C52.7505 38.7943 52.7698 38.775 52.6344 38.7943C52.1123 38.8523 51.5901 38.8717 51.0679 38.833C51.0099 38.833 50.9519 38.8137 50.8939 38.8137C50.8745 38.8137 50.8745 38.8137 50.8552 38.8137C50.7392 38.7943 50.9519 38.833 50.8552 38.8137C50.8552 38.8137 50.8359 38.8137 50.8165 38.8137C50.7005 38.7943 50.6038 38.775 50.4878 38.7556C50.217 38.6976 49.9462 38.5816 49.6948 38.4849C49.3081 38.3302 48.8632 38.0981 48.4765 37.8467C48.4765 37.8467 48.4765 37.8467 48.4378 37.8274C48.4571 37.8274 48.4571 37.8467 48.4765 37.8467C48.4571 37.8274 48.3411 37.7307 48.3217 37.7113C48.2637 37.6533 48.2057 37.5953 48.1477 37.5373C48.2831 37.6726 48.1284 37.4986 48.0897 37.4406C48.0703 37.4019 48.051 37.3825 48.051 37.3439C47.993 37.2665 48.0703 37.4792 48.051 37.3439C48.051 37.3439 48.051 37.3439 48.051 37.3245C48.0317 37.2665 48.0317 37.2085 48.0123 37.1505V37.1698C48.0123 37.2859 47.9736 37.0151 48.0123 37.1311C48.0123 37.1311 48.0123 37.1311 48.0123 37.1505C48.0123 37.1311 48.0123 37.0925 48.0123 37.0731C48.0123 36.9958 48.0123 36.9377 48.0123 36.8604C48.0123 36.8217 48.0123 36.783 48.0317 36.7444C48.0123 36.9571 48.0317 36.783 48.0317 36.725C48.0897 36.3962 48.1864 36.0675 48.3024 35.7387C48.5925 34.8298 48.8246 33.9015 48.8826 32.9345C48.9793 31.1166 48.225 29.1827 46.3491 28.6218C44.9567 28.2157 42.868 28.7765 42.636 30.4397C42.578 30.7685 42.7133 31.1166 43.0808 31.2133C43.3709 31.2907 43.8157 31.1166 43.8544 30.7685C43.8544 30.7105 43.8737 30.6331 43.893 30.5751C43.9124 30.4977 44.0091 30.343 43.9124 30.5171C43.9511 30.4591 43.9704 30.401 44.0091 30.343C44.0284 30.3237 44.0478 30.3043 44.0478 30.2657C43.9511 30.3624 44.1058 30.169 44.0478 30.2657C44.0864 30.227 44.1444 30.169 44.1831 30.1303C44.2025 30.111 44.2411 30.0916 44.2605 30.0723C44.2411 30.0916 44.2218 30.0916 44.2025 30.1109C44.2992 30.0529 44.2992 30.0529 44.2605 30.0723C44.3765 30.0143 44.4732 29.9562 44.5893 29.8789H44.5699C44.4539 29.9176 44.7053 29.8015 44.5893 29.8789C44.6086 29.8595 44.6473 29.8595 44.6666 29.8402C44.7246 29.8209 44.802 29.8015 44.8793 29.7822C44.9374 29.7628 44.9954 29.7628 45.0534 29.7435C45.0534 29.7435 45.0727 29.7435 45.0921 29.7435C45.1308 29.7435 45.1888 29.7435 45.0921 29.7435C45.1308 29.7435 45.1501 29.7435 45.1888 29.7435C45.3435 29.7242 45.4982 29.7242 45.6336 29.7435H45.6529H45.6723C45.6916 29.7435 45.7109 29.7435 45.7496 29.7435C45.7303 29.7435 45.7109 29.7435 45.6916 29.7435C45.7109 29.7435 45.7303 29.7435 45.7303 29.7435C45.827 29.7628 45.9043 29.7822 46.001 29.8015C46.059 29.8209 46.1171 29.8402 46.1944 29.8595C46.2138 29.8595 46.2138 29.8595 46.2331 29.8789C46.2524 29.8789 46.2911 29.8982 46.3105 29.8982C46.4458 29.9756 46.5812 30.0529 46.7166 30.1303C46.7166 30.1303 46.7166 30.1303 46.7746 30.169C46.7553 30.1496 46.7359 30.1496 46.7166 30.1303C46.7166 30.1496 46.8326 30.227 46.8713 30.2463C46.9293 30.3043 46.968 30.343 47.026 30.401C47.0647 30.4397 47.084 30.4591 47.1034 30.4977C47.0454 30.401 47.1807 30.5751 47.1034 30.4977C47.1614 30.5944 47.2194 30.6718 47.2774 30.7685C47.3161 30.8458 47.3741 30.9425 47.4128 31.0199V31.0392C47.3935 30.9425 47.4708 31.1359 47.4128 31.0392V31.0586C47.4321 31.1166 47.4515 31.1553 47.4708 31.2133C47.5482 31.426 47.5869 31.6388 47.6255 31.8708C47.6255 31.8902 47.6255 31.8902 47.6255 31.9095C47.6255 31.8128 47.6449 32.0062 47.6255 31.9095C47.6255 31.9288 47.6255 31.9288 47.6255 31.9482C47.6255 32.0062 47.6449 32.0642 47.6449 32.1416C47.6449 32.277 47.6642 32.4123 47.6642 32.5284C47.6642 32.7991 47.6449 33.0892 47.6062 33.36C47.6062 33.3406 47.6062 33.3406 47.6062 33.3793V33.36C47.6062 33.3986 47.5869 33.4567 47.5869 33.4567C47.5869 33.4953 47.5675 33.534 47.5675 33.5727C47.5482 33.6887 47.5288 33.8048 47.5095 33.9208C47.4515 34.1529 47.3935 34.385 47.3354 34.617C47.2387 34.9845 47.1034 35.3519 47.0067 35.7194C46.7939 36.4349 46.6779 37.1698 47.0067 37.866C47.3935 38.6783 48.2637 39.1424 49.0566 39.4712C49.5788 39.6839 50.0816 39.8967 50.6425 39.974C51.184 40.0514 51.7448 40.0707 52.3057 40.032C53.6787 39.9353 55.0518 39.5872 56.3476 39.1038C57.682 38.6009 58.9777 37.9627 60.1381 37.1118C60.4088 36.9184 60.5442 36.5703 60.3702 36.2415C60.0994 36.0481 59.674 35.8934 59.4032 36.0868Z" fill="#21223F"/>
<path d="M47.5488 31.9668C47.5488 31.8524 47.5679 32.0621 47.5488 31.9668V31.9668Z" fill="#21223F"/>
<path d="M47.3352 31.1156C47.2971 31.0203 47.3734 31.1919 47.3352 31.1156V31.1156Z" fill="#21223F"/>
<path d="M46.1367 29.8984C46.1367 29.8984 46.1367 29.8984 46.1558 29.9175C46.1558 29.8984 46.1558 29.8984 46.1367 29.8984C46.1558 29.8984 46.1558 29.8984 46.1367 29.8984Z" fill="#21223F"/>
<path d="M47.0074 30.5551C46.9502 30.4597 47.1027 30.6313 47.0074 30.5551V30.5551Z" fill="#21223F"/>
<path d="M58.5135 42.1787C58.4945 42.1787 58.4945 42.1787 58.4754 42.1787C58.4182 42.2168 58.5517 42.1787 58.5135 42.1787Z" fill="#21223F"/>
<path d="M58.3787 42.1982H58.3594C58.3981 42.2176 58.4174 42.2369 58.3787 42.1982Z" fill="#21223F"/>
<path d="M63.213 38.8519C62.2267 39.084 61.279 39.4514 60.4668 40.0703C59.8866 40.5151 59.4225 41.0373 58.9776 41.6174C58.9196 41.7141 58.8423 41.7915 58.7843 41.8882C58.7843 41.8882 58.7843 41.8882 58.7649 41.9075C58.6876 42.0236 58.8229 41.8495 58.7649 41.9075C58.7262 41.9462 58.6876 41.9849 58.6489 42.0429C58.6296 42.0622 58.5909 42.1009 58.5715 42.1203C58.5715 42.1203 58.5715 42.1203 58.5909 42.1203C58.5909 42.1203 58.5715 42.1203 58.5522 42.1396L58.5328 42.1589L58.5135 42.1783C58.5522 42.1783 58.4168 42.217 58.4748 42.1783C58.4555 42.1783 58.4168 42.1976 58.3975 42.1976C58.4555 42.1976 58.4748 42.1783 58.3975 42.1976C58.3975 42.1976 58.4168 42.1976 58.4362 42.217C58.4168 42.217 58.4168 42.217 58.3975 42.217C58.3975 42.217 58.3975 42.217 58.3781 42.217C58.4168 42.2556 58.3781 42.2363 58.3588 42.217C58.3395 42.217 58.3395 42.1976 58.3395 42.1976C58.3395 42.217 58.2234 42.1203 58.3201 42.1589C58.2814 42.1203 58.2428 42.0816 58.2234 42.0429C58.2234 42.0429 58.2234 42.0429 58.1847 42.0042C58.2041 42.0236 58.2041 42.0236 58.2234 42.0429C58.2234 42.0236 58.1461 41.9269 58.1267 41.9075C58.088 41.8302 58.0494 41.7528 58.0107 41.6755C57.9913 41.6368 57.972 41.6174 57.972 41.5788C57.972 41.5594 57.972 41.5594 57.9527 41.5594C57.914 41.4821 57.9913 41.6561 57.9527 41.5594C57.9527 41.5594 57.9527 41.5401 57.9333 41.5401C57.8947 41.4434 57.856 41.366 57.8366 41.2693C57.6819 40.8052 57.5852 40.341 57.4885 39.8769C57.4692 39.7609 57.4498 39.6448 57.4305 39.5288C57.4305 39.4708 57.4112 39.4321 57.4112 39.3741C57.4112 39.3547 57.4112 39.3547 57.4112 39.3354C57.4112 39.2774 57.4112 39.3934 57.4112 39.3354C57.4112 39.3354 57.4112 39.316 57.4112 39.2967C57.3918 39.084 57.3531 38.8519 57.3338 38.6392C57.2951 38.2911 57.0631 38.001 56.6956 38.001C56.3862 38.001 56.0381 38.2911 56.0574 38.6392C56.1348 39.5288 56.2701 40.4377 56.5022 41.308C56.7149 42.0429 57.0437 42.9712 57.798 43.3193C58.4555 43.6287 59.1904 43.358 59.6352 42.8165C59.8092 42.6037 59.964 42.3717 60.138 42.1589C60.1187 42.1783 60.138 42.1589 60.1767 42.1009C60.1574 42.1203 60.1574 42.1396 60.138 42.1589C60.1574 42.1396 60.2154 42.0622 60.2347 42.0429C60.2734 41.9849 60.3314 41.9269 60.3701 41.8688C60.4861 41.7335 60.6022 41.5981 60.7375 41.4821C60.8149 41.4047 60.8923 41.3467 60.9696 41.2693C61.0083 41.2306 61.047 41.192 61.105 41.1726C61.1243 41.1726 61.1243 41.1533 61.1243 41.1533C61.0856 41.1726 61.163 41.1146 61.1243 41.1533C61.1243 41.1533 61.1437 41.1339 61.163 41.1339C61.3564 40.9792 61.5691 40.8439 61.8012 40.7278C62.3427 40.4184 62.9035 40.2443 63.5417 40.0896C63.8705 40.0123 64.0639 39.6255 63.9865 39.3161C63.8899 38.9486 63.5417 38.7745 63.213 38.8519Z" fill="#21223F"/>
<path d="M61.1436 41.1342C61.1063 41.1529 61.1809 41.0969 61.1436 41.1342V41.1342Z" fill="#21223F"/>
<path d="M58.5135 42.1785C58.5135 42.1785 58.5135 42.1592 58.5328 42.1592C58.5135 42.1785 58.4941 42.1785 58.4941 42.1785C58.4941 42.1785 58.4941 42.1785 58.5135 42.1785Z" fill="#21223F"/>
<path d="M58.7644 41.9079C58.6882 42.0032 58.8216 41.8316 58.7644 41.9079V41.9079Z" fill="#21223F"/>
<path d="M58.3381 42.1972C58.319 42.1782 58.319 42.1782 58.3381 42.1972C58.3381 42.1782 58.3381 42.1782 58.319 42.1591C58.2237 42.121 58.319 42.1972 58.3381 42.1972Z" fill="#21223F"/>
<path d="M58.5709 42.1204C58.5709 42.1014 58.5327 42.1395 58.5137 42.1586C58.5327 42.1395 58.5518 42.1395 58.5709 42.1204Z" fill="#21223F"/>
<path d="M58.3396 42.1785C58.3396 42.1785 58.3397 42.1785 58.359 42.1785C58.3397 42.1592 58.3203 42.1592 58.3203 42.1592C58.3203 42.1785 58.3396 42.1785 58.3396 42.1785Z" fill="#21223F"/>
<path d="M57.4106 39.3348C57.392 39.2788 57.4106 39.3721 57.4106 39.3348V39.3348Z" fill="#21223F"/>
<path d="M57.9329 41.5597C57.8948 41.4644 57.971 41.6551 57.9329 41.5597V41.5597Z" fill="#21223F"/>
<path d="M58.398 42.1981C58.398 42.1981 58.3787 42.1981 58.3594 42.1787C58.3787 42.1981 58.3787 42.1981 58.398 42.1981Z" fill="#21223F"/>
<path d="M58.3785 42.1981C58.3398 42.1981 58.3398 42.1787 58.3398 42.1787C58.3398 42.1981 58.3592 42.1981 58.3785 42.1981Z" fill="#21223F"/>
<path d="M58.2047 42.0436C58.1853 42.0242 58.1854 42.0242 58.166 42.0049C58.2047 42.0436 58.224 42.0436 58.2047 42.0436Z" fill="#21223F"/>
<path d="M58.3785 42.1981C58.3592 42.1787 58.3398 42.1787 58.3398 42.1787C58.3398 42.1787 58.3398 42.1981 58.3785 42.1981Z" fill="#21223F"/>
<path d="M60.1579 42.1392C60.1769 42.1202 60.177 42.1011 60.196 42.082C60.1388 42.1583 60.1388 42.1583 60.1579 42.1392Z" fill="#21223F"/>
<path d="M58.3594 42.2174H58.3784C58.3784 42.1984 58.3784 42.1984 58.3594 42.2174Z" fill="#21223F"/>
<path d="M42.5587 30.5938C42.5396 30.4794 42.5968 30.6891 42.5587 30.5938V30.5938Z" fill="#21223F"/>
<path d="M33.0048 37.0148C32.9274 36.9568 33.0821 37.0728 33.0048 37.0148V37.0148Z" fill="#21223F"/>
<path d="M34.1654 37.6727C34.1461 37.6727 34.1461 37.6533 34.1267 37.6533C34.1074 37.6533 34.1267 37.6533 34.1654 37.6727Z" fill="#21223F"/>
<path d="M37.2793 36.7246V36.744C37.2986 36.7053 37.2986 36.7053 37.2793 36.7246Z" fill="#21223F"/>
<path d="M42.4611 30.3617C42.423 30.2664 42.5374 30.438 42.4611 30.3617V30.3617Z" fill="#21223F"/>
<path d="M41.2049 30.0137C41.2243 30.0137 41.2243 30.0137 41.2436 30.0137C41.1856 30.033 41.1856 30.033 41.2049 30.0137Z" fill="#21223F"/>
<path d="M40.6063 30.1884C40.529 30.2078 40.6837 30.1497 40.6063 30.1884V30.1884Z" fill="#21223F"/>
<path d="M42.0566 30.0918C42.076 30.0918 42.0953 30.1111 42.0953 30.1111C42.1147 30.1111 42.0953 30.1111 42.0566 30.0918Z" fill="#21223F"/>
<path d="M42.2871 30.208L42.3065 30.2273C42.3065 30.2273 42.3258 30.2273 42.3258 30.2467C42.3258 30.2273 42.3064 30.2273 42.2871 30.208Z" fill="#21223F"/>
<path d="M33.7788 22.2973C33.7025 22.4117 33.8169 22.2592 33.7788 22.2973V22.2973Z" fill="#21223F"/>
<path d="M67.5067 42.41C67.4496 42.5435 67.5639 42.2956 67.5067 42.41V42.41Z" fill="#21223F"/>
<path d="M31.0524 29.0274C31.0333 29.1227 31.0714 28.8939 31.0524 29.0274V29.0274Z" fill="#21223F"/>
<path d="M65.7471 45.4852C65.728 45.5043 65.728 45.5233 65.709 45.5424C65.7662 45.4661 65.7662 45.4661 65.7471 45.4852Z" fill="#21223F"/>
<path d="M68.4542 25.6821C67.2938 23.0519 65.534 20.6925 63.2906 18.9133C60.6605 16.844 57.5081 15.5869 54.2204 15.0841C52.0544 14.7554 49.8691 14.6973 47.6837 14.8327C45.5177 14.9681 43.3324 15.2969 41.2631 15.9544C37.8787 16.9987 34.8037 18.894 32.6571 21.7369C30.6844 24.3477 29.7562 27.5967 29.6595 30.8457C29.6014 32.8763 29.7948 35.0617 31.0326 36.7442C32.0575 38.1366 33.6047 39.0262 35.3066 39.2777C36.4863 39.4517 37.6466 38.9682 38.2268 37.9046C38.4975 37.4017 38.6136 36.8022 38.5556 36.2414C38.4782 35.6032 38.4395 34.9843 38.4782 34.3461C38.5362 33.2244 38.7876 32.0834 39.4258 31.1745C39.6966 30.807 40.0254 30.4976 40.4508 30.2849C40.4895 30.2655 40.5475 30.2268 40.6055 30.2075C40.6249 30.2075 40.6442 30.1882 40.6442 30.1882C40.5669 30.2268 40.7216 30.1495 40.6442 30.1882C40.6636 30.1882 40.6636 30.1882 40.6829 30.1688C40.7796 30.1301 40.8763 30.0915 40.973 30.0721C41.0503 30.0528 41.147 30.0334 41.2244 30.0141C41.2051 30.0141 41.2051 30.0141 41.2631 30.0141C41.2437 30.0141 41.2437 30.0141 41.2244 30.0141C41.2437 30.0141 41.3211 29.9948 41.3211 29.9948C41.3791 29.9948 41.4565 29.9948 41.5145 29.9948C41.5918 29.9948 41.6885 29.9948 41.7659 30.0141C41.7659 30.0141 41.7659 30.0141 41.8046 30.0141C41.7852 30.0141 41.7659 30.0141 41.7659 30.0141C41.7852 30.0141 41.9206 30.0528 41.94 30.0528C41.9786 30.0528 42.114 30.1108 42.114 30.1108C42.0947 30.1108 42.0753 30.0915 42.0753 30.0915C42.114 30.1108 42.1333 30.1108 42.114 30.1108C42.172 30.1495 42.23 30.1688 42.2881 30.2075C42.2881 30.2075 42.3074 30.2268 42.3267 30.2268L42.3074 30.2075C42.3267 30.2268 42.3461 30.2462 42.3461 30.2462C42.3654 30.2655 42.3654 30.2655 42.3461 30.2462C42.3461 30.2462 42.3461 30.2462 42.3267 30.2268C42.3461 30.2462 42.3848 30.2655 42.4041 30.2849C42.4234 30.3042 42.4428 30.3235 42.4621 30.3429C42.4234 30.2462 42.5395 30.4202 42.4621 30.3429C42.4621 30.3429 42.4621 30.3429 42.4621 30.3622C42.4815 30.4202 42.5588 30.6136 42.5201 30.4396C42.5395 30.4783 42.5395 30.5363 42.5588 30.5749C42.5588 30.5749 42.5588 30.5749 42.5588 30.5943C42.5395 30.4782 42.5975 30.691 42.5588 30.5943C42.5975 30.9424 42.8296 31.2325 43.197 31.2325C43.5064 31.2325 43.8545 30.9424 43.8352 30.5943C43.7385 29.6853 43.1003 29.0085 42.2107 28.8151C41.2631 28.6023 40.2381 28.8537 39.4645 29.3952C37.4339 30.8264 37.0084 33.6886 37.2598 35.99C37.2985 36.2414 37.3372 36.4541 37.2985 36.7249C37.2985 36.7055 37.2985 36.7055 37.2985 36.7442V36.7249C37.2985 36.7442 37.2792 36.8022 37.2792 36.8216C37.2598 36.8796 37.2598 36.9376 37.2405 36.9956C37.2018 37.1697 37.2018 37.1503 37.1244 37.2857C36.9311 37.6532 36.6023 37.9239 36.2348 38.0206C36.0028 38.098 35.9061 38.098 35.6353 38.0786C35.674 38.0786 35.4999 38.0593 35.4613 38.0593C35.3646 38.0399 35.2679 38.0206 35.1518 38.0013C34.9584 37.9626 34.7844 37.9046 34.591 37.8465C34.5136 37.8272 34.4169 37.7885 34.3396 37.7692C34.3009 37.7498 34.2816 37.7498 34.2429 37.7305C34.2236 37.7305 34.1269 37.6918 34.1075 37.6725C34.1269 37.6725 34.1269 37.6918 34.1462 37.6918C34.1075 37.6725 34.0882 37.6725 34.1075 37.6725C33.7787 37.5178 33.45 37.3437 33.1405 37.131C33.1019 37.0923 33.0438 37.073 33.0052 37.0343C32.9858 37.0343 32.9858 37.015 32.9858 37.015C32.9085 36.9569 33.0632 37.073 32.9858 37.015C32.9085 36.9569 32.8311 36.8796 32.7538 36.8216C32.599 36.6862 32.4443 36.5315 32.309 36.3768C32.1349 36.1834 32.1349 36.164 31.9995 35.9706C31.8641 35.7772 31.7481 35.5838 31.6321 35.3711C31.4193 34.9456 31.2646 34.5202 31.1292 33.998C30.8972 33.0697 30.8778 32.1028 30.8972 31.1551C30.8972 30.749 30.9165 30.3429 30.9552 29.9367C30.9745 29.7434 30.9939 29.55 31.0132 29.3566C31.0326 29.2599 31.0326 29.1632 31.0519 29.0858V29.0665C31.0326 29.1825 31.0712 28.9504 31.0519 29.0665C31.0519 29.0665 31.0519 29.0471 31.0519 29.0278C31.0519 28.9698 31.0712 28.9118 31.0712 28.8537C31.1873 28.0802 31.3613 27.3066 31.5934 26.5717C31.7094 26.2043 31.8448 25.8175 31.9802 25.45C31.9995 25.4113 32.0575 25.276 32.0575 25.276C32.0575 25.2953 32.0382 25.2953 32.0382 25.3146C32.0575 25.276 32.0575 25.276 32.0575 25.276C32.0962 25.1986 32.1156 25.1406 32.1542 25.0632C32.2316 24.8892 32.309 24.7151 32.4057 24.5411C32.7538 23.8642 33.1405 23.2067 33.5853 22.5878C33.6434 22.5104 33.7014 22.4331 33.7594 22.3557C33.7594 22.3557 33.7594 22.3557 33.7594 22.3364C33.682 22.4331 33.7981 22.2977 33.7594 22.3364C33.7594 22.3364 33.7594 22.3364 33.7594 22.317C33.7981 22.2784 33.8174 22.2397 33.8561 22.1817C33.9721 22.027 34.1075 21.8722 34.2429 21.7369C34.4943 21.4468 34.765 21.176 35.0358 20.9053C35.3259 20.6152 35.6353 20.3444 35.9448 20.093C36.0221 20.035 36.0995 19.977 36.1575 19.919C36.1768 19.919 36.1768 19.8996 36.1768 19.8996C36.0995 19.9576 36.2542 19.8416 36.1768 19.8996L36.1962 19.8803C36.2348 19.8609 36.2542 19.8416 36.2929 19.8029C36.4669 19.6869 36.6216 19.5515 36.7957 19.4355C37.5112 18.952 38.2655 18.5265 39.039 18.1397C39.4839 17.927 39.7546 17.811 40.1801 17.6369C40.6249 17.4629 41.0503 17.3081 41.5145 17.1728C42.4815 16.8633 43.4678 16.6313 44.4541 16.4572C46.6007 16.0704 48.8828 15.9544 51.1068 16.0318C54.4332 16.1478 57.7789 16.9407 60.6411 18.6232C60.9699 18.8166 61.2793 19.0294 61.6081 19.2421C61.7434 19.3388 61.8788 19.4355 62.0335 19.5322C62.1109 19.5902 62.1689 19.6289 62.2463 19.6869C62.2656 19.7062 62.3236 19.7449 62.3236 19.7449C62.3043 19.7256 62.2849 19.7256 62.2849 19.7062C62.3236 19.7256 62.3236 19.7449 62.3236 19.7449C62.343 19.7642 62.3623 19.7836 62.401 19.8029C62.9618 20.2477 63.484 20.7312 63.9868 21.234C64.2382 21.4854 64.4703 21.7562 64.7024 22.027C64.7991 22.143 64.9151 22.2784 65.0118 22.3944C65.0698 22.4524 65.1085 22.5298 65.1665 22.5878C65.1665 22.5878 65.1665 22.5878 65.1665 22.6071C65.1085 22.5298 65.2439 22.7038 65.1665 22.6071C65.1665 22.6071 65.1665 22.6071 65.1858 22.6265C65.2052 22.6651 65.2439 22.7038 65.2825 22.7425C65.6887 23.3033 66.0755 23.8642 66.4236 24.4637C66.7717 25.0632 67.0811 25.6628 67.3519 26.3009C67.3712 26.3396 67.3905 26.3976 67.4099 26.4363C67.4099 26.4363 67.4292 26.475 67.4292 26.4943C67.4099 26.4363 67.4099 26.4557 67.4292 26.4943C67.4486 26.533 67.4486 26.5524 67.4292 26.4943C67.4486 26.5137 67.4486 26.5524 67.4486 26.5524C67.4679 26.591 67.4872 26.6491 67.5066 26.6877C67.5646 26.8425 67.6419 27.0165 67.7 27.1712C67.816 27.4806 67.932 27.8094 68.0287 28.1382C68.2415 28.7764 68.3962 29.4339 68.5509 30.1108C68.6283 30.4396 68.6863 30.7683 68.7443 31.1165C68.7636 31.2712 68.8023 31.4259 68.8217 31.5806C68.8217 31.5999 68.841 31.658 68.841 31.6773C68.841 31.658 68.841 31.6386 68.841 31.5999C68.8603 31.6773 68.8603 31.6966 68.841 31.6773C68.841 31.6966 68.841 31.716 68.841 31.716C68.8603 31.8127 68.8603 31.9094 68.8797 32.0254C69.0344 33.3405 69.0537 34.6942 68.9764 36.0093C68.957 36.3187 68.9377 36.6475 68.899 36.9569C68.8797 37.131 68.8603 37.2857 68.841 37.4598C68.841 37.4598 68.841 37.4791 68.8217 37.5371C68.8217 37.5178 68.8217 37.4791 68.841 37.4598C68.841 37.4598 68.8217 37.5371 68.8217 37.5565C68.8023 37.6532 68.8023 37.7305 68.783 37.8272C68.6863 38.4654 68.5702 39.0843 68.4155 39.7031C68.2608 40.3026 68.0868 40.9022 67.8934 41.4823C67.7967 41.7724 67.6806 42.0432 67.5646 42.3333C67.5453 42.372 67.5453 42.3913 67.5259 42.43C67.4679 42.5653 67.5839 42.3139 67.5259 42.43C67.5066 42.488 67.4679 42.5653 67.4486 42.6234C67.3905 42.7587 67.3325 42.8941 67.2552 43.0295C67.0038 43.5517 66.733 44.0545 66.4236 44.538C66.2689 44.77 66.1141 45.0214 65.9401 45.2535C65.8821 45.3309 65.8241 45.4276 65.7467 45.5049C65.766 45.4856 65.766 45.4856 65.708 45.5629C65.7274 45.5436 65.7274 45.5243 65.7467 45.5049C65.7274 45.5243 65.6887 45.5823 65.6693 45.6016C65.6306 45.6596 65.5726 45.7177 65.534 45.7757C65.2052 46.1818 64.8571 46.5493 64.4703 46.8974C64.2189 47.1294 64.2382 47.5549 64.4703 47.787C64.7217 48.0384 65.1085 48.019 65.3599 47.787C67.1391 46.1818 68.3382 44.0158 69.1117 41.7724C69.982 39.2777 70.3495 36.5702 70.2721 33.94C70.1754 31.0971 69.5952 28.2736 68.4542 25.6821Z" fill="#21223F"/>
<path d="M68.8221 37.46C68.8221 37.4793 68.8221 37.518 68.8027 37.5373C68.8221 37.4793 68.8221 37.46 68.8221 37.46Z" fill="#21223F"/>
<path d="M67.4284 26.5136C67.4093 26.4564 67.4284 26.4755 67.4284 26.5136C67.4475 26.5327 67.4475 26.5518 67.4284 26.5136Z" fill="#21223F"/>
<path d="M32.0566 25.276C32.0566 25.2566 32.076 25.2566 32.076 25.2373C32.076 25.2373 32.076 25.2566 32.0566 25.276Z" fill="#21223F"/>
<path d="M36.2157 19.88C36.1383 19.938 36.293 19.822 36.2157 19.88V19.88Z" fill="#21223F"/>
<path d="M65.1866 22.6266C65.1294 22.5503 65.2628 22.7219 65.1866 22.6266V22.6266Z" fill="#21223F"/>
<path d="M62.3047 19.7451C62.324 19.7645 62.3434 19.7645 62.3434 19.7838C62.3434 19.7838 62.3434 19.7645 62.3047 19.7451Z" fill="#21223F"/>
<path d="M50.8362 38.8135C50.7409 38.8135 50.9506 38.8325 50.8362 38.8135V38.8135Z" fill="#21223F"/>
<path d="M48.4566 37.827C48.4373 37.827 48.4373 37.8076 48.418 37.8076C48.4566 37.827 48.4566 37.827 48.4566 37.827Z" fill="#21223F"/>
<path d="M48.0325 37.3239C47.9944 37.2476 48.0706 37.4573 48.0325 37.3239V37.3239Z" fill="#21223F"/>
<path d="M44.5116 29.8983C44.5309 29.8983 44.5309 29.8983 44.5309 29.8983C44.6469 29.821 44.3762 29.937 44.5116 29.8983Z" fill="#21223F"/>
<path d="M47.9938 37.1509V37.1315C47.9938 37.1315 47.9938 37.1315 47.9938 37.1122C47.9551 37.0155 47.9938 37.2862 47.9938 37.1509Z" fill="#21223F"/>
<path d="M43.9901 30.2844C43.8948 30.3797 44.0283 30.189 43.9901 30.2844V30.2844Z" fill="#21223F"/>
<path d="M44.1445 30.1108C44.1639 30.0915 44.1832 30.0915 44.2025 30.0721C44.2412 30.0528 44.2606 30.0528 44.1445 30.1108Z" fill="#21223F"/>
<path d="M47.3352 31.1156C47.2971 31.0203 47.3734 31.1919 47.3352 31.1156V31.1156Z" fill="#21223F"/>
<path d="M47.5488 31.9668C47.5488 31.8524 47.5679 32.0621 47.5488 31.9668V31.9668Z" fill="#21223F"/>
<path d="M59.4032 36.0868C58.3976 36.8217 57.2759 37.4212 56.1349 37.866C55.5547 38.0981 54.9552 38.2915 54.3556 38.4462C54.0655 38.5236 53.7754 38.6009 53.466 38.6589C53.3306 38.6783 53.1759 38.717 53.0406 38.7363C52.9632 38.7556 52.9052 38.7556 52.8278 38.775C52.7505 38.7943 52.7698 38.775 52.6344 38.7943C52.1123 38.8523 51.5901 38.8717 51.0679 38.833C51.0099 38.833 50.9519 38.8137 50.8939 38.8137C50.8745 38.8137 50.8745 38.8137 50.8552 38.8137C50.7392 38.7943 50.9519 38.833 50.8552 38.8137C50.8552 38.8137 50.8359 38.8137 50.8165 38.8137C50.7005 38.7943 50.6038 38.775 50.4878 38.7556C50.217 38.6976 49.9462 38.5816 49.6948 38.4849C49.3081 38.3302 48.8632 38.0981 48.4765 37.8467C48.4765 37.8467 48.4765 37.8467 48.4378 37.8274C48.4571 37.8274 48.4571 37.8467 48.4765 37.8467C48.4571 37.8274 48.3411 37.7307 48.3217 37.7113C48.2637 37.6533 48.2057 37.5953 48.1477 37.5373C48.2831 37.6726 48.1284 37.4986 48.0897 37.4406C48.0703 37.4019 48.051 37.3825 48.051 37.3439C47.993 37.2665 48.0703 37.4792 48.051 37.3439C48.051 37.3439 48.051 37.3439 48.051 37.3245C48.0317 37.2665 48.0317 37.2085 48.0123 37.1505V37.1698C48.0123 37.2859 47.9736 37.0151 48.0123 37.1311C48.0123 37.1311 48.0123 37.1311 48.0123 37.1505C48.0123 37.1311 48.0123 37.0925 48.0123 37.0731C48.0123 36.9958 48.0123 36.9377 48.0123 36.8604C48.0123 36.8217 48.0123 36.783 48.0317 36.7444C48.0123 36.9571 48.0317 36.783 48.0317 36.725C48.0897 36.3962 48.1864 36.0675 48.3024 35.7387C48.5925 34.8298 48.8246 33.9015 48.8826 32.9345C48.9793 31.1166 48.225 29.1827 46.3491 28.6218C44.9567 28.2157 42.868 28.7765 42.636 30.4397C42.578 30.7685 42.7133 31.1166 43.0808 31.2133C43.3709 31.2907 43.8157 31.1166 43.8544 30.7685C43.8544 30.7105 43.8737 30.6331 43.893 30.5751C43.9124 30.4977 44.0091 30.343 43.9124 30.5171C43.9511 30.4591 43.9704 30.401 44.0091 30.343C44.0284 30.3237 44.0478 30.3043 44.0478 30.2657C43.9511 30.3624 44.1058 30.169 44.0478 30.2657C44.0864 30.227 44.1444 30.169 44.1831 30.1303C44.2025 30.111 44.2411 30.0916 44.2605 30.0723C44.2411 30.0916 44.2218 30.0916 44.2025 30.1109C44.2992 30.0529 44.2992 30.0529 44.2605 30.0723C44.3765 30.0143 44.4732 29.9562 44.5893 29.8789H44.5699C44.4539 29.9176 44.7053 29.8015 44.5893 29.8789C44.6086 29.8595 44.6473 29.8595 44.6666 29.8402C44.7246 29.8209 44.802 29.8015 44.8793 29.7822C44.9374 29.7628 44.9954 29.7628 45.0534 29.7435C45.0534 29.7435 45.0727 29.7435 45.0921 29.7435C45.1308 29.7435 45.1888 29.7435 45.0921 29.7435C45.1308 29.7435 45.1501 29.7435 45.1888 29.7435C45.3435 29.7242 45.4982 29.7242 45.6336 29.7435H45.6529H45.6723C45.6916 29.7435 45.7109 29.7435 45.7496 29.7435C45.7303 29.7435 45.7109 29.7435 45.6916 29.7435C45.7109 29.7435 45.7303 29.7435 45.7303 29.7435C45.827 29.7628 45.9043 29.7822 46.001 29.8015C46.059 29.8209 46.1171 29.8402 46.1944 29.8595C46.2138 29.8595 46.2138 29.8595 46.2331 29.8789C46.2524 29.8789 46.2911 29.8982 46.3105 29.8982C46.4458 29.9756 46.5812 30.0529 46.7166 30.1303C46.7166 30.1303 46.7166 30.1303 46.7746 30.169C46.7553 30.1496 46.7359 30.1496 46.7166 30.1303C46.7166 30.1496 46.8326 30.227 46.8713 30.2463C46.9293 30.3043 46.968 30.343 47.026 30.401C47.0647 30.4397 47.084 30.4591 47.1034 30.4977C47.0454 30.401 47.1807 30.5751 47.1034 30.4977C47.1614 30.5944 47.2194 30.6718 47.2774 30.7685C47.3161 30.8458 47.3741 30.9425 47.4128 31.0199V31.0392C47.3935 30.9425 47.4708 31.1359 47.4128 31.0392V31.0586C47.4321 31.1166 47.4515 31.1553 47.4708 31.2133C47.5482 31.426 47.5869 31.6388 47.6255 31.8708C47.6255 31.8902 47.6255 31.8902 47.6255 31.9095C47.6255 31.8128 47.6449 32.0062 47.6255 31.9095C47.6255 31.9288 47.6255 31.9288 47.6255 31.9482C47.6255 32.0062 47.6449 32.0642 47.6449 32.1416C47.6449 32.277 47.6642 32.4123 47.6642 32.5284C47.6642 32.7991 47.6449 33.0892 47.6062 33.36C47.6062 33.3406 47.6062 33.3406 47.6062 33.3793V33.36C47.6062 33.3986 47.5869 33.4567 47.5869 33.4567C47.5869 33.4953 47.5675 33.534 47.5675 33.5727C47.5482 33.6887 47.5288 33.8048 47.5095 33.9208C47.4515 34.1529 47.3935 34.385 47.3354 34.617C47.2387 34.9845 47.1034 35.3519 47.0067 35.7194C46.7939 36.4349 46.6779 37.1698 47.0067 37.866C47.3935 38.6783 48.2637 39.1424 49.0566 39.4712C49.5788 39.6839 50.0816 39.8967 50.6425 39.974C51.184 40.0514 51.7448 40.0707 52.3057 40.032C53.6787 39.9353 55.0518 39.5872 56.3476 39.1038C57.682 38.6009 58.9777 37.9627 60.1381 37.1118C60.4088 36.9184 60.5442 36.5703 60.3702 36.2415C60.0994 36.0481 59.674 35.8934 59.4032 36.0868Z" fill="#21223F"/>
<path d="M46.6191 30.1689C46.6382 30.188 46.6573 30.188 46.6763 30.2071C46.6191 30.1689 46.6191 30.1689 46.6191 30.1689Z" fill="#21223F"/>
<path d="M46.1367 29.8984C46.1367 29.8984 46.1367 29.8984 46.1558 29.9175C46.1558 29.8984 46.1558 29.8984 46.1367 29.8984C46.1558 29.8984 46.1558 29.8984 46.1367 29.8984Z" fill="#21223F"/>
<path d="M47.0074 30.5551C46.9502 30.4597 47.1027 30.6313 47.0074 30.5551V30.5551Z" fill="#21223F"/>
<path d="M58.3787 42.1982H58.3594C58.3981 42.2176 58.4174 42.2369 58.3787 42.1982Z" fill="#21223F"/>
<path d="M61.1436 41.1342C61.1063 41.1529 61.1809 41.0969 61.1436 41.1342V41.1342Z" fill="#21223F"/>
<path d="M63.213 38.8519C62.2267 39.084 61.279 39.4514 60.4668 40.0703C59.8866 40.5151 59.4225 41.0373 58.9776 41.6174C58.9196 41.7141 58.8423 41.7915 58.7843 41.8882C58.7843 41.8882 58.7843 41.8882 58.7649 41.9075C58.6876 42.0236 58.8229 41.8495 58.7649 41.9075C58.7262 41.9462 58.6876 41.9849 58.6489 42.0429C58.6296 42.0622 58.5909 42.1009 58.5715 42.1203C58.5715 42.1203 58.5715 42.1203 58.5909 42.1203C58.5909 42.1203 58.5715 42.1203 58.5522 42.1396L58.5328 42.1589L58.5135 42.1783C58.5522 42.1783 58.4168 42.217 58.4748 42.1783C58.4555 42.1783 58.4168 42.1976 58.3975 42.1976C58.4555 42.1976 58.4748 42.1783 58.3975 42.1976C58.3975 42.1976 58.4168 42.1976 58.4362 42.217C58.4168 42.217 58.4168 42.217 58.3975 42.217C58.3975 42.217 58.3975 42.217 58.3781 42.217C58.4168 42.2556 58.3781 42.2363 58.3588 42.217C58.3395 42.217 58.3395 42.1976 58.3395 42.1976C58.3395 42.217 58.2234 42.1203 58.3201 42.1589C58.2814 42.1203 58.2428 42.0816 58.2234 42.0429C58.2234 42.0429 58.2234 42.0429 58.1847 42.0042C58.2041 42.0236 58.2041 42.0236 58.2234 42.0429C58.2234 42.0236 58.1461 41.9269 58.1267 41.9075C58.088 41.8302 58.0494 41.7528 58.0107 41.6755C57.9913 41.6368 57.972 41.6174 57.972 41.5788C57.972 41.5594 57.972 41.5594 57.9527 41.5594C57.914 41.4821 57.9913 41.6561 57.9527 41.5594C57.9527 41.5594 57.9527 41.5401 57.9333 41.5401C57.8947 41.4434 57.856 41.366 57.8366 41.2693C57.6819 40.8052 57.5852 40.341 57.4885 39.8769C57.4692 39.7609 57.4498 39.6448 57.4305 39.5288C57.4305 39.4708 57.4112 39.4321 57.4112 39.3741C57.4112 39.3547 57.4112 39.3547 57.4112 39.3354C57.4112 39.2774 57.4112 39.3934 57.4112 39.3354C57.4112 39.3354 57.4112 39.316 57.4112 39.2967C57.3918 39.084 57.3531 38.8519 57.3338 38.6392C57.2951 38.2911 57.0631 38.001 56.6956 38.001C56.3862 38.001 56.0381 38.2911 56.0574 38.6392C56.1348 39.5288 56.2701 40.4377 56.5022 41.308C56.7149 42.0429 57.0437 42.9712 57.798 43.3193C58.4555 43.6287 59.1904 43.358 59.6352 42.8165C59.8092 42.6037 59.964 42.3717 60.138 42.1589C60.1187 42.1783 60.138 42.1589 60.1767 42.1009C60.1574 42.1203 60.1574 42.1396 60.138 42.1589C60.1574 42.1396 60.2154 42.0622 60.2347 42.0429C60.2734 41.9849 60.3314 41.9269 60.3701 41.8688C60.4861 41.7335 60.6022 41.5981 60.7375 41.4821C60.8149 41.4047 60.8923 41.3467 60.9696 41.2693C61.0083 41.2306 61.047 41.192 61.105 41.1726C61.1243 41.1726 61.1243 41.1533 61.1243 41.1533C61.0856 41.1726 61.163 41.1146 61.1243 41.1533C61.1243 41.1533 61.1437 41.1339 61.163 41.1339C61.3564 40.9792 61.5691 40.8439 61.8012 40.7278C62.3427 40.4184 62.9035 40.2443 63.5417 40.0896C63.8705 40.0123 64.0639 39.6255 63.9865 39.3161C63.8899 38.9486 63.5417 38.7745 63.213 38.8519Z" fill="#21223F"/>
<path d="M60.1579 42.1392C60.1769 42.1202 60.177 42.1011 60.196 42.082C60.1388 42.1583 60.1388 42.1583 60.1579 42.1392Z" fill="#21223F"/>
<path d="M58.5709 42.1204C58.5709 42.1014 58.5327 42.1395 58.5137 42.1586C58.5327 42.1395 58.5518 42.1395 58.5709 42.1204Z" fill="#21223F"/>
<path d="M58.7644 41.9079C58.6882 42.0032 58.8216 41.8316 58.7644 41.9079V41.9079Z" fill="#21223F"/>
<path d="M58.5135 42.1785C58.5135 42.1785 58.5135 42.1592 58.5328 42.1592C58.5135 42.1785 58.4941 42.1785 58.4941 42.1785C58.4941 42.1785 58.4941 42.1785 58.5135 42.1785Z" fill="#21223F"/>
<path d="M58.5135 42.1787C58.4945 42.1787 58.4945 42.1787 58.4754 42.1787C58.4182 42.2168 58.5517 42.1787 58.5135 42.1787Z" fill="#21223F"/>
<path d="M58.3381 42.1972C58.319 42.1782 58.319 42.1782 58.3381 42.1972C58.3381 42.1782 58.3381 42.1782 58.319 42.1591C58.2237 42.121 58.319 42.1972 58.3381 42.1972Z" fill="#21223F"/>
<path d="M57.9329 41.5597C57.8948 41.4644 57.971 41.6551 57.9329 41.5597V41.5597Z" fill="#21223F"/>
<path d="M58.3785 42.1981C58.3592 42.1787 58.3398 42.1787 58.3398 42.1787C58.3398 42.1787 58.3398 42.1981 58.3785 42.1981Z" fill="#21223F"/>
<path d="M58.2047 42.0436C58.1853 42.0242 58.1854 42.0242 58.166 42.0049C58.2047 42.0436 58.224 42.0436 58.2047 42.0436Z" fill="#21223F"/>
<path d="M58.3396 42.1785C58.3396 42.1785 58.3397 42.1785 58.359 42.1785C58.3397 42.1592 58.3203 42.1592 58.3203 42.1592C58.3203 42.1785 58.3396 42.1785 58.3396 42.1785Z" fill="#21223F"/>
<path d="M57.4106 39.3348C57.392 39.2788 57.4106 39.3721 57.4106 39.3348V39.3348Z" fill="#21223F"/>
<path d="M58.398 42.1981C58.398 42.1981 58.3787 42.1981 58.3594 42.1787C58.3787 42.1981 58.3787 42.1981 58.398 42.1981Z" fill="#21223F"/>
<path d="M58.3785 42.1981C58.3398 42.1981 58.3398 42.1787 58.3398 42.1787C58.3398 42.1981 58.3592 42.1981 58.3785 42.1981Z" fill="#21223F"/>
<path d="M58.3594 42.2174H58.3784C58.3784 42.1984 58.3784 42.1984 58.3594 42.2174Z" fill="#21223F"/>
<path d="M59.1315 62.7939C59.1124 62.813 59.1124 62.813 59.1315 62.7939V62.7939Z" fill="#21223F"/>
<path d="M53.6797 64.9219C53.6988 64.9219 53.6988 64.9219 53.6797 64.9219C53.6797 64.9409 53.6797 64.9409 53.6797 64.9219Z" fill="#21223F"/>
<path d="M45.4012 62.8139L45.3818 62.7945C45.3625 62.7559 45.3625 62.7559 45.4012 62.8139Z" fill="#21223F"/>
<path d="M60.3695 61.5756C60.1761 61.8077 59.9633 62.0398 59.7506 62.2525C59.6539 62.3492 59.5379 62.4459 59.4412 62.5426C59.3831 62.6006 59.3251 62.6393 59.2478 62.6973C59.2284 62.7166 59.1317 62.794 59.1124 62.794C59.1124 62.794 59.1317 62.794 59.1317 62.7746C59.1124 62.794 59.1124 62.794 59.1124 62.794C58.6289 63.1614 58.1068 63.4902 57.5459 63.761C57.4105 63.819 57.2752 63.8963 57.1591 63.9543C56.9851 64.0317 56.9657 64.051 56.811 64.1091C56.5209 64.2251 56.2115 64.3411 55.9214 64.4378C55.3219 64.6312 54.703 64.7859 54.0648 64.8826C53.9875 64.902 53.9101 64.902 53.8521 64.9213C53.8134 64.9213 53.6974 64.9407 53.678 64.9407C53.6587 64.9407 53.5427 64.96 53.504 64.96C53.4073 64.9793 53.3106 64.9793 53.2139 64.9987C52.9045 65.0373 52.6144 65.0567 52.3049 65.0567C51.6861 65.076 51.0672 65.0567 50.4677 64.9987C50.3323 64.9793 50.197 64.96 50.0422 64.96H50.0229C50.0229 64.96 50.0229 64.96 50.0422 64.96C50.0422 64.96 50.0229 64.96 50.0036 64.96C49.9649 64.96 49.9842 64.96 50.0036 64.96H50.0229C49.9842 64.96 49.9455 64.9407 49.9262 64.9407C49.8488 64.9213 49.7715 64.9213 49.6941 64.902C49.404 64.8633 49.1333 64.8053 48.8432 64.7279C48.5725 64.6699 48.3017 64.5925 48.0503 64.4959C47.9342 64.4572 47.8182 64.4185 47.7022 64.3798C47.6442 64.3605 47.5861 64.3411 47.5281 64.3218C47.5088 64.3025 47.4701 64.3025 47.4508 64.2831C47.5088 64.3025 47.3541 64.2444 47.4314 64.2831C47.4314 64.2831 47.4314 64.2831 47.4508 64.2831C47.18 64.1671 46.9286 64.0317 46.6772 63.8963C46.5612 63.819 46.4451 63.761 46.3291 63.6836C46.2711 63.6449 46.2324 63.6062 46.1744 63.5676C46.155 63.5482 46.1164 63.5289 46.097 63.5095L46.1163 63.5289C46.0583 63.4902 46.0583 63.4902 46.097 63.5095C45.9036 63.3548 45.7296 63.2001 45.5555 63.0067C45.5168 62.968 45.4781 62.9294 45.4395 62.8713C45.4201 62.852 45.4008 62.8133 45.3815 62.794L45.4008 62.8133C45.3621 62.7553 45.3621 62.7553 45.3815 62.794C45.3234 62.6973 45.2461 62.6006 45.1881 62.5039C44.7626 61.8077 43.6796 62.4459 44.1051 63.1421C45.2654 65.0567 47.6635 65.8883 49.7908 66.1784C52.4597 66.5458 55.2445 66.1977 57.72 65.0954C59.0737 64.4958 60.3308 63.6256 61.2784 62.4846C61.4911 62.2331 61.5298 61.8464 61.2784 61.5949C61.0463 61.3629 60.6015 61.3242 60.3695 61.5756Z" fill="#21223F"/>
<path d="M46.1166 63.5096L46.0973 63.4902C46.0586 63.4709 46.0586 63.4709 46.1166 63.5096Z" fill="#21223F"/>
<path d="M47.4506 64.2641C47.3539 64.2254 47.5086 64.3028 47.4506 64.2641V64.2641Z" fill="#21223F"/>
<path d="M62.1499 62.1563C61.8018 62.0596 61.4923 62.2723 61.3763 62.6011C59.7905 67.2812 58.8042 72.2514 58.6108 77.183C58.5527 78.4787 58.5721 79.7938 58.6688 81.1088C58.6881 81.457 58.9395 81.747 59.307 81.747C59.6358 81.747 59.9645 81.457 59.9452 81.1088C59.5971 76.332 60.2933 71.4392 61.473 66.8171C61.8018 65.5213 62.1885 64.2256 62.614 62.9492C62.7107 62.6011 62.4786 62.2336 62.1499 62.1563Z" fill="#21223F"/>
<path d="M64.9153 63.8389C64.5479 63.7422 64.2771 63.9549 64.1417 64.2837C63.3488 66.179 62.846 68.1902 62.4785 70.2209C62.0917 72.3675 61.8403 74.5336 61.7436 76.6996C61.705 77.7632 61.6856 78.8076 61.7436 79.8712C61.763 80.2193 62.0144 80.5094 62.3818 80.5094C62.7106 80.5094 63.0394 80.2193 63.02 79.8712C62.9233 77.9179 63.02 75.9647 63.2134 74.0307C63.4262 71.9227 63.7936 69.8148 64.3351 67.7648C64.6252 66.7011 64.954 65.6375 65.3794 64.6318C65.4761 64.303 65.2054 63.9162 64.9153 63.8389Z" fill="#21223F"/>
<path d="M40.3147 63.7998C39.9666 63.7031 39.6572 63.9159 39.5411 64.2446C38.2261 67.8224 37.7813 71.729 37.6459 75.5195C37.6072 76.6412 37.5879 77.7822 37.6266 78.9039C37.6459 79.7161 38.903 79.7161 38.8836 78.9039C38.7869 75.0553 39.0383 71.1488 39.9279 67.4163C40.16 66.4687 40.4308 65.521 40.7595 64.5927C40.8756 64.264 40.6241 63.8965 40.3147 63.7998Z" fill="#21223F"/>
<path d="M43.6031 62.6201C43.2356 62.5234 42.9455 62.7362 42.8295 63.0649C41.1276 67.3583 40.5475 71.9997 40.6055 76.6025C40.6248 77.9949 40.7022 79.3874 40.8182 80.7605C40.8376 81.1086 41.089 81.3987 41.4564 81.3987C41.7852 81.3987 42.1139 81.1086 42.0946 80.7605C41.7272 76.177 41.7465 71.4969 42.8875 67.0102C43.197 65.7725 43.6031 64.5734 44.0672 63.3937C44.1639 63.0843 43.8932 62.7168 43.6031 62.6201Z" fill="#21223F"/>
</svg>
