<svg width="60" height="60" viewBox="0 0 60 60" fill="none" xmlns="http://www.w3.org/2000/svg">
<rect width="60" height="60" rx="30" fill="#E5E7EB"/>
<path d="M5.58931 34V25.2727H7.17028V29.2827H7.27681L10.6816 25.2727H12.612L9.23704 29.1889L12.6419 34H10.7413L8.13761 30.2585L7.17028 31.4006V34H5.58931ZM21.04 29.6364C21.04 30.5767 20.8638 31.3821 20.5115 32.0526C20.1621 32.7202 19.6848 33.2315 19.0797 33.5866C18.4775 33.9418 17.7942 34.1193 17.03 34.1193C16.2658 34.1193 15.5811 33.9418 14.976 33.5866C14.3738 33.2287 13.8965 32.7159 13.5442 32.0483C13.1948 31.3778 13.0201 30.5739 13.0201 29.6364C13.0201 28.696 13.1948 27.892 13.5442 27.2244C13.8965 26.554 14.3738 26.0412 14.976 25.6861C15.5811 25.331 16.2658 25.1534 17.03 25.1534C17.7942 25.1534 18.4775 25.331 19.0797 25.6861C19.6848 26.0412 20.1621 26.554 20.5115 27.2244C20.8638 27.892 21.04 28.696 21.04 29.6364ZM19.4505 29.6364C19.4505 28.9744 19.3468 28.4162 19.1394 27.9616C18.9348 27.5043 18.6507 27.1591 18.2871 26.9261C17.9235 26.6903 17.5044 26.5724 17.03 26.5724C16.5556 26.5724 16.1365 26.6903 15.7729 26.9261C15.4093 27.1591 15.1238 27.5043 14.9164 27.9616C14.7118 28.4162 14.6096 28.9744 14.6096 29.6364C14.6096 30.2983 14.7118 30.858 14.9164 31.3153C15.1238 31.7699 15.4093 32.1151 15.7729 32.3509C16.1365 32.5838 16.5556 32.7003 17.03 32.7003C17.5044 32.7003 17.9235 32.5838 18.2871 32.3509C18.6507 32.1151 18.9348 31.7699 19.1394 31.3153C19.3468 30.858 19.4505 30.2983 19.4505 29.6364ZM27.2775 27.6719C27.2377 27.2997 27.0701 27.0099 26.7747 26.8026C26.4821 26.5952 26.1014 26.4915 25.6326 26.4915C25.3031 26.4915 25.0204 26.5412 24.7846 26.6406C24.5488 26.7401 24.3684 26.875 24.2434 27.0455C24.1184 27.2159 24.0545 27.4105 24.0517 27.6293C24.0517 27.8111 24.0929 27.9687 24.1752 28.1023C24.2605 28.2358 24.3755 28.3494 24.5204 28.4432C24.6653 28.5341 24.8258 28.6108 25.002 28.6733C25.1781 28.7358 25.3556 28.7884 25.5346 28.831L26.3528 29.0355C26.6824 29.1122 26.9991 29.2159 27.3031 29.3466C27.6099 29.4773 27.8841 29.642 28.1255 29.8409C28.3699 30.0398 28.563 30.2798 28.7051 30.5611C28.8471 30.8423 28.9181 31.1719 28.9181 31.5497C28.9181 32.0611 28.7875 32.5114 28.5261 32.9006C28.2647 33.2869 27.8869 33.5895 27.3926 33.8082C26.9011 34.0241 26.3059 34.1321 25.6071 34.1321C24.9281 34.1321 24.3386 34.027 23.8386 33.8168C23.3414 33.6065 22.9522 33.2997 22.671 32.8963C22.3926 32.4929 22.242 32.0014 22.2193 31.4219H23.7747C23.7974 31.7259 23.8912 31.9787 24.0559 32.1804C24.2207 32.3821 24.4352 32.5327 24.6994 32.6321C24.9664 32.7315 25.2647 32.7812 25.5943 32.7812C25.938 32.7812 26.2392 32.7301 26.4977 32.6278C26.7591 32.5227 26.9636 32.3778 27.1113 32.1932C27.2591 32.0057 27.3343 31.7869 27.3372 31.5369C27.3343 31.3097 27.2676 31.1222 27.1369 30.9744C27.0062 30.8239 26.823 30.6989 26.5872 30.5994C26.3542 30.4972 26.0815 30.4062 25.769 30.3267L24.7761 30.071C24.0574 29.8864 23.4892 29.6065 23.0716 29.2315C22.6568 28.8537 22.4494 28.3523 22.4494 27.7273C22.4494 27.2131 22.5886 26.7628 22.867 26.3764C23.1483 25.9901 23.5304 25.6903 24.0133 25.4773C24.4963 25.2614 25.0431 25.1534 25.6539 25.1534C26.2733 25.1534 26.8159 25.2614 27.2818 25.4773C27.7505 25.6903 28.1184 25.9872 28.3855 26.3679C28.6525 26.7457 28.7903 27.1804 28.7988 27.6719H27.2775ZM33.285 34H30.3276V25.2727H33.3446C34.2111 25.2727 34.9554 25.4474 35.5776 25.7969C36.2026 26.1435 36.6827 26.642 37.0179 27.2926C37.3532 27.9432 37.5208 28.7216 37.5208 29.6278C37.5208 30.5369 37.3517 31.3182 37.0137 31.9716C36.6784 32.625 36.1941 33.1264 35.5605 33.4759C34.9299 33.8253 34.1713 34 33.285 34ZM31.9086 32.6321H33.2083C33.8162 32.6321 34.3233 32.5213 34.7296 32.2997C35.1358 32.0753 35.4412 31.7415 35.6458 31.2983C35.8503 30.8523 35.9526 30.2955 35.9526 29.6278C35.9526 28.9602 35.8503 28.4062 35.6458 27.9659C35.4412 27.5227 35.1387 27.1918 34.7381 26.973C34.3404 26.7514 33.8461 26.6406 33.2551 26.6406H31.9086V32.6321ZM39.6749 34H37.9874L41.0598 25.2727H43.0115L46.0882 34H44.4007L42.0698 27.0625H42.0016L39.6749 34ZM39.7303 30.5781H44.3326V31.848H39.7303V30.5781ZM50.079 31.0682H51.5108L52.3588 32.1676L52.964 32.8835L54.4171 34.75H52.883L51.8944 33.4972L51.4725 32.9006L50.079 31.0682ZM54.6259 29.6364C54.6259 30.5767 54.4498 31.3821 54.0975 32.0526C53.748 32.7202 53.2708 33.2315 52.6657 33.5866C52.0634 33.9418 51.3801 34.1193 50.6159 34.1193C49.8517 34.1193 49.1671 33.9418 48.562 33.5866C47.9597 33.2287 47.4824 32.7159 47.1301 32.0483C46.7807 31.3778 46.606 30.5739 46.606 29.6364C46.606 28.696 46.7807 27.892 47.1301 27.2244C47.4824 26.554 47.9597 26.0412 48.562 25.6861C49.1671 25.331 49.8517 25.1534 50.6159 25.1534C51.3801 25.1534 52.0634 25.331 52.6657 25.6861C53.2708 26.0412 53.748 26.554 54.0975 27.2244C54.4498 27.892 54.6259 28.696 54.6259 29.6364ZM53.0364 29.6364C53.0364 28.9744 52.9327 28.4162 52.7253 27.9616C52.5208 27.5043 52.2367 27.1591 51.873 26.9261C51.5094 26.6903 51.0904 26.5724 50.6159 26.5724C50.1415 26.5724 49.7225 26.6903 49.3588 26.9261C48.9952 27.1591 48.7097 27.5043 48.5023 27.9616C48.2978 28.4162 48.1955 28.9744 48.1955 29.6364C48.1955 30.2983 48.2978 30.858 48.5023 31.3153C48.7097 31.7699 48.9952 32.1151 49.3588 32.3509C49.7225 32.5838 50.1415 32.7003 50.6159 32.7003C51.0904 32.7003 51.5094 32.5838 51.873 32.3509C52.2367 32.1151 52.5208 31.7699 52.7253 31.3153C52.9327 30.858 53.0364 30.2983 53.0364 29.6364Z" fill="#136DAD"/>
</svg>
