<svg width="60" height="60" viewBox="0 0 60 60" fill="none" xmlns="http://www.w3.org/2000/svg">
<rect width="60" height="60" rx="30" fill="#E5E7EB"/>
<path d="M10.1478 35V24.8182H11.9923V29.4964H12.1166L16.0889 24.8182H18.341L14.4035 29.3871L18.3758 35H16.1585L13.1208 30.6349L11.9923 31.9673V35H10.1478ZM28.1736 29.9091C28.1736 31.0062 27.9681 31.9458 27.5571 32.728C27.1494 33.5069 26.5926 34.1035 25.8866 34.5178C25.184 34.9321 24.3869 35.1392 23.4953 35.1392C22.6037 35.1392 21.805 34.9321 21.099 34.5178C20.3963 34.1001 19.8395 33.5019 19.4285 32.723C19.0209 31.9408 18.817 31.0028 18.817 29.9091C18.817 28.812 19.0209 27.8741 19.4285 27.0952C19.8395 26.313 20.3963 25.7147 21.099 25.3004C21.805 24.8861 22.6037 24.679 23.4953 24.679C24.3869 24.679 25.184 24.8861 25.8866 25.3004C26.5926 25.7147 27.1494 26.313 27.5571 27.0952C27.9681 27.8741 28.1736 28.812 28.1736 29.9091ZM26.3192 29.9091C26.3192 29.1368 26.1982 28.4856 25.9562 27.9553C25.7176 27.4216 25.3862 27.0189 24.9619 26.7472C24.5377 26.4721 24.0488 26.3345 23.4953 26.3345C22.9418 26.3345 22.4529 26.4721 22.0287 26.7472C21.6044 27.0189 21.2713 27.4216 21.0294 27.9553C20.7907 28.4856 20.6714 29.1368 20.6714 29.9091C20.6714 30.6813 20.7907 31.3343 21.0294 31.8679C21.2713 32.3982 21.6044 32.8009 22.0287 33.076C22.4529 33.3478 22.9418 33.4837 23.4953 33.4837C24.0488 33.4837 24.5377 33.3478 24.9619 33.076C25.3862 32.8009 25.7176 32.3982 25.9562 31.8679C26.1982 31.3343 26.3192 30.6813 26.3192 29.9091ZM35.4507 27.6172C35.4043 27.183 35.2088 26.8449 34.8641 26.603C34.5227 26.361 34.0786 26.2401 33.5317 26.2401C33.1472 26.2401 32.8174 26.2981 32.5423 26.4141C32.2673 26.5301 32.0568 26.6875 31.911 26.8864C31.7651 27.0852 31.6905 27.3123 31.6872 27.5675C31.6872 27.7796 31.7353 27.9635 31.8314 28.1193C31.9308 28.2751 32.0651 28.4077 32.2341 28.517C32.4031 28.6231 32.5904 28.7126 32.7959 28.7855C33.0014 28.8584 33.2085 28.9197 33.4173 28.9695L34.3719 29.2081C34.7564 29.2976 35.1259 29.4186 35.4806 29.571C35.8385 29.7235 36.1584 29.9157 36.4401 30.1477C36.7251 30.3797 36.9505 30.6598 37.1162 30.9879C37.2819 31.3161 37.3648 31.7005 37.3648 32.1413C37.3648 32.7379 37.2123 33.2633 36.9074 33.7173C36.6025 34.1681 36.1617 34.5211 35.585 34.7763C35.0116 35.0282 34.3172 35.1541 33.5019 35.1541C32.7097 35.1541 32.022 35.0315 31.4387 34.7862C30.8586 34.541 30.4046 34.183 30.0764 33.7124C29.7516 33.2417 29.576 32.6683 29.5494 31.9922H31.3641C31.3906 32.3468 31.5 32.6418 31.6922 32.8771C31.8844 33.1125 32.1347 33.2881 32.4429 33.4041C32.7545 33.5201 33.1025 33.5781 33.4869 33.5781C33.888 33.5781 34.2393 33.5185 34.5409 33.3991C34.8459 33.2765 35.0845 33.1075 35.2568 32.892C35.4292 32.6733 35.517 32.4181 35.5203 32.1264C35.517 31.8613 35.4391 31.6425 35.2867 31.4702C35.1342 31.2945 34.9204 31.1487 34.6453 31.0327C34.3736 30.9134 34.0554 30.8073 33.6908 30.7145L32.5324 30.4162C31.6939 30.2008 31.031 29.8743 30.5438 29.4368C30.0599 28.996 29.8179 28.411 29.8179 27.6818C29.8179 27.0819 29.9803 26.5566 30.3051 26.1058C30.6333 25.6551 31.079 25.3054 31.6425 25.0568C32.2059 24.8049 32.844 24.679 33.5566 24.679C34.2791 24.679 34.9121 24.8049 35.4557 25.0568C36.0026 25.3054 36.4318 25.6518 36.7433 26.0959C37.0549 26.5367 37.2156 27.0438 37.2256 27.6172H35.4507ZM39.0091 35V24.8182H42.8273C43.6095 24.8182 44.2658 24.964 44.7961 25.2557C45.3297 25.5473 45.7324 25.9484 46.0042 26.4588C46.2793 26.9659 46.4168 27.5426 46.4168 28.1889C46.4168 28.8419 46.2793 29.4219 46.0042 29.929C45.7291 30.4361 45.3231 30.8355 44.7861 31.1271C44.2492 31.4155 43.588 31.5597 42.8025 31.5597H40.2719V30.0433H42.5539C43.0113 30.0433 43.3858 29.9638 43.6775 29.8047C43.9691 29.6456 44.1846 29.4268 44.3238 29.1484C44.4663 28.87 44.5376 28.5502 44.5376 28.1889C44.5376 27.8277 44.4663 27.5095 44.3238 27.2344C44.1846 26.9593 43.9675 26.7455 43.6725 26.593C43.3808 26.4373 43.0046 26.3594 42.5439 26.3594H40.8536V35H39.0091ZM49.8634 24.8182V35H48.0189V24.8182H49.8634Z" fill="#136DAD"/>
</svg>
