<svg width="64" height="36" viewBox="0 0 64 36" fill="none" xmlns="http://www.w3.org/2000/svg">
<g id="Frame 1000004757">
<g id="Group" opacity="0.5">
<path id="Vector" d="M23.8136 12.9142C23.8136 19.4941 18.4829 24.8279 11.9068 24.8279C5.33078 24.8279 0 19.4941 0 12.9142C0 6.33436 5.33078 1.00049 11.9068 1.00049C14.929 1.00049 17.6891 2.12733 19.7885 3.98471L17.011 6.51141C15.612 5.39202 13.8375 4.72353 11.9068 4.72353C7.38554 4.72353 3.72088 8.39031 3.72088 12.9142C3.72088 17.4381 7.38554 21.1049 11.9068 21.1049C16.4281 21.1049 20.0928 17.4381 20.0928 12.9142C20.0928 12.5667 20.0713 12.225 20.0291 11.8891L23.1679 9.03398C23.5863 10.2502 23.8136 11.5557 23.8136 12.9142Z" fill="#313539"/>
<path id="Vector_2" d="M32.0002 1.68262V20.3599L27.5352 24.8275V5.77796L32.0002 1.68262Z" fill="url(#paint0_linear_3438_102166)"/>
<path id="Vector_3" d="M32.0011 1.00049L27.536 5.06191L23.1694 9.03398L20.0306 11.8891L15.6292 15.8926H9.67578L18.4141 7.94437L21.175 5.43339L26.0477 1.00049H32.0011Z" fill="url(#paint1_linear_3438_102166)"/>
<path id="Vector_4" d="M45.3954 6.95557V12.9124L33.4886 24.8262H27.5352L45.3954 6.95557Z" fill="url(#paint2_linear_3438_102166)"/>
<path id="Vector_5" d="M49.6935 4.72353V10.6804H63.9983V14.4034H49.6935V21.1049H63.9983V24.8279H45.9727V1.00049H63.9983V4.72353H49.6935Z" fill="#313539"/>
<g id="Group_2">
<path id="Vector_6" d="M3.57949 32.8531C3.5183 32.9027 3.43727 32.9532 3.33639 33.0053C3.23551 33.0566 3.11893 33.103 2.98663 33.1427C2.85516 33.1824 2.72038 33.2163 2.58312 33.2428C2.44586 33.2692 2.3177 33.2833 2.19945 33.2833C1.85961 33.2833 1.55533 33.232 1.28577 33.1286C1.01621 33.0252 0.786346 32.8829 0.595341 32.7017C0.404336 32.5205 0.257154 32.3062 0.154623 32.0597C0.0520923 31.8131 0 31.5409 0 31.2431C0 30.884 0.0578804 30.5655 0.174468 30.2892C0.291056 30.012 0.447333 29.7787 0.644126 29.5901C0.840919 29.4006 1.06831 29.2583 1.32546 29.1631C1.58344 29.068 1.85548 29.02 2.14157 29.02C2.39377 29.02 2.62777 29.049 2.84358 29.1061C3.05939 29.1632 3.24544 29.236 3.40171 29.3237L3.17846 29.9425C3.1057 29.897 3.01309 29.8556 2.90063 29.8192C2.78818 29.7828 2.67242 29.7522 2.55418 29.7274C2.43594 29.7026 2.32679 29.6902 2.22757 29.6902C1.99109 29.6902 1.77693 29.7233 1.58592 29.7903C1.39492 29.8573 1.23285 29.9557 1.0989 30.0856C0.964949 30.2155 0.863245 30.3736 0.792135 30.5589C0.721024 30.7442 0.686296 30.9535 0.686296 31.186C0.686296 31.4036 0.724331 31.6005 0.80123 31.7767C0.877301 31.9521 0.981486 32.1035 1.11378 32.2293C1.24526 32.355 1.40484 32.4518 1.59171 32.5188C1.77858 32.5859 1.9853 32.619 2.2102 32.619C2.34002 32.619 2.4657 32.6074 2.58808 32.585C2.71046 32.5619 2.81547 32.5255 2.90311 32.4758V31.7825H2.11842V31.1347H3.57866V32.8539L3.57949 32.8531Z" fill="#313539"/>
<path id="Vector_7" d="M5.57997 33.2196C5.3071 33.2196 5.07145 33.1658 4.87134 33.0574C4.67124 32.949 4.5191 32.7993 4.41492 32.609C4.31073 32.4187 4.25781 32.2003 4.25781 31.9538C4.25781 31.7072 4.31735 31.4995 4.43724 31.3093C4.55631 31.119 4.71838 30.9667 4.92178 30.8526C5.12519 30.7384 5.3501 30.6821 5.5965 30.6821C5.92146 30.6821 6.18936 30.7764 6.40021 30.9651C6.61106 31.1537 6.75246 31.4201 6.82274 31.7635L4.91269 32.408L4.77295 32.0547L6.25717 31.5227L6.13396 31.6013C6.09262 31.4855 6.02564 31.3854 5.93221 31.3018C5.83877 31.2174 5.70978 31.1761 5.54606 31.1761C5.41542 31.1761 5.29966 31.2075 5.19878 31.2712C5.09791 31.3349 5.01853 31.4218 4.96065 31.5318C4.90277 31.6418 4.87383 31.7701 4.87383 31.9157C4.87383 32.0762 4.90525 32.2135 4.96891 32.3277C5.03258 32.4419 5.11858 32.5296 5.2269 32.5908C5.33521 32.6529 5.45842 32.6835 5.5965 32.6835C5.69325 32.6835 5.78668 32.6669 5.87681 32.633C5.96611 32.5991 6.05045 32.5544 6.129 32.4981L6.41427 32.9631C6.29107 33.0417 6.15546 33.1038 6.00828 33.1509C5.8611 33.1972 5.71805 33.2212 5.57997 33.2212V33.2196Z" fill="#313539"/>
<path id="Vector_8" d="M8.06061 30.8668L8.11684 31.3764L8.1003 31.3094C8.17885 31.1448 8.29875 31.0132 8.46164 30.914C8.62371 30.8147 8.81719 30.7659 9.04127 30.7659C9.26535 30.7659 9.44561 30.8321 9.59279 30.9644C9.73997 31.0968 9.81604 31.2664 9.81935 31.4716V33.2363H9.19176V31.7008C9.18763 31.5816 9.15455 31.4848 9.09088 31.412C9.02721 31.3392 8.92634 31.3012 8.78825 31.297C8.66091 31.297 8.54681 31.3351 8.44345 31.412C8.34092 31.489 8.26237 31.5932 8.20862 31.7256C8.15405 31.858 8.12759 32.0127 8.12759 32.1881V33.2355H7.5V30.8652H8.05979L8.06061 30.8668Z" fill="#313539"/>
<path id="Vector_9" d="M11.8612 33.2196C11.5884 33.2196 11.3527 33.1658 11.1526 33.0574C10.9525 32.949 10.8004 32.7993 10.6962 32.609C10.592 32.4187 10.5391 32.2003 10.5391 31.9538C10.5391 31.7072 10.5986 31.4995 10.7185 31.3093C10.8376 31.119 10.9996 30.9667 11.203 30.8526C11.4064 30.7384 11.6313 30.6821 11.8778 30.6821C12.2027 30.6821 12.4706 30.7764 12.6815 30.9651C12.8923 31.1537 13.0337 31.4201 13.104 31.7635L11.1939 32.408L11.0542 32.0547L12.5384 31.5227L12.4152 31.6013C12.3739 31.4855 12.3069 31.3854 12.2135 31.3018C12.12 31.2174 11.991 31.1761 11.8273 31.1761C11.6967 31.1761 11.5809 31.2075 11.48 31.2712C11.3792 31.3349 11.2998 31.4218 11.2419 31.5318C11.184 31.6418 11.1551 31.7701 11.1551 31.9157C11.1551 32.0762 11.1865 32.2135 11.2502 32.3277C11.3138 32.4419 11.3998 32.5296 11.5081 32.5908C11.6165 32.6529 11.7397 32.6835 11.8778 32.6835C11.9745 32.6835 12.0679 32.6669 12.1581 32.633C12.2474 32.5991 12.3317 32.5544 12.4103 32.4981L12.6955 32.9631C12.5723 33.0417 12.4367 33.1038 12.2895 33.1509C12.1423 33.1972 11.9993 33.2212 11.8612 33.2212V33.2196Z" fill="#313539"/>
<path id="Vector_10" d="M14.3361 30.8658L14.3973 31.5384L14.3807 31.4432C14.4403 31.3009 14.5304 31.1801 14.6495 31.0792C14.7685 30.9783 14.8901 30.8997 15.0133 30.8434C15.1365 30.7872 15.239 30.759 15.3217 30.759L15.2828 31.387C15.1075 31.3721 14.9529 31.4035 14.8206 31.4821C14.6883 31.5607 14.5858 31.6658 14.5122 31.799C14.4394 31.9314 14.4031 32.0704 14.4031 32.2168V33.2369H13.7812V30.8666H14.3361V30.8658Z" fill="#313539"/>
<path id="Vector_11" d="M16.9471 33.2973C16.723 33.2973 16.5204 33.2502 16.3393 33.1575C16.1582 33.064 16.0152 32.925 15.911 32.7397C15.8068 32.5544 15.7539 32.326 15.7539 32.053C15.7539 31.78 15.8093 31.5533 15.9193 31.3613C16.0293 31.1694 16.1748 31.0205 16.3559 30.9162C16.5369 30.812 16.7337 30.759 16.9462 30.759C17.1736 30.759 17.3572 30.8037 17.4953 30.8931C17.6334 30.9824 17.7433 31.0891 17.826 31.2124L17.7921 31.3018L17.8541 30.8649H18.4362V33.2353H17.8037V32.6578L17.8657 32.8092C17.8508 32.8315 17.8219 32.8679 17.7789 32.9184C17.7359 32.9689 17.6747 33.0243 17.5937 33.0839C17.5135 33.1434 17.42 33.1939 17.3134 33.2353C17.2067 33.2766 17.0843 33.2973 16.9462 33.2973H16.9471ZM17.1207 32.7819C17.2323 32.7819 17.3357 32.762 17.4283 32.7231C17.5217 32.6843 17.6003 32.6263 17.6631 32.5494C17.7268 32.4733 17.7731 32.3823 17.8029 32.2772V31.7618C17.7731 31.665 17.7235 31.5798 17.6549 31.5069C17.5854 31.4341 17.5035 31.3771 17.4085 31.3357C17.3134 31.2943 17.21 31.2736 17.0976 31.2736C16.9669 31.2736 16.847 31.3051 16.7395 31.3688C16.6312 31.4325 16.5452 31.5202 16.4815 31.6319C16.4179 31.7436 16.3865 31.8726 16.3865 32.0182C16.3865 32.1639 16.4204 32.2888 16.4873 32.4046C16.5543 32.5204 16.6436 32.6123 16.7536 32.6793C16.8636 32.7463 16.9859 32.7802 17.1207 32.7802V32.7819Z" fill="#313539"/>
<path id="Vector_12" d="M19.5843 29.8254H20.2118V30.8679H20.8279V31.3552H20.2118V33.2382H19.5843V31.3552H19.1758V30.8679H19.5843V29.8254Z" fill="#313539"/>
<path id="Vector_13" d="M22.6268 33.2196C22.354 33.2196 22.1183 33.1658 21.9182 33.0574C21.7181 32.949 21.566 32.7993 21.4618 32.609C21.3576 32.4187 21.3047 32.2003 21.3047 31.9538C21.3047 31.7072 21.3642 31.4995 21.4841 31.3093C21.6032 31.119 21.7652 30.9667 21.9687 30.8526C22.1721 30.7384 22.397 30.6821 22.6434 30.6821C22.9683 30.6821 23.2362 30.7764 23.4471 30.9651C23.6579 31.1537 23.7993 31.4201 23.8696 31.7635L21.9596 32.408L21.8198 32.0547L23.304 31.5227L23.1808 31.6013C23.1395 31.4855 23.0725 31.3854 22.9791 31.3018C22.8856 31.2174 22.7567 31.1761 22.5929 31.1761C22.4623 31.1761 22.3465 31.2075 22.2457 31.2712C22.1448 31.3349 22.0654 31.4218 22.0075 31.5318C21.9496 31.6418 21.9207 31.7701 21.9207 31.9157C21.9207 32.0762 21.9521 32.2135 22.0158 32.3277C22.0795 32.4419 22.1655 32.5296 22.2738 32.5908C22.3821 32.6529 22.5053 32.6835 22.6434 32.6835C22.7401 32.6835 22.8336 32.6669 22.9237 32.633C23.013 32.5991 23.0973 32.5544 23.1759 32.4981L23.4611 32.9631C23.3379 33.0417 23.2023 33.1038 23.0552 33.1509C22.908 33.1972 22.7649 33.2212 22.6268 33.2212V33.2196Z" fill="#313539"/>
<path id="Vector_14" d="M30.0992 33.2205L26.9687 30.3455L27.1647 30.4241L27.1763 33.237H26.5156V29.0176H26.5495L29.6238 31.8926L29.4783 31.8479L29.4667 29.0184H30.1166V33.2213H30.1001L30.0992 33.2205Z" fill="#313539"/>
<path id="Vector_15" d="M32.2987 33.2196C32.0259 33.2196 31.7902 33.1658 31.5901 33.0574C31.39 32.949 31.2379 32.7993 31.1337 32.609C31.0295 32.4187 30.9766 32.2003 30.9766 31.9538C30.9766 31.7072 31.0361 31.4995 31.156 31.3093C31.2751 31.119 31.4371 30.9667 31.6405 30.8526C31.8439 30.7384 32.0688 30.6821 32.3153 30.6821C32.6402 30.6821 32.9081 30.7764 33.119 30.9651C33.3298 31.1537 33.4712 31.4201 33.5415 31.7635L31.6323 32.408L31.4925 32.0547L32.9767 31.5227L32.8535 31.6013C32.8122 31.4855 32.7452 31.3854 32.6518 31.3018C32.5583 31.2174 32.4294 31.1761 32.2656 31.1761C32.135 31.1761 32.0192 31.2075 31.9184 31.2712C31.8175 31.3349 31.7381 31.4218 31.6802 31.5318C31.6223 31.6418 31.5934 31.7701 31.5934 31.9157C31.5934 32.0762 31.6248 32.2135 31.6885 32.3277C31.7522 32.4419 31.8382 32.5296 31.9465 32.5908C32.0548 32.6529 32.178 32.6835 32.3161 32.6835C32.4128 32.6835 32.5063 32.6669 32.5964 32.633C32.6857 32.5991 32.77 32.5544 32.8486 32.4981L33.1338 32.9631C33.0106 33.0417 32.875 33.1038 32.7279 33.1509C32.5807 33.1972 32.4376 33.2212 32.2995 33.2212L32.2987 33.2196Z" fill="#313539"/>
<path id="Vector_16" d="M36.4576 33.2368H35.6423L33.6992 30.6985H34.5269L36.4585 33.2368H36.4576ZM35.0305 32.3424L34.407 33.2368H33.7356L34.7187 31.8923L35.0305 32.3424ZM35.1082 31.5862L35.6663 30.6985H36.3377L35.348 32.0727L35.1082 31.5862Z" fill="#313539"/>
<path id="Vector_17" d="M37.1708 29.8254H37.7983V30.8679H38.4144V31.3552H37.7983V33.2382H37.1708V31.3552H36.6953V30.8679H37.1708V29.8254Z" fill="#313539"/>
<path id="Vector_18" d="M40.8906 29.0176H43.7855V29.667H41.5918V30.7914H43.7855V31.4409H41.5918V32.5884H43.869V33.2378H40.8906V29.0184V29.0176Z" fill="#313539"/>
<path id="Vector_19" d="M46.638 33.0238C46.5297 33.1057 46.3998 33.1719 46.2485 33.2224C46.0972 33.2728 45.9451 33.2977 45.7921 33.2977C45.5308 33.2977 45.3001 33.2464 45.1008 33.1438C44.9007 33.0412 44.7469 32.8972 44.6386 32.7119C44.5303 32.5274 44.4766 32.3057 44.4766 32.0475C44.4766 31.7894 44.5353 31.5685 44.6527 31.3832C44.7701 31.1987 44.9247 31.0556 45.1174 30.9546C45.3092 30.8537 45.5126 30.8032 45.7251 30.8032C45.9269 30.8032 46.1038 30.8305 46.2568 30.8843C46.4098 30.9381 46.5404 31.0125 46.6487 31.106L46.3461 31.5147C46.2824 31.4659 46.2031 31.4204 46.108 31.3774C46.0129 31.3344 45.9037 31.3129 45.7805 31.3129C45.6573 31.3129 45.544 31.346 45.4415 31.4113C45.339 31.4767 45.2563 31.5635 45.1951 31.6719C45.1331 31.7803 45.1025 31.9052 45.1025 32.0475C45.1025 32.1816 45.1339 32.3057 45.1976 32.4174C45.2613 32.5291 45.3481 32.6184 45.458 32.6838C45.568 32.7491 45.6962 32.7822 45.8417 32.7822C45.9385 32.7822 46.0261 32.7682 46.1047 32.74C46.1832 32.7119 46.2535 32.6738 46.3172 32.625L46.6363 33.023L46.638 33.0238Z" fill="#313539"/>
<path id="Vector_20" d="M47.1367 32.0257C47.1367 31.7866 47.1938 31.5715 47.3079 31.3812C47.422 31.1909 47.5799 31.0395 47.7808 30.927C47.9818 30.8145 48.2141 30.759 48.4754 30.759C48.7367 30.759 48.9657 30.8153 49.1617 30.927C49.3577 31.0387 49.5098 31.1901 49.6181 31.3812C49.7265 31.5723 49.7802 31.7849 49.7802 32.0199C49.7802 32.2549 49.7265 32.4799 49.6181 32.6727C49.5098 32.8654 49.3577 33.0177 49.1617 33.1294C48.9657 33.2411 48.7317 33.2973 48.4589 33.2973C48.205 33.2973 47.9785 33.246 47.7784 33.1434C47.5783 33.0408 47.422 32.8944 47.3079 32.7033C47.1938 32.513 47.1367 32.2871 47.1367 32.0257ZM47.7693 32.0315C47.7693 32.1738 47.799 32.3004 47.8586 32.4129C47.9181 32.5246 47.9991 32.6148 48.1025 32.6818C48.205 32.7488 48.3216 32.7827 48.4523 32.7827C48.5903 32.7827 48.7111 32.7488 48.8136 32.6818C48.9161 32.6148 48.9972 32.5246 49.0575 32.4129C49.1171 32.3012 49.1468 32.1738 49.1468 32.0315C49.1468 31.8892 49.1171 31.7626 49.0575 31.6501C48.998 31.5384 48.917 31.4482 48.8136 31.3812C48.7111 31.3142 48.592 31.2803 48.458 31.2803C48.3241 31.2803 48.21 31.3142 48.105 31.3812C48 31.4482 47.9181 31.5392 47.8586 31.6534C47.799 31.7676 47.7693 31.8933 47.7693 32.0315Z" fill="#313539"/>
<path id="Vector_21" d="M51.0614 30.8668L51.1177 31.3764L51.1011 31.3094C51.1797 31.1448 51.3004 31.0132 51.4625 30.914C51.6245 30.8147 51.818 30.7659 52.0421 30.7659C52.2662 30.7659 52.4464 30.8321 52.5936 30.9644C52.7408 31.0968 52.8169 31.2664 52.8202 31.4716V33.2363H52.1926V31.7008C52.1885 31.5816 52.1554 31.4848 52.0917 31.412C52.028 31.3392 51.9272 31.3012 51.7891 31.297C51.6617 31.297 51.5476 31.3351 51.4443 31.412C51.3417 31.489 51.2632 31.5932 51.2086 31.7256C51.154 31.858 51.1276 32.0127 51.1276 32.1881V33.2355H50.5V30.8652H51.0598L51.0614 30.8668Z" fill="#313539"/>
<path id="Vector_22" d="M53.543 32.0257C53.543 31.7866 53.6 31.5715 53.7141 31.3812C53.8282 31.1909 53.9862 31.0395 54.1871 30.927C54.388 30.8145 54.6204 30.759 54.8817 30.759C55.1429 30.759 55.372 30.8153 55.568 30.927C55.7639 31.0387 55.9161 31.1901 56.0244 31.3812C56.1327 31.5723 56.1864 31.7849 56.1864 32.0199C56.1864 32.2549 56.1327 32.4799 56.0244 32.6727C55.9161 32.8654 55.7639 33.0177 55.568 33.1294C55.372 33.2411 55.138 33.2973 54.8651 33.2973C54.6113 33.2973 54.3847 33.246 54.1846 33.1434C53.9845 33.0408 53.8282 32.8944 53.7141 32.7033C53.6 32.513 53.543 32.2871 53.543 32.0257ZM54.1755 32.0315C54.1755 32.1738 54.2053 32.3004 54.2648 32.4129C54.3244 32.5246 54.4054 32.6148 54.5087 32.6818C54.6113 32.7488 54.7279 32.7827 54.8585 32.7827C54.9966 32.7827 55.1173 32.7488 55.2198 32.6818C55.3224 32.6148 55.4034 32.5246 55.4638 32.4129C55.5233 32.3012 55.5531 32.1738 55.5531 32.0315C55.5531 31.8892 55.5233 31.7626 55.4638 31.6501C55.4042 31.5384 55.3232 31.4482 55.2198 31.3812C55.1173 31.3142 54.9982 31.2803 54.8643 31.2803C54.7303 31.2803 54.6162 31.3142 54.5112 31.3812C54.4062 31.4482 54.3244 31.5392 54.2648 31.6534C54.2053 31.7676 54.1755 31.8933 54.1755 32.0315Z" fill="#313539"/>
<path id="Vector_23" d="M57.4677 30.8658L57.5239 31.3473L57.5016 31.3084C57.595 31.1363 57.7182 31.0023 57.8712 30.9046C58.0242 30.8078 58.2019 30.759 58.4029 30.759C58.5368 30.759 58.6551 30.7789 58.7559 30.8178C58.8568 30.8567 58.942 30.9146 59.0106 30.9915C59.0792 31.0685 59.1231 31.1628 59.1421 31.2745L59.1198 31.291C59.2132 31.1231 59.3364 30.9923 59.4894 30.8989C59.6423 30.8054 59.8069 30.759 59.9822 30.759C60.2096 30.759 60.3931 30.8244 60.5312 30.9551C60.6693 31.0858 60.7404 31.2579 60.7437 31.4705V33.2353H60.1219V31.7171C60.1178 31.6013 60.0938 31.5053 60.0492 31.4284C60.0045 31.3522 59.9202 31.31 59.797 31.3026C59.663 31.3026 59.5472 31.3448 59.4497 31.4284C59.3521 31.5127 59.2769 31.6211 59.2231 31.7535C59.1694 31.8859 59.1396 32.0257 59.1363 32.1713V33.2361H58.5087V31.7179C58.5046 31.6021 58.4789 31.5061 58.4302 31.4292C58.3814 31.3531 58.2954 31.3109 58.1722 31.3034C58.0415 31.3034 57.9274 31.3456 57.8307 31.4292C57.7331 31.5136 57.6595 31.622 57.6091 31.7543C57.5586 31.8867 57.5338 32.0282 57.5338 32.1771V33.2361H56.9062V30.8658H57.466H57.4677Z" fill="#313539"/>
<path id="Vector_24" d="M62.466 33.2528L61.3125 30.866H62.0178L62.9472 32.9335L62.466 33.2528ZM61.8615 34.3739L63.4243 30.866H64.0015L62.4726 34.3739H61.8624H61.8615Z" fill="#313539"/>
</g>
</g>
</g>
<defs>
<linearGradient id="paint0_linear_3438_102166" x1="28.7608" y1="8.7227" x2="28.9632" y2="22.9602" gradientUnits="userSpaceOnUse">
<stop stop-color="#313539"/>
<stop offset="1" stop-color="#8F959C"/>
</linearGradient>
<linearGradient id="paint1_linear_3438_102166" x1="26.2775" y1="3.50568" x2="13.2981" y2="15.282" gradientUnits="userSpaceOnUse">
<stop stop-color="#8F959C"/>
<stop offset="1" stop-color="#BEC5CB"/>
</linearGradient>
<linearGradient id="paint2_linear_3438_102166" x1="44.2609" y1="10.6521" x2="31.9572" y2="23.6053" gradientUnits="userSpaceOnUse">
<stop stop-color="#8F959C"/>
<stop offset="1" stop-color="#BEC5CB"/>
</linearGradient>
</defs>
</svg>
