<svg width="523" height="422" viewBox="0 0 523 422" fill="none" xmlns="http://www.w3.org/2000/svg">
<g filter="url(#filter0_d_910_36868)">
<rect x="6" y="4" width="511" height="410" rx="20" fill="white"/>
<rect x="6.5" y="4.5" width="510" height="409" rx="19.5" stroke="#E5E7EB"/>
</g>
<path d="M68.8374 325.64V336H67.5634V325.64H68.8374ZM74.3547 336.126C73.636 336.126 72.9827 335.963 72.3947 335.636C71.816 335.309 71.3587 334.847 71.0227 334.25C70.696 333.643 70.5327 332.943 70.5327 332.15C70.5327 331.366 70.7007 330.675 71.0367 330.078C71.382 329.471 71.8487 329.009 72.4367 328.692C73.0247 328.365 73.6827 328.202 74.4107 328.202C75.1387 328.202 75.7967 328.365 76.3847 328.692C76.9727 329.009 77.4347 329.467 77.7707 330.064C78.116 330.661 78.2887 331.357 78.2887 332.15C78.2887 332.943 78.1113 333.643 77.7567 334.25C77.4113 334.847 76.94 335.309 76.3427 335.636C75.7453 335.963 75.0827 336.126 74.3547 336.126ZM74.3547 335.006C74.812 335.006 75.2413 334.899 75.6427 334.684C76.044 334.469 76.366 334.147 76.6087 333.718C76.8607 333.289 76.9867 332.766 76.9867 332.15C76.9867 331.534 76.8653 331.011 76.6227 330.582C76.38 330.153 76.0627 329.835 75.6707 329.63C75.2787 329.415 74.854 329.308 74.3967 329.308C73.93 329.308 73.5007 329.415 73.1087 329.63C72.726 329.835 72.418 330.153 72.1847 330.582C71.9513 331.011 71.8347 331.534 71.8347 332.15C71.8347 332.775 71.9467 333.303 72.1707 333.732C72.404 334.161 72.712 334.483 73.0947 334.698C73.4773 334.903 73.8973 335.006 74.3547 335.006ZM82.6797 336.126C82.0917 336.126 81.5644 336.028 81.0977 335.832C80.6311 335.627 80.2624 335.347 79.9917 334.992C79.7211 334.628 79.5717 334.213 79.5437 333.746H80.8597C80.8971 334.129 81.0744 334.441 81.3917 334.684C81.7184 334.927 82.1431 335.048 82.6657 335.048C83.1511 335.048 83.5337 334.941 83.8137 334.726C84.0937 334.511 84.2337 334.241 84.2337 333.914C84.2337 333.578 84.0844 333.331 83.7857 333.172C83.4871 333.004 83.0251 332.841 82.3997 332.682C81.8304 332.533 81.3637 332.383 80.9997 332.234C80.6451 332.075 80.3371 331.847 80.0757 331.548C79.8237 331.24 79.6977 330.839 79.6977 330.344C79.6977 329.952 79.8144 329.593 80.0477 329.266C80.2811 328.939 80.6124 328.683 81.0417 328.496C81.4711 328.3 81.9611 328.202 82.5117 328.202C83.3611 328.202 84.0471 328.417 84.5697 328.846C85.0924 329.275 85.3724 329.863 85.4097 330.61H84.1357C84.1077 330.209 83.9444 329.887 83.6457 329.644C83.3564 329.401 82.9644 329.28 82.4697 329.28C82.0124 329.28 81.6484 329.378 81.3777 329.574C81.1071 329.77 80.9717 330.027 80.9717 330.344C80.9717 330.596 81.0511 330.806 81.2097 330.974C81.3777 331.133 81.5831 331.263 81.8257 331.366C82.0777 331.459 82.4231 331.567 82.8617 331.688C83.4124 331.837 83.8604 331.987 84.2057 332.136C84.5511 332.276 84.8451 332.491 85.0877 332.78C85.3397 333.069 85.4704 333.447 85.4797 333.914C85.4797 334.334 85.3631 334.712 85.1297 335.048C84.8964 335.384 84.5651 335.65 84.1357 335.846C83.7157 336.033 83.2304 336.126 82.6797 336.126ZM89.9942 336.126C89.4062 336.126 88.8789 336.028 88.4122 335.832C87.9455 335.627 87.5769 335.347 87.3062 334.992C87.0355 334.628 86.8862 334.213 86.8582 333.746H88.1742C88.2115 334.129 88.3889 334.441 88.7062 334.684C89.0329 334.927 89.4575 335.048 89.9802 335.048C90.4655 335.048 90.8482 334.941 91.1282 334.726C91.4082 334.511 91.5482 334.241 91.5482 333.914C91.5482 333.578 91.3989 333.331 91.1002 333.172C90.8015 333.004 90.3395 332.841 89.7142 332.682C89.1449 332.533 88.6782 332.383 88.3142 332.234C87.9595 332.075 87.6515 331.847 87.3902 331.548C87.1382 331.24 87.0122 330.839 87.0122 330.344C87.0122 329.952 87.1289 329.593 87.3622 329.266C87.5955 328.939 87.9269 328.683 88.3562 328.496C88.7855 328.3 89.2755 328.202 89.8262 328.202C90.6755 328.202 91.3615 328.417 91.8842 328.846C92.4069 329.275 92.6869 329.863 92.7242 330.61H91.4502C91.4222 330.209 91.2589 329.887 90.9602 329.644C90.6709 329.401 90.2789 329.28 89.7842 329.28C89.3269 329.28 88.9629 329.378 88.6922 329.574C88.4215 329.77 88.2862 330.027 88.2862 330.344C88.2862 330.596 88.3655 330.806 88.5242 330.974C88.6922 331.133 88.8975 331.263 89.1402 331.366C89.3922 331.459 89.7375 331.567 90.1762 331.688C90.7269 331.837 91.1749 331.987 91.5202 332.136C91.8655 332.276 92.1595 332.491 92.4022 332.78C92.6542 333.069 92.7849 333.447 92.7942 333.914C92.7942 334.334 92.6775 334.712 92.4442 335.048C92.2109 335.384 91.8795 335.65 91.4502 335.846C91.0302 336.033 90.5449 336.126 89.9942 336.126Z" fill="#615E83"/>
<path d="M136.758 331.114C136.758 330.162 136.978 329.308 137.416 328.552C137.864 327.796 138.466 327.208 139.222 326.788C139.988 326.359 140.823 326.144 141.728 326.144C142.764 326.144 143.684 326.401 144.486 326.914C145.298 327.418 145.886 328.137 146.25 329.07H144.332C144.08 328.557 143.73 328.174 143.282 327.922C142.834 327.67 142.316 327.544 141.728 327.544C141.084 327.544 140.51 327.689 140.006 327.978C139.502 328.267 139.106 328.683 138.816 329.224C138.536 329.765 138.396 330.395 138.396 331.114C138.396 331.833 138.536 332.463 138.816 333.004C139.106 333.545 139.502 333.965 140.006 334.264C140.51 334.553 141.084 334.698 141.728 334.698C142.316 334.698 142.834 334.572 143.282 334.32C143.73 334.068 144.08 333.685 144.332 333.172H146.25C145.886 334.105 145.298 334.824 144.486 335.328C143.684 335.832 142.764 336.084 141.728 336.084C140.814 336.084 139.978 335.874 139.222 335.454C138.466 335.025 137.864 334.432 137.416 333.676C136.978 332.92 136.758 332.066 136.758 331.114ZM160.141 326.27L156.487 336H154.639L150.971 326.27H152.679L155.563 334.362L158.461 326.27H160.141ZM160.944 332.108C160.944 331.333 161.102 330.647 161.42 330.05C161.746 329.453 162.185 328.991 162.736 328.664C163.296 328.328 163.912 328.16 164.584 328.16C165.19 328.16 165.718 328.281 166.166 328.524C166.623 328.757 166.987 329.051 167.258 329.406V328.286H168.868V336H167.258V334.852C166.987 335.216 166.618 335.519 166.152 335.762C165.685 336.005 165.153 336.126 164.556 336.126C163.893 336.126 163.286 335.958 162.736 335.622C162.185 335.277 161.746 334.801 161.42 334.194C161.102 333.578 160.944 332.883 160.944 332.108ZM167.258 332.136C167.258 331.604 167.146 331.142 166.922 330.75C166.707 330.358 166.422 330.059 166.068 329.854C165.713 329.649 165.33 329.546 164.92 329.546C164.509 329.546 164.126 329.649 163.772 329.854C163.417 330.05 163.128 330.344 162.904 330.736C162.689 331.119 162.582 331.576 162.582 332.108C162.582 332.64 162.689 333.107 162.904 333.508C163.128 333.909 163.417 334.217 163.772 334.432C164.136 334.637 164.518 334.74 164.92 334.74C165.33 334.74 165.713 334.637 166.068 334.432C166.422 334.227 166.707 333.928 166.922 333.536C167.146 333.135 167.258 332.668 167.258 332.136ZM176.018 336L173.778 332.108H172.56V336H170.964V326.27H174.324C175.071 326.27 175.701 326.401 176.214 326.662C176.737 326.923 177.124 327.273 177.376 327.712C177.637 328.151 177.768 328.641 177.768 329.182C177.768 329.817 177.581 330.395 177.208 330.918C176.844 331.431 176.279 331.781 175.514 331.968L177.922 336H176.018ZM172.56 330.834H174.324C174.921 330.834 175.369 330.685 175.668 330.386C175.976 330.087 176.13 329.686 176.13 329.182C176.13 328.678 175.981 328.286 175.682 328.006C175.383 327.717 174.931 327.572 174.324 327.572H172.56V330.834Z" fill="#0148FF"/>
<path d="M422.456 329.742C422.708 329.303 423.082 328.939 423.576 328.65C424.08 328.351 424.664 328.202 425.326 328.202C426.008 328.202 426.624 328.365 427.174 328.692C427.734 329.019 428.173 329.481 428.49 330.078C428.808 330.666 428.966 331.352 428.966 332.136C428.966 332.911 428.808 333.601 428.49 334.208C428.173 334.815 427.734 335.286 427.174 335.622C426.624 335.958 426.008 336.126 425.326 336.126C424.673 336.126 424.094 335.981 423.59 335.692C423.096 335.393 422.718 335.025 422.456 334.586V339.64H421.182V328.328H422.456V329.742ZM427.664 332.136C427.664 331.557 427.548 331.053 427.314 330.624C427.081 330.195 426.764 329.868 426.362 329.644C425.97 329.42 425.536 329.308 425.06 329.308C424.594 329.308 424.16 329.425 423.758 329.658C423.366 329.882 423.049 330.213 422.806 330.652C422.573 331.081 422.456 331.581 422.456 332.15C422.456 332.729 422.573 333.237 422.806 333.676C423.049 334.105 423.366 334.437 423.758 334.67C424.16 334.894 424.594 335.006 425.06 335.006C425.536 335.006 425.97 334.894 426.362 334.67C426.764 334.437 427.081 334.105 427.314 333.676C427.548 333.237 427.664 332.724 427.664 332.136ZM431.917 329.574C432.141 329.135 432.459 328.795 432.869 328.552C433.289 328.309 433.798 328.188 434.395 328.188V329.504H434.059C432.631 329.504 431.917 330.279 431.917 331.828V336H430.643V328.328H431.917V329.574ZM439.212 336.126C438.493 336.126 437.84 335.963 437.252 335.636C436.673 335.309 436.216 334.847 435.88 334.25C435.553 333.643 435.39 332.943 435.39 332.15C435.39 331.366 435.558 330.675 435.894 330.078C436.239 329.471 436.706 329.009 437.294 328.692C437.882 328.365 438.54 328.202 439.268 328.202C439.996 328.202 440.654 328.365 441.242 328.692C441.83 329.009 442.292 329.467 442.628 330.064C442.973 330.661 443.146 331.357 443.146 332.15C443.146 332.943 442.969 333.643 442.614 334.25C442.269 334.847 441.797 335.309 441.2 335.636C440.603 335.963 439.94 336.126 439.212 336.126ZM439.212 335.006C439.669 335.006 440.099 334.899 440.5 334.684C440.901 334.469 441.223 334.147 441.466 333.718C441.718 333.289 441.844 332.766 441.844 332.15C441.844 331.534 441.723 331.011 441.48 330.582C441.237 330.153 440.92 329.835 440.528 329.63C440.136 329.415 439.711 329.308 439.254 329.308C438.787 329.308 438.358 329.415 437.966 329.63C437.583 329.835 437.275 330.153 437.042 330.582C436.809 331.011 436.692 331.534 436.692 332.15C436.692 332.775 436.804 333.303 437.028 333.732C437.261 334.161 437.569 334.483 437.952 334.698C438.335 334.903 438.755 335.006 439.212 335.006ZM447.943 329.378H446.333V336H445.059V329.378H444.065V328.328H445.059V327.782C445.059 326.923 445.278 326.298 445.717 325.906C446.165 325.505 446.879 325.304 447.859 325.304V326.368C447.299 326.368 446.902 326.48 446.669 326.704C446.445 326.919 446.333 327.278 446.333 327.782V328.328H447.943V329.378ZM450.087 327.082C449.844 327.082 449.639 326.998 449.471 326.83C449.303 326.662 449.219 326.457 449.219 326.214C449.219 325.971 449.303 325.766 449.471 325.598C449.639 325.43 449.844 325.346 450.087 325.346C450.32 325.346 450.516 325.43 450.675 325.598C450.843 325.766 450.927 325.971 450.927 326.214C450.927 326.457 450.843 326.662 450.675 326.83C450.516 326.998 450.32 327.082 450.087 327.082ZM450.703 328.328V336H449.429V328.328H450.703ZM454.428 329.378V333.9C454.428 334.273 454.507 334.539 454.666 334.698C454.825 334.847 455.1 334.922 455.492 334.922H456.43V336H455.282C454.573 336 454.041 335.837 453.686 335.51C453.331 335.183 453.154 334.647 453.154 333.9V329.378H452.16V328.328H453.154V326.396H454.428V328.328H456.43V329.378H454.428Z" fill="#615E83"/>
<line x1="262.5" y1="55.5" x2="262.5" y2="303.5" stroke="#9CA3AF" stroke-linecap="round"/>
<path d="M171.5 304V250.5C132.5 307 92.5 298 67 301V304H171.5Z" fill="#ECF2FF"/>
<path d="M66 301L71.5857 300.83L77.1714 300.599L82.7571 300.286L88.3429 299.869L93.9286 299.319L99.5143 298.601L105.1 297.674L110.686 296.491L116.271 294.997L121.857 293.134L127.443 290.836L133.029 288.034L138.614 284.658L144.2 280.64L149.786 275.913L155.371 270.423L160.957 264.126L166.543 256.995L172.129 249.027L177.714 240.244L183.3 230.699L188.886 220.478L194.471 209.702L200.057 198.525L205.643 187.134L211.229 175.746L216.814 164.597L222.4 153.941L227.986 144.037L233.571 135.139L239.157 127.486L244.743 121.291L250.329 116.731L255.914 113.94L261.5 113L267.086 113.94L272.671 116.731L278.257 121.291L283.843 127.486L289.429 135.139L295.014 144.037L300.6 153.941L306.186 164.597L311.771 175.746L317.357 187.134L322.943 198.525L328.529 209.702L334.114 220.478L339.7 230.699L345.286 240.244L350.871 249.027L356.457 256.995L362.043 264.126L367.629 270.423L373.214 275.913L378.8 280.64L384.386 284.658L389.971 288.034L395.557 290.836L401.143 293.134L406.729 294.997L412.314 296.491L417.9 297.674L423.486 298.601L429.071 299.319L434.657 299.869L440.243 300.286L445.829 300.599L451.414 300.83L457 301" stroke="#0148FF" stroke-width="3"/>
<line x1="66.4648" y1="303.5" x2="456.465" y2="303.5" stroke="#D1D5DB" stroke-linecap="round"/>
<path d="M156 291V320.5" stroke="#0148FF" stroke-dasharray="2 2"/>
<defs>
<filter id="filter0_d_910_36868" x="0" y="0" width="523" height="422" filterUnits="userSpaceOnUse" color-interpolation-filters="sRGB">
<feFlood flood-opacity="0" result="BackgroundImageFix"/>
<feColorMatrix in="SourceAlpha" type="matrix" values="0 0 0 0 0 0 0 0 0 0 0 0 0 0 0 0 0 0 127 0" result="hardAlpha"/>
<feOffset dy="2"/>
<feGaussianBlur stdDeviation="3"/>
<feComposite in2="hardAlpha" operator="out"/>
<feColorMatrix type="matrix" values="0 0 0 0 0.0509804 0 0 0 0 0.0392157 0 0 0 0 0.172549 0 0 0 0.08 0"/>
<feBlend mode="normal" in2="BackgroundImageFix" result="effect1_dropShadow_910_36868"/>
<feBlend mode="normal" in="SourceGraphic" in2="effect1_dropShadow_910_36868" result="shape"/>
</filter>
</defs>
</svg>
