<svg width="674" height="830" viewBox="0 0 674 830" fill="none" xmlns="http://www.w3.org/2000/svg">
<g filter="url(#filter0_d_910_37032)">
<rect x="12" y="12" width="650" height="806" rx="20" fill="white"/>
<rect x="44.5" y="44.5" width="81" height="39" rx="19.5" fill="white"/>
<path d="M63.984 68.016H59.792L59.12 70H56.256L60.32 58.768H63.488L67.552 70H64.656L63.984 68.016ZM63.28 65.904L61.888 61.792L60.512 65.904H63.28ZM68.2449 65.52C68.2449 64.6027 68.4155 63.7973 68.7569 63.104C69.1089 62.4107 69.5835 61.8773 70.1809 61.504C70.7782 61.1307 71.4449 60.944 72.1809 60.944C72.7675 60.944 73.3009 61.0667 73.7809 61.312C74.2715 61.5573 74.6555 61.888 74.9329 62.304V58.16H77.6689V70H74.9329V68.72C74.6769 69.1467 74.3089 69.488 73.8289 69.744C73.3595 70 72.8102 70.128 72.1809 70.128C71.4449 70.128 70.7782 69.9413 70.1809 69.568C69.5835 69.184 69.1089 68.6453 68.7569 67.952C68.4155 67.248 68.2449 66.4373 68.2449 65.52ZM74.9329 65.536C74.9329 64.8533 74.7409 64.3147 74.3569 63.92C73.9835 63.5253 73.5249 63.328 72.9809 63.328C72.4369 63.328 71.9729 63.5253 71.5889 63.92C71.2155 64.304 71.0289 64.8373 71.0289 65.52C71.0289 66.2027 71.2155 66.7467 71.5889 67.152C71.9729 67.5467 72.4369 67.744 72.9809 67.744C73.5249 67.744 73.9835 67.5467 74.3569 67.152C74.7409 66.7573 74.9329 66.2187 74.9329 65.536ZM79.1043 65.52C79.1043 64.6027 79.2749 63.7973 79.6163 63.104C79.9683 62.4107 80.4429 61.8773 81.0403 61.504C81.6376 61.1307 82.3043 60.944 83.0403 60.944C83.6269 60.944 84.1603 61.0667 84.6403 61.312C85.1309 61.5573 85.5149 61.888 85.7923 62.304V58.16H88.5283V70H85.7923V68.72C85.5363 69.1467 85.1683 69.488 84.6883 69.744C84.2189 70 83.6696 70.128 83.0403 70.128C82.3043 70.128 81.6376 69.9413 81.0403 69.568C80.4429 69.184 79.9683 68.6453 79.6163 67.952C79.2749 67.248 79.1043 66.4373 79.1043 65.52ZM85.7923 65.536C85.7923 64.8533 85.6003 64.3147 85.2163 63.92C84.8429 63.5253 84.3843 63.328 83.8403 63.328C83.2963 63.328 82.8323 63.5253 82.4483 63.92C82.0749 64.304 81.8883 64.8373 81.8883 65.52C81.8883 66.2027 82.0749 66.7467 82.4483 67.152C82.8323 67.5467 83.2963 67.744 83.8403 67.744C84.3843 67.744 84.8429 67.5467 85.2163 67.152C85.6003 66.7573 85.7923 66.2187 85.7923 65.536Z" fill="#9CA3AF"/>
<path d="M100.5 64H111.5" stroke="#9CA3AF" stroke-width="1.2" stroke-linecap="round" stroke-linejoin="round"/>
<path d="M106 58.5V69.5" stroke="#9CA3AF" stroke-width="1.2" stroke-linecap="round" stroke-linejoin="round"/>
<rect x="44.5" y="44.5" width="81" height="39" rx="19.5" stroke="#E5E7EB"/>
<rect x="136" y="44" width="103" height="40" rx="20" fill="#111827"/>
<path d="M157.552 62.384C157.552 63.0347 157.403 63.632 157.104 64.176C156.805 64.7093 156.347 65.1413 155.728 65.472C155.109 65.8027 154.341 65.968 153.424 65.968H151.728V70H148.992V58.768H153.424C154.32 58.768 155.077 58.9227 155.696 59.232C156.315 59.5413 156.779 59.968 157.088 60.512C157.397 61.056 157.552 61.68 157.552 62.384ZM153.216 63.792C153.739 63.792 154.128 63.6693 154.384 63.424C154.64 63.1787 154.768 62.832 154.768 62.384C154.768 61.936 154.64 61.5893 154.384 61.344C154.128 61.0987 153.739 60.976 153.216 60.976H151.728V63.792H153.216ZM163.04 70.128C162.166 70.128 161.376 69.9413 160.672 69.568C159.979 69.1947 159.43 68.6613 159.024 67.968C158.63 67.2747 158.432 66.464 158.432 65.536C158.432 64.6187 158.635 63.8133 159.04 63.12C159.446 62.416 160 61.8773 160.704 61.504C161.408 61.1307 162.198 60.944 163.072 60.944C163.947 60.944 164.736 61.1307 165.44 61.504C166.144 61.8773 166.699 62.416 167.104 63.12C167.51 63.8133 167.712 64.6187 167.712 65.536C167.712 66.4533 167.504 67.264 167.088 67.968C166.683 68.6613 166.123 69.1947 165.408 69.568C164.704 69.9413 163.915 70.128 163.04 70.128ZM163.04 67.76C163.563 67.76 164.006 67.568 164.368 67.184C164.742 66.8 164.928 66.2507 164.928 65.536C164.928 64.8213 164.747 64.272 164.384 63.888C164.032 63.504 163.595 63.312 163.072 63.312C162.539 63.312 162.096 63.504 161.744 63.888C161.392 64.2613 161.216 64.8107 161.216 65.536C161.216 66.2507 161.387 66.8 161.728 67.184C162.08 67.568 162.518 67.76 163.04 67.76ZM171.9 62.56C172.22 62.0693 172.62 61.6853 173.1 61.408C173.58 61.12 174.113 60.976 174.7 60.976V63.872H173.948C173.265 63.872 172.753 64.0213 172.412 64.32C172.071 64.608 171.9 65.12 171.9 65.856V70H169.164V61.072H171.9V62.56ZM180.984 67.68V70H179.592C178.6 70 177.826 69.76 177.272 69.28C176.717 68.7893 176.44 67.9947 176.44 66.896V63.344H175.352V61.072H176.44V58.896H179.176V61.072H180.968V63.344H179.176V66.928C179.176 67.1947 179.24 67.3867 179.368 67.504C179.496 67.6213 179.709 67.68 180.008 67.68H180.984ZM186.988 63.344H185.516V70H182.78V63.344H181.788V61.072H182.78V60.816C182.78 59.7173 183.094 58.8853 183.724 58.32C184.353 57.744 185.276 57.456 186.492 57.456C186.694 57.456 186.844 57.4613 186.94 57.472V59.792C186.417 59.76 186.049 59.8347 185.836 60.016C185.622 60.1973 185.516 60.5227 185.516 60.992V61.072H186.988V63.344ZM192.337 70.128C191.463 70.128 190.673 69.9413 189.969 69.568C189.276 69.1947 188.727 68.6613 188.321 67.968C187.927 67.2747 187.729 66.464 187.729 65.536C187.729 64.6187 187.932 63.8133 188.337 63.12C188.743 62.416 189.297 61.8773 190.001 61.504C190.705 61.1307 191.495 60.944 192.369 60.944C193.244 60.944 194.033 61.1307 194.737 61.504C195.441 61.8773 195.996 62.416 196.401 63.12C196.807 63.8133 197.009 64.6187 197.009 65.536C197.009 66.4533 196.801 67.264 196.385 67.968C195.98 68.6613 195.42 69.1947 194.705 69.568C194.001 69.9413 193.212 70.128 192.337 70.128ZM192.337 67.76C192.86 67.76 193.303 67.568 193.665 67.184C194.039 66.8 194.225 66.2507 194.225 65.536C194.225 64.8213 194.044 64.272 193.681 63.888C193.329 63.504 192.892 63.312 192.369 63.312C191.836 63.312 191.393 63.504 191.041 63.888C190.689 64.2613 190.513 64.8107 190.513 65.536C190.513 66.2507 190.684 66.8 191.025 67.184C191.377 67.568 191.815 67.76 192.337 67.76ZM201.197 58.16V70H198.461V58.16H201.197ZM204.556 60.144C204.076 60.144 203.681 60.0053 203.372 59.728C203.073 59.44 202.924 59.088 202.924 58.672C202.924 58.2453 203.073 57.8933 203.372 57.616C203.681 57.328 204.076 57.184 204.556 57.184C205.025 57.184 205.409 57.328 205.708 57.616C206.017 57.8933 206.172 58.2453 206.172 58.672C206.172 59.088 206.017 59.44 205.708 59.728C205.409 60.0053 205.025 60.144 204.556 60.144ZM205.916 61.072V70H203.18V61.072H205.916ZM211.962 70.128C211.088 70.128 210.298 69.9413 209.594 69.568C208.901 69.1947 208.352 68.6613 207.946 67.968C207.552 67.2747 207.354 66.464 207.354 65.536C207.354 64.6187 207.557 63.8133 207.962 63.12C208.368 62.416 208.922 61.8773 209.626 61.504C210.33 61.1307 211.12 60.944 211.994 60.944C212.869 60.944 213.658 61.1307 214.362 61.504C215.066 61.8773 215.621 62.416 216.026 63.12C216.432 63.8133 216.634 64.6187 216.634 65.536C216.634 66.4533 216.426 67.264 216.01 67.968C215.605 68.6613 215.045 69.1947 214.33 69.568C213.626 69.9413 212.837 70.128 211.962 70.128ZM211.962 67.76C212.485 67.76 212.928 67.568 213.29 67.184C213.664 66.8 213.85 66.2507 213.85 65.536C213.85 64.8213 213.669 64.272 213.306 63.888C212.954 63.504 212.517 63.312 211.994 63.312C211.461 63.312 211.018 63.504 210.666 63.888C210.314 64.2613 210.138 64.8107 210.138 65.536C210.138 66.2507 210.309 66.8 210.65 67.184C211.002 67.568 211.44 67.76 211.962 67.76ZM220.916 60.864V58.32H225.348V70H222.5V60.864H220.916Z" fill="white"/>
<rect x="249.5" y="44.5" width="105" height="39" rx="19.5" fill="white"/>
<path d="M270.552 62.384C270.552 63.0347 270.403 63.632 270.104 64.176C269.805 64.7093 269.347 65.1413 268.728 65.472C268.109 65.8027 267.341 65.968 266.424 65.968H264.728V70H261.992V58.768H266.424C267.32 58.768 268.077 58.9227 268.696 59.232C269.315 59.5413 269.779 59.968 270.088 60.512C270.397 61.056 270.552 61.68 270.552 62.384ZM266.216 63.792C266.739 63.792 267.128 63.6693 267.384 63.424C267.64 63.1787 267.768 62.832 267.768 62.384C267.768 61.936 267.64 61.5893 267.384 61.344C267.128 61.0987 266.739 60.976 266.216 60.976H264.728V63.792H266.216ZM276.04 70.128C275.166 70.128 274.376 69.9413 273.672 69.568C272.979 69.1947 272.43 68.6613 272.024 67.968C271.63 67.2747 271.432 66.464 271.432 65.536C271.432 64.6187 271.635 63.8133 272.04 63.12C272.446 62.416 273 61.8773 273.704 61.504C274.408 61.1307 275.198 60.944 276.072 60.944C276.947 60.944 277.736 61.1307 278.44 61.504C279.144 61.8773 279.699 62.416 280.104 63.12C280.51 63.8133 280.712 64.6187 280.712 65.536C280.712 66.4533 280.504 67.264 280.088 67.968C279.683 68.6613 279.123 69.1947 278.408 69.568C277.704 69.9413 276.915 70.128 276.04 70.128ZM276.04 67.76C276.563 67.76 277.006 67.568 277.368 67.184C277.742 66.8 277.928 66.2507 277.928 65.536C277.928 64.8213 277.747 64.272 277.384 63.888C277.032 63.504 276.595 63.312 276.072 63.312C275.539 63.312 275.096 63.504 274.744 63.888C274.392 64.2613 274.216 64.8107 274.216 65.536C274.216 66.2507 274.387 66.8 274.728 67.184C275.08 67.568 275.518 67.76 276.04 67.76ZM284.9 62.56C285.22 62.0693 285.62 61.6853 286.1 61.408C286.58 61.12 287.113 60.976 287.7 60.976V63.872H286.948C286.265 63.872 285.753 64.0213 285.412 64.32C285.071 64.608 284.9 65.12 284.9 65.856V70H282.164V61.072H284.9V62.56ZM293.984 67.68V70H292.592C291.6 70 290.826 69.76 290.272 69.28C289.717 68.7893 289.44 67.9947 289.44 66.896V63.344H288.352V61.072H289.44V58.896H292.176V61.072H293.968V63.344H292.176V66.928C292.176 67.1947 292.24 67.3867 292.368 67.504C292.496 67.6213 292.709 67.68 293.008 67.68H293.984ZM299.988 63.344H298.516V70H295.78V63.344H294.788V61.072H295.78V60.816C295.78 59.7173 296.094 58.8853 296.724 58.32C297.353 57.744 298.276 57.456 299.492 57.456C299.694 57.456 299.844 57.4613 299.94 57.472V59.792C299.417 59.76 299.049 59.8347 298.836 60.016C298.622 60.1973 298.516 60.5227 298.516 60.992V61.072H299.988V63.344ZM305.337 70.128C304.463 70.128 303.673 69.9413 302.969 69.568C302.276 69.1947 301.727 68.6613 301.321 67.968C300.927 67.2747 300.729 66.464 300.729 65.536C300.729 64.6187 300.932 63.8133 301.337 63.12C301.743 62.416 302.297 61.8773 303.001 61.504C303.705 61.1307 304.495 60.944 305.369 60.944C306.244 60.944 307.033 61.1307 307.737 61.504C308.441 61.8773 308.996 62.416 309.401 63.12C309.807 63.8133 310.009 64.6187 310.009 65.536C310.009 66.4533 309.801 67.264 309.385 67.968C308.98 68.6613 308.42 69.1947 307.705 69.568C307.001 69.9413 306.212 70.128 305.337 70.128ZM305.337 67.76C305.86 67.76 306.303 67.568 306.665 67.184C307.039 66.8 307.225 66.2507 307.225 65.536C307.225 64.8213 307.044 64.272 306.681 63.888C306.329 63.504 305.892 63.312 305.369 63.312C304.836 63.312 304.393 63.504 304.041 63.888C303.689 64.2613 303.513 64.8107 303.513 65.536C303.513 66.2507 303.684 66.8 304.025 67.184C304.377 67.568 304.815 67.76 305.337 67.76ZM314.197 58.16V70H311.461V58.16H314.197ZM317.556 60.144C317.076 60.144 316.681 60.0053 316.372 59.728C316.073 59.44 315.924 59.088 315.924 58.672C315.924 58.2453 316.073 57.8933 316.372 57.616C316.681 57.328 317.076 57.184 317.556 57.184C318.025 57.184 318.409 57.328 318.708 57.616C319.017 57.8933 319.172 58.2453 319.172 58.672C319.172 59.088 319.017 59.44 318.708 59.728C318.409 60.0053 318.025 60.144 317.556 60.144ZM318.916 61.072V70H316.18V61.072H318.916ZM324.962 70.128C324.088 70.128 323.298 69.9413 322.594 69.568C321.901 69.1947 321.352 68.6613 320.946 67.968C320.552 67.2747 320.354 66.464 320.354 65.536C320.354 64.6187 320.557 63.8133 320.962 63.12C321.368 62.416 321.922 61.8773 322.626 61.504C323.33 61.1307 324.12 60.944 324.994 60.944C325.869 60.944 326.658 61.1307 327.362 61.504C328.066 61.8773 328.621 62.416 329.026 63.12C329.432 63.8133 329.634 64.6187 329.634 65.536C329.634 66.4533 329.426 67.264 329.01 67.968C328.605 68.6613 328.045 69.1947 327.33 69.568C326.626 69.9413 325.837 70.128 324.962 70.128ZM324.962 67.76C325.485 67.76 325.928 67.568 326.29 67.184C326.664 66.8 326.85 66.2507 326.85 65.536C326.85 64.8213 326.669 64.272 326.306 63.888C325.954 63.504 325.517 63.312 324.994 63.312C324.461 63.312 324.018 63.504 323.666 63.888C323.314 64.2613 323.138 64.8107 323.138 65.536C323.138 66.2507 323.309 66.8 323.65 67.184C324.002 67.568 324.44 67.76 324.962 67.76ZM334.108 67.808C334.471 67.52 334.636 67.3867 334.604 67.408C335.65 66.544 336.471 65.8347 337.068 65.28C337.676 64.7253 338.188 64.144 338.604 63.536C339.02 62.928 339.228 62.336 339.228 61.76C339.228 61.3227 339.127 60.9813 338.924 60.736C338.722 60.4907 338.418 60.368 338.012 60.368C337.607 60.368 337.287 60.5227 337.052 60.832C336.828 61.1307 336.716 61.5573 336.716 62.112H334.076C334.098 61.2053 334.29 60.448 334.652 59.84C335.026 59.232 335.511 58.784 336.108 58.496C336.716 58.208 337.388 58.064 338.124 58.064C339.394 58.064 340.348 58.3893 340.988 59.04C341.639 59.6907 341.964 60.5387 341.964 61.584C341.964 62.7253 341.575 63.7867 340.796 64.768C340.018 65.7387 339.026 66.688 337.82 67.616H342.14V69.84H334.108V67.808Z" fill="#9CA3AF"/>
<rect x="249.5" y="44.5" width="105" height="39" rx="19.5" stroke="#E5E7EB"/>
<rect x="365.5" y="44.5" width="106" height="39" rx="19.5" fill="white"/>
<path d="M386.552 62.384C386.552 63.0347 386.403 63.632 386.104 64.176C385.805 64.7093 385.347 65.1413 384.728 65.472C384.109 65.8027 383.341 65.968 382.424 65.968H380.728V70H377.992V58.768H382.424C383.32 58.768 384.077 58.9227 384.696 59.232C385.315 59.5413 385.779 59.968 386.088 60.512C386.397 61.056 386.552 61.68 386.552 62.384ZM382.216 63.792C382.739 63.792 383.128 63.6693 383.384 63.424C383.64 63.1787 383.768 62.832 383.768 62.384C383.768 61.936 383.64 61.5893 383.384 61.344C383.128 61.0987 382.739 60.976 382.216 60.976H380.728V63.792H382.216ZM392.04 70.128C391.166 70.128 390.376 69.9413 389.672 69.568C388.979 69.1947 388.43 68.6613 388.024 67.968C387.63 67.2747 387.432 66.464 387.432 65.536C387.432 64.6187 387.635 63.8133 388.04 63.12C388.446 62.416 389 61.8773 389.704 61.504C390.408 61.1307 391.198 60.944 392.072 60.944C392.947 60.944 393.736 61.1307 394.44 61.504C395.144 61.8773 395.699 62.416 396.104 63.12C396.51 63.8133 396.712 64.6187 396.712 65.536C396.712 66.4533 396.504 67.264 396.088 67.968C395.683 68.6613 395.123 69.1947 394.408 69.568C393.704 69.9413 392.915 70.128 392.04 70.128ZM392.04 67.76C392.563 67.76 393.006 67.568 393.368 67.184C393.742 66.8 393.928 66.2507 393.928 65.536C393.928 64.8213 393.747 64.272 393.384 63.888C393.032 63.504 392.595 63.312 392.072 63.312C391.539 63.312 391.096 63.504 390.744 63.888C390.392 64.2613 390.216 64.8107 390.216 65.536C390.216 66.2507 390.387 66.8 390.728 67.184C391.08 67.568 391.518 67.76 392.04 67.76ZM400.9 62.56C401.22 62.0693 401.62 61.6853 402.1 61.408C402.58 61.12 403.113 60.976 403.7 60.976V63.872H402.948C402.265 63.872 401.753 64.0213 401.412 64.32C401.071 64.608 400.9 65.12 400.9 65.856V70H398.164V61.072H400.9V62.56ZM409.984 67.68V70H408.592C407.6 70 406.826 69.76 406.272 69.28C405.717 68.7893 405.44 67.9947 405.44 66.896V63.344H404.352V61.072H405.44V58.896H408.176V61.072H409.968V63.344H408.176V66.928C408.176 67.1947 408.24 67.3867 408.368 67.504C408.496 67.6213 408.709 67.68 409.008 67.68H409.984ZM415.988 63.344H414.516V70H411.78V63.344H410.788V61.072H411.78V60.816C411.78 59.7173 412.094 58.8853 412.724 58.32C413.353 57.744 414.276 57.456 415.492 57.456C415.694 57.456 415.844 57.4613 415.94 57.472V59.792C415.417 59.76 415.049 59.8347 414.836 60.016C414.622 60.1973 414.516 60.5227 414.516 60.992V61.072H415.988V63.344ZM421.337 70.128C420.463 70.128 419.673 69.9413 418.969 69.568C418.276 69.1947 417.727 68.6613 417.321 67.968C416.927 67.2747 416.729 66.464 416.729 65.536C416.729 64.6187 416.932 63.8133 417.337 63.12C417.743 62.416 418.297 61.8773 419.001 61.504C419.705 61.1307 420.495 60.944 421.369 60.944C422.244 60.944 423.033 61.1307 423.737 61.504C424.441 61.8773 424.996 62.416 425.401 63.12C425.807 63.8133 426.009 64.6187 426.009 65.536C426.009 66.4533 425.801 67.264 425.385 67.968C424.98 68.6613 424.42 69.1947 423.705 69.568C423.001 69.9413 422.212 70.128 421.337 70.128ZM421.337 67.76C421.86 67.76 422.303 67.568 422.665 67.184C423.039 66.8 423.225 66.2507 423.225 65.536C423.225 64.8213 423.044 64.272 422.681 63.888C422.329 63.504 421.892 63.312 421.369 63.312C420.836 63.312 420.393 63.504 420.041 63.888C419.689 64.2613 419.513 64.8107 419.513 65.536C419.513 66.2507 419.684 66.8 420.025 67.184C420.377 67.568 420.815 67.76 421.337 67.76ZM430.197 58.16V70H427.461V58.16H430.197ZM433.556 60.144C433.076 60.144 432.681 60.0053 432.372 59.728C432.073 59.44 431.924 59.088 431.924 58.672C431.924 58.2453 432.073 57.8933 432.372 57.616C432.681 57.328 433.076 57.184 433.556 57.184C434.025 57.184 434.409 57.328 434.708 57.616C435.017 57.8933 435.172 58.2453 435.172 58.672C435.172 59.088 435.017 59.44 434.708 59.728C434.409 60.0053 434.025 60.144 433.556 60.144ZM434.916 61.072V70H432.18V61.072H434.916ZM440.962 70.128C440.088 70.128 439.298 69.9413 438.594 69.568C437.901 69.1947 437.352 68.6613 436.946 67.968C436.552 67.2747 436.354 66.464 436.354 65.536C436.354 64.6187 436.557 63.8133 436.962 63.12C437.368 62.416 437.922 61.8773 438.626 61.504C439.33 61.1307 440.12 60.944 440.994 60.944C441.869 60.944 442.658 61.1307 443.362 61.504C444.066 61.8773 444.621 62.416 445.026 63.12C445.432 63.8133 445.634 64.6187 445.634 65.536C445.634 66.4533 445.426 67.264 445.01 67.968C444.605 68.6613 444.045 69.1947 443.33 69.568C442.626 69.9413 441.837 70.128 440.962 70.128ZM440.962 67.76C441.485 67.76 441.928 67.568 442.29 67.184C442.664 66.8 442.85 66.2507 442.85 65.536C442.85 64.8213 442.669 64.272 442.306 63.888C441.954 63.504 441.517 63.312 440.994 63.312C440.461 63.312 440.018 63.504 439.666 63.888C439.314 64.2613 439.138 64.8107 439.138 65.536C439.138 66.2507 439.309 66.8 439.65 67.184C440.002 67.568 440.44 67.76 440.962 67.76ZM450.3 61.616C450.343 60.4747 450.716 59.5947 451.42 58.976C452.124 58.3573 453.079 58.048 454.284 58.048C455.084 58.048 455.767 58.1867 456.332 58.464C456.908 58.7413 457.34 59.12 457.628 59.6C457.927 60.08 458.076 60.6187 458.076 61.216C458.076 61.92 457.9 62.496 457.548 62.944C457.196 63.3813 456.786 63.68 456.316 63.84V63.904C456.924 64.1067 457.404 64.4427 457.756 64.912C458.108 65.3813 458.284 65.984 458.284 66.72C458.284 67.3813 458.13 67.968 457.82 68.48C457.522 68.9813 457.079 69.376 456.492 69.664C455.916 69.952 455.228 70.096 454.428 70.096C453.148 70.096 452.124 69.7813 451.356 69.152C450.599 68.5227 450.199 67.5733 450.156 66.304H452.812C452.823 66.7733 452.956 67.1467 453.212 67.424C453.468 67.6907 453.842 67.824 454.332 67.824C454.748 67.824 455.068 67.7067 455.292 67.472C455.527 67.2267 455.644 66.9067 455.644 66.512C455.644 66 455.479 65.632 455.148 65.408C454.828 65.1733 454.311 65.056 453.596 65.056H453.084V62.832H453.596C454.14 62.832 454.578 62.7413 454.908 62.56C455.25 62.368 455.42 62.032 455.42 61.552C455.42 61.168 455.314 60.8693 455.1 60.656C454.887 60.4427 454.594 60.336 454.22 60.336C453.815 60.336 453.511 60.4587 453.308 60.704C453.116 60.9493 453.004 61.2533 452.972 61.616H450.3Z" fill="#9CA3AF"/>
<rect x="365.5" y="44.5" width="106" height="39" rx="19.5" stroke="#E5E7EB"/>
<rect x="64" y="670" width="12" height="12" rx="6" fill="#5550FF"/>
<path d="M90.51 675.988C91.0607 676.091 91.5133 676.366 91.868 676.814C92.2227 677.262 92.4 677.775 92.4 678.354C92.4 678.877 92.2693 679.339 92.008 679.74C91.756 680.132 91.3873 680.44 90.902 680.664C90.4167 680.888 89.8427 681 89.18 681H84.966V671.228H88.998C89.6607 671.228 90.23 671.335 90.706 671.55C91.1913 671.765 91.5553 672.063 91.798 672.446C92.05 672.829 92.176 673.263 92.176 673.748C92.176 674.317 92.022 674.793 91.714 675.176C91.4153 675.559 91.014 675.829 90.51 675.988ZM86.926 675.26H88.718C89.1847 675.26 89.544 675.157 89.796 674.952C90.048 674.737 90.174 674.434 90.174 674.042C90.174 673.65 90.048 673.347 89.796 673.132C89.544 672.917 89.1847 672.81 88.718 672.81H86.926V675.26ZM88.9 679.404C89.376 679.404 89.7447 679.292 90.006 679.068C90.2767 678.844 90.412 678.527 90.412 678.116C90.412 677.696 90.272 677.369 89.992 677.136C89.712 676.893 89.334 676.772 88.858 676.772H86.926V679.404H88.9ZM94.9561 672.32C94.6108 672.32 94.3214 672.213 94.0881 671.998C93.8641 671.774 93.7521 671.499 93.7521 671.172C93.7521 670.845 93.8641 670.575 94.0881 670.36C94.3214 670.136 94.6108 670.024 94.9561 670.024C95.3014 670.024 95.5861 670.136 95.8101 670.36C96.0434 670.575 96.1601 670.845 96.1601 671.172C96.1601 671.499 96.0434 671.774 95.8101 671.998C95.5861 672.213 95.3014 672.32 94.9561 672.32ZM95.9221 673.244V681H93.9621V673.244H95.9221ZM100.141 674.854V678.606C100.141 678.867 100.201 679.059 100.323 679.18C100.453 679.292 100.668 679.348 100.967 679.348H101.877V681H100.645C98.9926 681 98.1666 680.197 98.1666 678.592V674.854H97.2426V673.244H98.1666V671.326H100.141V673.244H101.877V674.854H100.141ZM102.782 677.122C102.782 676.319 102.946 675.619 103.272 675.022C103.599 674.415 104.052 673.949 104.63 673.622C105.209 673.286 105.872 673.118 106.618 673.118C107.58 673.118 108.373 673.361 108.998 673.846C109.633 674.322 110.058 674.994 110.272 675.862H108.158C108.046 675.526 107.855 675.265 107.584 675.078C107.323 674.882 106.996 674.784 106.604 674.784C106.044 674.784 105.601 674.989 105.274 675.4C104.948 675.801 104.784 676.375 104.784 677.122C104.784 677.859 104.948 678.433 105.274 678.844C105.601 679.245 106.044 679.446 106.604 679.446C107.398 679.446 107.916 679.091 108.158 678.382H110.272C110.058 679.222 109.633 679.889 108.998 680.384C108.364 680.879 107.57 681.126 106.618 681.126C105.872 681.126 105.209 680.963 104.63 680.636C104.052 680.3 103.599 679.833 103.272 679.236C102.946 678.629 102.782 677.925 102.782 677.122ZM115.152 681.126C114.406 681.126 113.734 680.963 113.136 680.636C112.539 680.3 112.068 679.829 111.722 679.222C111.386 678.615 111.218 677.915 111.218 677.122C111.218 676.329 111.391 675.629 111.736 675.022C112.091 674.415 112.572 673.949 113.178 673.622C113.785 673.286 114.462 673.118 115.208 673.118C115.955 673.118 116.632 673.286 117.238 673.622C117.845 673.949 118.321 674.415 118.666 675.022C119.021 675.629 119.198 676.329 119.198 677.122C119.198 677.915 119.016 678.615 118.652 679.222C118.298 679.829 117.812 680.3 117.196 680.636C116.59 680.963 115.908 681.126 115.152 681.126ZM115.152 679.418C115.507 679.418 115.838 679.334 116.146 679.166C116.464 678.989 116.716 678.727 116.902 678.382C117.089 678.037 117.182 677.617 117.182 677.122C117.182 676.385 116.986 675.82 116.594 675.428C116.212 675.027 115.74 674.826 115.18 674.826C114.62 674.826 114.149 675.027 113.766 675.428C113.393 675.82 113.206 676.385 113.206 677.122C113.206 677.859 113.388 678.429 113.752 678.83C114.126 679.222 114.592 679.418 115.152 679.418ZM121.63 672.32C121.285 672.32 120.995 672.213 120.762 671.998C120.538 671.774 120.426 671.499 120.426 671.172C120.426 670.845 120.538 670.575 120.762 670.36C120.995 670.136 121.285 670.024 121.63 670.024C121.975 670.024 122.26 670.136 122.484 670.36C122.717 670.575 122.834 670.845 122.834 671.172C122.834 671.499 122.717 671.774 122.484 671.998C122.26 672.213 121.975 672.32 121.63 672.32ZM122.596 673.244V681H120.636V673.244H122.596ZM128.83 673.132C129.754 673.132 130.501 673.426 131.07 674.014C131.64 674.593 131.924 675.405 131.924 676.45V681H129.964V676.716C129.964 676.1 129.81 675.629 129.502 675.302C129.194 674.966 128.774 674.798 128.242 674.798C127.701 674.798 127.272 674.966 126.954 675.302C126.646 675.629 126.492 676.1 126.492 676.716V681H124.532V673.244H126.492V674.21C126.754 673.874 127.085 673.613 127.486 673.426C127.897 673.23 128.345 673.132 128.83 673.132Z" fill="#111111"/>
<path d="M237.922 672.278L234.198 681H232.21L235.962 672.502H231.174V670.822H237.922V672.278ZM239.712 678.788C240.608 678.041 241.322 677.421 241.854 676.926C242.386 676.422 242.829 675.899 243.184 675.358C243.538 674.817 243.716 674.285 243.716 673.762C243.716 673.286 243.604 672.913 243.38 672.642C243.156 672.371 242.81 672.236 242.344 672.236C241.877 672.236 241.518 672.395 241.266 672.712C241.014 673.02 240.883 673.445 240.874 673.986H238.97C239.007 672.866 239.338 672.017 239.964 671.438C240.598 670.859 241.401 670.57 242.372 670.57C243.436 670.57 244.252 670.855 244.822 671.424C245.391 671.984 245.676 672.726 245.676 673.65C245.676 674.378 245.48 675.073 245.088 675.736C244.696 676.399 244.248 676.977 243.744 677.472C243.24 677.957 242.582 678.545 241.77 679.236H245.9V680.86H238.984V679.404L239.712 678.788ZM246.911 673.3C246.911 672.591 247.116 672.035 247.527 671.634C247.947 671.233 248.483 671.032 249.137 671.032C249.79 671.032 250.322 671.233 250.733 671.634C251.153 672.035 251.363 672.591 251.363 673.3C251.363 674.019 251.153 674.579 250.733 674.98C250.322 675.381 249.79 675.582 249.137 675.582C248.483 675.582 247.947 675.381 247.527 674.98C247.116 674.579 246.911 674.019 246.911 673.3ZM255.899 671.2L250.397 681H248.493L253.981 671.2H255.899ZM249.123 672.208C248.609 672.208 248.353 672.572 248.353 673.3C248.353 674.037 248.609 674.406 249.123 674.406C249.375 674.406 249.571 674.317 249.711 674.14C249.851 673.953 249.921 673.673 249.921 673.3C249.921 672.572 249.655 672.208 249.123 672.208ZM253.057 678.886C253.057 678.167 253.262 677.612 253.673 677.22C254.093 676.819 254.629 676.618 255.283 676.618C255.936 676.618 256.463 676.819 256.865 677.22C257.275 677.612 257.481 678.167 257.481 678.886C257.481 679.605 257.275 680.165 256.865 680.566C256.463 680.967 255.936 681.168 255.283 681.168C254.62 681.168 254.083 680.967 253.673 680.566C253.262 680.165 253.057 679.605 253.057 678.886ZM255.269 677.794C254.737 677.794 254.471 678.158 254.471 678.886C254.471 679.623 254.737 679.992 255.269 679.992C255.791 679.992 256.053 679.623 256.053 678.886C256.053 678.158 255.791 677.794 255.269 677.794Z" fill="#111111"/>
<rect x="64" y="698" width="12" height="12" rx="6" fill="#5550FF"/>
<path d="M90.51 703.988C91.0607 704.091 91.5133 704.366 91.868 704.814C92.2227 705.262 92.4 705.775 92.4 706.354C92.4 706.877 92.2693 707.339 92.008 707.74C91.756 708.132 91.3873 708.44 90.902 708.664C90.4167 708.888 89.8427 709 89.18 709H84.966V699.228H88.998C89.6607 699.228 90.23 699.335 90.706 699.55C91.1913 699.765 91.5553 700.063 91.798 700.446C92.05 700.829 92.176 701.263 92.176 701.748C92.176 702.317 92.022 702.793 91.714 703.176C91.4153 703.559 91.014 703.829 90.51 703.988ZM86.926 703.26H88.718C89.1847 703.26 89.544 703.157 89.796 702.952C90.048 702.737 90.174 702.434 90.174 702.042C90.174 701.65 90.048 701.347 89.796 701.132C89.544 700.917 89.1847 700.81 88.718 700.81H86.926V703.26ZM88.9 707.404C89.376 707.404 89.7447 707.292 90.006 707.068C90.2767 706.844 90.412 706.527 90.412 706.116C90.412 705.696 90.272 705.369 89.992 705.136C89.712 704.893 89.334 704.772 88.858 704.772H86.926V707.404H88.9ZM94.9561 700.32C94.6108 700.32 94.3214 700.213 94.0881 699.998C93.8641 699.774 93.7521 699.499 93.7521 699.172C93.7521 698.845 93.8641 698.575 94.0881 698.36C94.3214 698.136 94.6108 698.024 94.9561 698.024C95.3014 698.024 95.5861 698.136 95.8101 698.36C96.0434 698.575 96.1601 698.845 96.1601 699.172C96.1601 699.499 96.0434 699.774 95.8101 699.998C95.5861 700.213 95.3014 700.32 94.9561 700.32ZM95.9221 701.244V709H93.9621V701.244H95.9221ZM100.141 702.854V706.606C100.141 706.867 100.201 707.059 100.323 707.18C100.453 707.292 100.668 707.348 100.967 707.348H101.877V709H100.645C98.9926 709 98.1666 708.197 98.1666 706.592V702.854H97.2426V701.244H98.1666V699.326H100.141V701.244H101.877V702.854H100.141ZM102.782 705.122C102.782 704.319 102.946 703.619 103.272 703.022C103.599 702.415 104.052 701.949 104.63 701.622C105.209 701.286 105.872 701.118 106.618 701.118C107.58 701.118 108.373 701.361 108.998 701.846C109.633 702.322 110.058 702.994 110.272 703.862H108.158C108.046 703.526 107.855 703.265 107.584 703.078C107.323 702.882 106.996 702.784 106.604 702.784C106.044 702.784 105.601 702.989 105.274 703.4C104.948 703.801 104.784 704.375 104.784 705.122C104.784 705.859 104.948 706.433 105.274 706.844C105.601 707.245 106.044 707.446 106.604 707.446C107.398 707.446 107.916 707.091 108.158 706.382H110.272C110.058 707.222 109.633 707.889 108.998 708.384C108.364 708.879 107.57 709.126 106.618 709.126C105.872 709.126 105.209 708.963 104.63 708.636C104.052 708.3 103.599 707.833 103.272 707.236C102.946 706.629 102.782 705.925 102.782 705.122ZM115.152 709.126C114.406 709.126 113.734 708.963 113.136 708.636C112.539 708.3 112.068 707.829 111.722 707.222C111.386 706.615 111.218 705.915 111.218 705.122C111.218 704.329 111.391 703.629 111.736 703.022C112.091 702.415 112.572 701.949 113.178 701.622C113.785 701.286 114.462 701.118 115.208 701.118C115.955 701.118 116.632 701.286 117.238 701.622C117.845 701.949 118.321 702.415 118.666 703.022C119.021 703.629 119.198 704.329 119.198 705.122C119.198 705.915 119.016 706.615 118.652 707.222C118.298 707.829 117.812 708.3 117.196 708.636C116.59 708.963 115.908 709.126 115.152 709.126ZM115.152 707.418C115.507 707.418 115.838 707.334 116.146 707.166C116.464 706.989 116.716 706.727 116.902 706.382C117.089 706.037 117.182 705.617 117.182 705.122C117.182 704.385 116.986 703.82 116.594 703.428C116.212 703.027 115.74 702.826 115.18 702.826C114.62 702.826 114.149 703.027 113.766 703.428C113.393 703.82 113.206 704.385 113.206 705.122C113.206 705.859 113.388 706.429 113.752 706.83C114.126 707.222 114.592 707.418 115.152 707.418ZM121.63 700.32C121.285 700.32 120.995 700.213 120.762 699.998C120.538 699.774 120.426 699.499 120.426 699.172C120.426 698.845 120.538 698.575 120.762 698.36C120.995 698.136 121.285 698.024 121.63 698.024C121.975 698.024 122.26 698.136 122.484 698.36C122.717 698.575 122.834 698.845 122.834 699.172C122.834 699.499 122.717 699.774 122.484 699.998C122.26 700.213 121.975 700.32 121.63 700.32ZM122.596 701.244V709H120.636V701.244H122.596ZM128.83 701.132C129.754 701.132 130.501 701.426 131.07 702.014C131.64 702.593 131.924 703.405 131.924 704.45V709H129.964V704.716C129.964 704.1 129.81 703.629 129.502 703.302C129.194 702.966 128.774 702.798 128.242 702.798C127.701 702.798 127.272 702.966 126.954 703.302C126.646 703.629 126.492 704.1 126.492 704.716V709H124.532V701.244H126.492V702.21C126.754 701.874 127.085 701.613 127.486 701.426C127.897 701.23 128.345 701.132 128.83 701.132Z" fill="#111111"/>
<path d="M237.922 700.278L234.198 709H232.21L235.962 700.502H231.174V698.822H237.922V700.278ZM239.712 706.788C240.608 706.041 241.322 705.421 241.854 704.926C242.386 704.422 242.829 703.899 243.184 703.358C243.538 702.817 243.716 702.285 243.716 701.762C243.716 701.286 243.604 700.913 243.38 700.642C243.156 700.371 242.81 700.236 242.344 700.236C241.877 700.236 241.518 700.395 241.266 700.712C241.014 701.02 240.883 701.445 240.874 701.986H238.97C239.007 700.866 239.338 700.017 239.964 699.438C240.598 698.859 241.401 698.57 242.372 698.57C243.436 698.57 244.252 698.855 244.822 699.424C245.391 699.984 245.676 700.726 245.676 701.65C245.676 702.378 245.48 703.073 245.088 703.736C244.696 704.399 244.248 704.977 243.744 705.472C243.24 705.957 242.582 706.545 241.77 707.236H245.9V708.86H238.984V707.404L239.712 706.788ZM246.911 701.3C246.911 700.591 247.116 700.035 247.527 699.634C247.947 699.233 248.483 699.032 249.137 699.032C249.79 699.032 250.322 699.233 250.733 699.634C251.153 700.035 251.363 700.591 251.363 701.3C251.363 702.019 251.153 702.579 250.733 702.98C250.322 703.381 249.79 703.582 249.137 703.582C248.483 703.582 247.947 703.381 247.527 702.98C247.116 702.579 246.911 702.019 246.911 701.3ZM255.899 699.2L250.397 709H248.493L253.981 699.2H255.899ZM249.123 700.208C248.609 700.208 248.353 700.572 248.353 701.3C248.353 702.037 248.609 702.406 249.123 702.406C249.375 702.406 249.571 702.317 249.711 702.14C249.851 701.953 249.921 701.673 249.921 701.3C249.921 700.572 249.655 700.208 249.123 700.208ZM253.057 706.886C253.057 706.167 253.262 705.612 253.673 705.22C254.093 704.819 254.629 704.618 255.283 704.618C255.936 704.618 256.463 704.819 256.865 705.22C257.275 705.612 257.481 706.167 257.481 706.886C257.481 707.605 257.275 708.165 256.865 708.566C256.463 708.967 255.936 709.168 255.283 709.168C254.62 709.168 254.083 708.967 253.673 708.566C253.262 708.165 253.057 707.605 253.057 706.886ZM255.269 705.794C254.737 705.794 254.471 706.158 254.471 706.886C254.471 707.623 254.737 707.992 255.269 707.992C255.791 707.992 256.053 707.623 256.053 706.886C256.053 706.158 255.791 705.794 255.269 705.794Z" fill="#111111"/>
<rect x="64" y="726" width="12" height="12" rx="6" fill="#5550FF"/>
<path d="M90.51 731.988C91.0607 732.091 91.5133 732.366 91.868 732.814C92.2227 733.262 92.4 733.775 92.4 734.354C92.4 734.877 92.2693 735.339 92.008 735.74C91.756 736.132 91.3873 736.44 90.902 736.664C90.4167 736.888 89.8427 737 89.18 737H84.966V727.228H88.998C89.6607 727.228 90.23 727.335 90.706 727.55C91.1913 727.765 91.5553 728.063 91.798 728.446C92.05 728.829 92.176 729.263 92.176 729.748C92.176 730.317 92.022 730.793 91.714 731.176C91.4153 731.559 91.014 731.829 90.51 731.988ZM86.926 731.26H88.718C89.1847 731.26 89.544 731.157 89.796 730.952C90.048 730.737 90.174 730.434 90.174 730.042C90.174 729.65 90.048 729.347 89.796 729.132C89.544 728.917 89.1847 728.81 88.718 728.81H86.926V731.26ZM88.9 735.404C89.376 735.404 89.7447 735.292 90.006 735.068C90.2767 734.844 90.412 734.527 90.412 734.116C90.412 733.696 90.272 733.369 89.992 733.136C89.712 732.893 89.334 732.772 88.858 732.772H86.926V735.404H88.9ZM94.9561 728.32C94.6108 728.32 94.3214 728.213 94.0881 727.998C93.8641 727.774 93.7521 727.499 93.7521 727.172C93.7521 726.845 93.8641 726.575 94.0881 726.36C94.3214 726.136 94.6108 726.024 94.9561 726.024C95.3014 726.024 95.5861 726.136 95.8101 726.36C96.0434 726.575 96.1601 726.845 96.1601 727.172C96.1601 727.499 96.0434 727.774 95.8101 727.998C95.5861 728.213 95.3014 728.32 94.9561 728.32ZM95.9221 729.244V737H93.9621V729.244H95.9221ZM100.141 730.854V734.606C100.141 734.867 100.201 735.059 100.323 735.18C100.453 735.292 100.668 735.348 100.967 735.348H101.877V737H100.645C98.9926 737 98.1666 736.197 98.1666 734.592V730.854H97.2426V729.244H98.1666V727.326H100.141V729.244H101.877V730.854H100.141ZM102.782 733.122C102.782 732.319 102.946 731.619 103.272 731.022C103.599 730.415 104.052 729.949 104.63 729.622C105.209 729.286 105.872 729.118 106.618 729.118C107.58 729.118 108.373 729.361 108.998 729.846C109.633 730.322 110.058 730.994 110.272 731.862H108.158C108.046 731.526 107.855 731.265 107.584 731.078C107.323 730.882 106.996 730.784 106.604 730.784C106.044 730.784 105.601 730.989 105.274 731.4C104.948 731.801 104.784 732.375 104.784 733.122C104.784 733.859 104.948 734.433 105.274 734.844C105.601 735.245 106.044 735.446 106.604 735.446C107.398 735.446 107.916 735.091 108.158 734.382H110.272C110.058 735.222 109.633 735.889 108.998 736.384C108.364 736.879 107.57 737.126 106.618 737.126C105.872 737.126 105.209 736.963 104.63 736.636C104.052 736.3 103.599 735.833 103.272 735.236C102.946 734.629 102.782 733.925 102.782 733.122ZM115.152 737.126C114.406 737.126 113.734 736.963 113.136 736.636C112.539 736.3 112.068 735.829 111.722 735.222C111.386 734.615 111.218 733.915 111.218 733.122C111.218 732.329 111.391 731.629 111.736 731.022C112.091 730.415 112.572 729.949 113.178 729.622C113.785 729.286 114.462 729.118 115.208 729.118C115.955 729.118 116.632 729.286 117.238 729.622C117.845 729.949 118.321 730.415 118.666 731.022C119.021 731.629 119.198 732.329 119.198 733.122C119.198 733.915 119.016 734.615 118.652 735.222C118.298 735.829 117.812 736.3 117.196 736.636C116.59 736.963 115.908 737.126 115.152 737.126ZM115.152 735.418C115.507 735.418 115.838 735.334 116.146 735.166C116.464 734.989 116.716 734.727 116.902 734.382C117.089 734.037 117.182 733.617 117.182 733.122C117.182 732.385 116.986 731.82 116.594 731.428C116.212 731.027 115.74 730.826 115.18 730.826C114.62 730.826 114.149 731.027 113.766 731.428C113.393 731.82 113.206 732.385 113.206 733.122C113.206 733.859 113.388 734.429 113.752 734.83C114.126 735.222 114.592 735.418 115.152 735.418ZM121.63 728.32C121.285 728.32 120.995 728.213 120.762 727.998C120.538 727.774 120.426 727.499 120.426 727.172C120.426 726.845 120.538 726.575 120.762 726.36C120.995 726.136 121.285 726.024 121.63 726.024C121.975 726.024 122.26 726.136 122.484 726.36C122.717 726.575 122.834 726.845 122.834 727.172C122.834 727.499 122.717 727.774 122.484 727.998C122.26 728.213 121.975 728.32 121.63 728.32ZM122.596 729.244V737H120.636V729.244H122.596ZM128.83 729.132C129.754 729.132 130.501 729.426 131.07 730.014C131.64 730.593 131.924 731.405 131.924 732.45V737H129.964V732.716C129.964 732.1 129.81 731.629 129.502 731.302C129.194 730.966 128.774 730.798 128.242 730.798C127.701 730.798 127.272 730.966 126.954 731.302C126.646 731.629 126.492 732.1 126.492 732.716V737H124.532V729.244H126.492V730.21C126.754 729.874 127.085 729.613 127.486 729.426C127.897 729.23 128.345 729.132 128.83 729.132Z" fill="#111111"/>
<path d="M237.922 728.278L234.198 737H232.21L235.962 728.502H231.174V726.822H237.922V728.278ZM239.712 734.788C240.608 734.041 241.322 733.421 241.854 732.926C242.386 732.422 242.829 731.899 243.184 731.358C243.538 730.817 243.716 730.285 243.716 729.762C243.716 729.286 243.604 728.913 243.38 728.642C243.156 728.371 242.81 728.236 242.344 728.236C241.877 728.236 241.518 728.395 241.266 728.712C241.014 729.02 240.883 729.445 240.874 729.986H238.97C239.007 728.866 239.338 728.017 239.964 727.438C240.598 726.859 241.401 726.57 242.372 726.57C243.436 726.57 244.252 726.855 244.822 727.424C245.391 727.984 245.676 728.726 245.676 729.65C245.676 730.378 245.48 731.073 245.088 731.736C244.696 732.399 244.248 732.977 243.744 733.472C243.24 733.957 242.582 734.545 241.77 735.236H245.9V736.86H238.984V735.404L239.712 734.788ZM246.911 729.3C246.911 728.591 247.116 728.035 247.527 727.634C247.947 727.233 248.483 727.032 249.137 727.032C249.79 727.032 250.322 727.233 250.733 727.634C251.153 728.035 251.363 728.591 251.363 729.3C251.363 730.019 251.153 730.579 250.733 730.98C250.322 731.381 249.79 731.582 249.137 731.582C248.483 731.582 247.947 731.381 247.527 730.98C247.116 730.579 246.911 730.019 246.911 729.3ZM255.899 727.2L250.397 737H248.493L253.981 727.2H255.899ZM249.123 728.208C248.609 728.208 248.353 728.572 248.353 729.3C248.353 730.037 248.609 730.406 249.123 730.406C249.375 730.406 249.571 730.317 249.711 730.14C249.851 729.953 249.921 729.673 249.921 729.3C249.921 728.572 249.655 728.208 249.123 728.208ZM253.057 734.886C253.057 734.167 253.262 733.612 253.673 733.22C254.093 732.819 254.629 732.618 255.283 732.618C255.936 732.618 256.463 732.819 256.865 733.22C257.275 733.612 257.481 734.167 257.481 734.886C257.481 735.605 257.275 736.165 256.865 736.566C256.463 736.967 255.936 737.168 255.283 737.168C254.62 737.168 254.083 736.967 253.673 736.566C253.262 736.165 253.057 735.605 253.057 734.886ZM255.269 733.794C254.737 733.794 254.471 734.158 254.471 734.886C254.471 735.623 254.737 735.992 255.269 735.992C255.791 735.992 256.053 735.623 256.053 734.886C256.053 734.158 255.791 733.794 255.269 733.794Z" fill="#111111"/>
<rect x="64" y="754" width="12" height="12" rx="6" fill="#5550FF"/>
<path d="M92.176 760.954C92.176 761.234 92.1573 761.486 92.12 761.71H86.45C86.4967 762.27 86.6927 762.709 87.038 763.026C87.3833 763.343 87.808 763.502 88.312 763.502C89.04 763.502 89.558 763.189 89.866 762.564H91.98C91.756 763.311 91.3267 763.927 90.692 764.412C90.0573 764.888 89.278 765.126 88.354 765.126C87.6073 765.126 86.9353 764.963 86.338 764.636C85.75 764.3 85.288 763.829 84.952 763.222C84.6253 762.615 84.462 761.915 84.462 761.122C84.462 760.319 84.6253 759.615 84.952 759.008C85.2787 758.401 85.736 757.935 86.324 757.608C86.912 757.281 87.5887 757.118 88.354 757.118C89.0913 757.118 89.7493 757.277 90.328 757.594C90.916 757.911 91.3687 758.364 91.686 758.952C92.0127 759.531 92.176 760.198 92.176 760.954ZM90.146 760.394C90.1367 759.89 89.9547 759.489 89.6 759.19C89.2453 758.882 88.8113 758.728 88.298 758.728C87.8127 758.728 87.402 758.877 87.066 759.176C86.7393 759.465 86.5387 759.871 86.464 760.394H90.146ZM95.8886 758.854V762.606C95.8886 762.867 95.9493 763.059 96.0706 763.18C96.2013 763.292 96.416 763.348 96.7146 763.348H97.6246V765H96.3926C94.7406 765 93.9146 764.197 93.9146 762.592V758.854H92.9906V757.244H93.9146V755.326H95.8886V757.244H97.6246V758.854H95.8886ZM98.5304 761.122C98.5304 760.319 98.6937 759.619 99.0204 759.022C99.347 758.415 99.7997 757.949 100.378 757.622C100.957 757.286 101.62 757.118 102.366 757.118C103.328 757.118 104.121 757.361 104.746 757.846C105.381 758.322 105.806 758.994 106.02 759.862H103.906C103.794 759.526 103.603 759.265 103.332 759.078C103.071 758.882 102.744 758.784 102.352 758.784C101.792 758.784 101.349 758.989 101.022 759.4C100.696 759.801 100.532 760.375 100.532 761.122C100.532 761.859 100.696 762.433 101.022 762.844C101.349 763.245 101.792 763.446 102.352 763.446C103.146 763.446 103.664 763.091 103.906 762.382H106.02C105.806 763.222 105.381 763.889 104.746 764.384C104.112 764.879 103.318 765.126 102.366 765.126C101.62 765.126 100.957 764.963 100.378 764.636C99.7997 764.3 99.347 763.833 99.0204 763.236C98.6937 762.629 98.5304 761.925 98.5304 761.122Z" fill="#111111"/>
<path d="M237.922 756.278L234.198 765H232.21L235.962 756.502H231.174V754.822H237.922V756.278ZM239.712 762.788C240.608 762.041 241.322 761.421 241.854 760.926C242.386 760.422 242.829 759.899 243.184 759.358C243.538 758.817 243.716 758.285 243.716 757.762C243.716 757.286 243.604 756.913 243.38 756.642C243.156 756.371 242.81 756.236 242.344 756.236C241.877 756.236 241.518 756.395 241.266 756.712C241.014 757.02 240.883 757.445 240.874 757.986H238.97C239.007 756.866 239.338 756.017 239.964 755.438C240.598 754.859 241.401 754.57 242.372 754.57C243.436 754.57 244.252 754.855 244.822 755.424C245.391 755.984 245.676 756.726 245.676 757.65C245.676 758.378 245.48 759.073 245.088 759.736C244.696 760.399 244.248 760.977 243.744 761.472C243.24 761.957 242.582 762.545 241.77 763.236H245.9V764.86H238.984V763.404L239.712 762.788ZM246.911 757.3C246.911 756.591 247.116 756.035 247.527 755.634C247.947 755.233 248.483 755.032 249.137 755.032C249.79 755.032 250.322 755.233 250.733 755.634C251.153 756.035 251.363 756.591 251.363 757.3C251.363 758.019 251.153 758.579 250.733 758.98C250.322 759.381 249.79 759.582 249.137 759.582C248.483 759.582 247.947 759.381 247.527 758.98C247.116 758.579 246.911 758.019 246.911 757.3ZM255.899 755.2L250.397 765H248.493L253.981 755.2H255.899ZM249.123 756.208C248.609 756.208 248.353 756.572 248.353 757.3C248.353 758.037 248.609 758.406 249.123 758.406C249.375 758.406 249.571 758.317 249.711 758.14C249.851 757.953 249.921 757.673 249.921 757.3C249.921 756.572 249.655 756.208 249.123 756.208ZM253.057 762.886C253.057 762.167 253.262 761.612 253.673 761.22C254.093 760.819 254.629 760.618 255.283 760.618C255.936 760.618 256.463 760.819 256.865 761.22C257.275 761.612 257.481 762.167 257.481 762.886C257.481 763.605 257.275 764.165 256.865 764.566C256.463 764.967 255.936 765.168 255.283 765.168C254.62 765.168 254.083 764.967 253.673 764.566C253.262 764.165 253.057 763.605 253.057 762.886ZM255.269 761.794C254.737 761.794 254.471 762.158 254.471 762.886C254.471 763.623 254.737 763.992 255.269 763.992C255.791 763.992 256.053 763.623 256.053 762.886C256.053 762.158 255.791 761.794 255.269 761.794Z" fill="#111111"/>
<rect x="44.5" y="650.5" width="233" height="135" rx="19.5" stroke="#E5E7EB"/>
<path d="M54.48 197.1V198.96H50.78V211H48.5V198.96H44.78V197.1H54.48ZM61.5691 211.18C60.5291 211.18 59.5891 210.947 58.7491 210.48C57.9091 210 57.2491 209.333 56.7691 208.48C56.2891 207.613 56.0491 206.613 56.0491 205.48C56.0491 204.36 56.2957 203.367 56.7891 202.5C57.2824 201.633 57.9557 200.967 58.8091 200.5C59.6624 200.033 60.6157 199.8 61.6691 199.8C62.7224 199.8 63.6757 200.033 64.5291 200.5C65.3824 200.967 66.0557 201.633 66.5491 202.5C67.0424 203.367 67.2891 204.36 67.2891 205.48C67.2891 206.6 67.0357 207.593 66.5291 208.46C66.0224 209.327 65.3291 210 64.4491 210.48C63.5824 210.947 62.6224 211.18 61.5691 211.18ZM61.5691 209.2C62.1557 209.2 62.7024 209.06 63.2091 208.78C63.7291 208.5 64.1491 208.08 64.4691 207.52C64.7891 206.96 64.9491 206.28 64.9491 205.48C64.9491 204.68 64.7957 204.007 64.4891 203.46C64.1824 202.9 63.7757 202.48 63.2691 202.2C62.7624 201.92 62.2157 201.78 61.6291 201.78C61.0424 201.78 60.4957 201.92 59.9891 202.2C59.4957 202.48 59.1024 202.9 58.8091 203.46C58.5157 204.007 58.3691 204.68 58.3691 205.48C58.3691 206.667 58.6691 207.587 59.2691 208.24C59.8824 208.88 60.6491 209.2 61.5691 209.2ZM72.203 201.84V207.94C72.203 208.353 72.2963 208.653 72.483 208.84C72.683 209.013 73.0163 209.1 73.483 209.1H74.883V211H73.083C72.0563 211 71.2696 210.76 70.723 210.28C70.1763 209.8 69.903 209.02 69.903 207.94V201.84H68.603V199.98H69.903V197.24H72.203V199.98H74.883V201.84H72.203ZM76.2244 205.44C76.2244 204.333 76.451 203.353 76.9044 202.5C77.371 201.647 77.9977 200.987 78.7844 200.52C79.5844 200.04 80.4644 199.8 81.4244 199.8C82.291 199.8 83.0444 199.973 83.6844 200.32C84.3377 200.653 84.8577 201.073 85.2444 201.58V199.98H87.5444V211H85.2444V209.36C84.8577 209.88 84.331 210.313 83.6644 210.66C82.9977 211.007 82.2377 211.18 81.3844 211.18C80.4377 211.18 79.571 210.94 78.7844 210.46C77.9977 209.967 77.371 209.287 76.9044 208.42C76.451 207.54 76.2244 206.547 76.2244 205.44ZM85.2444 205.48C85.2444 204.72 85.0844 204.06 84.7644 203.5C84.4577 202.94 84.051 202.513 83.5444 202.22C83.0377 201.927 82.491 201.78 81.9044 201.78C81.3177 201.78 80.771 201.927 80.2644 202.22C79.7577 202.5 79.3444 202.92 79.0244 203.48C78.7177 204.027 78.5644 204.68 78.5644 205.44C78.5644 206.2 78.7177 206.867 79.0244 207.44C79.3444 208.013 79.7577 208.453 80.2644 208.76C80.7844 209.053 81.331 209.2 81.9044 209.2C82.491 209.2 83.0377 209.053 83.5444 208.76C84.051 208.467 84.4577 208.04 84.7644 207.48C85.0844 206.907 85.2444 206.24 85.2444 205.48ZM92.8191 196.2V211H90.5391V196.2H92.8191ZM109.388 208.16H103.568L102.568 211H100.188L105.168 197.08H107.808L112.788 211H110.388L109.388 208.16ZM108.748 206.3L106.488 199.84L104.208 206.3H108.748ZM118.953 211.18C118.086 211.18 117.306 211.027 116.613 210.72C115.933 210.4 115.393 209.973 114.993 209.44C114.593 208.893 114.38 208.287 114.353 207.62H116.713C116.753 208.087 116.973 208.48 117.373 208.8C117.786 209.107 118.3 209.26 118.913 209.26C119.553 209.26 120.046 209.14 120.393 208.9C120.753 208.647 120.933 208.327 120.933 207.94C120.933 207.527 120.733 207.22 120.333 207.02C119.946 206.82 119.326 206.6 118.473 206.36C117.646 206.133 116.973 205.913 116.453 205.7C115.933 205.487 115.48 205.16 115.093 204.72C114.72 204.28 114.533 203.7 114.533 202.98C114.533 202.393 114.706 201.86 115.053 201.38C115.4 200.887 115.893 200.5 116.533 200.22C117.186 199.94 117.933 199.8 118.773 199.8C120.026 199.8 121.033 200.12 121.793 200.76C122.566 201.387 122.98 202.247 123.033 203.34H120.753C120.713 202.847 120.513 202.453 120.153 202.16C119.793 201.867 119.306 201.72 118.693 201.72C118.093 201.72 117.633 201.833 117.313 202.06C116.993 202.287 116.833 202.587 116.833 202.96C116.833 203.253 116.94 203.5 117.153 203.7C117.366 203.9 117.626 204.06 117.933 204.18C118.24 204.287 118.693 204.427 119.293 204.6C120.093 204.813 120.746 205.033 121.253 205.26C121.773 205.473 122.22 205.793 122.593 206.22C122.966 206.647 123.16 207.213 123.173 207.92C123.173 208.547 123 209.107 122.653 209.6C122.306 210.093 121.813 210.48 121.173 210.76C120.546 211.04 119.806 211.18 118.953 211.18ZM129.637 211.18C128.77 211.18 127.99 211.027 127.297 210.72C126.617 210.4 126.077 209.973 125.677 209.44C125.277 208.893 125.063 208.287 125.037 207.62H127.397C127.437 208.087 127.657 208.48 128.057 208.8C128.47 209.107 128.983 209.26 129.597 209.26C130.237 209.26 130.73 209.14 131.077 208.9C131.437 208.647 131.617 208.327 131.617 207.94C131.617 207.527 131.417 207.22 131.017 207.02C130.63 206.82 130.01 206.6 129.157 206.36C128.33 206.133 127.657 205.913 127.137 205.7C126.617 205.487 126.163 205.16 125.777 204.72C125.403 204.28 125.217 203.7 125.217 202.98C125.217 202.393 125.39 201.86 125.737 201.38C126.083 200.887 126.577 200.5 127.217 200.22C127.87 199.94 128.617 199.8 129.457 199.8C130.71 199.8 131.717 200.12 132.477 200.76C133.25 201.387 133.663 202.247 133.717 203.34H131.437C131.397 202.847 131.197 202.453 130.837 202.16C130.477 201.867 129.99 201.72 129.377 201.72C128.777 201.72 128.317 201.833 127.997 202.06C127.677 202.287 127.517 202.587 127.517 202.96C127.517 203.253 127.623 203.5 127.837 203.7C128.05 203.9 128.31 204.06 128.617 204.18C128.923 204.287 129.377 204.427 129.977 204.6C130.777 204.813 131.43 205.033 131.937 205.26C132.457 205.473 132.903 205.793 133.277 206.22C133.65 206.647 133.843 207.213 133.857 207.92C133.857 208.547 133.683 209.107 133.337 209.6C132.99 210.093 132.497 210.48 131.857 210.76C131.23 211.04 130.49 211.18 129.637 211.18ZM146.42 205.22C146.42 205.633 146.394 206.007 146.34 206.34H137.92C137.987 207.22 138.314 207.927 138.9 208.46C139.487 208.993 140.207 209.26 141.06 209.26C142.287 209.26 143.154 208.747 143.66 207.72H146.12C145.787 208.733 145.18 209.567 144.3 210.22C143.434 210.86 142.354 211.18 141.06 211.18C140.007 211.18 139.06 210.947 138.22 210.48C137.394 210 136.74 209.333 136.26 208.48C135.794 207.613 135.56 206.613 135.56 205.48C135.56 204.347 135.787 203.353 136.24 202.5C136.707 201.633 137.354 200.967 138.18 200.5C139.02 200.033 139.98 199.8 141.06 199.8C142.1 199.8 143.027 200.027 143.84 200.48C144.654 200.933 145.287 201.573 145.74 202.4C146.194 203.213 146.42 204.153 146.42 205.22ZM144.04 204.5C144.027 203.66 143.727 202.987 143.14 202.48C142.554 201.973 141.827 201.72 140.96 201.72C140.174 201.72 139.5 201.973 138.94 202.48C138.38 202.973 138.047 203.647 137.94 204.5H144.04ZM151.324 201.84V207.94C151.324 208.353 151.417 208.653 151.604 208.84C151.804 209.013 152.137 209.1 152.604 209.1H154.004V211H152.204C151.177 211 150.391 210.76 149.844 210.28C149.297 209.8 149.024 209.02 149.024 207.94V201.84H147.724V199.98H149.024V197.24H151.324V199.98H154.004V201.84H151.324ZM160.105 211.18C159.239 211.18 158.459 211.027 157.765 210.72C157.085 210.4 156.545 209.973 156.145 209.44C155.745 208.893 155.532 208.287 155.505 207.62H157.865C157.905 208.087 158.125 208.48 158.525 208.8C158.939 209.107 159.452 209.26 160.065 209.26C160.705 209.26 161.199 209.14 161.545 208.9C161.905 208.647 162.085 208.327 162.085 207.94C162.085 207.527 161.885 207.22 161.485 207.02C161.099 206.82 160.479 206.6 159.625 206.36C158.799 206.133 158.125 205.913 157.605 205.7C157.085 205.487 156.632 205.16 156.245 204.72C155.872 204.28 155.685 203.7 155.685 202.98C155.685 202.393 155.859 201.86 156.205 201.38C156.552 200.887 157.045 200.5 157.685 200.22C158.339 199.94 159.085 199.8 159.925 199.8C161.179 199.8 162.185 200.12 162.945 200.76C163.719 201.387 164.132 202.247 164.185 203.34H161.905C161.865 202.847 161.665 202.453 161.305 202.16C160.945 201.867 160.459 201.72 159.845 201.72C159.245 201.72 158.785 201.833 158.465 202.06C158.145 202.287 157.985 202.587 157.985 202.96C157.985 203.253 158.092 203.5 158.305 203.7C158.519 203.9 158.779 204.06 159.085 204.18C159.392 204.287 159.845 204.427 160.445 204.6C161.245 204.813 161.899 205.033 162.405 205.26C162.925 205.473 163.372 205.793 163.745 206.22C164.119 206.647 164.312 207.213 164.325 207.92C164.325 208.547 164.152 209.107 163.805 209.6C163.459 210.093 162.965 210.48 162.325 210.76C161.699 211.04 160.959 211.18 160.105 211.18Z" fill="#6B7280"/>
<path d="M399.633 211.312C401.937 209.392 403.773 207.796 405.141 206.524C406.509 205.228 407.649 203.884 408.561 202.492C409.473 201.1 409.929 199.732 409.929 198.388C409.929 197.164 409.641 196.204 409.065 195.508C408.489 194.812 407.601 194.464 406.401 194.464C405.201 194.464 404.277 194.872 403.629 195.688C402.981 196.48 402.645 197.572 402.621 198.964H397.725C397.821 196.084 398.673 193.9 400.281 192.412C401.913 190.924 403.977 190.18 406.473 190.18C409.209 190.18 411.309 190.912 412.773 192.376C414.237 193.816 414.969 195.724 414.969 198.1C414.969 199.972 414.465 201.76 413.457 203.464C412.449 205.168 411.297 206.656 410.001 207.928C408.705 209.176 407.013 210.688 404.925 212.464H415.545V216.64H397.761V212.896L399.633 211.312ZM423.113 203.104C420.713 201.856 419.513 199.924 419.513 197.308C419.513 196.012 419.837 194.836 420.485 193.78C421.157 192.7 422.153 191.848 423.473 191.224C424.817 190.576 426.449 190.252 428.369 190.252C430.289 190.252 431.909 190.576 433.229 191.224C434.573 191.848 435.569 192.7 436.217 193.78C436.889 194.836 437.225 196.012 437.225 197.308C437.225 198.628 436.901 199.792 436.253 200.8C435.605 201.784 434.741 202.552 433.661 203.104C434.981 203.68 436.013 204.52 436.757 205.624C437.501 206.728 437.873 208.036 437.873 209.548C437.873 211.18 437.453 212.608 436.613 213.832C435.797 215.032 434.669 215.956 433.229 216.604C431.789 217.252 430.169 217.576 428.369 217.576C426.569 217.576 424.949 217.252 423.509 216.604C422.093 215.956 420.965 215.032 420.125 213.832C419.309 212.608 418.901 211.18 418.901 209.548C418.901 208.036 419.273 206.728 420.017 205.624C420.761 204.496 421.793 203.656 423.113 203.104ZM432.329 198.028C432.329 196.852 431.969 195.94 431.249 195.292C430.553 194.644 429.593 194.32 428.369 194.32C427.169 194.32 426.209 194.644 425.489 195.292C424.793 195.94 424.445 196.864 424.445 198.064C424.445 199.144 424.805 200.008 425.525 200.656C426.269 201.304 427.217 201.628 428.369 201.628C429.521 201.628 430.469 201.304 431.213 200.656C431.957 199.984 432.329 199.108 432.329 198.028ZM428.369 205.3C427.001 205.3 425.885 205.648 425.021 206.344C424.181 207.04 423.761 208.036 423.761 209.332C423.761 210.532 424.169 211.516 424.985 212.284C425.825 213.028 426.953 213.4 428.369 213.4C429.785 213.4 430.901 213.016 431.717 212.248C432.533 211.48 432.941 210.508 432.941 209.332C432.941 208.06 432.521 207.076 431.681 206.38C430.841 205.66 429.737 205.3 428.369 205.3ZM447.937 211.708L443.725 221.824H440.485L442.825 211.708H447.937ZM450.994 203.536C450.994 199.384 451.738 196.132 453.226 193.78C454.738 191.428 457.234 190.252 460.714 190.252C464.194 190.252 466.678 191.428 468.166 193.78C469.678 196.132 470.434 199.384 470.434 203.536C470.434 207.712 469.678 210.988 468.166 213.364C466.678 215.74 464.194 216.928 460.714 216.928C457.234 216.928 454.738 215.74 453.226 213.364C451.738 210.988 450.994 207.712 450.994 203.536ZM465.466 203.536C465.466 201.76 465.346 200.272 465.106 199.072C464.89 197.848 464.434 196.852 463.738 196.084C463.066 195.316 462.058 194.932 460.714 194.932C459.37 194.932 458.35 195.316 457.654 196.084C456.982 196.852 456.526 197.848 456.286 199.072C456.07 200.272 455.962 201.76 455.962 203.536C455.962 205.36 456.07 206.896 456.286 208.144C456.502 209.368 456.958 210.364 457.654 211.132C458.35 211.876 459.37 212.248 460.714 212.248C462.058 212.248 463.078 211.876 463.774 211.132C464.47 210.364 464.926 209.368 465.142 208.144C465.358 206.896 465.466 205.36 465.466 203.536ZM474.267 203.536C474.267 199.384 475.011 196.132 476.499 193.78C478.011 191.428 480.507 190.252 483.987 190.252C487.467 190.252 489.951 191.428 491.439 193.78C492.951 196.132 493.707 199.384 493.707 203.536C493.707 207.712 492.951 210.988 491.439 213.364C489.951 215.74 487.467 216.928 483.987 216.928C480.507 216.928 478.011 215.74 476.499 213.364C475.011 210.988 474.267 207.712 474.267 203.536ZM488.739 203.536C488.739 201.76 488.619 200.272 488.379 199.072C488.163 197.848 487.707 196.852 487.011 196.084C486.339 195.316 485.331 194.932 483.987 194.932C482.643 194.932 481.623 195.316 480.927 196.084C480.255 196.852 479.799 197.848 479.559 199.072C479.343 200.272 479.235 201.76 479.235 203.536C479.235 205.36 479.343 206.896 479.559 208.144C479.775 209.368 480.231 210.364 480.927 211.132C481.623 211.876 482.643 212.248 483.987 212.248C485.331 212.248 486.351 211.876 487.047 211.132C487.743 210.364 488.199 209.368 488.415 208.144C488.631 206.896 488.739 205.36 488.739 203.536ZM497.541 203.536C497.541 199.384 498.285 196.132 499.773 193.78C501.285 191.428 503.781 190.252 507.261 190.252C510.741 190.252 513.225 191.428 514.713 193.78C516.225 196.132 516.981 199.384 516.981 203.536C516.981 207.712 516.225 210.988 514.713 213.364C513.225 215.74 510.741 216.928 507.261 216.928C503.781 216.928 501.285 215.74 499.773 213.364C498.285 210.988 497.541 207.712 497.541 203.536ZM512.013 203.536C512.013 201.76 511.893 200.272 511.653 199.072C511.437 197.848 510.981 196.852 510.285 196.084C509.613 195.316 508.605 194.932 507.261 194.932C505.917 194.932 504.897 195.316 504.201 196.084C503.529 196.852 503.073 197.848 502.833 199.072C502.617 200.272 502.509 201.76 502.509 203.536C502.509 205.36 502.617 206.896 502.833 208.144C503.049 209.368 503.505 210.364 504.201 211.132C504.897 211.876 505.917 212.248 507.261 212.248C508.605 212.248 509.625 211.876 510.321 211.132C511.017 210.364 511.473 209.368 511.689 208.144C511.905 206.896 512.013 205.36 512.013 203.536ZM526.898 211.708L522.686 221.824H519.446L521.786 211.708H526.898ZM529.955 203.536C529.955 199.384 530.699 196.132 532.187 193.78C533.699 191.428 536.195 190.252 539.675 190.252C543.155 190.252 545.639 191.428 547.127 193.78C548.639 196.132 549.395 199.384 549.395 203.536C549.395 207.712 548.639 210.988 547.127 213.364C545.639 215.74 543.155 216.928 539.675 216.928C536.195 216.928 533.699 215.74 532.187 213.364C530.699 210.988 529.955 207.712 529.955 203.536ZM544.427 203.536C544.427 201.76 544.307 200.272 544.067 199.072C543.851 197.848 543.395 196.852 542.699 196.084C542.027 195.316 541.019 194.932 539.675 194.932C538.331 194.932 537.311 195.316 536.615 196.084C535.943 196.852 535.487 197.848 535.247 199.072C535.031 200.272 534.923 201.76 534.923 203.536C534.923 205.36 535.031 206.896 535.247 208.144C535.463 209.368 535.919 210.364 536.615 211.132C537.311 211.876 538.331 212.248 539.675 212.248C541.019 212.248 542.039 211.876 542.735 211.132C543.431 210.364 543.887 209.368 544.103 208.144C544.319 206.896 544.427 205.36 544.427 203.536ZM553.228 203.536C553.228 199.384 553.972 196.132 555.46 193.78C556.972 191.428 559.468 190.252 562.948 190.252C566.428 190.252 568.912 191.428 570.4 193.78C571.912 196.132 572.668 199.384 572.668 203.536C572.668 207.712 571.912 210.988 570.4 213.364C568.912 215.74 566.428 216.928 562.948 216.928C559.468 216.928 556.972 215.74 555.46 213.364C553.972 210.988 553.228 207.712 553.228 203.536ZM567.7 203.536C567.7 201.76 567.58 200.272 567.34 199.072C567.124 197.848 566.668 196.852 565.972 196.084C565.3 195.316 564.292 194.932 562.948 194.932C561.604 194.932 560.584 195.316 559.888 196.084C559.216 196.852 558.76 197.848 558.52 199.072C558.304 200.272 558.196 201.76 558.196 203.536C558.196 205.36 558.304 206.896 558.52 208.144C558.736 209.368 559.192 210.364 559.888 211.132C560.584 211.876 561.604 212.248 562.948 212.248C564.292 212.248 565.312 211.876 566.008 211.132C566.704 210.364 567.16 209.368 567.376 208.144C567.592 206.896 567.7 205.36 567.7 203.536ZM576.502 203.536C576.502 199.384 577.246 196.132 578.734 193.78C580.246 191.428 582.742 190.252 586.222 190.252C589.702 190.252 592.186 191.428 593.674 193.78C595.186 196.132 595.942 199.384 595.942 203.536C595.942 207.712 595.186 210.988 593.674 213.364C592.186 215.74 589.702 216.928 586.222 216.928C582.742 216.928 580.246 215.74 578.734 213.364C577.246 210.988 576.502 207.712 576.502 203.536ZM590.974 203.536C590.974 201.76 590.854 200.272 590.614 199.072C590.398 197.848 589.942 196.852 589.246 196.084C588.574 195.316 587.566 194.932 586.222 194.932C584.878 194.932 583.858 195.316 583.162 196.084C582.49 196.852 582.034 197.848 581.794 199.072C581.578 200.272 581.47 201.76 581.47 203.536C581.47 205.36 581.578 206.896 581.794 208.144C582.01 209.368 582.466 210.364 583.162 211.132C583.858 211.876 584.878 212.248 586.222 212.248C587.566 212.248 588.586 211.876 589.282 211.132C589.978 210.364 590.434 209.368 590.65 208.144C590.866 206.896 590.974 205.36 590.974 203.536ZM626.857 209.764C626.857 211.012 626.533 212.188 625.885 213.292C625.261 214.372 624.325 215.272 623.077 215.992C621.853 216.688 620.401 217.096 618.721 217.216V220.132H616.417V217.18C614.017 216.964 612.085 216.244 610.621 215.02C609.157 213.772 608.401 212.092 608.353 209.98H613.753C613.897 211.708 614.785 212.752 616.417 213.112V206.236C614.689 205.804 613.297 205.372 612.241 204.94C611.185 204.508 610.273 203.812 609.505 202.852C608.737 201.892 608.353 200.584 608.353 198.928C608.353 196.84 609.097 195.136 610.585 193.816C612.097 192.496 614.041 191.74 616.417 191.548V188.632H618.721V191.548C621.025 191.74 622.861 192.436 624.229 193.636C625.621 194.836 626.401 196.492 626.569 198.604H621.133C621.061 197.908 620.809 197.308 620.377 196.804C619.969 196.276 619.417 195.904 618.721 195.688V202.492C620.521 202.948 621.937 203.392 622.969 203.824C624.025 204.232 624.937 204.916 625.705 205.876C626.473 206.812 626.857 208.108 626.857 209.764ZM613.609 198.676C613.609 199.468 613.849 200.116 614.329 200.62C614.809 201.1 615.505 201.496 616.417 201.808V195.58C615.553 195.7 614.869 196.024 614.365 196.552C613.861 197.08 613.609 197.788 613.609 198.676ZM618.721 213.184C619.633 213.016 620.341 212.644 620.845 212.068C621.373 211.492 621.637 210.796 621.637 209.98C621.637 209.188 621.385 208.552 620.881 208.072C620.377 207.592 619.657 207.196 618.721 206.884V213.184Z" fill="#111111"/>
<path d="M60.14 255.1V269H57.86V259.48L53.62 269H52.04L47.78 259.48V269H45.5V255.1H47.96L52.84 266L57.7 255.1H60.14ZM62.3767 263.44C62.3767 262.333 62.6034 261.353 63.0567 260.5C63.5234 259.647 64.1501 258.987 64.9367 258.52C65.7367 258.04 66.6167 257.8 67.5767 257.8C68.4434 257.8 69.1967 257.973 69.8367 258.32C70.4901 258.653 71.0101 259.073 71.3967 259.58V257.98H73.6967V269H71.3967V267.36C71.0101 267.88 70.4834 268.313 69.8167 268.66C69.1501 269.007 68.3901 269.18 67.5367 269.18C66.5901 269.18 65.7234 268.94 64.9367 268.46C64.1501 267.967 63.5234 267.287 63.0567 266.42C62.6034 265.54 62.3767 264.547 62.3767 263.44ZM71.3967 263.48C71.3967 262.72 71.2367 262.06 70.9167 261.5C70.6101 260.94 70.2034 260.513 69.6967 260.22C69.1901 259.927 68.6434 259.78 68.0567 259.78C67.4701 259.78 66.9234 259.927 66.4167 260.22C65.9101 260.5 65.4967 260.92 65.1767 261.48C64.8701 262.027 64.7167 262.68 64.7167 263.44C64.7167 264.2 64.8701 264.867 65.1767 265.44C65.4967 266.013 65.9101 266.453 66.4167 266.76C66.9367 267.053 67.4834 267.2 68.0567 267.2C68.6434 267.2 69.1901 267.053 69.6967 266.76C70.2034 266.467 70.6101 266.04 70.9167 265.48C71.2367 264.907 71.3967 264.24 71.3967 263.48ZM81.4114 263.42L84.9714 269H82.3914L80.0114 265.26L77.7714 269H75.3914L78.9514 263.58L75.3914 257.98H77.9714L80.3514 261.72L82.5914 257.98H84.9714L81.4114 263.42ZM87.8319 256.52C87.4185 256.52 87.0719 256.38 86.7919 256.1C86.5119 255.82 86.3719 255.473 86.3719 255.06C86.3719 254.647 86.5119 254.3 86.7919 254.02C87.0719 253.74 87.4185 253.6 87.8319 253.6C88.2319 253.6 88.5719 253.74 88.8519 254.02C89.1319 254.3 89.2719 254.647 89.2719 255.06C89.2719 255.473 89.1319 255.82 88.8519 256.1C88.5719 256.38 88.2319 256.52 87.8319 256.52ZM88.9519 257.98V269H86.6719V257.98H88.9519ZM105.285 257.8C106.152 257.8 106.925 257.98 107.605 258.34C108.299 258.7 108.839 259.233 109.225 259.94C109.625 260.647 109.825 261.5 109.825 262.5V269H107.565V262.84C107.565 261.853 107.319 261.1 106.825 260.58C106.332 260.047 105.659 259.78 104.805 259.78C103.952 259.78 103.272 260.047 102.765 260.58C102.272 261.1 102.025 261.853 102.025 262.84V269H99.7653V262.84C99.7653 261.853 99.5186 261.1 99.0253 260.58C98.532 260.047 97.8586 259.78 97.0053 259.78C96.152 259.78 95.472 260.047 94.9653 260.58C94.472 261.1 94.2253 261.853 94.2253 262.84V269H91.9453V257.98H94.2253V259.24C94.5986 258.787 95.072 258.433 95.6453 258.18C96.2186 257.927 96.832 257.8 97.4853 257.8C98.3653 257.8 99.152 257.987 99.8453 258.36C100.539 258.733 101.072 259.273 101.445 259.98C101.779 259.313 102.299 258.787 103.005 258.4C103.712 258 104.472 257.8 105.285 257.8ZM122.707 257.98V269H120.427V267.7C120.067 268.153 119.593 268.513 119.007 268.78C118.433 269.033 117.82 269.16 117.167 269.16C116.3 269.16 115.52 268.98 114.827 268.62C114.147 268.26 113.607 267.727 113.207 267.02C112.82 266.313 112.627 265.46 112.627 264.46V257.98H114.887V264.12C114.887 265.107 115.133 265.867 115.627 266.4C116.12 266.92 116.793 267.18 117.647 267.18C118.5 267.18 119.173 266.92 119.667 266.4C120.173 265.867 120.427 265.107 120.427 264.12V257.98H122.707ZM139.055 257.8C139.922 257.8 140.695 257.98 141.375 258.34C142.068 258.7 142.608 259.233 142.995 259.94C143.395 260.647 143.595 261.5 143.595 262.5V269H141.335V262.84C141.335 261.853 141.088 261.1 140.595 260.58C140.102 260.047 139.428 259.78 138.575 259.78C137.722 259.78 137.042 260.047 136.535 260.58C136.042 261.1 135.795 261.853 135.795 262.84V269H133.535V262.84C133.535 261.853 133.288 261.1 132.795 260.58C132.302 260.047 131.628 259.78 130.775 259.78C129.922 259.78 129.242 260.047 128.735 260.58C128.242 261.1 127.995 261.853 127.995 262.84V269H125.715V257.98H127.995V259.24C128.368 258.787 128.842 258.433 129.415 258.18C129.988 257.927 130.602 257.8 131.255 257.8C132.135 257.8 132.922 257.987 133.615 258.36C134.308 258.733 134.842 259.273 135.215 259.98C135.548 259.313 136.068 258.787 136.775 258.4C137.482 258 138.242 257.8 139.055 257.8ZM153.971 254.2V269H151.691V254.2H153.971ZM161.745 269.18C160.705 269.18 159.765 268.947 158.925 268.48C158.085 268 157.425 267.333 156.945 266.48C156.465 265.613 156.225 264.613 156.225 263.48C156.225 262.36 156.472 261.367 156.965 260.5C157.458 259.633 158.132 258.967 158.985 258.5C159.838 258.033 160.792 257.8 161.845 257.8C162.898 257.8 163.852 258.033 164.705 258.5C165.558 258.967 166.232 259.633 166.725 260.5C167.218 261.367 167.465 262.36 167.465 263.48C167.465 264.6 167.212 265.593 166.705 266.46C166.198 267.327 165.505 268 164.625 268.48C163.758 268.947 162.798 269.18 161.745 269.18ZM161.745 267.2C162.332 267.2 162.878 267.06 163.385 266.78C163.905 266.5 164.325 266.08 164.645 265.52C164.965 264.96 165.125 264.28 165.125 263.48C165.125 262.68 164.972 262.007 164.665 261.46C164.358 260.9 163.952 260.48 163.445 260.2C162.938 259.92 162.392 259.78 161.805 259.78C161.218 259.78 160.672 259.92 160.165 260.2C159.672 260.48 159.278 260.9 158.985 261.46C158.692 262.007 158.545 262.68 158.545 263.48C158.545 264.667 158.845 265.587 159.445 266.24C160.058 266.88 160.825 267.2 161.745 267.2ZM173.719 269.18C172.852 269.18 172.072 269.027 171.379 268.72C170.699 268.4 170.159 267.973 169.759 267.44C169.359 266.893 169.145 266.287 169.119 265.62H171.479C171.519 266.087 171.739 266.48 172.139 266.8C172.552 267.107 173.065 267.26 173.679 267.26C174.319 267.26 174.812 267.14 175.159 266.9C175.519 266.647 175.699 266.327 175.699 265.94C175.699 265.527 175.499 265.22 175.099 265.02C174.712 264.82 174.092 264.6 173.239 264.36C172.412 264.133 171.739 263.913 171.219 263.7C170.699 263.487 170.245 263.16 169.859 262.72C169.485 262.28 169.299 261.7 169.299 260.98C169.299 260.393 169.472 259.86 169.819 259.38C170.165 258.887 170.659 258.5 171.299 258.22C171.952 257.94 172.699 257.8 173.539 257.8C174.792 257.8 175.799 258.12 176.559 258.76C177.332 259.387 177.745 260.247 177.799 261.34H175.519C175.479 260.847 175.279 260.453 174.919 260.16C174.559 259.867 174.072 259.72 173.459 259.72C172.859 259.72 172.399 259.833 172.079 260.06C171.759 260.287 171.599 260.587 171.599 260.96C171.599 261.253 171.705 261.5 171.919 261.7C172.132 261.9 172.392 262.06 172.699 262.18C173.005 262.287 173.459 262.427 174.059 262.6C174.859 262.813 175.512 263.033 176.019 263.26C176.539 263.473 176.985 263.793 177.359 264.22C177.732 264.647 177.925 265.213 177.939 265.92C177.939 266.547 177.765 267.107 177.419 267.6C177.072 268.093 176.579 268.48 175.939 268.76C175.312 269.04 174.572 269.18 173.719 269.18ZM184.402 269.18C183.536 269.18 182.756 269.027 182.062 268.72C181.382 268.4 180.842 267.973 180.442 267.44C180.042 266.893 179.829 266.287 179.802 265.62H182.162C182.202 266.087 182.422 266.48 182.822 266.8C183.236 267.107 183.749 267.26 184.362 267.26C185.002 267.26 185.496 267.14 185.842 266.9C186.202 266.647 186.382 266.327 186.382 265.94C186.382 265.527 186.182 265.22 185.782 265.02C185.396 264.82 184.776 264.6 183.922 264.36C183.096 264.133 182.422 263.913 181.902 263.7C181.382 263.487 180.929 263.16 180.542 262.72C180.169 262.28 179.982 261.7 179.982 260.98C179.982 260.393 180.156 259.86 180.502 259.38C180.849 258.887 181.342 258.5 181.982 258.22C182.636 257.94 183.382 257.8 184.222 257.8C185.476 257.8 186.482 258.12 187.242 258.76C188.016 259.387 188.429 260.247 188.482 261.34H186.202C186.162 260.847 185.962 260.453 185.602 260.16C185.242 259.867 184.756 259.72 184.142 259.72C183.542 259.72 183.082 259.833 182.762 260.06C182.442 260.287 182.282 260.587 182.282 260.96C182.282 261.253 182.389 261.5 182.602 261.7C182.816 261.9 183.076 262.06 183.382 262.18C183.689 262.287 184.142 262.427 184.742 262.6C185.542 262.813 186.196 263.033 186.702 263.26C187.222 263.473 187.669 263.793 188.042 264.22C188.416 264.647 188.609 265.213 188.622 265.92C188.622 266.547 188.449 267.107 188.102 267.6C187.756 268.093 187.262 268.48 186.622 268.76C185.996 269.04 185.256 269.18 184.402 269.18Z" fill="#6B7280"/>
<path d="M442.525 255V251.13H449.755V273H445.435V255H442.525ZM468.604 254.76H458.884V259.89C459.304 259.37 459.904 258.95 460.684 258.63C461.464 258.29 462.294 258.12 463.174 258.12C464.774 258.12 466.084 258.47 467.104 259.17C468.124 259.87 468.864 260.77 469.324 261.87C469.784 262.95 470.014 264.11 470.014 265.35C470.014 267.65 469.354 269.5 468.034 270.9C466.734 272.3 464.874 273 462.454 273C460.174 273 458.354 272.43 456.994 271.29C455.634 270.15 454.864 268.66 454.684 266.82H458.764C458.944 267.62 459.344 268.26 459.964 268.74C460.604 269.22 461.414 269.46 462.394 269.46C463.574 269.46 464.464 269.09 465.064 268.35C465.664 267.61 465.964 266.63 465.964 265.41C465.964 264.17 465.654 263.23 465.034 262.59C464.434 261.93 463.544 261.6 462.364 261.6C461.524 261.6 460.824 261.81 460.264 262.23C459.704 262.65 459.304 263.21 459.064 263.91H455.044V251.07H468.604V254.76ZM478.281 268.59L474.771 277.02H472.071L474.021 268.59H478.281ZM480.828 261.78C480.828 258.32 481.448 255.61 482.688 253.65C483.948 251.69 486.028 250.71 488.928 250.71C491.828 250.71 493.898 251.69 495.138 253.65C496.398 255.61 497.028 258.32 497.028 261.78C497.028 265.26 496.398 267.99 495.138 269.97C493.898 271.95 491.828 272.94 488.928 272.94C486.028 272.94 483.948 271.95 482.688 269.97C481.448 267.99 480.828 265.26 480.828 261.78ZM492.888 261.78C492.888 260.3 492.788 259.06 492.588 258.06C492.408 257.04 492.028 256.21 491.448 255.57C490.888 254.93 490.048 254.61 488.928 254.61C487.808 254.61 486.958 254.93 486.378 255.57C485.818 256.21 485.438 257.04 485.238 258.06C485.058 259.06 484.968 260.3 484.968 261.78C484.968 263.3 485.058 264.58 485.238 265.62C485.418 266.64 485.798 267.47 486.378 268.11C486.958 268.73 487.808 269.04 488.928 269.04C490.048 269.04 490.898 268.73 491.478 268.11C492.058 267.47 492.438 266.64 492.618 265.62C492.798 264.58 492.888 263.3 492.888 261.78ZM500.223 261.78C500.223 258.32 500.843 255.61 502.083 253.65C503.343 251.69 505.423 250.71 508.323 250.71C511.223 250.71 513.293 251.69 514.533 253.65C515.793 255.61 516.423 258.32 516.423 261.78C516.423 265.26 515.793 267.99 514.533 269.97C513.293 271.95 511.223 272.94 508.323 272.94C505.423 272.94 503.343 271.95 502.083 269.97C500.843 267.99 500.223 265.26 500.223 261.78ZM512.283 261.78C512.283 260.3 512.183 259.06 511.983 258.06C511.803 257.04 511.423 256.21 510.843 255.57C510.283 254.93 509.443 254.61 508.323 254.61C507.203 254.61 506.353 254.93 505.773 255.57C505.213 256.21 504.833 257.04 504.633 258.06C504.453 259.06 504.363 260.3 504.363 261.78C504.363 263.3 504.453 264.58 504.633 265.62C504.813 266.64 505.193 267.47 505.773 268.11C506.353 268.73 507.203 269.04 508.323 269.04C509.443 269.04 510.293 268.73 510.873 268.11C511.453 267.47 511.833 266.64 512.013 265.62C512.193 264.58 512.283 263.3 512.283 261.78ZM519.617 261.78C519.617 258.32 520.237 255.61 521.477 253.65C522.737 251.69 524.817 250.71 527.717 250.71C530.617 250.71 532.687 251.69 533.927 253.65C535.187 255.61 535.817 258.32 535.817 261.78C535.817 265.26 535.187 267.99 533.927 269.97C532.687 271.95 530.617 272.94 527.717 272.94C524.817 272.94 522.737 271.95 521.477 269.97C520.237 267.99 519.617 265.26 519.617 261.78ZM531.677 261.78C531.677 260.3 531.577 259.06 531.377 258.06C531.197 257.04 530.817 256.21 530.237 255.57C529.677 254.93 528.837 254.61 527.717 254.61C526.597 254.61 525.747 254.93 525.167 255.57C524.607 256.21 524.227 257.04 524.027 258.06C523.847 259.06 523.757 260.3 523.757 261.78C523.757 263.3 523.847 264.58 524.027 265.62C524.207 266.64 524.587 267.47 525.167 268.11C525.747 268.73 526.597 269.04 527.717 269.04C528.837 269.04 529.687 268.73 530.267 268.11C530.847 267.47 531.227 266.64 531.407 265.62C531.587 264.58 531.677 263.3 531.677 261.78ZM544.082 268.59L540.572 277.02H537.872L539.822 268.59H544.082ZM546.629 261.78C546.629 258.32 547.249 255.61 548.489 253.65C549.749 251.69 551.829 250.71 554.729 250.71C557.629 250.71 559.699 251.69 560.939 253.65C562.199 255.61 562.829 258.32 562.829 261.78C562.829 265.26 562.199 267.99 560.939 269.97C559.699 271.95 557.629 272.94 554.729 272.94C551.829 272.94 549.749 271.95 548.489 269.97C547.249 267.99 546.629 265.26 546.629 261.78ZM558.689 261.78C558.689 260.3 558.589 259.06 558.389 258.06C558.209 257.04 557.829 256.21 557.249 255.57C556.689 254.93 555.849 254.61 554.729 254.61C553.609 254.61 552.759 254.93 552.179 255.57C551.619 256.21 551.239 257.04 551.039 258.06C550.859 259.06 550.769 260.3 550.769 261.78C550.769 263.3 550.859 264.58 551.039 265.62C551.219 266.64 551.599 267.47 552.179 268.11C552.759 268.73 553.609 269.04 554.729 269.04C555.849 269.04 556.699 268.73 557.279 268.11C557.859 267.47 558.239 266.64 558.419 265.62C558.599 264.58 558.689 263.3 558.689 261.78ZM566.024 261.78C566.024 258.32 566.644 255.61 567.884 253.65C569.144 251.69 571.224 250.71 574.124 250.71C577.024 250.71 579.094 251.69 580.334 253.65C581.594 255.61 582.224 258.32 582.224 261.78C582.224 265.26 581.594 267.99 580.334 269.97C579.094 271.95 577.024 272.94 574.124 272.94C571.224 272.94 569.144 271.95 567.884 269.97C566.644 267.99 566.024 265.26 566.024 261.78ZM578.084 261.78C578.084 260.3 577.984 259.06 577.784 258.06C577.604 257.04 577.224 256.21 576.644 255.57C576.084 254.93 575.244 254.61 574.124 254.61C573.004 254.61 572.154 254.93 571.574 255.57C571.014 256.21 570.634 257.04 570.434 258.06C570.254 259.06 570.164 260.3 570.164 261.78C570.164 263.3 570.254 264.58 570.434 265.62C570.614 266.64 570.994 267.47 571.574 268.11C572.154 268.73 573.004 269.04 574.124 269.04C575.244 269.04 576.094 268.73 576.674 268.11C577.254 267.47 577.634 266.64 577.814 265.62C577.994 264.58 578.084 263.3 578.084 261.78ZM585.418 261.78C585.418 258.32 586.038 255.61 587.278 253.65C588.538 251.69 590.618 250.71 593.518 250.71C596.418 250.71 598.488 251.69 599.728 253.65C600.988 255.61 601.618 258.32 601.618 261.78C601.618 265.26 600.988 267.99 599.728 269.97C598.488 271.95 596.418 272.94 593.518 272.94C590.618 272.94 588.538 271.95 587.278 269.97C586.038 267.99 585.418 265.26 585.418 261.78ZM597.478 261.78C597.478 260.3 597.378 259.06 597.178 258.06C596.998 257.04 596.618 256.21 596.038 255.57C595.478 254.93 594.638 254.61 593.518 254.61C592.398 254.61 591.548 254.93 590.968 255.57C590.408 256.21 590.028 257.04 589.828 258.06C589.648 259.06 589.558 260.3 589.558 261.78C589.558 263.3 589.648 264.58 589.828 265.62C590.008 266.64 590.388 267.47 590.968 268.11C591.548 268.73 592.398 269.04 593.518 269.04C594.638 269.04 595.488 268.73 596.068 268.11C596.648 267.47 597.028 266.64 597.208 265.62C597.388 264.58 597.478 263.3 597.478 261.78ZM627.381 266.97C627.381 268.01 627.111 268.99 626.571 269.91C626.051 270.81 625.271 271.56 624.231 272.16C623.211 272.74 622.001 273.08 620.601 273.18V275.61H618.681V273.15C616.681 272.97 615.071 272.37 613.851 271.35C612.631 270.31 612.001 268.91 611.961 267.15H616.461C616.581 268.59 617.321 269.46 618.681 269.76V264.03C617.241 263.67 616.081 263.31 615.201 262.95C614.321 262.59 613.561 262.01 612.921 261.21C612.281 260.41 611.961 259.32 611.961 257.94C611.961 256.2 612.581 254.78 613.821 253.68C615.081 252.58 616.701 251.95 618.681 251.79V249.36H620.601V251.79C622.521 251.95 624.051 252.53 625.191 253.53C626.351 254.53 627.001 255.91 627.141 257.67H622.611C622.551 257.09 622.341 256.59 621.981 256.17C621.641 255.73 621.181 255.42 620.601 255.24V260.91C622.101 261.29 623.281 261.66 624.141 262.02C625.021 262.36 625.781 262.93 626.421 263.73C627.061 264.51 627.381 265.59 627.381 266.97ZM616.341 257.73C616.341 258.39 616.541 258.93 616.941 259.35C617.341 259.75 617.921 260.08 618.681 260.34V255.15C617.961 255.25 617.391 255.52 616.971 255.96C616.551 256.4 616.341 256.99 616.341 257.73ZM620.601 269.82C621.361 269.68 621.951 269.37 622.371 268.89C622.811 268.41 623.031 267.83 623.031 267.15C623.031 266.49 622.821 265.96 622.401 265.56C621.981 265.16 621.381 264.83 620.601 264.57V269.82Z" fill="#DF1525"/>
<path d="M61.91 134.72C61.91 135.94 61.63 137.06 61.07 138.08C60.51 139.08 59.65 139.89 58.49 140.51C57.33 141.13 55.89 141.44 54.17 141.44H50.99V149H45.86V127.94H54.17C55.85 127.94 57.27 128.23 58.43 128.81C59.59 129.39 60.46 130.19 61.04 131.21C61.62 132.23 61.91 133.4 61.91 134.72ZM53.78 137.36C54.76 137.36 55.49 137.13 55.97 136.67C56.45 136.21 56.69 135.56 56.69 134.72C56.69 133.88 56.45 133.23 55.97 132.77C55.49 132.31 54.76 132.08 53.78 132.08H50.99V137.36H53.78ZM72.2007 149.24C70.5607 149.24 69.0807 148.89 67.7607 148.19C66.4607 147.49 65.4307 146.49 64.6707 145.19C63.9307 143.89 63.5607 142.37 63.5607 140.63C63.5607 138.91 63.9407 137.4 64.7007 136.1C65.4607 134.78 66.5007 133.77 67.8207 133.07C69.1407 132.37 70.6207 132.02 72.2607 132.02C73.9007 132.02 75.3807 132.37 76.7007 133.07C78.0207 133.77 79.0607 134.78 79.8207 136.1C80.5807 137.4 80.9607 138.91 80.9607 140.63C80.9607 142.35 80.5707 143.87 79.7907 145.19C79.0307 146.49 77.9807 147.49 76.6407 148.19C75.3207 148.89 73.8407 149.24 72.2007 149.24ZM72.2007 144.8C73.1807 144.8 74.0107 144.44 74.6907 143.72C75.3907 143 75.7407 141.97 75.7407 140.63C75.7407 139.29 75.4007 138.26 74.7207 137.54C74.0607 136.82 73.2407 136.46 72.2607 136.46C71.2607 136.46 70.4307 136.82 69.7707 137.54C69.1107 138.24 68.7807 139.27 68.7807 140.63C68.7807 141.97 69.1007 143 69.7407 143.72C70.4007 144.44 71.2207 144.8 72.2007 144.8ZM88.8123 135.05C89.4123 134.13 90.1623 133.41 91.0623 132.89C91.9623 132.35 92.9623 132.08 94.0623 132.08V137.51H92.6523C91.3723 137.51 90.4123 137.79 89.7723 138.35C89.1323 138.89 88.8123 139.85 88.8123 141.23V149H83.6823V132.26H88.8123V135.05ZM105.844 144.65V149H103.234C101.374 149 99.9243 148.55 98.8843 147.65C97.8443 146.73 97.3243 145.24 97.3243 143.18V136.52H95.2843V132.26H97.3243V128.18H102.454V132.26H105.814V136.52H102.454V143.24C102.454 143.74 102.574 144.1 102.814 144.32C103.054 144.54 103.454 144.65 104.014 144.65H105.844ZM117.102 136.52H114.342V149H109.212V136.52H107.352V132.26H109.212V131.78C109.212 129.72 109.802 128.16 110.982 127.1C112.162 126.02 113.892 125.48 116.172 125.48C116.552 125.48 116.832 125.49 117.012 125.51V129.86C116.032 129.8 115.342 129.94 114.942 130.28C114.542 130.62 114.342 131.23 114.342 132.11V132.26H117.102V136.52ZM127.132 149.24C125.492 149.24 124.012 148.89 122.692 148.19C121.392 147.49 120.362 146.49 119.602 145.19C118.862 143.89 118.492 142.37 118.492 140.63C118.492 138.91 118.872 137.4 119.632 136.1C120.392 134.78 121.432 133.77 122.752 133.07C124.072 132.37 125.552 132.02 127.192 132.02C128.832 132.02 130.312 132.37 131.632 133.07C132.952 133.77 133.992 134.78 134.752 136.1C135.512 137.4 135.892 138.91 135.892 140.63C135.892 142.35 135.502 143.87 134.722 145.19C133.962 146.49 132.912 147.49 131.572 148.19C130.252 148.89 128.772 149.24 127.132 149.24ZM127.132 144.8C128.112 144.8 128.942 144.44 129.622 143.72C130.322 143 130.672 141.97 130.672 140.63C130.672 139.29 130.332 138.26 129.652 137.54C128.992 136.82 128.172 136.46 127.192 136.46C126.192 136.46 125.362 136.82 124.702 137.54C124.042 138.24 123.712 139.27 123.712 140.63C123.712 141.97 124.032 143 124.672 143.72C125.332 144.44 126.152 144.8 127.132 144.8ZM143.744 126.8V149H138.614V126.8H143.744ZM150.042 130.52C149.142 130.52 148.402 130.26 147.822 129.74C147.262 129.2 146.982 128.54 146.982 127.76C146.982 126.96 147.262 126.3 147.822 125.78C148.402 125.24 149.142 124.97 150.042 124.97C150.922 124.97 151.642 125.24 152.202 125.78C152.782 126.3 153.072 126.96 153.072 127.76C153.072 128.54 152.782 129.2 152.202 129.74C151.642 130.26 150.922 130.52 150.042 130.52ZM152.592 132.26V149H147.462V132.26H152.592ZM163.929 149.24C162.289 149.24 160.809 148.89 159.489 148.19C158.189 147.49 157.159 146.49 156.399 145.19C155.659 143.89 155.289 142.37 155.289 140.63C155.289 138.91 155.669 137.4 156.429 136.1C157.189 134.78 158.229 133.77 159.549 133.07C160.869 132.37 162.349 132.02 163.989 132.02C165.629 132.02 167.109 132.37 168.429 133.07C169.749 133.77 170.789 134.78 171.549 136.1C172.309 137.4 172.689 138.91 172.689 140.63C172.689 142.35 172.299 143.87 171.519 145.19C170.759 146.49 169.709 147.49 168.369 148.19C167.049 148.89 165.569 149.24 163.929 149.24ZM163.929 144.8C164.909 144.8 165.739 144.44 166.419 143.72C167.119 143 167.469 141.97 167.469 140.63C167.469 139.29 167.129 138.26 166.449 137.54C165.789 136.82 164.969 136.46 163.989 136.46C162.989 136.46 162.159 136.82 161.499 137.54C160.839 138.24 160.509 139.27 160.509 140.63C160.509 141.97 160.829 143 161.469 143.72C162.129 144.44 162.949 144.8 163.929 144.8ZM180.718 131.87V127.1H189.028V149H183.688V131.87H180.718Z" fill="#111111"/>
<mask id="path-30-inside-1_910_37032" fill="white">
<path d="M337.001 325C337.001 322.239 339.24 319.991 342 320.086C364.12 320.849 385.795 326.667 405.353 337.121C426.383 348.362 444.316 364.615 457.563 384.442C470.811 404.268 478.965 427.056 481.302 450.787C483.639 474.517 480.088 498.458 470.963 520.488C461.838 542.518 447.42 561.958 428.988 577.085C410.555 592.212 388.676 602.56 365.289 607.212C341.902 611.864 317.729 610.676 294.91 603.755C273.688 597.317 254.247 586.104 238.067 571.003C236.048 569.119 236.054 565.946 238.007 563.993L282.201 519.8C284.153 517.847 287.308 517.862 289.391 519.675C297.095 526.383 306.144 531.401 315.956 534.377C327.365 537.838 339.451 538.432 351.145 536.106C362.839 533.78 373.778 528.606 382.994 521.042C392.211 513.478 399.419 503.759 403.982 492.743C408.544 481.728 410.32 469.758 409.151 457.893C407.983 446.028 403.906 434.634 397.282 424.72C390.658 414.807 381.692 406.68 371.177 401.06C362.135 396.227 352.188 393.376 341.997 392.672C339.242 392.482 337.001 390.261 337.001 387.5V325Z"/>
</mask>
<path d="M337.001 325C337.001 322.239 339.24 319.991 342 320.086C364.12 320.849 385.795 326.667 405.353 337.121C426.383 348.362 444.316 364.615 457.563 384.442C470.811 404.268 478.965 427.056 481.302 450.787C483.639 474.517 480.088 498.458 470.963 520.488C461.838 542.518 447.42 561.958 428.988 577.085C410.555 592.212 388.676 602.56 365.289 607.212C341.902 611.864 317.729 610.676 294.91 603.755C273.688 597.317 254.247 586.104 238.067 571.003C236.048 569.119 236.054 565.946 238.007 563.993L282.201 519.8C284.153 517.847 287.308 517.862 289.391 519.675C297.095 526.383 306.144 531.401 315.956 534.377C327.365 537.838 339.451 538.432 351.145 536.106C362.839 533.78 373.778 528.606 382.994 521.042C392.211 513.478 399.419 503.759 403.982 492.743C408.544 481.728 410.32 469.758 409.151 457.893C407.983 446.028 403.906 434.634 397.282 424.72C390.658 414.807 381.692 406.68 371.177 401.06C362.135 396.227 352.188 393.376 341.997 392.672C339.242 392.482 337.001 390.261 337.001 387.5V325Z" fill="#5550FF" stroke="white" stroke-width="4" mask="url(#path-30-inside-1_910_37032)"/>
<g opacity="0.5">
<mask id="path-31-inside-2_910_37032" fill="white">
<path d="M197.323 455.496C194.568 455.309 192.477 452.921 192.76 450.174C196.311 415.615 212.167 383.413 237.524 359.503C262.881 335.593 295.958 321.655 330.666 320.138C333.425 320.018 335.686 322.245 335.711 325.006L336.286 387.503C336.312 390.264 334.091 392.505 331.338 392.721C314.898 394.008 299.331 400.87 287.261 412.251C275.192 423.632 267.428 438.77 265.178 455.105C264.801 457.841 262.433 459.926 259.678 459.739L197.323 455.496Z"/>
</mask>
<path d="M197.323 455.496C194.568 455.309 192.477 452.921 192.76 450.174C196.311 415.615 212.167 383.413 237.524 359.503C262.881 335.593 295.958 321.655 330.666 320.138C333.425 320.018 335.686 322.245 335.711 325.006L336.286 387.503C336.312 390.264 334.091 392.505 331.338 392.721C314.898 394.008 299.331 400.87 287.261 412.251C275.192 423.632 267.428 438.77 265.178 455.105C264.801 457.841 262.433 459.926 259.678 459.739L197.323 455.496Z" fill="#D1D5DB" stroke="white" stroke-width="4" mask="url(#path-31-inside-2_910_37032)"/>
</g>
<g opacity="0.8">
<mask id="path-32-inside-3_910_37032" fill="white">
<path d="M238.006 563.993C236.053 565.946 232.88 565.952 230.996 563.933C218.039 550.05 207.923 533.743 201.241 515.932C194.559 498.122 191.452 479.186 192.08 460.205C192.171 457.445 194.565 455.363 197.32 455.549L259.677 459.768C262.432 459.954 264.497 462.34 264.5 465.102C264.513 473.751 266.073 482.342 269.12 490.466C272.168 498.589 276.644 506.086 282.324 512.609C284.138 514.692 284.152 517.847 282.2 519.799L238.006 563.993Z"/>
</mask>
<path d="M238.006 563.993C236.053 565.946 232.88 565.952 230.996 563.933C218.039 550.05 207.923 533.743 201.241 515.932C194.559 498.122 191.452 479.186 192.08 460.205C192.171 457.445 194.565 455.363 197.32 455.549L259.677 459.768C262.432 459.954 264.497 462.34 264.5 465.102C264.513 473.751 266.073 482.342 269.12 490.466C272.168 498.589 276.644 506.086 282.324 512.609C284.138 514.692 284.152 517.847 282.2 519.799L238.006 563.993Z" fill="url(#paint0_linear_910_37032)" stroke="white" stroke-width="4" mask="url(#path-32-inside-3_910_37032)"/>
</g>
<path d="M574 12H642C653.046 12 662 20.9543 662 32V100H574V12Z" fill="url(#paint1_linear_910_37032)"/>
<g filter="url(#filter1_d_910_37032)">
<path d="M629.5 64C629.5 72.5604 622.56 79.5 614 79.5C605.44 79.5 598.5 72.5604 598.5 64C598.5 55.4396 605.44 48.5 614 48.5C622.56 48.5 629.5 55.4396 629.5 64Z" fill="white" stroke="#E5E7EB"/>
<path d="M612 59L617 64L612 69" stroke="#4B5563" stroke-width="1.2" stroke-linecap="round" stroke-linejoin="round"/>
</g>
<path d="M503 138.153C503 143.039 507.029 147 512 147C516.971 147 521 143.039 521 138.153C521 133.266 517 129.305 512 129.305C506 129.305 503 134.22 503 134.22M503 134.22V129M503 134.22H507.655" stroke="#9CA3AF" stroke-width="1.8" stroke-linecap="round" stroke-linejoin="round"/>
<path d="M560.138 147.626H555.25C555.018 147.626 554.795 147.534 554.631 147.37C554.467 147.205 554.375 146.983 554.375 146.751V141.863C554.375 141.748 554.398 141.635 554.442 141.528C554.486 141.422 554.55 141.326 554.631 141.245L567.756 128.12C567.92 127.955 568.143 127.863 568.375 127.863C568.607 127.863 568.83 127.955 568.994 128.12L573.881 133.007C574.045 133.171 574.138 133.394 574.138 133.626C574.138 133.858 574.045 134.08 573.881 134.245L560.756 147.37C560.675 147.451 560.579 147.515 560.472 147.559C560.366 147.603 560.252 147.626 560.138 147.626Z" stroke="#9CA3AF" stroke-width="1.5" stroke-linecap="round" stroke-linejoin="round"/>
<path d="M564.875 131L571 137.125" stroke="#9CA3AF" stroke-width="1.5" stroke-linecap="round" stroke-linejoin="round"/>
<path d="M560.443 147.568L554.43 141.555" stroke="#9CA3AF" stroke-width="1.5" stroke-linecap="round" stroke-linejoin="round"/>
<g clip-path="url(#clip0_910_37032)">
<path d="M624.167 132.167L623.155 146.332C623.113 146.921 622.85 147.472 622.418 147.874C621.986 148.276 621.418 148.5 620.828 148.5H611.172C610.582 148.5 610.014 148.276 609.582 147.874C609.15 147.472 608.887 146.921 608.845 146.332L607.833 132.167M606.667 132.167H625.333H606.667ZM612.5 132.167V128.667C612.5 128.357 612.623 128.061 612.842 127.842C613.06 127.623 613.357 127.5 613.667 127.5H618.333C618.643 127.5 618.939 127.623 619.158 127.842C619.377 128.061 619.5 128.357 619.5 128.667V132.167H612.5ZM613.667 136.833V143.833V136.833ZM618.333 136.833V143.833V136.833Z" stroke="#9CA3AF" stroke-width="1.5" stroke-linecap="round" stroke-linejoin="round"/>
</g>
</g>
<defs>
<filter id="filter0_d_910_37032" x="0" y="0" width="674" height="830" filterUnits="userSpaceOnUse" color-interpolation-filters="sRGB">
<feFlood flood-opacity="0" result="BackgroundImageFix"/>
<feColorMatrix in="SourceAlpha" type="matrix" values="0 0 0 0 0 0 0 0 0 0 0 0 0 0 0 0 0 0 127 0" result="hardAlpha"/>
<feOffset/>
<feGaussianBlur stdDeviation="6"/>
<feComposite in2="hardAlpha" operator="out"/>
<feColorMatrix type="matrix" values="0 0 0 0 0.475936 0 0 0 0 0.469306 0 0 0 0 0.516667 0 0 0 0.15 0"/>
<feBlend mode="normal" in2="BackgroundImageFix" result="effect1_dropShadow_910_37032"/>
<feBlend mode="normal" in="SourceGraphic" in2="effect1_dropShadow_910_37032" result="shape"/>
</filter>
<filter id="filter1_d_910_37032" x="586" y="40" width="56" height="56" filterUnits="userSpaceOnUse" color-interpolation-filters="sRGB">
<feFlood flood-opacity="0" result="BackgroundImageFix"/>
<feColorMatrix in="SourceAlpha" type="matrix" values="0 0 0 0 0 0 0 0 0 0 0 0 0 0 0 0 0 0 127 0" result="hardAlpha"/>
<feOffset dy="4"/>
<feGaussianBlur stdDeviation="6"/>
<feComposite in2="hardAlpha" operator="out"/>
<feColorMatrix type="matrix" values="0 0 0 0 0.475936 0 0 0 0 0.469306 0 0 0 0 0.516667 0 0 0 0.18 0"/>
<feBlend mode="normal" in2="BackgroundImageFix" result="effect1_dropShadow_910_37032"/>
<feBlend mode="normal" in="SourceGraphic" in2="effect1_dropShadow_910_37032" result="shape"/>
</filter>
<linearGradient id="paint0_linear_910_37032" x1="285.385" y1="463.402" x2="327.394" y2="1178.31" gradientUnits="userSpaceOnUse">
<stop stop-color="#1B59F8"/>
<stop offset="1" stop-color="#1B59F8" stop-opacity="0.46"/>
</linearGradient>
<linearGradient id="paint1_linear_910_37032" x1="662" y1="64" x2="571.171" y2="64" gradientUnits="userSpaceOnUse">
<stop offset="0.866131" stop-color="white"/>
<stop offset="1" stop-color="white" stop-opacity="0"/>
</linearGradient>
<clipPath id="clip0_910_37032">
<rect width="28" height="28" fill="white" transform="translate(602 124)"/>
</clipPath>
</defs>
</svg>
