<svg width="558" height="428" viewBox="0 0 558 428" fill="none" xmlns="http://www.w3.org/2000/svg">
<circle cx="84" cy="84" r="83" fill="white" stroke="#0198FF" stroke-width="2" stroke-dasharray="3 3"/>
<path d="M47.5781 66.2734H45.3809L42.2344 68.3125V70.4043L45.2051 68.5059H45.2754V79H47.5781V66.2734ZM55.3652 79.1758C58.4238 79.1758 60.252 76.8115 60.252 72.6367C60.252 68.4883 58.415 66.0977 55.3652 66.0977C52.3154 66.0977 50.4697 68.4883 50.4785 72.6367C50.4697 76.8027 52.2979 79.1758 55.3652 79.1758ZM52.7812 72.6367C52.79 69.6045 53.7744 68.0049 55.3652 67.9961C56.9561 68.0049 57.9404 69.6045 57.9492 72.6367C57.9492 75.6953 56.9561 77.251 55.3652 77.2598C53.7656 77.251 52.7812 75.6953 52.7812 72.6367ZM68.9707 75.9414V76.6094C68.9619 78.0859 69.9023 79.3516 71.6602 79.3516C73.3828 79.3516 74.3408 78.0859 74.332 76.6094V75.9414C74.3408 74.4561 73.4092 73.208 71.6602 73.1992C69.9287 73.208 68.9619 74.4648 68.9707 75.9414ZM62.502 69.332C62.4932 70.8086 63.4336 72.0566 65.1914 72.0566C66.9229 72.0566 67.8721 70.8174 67.8633 69.332V68.6641C67.8721 67.1699 66.9492 65.9219 65.1914 65.9219C63.4775 65.9219 62.4932 67.1699 62.502 68.6641V69.332ZM63.2051 79H64.752L73.5059 66.2734H71.959L63.2051 79ZM64.1191 69.332V68.6641C64.1279 68.0049 64.4004 67.3369 65.1914 67.3281C66.0088 67.3369 66.2373 67.9961 66.2461 68.6641V69.332C66.2373 69.9912 65.9824 70.6416 65.1914 70.6504C64.4004 70.6416 64.1279 69.9912 64.1191 69.332ZM70.5879 76.6094V75.9414C70.5879 75.2822 70.8691 74.6143 71.6602 74.623C72.4688 74.6143 72.7061 75.2822 72.7148 75.9414V76.6094C72.7061 77.2773 72.4512 77.9277 71.6602 77.9277C70.8516 77.9277 70.5879 77.2598 70.5879 76.6094ZM88.7812 65.9922V65.1836H86.7246V65.9922C86.7246 68.0049 84.4922 70.0176 81.1348 70.457L81.9082 72.0391C84.5801 71.6348 86.7158 70.3076 87.7529 68.5146C88.79 70.3076 90.9346 71.6348 93.6328 72.0391L94.4062 70.457C91.0137 70.0176 88.7725 67.9873 88.7812 65.9922ZM80.502 75.0273H86.7422V80.5645H88.6758V75.0273H94.9863V73.4102H80.502V75.0273ZM109.295 74.8164H98.4492V76.3984H107.326V80.5645H109.295V74.8164ZM96.3398 69.4023C96.3398 71.6699 98.168 73.2432 100.629 73.252C103.081 73.2432 104.909 71.6699 104.9 69.4023C104.909 67.1699 103.081 65.5703 100.629 65.5879C98.168 65.5703 96.3398 67.1699 96.3398 69.4023ZM98.2559 69.4023C98.2471 68.0752 99.2402 67.249 100.629 67.2402C101.991 67.249 102.984 68.0752 102.984 69.4023C102.984 70.7559 101.991 71.5908 100.629 71.582C99.2402 71.5908 98.2471 70.7559 98.2559 69.4023ZM107.326 74.043H109.295V64.6738H107.326V74.043ZM126.117 71.7754H111.598V73.2344H115.307V74.3242H113.285V75.6953H122.426V76.6797H113.303V80.4238H124.834V79.0703H115.254V77.9453H124.359V74.3242H122.426V73.2344H126.117V71.7754ZM113.391 66.3613H122.373V67.3281H113.443V70.9141H124.605V69.5605H115.377V68.5938H124.324V65.0254H113.391V66.3613ZM117.24 74.3242V73.2344H120.492V74.3242H117.24Z" fill="#374151"/>
<path d="M79.9062 135L81.3125 130.805H87.6992L89.1172 135H92.375L86.375 118.031H82.625L76.6484 135H79.9062ZM82.1328 128.344L84.4297 121.5H84.5703L86.8789 128.344H82.1328Z" fill="#0198FF"/>
<circle cx="84" cy="344" r="83" fill="white" stroke="#0148FF" stroke-width="2" stroke-dasharray="3 3"/>
<path d="M48.0781 310.273H45.8809L42.7344 312.312V314.404L45.7051 312.506H45.7754V323H48.0781V310.273ZM55.8652 323.176C58.9238 323.176 60.752 320.812 60.752 316.637C60.752 312.488 58.915 310.098 55.8652 310.098C52.8154 310.098 50.9697 312.488 50.9785 316.637C50.9697 320.803 52.7979 323.176 55.8652 323.176ZM53.2812 316.637C53.29 313.604 54.2744 312.005 55.8652 311.996C57.4561 312.005 58.4404 313.604 58.4492 316.637C58.4492 319.695 57.4561 321.251 55.8652 321.26C54.2656 321.251 53.2812 319.695 53.2812 316.637ZM69.4707 319.941V320.609C69.4619 322.086 70.4023 323.352 72.1602 323.352C73.8828 323.352 74.8408 322.086 74.832 320.609V319.941C74.8408 318.456 73.9092 317.208 72.1602 317.199C70.4287 317.208 69.4619 318.465 69.4707 319.941ZM63.002 313.332C62.9932 314.809 63.9336 316.057 65.6914 316.057C67.4229 316.057 68.3721 314.817 68.3633 313.332V312.664C68.3721 311.17 67.4492 309.922 65.6914 309.922C63.9775 309.922 62.9932 311.17 63.002 312.664V313.332ZM63.7051 323H65.252L74.0059 310.273H72.459L63.7051 323ZM64.6191 313.332V312.664C64.6279 312.005 64.9004 311.337 65.6914 311.328C66.5088 311.337 66.7373 311.996 66.7461 312.664V313.332C66.7373 313.991 66.4824 314.642 65.6914 314.65C64.9004 314.642 64.6279 313.991 64.6191 313.332ZM71.0879 320.609V319.941C71.0879 319.282 71.3691 318.614 72.1602 318.623C72.9688 318.614 73.2061 319.282 73.2148 319.941V320.609C73.2061 321.277 72.9512 321.928 72.1602 321.928C71.3516 321.928 71.0879 321.26 71.0879 320.609ZM89.2812 309.992V309.184H87.2246V309.992C87.2246 312.005 84.9922 314.018 81.6348 314.457L82.4082 316.039C85.0801 315.635 87.2158 314.308 88.2529 312.515C89.29 314.308 91.4346 315.635 94.1328 316.039L94.9062 314.457C91.5137 314.018 89.2725 311.987 89.2812 309.992ZM81.002 319.027H87.2422V324.564H89.1758V319.027H95.4863V317.41H81.002V319.027ZM109.795 318.816H98.9492V320.398H107.826V324.564H109.795V318.816ZM96.8398 313.402C96.8398 315.67 98.668 317.243 101.129 317.252C103.581 317.243 105.409 315.67 105.4 313.402C105.409 311.17 103.581 309.57 101.129 309.588C98.668 309.57 96.8398 311.17 96.8398 313.402ZM98.7559 313.402C98.7471 312.075 99.7402 311.249 101.129 311.24C102.491 311.249 103.484 312.075 103.484 313.402C103.484 314.756 102.491 315.591 101.129 315.582C99.7402 315.591 98.7471 314.756 98.7559 313.402ZM107.826 318.043H109.795V308.674H107.826V318.043ZM126.617 315.775H112.098V317.234H115.807V318.324H113.785V319.695H122.926V320.68H113.803V324.424H125.334V323.07H115.754V321.945H124.859V318.324H122.926V317.234H126.617V315.775ZM113.891 310.361H122.873V311.328H113.943V314.914H125.105V313.561H115.877V312.594H124.824V309.025H113.891V310.361ZM117.74 318.324V317.234H120.992V318.324H117.74ZM35.9492 338.098C33.1279 338.08 31.2559 339.97 31.2559 342.457C31.2646 344.865 33.0225 346.597 35.2988 346.588C36.6963 346.597 37.9268 345.938 38.5684 344.83H38.709C38.6914 347.563 37.6543 349.189 35.8086 349.189C34.6572 349.189 33.875 348.548 33.6465 347.537H31.3789C31.6602 349.646 33.3564 351.176 35.8086 351.176C38.9375 351.176 40.9238 348.636 40.9238 344.25C40.915 339.601 38.4365 338.115 35.9492 338.098ZM33.4883 342.404C33.4707 341.042 34.5342 339.952 35.9668 339.943C37.3906 339.952 38.4277 341.095 38.4277 342.387C38.4365 343.705 37.3467 344.848 35.9316 344.848C34.5078 344.848 33.4883 343.775 33.4883 342.404ZM47.5156 351.176C50.5742 351.176 52.4023 348.812 52.4023 344.637C52.4023 340.488 50.5654 338.098 47.5156 338.098C44.4658 338.098 42.6201 340.488 42.6289 344.637C42.6201 348.803 44.4482 351.176 47.5156 351.176ZM44.9316 344.637C44.9404 341.604 45.9248 340.005 47.5156 339.996C49.1064 340.005 50.0908 341.604 50.0996 344.637C50.0996 347.695 49.1064 349.251 47.5156 349.26C45.916 349.251 44.9316 347.695 44.9316 344.637ZM61.1211 347.941V348.609C61.1123 350.086 62.0527 351.352 63.8105 351.352C65.5332 351.352 66.4912 350.086 66.4824 348.609V347.941C66.4912 346.456 65.5596 345.208 63.8105 345.199C62.0791 345.208 61.1123 346.465 61.1211 347.941ZM54.6523 341.332C54.6436 342.809 55.584 344.057 57.3418 344.057C59.0732 344.057 60.0225 342.817 60.0137 341.332V340.664C60.0225 339.17 59.0996 337.922 57.3418 337.922C55.6279 337.922 54.6436 339.17 54.6523 340.664V341.332ZM55.3555 351H56.9023L65.6562 338.273H64.1094L55.3555 351ZM56.2695 341.332V340.664C56.2783 340.005 56.5508 339.337 57.3418 339.328C58.1592 339.337 58.3877 339.996 58.3965 340.664V341.332C58.3877 341.991 58.1328 342.642 57.3418 342.65C56.5508 342.642 56.2783 341.991 56.2695 341.332ZM62.7383 348.609V347.941C62.7383 347.282 63.0195 346.614 63.8105 346.623C64.6191 346.614 64.8564 347.282 64.8652 347.941V348.609C64.8564 349.277 64.6016 349.928 63.8105 349.928C63.002 349.928 62.7383 349.26 62.7383 348.609ZM78.9102 345.182H76.959V347.845C75.4209 347.889 73.9619 347.897 72.7227 347.906L72.9688 349.488C75.7725 349.497 79.5869 349.462 83.1465 348.803L82.9883 347.361C81.6787 347.555 80.29 347.678 78.9102 347.757V345.182ZM73.0918 344.215L74.0234 345.691C75.9131 345.182 77.2402 344.03 77.9346 342.554C78.6553 343.96 80 345.059 81.8809 345.568L82.7773 344.039C80.3867 343.424 79.042 341.903 78.9365 340.207H82.3379V338.625H78.9102V336.814H76.959V338.625H73.5664V340.207H76.915C76.8008 341.982 75.4824 343.556 73.0918 344.215ZM83.9375 352.582H85.8887V336.674H83.9375V352.582ZM101.885 336.674H100.021V342.896H98.2285V336.973H96.4355V351.756H98.2285V344.461H100.021V352.564H101.885V336.674ZM88.7012 348.855H89.7734C91.9883 348.838 93.6494 348.785 95.5742 348.398L95.4336 346.799C93.8164 347.098 92.3926 347.186 90.6699 347.203V340.137H94.6426V338.555H88.7012V348.855ZM120.887 350.666H111.781V347.66H109.83V352.248H120.887V350.666ZM108.037 346.588H122.521V345.006H116.229V342.615H114.295V345.006H108.037V346.588ZM108.863 342.07L109.637 343.6C112.212 343.187 114.242 341.938 115.244 340.207C116.246 341.947 118.294 343.169 120.887 343.6L121.66 342.07C118.338 341.622 116.246 339.75 116.246 337.676V337.113H114.26V337.676C114.26 339.68 112.124 341.587 108.863 342.07ZM136.795 336.674H134.861V344.777H136.795V336.674ZM123.576 343.23L124.561 344.76C126.459 344.153 127.812 342.861 128.533 341.218C129.254 342.729 130.572 343.907 132.418 344.479L133.367 342.967C130.854 342.202 129.509 340.312 129.518 338.291V337.061H127.496V338.291C127.505 340.374 126.151 342.413 123.576 343.23ZM126.283 347.027H134.879V348.188H126.318V352.424H137.305V350.877H128.234V349.646H136.83V345.516H126.283V347.027Z" fill="#374151"/>
<path d="M92.3648 395L86.3813 378.028H82.6189L76.6355 395H79.9007L81.3095 390.798H87.699L89.1079 395H92.3648ZM84.4338 381.492H84.5664L86.8703 388.345H82.13L84.4338 381.492Z" fill="#0148FF"/>
<circle cx="474" cy="344" r="83" fill="white" stroke="#0148FF" stroke-width="2" stroke-dasharray="3 3"/>
<path d="M437.657 323H440.03L445.55 312.225V310.273H436.778V312.189H443.177V312.277L437.657 323ZM454.198 319.941V320.609C454.189 322.086 455.13 323.352 456.888 323.352C458.61 323.352 459.568 322.086 459.56 320.609V319.941C459.568 318.456 458.637 317.208 456.888 317.199C455.156 317.208 454.189 318.465 454.198 319.941ZM447.729 313.332C447.721 314.809 448.661 316.057 450.419 316.057C452.15 316.057 453.1 314.817 453.091 313.332V312.664C453.1 311.17 452.177 309.922 450.419 309.922C448.705 309.922 447.721 311.17 447.729 312.664V313.332ZM448.433 323H449.979L458.733 310.273H457.187L448.433 323ZM449.347 313.332V312.664C449.355 312.005 449.628 311.337 450.419 311.328C451.236 311.337 451.465 311.996 451.474 312.664V313.332C451.465 313.991 451.21 314.642 450.419 314.65C449.628 314.642 449.355 313.991 449.347 313.332ZM455.815 320.609V319.941C455.815 319.282 456.097 318.614 456.888 318.623C457.696 318.614 457.934 319.282 457.942 319.941V320.609C457.934 321.277 457.679 321.928 456.888 321.928C456.079 321.928 455.815 321.26 455.815 320.609ZM474.009 309.992V309.184H471.952V309.992C471.952 312.005 469.72 314.018 466.362 314.457L467.136 316.039C469.808 315.635 471.943 314.308 472.98 312.515C474.018 314.308 476.162 315.635 478.86 316.039L479.634 314.457C476.241 314.018 474 311.987 474.009 309.992ZM465.729 319.027H471.97V324.564H473.903V319.027H480.214V317.41H465.729V319.027ZM494.522 318.816H483.677V320.398H492.554V324.564H494.522V318.816ZM481.567 313.402C481.567 315.67 483.396 317.243 485.856 317.252C488.309 317.243 490.137 315.67 490.128 313.402C490.137 311.17 488.309 309.57 485.856 309.588C483.396 309.57 481.567 311.17 481.567 313.402ZM483.483 313.402C483.475 312.075 484.468 311.249 485.856 311.24C487.219 311.249 488.212 312.075 488.212 313.402C488.212 314.756 487.219 315.591 485.856 315.582C484.468 315.591 483.475 314.756 483.483 313.402ZM492.554 318.043H494.522V308.674H492.554V318.043ZM511.345 315.775H496.825V317.234H500.534V318.324H498.513V319.695H507.653V320.68H498.53V324.424H510.062V323.07H500.481V321.945H509.587V318.324H507.653V317.234H511.345V315.775ZM498.618 310.361H507.601V311.328H498.671V314.914H509.833V313.561H500.604V312.594H509.552V309.025H498.618V310.361ZM502.468 318.324V317.234H505.72V318.324H502.468ZM425.59 351.176C428.341 351.176 430.257 349.356 430.248 346.816C430.257 344.364 428.499 342.606 426.135 342.598C425.089 342.606 424.166 343.011 423.674 343.564H423.551L423.938 340.189H429.58V338.273H422.057L421.283 345.48H423.41C423.806 344.733 424.526 344.382 425.52 344.391C426.987 344.399 428.042 345.428 428.033 346.887C428.042 348.293 427.014 349.321 425.59 349.33C424.386 349.321 423.41 348.583 423.34 347.555H421.107C421.178 349.655 423.05 351.176 425.59 351.176ZM436.875 351.176C439.934 351.176 441.762 348.812 441.762 344.637C441.762 340.488 439.925 338.098 436.875 338.098C433.825 338.098 431.979 340.488 431.988 344.637C431.979 348.803 433.808 351.176 436.875 351.176ZM434.291 344.637C434.3 341.604 435.284 340.005 436.875 339.996C438.466 340.005 439.45 341.604 439.459 344.637C439.459 347.695 438.466 349.251 436.875 349.26C435.275 349.251 434.291 347.695 434.291 344.637ZM450.48 347.941V348.609C450.472 350.086 451.412 351.352 453.17 351.352C454.893 351.352 455.851 350.086 455.842 348.609V347.941C455.851 346.456 454.919 345.208 453.17 345.199C451.438 345.208 450.472 346.465 450.48 347.941ZM444.012 341.332C444.003 342.809 444.943 344.057 446.701 344.057C448.433 344.057 449.382 342.817 449.373 341.332V340.664C449.382 339.17 448.459 337.922 446.701 337.922C444.987 337.922 444.003 339.17 444.012 340.664V341.332ZM444.715 351H446.262L455.016 338.273H453.469L444.715 351ZM445.629 341.332V340.664C445.638 340.005 445.91 339.337 446.701 339.328C447.519 339.337 447.747 339.996 447.756 340.664V341.332C447.747 341.991 447.492 342.642 446.701 342.65C445.91 342.642 445.638 341.991 445.629 341.332ZM452.098 348.609V347.941C452.098 347.282 452.379 346.614 453.17 346.623C453.979 346.614 454.216 347.282 454.225 347.941V348.609C454.216 349.277 453.961 349.928 453.17 349.928C452.361 349.928 452.098 349.26 452.098 348.609ZM468.27 345.182H466.318V347.845C464.78 347.889 463.321 347.897 462.082 347.906L462.328 349.488C465.132 349.497 468.946 349.462 472.506 348.803L472.348 347.361C471.038 347.555 469.649 347.678 468.27 347.757V345.182ZM462.451 344.215L463.383 345.691C465.272 345.182 466.6 344.03 467.294 342.554C468.015 343.96 469.359 345.059 471.24 345.568L472.137 344.039C469.746 343.424 468.401 341.903 468.296 340.207H471.697V338.625H468.27V336.814H466.318V338.625H462.926V340.207H466.274C466.16 341.982 464.842 343.556 462.451 344.215ZM473.297 352.582H475.248V336.674H473.297V352.582ZM491.244 336.674H489.381V342.896H487.588V336.973H485.795V351.756H487.588V344.461H489.381V352.564H491.244V336.674ZM478.061 348.855H479.133C481.348 348.838 483.009 348.785 484.934 348.398L484.793 346.799C483.176 347.098 481.752 347.186 480.029 347.203V340.137H484.002V338.555H478.061V348.855ZM510.246 350.666H501.141V347.66H499.189V352.248H510.246V350.666ZM497.396 346.588H511.881V345.006H505.588V342.615H503.654V345.006H497.396V346.588ZM498.223 342.07L498.996 343.6C501.571 343.187 503.602 341.938 504.604 340.207C505.605 341.947 507.653 343.169 510.246 343.6L511.02 342.07C507.697 341.622 505.605 339.75 505.605 337.676V337.113H503.619V337.676C503.619 339.68 501.483 341.587 498.223 342.07ZM526.154 336.674H524.221V344.777H526.154V336.674ZM512.936 343.23L513.92 344.76C515.818 344.153 517.172 342.861 517.893 341.218C518.613 342.729 519.932 343.907 521.777 344.479L522.727 342.967C520.213 342.202 518.868 340.312 518.877 338.291V337.061H516.855V338.291C516.864 340.374 515.511 342.413 512.936 343.23ZM515.643 347.027H524.238V348.188H515.678V352.424H526.664V350.877H517.594V349.646H526.189V345.516H515.643V347.027Z" fill="#374151"/>
<path d="M474.866 395C478.753 395 480.651 393.019 480.651 390.376C480.651 387.807 478.836 386.307 477.029 386.207V386.041C478.687 385.652 479.988 384.492 479.988 382.436C479.988 379.901 478.173 378.028 474.502 378.028H468.013V395H474.866ZM471.054 380.555H474.187C476.002 380.555 476.946 381.508 476.946 382.818C476.946 384.318 475.728 385.254 474.12 385.254H471.054V380.555ZM471.054 387.459H474.477C476.366 387.459 477.56 388.619 477.56 390.144C477.56 391.494 476.623 392.448 474.385 392.448H471.054V387.459Z" fill="#0148FF"/>
<circle cx="474" cy="84" r="83" fill="white" stroke="#0198FF" stroke-width="2" stroke-dasharray="3 3"/>
<path d="M437.657 79H440.03L445.55 68.2246V66.2734H436.778V68.1895H443.177V68.2773L437.657 79ZM454.198 75.9414V76.6094C454.189 78.0859 455.13 79.3516 456.888 79.3516C458.61 79.3516 459.568 78.0859 459.56 76.6094V75.9414C459.568 74.4561 458.637 73.208 456.888 73.1992C455.156 73.208 454.189 74.4648 454.198 75.9414ZM447.729 69.332C447.721 70.8086 448.661 72.0566 450.419 72.0566C452.15 72.0566 453.1 70.8174 453.091 69.332V68.6641C453.1 67.1699 452.177 65.9219 450.419 65.9219C448.705 65.9219 447.721 67.1699 447.729 68.6641V69.332ZM448.433 79H449.979L458.733 66.2734H457.187L448.433 79ZM449.347 69.332V68.6641C449.355 68.0049 449.628 67.3369 450.419 67.3281C451.236 67.3369 451.465 67.9961 451.474 68.6641V69.332C451.465 69.9912 451.21 70.6416 450.419 70.6504C449.628 70.6416 449.355 69.9912 449.347 69.332ZM455.815 76.6094V75.9414C455.815 75.2822 456.097 74.6143 456.888 74.623C457.696 74.6143 457.934 75.2822 457.942 75.9414V76.6094C457.934 77.2773 457.679 77.9277 456.888 77.9277C456.079 77.9277 455.815 77.2598 455.815 76.6094ZM474.009 65.9922V65.1836H471.952V65.9922C471.952 68.0049 469.72 70.0176 466.362 70.457L467.136 72.0391C469.808 71.6348 471.943 70.3076 472.98 68.5146C474.018 70.3076 476.162 71.6348 478.86 72.0391L479.634 70.457C476.241 70.0176 474 67.9873 474.009 65.9922ZM465.729 75.0273H471.97V80.5645H473.903V75.0273H480.214V73.4102H465.729V75.0273ZM494.522 74.8164H483.677V76.3984H492.554V80.5645H494.522V74.8164ZM481.567 69.4023C481.567 71.6699 483.396 73.2432 485.856 73.252C488.309 73.2432 490.137 71.6699 490.128 69.4023C490.137 67.1699 488.309 65.5703 485.856 65.5879C483.396 65.5703 481.567 67.1699 481.567 69.4023ZM483.483 69.4023C483.475 68.0752 484.468 67.249 485.856 67.2402C487.219 67.249 488.212 68.0752 488.212 69.4023C488.212 70.7559 487.219 71.5908 485.856 71.582C484.468 71.5908 483.475 70.7559 483.483 69.4023ZM492.554 74.043H494.522V64.6738H492.554V74.043ZM511.345 71.7754H496.825V73.2344H500.534V74.3242H498.513V75.6953H507.653V76.6797H498.53V80.4238H510.062V79.0703H500.481V77.9453H509.587V74.3242H507.653V73.2344H511.345V71.7754ZM498.618 66.3613H507.601V67.3281H498.671V70.9141H509.833V69.5605H500.604V68.5938H509.552V65.0254H498.618V66.3613ZM502.468 74.3242V73.2344H505.72V74.3242H502.468Z" fill="#374151"/>
<path d="M468 135H474.867C478.746 135 480.656 133.02 480.656 130.383C480.656 127.805 478.828 126.305 477.023 126.211V126.047C478.688 125.648 479.988 124.5 480 122.438C479.988 119.906 478.172 118.031 474.492 118.031H468V135ZM471.047 132.445V127.453H474.469C476.367 127.465 477.551 128.625 477.562 130.148C477.551 131.496 476.625 132.445 474.398 132.445H471.047ZM471.047 125.25V120.562H474.188C476.004 120.562 476.941 121.512 476.953 122.812C476.941 124.324 475.723 125.25 474.117 125.25H471.047Z" fill="#0198FF"/>
<path d="M279.66 354.454V353.405C279.724 348.653 281.03 346.49 284.884 343.985C288.909 341.395 290.964 338.312 290.964 333.881C290.964 327.329 286.061 322.555 278.847 322.555C272.017 322.555 266.644 327.03 266.429 334.137H270.775C271.032 328.935 274.715 326.238 278.847 326.238C283.278 326.238 286.768 329.213 286.768 333.731C286.768 337.028 284.991 339.383 281.951 341.352C277.733 344.028 275.55 346.469 275.485 353.405V354.454H279.66ZM277.712 367.321C279.489 367.321 280.945 365.865 280.945 364.088C280.945 362.311 279.489 360.856 277.712 360.856C275.935 360.856 274.436 362.311 274.479 364.088C274.436 365.865 275.935 367.321 277.712 367.321Z" fill="#1F2937"/>
<g clip-path="url(#clip0_910_36839)">
<path d="M292 109H266V115H292V109Z" stroke="#1F2937" stroke-width="2.5" stroke-miterlimit="10" stroke-linecap="square" stroke-linejoin="round"/>
<path d="M307.5 51.5L250.781 61.6101" stroke="#1F2937" stroke-width="2.5" stroke-miterlimit="10" stroke-linecap="round"/>
<path d="M299.201 74.4602L307.491 51.2402L315.5 74.4602" stroke="#1F2937" stroke-width="2.5" stroke-linecap="round" stroke-linejoin="round"/>
<path d="M242.291 84.6507L250.591 61.4307L258.5 84.6507" stroke="#1F2937" stroke-width="2.5" stroke-linecap="round" stroke-linejoin="round"/>
<path d="M317.961 74.7598C317.961 80.4898 313.321 85.1298 307.591 85.1298C301.861 85.1298 297.221 80.4898 297.221 74.7598H317.961Z" stroke="#1F2937" stroke-width="2.5" stroke-miterlimit="10" stroke-linecap="square" stroke-linejoin="round"/>
<path d="M261.06 85.7607C261.06 91.4907 256.42 96.1307 250.69 96.1307C244.96 96.1307 240.32 91.4807 240.32 85.7607H261.06Z" stroke="#1F2937" stroke-width="2.5" stroke-miterlimit="10" stroke-linecap="square" stroke-linejoin="round"/>
<path d="M279 44L279 108" stroke="#1F2937" stroke-width="2.5" stroke-linecap="round"/>
<circle cx="279" cy="56" r="4" fill="#1F2937"/>
</g>
<defs>
<clipPath id="clip0_910_36839">
<rect width="82" height="82" fill="white" transform="translate(238 43)"/>
</clipPath>
</defs>
</svg>
