<svg width="60" height="60" viewBox="0 0 60 60" fill="none" xmlns="http://www.w3.org/2000/svg">
<circle cx="30" cy="30" r="30" fill="#A64141"/>
<path d="M35.6499 28.0589C35.4988 28.21 35.278 28.2681 35.0734 28.21L34.8712 28.1519L35.1641 27.859L33.9646 25.6553C33.8391 25.4251 33.8809 25.1415 34.0646 24.9579L34.3203 24.7022C34.4876 24.5348 34.7364 24.4837 34.9549 24.572L35.085 24.6232L34.8363 24.8719L36.0358 27.0756C36.1613 27.3057 36.1195 27.5893 35.9358 27.773L35.6499 28.0589Z" fill="#1B1B1B"/>
<path d="M41.329 19.4132L40.1853 18.2695C38.9021 16.9864 38.9021 14.9059 40.1853 13.6227L41.6009 12.207H38.6208C35.1897 12.207 32.4072 14.9896 32.4072 18.4206V21.4007L33.8229 19.9851C35.1061 18.7019 37.1866 18.7019 38.4697 19.9851L39.6134 21.1288L40.2759 20.0781L41.3266 19.4156L41.329 19.4132Z" fill="#C5C9D4"/>
<path d="M41.3282 19.4134L40.1845 18.2697C39.9753 18.0605 39.8033 17.8281 39.6615 17.584L37.7832 19.4622C38.0273 19.604 38.2597 19.7737 38.469 19.9853L39.6126 21.129L40.2752 20.0783L41.3259 19.4158L41.3282 19.4134Z" fill="#A3AABA"/>
<path d="M33.0093 18.2161C33.3533 15.3917 35.5919 13.1531 38.4163 12.8091C39.0834 12.7277 39.7482 12.6324 40.4038 12.4813L41.6009 12.207H38.6208C35.1897 12.207 32.4072 14.9896 32.4072 18.4206V21.4007L32.4653 21.1474C32.6885 20.178 32.8884 19.2017 33.0093 18.2161Z" fill="white"/>
<path d="M42.3215 20.4087L43.4652 21.5524C44.7484 22.8356 46.8289 22.8356 48.112 21.5524L49.5277 20.1367V23.1168C49.5277 26.5479 46.7452 29.3304 43.3141 29.3304H40.334L41.7497 27.9148C43.0328 26.6316 43.0328 24.5511 41.7497 23.2679L40.606 22.1242L41.6567 21.4617L42.3192 20.411L42.3215 20.4087Z" fill="#C5C9D4"/>
<path d="M43.6257 21.6987C43.5699 21.6522 43.5164 21.6034 43.4653 21.5499L42.3216 20.4062L41.6591 21.457L40.6084 22.1195L41.7521 23.2632C41.8032 23.3143 41.852 23.3701 41.9009 23.4236L43.628 21.6964L43.6257 21.6987Z" fill="#A3AABA"/>
<path d="M43.5206 28.7264C46.345 28.3824 48.5835 26.1438 48.9276 23.3194C49.0089 22.6523 49.1042 21.9875 49.2553 21.3319L49.5296 20.1348V23.1149C49.5296 26.546 46.7471 29.3285 43.316 29.3285H40.3359L40.587 29.2704C41.5563 29.0472 42.5327 28.8473 43.5183 28.7264H43.5206Z" fill="white"/>
<path d="M43.5885 20.19L41.1738 17.7754L36.7144 22.2348L39.129 24.6495L43.5885 20.19Z" fill="#C5C9D4"/>
<path d="M41.1705 17.7778L40.7842 18.1641L43.1988 20.5787L43.5851 20.1924L41.1705 17.7778Z" fill="#ACB3C2"/>
<path d="M37.7029 25.6112L35.7549 23.6632L36.7126 22.2383L39.1278 24.6535L37.7029 25.6112Z" fill="#A3AABA"/>
<path d="M46.287 15.0781L44.0508 20.6571L40.708 17.3144L46.287 15.0781Z" fill="white"/>
<path d="M46.2871 15.0781L43.3977 20.0016L41.3613 17.9676L46.2871 15.0781Z" fill="#C5C9D4"/>
<path d="M37.5573 25.4635L35.9004 23.8066L17.7537 41.9534L19.4105 43.6102L37.5573 25.4635Z" fill="#9CA3B5"/>
<path d="M17.9688 42.1699L19.167 43.3682L18.8317 43.7035C18.646 43.8893 18.3435 43.8893 18.1578 43.7035L17.6334 43.1792C17.4477 42.9934 17.4477 42.691 17.6334 42.5052L17.9688 42.1699Z" fill="#5A6684"/>
<path d="M14.3497 46.9702C13.6035 46.224 13.6035 45.0082 14.3497 44.2597C15.0959 43.5112 16.3116 43.5135 17.0601 44.2597C17.8087 45.0059 17.8063 46.2217 17.0601 46.9702C16.314 47.7187 15.0982 47.7164 14.3497 46.9702ZM16.5999 44.72C16.1071 44.2272 15.3028 44.2272 14.8099 44.72C14.3171 45.2128 14.3171 46.0171 14.8099 46.5099C15.3028 47.0027 16.1071 47.0027 16.5999 46.5099C17.0927 46.0171 17.0927 45.2128 16.5999 44.72Z" fill="#BDC2CE"/>
<path d="M17.6455 43.1953L18.1255 43.6753L17.2477 44.553C17.1195 44.6812 16.9124 44.6812 16.7842 44.553L16.7678 44.5366C16.6395 44.4084 16.6395 44.2013 16.7678 44.0731L17.6455 43.1953Z" fill="#9CA3B5"/>
<path d="M34.6501 25.0566L33.8086 25.9005L34.9755 28.0437L35.817 27.2022L34.6501 25.0566Z" fill="#6A7690"/>
<path d="M35.6499 28.0589C35.4988 28.21 35.278 28.2681 35.0734 28.21L34.8712 28.1519L35.1641 27.859L33.9646 25.6553C33.8391 25.4251 33.8809 25.1415 34.0646 24.9579L34.3203 24.7022C34.4876 24.5348 34.7364 24.4837 34.9549 24.572L35.085 24.6232L34.8363 24.8719L36.0358 27.0756C36.1613 27.3057 36.1195 27.5893 35.9358 27.773L35.6499 28.0589Z" fill="white"/>
<path d="M34.8361 24.871L35.0848 24.6223L34.9546 24.5711C34.8849 24.5432 34.8152 24.5316 34.7431 24.5293C34.6757 24.5897 34.8361 24.871 34.8361 24.871Z" fill="white"/>
<path d="M35.162 27.8594L34.8691 28.1523L35.0714 28.2104C35.1272 28.2267 35.1853 28.2336 35.2411 28.2336C35.3689 28.2499 35.162 27.8617 35.162 27.8617V27.8594Z" fill="white"/>
<path d="M32.8374 30.8714C32.6863 31.0225 32.4655 31.0806 32.2609 31.0225L32.0587 30.9644L32.3516 30.6715L31.1521 28.4678C31.0266 28.2376 31.0684 27.954 31.2521 27.7704L31.5078 27.5147C31.6751 27.3473 31.9239 27.2962 32.1424 27.3845L32.2725 27.4357L32.0238 27.6844L33.2233 29.8881C33.3488 30.1182 33.307 30.4018 33.1233 30.5855L32.8374 30.8714Z" fill="#1B1B1B"/>
<path d="M31.8376 27.8691L30.9961 28.7106L32.163 30.8562L33.0045 30.0147L31.8376 27.8691Z" fill="#6A7690"/>
<path d="M32.8374 30.8714C32.6863 31.0225 32.4655 31.0806 32.2609 31.0225L32.0587 30.9644L32.3516 30.6715L31.1521 28.4678C31.0266 28.2376 31.0684 27.954 31.2521 27.7704L31.5078 27.5147C31.6751 27.3473 31.9239 27.2962 32.1424 27.3845L32.2725 27.4357L32.0238 27.6844L33.2233 29.8881C33.3488 30.1182 33.307 30.4018 33.1233 30.5855L32.8374 30.8714Z" fill="white"/>
<path d="M32.0236 27.6835L32.2723 27.4348L32.1421 27.3836C32.0724 27.3557 32.0027 27.3418 31.9306 27.3418C31.8632 27.4022 32.0236 27.6835 32.0236 27.6835Z" fill="white"/>
<path d="M32.3515 30.6719L32.0586 30.9648L32.2608 31.0229C32.3166 31.0392 32.3747 31.0461 32.4305 31.0461C32.5584 31.0624 32.3515 30.6742 32.3515 30.6742V30.6719Z" fill="#5A6684"/>
<path d="M30.0239 33.6839C29.8728 33.835 29.652 33.8931 29.4474 33.835L29.2452 33.7769L29.5381 33.484L28.3386 31.2803C28.2131 31.0501 28.2549 30.7665 28.4386 30.5829L28.6943 30.3272C28.8617 30.1598 29.1104 30.1087 29.3289 30.197L29.4591 30.2482L29.2103 30.4969L30.4098 32.7006C30.5353 32.9307 30.4935 33.2143 30.3099 33.398L30.0239 33.6839Z" fill="#1B1B1B"/>
<path d="M29.0251 30.6816L28.1836 31.5231L29.3505 33.6687L30.1944 32.8272L29.0251 30.6816Z" fill="#363636"/>
<path d="M30.0239 33.6839C29.8728 33.835 29.652 33.8931 29.4474 33.835L29.2452 33.7769L29.5381 33.484L28.3386 31.2803C28.2131 31.0501 28.2549 30.7665 28.4386 30.5829L28.6943 30.3272C28.8617 30.1598 29.1104 30.1087 29.3289 30.197L29.4591 30.2482L29.2103 30.4969L30.4098 32.7006C30.5353 32.9307 30.4935 33.2143 30.3099 33.398L30.0239 33.6839Z" fill="#1B1B1B"/>
<path d="M29.213 30.496L29.4618 30.2473L29.3316 30.1961C29.2619 30.1682 29.1921 30.1543 29.1201 30.1543C29.0526 30.2147 29.213 30.496 29.213 30.496Z" fill="white"/>
<path d="M29.539 33.4844L29.2461 33.7773L29.4483 33.8354C29.5041 33.8517 29.5622 33.8586 29.618 33.8586C29.7459 33.8749 29.539 33.4867 29.539 33.4867V33.4844Z" fill="white"/>
<path d="M27.2114 36.4944C27.0603 36.6455 26.8395 36.7037 26.6349 36.6455L26.4327 36.5874L26.7256 36.2945L25.5261 34.0908C25.4006 33.8607 25.4424 33.5771 25.6261 33.3935L25.8818 33.1377C26.0491 32.9704 26.2979 32.9192 26.5164 33.0076L26.6466 33.0587L26.3978 33.3074L27.5973 35.5111C27.7228 35.7413 27.681 36.0249 27.4974 36.2085L27.2114 36.4944Z" fill="#1B1B1B"/>
<path d="M26.2139 33.4941L25.3701 34.3356L26.5394 36.4812L27.3809 35.6397L26.2139 33.4941Z" fill="#6A7690"/>
<path d="M27.2114 36.4944C27.0603 36.6455 26.8395 36.7037 26.6349 36.6455L26.4327 36.5874L26.7256 36.2945L25.5261 34.0908C25.4006 33.8607 25.4424 33.5771 25.6261 33.3935L25.8818 33.1377C26.0491 32.9704 26.2979 32.9192 26.5164 33.0076L26.6466 33.0587L26.3978 33.3074L27.5973 35.5111C27.7228 35.7413 27.681 36.0249 27.4974 36.2085L27.2114 36.4944Z" fill="white"/>
<path d="M26.4005 33.3066L26.6493 33.0578L26.5191 33.0067C26.4494 32.9788 26.3796 32.9672 26.3076 32.9648C26.2401 33.0253 26.4005 33.3066 26.4005 33.3066Z" fill="white"/>
<path d="M26.7265 36.2949L26.4336 36.5878L26.6358 36.6459C26.6916 36.6622 26.7497 36.6692 26.8055 36.6692C26.9334 36.6855 26.7265 36.2972 26.7265 36.2972V36.2949Z" fill="white"/>
<path d="M24.3989 39.3069C24.2478 39.458 24.027 39.5162 23.8224 39.458L23.6202 39.3999L23.9131 39.107L22.7136 36.9033C22.5881 36.6732 22.6299 36.3896 22.8136 36.206L23.0693 35.9502C23.2367 35.7829 23.4854 35.7317 23.7039 35.8201L23.8341 35.8712L23.5853 36.1199L24.7848 38.3236C24.9103 38.5538 24.8685 38.8374 24.6849 39.021L24.3989 39.3069Z" fill="#1B1B1B"/>
<path d="M23.402 36.3086L22.5605 37.1501L23.7275 39.2957L24.569 38.4519L23.402 36.3086Z" fill="#6A7690"/>
<path d="M24.3989 39.3069C24.2478 39.458 24.027 39.5162 23.8224 39.458L23.6202 39.3999L23.9131 39.107L22.7136 36.9033C22.5881 36.6732 22.6299 36.3896 22.8136 36.206L23.0693 35.9502C23.2367 35.7829 23.4854 35.7317 23.7039 35.8201L23.8341 35.8712L23.5853 36.1199L24.7848 38.3236C24.9103 38.5538 24.8685 38.8374 24.6849 39.021L24.3989 39.3069Z" fill="white"/>
<path d="M23.588 36.1191L23.8368 35.8703L23.7066 35.8192C23.6369 35.7913 23.5671 35.7773 23.4951 35.7773C23.4276 35.8378 23.588 36.1191 23.588 36.1191Z" fill="white"/>
<path d="M23.913 39.1074L23.6201 39.4003L23.8224 39.4584C23.8781 39.4747 23.9363 39.4817 23.992 39.4817C24.1199 39.498 23.913 39.1097 23.913 39.1097V39.1074Z" fill="white"/>
<path d="M21.5884 42.1194C21.4373 42.2705 21.2165 42.3287 21.0119 42.2705L20.8097 42.2124L21.1026 41.9195L19.9031 39.7158C19.7775 39.4857 19.8194 39.2021 20.003 39.0185L20.2587 38.7627C20.4261 38.5954 20.6748 38.5442 20.8933 38.6326L21.0235 38.6837L20.7748 38.9324L21.9743 41.1361C22.0998 41.3663 22.058 41.6499 21.8743 41.8335L21.5884 42.1194Z" fill="#1B1B1B"/>
<path d="M20.5886 39.1172L19.7471 39.961L20.914 42.1043L21.7555 41.2628L20.5886 39.1172Z" fill="#6A7690"/>
<path d="M21.5884 42.1194C21.4373 42.2705 21.2165 42.3287 21.0119 42.2705L20.8097 42.2124L21.1026 41.9195L19.9031 39.7158C19.7775 39.4857 19.8194 39.2021 20.003 39.0185L20.2587 38.7627C20.4261 38.5954 20.6748 38.5442 20.8933 38.6326L21.0235 38.6837L20.7748 38.9324L21.9743 41.1361C22.0998 41.3663 22.058 41.6499 21.8743 41.8335L21.5884 42.1194Z" fill="white"/>
<path d="M20.7755 38.9335L21.0243 38.6848L20.8941 38.6336C20.8244 38.6057 20.7546 38.5918 20.6826 38.5918C20.6151 38.6522 20.7755 38.9335 20.7755 38.9335Z" fill="white"/>
<path d="M21.1005 41.9199L20.8076 42.2128L21.0099 42.2709C21.0656 42.2872 21.1238 42.2942 21.1796 42.2942C21.3074 42.3105 21.1005 41.9222 21.1005 41.9222V41.9199Z" fill="white"/>
<path d="M25.5032 25.8798C25.6543 26.0309 25.7124 26.2517 25.6543 26.4563L25.5962 26.6585L25.3033 26.3656L23.0996 27.5651C22.8695 27.6906 22.5859 27.6488 22.4022 27.4651L22.1465 27.2094C21.9792 27.0421 21.928 26.7933 22.0164 26.5748L22.0675 26.4446L22.3162 26.6934L24.5199 25.4939C24.7501 25.3684 25.0337 25.4102 25.2173 25.5939L25.5032 25.8798Z" fill="#2B2B2A"/>
<path d="M16.8585 20.2017L15.7148 21.3454C14.4317 22.6285 12.3512 22.6285 11.068 21.3454L9.65234 19.9297V22.9098C9.65234 26.3409 12.4349 29.1234 15.8659 29.1234H18.846L17.4304 27.7077C16.1472 26.4246 16.1472 24.3441 17.4304 23.0609L18.5741 21.9172L17.5234 21.2547L16.8609 20.204L16.8585 20.2017Z" fill="#C5C9D4"/>
<path d="M16.8587 20.2012L15.7151 21.3449C15.5058 21.5541 15.2734 21.7261 15.0293 21.8679L16.9076 23.7462C17.0494 23.5021 17.2191 23.2696 17.4306 23.0604L18.5743 21.9167L17.5236 21.2542L16.8611 20.2035L16.8587 20.2012Z" fill="#A3AABA"/>
<path d="M15.6614 28.5194C12.837 28.1753 10.5984 25.9368 10.2544 23.1124C10.173 22.4453 10.0777 21.7804 9.92664 21.1249L9.65234 19.9277V22.9078C9.65234 26.3389 12.4349 29.1214 15.8659 29.1214H18.846L18.5927 29.0633C17.6233 28.8402 16.647 28.6403 15.6614 28.5194Z" fill="white"/>
<path d="M17.853 19.2062L18.9967 18.0625C20.2799 16.7793 20.2799 14.6988 18.9967 13.4157L17.5811 12H20.5612C23.9922 12 26.7748 14.7825 26.7748 18.2136V21.1937L25.3591 19.778C24.0759 18.4949 21.9954 18.4949 20.7123 19.778L19.5686 20.9217L18.9061 19.871L17.8554 19.2085L17.853 19.2062Z" fill="#C5C9D4"/>
<path d="M19.146 17.9027C19.0995 17.9585 19.0507 18.012 18.9972 18.0631L17.8535 19.2068L18.9042 19.8693L19.5667 20.92L20.7104 19.7763C20.7616 19.7252 20.8173 19.6764 20.8708 19.6276L19.1437 17.9004L19.146 17.9027Z" fill="#A3AABA"/>
<path d="M26.1727 18.009C25.8287 15.1847 23.5901 12.9461 20.7657 12.6021C20.0986 12.5207 19.4337 12.4254 18.7782 12.2743L17.5811 12H20.5612C23.9922 12 26.7748 14.7825 26.7748 18.2136V21.1937L26.7166 20.9403C26.4935 19.971 26.2936 18.9947 26.1727 18.009Z" fill="white"/>
<path d="M17.6373 17.9408L15.2227 20.3555L19.6821 24.8149L22.0967 22.4003L17.6373 17.9408Z" fill="#C5C9D4"/>
<path d="M17.6383 17.9408L15.2236 20.3555L15.6099 20.7417L18.0245 18.3271L17.6383 17.9408Z" fill="#ACB3C2"/>
<path d="M23.0556 23.8277L21.1076 25.7734L19.6826 24.8156L22.0979 22.4004L23.0556 23.8277Z" fill="#A3AABA"/>
<path d="M12.5234 15.2402L18.1024 17.4765L14.7597 20.8192L12.5234 15.2402Z" fill="white"/>
<path d="M12.5234 15.2402L17.4492 18.132L15.4152 20.166L12.5234 15.2402Z" fill="#C5C9D4"/>
<path d="M26.8408 32.8709C27.587 33.373 28.0938 34.2215 28.3471 34.6771L29.3258 33.6984L27.6684 32.041L26.8408 32.8686V32.8709Z" fill="#6A7690"/>
<path d="M41.058 42.1187L22.9123 23.9707L21.2549 25.6281L27.6684 32.0393L29.3235 33.6967L39.4029 43.7738L41.058 42.1187Z" fill="#ACB3C2"/>
<path d="M39.6152 43.5605L40.8135 42.3623L41.1488 42.6976C41.3346 42.8833 41.3346 43.1858 41.1488 43.3715L40.6245 43.8959C40.4387 44.0816 40.1363 44.0816 39.9506 43.8959L39.6152 43.5605Z" fill="#6A7690"/>
<path d="M44.4165 47.1772C43.6703 47.9234 42.4545 47.9234 41.706 47.1772C40.9575 46.431 40.9598 45.2153 41.706 44.4668C42.4522 43.7183 43.668 43.7206 44.4165 44.4668C45.165 45.213 45.1627 46.4287 44.4165 47.1772ZM42.1663 44.927C41.6735 45.4198 41.6735 46.2241 42.1663 46.717C42.6591 47.2098 43.4634 47.2098 43.9562 46.717C44.449 46.2241 44.449 45.4198 43.9562 44.927C43.4634 44.4342 42.6591 44.4342 42.1663 44.927Z" fill="#9CA3B5"/>
<path d="M40.6416 43.8789L41.1216 43.3989L41.9993 44.2767C42.1275 44.4049 42.1275 44.612 41.9993 44.7402L41.9829 44.7567C41.8547 44.8849 41.6476 44.8849 41.5194 44.7567L40.6416 43.8789Z" fill="#838DA3"/>
<path d="M22.5049 26.8779L23.3464 27.7194L25.492 26.5524L24.6481 25.7109L22.5049 26.8779Z" fill="#737F96"/>
<path d="M25.5032 25.8798C25.6543 26.0309 25.7124 26.2517 25.6543 26.4563L25.5962 26.6585L25.3033 26.3656L23.0996 27.5651C22.8695 27.6906 22.5859 27.6488 22.4022 27.4651L22.1465 27.2094C21.9792 27.0421 21.928 26.7933 22.0164 26.5748L22.0675 26.4446L22.3162 26.6934L24.5199 25.4939C24.7501 25.3684 25.0337 25.4102 25.2173 25.5939L25.5032 25.8798Z" fill="white"/>
<path d="M22.3163 26.6921L22.0676 26.4434L22.0165 26.5735C21.9886 26.6433 21.9769 26.713 21.9746 26.7851C22.035 26.8525 22.3163 26.6921 22.3163 26.6921Z" fill="white"/>
<path d="M25.3037 26.3668L25.5966 26.6597L25.6547 26.4575C25.671 26.4017 25.678 26.3436 25.678 26.2878C25.6942 26.1599 25.306 26.3668 25.306 26.3668H25.3037Z" fill="white"/>
<path d="M28.3157 28.6903C28.4668 28.8414 28.5249 29.0623 28.4668 29.2668L28.4087 29.4691L28.1158 29.1762L25.9121 30.3756C25.682 30.5012 25.3984 30.4593 25.2147 30.2757L24.959 30.02C24.7917 29.8526 24.7405 29.6039 24.8289 29.3854L24.88 29.2552L25.1287 29.5039L27.3324 28.3044C27.5626 28.1789 27.8462 28.2208 28.0298 28.4044L28.3157 28.6903Z" fill="#2B2B2A"/>
<path d="M25.3154 29.6904L26.1593 30.5319L28.3025 29.3649L27.461 28.5234L25.3154 29.6904Z" fill="#737F96"/>
<path d="M28.3157 28.6903C28.4668 28.8414 28.5249 29.0623 28.4668 29.2668L28.4087 29.4691L28.1158 29.1762L25.9121 30.3756C25.682 30.5012 25.3984 30.4593 25.2147 30.2757L24.959 30.02C24.7917 29.8526 24.7405 29.6039 24.8289 29.3854L24.88 29.2552L25.1287 29.5039L27.3324 28.3044C27.5626 28.1789 27.8462 28.2208 28.0298 28.4044L28.3157 28.6903Z" fill="white"/>
<path d="M25.1298 29.5046L24.8811 29.2559L24.8299 29.386C24.802 29.4558 24.7904 29.5255 24.7881 29.5976C24.8485 29.665 25.1298 29.5046 25.1298 29.5046Z" fill="white"/>
<path d="M28.1162 29.1793L28.4091 29.4722L28.4672 29.27C28.4835 29.2142 28.4905 29.1561 28.4905 29.1003C28.5067 28.9724 28.1185 29.1793 28.1185 29.1793H28.1162Z" fill="white"/>
<path d="M31.1292 31.5028C31.2803 31.6539 31.3384 31.8748 31.2803 32.0793L31.2222 32.2816L30.9293 31.9887L28.7256 33.1881C28.4955 33.3137 28.2119 33.2718 28.0282 33.0882L27.7725 32.8325C27.6051 32.6651 27.554 32.4164 27.6423 32.1979L27.6935 32.0677L27.9422 32.3164L30.1459 31.1169C30.376 30.9914 30.6596 31.0333 30.8433 31.2169L31.1292 31.5028Z" fill="#2B2B2A"/>
<path d="M28.1279 32.5029L28.9694 33.3444L31.115 32.1774L30.2735 31.3359L28.1279 32.5029Z" fill="#737F96"/>
<path d="M31.1292 31.5028C31.2803 31.6539 31.3384 31.8748 31.2803 32.0793L31.2222 32.2816L30.9293 31.9887L28.7256 33.1881C28.4955 33.3137 28.2119 33.2718 28.0282 33.0882L27.7725 32.8325C27.6051 32.6651 27.554 32.4164 27.6423 32.1979L27.6935 32.0677L27.9422 32.3164L30.1459 31.1169C30.376 30.9914 30.6596 31.0333 30.8433 31.2169L31.1292 31.5028Z" fill="white"/>
<path d="M27.9423 32.3171L27.6936 32.0684L27.6424 32.1985C27.6145 32.2683 27.6029 32.338 27.6006 32.4101C27.661 32.4775 27.9423 32.3171 27.9423 32.3171Z" fill="white"/>
<path d="M30.9287 31.9899L31.2216 32.2828L31.2797 32.0805C31.296 32.0248 31.303 31.9666 31.303 31.9108C31.3192 31.783 30.931 31.9899 30.931 31.9899H30.9287Z" fill="white"/>
<path d="M33.9417 34.3153C34.0928 34.4664 34.1509 34.6873 34.0928 34.8918L34.0347 35.0941L33.7418 34.8012L31.5381 36.0006C31.308 36.1262 31.0244 36.0843 30.8407 35.9007L30.585 35.645C30.4176 35.4776 30.3665 35.2289 30.4548 35.0104L30.506 34.8802L30.7547 35.1289L32.9584 33.9294C33.1885 33.8039 33.4721 33.8458 33.6558 34.0294L33.9417 34.3153Z" fill="#2B2B2A"/>
<path d="M30.9414 35.3157L31.7829 36.1572L33.9285 34.9903L33.087 34.1465L30.9414 35.3157Z" fill="#737F96"/>
<path d="M33.9417 34.3153C34.0928 34.4664 34.1509 34.6873 34.0928 34.8918L34.0347 35.0941L33.7418 34.8012L31.5381 36.0006C31.308 36.1262 31.0244 36.0843 30.8407 35.9007L30.585 35.645C30.4176 35.4776 30.3665 35.2289 30.4548 35.0104L30.506 34.8802L30.7547 35.1289L32.9584 33.9294C33.1885 33.8039 33.4721 33.8458 33.6558 34.0294L33.9417 34.3153Z" fill="white"/>
<path d="M30.7548 35.1276L30.5061 34.8789L30.4549 35.0091C30.427 35.0788 30.4154 35.1486 30.4131 35.2206C30.4735 35.288 30.7548 35.1276 30.7548 35.1276Z" fill="white"/>
<path d="M33.7422 34.8024L34.0351 35.0953L34.0932 34.893C34.1095 34.8373 34.1164 34.7791 34.1164 34.7233C34.1327 34.5955 33.7445 34.8024 33.7445 34.8024H33.7422Z" fill="white"/>
<path d="M36.7542 37.1278C36.9053 37.2789 36.9634 37.4998 36.9053 37.7043L36.8472 37.9066L36.5543 37.6137L34.3506 38.8131C34.1205 38.9387 33.8369 38.8968 33.6532 38.7132L33.3975 38.4575C33.2301 38.2901 33.179 38.0414 33.2673 37.8229L33.3185 37.6927L33.5672 37.9414L35.7709 36.7419C36.001 36.6164 36.2846 36.6583 36.4683 36.8419L36.7542 37.1278Z" fill="#2B2B2A"/>
<path d="M33.7539 38.1259L34.5954 38.9697L36.741 37.8005L35.8995 36.959L33.7539 38.1259Z" fill="#737F96"/>
<path d="M36.7542 37.1278C36.9053 37.2789 36.9634 37.4998 36.9053 37.7043L36.8472 37.9066L36.5543 37.6137L34.3506 38.8131C34.1205 38.9387 33.8369 38.8968 33.6532 38.7132L33.3975 38.4575C33.2301 38.2901 33.179 38.0414 33.2673 37.8229L33.3185 37.6927L33.5672 37.9414L35.7709 36.7419C36.001 36.6164 36.2846 36.6583 36.4683 36.8419L36.7542 37.1278Z" fill="white"/>
<path d="M33.5673 37.9401L33.3186 37.6914L33.2674 37.8216C33.2395 37.8913 33.2279 37.9611 33.2256 38.0331C33.286 38.1005 33.5673 37.9401 33.5673 37.9401Z" fill="white"/>
<path d="M36.5527 37.6149L36.8456 37.9078L36.9037 37.7055C36.92 37.6498 36.927 37.5916 36.927 37.5358C36.9433 37.408 36.5551 37.6149 36.5551 37.6149H36.5527Z" fill="white"/>
<path d="M39.5648 39.9423C39.7158 40.0934 39.774 40.3142 39.7158 40.5188L39.6577 40.721L39.3648 40.4281L37.1611 41.6276C36.931 41.7531 36.6474 41.7113 36.4638 41.5276L36.2081 41.2719C36.0407 41.1046 35.9896 40.8558 36.0779 40.6373L36.129 40.5071L36.3778 40.7559L38.5815 39.5564C38.8116 39.4309 39.0952 39.4727 39.2788 39.6564L39.5648 39.9423Z" fill="#2B2B2A"/>
<path d="M36.5654 40.9384L37.4069 41.7799L39.5525 40.613L38.7087 39.7715L36.5654 40.9384Z" fill="#737F96"/>
<path d="M39.5648 39.9423C39.7158 40.0934 39.774 40.3142 39.7158 40.5188L39.6577 40.721L39.3648 40.4281L37.1611 41.6276C36.931 41.7531 36.6474 41.7113 36.4638 41.5276L36.2081 41.2719C36.0407 41.1046 35.9896 40.8558 36.0779 40.6373L36.129 40.5071L36.3778 40.7559L38.5815 39.5564C38.8116 39.4309 39.0952 39.4727 39.2788 39.6564L39.5648 39.9423Z" fill="white"/>
<path d="M36.3778 40.7526L36.1291 40.5039L36.078 40.6341C36.0501 40.7038 36.0385 40.7736 36.0361 40.8456C36.0966 40.913 36.3778 40.7526 36.3778 40.7526Z" fill="white"/>
<path d="M39.3652 40.4274L39.6581 40.7203L39.7162 40.518C39.7325 40.4623 39.7395 40.4041 39.7395 40.3483C39.7558 40.2205 39.3676 40.4274 39.3676 40.4274H39.3652Z" fill="white"/>
</svg>
