<svg width="402" height="340" viewBox="0 0 402 340" fill="none" xmlns="http://www.w3.org/2000/svg">
<g filter="url(#filter0_d_1601_41940)">
<path fill-rule="evenodd" clip-rule="evenodd" d="M202.299 12.75C201.722 11.75 200.278 11.75 199.701 12.75L190.175 29.25C190.127 29.3319 190.089 29.4155 190.058 29.5H32C20.9543 29.5 12 38.4543 12 49.5V307.675C12 318.72 20.9543 327.675 32 327.675H370C381.046 327.675 390 318.72 390 307.675V49.5C390 38.4543 381.046 29.5 370 29.5H286.995L276.6 29.5001L266.205 29.5H211.942C211.911 29.4155 211.873 29.3319 211.825 29.25L202.299 12.75Z" fill="white"/>
</g>
<text fill="#111111" xml:space="preserve" style="white-space: pre" font-family="Poppins" font-size="14" font-weight="bold" letter-spacing="0em"><tspan x="92" y="122.4">Aggressive</tspan></text>
<text fill="#1F2937" xml:space="preserve" style="white-space: pre" font-family="Pretendard" font-size="14" letter-spacing="0em"><tspan x="302" y="122.612">&#xc0c1;&#xc704; 25%</tspan></text>
<text fill="#6B7280" xml:space="preserve" style="white-space: pre" font-family="Pretendard" font-size="14" letter-spacing="0em"><tspan x="302" y="72.6122">&#xb4f1;&#xae09; &#xad6c;&#xbd84;</tspan></text>
<text fill="#6B7280" xml:space="preserve" style="white-space: pre" font-family="Pretendard" font-size="14" letter-spacing="0em"><tspan x="36" y="72.6122">&#xc704;&#xd5d8; &#xc131;&#xd5a5;</tspan></text>
<text fill="#1F2937" xml:space="preserve" style="white-space: pre" font-family="Pretendard" font-size="14" letter-spacing="0em"><tspan x="302" y="178.612">&#xc0c1;&#xc704; 50%</tspan></text>
<text fill="#1F2937" xml:space="preserve" style="white-space: pre" font-family="Pretendard" font-size="14" letter-spacing="0em"><tspan x="302" y="234.612">&#xd558;&#xc704; 50%</tspan></text>
<text fill="#1F2937" xml:space="preserve" style="white-space: pre" font-family="Pretendard" font-size="14" letter-spacing="0em"><tspan x="302" y="290.612">&#xd558;&#xc704; 25%</tspan></text>
<circle cx="56" cy="117.5" r="20" fill="#A64141"/>
<path d="M59.7673 116.206C59.6665 116.306 59.5193 116.345 59.3829 116.306L59.2481 116.268L59.4434 116.072L58.6437 114.603C58.56 114.45 58.5879 114.261 58.7104 114.138L58.8808 113.968C58.9924 113.856 59.1582 113.822 59.3039 113.881L59.3907 113.915L59.2249 114.081L60.0245 115.55C60.1082 115.703 60.0803 115.893 59.9579 116.015L59.7673 116.206Z" fill="#1B1B1B"/>
<path d="M63.5533 110.442L62.7908 109.679C61.9354 108.824 61.9354 107.437 62.7908 106.581L63.7346 105.638H61.7479C59.4605 105.638 57.6055 107.493 57.6055 109.78V111.767L58.5492 110.823C59.4047 109.968 60.7917 109.968 61.6471 110.823L62.4096 111.586L62.8513 110.885L63.5517 110.443L63.5533 110.442Z" fill="#C5C9D4"/>
<path d="M63.5528 110.442L62.7903 109.68C62.6508 109.54 62.5362 109.385 62.4416 109.223L61.1895 110.475C61.3522 110.569 61.5071 110.682 61.6466 110.824L62.4091 111.586L62.8508 110.886L63.5512 110.444L63.5528 110.442Z" fill="#A3AABA"/>
<path d="M58.0068 109.644C58.2362 107.761 59.7286 106.268 61.6115 106.039C62.0563 105.985 62.4995 105.921 62.9365 105.821L63.7346 105.638H61.7479C59.4605 105.638 57.6055 107.493 57.6055 109.78V111.767L57.6442 111.598C57.793 110.952 57.9263 110.301 58.0068 109.644Z" fill="white"/>
<path d="M64.2137 111.105L64.9761 111.868C65.8316 112.723 67.2186 112.723 68.074 111.868L69.0178 110.924V112.911C69.0178 115.198 67.1628 117.053 64.8754 117.053H62.8887L63.8325 116.109C64.6879 115.254 64.6879 113.867 63.8325 113.011L63.07 112.249L63.7705 111.807L64.2121 111.107L64.2137 111.105Z" fill="#C5C9D4"/>
<path d="M65.0838 111.965C65.0466 111.934 65.011 111.902 64.9769 111.866L64.2144 111.104L63.7727 111.804L63.0723 112.246L63.8347 113.008C63.8688 113.042 63.9014 113.079 63.9339 113.115L65.0853 111.964L65.0838 111.965Z" fill="#A3AABA"/>
<path d="M65.0137 116.651C66.8966 116.421 68.389 114.929 68.6184 113.046C68.6726 112.601 68.7362 112.158 68.8369 111.721L69.0198 110.923V112.91C69.0198 115.197 67.1647 117.052 64.8774 117.052H62.8906L63.058 117.013C63.7042 116.864 64.3551 116.731 65.0122 116.651H65.0137Z" fill="white"/>
<path d="M65.059 110.96L63.4492 109.351L60.4763 112.324L62.086 113.933L65.059 110.96Z" fill="#C5C9D4"/>
<path d="M63.447 109.352L63.1895 109.609L64.7992 111.219L65.0567 110.962L63.447 109.352Z" fill="#ACB3C2"/>
<path d="M61.1346 114.574L59.8359 113.275L60.4744 112.325L62.0846 113.935L61.1346 114.574Z" fill="#A3AABA"/>
<path d="M66.858 107.552L65.3672 111.271L63.1387 109.043L66.858 107.552Z" fill="white"/>
<path d="M66.8581 107.552L64.9318 110.834L63.5742 109.478L66.8581 107.552Z" fill="#C5C9D4"/>
<path d="M61.0382 114.477L59.9336 113.372L47.8358 125.47L48.9404 126.574L61.0382 114.477Z" fill="#9CA3B5"/>
<path d="M47.9805 125.613L48.7793 126.412L48.5558 126.636C48.4319 126.76 48.2303 126.76 48.1065 126.636L47.7569 126.286C47.6331 126.162 47.6331 125.961 47.7569 125.837L47.9805 125.613Z" fill="#5A6684"/>
<path d="M45.5665 128.814C45.069 128.317 45.069 127.506 45.5665 127.007C46.0639 126.508 46.8744 126.51 47.3734 127.007C47.8724 127.505 47.8709 128.315 47.3734 128.814C46.876 129.313 46.0655 129.312 45.5665 128.814ZM47.0666 127.314C46.738 126.986 46.2018 126.986 45.8733 127.314C45.5448 127.643 45.5448 128.179 45.8733 128.508C46.2018 128.836 46.738 128.836 47.0666 128.508C47.3951 128.179 47.3951 127.643 47.0666 127.314Z" fill="#BDC2CE"/>
<path d="M47.7637 126.297L48.0837 126.617L47.4985 127.202C47.413 127.287 47.2749 127.287 47.1895 127.202L47.1785 127.191C47.093 127.106 47.093 126.968 47.1785 126.882L47.7637 126.297Z" fill="#9CA3B5"/>
<path d="M59.1001 114.205L58.5391 114.768L59.317 116.196L59.878 115.635L59.1001 114.205Z" fill="#6A7690"/>
<path d="M59.7673 116.206C59.6665 116.306 59.5193 116.345 59.3829 116.306L59.2481 116.268L59.4434 116.072L58.6437 114.603C58.56 114.45 58.5879 114.261 58.7104 114.138L58.8808 113.968C58.9924 113.856 59.1582 113.822 59.3039 113.881L59.3907 113.915L59.2249 114.081L60.0245 115.55C60.1082 115.703 60.0803 115.893 59.9579 116.015L59.7673 116.206Z" fill="white"/>
<path d="M59.2254 114.081L59.3912 113.916L59.3044 113.881C59.2579 113.863 59.2114 113.855 59.1634 113.854C59.1184 113.894 59.2254 114.081 59.2254 114.081Z" fill="white"/>
<path d="M59.4414 116.072L59.2461 116.268L59.3809 116.306C59.4181 116.317 59.4569 116.322 59.494 116.322C59.5793 116.333 59.4414 116.074 59.4414 116.074V116.072Z" fill="white"/>
<path d="M57.8923 118.081C57.7915 118.181 57.6443 118.22 57.5079 118.181L57.3731 118.143L57.5684 117.947L56.7687 116.478C56.685 116.325 56.7129 116.136 56.8354 116.013L57.0058 115.843C57.1174 115.731 57.2832 115.697 57.4289 115.756L57.5157 115.79L57.3499 115.956L58.1495 117.425C58.2332 117.578 58.2053 117.768 58.0829 117.89L57.8923 118.081Z" fill="#1B1B1B"/>
<path d="M57.2251 116.08L56.6641 116.641L57.442 118.071L58.003 117.51L57.2251 116.08Z" fill="#6A7690"/>
<path d="M57.8923 118.081C57.7915 118.181 57.6443 118.22 57.5079 118.181L57.3731 118.143L57.5684 117.947L56.7687 116.478C56.685 116.325 56.7129 116.136 56.8354 116.013L57.0058 115.843C57.1174 115.731 57.2832 115.697 57.4289 115.756L57.5157 115.79L57.3499 115.956L58.1495 117.425C58.2332 117.578 58.2053 117.768 58.0829 117.89L57.8923 118.081Z" fill="white"/>
<path d="M57.3484 115.956L57.5142 115.791L57.4274 115.756C57.381 115.738 57.3345 115.729 57.2864 115.729C57.2415 115.769 57.3484 115.956 57.3484 115.956Z" fill="white"/>
<path d="M57.5664 117.947L57.3711 118.143L57.5059 118.181C57.5431 118.192 57.5819 118.197 57.619 118.197C57.7043 118.208 57.5664 117.949 57.5664 117.949V117.947Z" fill="#5A6684"/>
<path d="M56.0153 119.956C55.9146 120.056 55.7674 120.095 55.631 120.056L55.4962 120.018L55.6914 119.822L54.8918 118.353C54.8081 118.2 54.836 118.011 54.9584 117.888L55.1289 117.718C55.2404 117.606 55.4063 117.572 55.5519 117.631L55.6387 117.665L55.4729 117.831L56.2726 119.3C56.3562 119.453 56.3284 119.643 56.2059 119.765L56.0153 119.956Z" fill="#1B1B1B"/>
<path d="M55.3501 117.955L54.7891 118.516L55.567 119.946L56.1296 119.385L55.3501 117.955Z" fill="#363636"/>
<path d="M56.0153 119.956C55.9146 120.056 55.7674 120.095 55.631 120.056L55.4962 120.018L55.6914 119.822L54.8918 118.353C54.8081 118.2 54.836 118.011 54.9584 117.888L55.1289 117.718C55.2404 117.606 55.4063 117.572 55.5519 117.631L55.6387 117.665L55.4729 117.831L56.2726 119.3C56.3562 119.453 56.3284 119.643 56.2059 119.765L56.0153 119.956Z" fill="#1B1B1B"/>
<path d="M55.4754 117.831L55.6412 117.666L55.5544 117.631C55.5079 117.613 55.4614 117.604 55.4134 117.604C55.3684 117.644 55.4754 117.831 55.4754 117.831Z" fill="white"/>
<path d="M55.6914 119.822L55.4961 120.018L55.6309 120.056C55.6681 120.067 55.7069 120.072 55.744 120.072C55.8293 120.083 55.6914 119.824 55.6914 119.824V119.822Z" fill="white"/>
<path d="M54.1403 121.83C54.0396 121.93 53.8924 121.969 53.756 121.93L53.6212 121.892L53.8164 121.696L53.0168 120.227C52.9331 120.074 52.961 119.885 53.0834 119.762L53.2539 119.592C53.3654 119.48 53.5313 119.446 53.6769 119.505L53.7637 119.539L53.5979 119.705L54.3976 121.174C54.4812 121.328 54.4534 121.517 54.3309 121.639L54.1403 121.83Z" fill="#1B1B1B"/>
<path d="M53.4766 119.83L52.9141 120.391L53.6936 121.821L54.2546 121.26L53.4766 119.83Z" fill="#6A7690"/>
<path d="M54.1403 121.83C54.0396 121.93 53.8924 121.969 53.756 121.93L53.6212 121.892L53.8164 121.696L53.0168 120.227C52.9331 120.074 52.961 119.885 53.0834 119.762L53.2539 119.592C53.3654 119.48 53.5313 119.446 53.6769 119.505L53.7637 119.539L53.5979 119.705L54.3976 121.174C54.4812 121.328 54.4534 121.517 54.3309 121.639L54.1403 121.83Z" fill="white"/>
<path d="M53.6004 119.704L53.7662 119.539L53.6794 119.504C53.6329 119.486 53.5864 119.478 53.5384 119.477C53.4934 119.517 53.6004 119.704 53.6004 119.704Z" fill="white"/>
<path d="M53.8164 121.696L53.6211 121.892L53.7559 121.93C53.7931 121.941 53.8319 121.946 53.869 121.946C53.9543 121.957 53.8164 121.698 53.8164 121.698V121.696Z" fill="white"/>
<path d="M52.2653 123.705C52.1646 123.805 52.0174 123.844 51.881 123.805L51.7462 123.767L51.9414 123.571L51.1418 122.102C51.0581 121.949 51.086 121.76 51.2084 121.637L51.3789 121.467C51.4905 121.355 51.6563 121.321 51.8019 121.38L51.8887 121.414L51.7229 121.58L52.5226 123.049C52.6062 123.203 52.5784 123.392 52.4559 123.514L52.2653 123.705Z" fill="#1B1B1B"/>
<path d="M51.6001 121.705L51.0391 122.266L51.817 123.696L52.378 123.134L51.6001 121.705Z" fill="#6A7690"/>
<path d="M52.2653 123.705C52.1646 123.805 52.0174 123.844 51.881 123.805L51.7462 123.767L51.9414 123.571L51.1418 122.102C51.0581 121.949 51.086 121.76 51.2084 121.637L51.3789 121.467C51.4905 121.355 51.6563 121.321 51.8019 121.38L51.8887 121.414L51.7229 121.58L52.5226 123.049C52.6062 123.203 52.5784 123.392 52.4559 123.514L52.2653 123.705Z" fill="white"/>
<path d="M51.7254 121.58L51.8912 121.415L51.8044 121.38C51.7579 121.362 51.7114 121.353 51.6634 121.353C51.6184 121.393 51.7254 121.58 51.7254 121.58Z" fill="white"/>
<path d="M51.9414 123.571L51.7461 123.767L51.8809 123.805C51.9181 123.816 51.9569 123.821 51.994 123.821C52.0793 123.832 51.9414 123.573 51.9414 123.573V123.571Z" fill="white"/>
<path d="M50.3923 125.58C50.2915 125.68 50.1443 125.719 50.0079 125.68L49.8731 125.642L50.0684 125.446L49.2687 123.977C49.185 123.824 49.2129 123.635 49.3354 123.512L49.5058 123.342C49.6174 123.23 49.7832 123.196 49.9289 123.255L50.0157 123.289L49.8499 123.455L50.6495 124.924C50.7332 125.078 50.7053 125.267 50.5829 125.389L50.3923 125.58Z" fill="#1B1B1B"/>
<path d="M49.7251 123.579L49.1641 124.142L49.942 125.57L50.503 125.009L49.7251 123.579Z" fill="#6A7690"/>
<path d="M50.3923 125.58C50.2915 125.68 50.1443 125.719 50.0079 125.68L49.8731 125.642L50.0684 125.446L49.2687 123.977C49.185 123.824 49.2129 123.635 49.3354 123.512L49.5058 123.342C49.6174 123.23 49.7832 123.196 49.9289 123.255L50.0157 123.289L49.8499 123.455L50.6495 124.924C50.7332 125.078 50.7053 125.267 50.5829 125.389L50.3923 125.58Z" fill="white"/>
<path d="M49.8504 123.455L50.0162 123.29L49.9294 123.255C49.8829 123.237 49.8364 123.228 49.7884 123.228C49.7434 123.268 49.8504 123.455 49.8504 123.455Z" fill="white"/>
<path d="M50.0664 125.446L49.8711 125.642L50.0059 125.68C50.0431 125.691 50.0819 125.696 50.119 125.696C50.2043 125.707 50.0664 125.448 50.0664 125.448V125.446Z" fill="white"/>
<path d="M53.0035 114.754C53.1042 114.854 53.1429 115.001 53.1042 115.138L53.0654 115.273L52.8702 115.077L51.401 115.877C51.2476 115.961 51.0586 115.933 50.9361 115.81L50.7657 115.64C50.6541 115.528 50.62 115.363 50.6789 115.217L50.713 115.13L50.8788 115.296L52.3479 114.496C52.5013 114.413 52.6904 114.44 52.8128 114.563L53.0035 114.754Z" fill="#2B2B2A"/>
<path d="M47.2397 110.967L46.4772 111.73C45.6218 112.585 44.2348 112.585 43.3793 111.73L42.4355 110.786V112.773C42.4355 115.06 44.2906 116.915 46.5779 116.915H48.5647L47.6209 115.971C46.7655 115.116 46.7655 113.729 47.6209 112.874L48.3834 112.111L47.6829 111.669L47.2412 110.969L47.2397 110.967Z" fill="#C5C9D4"/>
<path d="M47.2392 110.968L46.4767 111.73C46.3372 111.87 46.1823 111.984 46.0195 112.079L47.2717 113.331C47.3662 113.168 47.4794 113.013 47.6204 112.874L48.3829 112.111L47.6824 111.67L47.2407 110.969L47.2392 110.968Z" fill="#A3AABA"/>
<path d="M46.4416 116.512C44.5587 116.283 43.0663 114.79 42.8369 112.907C42.7827 112.463 42.7191 112.019 42.6184 111.582L42.4355 110.784V112.771C42.4355 115.058 44.2906 116.913 46.5779 116.913H48.5647L48.3958 116.875C47.7495 116.726 47.0986 116.593 46.4416 116.512Z" fill="white"/>
<path d="M47.902 110.304L48.6645 109.542C49.5199 108.686 49.5199 107.299 48.6645 106.444L47.7207 105.5H49.7074C51.9948 105.5 53.8498 107.355 53.8498 109.642V111.629L52.9061 110.685C52.0506 109.83 50.6636 109.83 49.8082 110.685L49.0457 111.448L48.604 110.747L47.9036 110.306L47.902 110.304Z" fill="#C5C9D4"/>
<path d="M48.764 109.435C48.733 109.472 48.7004 109.508 48.6648 109.542L47.9023 110.305L48.6028 110.746L49.0445 111.447L49.8069 110.684C49.841 110.65 49.8782 110.618 49.9139 110.585L48.7624 109.434L48.764 109.435Z" fill="#A3AABA"/>
<path d="M53.4485 109.506C53.2191 107.623 51.7267 106.131 49.8438 105.901C49.3991 105.847 48.9558 105.784 48.5188 105.683L47.7207 105.5H49.7074C51.9948 105.5 53.8498 107.355 53.8498 109.642V111.629L53.8111 111.46C53.6623 110.814 53.529 110.163 53.4485 109.506Z" fill="white"/>
<path d="M47.7582 109.461L46.1484 111.07L49.1214 114.043L50.7311 112.434L47.7582 109.461Z" fill="#C5C9D4"/>
<path d="M47.7582 109.461L46.1484 111.07L46.406 111.328L48.0157 109.718L47.7582 109.461Z" fill="#ACB3C2"/>
<path d="M51.3717 113.385L50.073 114.682L49.123 114.044L50.7332 112.434L51.3717 113.385Z" fill="#A3AABA"/>
<path d="M44.3496 107.66L48.0689 109.151L45.8404 111.379L44.3496 107.66Z" fill="white"/>
<path d="M44.3496 107.66L47.6335 109.588L46.2775 110.944L44.3496 107.66Z" fill="#C5C9D4"/>
<path d="M53.8945 119.414C54.392 119.748 54.7298 120.314 54.8988 120.618L55.5512 119.965L54.4462 118.86L53.8945 119.412V119.414Z" fill="#6A7690"/>
<path d="M63.372 125.58L51.2749 113.481L50.1699 114.586L54.4456 118.861L55.549 119.965L62.2686 126.684L63.372 125.58Z" fill="#ACB3C2"/>
<path d="M62.4102 126.541L63.209 125.742L63.4326 125.966C63.5564 126.09 63.5564 126.291 63.4326 126.415L63.083 126.765C62.9592 126.888 62.7575 126.888 62.6337 126.765L62.4102 126.541Z" fill="#6A7690"/>
<path d="M65.6103 128.952C65.1129 129.45 64.3024 129.45 63.8034 128.952C63.3044 128.455 63.3059 127.644 63.8034 127.145C64.3008 126.646 65.1113 126.648 65.6103 127.145C66.1093 127.643 66.1078 128.453 65.6103 128.952ZM64.1102 127.452C63.7817 127.781 63.7817 128.317 64.1102 128.645C64.4388 128.974 64.975 128.974 65.3035 128.645C65.632 128.317 65.632 127.781 65.3035 127.452C64.975 127.123 64.4388 127.123 64.1102 127.452Z" fill="#9CA3B5"/>
<path d="M63.0938 126.753L63.4137 126.433L63.9989 127.018C64.0844 127.104 64.0844 127.242 63.9989 127.327L63.9879 127.338C63.9025 127.424 63.7644 127.424 63.6789 127.338L63.0938 126.753Z" fill="#838DA3"/>
<path d="M51.0039 115.419L51.5649 115.98L52.9953 115.202L52.4327 114.641L51.0039 115.419Z" fill="#737F96"/>
<path d="M53.0035 114.754C53.1042 114.854 53.1429 115.001 53.1042 115.138L53.0654 115.273L52.8702 115.077L51.401 115.877C51.2476 115.961 51.0586 115.933 50.9361 115.81L50.7657 115.64C50.6541 115.528 50.62 115.363 50.6789 115.217L50.713 115.13L50.8788 115.296L52.3479 114.496C52.5013 114.413 52.6904 114.44 52.8128 114.563L53.0035 114.754Z" fill="white"/>
<path d="M50.8782 115.294L50.7124 115.128L50.6783 115.215C50.6597 115.261 50.6519 115.308 50.6504 115.356C50.6907 115.401 50.8782 115.294 50.8782 115.294Z" fill="white"/>
<path d="M52.8691 115.078L53.0644 115.273L53.1031 115.138C53.114 115.101 53.1186 115.062 53.1186 115.025C53.1295 114.94 52.8707 115.078 52.8707 115.078H52.8691Z" fill="white"/>
<path d="M54.8785 116.627C54.9792 116.727 55.0179 116.875 54.9792 117.011L54.9404 117.146L54.7452 116.95L53.276 117.75C53.1226 117.834 52.9336 117.806 52.8111 117.683L52.6407 117.513C52.5291 117.401 52.495 117.236 52.5539 117.09L52.588 117.003L52.7538 117.169L54.2229 116.369C54.3763 116.286 54.5654 116.314 54.6878 116.436L54.8785 116.627Z" fill="#2B2B2A"/>
<path d="M52.877 117.294L53.4395 117.855L54.8683 117.077L54.3073 116.516L52.877 117.294Z" fill="#737F96"/>
<path d="M54.8785 116.627C54.9792 116.727 55.0179 116.875 54.9792 117.011L54.9404 117.146L54.7452 116.95L53.276 117.75C53.1226 117.834 52.9336 117.806 52.8111 117.683L52.6407 117.513C52.5291 117.401 52.495 117.236 52.5539 117.09L52.588 117.003L52.7538 117.169L54.2229 116.369C54.3763 116.286 54.5654 116.314 54.6878 116.436L54.8785 116.627Z" fill="white"/>
<path d="M52.7532 117.17L52.5874 117.004L52.5533 117.091C52.5347 117.137 52.5269 117.184 52.5254 117.232C52.5657 117.277 52.7532 117.17 52.7532 117.17Z" fill="white"/>
<path d="M54.7441 116.953L54.9394 117.148L54.9781 117.013C54.989 116.976 54.9936 116.937 54.9936 116.9C55.0045 116.815 54.7457 116.953 54.7457 116.953H54.7441Z" fill="white"/>
<path d="M56.7535 118.503C56.8542 118.603 56.8929 118.75 56.8542 118.887L56.8154 119.022L56.6202 118.826L55.151 119.626C54.9976 119.71 54.8086 119.682 54.6861 119.559L54.5157 119.389C54.4041 119.277 54.37 119.112 54.4289 118.966L54.463 118.879L54.6288 119.045L56.0979 118.245C56.2513 118.162 56.4404 118.189 56.5628 118.312L56.7535 118.503Z" fill="#2B2B2A"/>
<path d="M54.752 119.169L55.313 119.73L56.7433 118.952L56.1823 118.391L54.752 119.169Z" fill="#737F96"/>
<path d="M56.7535 118.503C56.8542 118.603 56.8929 118.75 56.8542 118.887L56.8154 119.022L56.6202 118.826L55.151 119.626C54.9976 119.71 54.8086 119.682 54.6861 119.559L54.5157 119.389C54.4041 119.277 54.37 119.112 54.4289 118.966L54.463 118.879L54.6288 119.045L56.0979 118.245C56.2513 118.162 56.4404 118.189 56.5628 118.312L56.7535 118.503Z" fill="white"/>
<path d="M54.6282 119.045L54.4624 118.879L54.4283 118.966C54.4097 119.012 54.4019 119.059 54.4004 119.107C54.4407 119.152 54.6282 119.045 54.6282 119.045Z" fill="white"/>
<path d="M56.6191 118.826L56.8144 119.021L56.8531 118.886C56.864 118.849 56.8686 118.81 56.8686 118.773C56.8795 118.688 56.6207 118.826 56.6207 118.826H56.6191Z" fill="white"/>
<path d="M58.6285 120.378C58.7292 120.478 58.7679 120.625 58.7292 120.762L58.6904 120.897L58.4952 120.701L57.026 121.501C56.8726 121.585 56.6836 121.557 56.5611 121.434L56.3907 121.264C56.2791 121.152 56.245 120.987 56.3039 120.841L56.338 120.754L56.5038 120.92L57.9729 120.12C58.1263 120.037 58.3154 120.064 58.4378 120.187L58.6285 120.378Z" fill="#2B2B2A"/>
<path d="M56.6289 121.044L57.1899 121.605L58.6203 120.827L58.0593 120.265L56.6289 121.044Z" fill="#737F96"/>
<path d="M58.6285 120.378C58.7292 120.478 58.7679 120.625 58.7292 120.762L58.6904 120.897L58.4952 120.701L57.026 121.501C56.8726 121.585 56.6836 121.557 56.5611 121.434L56.3907 121.264C56.2791 121.152 56.245 120.987 56.3039 120.841L56.338 120.754L56.5038 120.92L57.9729 120.12C58.1263 120.037 58.3154 120.064 58.4378 120.187L58.6285 120.378Z" fill="white"/>
<path d="M56.5032 120.918L56.3374 120.752L56.3033 120.839C56.2847 120.885 56.2769 120.932 56.2754 120.98C56.3157 121.025 56.5032 120.918 56.5032 120.918Z" fill="white"/>
<path d="M58.4941 120.702L58.6894 120.897L58.7281 120.762C58.739 120.725 58.7436 120.686 58.7436 120.649C58.7545 120.564 58.4957 120.702 58.4957 120.702H58.4941Z" fill="white"/>
<path d="M60.5035 122.253C60.6042 122.353 60.6429 122.5 60.6042 122.637L60.5654 122.772L60.3702 122.576L58.901 123.376C58.7476 123.46 58.5586 123.432 58.4361 123.309L58.2657 123.139C58.1541 123.027 58.12 122.862 58.1789 122.716L58.213 122.629L58.3788 122.795L59.8479 121.995C60.0013 121.912 60.1904 121.939 60.3128 122.062L60.5035 122.253Z" fill="#2B2B2A"/>
<path d="M58.5039 122.918L59.0649 123.48L60.4953 122.701L59.9343 122.14L58.5039 122.918Z" fill="#737F96"/>
<path d="M60.5035 122.253C60.6042 122.353 60.6429 122.5 60.6042 122.637L60.5654 122.772L60.3702 122.576L58.901 123.376C58.7476 123.46 58.5586 123.432 58.4361 123.309L58.2657 123.139C58.1541 123.027 58.12 122.862 58.1789 122.716L58.213 122.629L58.3788 122.795L59.8479 121.995C60.0013 121.912 60.1904 121.939 60.3128 122.062L60.5035 122.253Z" fill="white"/>
<path d="M58.3782 122.794L58.2124 122.628L58.1783 122.715C58.1597 122.761 58.1519 122.808 58.1504 122.856C58.1907 122.901 58.3782 122.794 58.3782 122.794Z" fill="white"/>
<path d="M60.3691 122.577L60.5644 122.772L60.6031 122.637C60.614 122.6 60.6186 122.561 60.6186 122.524C60.6295 122.439 60.3707 122.577 60.3707 122.577H60.3691Z" fill="white"/>
<path d="M62.3765 124.128C62.4772 124.228 62.516 124.375 62.4772 124.512L62.4385 124.647L62.2432 124.451L60.7741 125.251C60.6207 125.335 60.4316 125.307 60.3092 125.184L60.1387 125.014C60.0271 124.902 59.993 124.737 60.0519 124.591L60.086 124.504L60.2518 124.67L61.721 123.87C61.8744 123.787 62.0635 123.814 62.1859 123.937L62.3765 124.128Z" fill="#2B2B2A"/>
<path d="M60.3789 124.793L60.9399 125.354L62.3703 124.576L61.8077 124.015L60.3789 124.793Z" fill="#737F96"/>
<path d="M62.3765 124.128C62.4772 124.228 62.516 124.375 62.4772 124.512L62.4385 124.647L62.2432 124.451L60.7741 125.251C60.6207 125.335 60.4316 125.307 60.3092 125.184L60.1387 125.014C60.0271 124.902 59.993 124.737 60.0519 124.591L60.086 124.504L60.2518 124.67L61.721 123.87C61.8744 123.787 62.0635 123.814 62.1859 123.937L62.3765 124.128Z" fill="white"/>
<path d="M60.2532 124.669L60.0874 124.503L60.0533 124.59C60.0347 124.636 60.0269 124.683 60.0254 124.731C60.0657 124.776 60.2532 124.669 60.2532 124.669Z" fill="white"/>
<path d="M62.2441 124.452L62.4394 124.647L62.4781 124.512C62.489 124.475 62.4936 124.436 62.4936 124.399C62.5045 124.314 62.2457 124.452 62.2457 124.452H62.2441Z" fill="white"/>
<circle cx="56" cy="230" r="20" fill="#3585B1"/>
<g clip-path="url(#clip0_1601_41940)">
<path d="M65.2422 221.819C63.0889 221.259 60.9915 220.503 58.9764 219.556L57.0996 218.677V244.179L62.3932 239.663C64.8333 237.581 66.3718 234.621 66.6807 231.412L67.5471 222.418L65.2422 221.819Z" fill="#EAF0FF"/>
<path d="M55.221 219.558C53.2045 220.503 51.1071 221.261 48.9552 221.82L46.6504 222.42L47.5167 231.414C47.8256 234.623 49.3641 237.584 51.8042 239.665L57.0978 244.181V218.677L55.221 219.556V219.558Z" fill="#9CA3B5"/>
<path d="M57.0973 219.213C57.3085 219.213 57.4797 219.04 57.4797 218.827C57.4797 218.614 57.3085 218.441 57.0973 218.441C56.8861 218.441 56.7148 218.614 56.7148 218.827C56.7148 219.04 56.8861 219.213 57.0973 219.213Z" fill="white"/>
<path d="M57.1149 226.665L57.0972 226.683V243.332H56.1309L57.0972 244.179L64.0146 238.129L65.1692 234.787L57.1149 226.665Z" fill="#9CA3B5"/>
<path d="M57.098 226.684L49.2363 234.613L50.641 238.528L56.1317 243.333H57.098V226.684Z" fill="#4A556C"/>
<path d="M57.0973 219.813L58.2769 220.367C60.5832 221.448 63.0013 222.32 65.465 222.961L66.271 223.17L65.4959 231.209C65.209 234.187 63.8044 236.891 61.5393 238.822L57.0973 242.613L52.6553 238.822C50.3902 236.891 48.9856 234.187 48.6988 231.209L47.9236 223.17L48.7296 222.961C51.1933 222.322 53.6114 221.448 55.9177 220.367L57.0973 219.813ZM57.0973 217.733C56.8046 217.733 56.5119 217.797 56.2398 217.925L55.0499 218.483C52.851 219.514 50.5638 220.338 48.2163 220.95L47.1455 221.228C46.316 221.444 45.7644 222.237 45.8482 223.098L46.6499 231.411C46.9867 234.911 48.6649 238.139 51.3257 240.41L57.0988 245.335L62.8719 240.41C65.5326 238.139 67.2109 234.911 67.5477 231.411L68.3493 223.098C68.4317 222.237 67.8816 221.444 67.0505 221.228L65.9798 220.95C63.6323 220.34 61.3451 219.514 59.1462 218.483L57.9563 217.925C57.6842 217.797 57.3915 217.733 57.0988 217.733H57.0973Z" fill="#4A556C"/>
</g>
<path d="M50.4667 244.161C50.4667 243.513 49.9416 242.988 49.2939 242.988C48.6462 242.988 48.1211 243.513 48.1211 244.161C48.1211 244.809 48.6462 245.334 49.2939 245.334C49.9416 245.334 50.4667 244.809 50.4667 244.161Z" fill="#9CA3B5"/>
<path d="M50.4667 244.161C50.4667 243.959 50.4157 243.77 50.3261 243.604C50.3261 243.604 50.1151 243.414 49.2939 243.414C48.4727 243.414 48.2617 243.604 48.2617 243.604C48.1721 243.77 48.1211 243.959 48.1211 244.161C48.1211 244.809 48.6462 245.334 49.2939 245.334C49.9416 245.334 50.4667 244.809 50.4667 244.161Z" fill="white"/>
<path d="M48.4235 243.12L48.1309 238.298L50.4538 238.298L50.1612 243.12L48.4235 243.12Z" fill="#4A556C"/>
<path d="M50.4691 240.947L50.4963 240.499C50.5042 240.363 50.3965 240.248 50.2593 240.248L48.3254 240.248C48.1881 240.248 48.0804 240.363 48.0883 240.499L48.1155 240.947C48.1235 241.072 48.2267 241.171 48.3526 241.171L50.232 241.171C50.3579 241.171 50.4611 241.073 50.4691 240.947Z" fill="#A8B2C7"/>
<path d="M48.0219 239.4L48.0491 239.848C48.0571 239.973 48.1603 240.071 48.2862 240.071L50.2995 240.071C50.4254 240.071 50.5286 239.974 50.5365 239.848L50.5637 239.4C50.5717 239.264 50.4639 239.148 50.3267 239.148L48.259 239.148C48.1217 239.148 48.014 239.264 48.0219 239.4Z" fill="#A8B2C7"/>
<path d="M50.6033 238.749L50.626 238.374C50.634 238.238 50.5262 238.122 50.389 238.122L48.1965 238.122C48.0592 238.122 47.9515 238.238 47.9594 238.374L47.9821 238.749C47.99 238.874 48.0932 238.973 48.2191 238.973L50.3663 238.973C50.4922 238.973 50.5954 238.875 50.6033 238.749Z" fill="#A8B2C7"/>
<path d="M50.4028 242.047L50.43 241.599C50.4379 241.463 50.3302 241.347 50.193 241.347L48.3918 241.347C48.2545 241.347 48.1468 241.463 48.1547 241.599L48.1819 242.047C48.1899 242.172 48.2931 242.271 48.419 242.271L50.1646 242.271C50.2905 242.271 50.3937 242.173 50.4017 242.047L50.4028 242.047Z" fill="#A8B2C7"/>
<path d="M50.1275 242.446L48.4601 242.446C48.3229 242.446 48.2151 242.562 48.2231 242.698L48.2458 243.073C48.2537 243.198 48.3569 243.297 48.4828 243.297L50.1048 243.297C50.2307 243.297 50.3339 243.199 50.3418 243.073L50.3645 242.698C50.3725 242.562 50.2647 242.446 50.1275 242.446Z" fill="#A8B2C7"/>
<path d="M50.2231 238.152C50.3116 238.113 50.4 238.071 50.4885 238.026C50.5327 238.003 50.577 237.98 50.6201 237.957C51.1895 237.647 52.605 236.632 52.9884 236.576C52.9192 236.727 52.892 236.902 52.9271 237.086C52.9963 237.444 53.2992 237.721 53.6621 237.757C54.1635 237.807 54.5854 237.416 54.5854 236.924C54.5854 236.723 54.5139 236.537 54.3937 236.393L54.3937 236.39C54.3767 236.371 54.3597 236.352 54.3415 236.335C53.4092 235.406 51.5059 236.892 50.0858 237.447C49.5743 237.648 49.0094 237.648 48.499 237.447C47.079 236.89 45.1757 235.405 44.2433 236.335C44.2252 236.353 44.2082 236.371 44.1912 236.39L44.1912 236.393C44.0539 236.559 43.9791 236.779 44.0051 237.016C44.046 237.402 44.3568 237.714 44.7413 237.756C45.246 237.811 45.6725 237.418 45.6725 236.924C45.6725 236.8 45.6441 236.682 45.5954 236.575C46.2283 236.728 47.3954 237.646 47.9637 237.956C48.0079 237.979 48.051 238.002 48.0952 238.025C48.1837 238.07 48.2722 238.112 48.3607 238.151C48.6714 238.284 48.9845 238.374 49.2907 238.381C49.597 238.373 49.91 238.284 50.2208 238.151L50.2231 238.152Z" fill="white"/>
<path d="M44.5078 236.635C44.8481 236.505 45.3574 236.595 45.6738 236.926C45.6738 236.801 45.6455 236.683 45.5967 236.576C44.9037 236.386 44.5078 236.634 44.5078 236.634L44.5078 236.635Z" fill="#9CA3B5"/>
<path d="M52.9267 237.08C53.0311 236.9 53.715 236.515 53.9941 236.608C53.9407 236.489 53.6175 236.423 52.9891 236.578C52.9199 236.727 52.8927 236.899 52.9267 237.08Z" fill="#9CA3B5"/>
<path d="M44.1922 236.39C44.2092 236.371 44.2262 236.352 44.2444 236.335C45.1869 235.396 47.1208 236.924 48.5454 237.466C49.0264 237.649 49.5594 237.649 50.0415 237.466C51.4661 236.924 53.4 235.396 54.3426 236.335C54.3607 236.353 54.3777 236.371 54.3947 236.39L54.3947 236.393C54.5138 236.538 54.5864 236.723 54.5864 236.925C54.5864 236.723 54.5864 236.124 54.0726 235.87C52.8544 235.261 50.5939 236.989 49.2952 237.022C47.9965 236.989 45.7359 235.26 44.5177 235.87C44.0039 236.124 44.0039 236.723 44.0039 236.925C44.0039 236.723 44.0754 236.537 44.1956 236.393L44.1956 236.39L44.1922 236.39Z" fill="#9CA3B5"/>
<path d="M50.4154 237.038L50.3031 217.785L49.2936 214.667L48.2842 217.785L48.1719 237.038C48.8865 237.356 49.7008 237.356 50.4154 237.038Z" fill="white"/>
<path d="M49.2734 237.275C49.6625 237.278 50.0515 237.199 50.4145 237.038L50.3022 217.786L49.2927 214.668L49.2734 237.275Z" fill="#CED2DA"/>
<path d="M49.2662 219.758C49.1199 219.758 49.002 219.876 49.002 220.022L49.002 237.261C49.1778 237.279 49.3547 237.28 49.5305 237.265L49.5305 220.022C49.5305 219.876 49.4126 219.758 49.2662 219.758Z" fill="#8C95A9"/>
<text fill="#111111" xml:space="preserve" style="white-space: pre" font-family="Poppins" font-size="14" font-weight="bold" letter-spacing="0em"><tspan x="92" y="178.4">Moderate</tspan></text>
<text fill="#111111" xml:space="preserve" style="white-space: pre" font-family="Poppins" font-size="14" font-weight="bold" letter-spacing="0em"><tspan x="92" y="234.4">Moderately Conservative</tspan></text>
<circle cx="56" cy="174" r="20" fill="#7640AD"/>
<path d="M45.8703 185.639C46.3681 185.141 46.3681 184.334 45.8703 183.836C45.3724 183.338 44.5653 183.338 44.0674 183.836C43.5696 184.334 43.5696 185.141 44.0674 185.639C44.5653 186.137 45.3724 186.137 45.8703 185.639Z" fill="#8C95A9"/>
<path d="M45.8703 185.639C46.0254 185.484 46.1318 185.299 46.1902 185.103C46.1902 185.103 46.1745 184.794 45.5434 184.163C44.9122 183.532 44.6036 183.516 44.6036 183.516C44.4074 183.574 44.2226 183.681 44.0674 183.836C43.5696 184.334 43.5696 185.141 44.0674 185.639C44.5652 186.137 45.3725 186.137 45.8703 185.639Z" fill="white"/>
<path d="M45.1019 183.269L48.5829 179.338L50.3683 181.123L46.4374 184.604L45.1019 183.269Z" fill="#5A6684"/>
<path d="M48.3418 183.171L48.707 182.848C48.8177 182.749 48.8239 182.577 48.7184 182.472L47.232 180.986C47.1265 180.88 46.9548 180.886 46.8563 180.997L46.5328 181.362C46.443 181.464 46.4465 181.619 46.5433 181.716L47.9878 183.161C48.0846 183.257 48.2389 183.262 48.3418 183.171Z" fill="#8C95A9"/>
<path d="M47.6512 180.099L47.3277 180.465C47.238 180.567 47.2414 180.722 47.3382 180.819L48.8856 182.366C48.9824 182.463 49.1367 182.467 49.2396 182.377L49.6048 182.053C49.7155 181.955 49.7216 181.783 49.6162 181.677L48.0269 180.088C47.9214 179.983 47.7497 179.989 47.6512 180.099Z" fill="#8C95A9"/>
<path d="M50.1339 181.584L50.4398 181.313C50.5506 181.215 50.5567 181.043 50.4512 180.937L48.766 179.252C48.6606 179.147 48.4888 179.153 48.3903 179.264L48.1192 179.57C48.0294 179.672 48.0329 179.827 48.1296 179.924L49.7799 181.574C49.8767 181.671 50.031 181.675 50.1339 181.584Z" fill="#8C95A9"/>
<path d="M47.4468 183.965L47.8121 183.641C47.9228 183.543 47.9289 183.371 47.8234 183.265L46.439 181.881C46.3335 181.776 46.1618 181.782 46.0633 181.892L45.7399 182.258C45.6501 182.36 45.6535 182.515 45.7503 182.612L47.092 183.953C47.1887 184.05 47.3431 184.054 47.4459 183.964L47.4468 183.965Z" fill="#8C95A9"/>
<path d="M46.9284 184.059L45.6469 182.778C45.5414 182.672 45.3697 182.678 45.2712 182.789L45 183.095C44.9102 183.197 44.9137 183.352 45.0105 183.449L46.2571 184.696C46.3539 184.792 46.5082 184.797 46.6111 184.706L46.9171 184.435C47.0278 184.336 47.0339 184.165 46.9284 184.059Z" fill="#8C95A9"/>
<path d="M50.3029 180.833C50.4005 180.872 50.5008 180.908 50.6036 180.941C50.6551 180.957 50.7065 180.974 50.7579 180.989C51.4336 181.188 53.3018 181.496 53.6392 181.748C53.47 181.811 53.3149 181.924 53.2007 182.092C52.9784 182.421 52.9984 182.866 53.2495 183.173C53.5965 183.597 54.2215 183.621 54.599 183.243C54.7542 183.088 54.8422 182.89 54.8605 182.687L54.8623 182.685C54.864 182.657 54.8658 182.629 54.8649 182.602C54.8623 181.172 52.2574 180.851 50.7388 180.187C50.1913 179.948 49.7571 179.514 49.5192 178.967C48.8557 177.448 48.5349 174.843 47.1035 174.841C47.0756 174.841 47.0485 174.842 47.0206 174.844L47.0189 174.845C46.7853 174.868 46.5586 174.98 46.3964 175.182C46.1314 175.51 46.1306 175.988 46.3938 176.316C46.7391 176.747 47.3694 176.772 47.7486 176.393C47.8445 176.297 47.9133 176.184 47.9578 176.065C48.3266 176.669 48.5184 178.271 48.7171 178.946C48.7328 178.998 48.7485 179.049 48.7651 179.1C48.7982 179.203 48.8339 179.304 48.8723 179.401C49.0083 179.743 49.18 180.052 49.4102 180.293C49.6517 180.522 49.9603 180.695 50.302 180.831L50.3029 180.833Z" fill="white"/>
<path d="M47.0767 175.275C47.4385 175.436 47.761 175.896 47.7497 176.394C47.8456 176.298 47.9145 176.186 47.9589 176.066C47.5727 175.387 47.0776 175.274 47.0776 175.274L47.0767 175.275Z" fill="#8C95A9"/>
<path d="M53.2046 182.086C53.4234 182.028 54.2446 182.258 54.3876 182.544C54.4382 182.412 54.2403 182.113 53.6387 181.748C53.4705 181.81 53.3179 181.921 53.2046 182.086Z" fill="#8C95A9"/>
<path d="M47.0204 174.843C47.0483 174.841 47.0762 174.84 47.1033 174.841C48.5495 174.843 48.8616 177.504 49.5399 179.016C49.7683 179.526 50.178 179.936 50.6897 180.165C52.2014 180.844 54.8621 181.156 54.8647 182.602C54.8647 182.63 54.8638 182.657 54.8621 182.685L54.8603 182.687C54.8403 182.89 54.754 183.088 54.5988 183.243C54.754 183.088 55.2143 182.627 55.0146 182.037C54.5465 180.633 51.4804 180.224 50.457 179.251C49.4841 178.227 49.0761 175.161 47.6708 174.693C47.0806 174.494 46.6203 174.954 46.4651 175.109C46.6203 174.954 46.8182 174.866 47.0213 174.848L47.0231 174.846L47.0204 174.843Z" fill="#8C95A9"/>
<path d="M51.6667 180.334L66.3335 169.334L67.6385 162.069L60.6669 163.667L49.3335 178C49.6386 178.794 50.8733 180.029 51.6667 180.334Z" fill="#EAF0FF"/>
<path fill-rule="evenodd" clip-rule="evenodd" d="M51.0351 179.969L63.4735 169L64.667 165.667L61.0003 166.567L49.6985 178.633C50.0472 179.112 50.5559 179.621 51.0351 179.969Z" fill="#BFC7DC"/>
<text fill="#111111" xml:space="preserve" style="white-space: pre" font-family="Poppins" font-size="14" font-weight="bold" letter-spacing="0em"><tspan x="92" y="290.4">Conservative</tspan></text>
<circle cx="56" cy="285.5" r="20" fill="#399C37"/>
<g clip-path="url(#clip1_1601_41940)">
<path d="M65.089 275.941C62.7484 275.333 60.4686 274.51 58.2783 273.482L56.2383 272.525V300.245L61.9922 295.337C64.6445 293.073 66.3168 289.856 66.6525 286.368L67.5942 276.592L65.089 275.941Z" fill="#EAF0FF"/>
<path d="M54.1968 273.483C52.0049 274.51 49.7251 275.334 47.3861 275.942L44.8809 276.594L45.8225 286.37C46.1583 289.858 47.8306 293.076 50.4829 295.339L56.2368 300.247V272.525L54.1968 273.482V273.483Z" fill="#9CA3B5"/>
<path d="M56.236 273.108C56.4656 273.108 56.6517 272.92 56.6517 272.689C56.6517 272.457 56.4656 272.27 56.236 272.27C56.0064 272.27 55.8203 272.457 55.8203 272.689C55.8203 272.92 56.0064 273.108 56.236 273.108Z" fill="white"/>
<path d="M56.2551 281.209L56.2359 281.228V299.325H55.1855L56.2359 300.246L63.7549 293.67L65.0099 290.037L56.2551 281.209Z" fill="#9CA3B5"/>
<path d="M56.2367 281.229L47.6914 289.847L49.2182 294.102L55.1864 299.325H56.2367V281.229Z" fill="#4A556C"/>
<path d="M56.2364 273.761L57.5186 274.362C60.0254 275.538 62.6538 276.486 65.3317 277.182L66.2078 277.41L65.3653 286.148C65.0535 289.384 63.5267 292.323 61.0646 294.423L56.2364 298.543L51.4082 294.423C48.9461 292.323 47.4193 289.384 47.1075 286.148L46.265 277.41L47.1411 277.182C49.819 276.487 52.4473 275.538 54.9542 274.362L56.2364 273.761ZM56.2364 271.5C55.9182 271.5 55.6001 271.569 55.3043 271.708L54.0109 272.314C51.6208 273.435 49.1347 274.331 46.5831 274.996L45.4192 275.299C44.5175 275.533 43.918 276.395 44.0091 277.331L44.8805 286.367C45.2466 290.171 47.0707 293.68 49.9629 296.148L56.238 301.502L62.5131 296.148C65.4052 293.68 67.2294 290.171 67.5955 286.367L68.4668 277.331C68.5564 276.395 67.9584 275.533 67.0551 275.299L65.8912 274.996C63.3396 274.333 60.8536 273.435 58.4634 272.314L57.1701 271.708C56.8743 271.569 56.5561 271.5 56.238 271.5H56.2364Z" fill="#4A556C"/>
<path d="M60.4235 274.74C60.6531 274.74 60.8392 274.552 60.8392 274.321C60.8392 274.089 60.6531 273.901 60.4235 273.901C60.1939 273.901 60.0078 274.089 60.0078 274.321C60.0078 274.552 60.1939 274.74 60.4235 274.74Z" fill="white"/>
<path d="M52.0251 274.74C52.2546 274.74 52.4407 274.552 52.4407 274.321C52.4407 274.089 52.2546 273.901 52.0251 273.901C51.7955 273.901 51.6094 274.089 51.6094 274.321C51.6094 274.552 51.7955 274.74 52.0251 274.74Z" fill="#9CA3B5"/>
<path d="M66.7926 276.801C67.0222 276.801 67.2083 276.614 67.2083 276.382C67.2083 276.151 67.0222 275.963 66.7926 275.963C66.5631 275.963 66.377 276.151 66.377 276.382C66.377 276.614 66.5631 276.801 66.7926 276.801Z" fill="white"/>
<path d="M45.7653 276.801C45.9949 276.801 46.181 276.614 46.181 276.382C46.181 276.151 45.9949 275.963 45.7653 275.963C45.5357 275.963 45.3496 276.151 45.3496 276.382C45.3496 276.614 45.5357 276.801 45.7653 276.801Z" fill="#9CA3B5"/>
<path d="M45.7653 282.764C45.9949 282.764 46.181 282.577 46.181 282.345C46.181 282.113 45.9949 281.926 45.7653 281.926C45.5357 281.926 45.3496 282.113 45.3496 282.345C45.3496 282.577 45.5357 282.764 45.7653 282.764Z" fill="#9CA3B5"/>
<path d="M66.7926 282.764C67.0222 282.764 67.2083 282.577 67.2083 282.345C67.2083 282.113 67.0222 281.926 66.7926 281.926C66.5631 281.926 66.377 282.113 66.377 282.345C66.377 282.577 66.5631 282.764 66.7926 282.764Z" fill="white"/>
<path d="M46.404 288.726C46.6335 288.726 46.8196 288.538 46.8196 288.307C46.8196 288.075 46.6335 287.888 46.404 287.888C46.1744 287.888 45.9883 288.075 45.9883 288.307C45.9883 288.538 46.1744 288.726 46.404 288.726Z" fill="#9CA3B5"/>
<path d="M66.154 288.726C66.3835 288.726 66.5696 288.538 66.5696 288.307C66.5696 288.075 66.3835 287.888 66.154 287.888C65.9244 287.888 65.7383 288.075 65.7383 288.307C65.7383 288.538 65.9244 288.726 66.154 288.726Z" fill="white"/>
<path d="M48.8024 293.67C49.032 293.67 49.2181 293.482 49.2181 293.25C49.2181 293.019 49.032 292.831 48.8024 292.831C48.5728 292.831 48.3867 293.019 48.3867 293.25C48.3867 293.482 48.5728 293.67 48.8024 293.67Z" fill="#9CA3B5"/>
<path d="M52.9997 297.676C53.2292 297.676 53.4153 297.489 53.4153 297.257C53.4153 297.026 53.2292 296.838 52.9997 296.838C52.7701 296.838 52.584 297.026 52.584 297.257C52.584 297.489 52.7701 297.676 52.9997 297.676Z" fill="#9CA3B5"/>
<path d="M59.4743 297.676C59.7038 297.676 59.8899 297.489 59.8899 297.257C59.8899 297.026 59.7038 296.838 59.4743 296.838C59.2447 296.838 59.0586 297.026 59.0586 297.257C59.0586 297.489 59.2447 297.676 59.4743 297.676Z" fill="white"/>
<path d="M63.7555 293.67C63.9851 293.67 64.1712 293.482 64.1712 293.25C64.1712 293.019 63.9851 292.831 63.7555 292.831C63.5259 292.831 63.3398 293.019 63.3398 293.25C63.3398 293.482 63.5259 293.67 63.7555 293.67Z" fill="white"/>
</g>
<defs>
<filter id="filter0_d_1601_41940" x="0" y="0" width="402" height="339.675" filterUnits="userSpaceOnUse" color-interpolation-filters="sRGB">
<feFlood flood-opacity="0" result="BackgroundImageFix"/>
<feColorMatrix in="SourceAlpha" type="matrix" values="0 0 0 0 0 0 0 0 0 0 0 0 0 0 0 0 0 0 127 0" result="hardAlpha"/>
<feOffset/>
<feGaussianBlur stdDeviation="6"/>
<feComposite in2="hardAlpha" operator="out"/>
<feColorMatrix type="matrix" values="0 0 0 0 0.475936 0 0 0 0 0.469306 0 0 0 0 0.516667 0 0 0 0.15 0"/>
<feBlend mode="normal" in2="BackgroundImageFix" result="effect1_dropShadow_1601_41940"/>
<feBlend mode="normal" in="SourceGraphic" in2="effect1_dropShadow_1601_41940" result="shape"/>
</filter>
<clipPath id="clip0_1601_41940">
<rect width="22.5158" height="27.6" fill="white" transform="translate(45.8398 217.733)"/>
</clipPath>
<clipPath id="clip1_1601_41940">
<rect width="24.4737" height="30" fill="white" transform="translate(44 271.5)"/>
</clipPath>
</defs>
</svg>
