<svg width="791" height="314" viewBox="0 0 791 314" fill="none" xmlns="http://www.w3.org/2000/svg">
<rect width="791" height="314" fill="#F5F5F5"/>
<rect width="791" height="314" rx="40" fill="white"/>
<rect x="419.5" y="156.5" width="282" height="79" rx="19.5" stroke="#E5E7EB"/>
<circle cx="461" cy="196" r="30" fill="#A64141"/>
<path d="M513.986 187.264H510.318L509.73 189H507.224L510.78 179.172H513.552L517.108 189H514.574L513.986 187.264ZM513.37 185.416L512.152 181.818L510.948 185.416H513.37ZM521.158 181.076C521.709 181.076 522.19 181.188 522.6 181.412C523.02 181.636 523.342 181.93 523.566 182.294V181.188H525.96V188.986C525.96 189.705 525.816 190.353 525.526 190.932C525.246 191.52 524.812 191.987 524.224 192.332C523.646 192.677 522.922 192.85 522.054 192.85C520.897 192.85 519.959 192.575 519.24 192.024C518.522 191.483 518.111 190.745 518.008 189.812H520.374C520.449 190.111 520.626 190.344 520.906 190.512C521.186 190.689 521.532 190.778 521.942 190.778C522.437 190.778 522.829 190.633 523.118 190.344C523.417 190.064 523.566 189.611 523.566 188.986V187.88C523.333 188.244 523.011 188.543 522.6 188.776C522.19 189 521.709 189.112 521.158 189.112C520.514 189.112 519.931 188.949 519.408 188.622C518.886 188.286 518.47 187.815 518.162 187.208C517.864 186.592 517.714 185.883 517.714 185.08C517.714 184.277 517.864 183.573 518.162 182.966C518.47 182.359 518.886 181.893 519.408 181.566C519.931 181.239 520.514 181.076 521.158 181.076ZM523.566 185.094C523.566 184.497 523.398 184.025 523.062 183.68C522.736 183.335 522.334 183.162 521.858 183.162C521.382 183.162 520.976 183.335 520.64 183.68C520.314 184.016 520.15 184.483 520.15 185.08C520.15 185.677 520.314 186.153 520.64 186.508C520.976 186.853 521.382 187.026 521.858 187.026C522.334 187.026 522.736 186.853 523.062 186.508C523.398 186.163 523.566 185.691 523.566 185.094ZM530.66 181.076C531.211 181.076 531.692 181.188 532.102 181.412C532.522 181.636 532.844 181.93 533.068 182.294V181.188H535.462V188.986C535.462 189.705 535.318 190.353 535.028 190.932C534.748 191.52 534.314 191.987 533.726 192.332C533.148 192.677 532.424 192.85 531.556 192.85C530.399 192.85 529.461 192.575 528.742 192.024C528.024 191.483 527.613 190.745 527.51 189.812H529.876C529.951 190.111 530.128 190.344 530.408 190.512C530.688 190.689 531.034 190.778 531.444 190.778C531.939 190.778 532.331 190.633 532.62 190.344C532.919 190.064 533.068 189.611 533.068 188.986V187.88C532.835 188.244 532.513 188.543 532.102 188.776C531.692 189 531.211 189.112 530.66 189.112C530.016 189.112 529.433 188.949 528.91 188.622C528.388 188.286 527.972 187.815 527.664 187.208C527.366 186.592 527.216 185.883 527.216 185.08C527.216 184.277 527.366 183.573 527.664 182.966C527.972 182.359 528.388 181.893 528.91 181.566C529.433 181.239 530.016 181.076 530.66 181.076ZM533.068 185.094C533.068 184.497 532.9 184.025 532.564 183.68C532.238 183.335 531.836 183.162 531.36 183.162C530.884 183.162 530.478 183.335 530.142 183.68C529.816 184.016 529.652 184.483 529.652 185.08C529.652 185.677 529.816 186.153 530.142 186.508C530.478 186.853 530.884 187.026 531.36 187.026C531.836 187.026 532.238 186.853 532.564 186.508C532.9 186.163 533.068 185.691 533.068 185.094ZM539.588 182.49C539.868 182.061 540.218 181.725 540.638 181.482C541.058 181.23 541.525 181.104 542.038 181.104V183.638H541.38C540.783 183.638 540.335 183.769 540.036 184.03C539.738 184.282 539.588 184.73 539.588 185.374V189H537.194V181.188H539.588V182.49ZM550.546 184.968C550.546 185.192 550.532 185.425 550.504 185.668H545.086C545.124 186.153 545.278 186.527 545.548 186.788C545.828 187.04 546.169 187.166 546.57 187.166C547.168 187.166 547.583 186.914 547.816 186.41H550.364C550.234 186.923 549.996 187.385 549.65 187.796C549.314 188.207 548.89 188.529 548.376 188.762C547.863 188.995 547.289 189.112 546.654 189.112C545.889 189.112 545.208 188.949 544.61 188.622C544.013 188.295 543.546 187.829 543.21 187.222C542.874 186.615 542.706 185.906 542.706 185.094C542.706 184.282 542.87 183.573 543.196 182.966C543.532 182.359 543.999 181.893 544.596 181.566C545.194 181.239 545.88 181.076 546.654 181.076C547.41 181.076 548.082 181.235 548.67 181.552C549.258 181.869 549.716 182.322 550.042 182.91C550.378 183.498 550.546 184.184 550.546 184.968ZM548.096 184.338C548.096 183.927 547.956 183.601 547.676 183.358C547.396 183.115 547.046 182.994 546.626 182.994C546.225 182.994 545.884 183.111 545.604 183.344C545.334 183.577 545.166 183.909 545.1 184.338H548.096ZM554.987 189.112C554.306 189.112 553.699 188.995 553.167 188.762C552.635 188.529 552.215 188.211 551.907 187.81C551.599 187.399 551.427 186.942 551.389 186.438H553.755C553.783 186.709 553.909 186.928 554.133 187.096C554.357 187.264 554.633 187.348 554.959 187.348C555.258 187.348 555.487 187.292 555.645 187.18C555.813 187.059 555.897 186.905 555.897 186.718C555.897 186.494 555.781 186.331 555.547 186.228C555.314 186.116 554.936 185.995 554.413 185.864C553.853 185.733 553.387 185.598 553.013 185.458C552.64 185.309 552.318 185.08 552.047 184.772C551.777 184.455 551.641 184.03 551.641 183.498C551.641 183.05 551.763 182.644 552.005 182.28C552.257 181.907 552.621 181.613 553.097 181.398C553.583 181.183 554.157 181.076 554.819 181.076C555.799 181.076 556.569 181.319 557.129 181.804C557.699 182.289 558.025 182.933 558.109 183.736H555.897C555.86 183.465 555.739 183.251 555.533 183.092C555.337 182.933 555.076 182.854 554.749 182.854C554.469 182.854 554.255 182.91 554.105 183.022C553.956 183.125 553.881 183.269 553.881 183.456C553.881 183.68 553.998 183.848 554.231 183.96C554.474 184.072 554.847 184.184 555.351 184.296C555.93 184.445 556.401 184.595 556.765 184.744C557.129 184.884 557.447 185.117 557.717 185.444C557.997 185.761 558.142 186.191 558.151 186.732C558.151 187.189 558.021 187.6 557.759 187.964C557.507 188.319 557.139 188.599 556.653 188.804C556.177 189.009 555.622 189.112 554.987 189.112ZM562.794 189.112C562.113 189.112 561.506 188.995 560.974 188.762C560.442 188.529 560.022 188.211 559.714 187.81C559.406 187.399 559.233 186.942 559.196 186.438H561.562C561.59 186.709 561.716 186.928 561.94 187.096C562.164 187.264 562.439 187.348 562.766 187.348C563.065 187.348 563.293 187.292 563.452 187.18C563.62 187.059 563.704 186.905 563.704 186.718C563.704 186.494 563.587 186.331 563.354 186.228C563.121 186.116 562.743 185.995 562.22 185.864C561.66 185.733 561.193 185.598 560.82 185.458C560.447 185.309 560.125 185.08 559.854 184.772C559.583 184.455 559.448 184.03 559.448 183.498C559.448 183.05 559.569 182.644 559.812 182.28C560.064 181.907 560.428 181.613 560.904 181.398C561.389 181.183 561.963 181.076 562.626 181.076C563.606 181.076 564.376 181.319 564.936 181.804C565.505 182.289 565.832 182.933 565.916 183.736H563.704C563.667 183.465 563.545 183.251 563.34 183.092C563.144 182.933 562.883 182.854 562.556 182.854C562.276 182.854 562.061 182.91 561.912 183.022C561.763 183.125 561.688 183.269 561.688 183.456C561.688 183.68 561.805 183.848 562.038 183.96C562.281 184.072 562.654 184.184 563.158 184.296C563.737 184.445 564.208 184.595 564.572 184.744C564.936 184.884 565.253 185.117 565.524 185.444C565.804 185.761 565.949 186.191 565.958 186.732C565.958 187.189 565.827 187.6 565.566 187.964C565.314 188.319 564.945 188.599 564.46 188.804C563.984 189.009 563.429 189.112 562.794 189.112ZM568.627 180.376C568.207 180.376 567.861 180.255 567.591 180.012C567.329 179.76 567.199 179.452 567.199 179.088C567.199 178.715 567.329 178.407 567.591 178.164C567.861 177.912 568.207 177.786 568.627 177.786C569.037 177.786 569.373 177.912 569.635 178.164C569.905 178.407 570.041 178.715 570.041 179.088C570.041 179.452 569.905 179.76 569.635 180.012C569.373 180.255 569.037 180.376 568.627 180.376ZM569.817 181.188V189H567.423V181.188H569.817ZM575.066 186.76L576.76 181.188H579.308L576.536 189H573.582L570.81 181.188H573.372L575.066 186.76ZM587.679 184.968C587.679 185.192 587.665 185.425 587.637 185.668H582.219C582.257 186.153 582.411 186.527 582.681 186.788C582.961 187.04 583.302 187.166 583.703 187.166C584.301 187.166 584.716 186.914 584.949 186.41H587.497C587.367 186.923 587.129 187.385 586.783 187.796C586.447 188.207 586.023 188.529 585.509 188.762C584.996 188.995 584.422 189.112 583.787 189.112C583.022 189.112 582.341 188.949 581.743 188.622C581.146 188.295 580.679 187.829 580.343 187.222C580.007 186.615 579.839 185.906 579.839 185.094C579.839 184.282 580.003 183.573 580.329 182.966C580.665 182.359 581.132 181.893 581.729 181.566C582.327 181.239 583.013 181.076 583.787 181.076C584.543 181.076 585.215 181.235 585.803 181.552C586.391 181.869 586.849 182.322 587.175 182.91C587.511 183.498 587.679 184.184 587.679 184.968ZM585.229 184.338C585.229 183.927 585.089 183.601 584.809 183.358C584.529 183.115 584.179 182.994 583.759 182.994C583.358 182.994 583.017 183.111 582.737 183.344C582.467 183.577 582.299 183.909 582.233 184.338H585.229Z" fill="#0198FF"/>
<path d="M512.232 210L510.312 206.664H509.268V210H507.9V201.66H510.78C511.42 201.66 511.96 201.772 512.4 201.996C512.848 202.22 513.18 202.52 513.396 202.896C513.62 203.272 513.732 203.692 513.732 204.156C513.732 204.7 513.572 205.196 513.252 205.644C512.94 206.084 512.456 206.384 511.8 206.544L513.864 210H512.232ZM509.268 205.572H510.78C511.292 205.572 511.676 205.444 511.932 205.188C512.196 204.932 512.328 204.588 512.328 204.156C512.328 203.724 512.2 203.388 511.944 203.148C511.688 202.9 511.3 202.776 510.78 202.776H509.268V205.572ZM521.542 206.532C521.542 206.78 521.526 207.004 521.494 207.204H516.442C516.482 207.732 516.678 208.156 517.03 208.476C517.382 208.796 517.814 208.956 518.326 208.956C519.062 208.956 519.582 208.648 519.886 208.032H521.362C521.162 208.64 520.798 209.14 520.27 209.532C519.75 209.916 519.102 210.108 518.326 210.108C517.694 210.108 517.126 209.968 516.622 209.688C516.126 209.4 515.734 209 515.446 208.488C515.166 207.968 515.026 207.368 515.026 206.688C515.026 206.008 515.162 205.412 515.434 204.9C515.714 204.38 516.102 203.98 516.598 203.7C517.102 203.42 517.678 203.28 518.326 203.28C518.95 203.28 519.506 203.416 519.994 203.688C520.482 203.96 520.862 204.344 521.134 204.84C521.406 205.328 521.542 205.892 521.542 206.532ZM520.114 206.1C520.106 205.596 519.926 205.192 519.574 204.888C519.222 204.584 518.786 204.432 518.266 204.432C517.794 204.432 517.39 204.584 517.054 204.888C516.718 205.184 516.518 205.588 516.454 206.1H520.114ZM527.964 205.08V206.232H523.032V205.08H527.964ZM531.504 204.504V208.164C531.504 208.412 531.56 208.592 531.672 208.704C531.792 208.808 531.992 208.86 532.272 208.86H533.112V210H532.032C531.416 210 530.944 209.856 530.616 209.568C530.288 209.28 530.124 208.812 530.124 208.164V204.504H529.344V203.388H530.124V201.744H531.504V203.388H533.112V204.504H531.504ZM540.433 206.532C540.433 206.78 540.417 207.004 540.385 207.204H535.333C535.373 207.732 535.569 208.156 535.921 208.476C536.273 208.796 536.705 208.956 537.217 208.956C537.953 208.956 538.473 208.648 538.777 208.032H540.253C540.053 208.64 539.689 209.14 539.161 209.532C538.641 209.916 537.993 210.108 537.217 210.108C536.585 210.108 536.017 209.968 535.513 209.688C535.017 209.4 534.625 209 534.337 208.488C534.057 207.968 533.917 207.368 533.917 206.688C533.917 206.008 534.053 205.412 534.325 204.9C534.605 204.38 534.993 203.98 535.489 203.7C535.993 203.42 536.569 203.28 537.217 203.28C537.841 203.28 538.397 203.416 538.885 203.688C539.373 203.96 539.753 204.344 540.025 204.84C540.297 205.328 540.433 205.892 540.433 206.532ZM539.005 206.1C538.997 205.596 538.817 205.192 538.465 204.888C538.113 204.584 537.677 204.432 537.157 204.432C536.685 204.432 536.281 204.584 535.945 204.888C535.609 205.184 535.409 205.588 535.345 206.1H539.005ZM544.179 210.108C543.659 210.108 543.191 210.016 542.775 209.832C542.367 209.64 542.043 209.384 541.803 209.064C541.563 208.736 541.435 208.372 541.419 207.972H542.835C542.859 208.252 542.991 208.488 543.231 208.68C543.479 208.864 543.787 208.956 544.155 208.956C544.539 208.956 544.835 208.884 545.043 208.74C545.259 208.588 545.367 208.396 545.367 208.164C545.367 207.916 545.247 207.732 545.007 207.612C544.775 207.492 544.403 207.36 543.891 207.216C543.395 207.08 542.991 206.948 542.679 206.82C542.367 206.692 542.095 206.496 541.863 206.232C541.639 205.968 541.527 205.62 541.527 205.188C541.527 204.836 541.631 204.516 541.839 204.228C542.047 203.932 542.343 203.7 542.727 203.532C543.119 203.364 543.567 203.28 544.071 203.28C544.823 203.28 545.427 203.472 545.883 203.856C546.347 204.232 546.595 204.748 546.627 205.404H545.259C545.235 205.108 545.115 204.872 544.899 204.696C544.683 204.52 544.391 204.432 544.023 204.432C543.663 204.432 543.387 204.5 543.195 204.636C543.003 204.772 542.907 204.952 542.907 205.176C542.907 205.352 542.971 205.5 543.099 205.62C543.227 205.74 543.383 205.836 543.567 205.908C543.751 205.972 544.023 206.056 544.383 206.16C544.863 206.288 545.255 206.42 545.559 206.556C545.871 206.684 546.139 206.876 546.363 207.132C546.587 207.388 546.703 207.728 546.711 208.152C546.711 208.528 546.607 208.864 546.399 209.16C546.191 209.456 545.895 209.688 545.511 209.856C545.135 210.024 544.691 210.108 544.179 210.108ZM549.785 204.504V208.164C549.785 208.412 549.841 208.592 549.953 208.704C550.073 208.808 550.273 208.86 550.553 208.86H551.393V210H550.313C549.697 210 549.225 209.856 548.897 209.568C548.569 209.28 548.405 208.812 548.405 208.164V204.504H547.625V203.388H548.405V201.744H549.785V203.388H551.393V204.504H549.785Z" fill="#9CA3AF"/>
<path d="M507 211.2H551.753V211.8H507V211.2Z" fill="#9CA3AF"/>
<path d="M466.652 194.058C466.501 194.209 466.28 194.267 466.075 194.209L465.873 194.151L466.166 193.858L464.967 191.654C464.841 191.424 464.883 191.141 465.067 190.957L465.322 190.701C465.49 190.534 465.738 190.483 465.957 190.571L466.087 190.622L465.838 190.871L467.038 193.075C467.163 193.305 467.121 193.588 466.938 193.772L466.652 194.058Z" fill="#1B1B1B"/>
<path d="M472.33 185.413L471.186 184.27C469.903 182.986 469.903 180.906 471.186 179.623L472.602 178.207H469.622C466.191 178.207 463.408 180.99 463.408 184.421V187.401L464.824 185.985C466.107 184.702 468.188 184.702 469.471 185.985L470.614 187.129L471.277 186.078L472.328 185.416L472.33 185.413Z" fill="#C5C9D4"/>
<path d="M472.33 185.413L471.186 184.27C470.977 184.061 470.805 183.828 470.663 183.584L468.785 185.462C469.029 185.604 469.262 185.774 469.471 185.985L470.615 187.129L471.277 186.078L472.328 185.416L472.33 185.413Z" fill="#A3AABA"/>
<path d="M464.01 184.216C464.354 181.392 466.593 179.153 469.417 178.809C470.084 178.728 470.749 178.632 471.405 178.481L472.602 178.207H469.622C466.191 178.207 463.408 180.99 463.408 184.421V187.401L463.466 187.147C463.689 186.178 463.889 185.202 464.01 184.216Z" fill="white"/>
<path d="M473.321 186.408L474.465 187.551C475.748 188.835 477.829 188.835 479.112 187.551L480.528 186.136V189.116C480.528 192.547 477.745 195.329 474.314 195.329H471.334L472.75 193.914C474.033 192.631 474.033 190.55 472.75 189.267L471.606 188.123L472.657 187.461L473.319 186.41L473.321 186.408Z" fill="#C5C9D4"/>
<path d="M474.627 187.699C474.571 187.652 474.517 187.603 474.466 187.55L473.323 186.406L472.66 187.457L471.609 188.119L472.753 189.263C472.804 189.314 472.853 189.37 472.902 189.424L474.629 187.696L474.627 187.699Z" fill="#A3AABA"/>
<path d="M474.523 194.725C477.347 194.381 479.585 192.143 479.93 189.318C480.011 188.651 480.106 187.986 480.257 187.331L480.532 186.134V189.114C480.532 192.545 477.749 195.327 474.318 195.327H471.338L471.589 195.269C472.558 195.046 473.535 194.846 474.52 194.725H474.523Z" fill="white"/>
<path d="M474.588 186.191L472.174 183.776L467.714 188.236L470.129 190.65L474.588 186.191Z" fill="#C5C9D4"/>
<path d="M472.171 183.778L471.785 184.164L474.2 186.579L474.586 186.192L472.171 183.778Z" fill="#ACB3C2"/>
<path d="M468.704 191.61L466.756 189.662L467.714 188.237L470.129 190.653L468.704 191.61Z" fill="#A3AABA"/>
<path d="M477.288 181.078L475.052 186.657L471.709 183.314L477.288 181.078Z" fill="white"/>
<path d="M477.289 181.078L474.4 186.002L472.363 183.968L477.289 181.078Z" fill="#C5C9D4"/>
<path d="M468.559 191.464L466.902 189.808L448.756 207.954L450.412 209.611L468.559 191.464Z" fill="#9CA3B5"/>
<path d="M448.971 208.17L450.169 209.368L449.834 209.704C449.648 209.889 449.345 209.889 449.16 209.704L448.635 209.179C448.45 208.993 448.45 208.691 448.635 208.505L448.971 208.17Z" fill="#5A6684"/>
<path d="M445.351 212.971C444.604 212.225 444.604 211.009 445.351 210.261C446.097 209.512 447.313 209.515 448.061 210.261C448.81 211.007 448.807 212.223 448.061 212.971C447.315 213.72 446.099 213.717 445.351 212.971ZM447.601 210.721C447.108 210.228 446.304 210.228 445.811 210.721C445.318 211.214 445.318 212.018 445.811 212.511C446.304 213.004 447.108 213.004 447.601 212.511C448.094 212.018 448.094 211.214 447.601 210.721Z" fill="#BDC2CE"/>
<path d="M448.646 209.196L449.126 209.676L448.249 210.554C448.12 210.682 447.913 210.682 447.785 210.554L447.769 210.538C447.641 210.409 447.641 210.202 447.769 210.074L448.646 209.196Z" fill="#9CA3B5"/>
<path d="M465.652 191.058L464.811 191.901L465.977 194.045L466.819 193.203L465.652 191.058Z" fill="#6A7690"/>
<path d="M466.652 194.058C466.501 194.209 466.28 194.267 466.075 194.209L465.873 194.151L466.166 193.858L464.967 191.654C464.841 191.424 464.883 191.141 465.067 190.957L465.322 190.701C465.49 190.534 465.738 190.483 465.957 190.571L466.087 190.622L465.838 190.871L467.038 193.075C467.163 193.305 467.121 193.588 466.938 193.772L466.652 194.058Z" fill="white"/>
<path d="M465.838 190.871L466.087 190.622L465.957 190.571C465.887 190.543 465.817 190.532 465.745 190.529C465.678 190.59 465.838 190.871 465.838 190.871Z" fill="white"/>
<path d="M466.162 193.858L465.869 194.151L466.071 194.209C466.127 194.226 466.185 194.233 466.241 194.233C466.369 194.249 466.162 193.861 466.162 193.861V193.858Z" fill="white"/>
<path d="M463.839 196.871C463.688 197.022 463.467 197.081 463.263 197.022L463.061 196.964L463.354 196.671L462.154 194.468C462.029 194.238 462.07 193.954 462.254 193.77L462.51 193.515C462.677 193.347 462.926 193.296 463.144 193.385L463.274 193.436L463.026 193.684L464.225 195.888C464.351 196.118 464.309 196.402 464.125 196.585L463.839 196.871Z" fill="#1B1B1B"/>
<path d="M462.84 193.87L461.998 194.712L463.165 196.857L464.006 196.016L462.84 193.87Z" fill="#6A7690"/>
<path d="M463.839 196.871C463.688 197.022 463.467 197.081 463.263 197.022L463.061 196.964L463.354 196.671L462.154 194.468C462.029 194.238 462.07 193.954 462.254 193.77L462.51 193.515C462.677 193.347 462.926 193.296 463.144 193.385L463.274 193.436L463.026 193.684L464.225 195.888C464.351 196.118 464.309 196.402 464.125 196.585L463.839 196.871Z" fill="white"/>
<path d="M463.024 193.684L463.272 193.436L463.142 193.385C463.072 193.357 463.003 193.343 462.931 193.343C462.863 193.403 463.024 193.684 463.024 193.684Z" fill="white"/>
<path d="M463.351 196.671L463.059 196.964L463.261 197.022C463.317 197.038 463.375 197.045 463.431 197.045C463.558 197.061 463.351 196.673 463.351 196.673V196.671Z" fill="#5A6684"/>
<path d="M461.025 199.684C460.874 199.835 460.653 199.893 460.448 199.835L460.246 199.777L460.539 199.484L459.34 197.28C459.214 197.05 459.256 196.767 459.44 196.583L459.695 196.327C459.863 196.16 460.111 196.109 460.33 196.197L460.46 196.248L460.211 196.497L461.411 198.701C461.536 198.931 461.494 199.214 461.311 199.398L461.025 199.684Z" fill="#1B1B1B"/>
<path d="M460.027 196.683L459.186 197.524L460.352 199.67L461.196 198.828L460.027 196.683Z" fill="#363636"/>
<path d="M461.025 199.684C460.874 199.835 460.653 199.893 460.448 199.835L460.246 199.777L460.539 199.484L459.34 197.28C459.214 197.05 459.256 196.767 459.44 196.583L459.695 196.327C459.863 196.16 460.111 196.109 460.33 196.197L460.46 196.248L460.211 196.497L461.411 198.701C461.536 198.931 461.494 199.214 461.311 199.398L461.025 199.684Z" fill="#1B1B1B"/>
<path d="M460.215 196.497L460.464 196.248L460.334 196.197C460.264 196.169 460.194 196.155 460.122 196.155C460.055 196.216 460.215 196.497 460.215 196.497Z" fill="white"/>
<path d="M460.539 199.484L460.246 199.777L460.448 199.835C460.504 199.852 460.562 199.859 460.618 199.859C460.746 199.875 460.539 199.487 460.539 199.487V199.484Z" fill="white"/>
<path d="M458.212 202.494C458.061 202.646 457.84 202.704 457.636 202.646L457.434 202.587L457.727 202.295L456.527 200.091C456.402 199.861 456.443 199.577 456.627 199.393L456.883 199.138C457.05 198.97 457.299 198.919 457.517 199.008L457.648 199.059L457.399 199.307L458.598 201.511C458.724 201.741 458.682 202.025 458.498 202.209L458.212 202.494Z" fill="#1B1B1B"/>
<path d="M457.215 199.496L456.371 200.338L457.54 202.483L458.382 201.642L457.215 199.496Z" fill="#6A7690"/>
<path d="M458.212 202.494C458.061 202.646 457.84 202.704 457.636 202.646L457.434 202.587L457.727 202.295L456.527 200.091C456.402 199.861 456.443 199.577 456.627 199.393L456.883 199.138C457.05 198.97 457.299 198.919 457.517 199.008L457.648 199.059L457.399 199.307L458.598 201.511C458.724 201.741 458.682 202.025 458.498 202.209L458.212 202.494Z" fill="white"/>
<path d="M457.402 199.308L457.651 199.059L457.521 199.008C457.451 198.98 457.382 198.968 457.31 198.966C457.242 199.026 457.402 199.308 457.402 199.308Z" fill="white"/>
<path d="M457.726 202.294L457.434 202.587L457.636 202.645C457.692 202.661 457.75 202.668 457.806 202.668C457.933 202.684 457.726 202.296 457.726 202.296V202.294Z" fill="white"/>
<path d="M455.4 205.307C455.249 205.458 455.028 205.516 454.823 205.458L454.621 205.4L454.914 205.107L453.715 202.903C453.589 202.673 453.631 202.39 453.815 202.206L454.07 201.95C454.238 201.783 454.486 201.732 454.705 201.82L454.835 201.871L454.586 202.12L455.786 204.324C455.911 204.554 455.869 204.837 455.686 205.021L455.4 205.307Z" fill="#1B1B1B"/>
<path d="M454.402 202.309L453.561 203.15L454.727 205.296L455.569 204.452L454.402 202.309Z" fill="#6A7690"/>
<path d="M455.4 205.307C455.249 205.458 455.028 205.516 454.823 205.458L454.621 205.4L454.914 205.107L453.715 202.903C453.589 202.673 453.631 202.39 453.815 202.206L454.07 201.95C454.238 201.783 454.486 201.732 454.705 201.82L454.835 201.871L454.586 202.12L455.786 204.324C455.911 204.554 455.869 204.837 455.686 205.021L455.4 205.307Z" fill="white"/>
<path d="M454.588 202.12L454.837 201.871L454.707 201.82C454.637 201.792 454.567 201.778 454.495 201.778C454.428 201.839 454.588 202.12 454.588 202.12Z" fill="white"/>
<path d="M454.914 205.107L454.621 205.4L454.823 205.458C454.879 205.475 454.937 205.482 454.993 205.482C455.121 205.498 454.914 205.11 454.914 205.11V205.107Z" fill="white"/>
<path d="M452.589 208.119C452.438 208.271 452.217 208.329 452.013 208.271L451.811 208.212L452.104 207.92L450.904 205.716C450.779 205.486 450.82 205.202 451.004 205.018L451.26 204.763C451.427 204.595 451.676 204.544 451.894 204.633L452.024 204.684L451.776 204.932L452.975 207.136C453.101 207.366 453.059 207.65 452.875 207.834L452.589 208.119Z" fill="#1B1B1B"/>
<path d="M451.59 205.119L450.748 205.963L451.915 208.106L452.756 207.265L451.59 205.119Z" fill="#6A7690"/>
<path d="M452.589 208.119C452.438 208.271 452.217 208.329 452.013 208.271L451.811 208.212L452.104 207.92L450.904 205.716C450.779 205.486 450.82 205.202 451.004 205.018L451.26 204.763C451.427 204.595 451.676 204.544 451.894 204.633L452.024 204.684L451.776 204.932L452.975 207.136C453.101 207.366 453.059 207.65 452.875 207.834L452.589 208.119Z" fill="white"/>
<path d="M451.776 204.933L452.024 204.684L451.894 204.633C451.824 204.605 451.755 204.591 451.683 204.591C451.615 204.651 451.776 204.933 451.776 204.933Z" fill="white"/>
<path d="M452.101 207.92L451.809 208.213L452.011 208.271C452.067 208.287 452.125 208.294 452.181 208.294C452.308 208.31 452.101 207.922 452.101 207.922V207.92Z" fill="white"/>
<path d="M456.504 191.88C456.655 192.031 456.713 192.252 456.655 192.456L456.597 192.659L456.304 192.366L454.101 193.565C453.87 193.691 453.587 193.649 453.403 193.465L453.148 193.209C452.98 193.042 452.929 192.793 453.017 192.575L453.068 192.445L453.317 192.693L455.521 191.494C455.751 191.368 456.035 191.41 456.218 191.594L456.504 191.88Z" fill="#2B2B2A"/>
<path d="M447.859 186.201L446.715 187.344C445.432 188.628 443.351 188.628 442.068 187.344L440.652 185.929V188.909C440.652 192.34 443.435 195.122 446.866 195.122H449.846L448.43 193.707C447.147 192.424 447.147 190.343 448.43 189.06L449.574 187.916L448.523 187.254L447.861 186.203L447.859 186.201Z" fill="#C5C9D4"/>
<path d="M447.859 186.201L446.715 187.345C446.506 187.554 446.273 187.726 446.029 187.868L447.908 189.746C448.049 189.502 448.219 189.27 448.431 189.06L449.574 187.917L448.524 187.254L447.861 186.203L447.859 186.201Z" fill="#A3AABA"/>
<path d="M446.661 194.518C443.837 194.174 441.598 191.936 441.254 189.111C441.173 188.444 441.078 187.779 440.927 187.124L440.652 185.927V188.907C440.652 192.338 443.435 195.12 446.866 195.12H449.846L449.593 195.062C448.623 194.839 447.647 194.639 446.661 194.518Z" fill="white"/>
<path d="M448.854 185.206L449.998 184.063C451.281 182.779 451.281 180.699 449.998 179.416L448.582 178H451.562C454.993 178 457.776 180.783 457.776 184.214V187.194L456.36 185.778C455.077 184.495 452.996 184.495 451.713 185.778L450.57 186.922L449.907 185.871L448.856 185.209L448.854 185.206Z" fill="#C5C9D4"/>
<path d="M450.146 183.902C450.099 183.958 450.051 184.011 449.997 184.062L448.854 185.206L449.904 185.868L450.567 186.919L451.71 185.775C451.762 185.724 451.817 185.675 451.871 185.627L450.144 183.899L450.146 183.902Z" fill="#A3AABA"/>
<path d="M457.174 184.009C456.83 181.185 454.591 178.946 451.767 178.602C451.1 178.521 450.435 178.425 449.779 178.274L448.582 178H451.562C454.993 178 457.776 180.783 457.776 184.214V187.194L457.718 186.94C457.494 185.971 457.295 184.995 457.174 184.009Z" fill="white"/>
<path d="M448.637 183.941L446.223 186.355L450.682 190.815L453.097 188.4L448.637 183.941Z" fill="#C5C9D4"/>
<path d="M448.637 183.942L446.223 186.356L446.609 186.743L449.024 184.328L448.637 183.942Z" fill="#ACB3C2"/>
<path d="M454.055 189.828L452.107 191.773L450.682 190.816L453.097 188.4L454.055 189.828Z" fill="#A3AABA"/>
<path d="M443.523 181.24L449.102 183.476L445.76 186.819L443.523 181.24Z" fill="white"/>
<path d="M443.523 181.24L448.449 184.132L446.415 186.166L443.523 181.24Z" fill="#C5C9D4"/>
<path d="M457.84 198.87C458.586 199.372 459.093 200.22 459.346 200.676L460.325 199.697L458.667 198.04L457.84 198.868V198.87Z" fill="#6A7690"/>
<path d="M472.057 208.12L453.911 189.972L452.254 191.629L458.667 198.04L460.323 199.698L470.402 209.775L472.057 208.12Z" fill="#ACB3C2"/>
<path d="M470.615 209.561L471.814 208.362L472.149 208.698C472.335 208.883 472.335 209.186 472.149 209.372L471.624 209.896C471.439 210.082 471.136 210.082 470.951 209.896L470.615 209.561Z" fill="#6A7690"/>
<path d="M475.416 213.178C474.669 213.924 473.454 213.924 472.705 213.178C471.957 212.432 471.959 211.216 472.705 210.468C473.451 209.719 474.667 209.722 475.416 210.468C476.164 211.214 476.162 212.43 475.416 213.178ZM473.165 210.928C472.673 211.421 472.673 212.225 473.165 212.718C473.658 213.211 474.462 213.211 474.955 212.718C475.448 212.225 475.448 211.421 474.955 210.928C474.462 210.435 473.658 210.435 473.165 210.928Z" fill="#9CA3B5"/>
<path d="M471.641 209.88L472.121 209.4L472.998 210.278C473.127 210.406 473.127 210.613 472.998 210.741L472.982 210.758C472.854 210.886 472.647 210.886 472.518 210.758L471.641 209.88Z" fill="#838DA3"/>
<path d="M453.506 192.877L454.347 193.718L456.493 192.551L455.649 191.71L453.506 192.877Z" fill="#737F96"/>
<path d="M456.504 191.88C456.655 192.031 456.713 192.252 456.655 192.456L456.597 192.659L456.304 192.366L454.101 193.565C453.87 193.691 453.587 193.649 453.403 193.465L453.148 193.209C452.98 193.042 452.929 192.793 453.017 192.575L453.068 192.445L453.317 192.693L455.521 191.494C455.751 191.368 456.035 191.41 456.218 191.594L456.504 191.88Z" fill="white"/>
<path d="M453.316 192.691L453.068 192.442L453.016 192.573C452.989 192.642 452.977 192.712 452.975 192.784C453.035 192.852 453.316 192.691 453.316 192.691Z" fill="white"/>
<path d="M456.303 192.366L456.596 192.659L456.654 192.457C456.67 192.401 456.677 192.343 456.677 192.287C456.693 192.159 456.305 192.366 456.305 192.366H456.303Z" fill="white"/>
<path d="M459.317 194.69C459.468 194.841 459.526 195.062 459.468 195.267L459.41 195.469L459.117 195.176L456.913 196.376C456.683 196.501 456.399 196.459 456.216 196.276L455.96 196.02C455.793 195.853 455.742 195.604 455.83 195.385L455.881 195.255L456.13 195.504L458.333 194.304C458.564 194.179 458.847 194.221 459.031 194.404L459.317 194.69Z" fill="#2B2B2A"/>
<path d="M456.314 195.69L457.158 196.532L459.302 195.365L458.46 194.523L456.314 195.69Z" fill="#737F96"/>
<path d="M459.317 194.69C459.468 194.841 459.526 195.062 459.468 195.267L459.41 195.469L459.117 195.176L456.913 196.376C456.683 196.501 456.399 196.459 456.216 196.276L455.96 196.02C455.793 195.853 455.742 195.604 455.83 195.385L455.881 195.255L456.13 195.504L458.333 194.304C458.564 194.179 458.847 194.221 459.031 194.404L459.317 194.69Z" fill="white"/>
<path d="M456.129 195.504L455.88 195.255L455.829 195.385C455.801 195.455 455.789 195.525 455.787 195.597C455.848 195.664 456.129 195.504 456.129 195.504Z" fill="white"/>
<path d="M459.117 195.178L459.41 195.471L459.468 195.269C459.484 195.213 459.491 195.155 459.491 195.099C459.508 194.971 459.12 195.178 459.12 195.178H459.117Z" fill="white"/>
<path d="M462.129 197.503C462.28 197.654 462.338 197.875 462.28 198.079L462.222 198.282L461.929 197.989L459.726 199.188C459.495 199.314 459.212 199.272 459.028 199.088L458.773 198.832C458.605 198.665 458.554 198.416 458.642 198.198L458.693 198.068L458.942 198.316L461.146 197.117C461.376 196.991 461.66 197.033 461.843 197.217L462.129 197.503Z" fill="#2B2B2A"/>
<path d="M459.127 198.503L459.968 199.344L462.114 198.177L461.273 197.336L459.127 198.503Z" fill="#737F96"/>
<path d="M462.129 197.503C462.28 197.654 462.338 197.875 462.28 198.079L462.222 198.282L461.929 197.989L459.726 199.188C459.495 199.314 459.212 199.272 459.028 199.088L458.773 198.832C458.605 198.665 458.554 198.416 458.642 198.198L458.693 198.068L458.942 198.316L461.146 197.117C461.376 196.991 461.66 197.033 461.843 197.217L462.129 197.503Z" fill="white"/>
<path d="M458.941 198.317L458.693 198.068L458.641 198.199C458.614 198.268 458.602 198.338 458.6 198.41C458.66 198.477 458.941 198.317 458.941 198.317Z" fill="white"/>
<path d="M461.93 197.989L462.223 198.282L462.281 198.08C462.297 198.024 462.304 197.966 462.304 197.91C462.32 197.782 461.932 197.989 461.932 197.989H461.93Z" fill="white"/>
<path d="M464.942 200.316C465.093 200.467 465.151 200.688 465.093 200.893L465.035 201.095L464.742 200.802L462.538 202.002C462.308 202.127 462.024 202.085 461.841 201.902L461.585 201.646C461.418 201.479 461.367 201.23 461.455 201.011L461.506 200.881L461.755 201.13L463.958 199.93C464.189 199.805 464.472 199.847 464.656 200.03L464.942 200.316Z" fill="#2B2B2A"/>
<path d="M461.939 201.316L462.781 202.157L464.927 200.99L464.085 200.146L461.939 201.316Z" fill="#737F96"/>
<path d="M464.942 200.316C465.093 200.467 465.151 200.688 465.093 200.893L465.035 201.095L464.742 200.802L462.538 202.002C462.308 202.127 462.024 202.085 461.841 201.902L461.585 201.646C461.418 201.479 461.367 201.23 461.455 201.011L461.506 200.881L461.755 201.13L463.958 199.93C464.189 199.805 464.472 199.847 464.656 200.03L464.942 200.316Z" fill="white"/>
<path d="M461.756 201.128L461.507 200.879L461.456 201.009C461.428 201.079 461.416 201.149 461.414 201.221C461.475 201.288 461.756 201.128 461.756 201.128Z" fill="white"/>
<path d="M464.742 200.801L465.035 201.094L465.093 200.892C465.109 200.836 465.116 200.778 465.116 200.722C465.133 200.595 464.745 200.801 464.745 200.801H464.742Z" fill="white"/>
<path d="M467.754 203.129C467.905 203.28 467.963 203.501 467.905 203.705L467.847 203.908L467.554 203.615L465.351 204.814C465.12 204.94 464.837 204.898 464.653 204.714L464.398 204.458C464.23 204.291 464.179 204.042 464.267 203.824L464.318 203.694L464.567 203.942L466.771 202.743C467.001 202.617 467.285 202.659 467.468 202.843L467.754 203.129Z" fill="#2B2B2A"/>
<path d="M464.754 204.126L465.595 204.97L467.741 203.8L466.899 202.959L464.754 204.126Z" fill="#737F96"/>
<path d="M467.754 203.129C467.905 203.28 467.963 203.501 467.905 203.705L467.847 203.908L467.554 203.615L465.351 204.814C465.12 204.94 464.837 204.898 464.653 204.714L464.398 204.458C464.23 204.291 464.179 204.042 464.267 203.824L464.318 203.694L464.567 203.942L466.771 202.743C467.001 202.617 467.285 202.659 467.468 202.843L467.754 203.129Z" fill="white"/>
<path d="M464.568 203.94L464.32 203.691L464.268 203.822C464.241 203.891 464.229 203.961 464.227 204.033C464.287 204.101 464.568 203.94 464.568 203.94Z" fill="white"/>
<path d="M467.553 203.615L467.846 203.908L467.904 203.706C467.92 203.65 467.927 203.592 467.927 203.536C467.943 203.408 467.555 203.615 467.555 203.615H467.553Z" fill="white"/>
<path d="M470.565 205.941C470.716 206.092 470.774 206.313 470.716 206.518L470.658 206.72L470.365 206.427L468.161 207.627C467.931 207.752 467.647 207.71 467.464 207.527L467.208 207.271C467.041 207.104 466.99 206.855 467.078 206.636L467.129 206.506L467.378 206.755L469.581 205.555C469.812 205.43 470.095 205.472 470.279 205.655L470.565 205.941Z" fill="#2B2B2A"/>
<path d="M467.566 206.938L468.408 207.78L470.553 206.613L469.71 205.771L467.566 206.938Z" fill="#737F96"/>
<path d="M470.565 205.941C470.716 206.092 470.774 206.313 470.716 206.518L470.658 206.72L470.365 206.427L468.161 207.627C467.931 207.752 467.647 207.71 467.464 207.527L467.208 207.271C467.041 207.104 466.99 206.855 467.078 206.636L467.129 206.506L467.378 206.755L469.581 205.555C469.812 205.43 470.095 205.472 470.279 205.655L470.565 205.941Z" fill="white"/>
<path d="M467.377 206.753L467.128 206.504L467.077 206.634C467.049 206.704 467.037 206.774 467.035 206.846C467.096 206.913 467.377 206.753 467.377 206.753Z" fill="white"/>
<path d="M470.365 206.427L470.658 206.72L470.716 206.518C470.733 206.462 470.739 206.404 470.739 206.348C470.756 206.22 470.368 206.427 470.368 206.427H470.365Z" fill="white"/>
<rect x="82.5" y="156.5" width="282" height="79" rx="19.5" stroke="#E5E7EB"/>
<circle cx="124" cy="196" r="30" fill="#3585B1"/>
<g clip-path="url(#clip0_754_25515)">
<path d="M137.862 183.728C134.632 182.889 131.486 181.754 128.464 180.334L125.648 179.015V217.268L133.589 210.495C137.249 207.37 139.557 202.931 140.02 198.118L141.32 184.627L137.862 183.728Z" fill="#EAF0FF"/>
<path d="M122.831 180.336C119.806 181.754 116.66 182.891 113.432 183.73L109.975 184.629L111.274 198.12C111.737 202.933 114.045 207.375 117.705 210.497L125.646 217.27V179.015L122.831 180.334V180.336Z" fill="#9CA3B5"/>
<path d="M125.646 179.818C125.963 179.818 126.22 179.559 126.22 179.24C126.22 178.92 125.963 178.661 125.646 178.661C125.329 178.661 125.072 178.92 125.072 179.24C125.072 179.559 125.329 179.818 125.646 179.818Z" fill="white"/>
<path d="M125.673 190.998L125.647 191.025V215.998H124.197L125.647 217.269L136.023 208.194L137.755 203.181L125.673 190.998Z" fill="#9CA3B5"/>
<path d="M125.646 191.024L113.854 202.918L115.961 208.79L124.197 215.998H125.646V191.024Z" fill="#4A556C"/>
<path d="M125.646 180.719L127.415 181.549C130.875 183.172 134.502 184.48 138.197 185.441L139.406 185.755L138.244 197.813C137.814 202.279 135.707 206.336 132.309 209.233L125.646 214.919L118.983 209.233C115.585 206.336 113.478 202.279 113.048 197.813L111.885 185.755L113.094 185.441C116.79 184.482 120.417 183.172 123.877 181.549L125.646 180.719ZM125.646 177.6C125.207 177.6 124.768 177.695 124.36 177.887L122.575 178.723C119.276 180.27 115.846 181.507 112.324 182.424L110.718 182.842C109.474 183.165 108.647 184.355 108.772 185.646L109.975 198.116C110.48 203.365 112.997 208.207 116.989 211.614L125.648 219.002L134.308 211.614C138.299 208.207 140.816 203.365 141.322 198.116L142.524 185.646C142.648 184.355 141.822 183.165 140.576 182.842L138.97 182.424C135.448 181.509 132.018 180.27 128.719 178.723L126.934 177.887C126.526 177.695 126.087 177.6 125.648 177.6H125.646Z" fill="#4A556C"/>
</g>
<path d="M115.698 217.241C115.698 216.269 114.91 215.482 113.939 215.482C112.967 215.482 112.18 216.269 112.18 217.241C112.18 218.212 112.967 219 113.939 219C114.91 219 115.698 218.212 115.698 217.241Z" fill="#9CA3B5"/>
<path d="M115.698 217.241C115.698 216.938 115.622 216.654 115.487 216.405C115.487 216.405 115.171 216.12 113.939 216.12C112.707 216.12 112.391 216.405 112.391 216.405C112.256 216.654 112.18 216.938 112.18 217.241C112.18 218.212 112.967 219 113.939 219C114.91 219 115.698 218.212 115.698 217.241Z" fill="white"/>
<path d="M112.636 215.679L112.197 208.446L115.682 208.446L115.243 215.679L112.636 215.679Z" fill="#4A556C"/>
<path d="M115.703 212.421L115.743 211.749C115.755 211.544 115.594 211.371 115.388 211.371L112.487 211.371C112.281 211.371 112.12 211.544 112.131 211.749L112.172 212.421C112.184 212.608 112.339 212.756 112.528 212.756L115.347 212.756C115.536 212.756 115.691 212.61 115.703 212.421Z" fill="#A8B2C7"/>
<path d="M112.032 210.098L112.073 210.77C112.085 210.957 112.239 211.105 112.428 211.105L115.448 211.105C115.637 211.105 115.792 210.959 115.804 210.77L115.845 210.098C115.857 209.894 115.695 209.721 115.489 209.721L112.387 209.721C112.182 209.721 112.02 209.894 112.032 210.098Z" fill="#A8B2C7"/>
<path d="M115.904 209.124L115.938 208.561C115.95 208.356 115.788 208.183 115.582 208.183L112.294 208.183C112.088 208.183 111.926 208.356 111.938 208.561L111.972 209.124C111.984 209.311 112.139 209.459 112.328 209.459L115.548 209.459C115.737 209.459 115.892 209.313 115.904 209.124Z" fill="#A8B2C7"/>
<path d="M115.603 214.069L115.644 213.397C115.656 213.193 115.494 213.019 115.288 213.019L112.587 213.019C112.381 213.019 112.219 213.193 112.231 213.397L112.272 214.069C112.284 214.256 112.439 214.404 112.628 214.404L115.246 214.404C115.435 214.404 115.59 214.258 115.602 214.069L115.603 214.069Z" fill="#A8B2C7"/>
<path d="M115.189 214.668L112.688 214.668C112.482 214.668 112.321 214.842 112.333 215.046L112.367 215.609C112.379 215.796 112.533 215.944 112.722 215.944L115.155 215.944C115.344 215.944 115.499 215.798 115.511 215.609L115.545 215.046C115.557 214.842 115.395 214.668 115.189 214.668Z" fill="#A8B2C7"/>
<path d="M115.335 208.227C115.467 208.169 115.6 208.106 115.733 208.038C115.799 208.004 115.865 207.97 115.93 207.934C116.784 207.47 118.908 205.947 119.483 205.863C119.379 206.09 119.338 206.352 119.391 206.627C119.494 207.165 119.949 207.58 120.493 207.635C121.245 207.709 121.878 207.122 121.878 206.386C121.878 206.083 121.771 205.804 121.591 205.588L121.591 205.584C121.565 205.555 121.54 205.527 121.512 205.501C120.114 204.108 117.259 206.336 115.129 207.17C114.361 207.471 113.514 207.471 112.749 207.17C110.618 206.335 107.764 204.106 106.365 205.501C106.338 205.528 106.312 205.555 106.287 205.584L106.287 205.588C106.081 205.838 105.969 206.168 106.008 206.524C106.069 207.102 106.535 207.57 107.112 207.633C107.869 207.716 108.509 207.126 108.509 206.386C108.509 206.199 108.466 206.022 108.393 205.862C109.342 206.091 111.093 207.468 111.945 207.932C112.012 207.968 112.077 208.002 112.143 208.036C112.276 208.104 112.408 208.167 112.541 208.225C113.007 208.426 113.477 208.56 113.936 208.57C114.395 208.558 114.865 208.426 115.331 208.225L115.335 208.227Z" fill="white"/>
<path d="M106.762 205.952C107.272 205.756 108.036 205.891 108.511 206.388C108.511 206.201 108.468 206.024 108.395 205.864C107.355 205.578 106.762 205.95 106.762 205.95L106.762 205.952Z" fill="#9CA3B5"/>
<path d="M119.389 206.619C119.546 206.349 120.572 205.772 120.99 205.911C120.91 205.733 120.425 205.634 119.483 205.865C119.379 206.09 119.338 206.347 119.389 206.619Z" fill="#9CA3B5"/>
<path d="M106.286 205.585C106.312 205.556 106.337 205.527 106.365 205.501C107.778 204.093 110.679 206.384 112.816 207.198C113.538 207.473 114.337 207.473 115.06 207.198C117.197 206.384 120.098 204.093 121.512 205.501C121.539 205.529 121.565 205.556 121.59 205.585L121.59 205.588C121.769 205.806 121.878 206.083 121.878 206.386C121.878 206.083 121.878 205.185 121.107 204.804C119.28 203.89 115.889 206.483 113.941 206.532C111.993 206.483 108.602 203.888 106.775 204.804C106.004 205.185 106.004 206.083 106.004 206.386C106.004 206.083 106.111 205.804 106.291 205.588L106.291 205.585L106.286 205.585Z" fill="#9CA3B5"/>
<path d="M115.621 206.556L115.453 177.677L113.939 173L112.424 177.677L112.256 206.556C113.328 207.032 114.549 207.032 115.621 206.556Z" fill="white"/>
<path d="M113.91 206.912C114.494 206.915 115.077 206.798 115.622 206.556L115.453 177.677L113.939 173L113.91 206.912Z" fill="#CED2DA"/>
<path d="M113.898 180.636C113.679 180.636 113.502 180.813 113.502 181.033L113.502 206.89C113.766 206.917 114.031 206.919 114.295 206.897L114.295 181.033C114.295 180.813 114.118 180.636 113.898 180.636Z" fill="#8C95A9"/>
<path d="M181.998 179.172V189H179.604V183.106L177.406 189H175.474L173.262 183.092V189H170.868V179.172H173.696L176.454 185.976L179.184 179.172H181.998ZM187.276 189.112C186.51 189.112 185.82 188.949 185.204 188.622C184.597 188.295 184.116 187.829 183.762 187.222C183.416 186.615 183.244 185.906 183.244 185.094C183.244 184.291 183.421 183.587 183.776 182.98C184.13 182.364 184.616 181.893 185.232 181.566C185.848 181.239 186.538 181.076 187.304 181.076C188.069 181.076 188.76 181.239 189.376 181.566C189.992 181.893 190.477 182.364 190.832 182.98C191.186 183.587 191.364 184.291 191.364 185.094C191.364 185.897 191.182 186.606 190.818 187.222C190.463 187.829 189.973 188.295 189.348 188.622C188.732 188.949 188.041 189.112 187.276 189.112ZM187.276 187.04C187.733 187.04 188.12 186.872 188.438 186.536C188.764 186.2 188.928 185.719 188.928 185.094C188.928 184.469 188.769 183.988 188.452 183.652C188.144 183.316 187.761 183.148 187.304 183.148C186.837 183.148 186.45 183.316 186.142 183.652C185.834 183.979 185.68 184.459 185.68 185.094C185.68 185.719 185.829 186.2 186.128 186.536C186.436 186.872 186.818 187.04 187.276 187.04ZM192.158 185.08C192.158 184.277 192.307 183.573 192.606 182.966C192.914 182.359 193.329 181.893 193.852 181.566C194.374 181.239 194.958 181.076 195.602 181.076C196.115 181.076 196.582 181.183 197.002 181.398C197.431 181.613 197.767 181.902 198.01 182.266V178.64H200.404V189H198.01V187.88C197.786 188.253 197.464 188.552 197.044 188.776C196.633 189 196.152 189.112 195.602 189.112C194.958 189.112 194.374 188.949 193.852 188.622C193.329 188.286 192.914 187.815 192.606 187.208C192.307 186.592 192.158 185.883 192.158 185.08ZM198.01 185.094C198.01 184.497 197.842 184.025 197.506 183.68C197.179 183.335 196.778 183.162 196.302 183.162C195.826 183.162 195.42 183.335 195.084 183.68C194.757 184.016 194.594 184.483 194.594 185.08C194.594 185.677 194.757 186.153 195.084 186.508C195.42 186.853 195.826 187.026 196.302 187.026C196.778 187.026 197.179 186.853 197.506 186.508C197.842 186.163 198.01 185.691 198.01 185.094ZM209.5 184.968C209.5 185.192 209.486 185.425 209.458 185.668H204.04C204.077 186.153 204.231 186.527 204.502 186.788C204.782 187.04 205.122 187.166 205.524 187.166C206.121 187.166 206.536 186.914 206.77 186.41H209.318C209.187 186.923 208.949 187.385 208.604 187.796C208.268 188.207 207.843 188.529 207.33 188.762C206.816 188.995 206.242 189.112 205.608 189.112C204.842 189.112 204.161 188.949 203.564 188.622C202.966 188.295 202.5 187.829 202.164 187.222C201.828 186.615 201.66 185.906 201.66 185.094C201.66 184.282 201.823 183.573 202.15 182.966C202.486 182.359 202.952 181.893 203.55 181.566C204.147 181.239 204.833 181.076 205.608 181.076C206.364 181.076 207.036 181.235 207.624 181.552C208.212 181.869 208.669 182.322 208.996 182.91C209.332 183.498 209.5 184.184 209.5 184.968ZM207.05 184.338C207.05 183.927 206.91 183.601 206.63 183.358C206.35 183.115 206 182.994 205.58 182.994C205.178 182.994 204.838 183.111 204.558 183.344C204.287 183.577 204.119 183.909 204.054 184.338H207.05ZM213.157 182.49C213.437 182.061 213.787 181.725 214.207 181.482C214.627 181.23 215.093 181.104 215.607 181.104V183.638H214.949C214.351 183.638 213.903 183.769 213.605 184.03C213.306 184.282 213.157 184.73 213.157 185.374V189H210.763V181.188H213.157V182.49ZM216.275 185.08C216.275 184.277 216.424 183.573 216.723 182.966C217.031 182.359 217.446 181.893 217.969 181.566C218.491 181.239 219.075 181.076 219.719 181.076C220.269 181.076 220.75 181.188 221.161 181.412C221.581 181.636 221.903 181.93 222.127 182.294V181.188H224.521V189H222.127V187.894C221.893 188.258 221.567 188.552 221.147 188.776C220.736 189 220.255 189.112 219.705 189.112C219.07 189.112 218.491 188.949 217.969 188.622C217.446 188.286 217.031 187.815 216.723 187.208C216.424 186.592 216.275 185.883 216.275 185.08ZM222.127 185.094C222.127 184.497 221.959 184.025 221.623 183.68C221.296 183.335 220.895 183.162 220.419 183.162C219.943 183.162 219.537 183.335 219.201 183.68C218.874 184.016 218.711 184.483 218.711 185.08C218.711 185.677 218.874 186.153 219.201 186.508C219.537 186.853 219.943 187.026 220.419 187.026C220.895 187.026 221.296 186.853 221.623 186.508C221.959 186.163 222.127 185.691 222.127 185.094ZM230.607 186.97V189H229.389C228.521 189 227.844 188.79 227.359 188.37C226.873 187.941 226.631 187.245 226.631 186.284V183.176H225.679V181.188H226.631V179.284H229.025V181.188H230.593V183.176H229.025V186.312C229.025 186.545 229.081 186.713 229.193 186.816C229.305 186.919 229.491 186.97 229.753 186.97H230.607ZM239.304 184.968C239.304 185.192 239.29 185.425 239.262 185.668H233.844C233.882 186.153 234.036 186.527 234.306 186.788C234.586 187.04 234.927 187.166 235.328 187.166C235.926 187.166 236.341 186.914 236.574 186.41H239.122C238.992 186.923 238.754 187.385 238.408 187.796C238.072 188.207 237.648 188.529 237.134 188.762C236.621 188.995 236.047 189.112 235.412 189.112C234.647 189.112 233.966 188.949 233.368 188.622C232.771 188.295 232.304 187.829 231.968 187.222C231.632 186.615 231.464 185.906 231.464 185.094C231.464 184.282 231.628 183.573 231.954 182.966C232.29 182.359 232.757 181.893 233.354 181.566C233.952 181.239 234.638 181.076 235.412 181.076C236.168 181.076 236.84 181.235 237.428 181.552C238.016 181.869 238.474 182.322 238.8 182.91C239.136 183.498 239.304 184.184 239.304 184.968ZM236.854 184.338C236.854 183.927 236.714 183.601 236.434 183.358C236.154 183.115 235.804 182.994 235.384 182.994C234.983 182.994 234.642 183.111 234.362 183.344C234.092 183.577 233.924 183.909 233.858 184.338H236.854Z" fill="#0198FF"/>
<path d="M175.232 210L173.312 206.664H172.268V210H170.9V201.66H173.78C174.42 201.66 174.96 201.772 175.4 201.996C175.848 202.22 176.18 202.52 176.396 202.896C176.62 203.272 176.732 203.692 176.732 204.156C176.732 204.7 176.572 205.196 176.252 205.644C175.94 206.084 175.456 206.384 174.8 206.544L176.864 210H175.232ZM172.268 205.572H173.78C174.292 205.572 174.676 205.444 174.932 205.188C175.196 204.932 175.328 204.588 175.328 204.156C175.328 203.724 175.2 203.388 174.944 203.148C174.688 202.9 174.3 202.776 173.78 202.776H172.268V205.572ZM184.542 206.532C184.542 206.78 184.526 207.004 184.494 207.204H179.442C179.482 207.732 179.678 208.156 180.03 208.476C180.382 208.796 180.814 208.956 181.326 208.956C182.062 208.956 182.582 208.648 182.886 208.032H184.362C184.162 208.64 183.798 209.14 183.27 209.532C182.75 209.916 182.102 210.108 181.326 210.108C180.694 210.108 180.126 209.968 179.622 209.688C179.126 209.4 178.734 209 178.446 208.488C178.166 207.968 178.026 207.368 178.026 206.688C178.026 206.008 178.162 205.412 178.434 204.9C178.714 204.38 179.102 203.98 179.598 203.7C180.102 203.42 180.678 203.28 181.326 203.28C181.95 203.28 182.506 203.416 182.994 203.688C183.482 203.96 183.862 204.344 184.134 204.84C184.406 205.328 184.542 205.892 184.542 206.532ZM183.114 206.1C183.106 205.596 182.926 205.192 182.574 204.888C182.222 204.584 181.786 204.432 181.266 204.432C180.794 204.432 180.39 204.584 180.054 204.888C179.718 205.184 179.518 205.588 179.454 206.1H183.114ZM190.964 205.08V206.232H186.032V205.08H190.964ZM194.504 204.504V208.164C194.504 208.412 194.56 208.592 194.672 208.704C194.792 208.808 194.992 208.86 195.272 208.86H196.112V210H195.032C194.416 210 193.944 209.856 193.616 209.568C193.288 209.28 193.124 208.812 193.124 208.164V204.504H192.344V203.388H193.124V201.744H194.504V203.388H196.112V204.504H194.504ZM203.433 206.532C203.433 206.78 203.417 207.004 203.385 207.204H198.333C198.373 207.732 198.569 208.156 198.921 208.476C199.273 208.796 199.705 208.956 200.217 208.956C200.953 208.956 201.473 208.648 201.777 208.032H203.253C203.053 208.64 202.689 209.14 202.161 209.532C201.641 209.916 200.993 210.108 200.217 210.108C199.585 210.108 199.017 209.968 198.513 209.688C198.017 209.4 197.625 209 197.337 208.488C197.057 207.968 196.917 207.368 196.917 206.688C196.917 206.008 197.053 205.412 197.325 204.9C197.605 204.38 197.993 203.98 198.489 203.7C198.993 203.42 199.569 203.28 200.217 203.28C200.841 203.28 201.397 203.416 201.885 203.688C202.373 203.96 202.753 204.344 203.025 204.84C203.297 205.328 203.433 205.892 203.433 206.532ZM202.005 206.1C201.997 205.596 201.817 205.192 201.465 204.888C201.113 204.584 200.677 204.432 200.157 204.432C199.685 204.432 199.281 204.584 198.945 204.888C198.609 205.184 198.409 205.588 198.345 206.1H202.005ZM207.179 210.108C206.659 210.108 206.191 210.016 205.775 209.832C205.367 209.64 205.043 209.384 204.803 209.064C204.563 208.736 204.435 208.372 204.419 207.972H205.835C205.859 208.252 205.991 208.488 206.231 208.68C206.479 208.864 206.787 208.956 207.155 208.956C207.539 208.956 207.835 208.884 208.043 208.74C208.259 208.588 208.367 208.396 208.367 208.164C208.367 207.916 208.247 207.732 208.007 207.612C207.775 207.492 207.403 207.36 206.891 207.216C206.395 207.08 205.991 206.948 205.679 206.82C205.367 206.692 205.095 206.496 204.863 206.232C204.639 205.968 204.527 205.62 204.527 205.188C204.527 204.836 204.631 204.516 204.839 204.228C205.047 203.932 205.343 203.7 205.727 203.532C206.119 203.364 206.567 203.28 207.071 203.28C207.823 203.28 208.427 203.472 208.883 203.856C209.347 204.232 209.595 204.748 209.627 205.404H208.259C208.235 205.108 208.115 204.872 207.899 204.696C207.683 204.52 207.391 204.432 207.023 204.432C206.663 204.432 206.387 204.5 206.195 204.636C206.003 204.772 205.907 204.952 205.907 205.176C205.907 205.352 205.971 205.5 206.099 205.62C206.227 205.74 206.383 205.836 206.567 205.908C206.751 205.972 207.023 206.056 207.383 206.16C207.863 206.288 208.255 206.42 208.559 206.556C208.871 206.684 209.139 206.876 209.363 207.132C209.587 207.388 209.703 207.728 209.711 208.152C209.711 208.528 209.607 208.864 209.399 209.16C209.191 209.456 208.895 209.688 208.511 209.856C208.135 210.024 207.691 210.108 207.179 210.108ZM212.785 204.504V208.164C212.785 208.412 212.841 208.592 212.953 208.704C213.073 208.808 213.273 208.86 213.553 208.86H214.393V210H213.313C212.697 210 212.225 209.856 211.897 209.568C211.569 209.28 211.405 208.812 211.405 208.164V204.504H210.625V203.388H211.405V201.744H212.785V203.388H214.393V204.504H212.785Z" fill="#9CA3AF"/>
<path d="M170 211.2H214.753V211.8H170V211.2Z" fill="#9CA3AF"/>
<rect x="419.5" y="57.5" width="282" height="79" rx="19.5" stroke="#E5E7EB"/>
<path d="M518.998 80.172V90H516.604V84.106L514.406 90H512.474L510.262 84.092V90H507.868V80.172H510.696L513.454 86.976L516.184 80.172H518.998ZM524.276 90.112C523.51 90.112 522.82 89.9487 522.204 89.622C521.597 89.2953 521.116 88.8287 520.762 88.222C520.416 87.6153 520.244 86.906 520.244 86.094C520.244 85.2913 520.421 84.5867 520.776 83.98C521.13 83.364 521.616 82.8927 522.232 82.566C522.848 82.2393 523.538 82.076 524.304 82.076C525.069 82.076 525.76 82.2393 526.376 82.566C526.992 82.8927 527.477 83.364 527.832 83.98C528.186 84.5867 528.364 85.2913 528.364 86.094C528.364 86.8967 528.182 87.606 527.818 88.222C527.463 88.8287 526.973 89.2953 526.348 89.622C525.732 89.9487 525.041 90.112 524.276 90.112ZM524.276 88.04C524.733 88.04 525.12 87.872 525.438 87.536C525.764 87.2 525.928 86.7193 525.928 86.094C525.928 85.4687 525.769 84.988 525.452 84.652C525.144 84.316 524.761 84.148 524.304 84.148C523.837 84.148 523.45 84.316 523.142 84.652C522.834 84.9787 522.68 85.4593 522.68 86.094C522.68 86.7193 522.829 87.2 523.128 87.536C523.436 87.872 523.818 88.04 524.276 88.04ZM529.158 86.08C529.158 85.2773 529.307 84.5727 529.606 83.966C529.914 83.3593 530.329 82.8927 530.852 82.566C531.374 82.2393 531.958 82.076 532.602 82.076C533.115 82.076 533.582 82.1833 534.002 82.398C534.431 82.6127 534.767 82.902 535.01 83.266V79.64H537.404V90H535.01V88.88C534.786 89.2533 534.464 89.552 534.044 89.776C533.633 90 533.152 90.112 532.602 90.112C531.958 90.112 531.374 89.9487 530.852 89.622C530.329 89.286 529.914 88.8147 529.606 88.208C529.307 87.592 529.158 86.8827 529.158 86.08ZM535.01 86.094C535.01 85.4967 534.842 85.0253 534.506 84.68C534.179 84.3347 533.778 84.162 533.302 84.162C532.826 84.162 532.42 84.3347 532.084 84.68C531.757 85.016 531.594 85.4827 531.594 86.08C531.594 86.6773 531.757 87.1533 532.084 87.508C532.42 87.8533 532.826 88.026 533.302 88.026C533.778 88.026 534.179 87.8533 534.506 87.508C534.842 87.1627 535.01 86.6913 535.01 86.094ZM546.5 85.968C546.5 86.192 546.486 86.4253 546.458 86.668H541.04C541.077 87.1533 541.231 87.5267 541.502 87.788C541.782 88.04 542.122 88.166 542.524 88.166C543.121 88.166 543.536 87.914 543.77 87.41H546.318C546.187 87.9233 545.949 88.3853 545.604 88.796C545.268 89.2067 544.843 89.5287 544.33 89.762C543.816 89.9953 543.242 90.112 542.608 90.112C541.842 90.112 541.161 89.9487 540.564 89.622C539.966 89.2953 539.5 88.8287 539.164 88.222C538.828 87.6153 538.66 86.906 538.66 86.094C538.66 85.282 538.823 84.5727 539.15 83.966C539.486 83.3593 539.952 82.8927 540.55 82.566C541.147 82.2393 541.833 82.076 542.608 82.076C543.364 82.076 544.036 82.2347 544.624 82.552C545.212 82.8693 545.669 83.322 545.996 83.91C546.332 84.498 546.5 85.184 546.5 85.968ZM544.05 85.338C544.05 84.9273 543.91 84.6007 543.63 84.358C543.35 84.1153 543 83.994 542.58 83.994C542.178 83.994 541.838 84.1107 541.558 84.344C541.287 84.5773 541.119 84.9087 541.054 85.338H544.05ZM550.157 83.49C550.437 83.0607 550.787 82.7247 551.207 82.482C551.627 82.23 552.093 82.104 552.607 82.104V84.638H551.949C551.351 84.638 550.903 84.7687 550.605 85.03C550.306 85.282 550.157 85.73 550.157 86.374V90H547.763V82.188H550.157V83.49ZM553.275 86.08C553.275 85.2773 553.424 84.5727 553.723 83.966C554.031 83.3593 554.446 82.8927 554.969 82.566C555.491 82.2393 556.075 82.076 556.719 82.076C557.269 82.076 557.75 82.188 558.161 82.412C558.581 82.636 558.903 82.93 559.127 83.294V82.188H561.521V90H559.127V88.894C558.893 89.258 558.567 89.552 558.147 89.776C557.736 90 557.255 90.112 556.705 90.112C556.07 90.112 555.491 89.9487 554.969 89.622C554.446 89.286 554.031 88.8147 553.723 88.208C553.424 87.592 553.275 86.8827 553.275 86.08ZM559.127 86.094C559.127 85.4967 558.959 85.0253 558.623 84.68C558.296 84.3347 557.895 84.162 557.419 84.162C556.943 84.162 556.537 84.3347 556.201 84.68C555.874 85.016 555.711 85.4827 555.711 86.08C555.711 86.6773 555.874 87.1533 556.201 87.508C556.537 87.8533 556.943 88.026 557.419 88.026C557.895 88.026 558.296 87.8533 558.623 87.508C558.959 87.1627 559.127 86.6913 559.127 86.094ZM567.607 87.97V90H566.389C565.521 90 564.844 89.79 564.359 89.37C563.873 88.9407 563.631 88.2453 563.631 87.284V84.176H562.679V82.188H563.631V80.284H566.025V82.188H567.593V84.176H566.025V87.312C566.025 87.5453 566.081 87.7133 566.193 87.816C566.305 87.9187 566.491 87.97 566.753 87.97H567.607ZM576.304 85.968C576.304 86.192 576.29 86.4253 576.262 86.668H570.844C570.882 87.1533 571.036 87.5267 571.306 87.788C571.586 88.04 571.927 88.166 572.328 88.166C572.926 88.166 573.341 87.914 573.574 87.41H576.122C575.992 87.9233 575.754 88.3853 575.408 88.796C575.072 89.2067 574.648 89.5287 574.134 89.762C573.621 89.9953 573.047 90.112 572.412 90.112C571.647 90.112 570.966 89.9487 570.368 89.622C569.771 89.2953 569.304 88.8287 568.968 88.222C568.632 87.6153 568.464 86.906 568.464 86.094C568.464 85.282 568.628 84.5727 568.954 83.966C569.29 83.3593 569.757 82.8927 570.354 82.566C570.952 82.2393 571.638 82.076 572.412 82.076C573.168 82.076 573.84 82.2347 574.428 82.552C575.016 82.8693 575.474 83.322 575.8 83.91C576.136 84.498 576.304 85.184 576.304 85.968ZM573.854 85.338C573.854 84.9273 573.714 84.6007 573.434 84.358C573.154 84.1153 572.804 83.994 572.384 83.994C571.983 83.994 571.642 84.1107 571.362 84.344C571.092 84.5773 570.924 84.9087 570.858 85.338H573.854ZM579.961 79.64V90H577.567V79.64H579.961ZM589.676 82.188L584.776 93.71H582.2L583.992 89.734L580.814 82.188H583.488L585.294 87.074L587.086 82.188H589.676ZM593.033 86.08C593.033 85.2773 593.182 84.5727 593.481 83.966C593.789 83.3593 594.204 82.8927 594.727 82.566C595.249 82.2393 595.833 82.076 596.477 82.076C597.027 82.076 597.508 82.188 597.919 82.412C598.339 82.636 598.661 82.93 598.885 83.294V82.188H601.279V90H598.885V88.894C598.651 89.258 598.325 89.552 597.905 89.776C597.494 90 597.013 90.112 596.463 90.112C595.828 90.112 595.249 89.9487 594.727 89.622C594.204 89.286 593.789 88.8147 593.481 88.208C593.182 87.592 593.033 86.8827 593.033 86.08ZM598.885 86.094C598.885 85.4967 598.717 85.0253 598.381 84.68C598.054 84.3347 597.653 84.162 597.177 84.162C596.701 84.162 596.295 84.3347 595.959 84.68C595.632 85.016 595.469 85.4827 595.469 86.08C595.469 86.6773 595.632 87.1533 595.959 87.508C596.295 87.8533 596.701 88.026 597.177 88.026C597.653 88.026 598.054 87.8533 598.381 87.508C598.717 87.1627 598.885 86.6913 598.885 86.094ZM605.979 82.076C606.529 82.076 607.01 82.188 607.421 82.412C607.841 82.636 608.163 82.93 608.387 83.294V82.188H610.781V89.986C610.781 90.7047 610.636 91.3533 610.347 91.932C610.067 92.52 609.633 92.9867 609.045 93.332C608.466 93.6773 607.743 93.85 606.875 93.85C605.717 93.85 604.779 93.5747 604.061 93.024C603.342 92.4827 602.931 91.7453 602.829 90.812H605.195C605.269 91.1107 605.447 91.344 605.727 91.512C606.007 91.6893 606.352 91.778 606.763 91.778C607.257 91.778 607.649 91.6333 607.939 91.344C608.237 91.064 608.387 90.6113 608.387 89.986V88.88C608.153 89.244 607.831 89.5427 607.421 89.776C607.01 90 606.529 90.112 605.979 90.112C605.335 90.112 604.751 89.9487 604.229 89.622C603.706 89.286 603.291 88.8147 602.983 88.208C602.684 87.592 602.535 86.8827 602.535 86.08C602.535 85.2773 602.684 84.5727 602.983 83.966C603.291 83.3593 603.706 82.8927 604.229 82.566C604.751 82.2393 605.335 82.076 605.979 82.076ZM608.387 86.094C608.387 85.4967 608.219 85.0253 607.883 84.68C607.556 84.3347 607.155 84.162 606.679 84.162C606.203 84.162 605.797 84.3347 605.461 84.68C605.134 85.016 604.971 85.4827 604.971 86.08C604.971 86.6773 605.134 87.1533 605.461 87.508C605.797 87.8533 606.203 88.026 606.679 88.026C607.155 88.026 607.556 87.8533 607.883 87.508C608.219 87.1627 608.387 86.6913 608.387 86.094ZM615.481 82.076C616.031 82.076 616.512 82.188 616.923 82.412C617.343 82.636 617.665 82.93 617.889 83.294V82.188H620.283V89.986C620.283 90.7047 620.138 91.3533 619.849 91.932C619.569 92.52 619.135 92.9867 618.547 93.332C617.968 93.6773 617.245 93.85 616.377 93.85C615.219 93.85 614.281 93.5747 613.563 93.024C612.844 92.4827 612.433 91.7453 612.331 90.812H614.697C614.771 91.1107 614.949 91.344 615.229 91.512C615.509 91.6893 615.854 91.778 616.265 91.778C616.759 91.778 617.151 91.6333 617.441 91.344C617.739 91.064 617.889 90.6113 617.889 89.986V88.88C617.655 89.244 617.333 89.5427 616.923 89.776C616.512 90 616.031 90.112 615.481 90.112C614.837 90.112 614.253 89.9487 613.731 89.622C613.208 89.286 612.793 88.8147 612.485 88.208C612.186 87.592 612.037 86.8827 612.037 86.08C612.037 85.2773 612.186 84.5727 612.485 83.966C612.793 83.3593 613.208 82.8927 613.731 82.566C614.253 82.2393 614.837 82.076 615.481 82.076ZM617.889 86.094C617.889 85.4967 617.721 85.0253 617.385 84.68C617.058 84.3347 616.657 84.162 616.181 84.162C615.705 84.162 615.299 84.3347 614.963 84.68C614.636 85.016 614.473 85.4827 614.473 86.08C614.473 86.6773 614.636 87.1533 614.963 87.508C615.299 87.8533 615.705 88.026 616.181 88.026C616.657 88.026 617.058 87.8533 617.385 87.508C617.721 87.1627 617.889 86.6913 617.889 86.094ZM624.408 83.49C624.688 83.0607 625.038 82.7247 625.458 82.482C625.878 82.23 626.345 82.104 626.858 82.104V84.638H626.2C625.603 84.638 625.155 84.7687 624.856 85.03C624.558 85.282 624.408 85.73 624.408 86.374V90H622.014V82.188H624.408V83.49ZM635.367 85.968C635.367 86.192 635.353 86.4253 635.325 86.668H629.907C629.944 87.1533 630.098 87.5267 630.369 87.788C630.649 88.04 630.989 88.166 631.391 88.166C631.988 88.166 632.403 87.914 632.637 87.41H635.185C635.054 87.9233 634.816 88.3853 634.471 88.796C634.135 89.2067 633.71 89.5287 633.197 89.762C632.683 89.9953 632.109 90.112 631.475 90.112C630.709 90.112 630.028 89.9487 629.431 89.622C628.833 89.2953 628.367 88.8287 628.031 88.222C627.695 87.6153 627.527 86.906 627.527 86.094C627.527 85.282 627.69 84.5727 628.017 83.966C628.353 83.3593 628.819 82.8927 629.417 82.566C630.014 82.2393 630.7 82.076 631.475 82.076C632.231 82.076 632.903 82.2347 633.491 82.552C634.079 82.8693 634.536 83.322 634.863 83.91C635.199 84.498 635.367 85.184 635.367 85.968ZM632.917 85.338C632.917 84.9273 632.777 84.6007 632.497 84.358C632.217 84.1153 631.867 83.994 631.447 83.994C631.045 83.994 630.705 84.1107 630.425 84.344C630.154 84.5773 629.986 84.9087 629.921 85.338H632.917ZM639.808 90.112C639.126 90.112 638.52 89.9953 637.988 89.762C637.456 89.5287 637.036 89.2113 636.728 88.81C636.42 88.3993 636.247 87.942 636.21 87.438H638.576C638.604 87.7087 638.73 87.928 638.954 88.096C639.178 88.264 639.453 88.348 639.78 88.348C640.078 88.348 640.307 88.292 640.466 88.18C640.634 88.0587 640.718 87.9047 640.718 87.718C640.718 87.494 640.601 87.3307 640.368 87.228C640.134 87.116 639.756 86.9947 639.234 86.864C638.674 86.7333 638.207 86.598 637.834 86.458C637.46 86.3087 637.138 86.08 636.868 85.772C636.597 85.4547 636.462 85.03 636.462 84.498C636.462 84.05 636.583 83.644 636.826 83.28C637.078 82.9067 637.442 82.6127 637.918 82.398C638.403 82.1833 638.977 82.076 639.64 82.076C640.62 82.076 641.39 82.3187 641.95 82.804C642.519 83.2893 642.846 83.9333 642.93 84.736H640.718C640.68 84.4653 640.559 84.2507 640.354 84.092C640.158 83.9333 639.896 83.854 639.57 83.854C639.29 83.854 639.075 83.91 638.926 84.022C638.776 84.1247 638.702 84.2693 638.702 84.456C638.702 84.68 638.818 84.848 639.052 84.96C639.294 85.072 639.668 85.184 640.172 85.296C640.75 85.4453 641.222 85.5947 641.586 85.744C641.95 85.884 642.267 86.1173 642.538 86.444C642.818 86.7613 642.962 87.1907 642.972 87.732C642.972 88.1893 642.841 88.6 642.58 88.964C642.328 89.3187 641.959 89.5987 641.474 89.804C640.998 90.0093 640.442 90.112 639.808 90.112ZM647.614 90.112C646.933 90.112 646.326 89.9953 645.794 89.762C645.262 89.5287 644.842 89.2113 644.534 88.81C644.226 88.3993 644.054 87.942 644.016 87.438H646.382C646.41 87.7087 646.536 87.928 646.76 88.096C646.984 88.264 647.26 88.348 647.586 88.348C647.885 88.348 648.114 88.292 648.272 88.18C648.44 88.0587 648.524 87.9047 648.524 87.718C648.524 87.494 648.408 87.3307 648.174 87.228C647.941 87.116 647.563 86.9947 647.04 86.864C646.48 86.7333 646.014 86.598 645.64 86.458C645.267 86.3087 644.945 86.08 644.674 85.772C644.404 85.4547 644.268 85.03 644.268 84.498C644.268 84.05 644.39 83.644 644.632 83.28C644.884 82.9067 645.248 82.6127 645.724 82.398C646.21 82.1833 646.784 82.076 647.446 82.076C648.426 82.076 649.196 82.3187 649.756 82.804C650.326 83.2893 650.652 83.9333 650.736 84.736H648.524C648.487 84.4653 648.366 84.2507 648.16 84.092C647.964 83.9333 647.703 83.854 647.376 83.854C647.096 83.854 646.882 83.91 646.732 84.022C646.583 84.1247 646.508 84.2693 646.508 84.456C646.508 84.68 646.625 84.848 646.858 84.96C647.101 85.072 647.474 85.184 647.978 85.296C648.557 85.4453 649.028 85.5947 649.392 85.744C649.756 85.884 650.074 86.1173 650.344 86.444C650.624 86.7613 650.769 87.1907 650.778 87.732C650.778 88.1893 650.648 88.6 650.386 88.964C650.134 89.3187 649.766 89.5987 649.28 89.804C648.804 90.0093 648.249 90.112 647.614 90.112ZM653.447 81.376C653.027 81.376 652.682 81.2547 652.411 81.012C652.15 80.76 652.019 80.452 652.019 80.088C652.019 79.7147 652.15 79.4067 652.411 79.164C652.682 78.912 653.027 78.786 653.447 78.786C653.858 78.786 654.194 78.912 654.455 79.164C654.726 79.4067 654.861 79.7147 654.861 80.088C654.861 80.452 654.726 80.76 654.455 81.012C654.194 81.2547 653.858 81.376 653.447 81.376ZM654.637 82.188V90H652.243V82.188H654.637ZM659.886 87.76L661.58 82.188H664.128L661.356 90H658.402L655.63 82.188H658.192L659.886 87.76ZM672.5 85.968C672.5 86.192 672.486 86.4253 672.458 86.668H667.04C667.077 87.1533 667.231 87.5267 667.502 87.788C667.782 88.04 668.122 88.166 668.524 88.166C669.121 88.166 669.536 87.914 669.77 87.41H672.318C672.187 87.9233 671.949 88.3853 671.604 88.796C671.268 89.2067 670.843 89.5287 670.33 89.762C669.816 89.9953 669.242 90.112 668.608 90.112C667.842 90.112 667.161 89.9487 666.564 89.622C665.966 89.2953 665.5 88.8287 665.164 88.222C664.828 87.6153 664.66 86.906 664.66 86.094C664.66 85.282 664.823 84.5727 665.15 83.966C665.486 83.3593 665.952 82.8927 666.55 82.566C667.147 82.2393 667.833 82.076 668.608 82.076C669.364 82.076 670.036 82.2347 670.624 82.552C671.212 82.8693 671.669 83.322 671.996 83.91C672.332 84.498 672.5 85.184 672.5 85.968ZM670.05 85.338C670.05 84.9273 669.91 84.6007 669.63 84.358C669.35 84.1153 669 83.994 668.58 83.994C668.178 83.994 667.838 84.1107 667.558 84.344C667.287 84.5773 667.119 84.9087 667.054 85.338H670.05Z" fill="#0198FF"/>
<path d="M512.232 111L510.312 107.664H509.268V111H507.9V102.66H510.78C511.42 102.66 511.96 102.772 512.4 102.996C512.848 103.22 513.18 103.52 513.396 103.896C513.62 104.272 513.732 104.692 513.732 105.156C513.732 105.7 513.572 106.196 513.252 106.644C512.94 107.084 512.456 107.384 511.8 107.544L513.864 111H512.232ZM509.268 106.572H510.78C511.292 106.572 511.676 106.444 511.932 106.188C512.196 105.932 512.328 105.588 512.328 105.156C512.328 104.724 512.2 104.388 511.944 104.148C511.688 103.9 511.3 103.776 510.78 103.776H509.268V106.572ZM521.542 107.532C521.542 107.78 521.526 108.004 521.494 108.204H516.442C516.482 108.732 516.678 109.156 517.03 109.476C517.382 109.796 517.814 109.956 518.326 109.956C519.062 109.956 519.582 109.648 519.886 109.032H521.362C521.162 109.64 520.798 110.14 520.27 110.532C519.75 110.916 519.102 111.108 518.326 111.108C517.694 111.108 517.126 110.968 516.622 110.688C516.126 110.4 515.734 110 515.446 109.488C515.166 108.968 515.026 108.368 515.026 107.688C515.026 107.008 515.162 106.412 515.434 105.9C515.714 105.38 516.102 104.98 516.598 104.7C517.102 104.42 517.678 104.28 518.326 104.28C518.95 104.28 519.506 104.416 519.994 104.688C520.482 104.96 520.862 105.344 521.134 105.84C521.406 106.328 521.542 106.892 521.542 107.532ZM520.114 107.1C520.106 106.596 519.926 106.192 519.574 105.888C519.222 105.584 518.786 105.432 518.266 105.432C517.794 105.432 517.39 105.584 517.054 105.888C516.718 106.184 516.518 106.588 516.454 107.1H520.114ZM527.964 106.08V107.232H523.032V106.08H527.964ZM531.504 105.504V109.164C531.504 109.412 531.56 109.592 531.672 109.704C531.792 109.808 531.992 109.86 532.272 109.86H533.112V111H532.032C531.416 111 530.944 110.856 530.616 110.568C530.288 110.28 530.124 109.812 530.124 109.164V105.504H529.344V104.388H530.124V102.744H531.504V104.388H533.112V105.504H531.504ZM540.433 107.532C540.433 107.78 540.417 108.004 540.385 108.204H535.333C535.373 108.732 535.569 109.156 535.921 109.476C536.273 109.796 536.705 109.956 537.217 109.956C537.953 109.956 538.473 109.648 538.777 109.032H540.253C540.053 109.64 539.689 110.14 539.161 110.532C538.641 110.916 537.993 111.108 537.217 111.108C536.585 111.108 536.017 110.968 535.513 110.688C535.017 110.4 534.625 110 534.337 109.488C534.057 108.968 533.917 108.368 533.917 107.688C533.917 107.008 534.053 106.412 534.325 105.9C534.605 105.38 534.993 104.98 535.489 104.7C535.993 104.42 536.569 104.28 537.217 104.28C537.841 104.28 538.397 104.416 538.885 104.688C539.373 104.96 539.753 105.344 540.025 105.84C540.297 106.328 540.433 106.892 540.433 107.532ZM539.005 107.1C538.997 106.596 538.817 106.192 538.465 105.888C538.113 105.584 537.677 105.432 537.157 105.432C536.685 105.432 536.281 105.584 535.945 105.888C535.609 106.184 535.409 106.588 535.345 107.1H539.005ZM544.179 111.108C543.659 111.108 543.191 111.016 542.775 110.832C542.367 110.64 542.043 110.384 541.803 110.064C541.563 109.736 541.435 109.372 541.419 108.972H542.835C542.859 109.252 542.991 109.488 543.231 109.68C543.479 109.864 543.787 109.956 544.155 109.956C544.539 109.956 544.835 109.884 545.043 109.74C545.259 109.588 545.367 109.396 545.367 109.164C545.367 108.916 545.247 108.732 545.007 108.612C544.775 108.492 544.403 108.36 543.891 108.216C543.395 108.08 542.991 107.948 542.679 107.82C542.367 107.692 542.095 107.496 541.863 107.232C541.639 106.968 541.527 106.62 541.527 106.188C541.527 105.836 541.631 105.516 541.839 105.228C542.047 104.932 542.343 104.7 542.727 104.532C543.119 104.364 543.567 104.28 544.071 104.28C544.823 104.28 545.427 104.472 545.883 104.856C546.347 105.232 546.595 105.748 546.627 106.404H545.259C545.235 106.108 545.115 105.872 544.899 105.696C544.683 105.52 544.391 105.432 544.023 105.432C543.663 105.432 543.387 105.5 543.195 105.636C543.003 105.772 542.907 105.952 542.907 106.176C542.907 106.352 542.971 106.5 543.099 106.62C543.227 106.74 543.383 106.836 543.567 106.908C543.751 106.972 544.023 107.056 544.383 107.16C544.863 107.288 545.255 107.42 545.559 107.556C545.871 107.684 546.139 107.876 546.363 108.132C546.587 108.388 546.703 108.728 546.711 109.152C546.711 109.528 546.607 109.864 546.399 110.16C546.191 110.456 545.895 110.688 545.511 110.856C545.135 111.024 544.691 111.108 544.179 111.108ZM549.785 105.504V109.164C549.785 109.412 549.841 109.592 549.953 109.704C550.073 109.808 550.273 109.86 550.553 109.86H551.393V111H550.313C549.697 111 549.225 110.856 548.897 110.568C548.569 110.28 548.405 109.812 548.405 109.164V105.504H547.625V104.388H548.405V102.744H549.785V104.388H551.393V105.504H549.785Z" fill="#9CA3AF"/>
<path d="M507 112.2H551.753V112.8H507V112.2Z" fill="#9CA3AF"/>
<circle cx="461" cy="97" r="30" fill="#7640AD"/>
<path d="M445.806 114.458C446.553 113.711 446.553 112.5 445.806 111.753C445.06 111.007 443.849 111.007 443.102 111.753C442.355 112.5 442.355 113.711 443.102 114.458C443.849 115.204 445.06 115.204 445.806 114.458Z" fill="#8C95A9"/>
<path d="M445.806 114.458C446.039 114.225 446.199 113.948 446.286 113.653C446.286 113.653 446.263 113.19 445.316 112.244C444.369 111.297 443.906 111.273 443.906 111.273C443.612 111.361 443.335 111.521 443.102 111.753C442.355 112.5 442.355 113.711 443.102 114.458C443.849 115.204 445.06 115.204 445.806 114.458Z" fill="white"/>
<path d="M444.654 110.904L449.875 105.008L452.553 107.686L446.657 112.907L444.654 110.904Z" fill="#5A6684"/>
<path d="M449.515 110.757L450.063 110.272C450.229 110.124 450.238 109.867 450.08 109.708L447.85 107.479C447.692 107.321 447.434 107.33 447.286 107.496L446.801 108.044C446.666 108.197 446.672 108.43 446.817 108.575L448.984 110.741C449.129 110.887 449.36 110.893 449.515 110.757Z" fill="#8C95A9"/>
<path d="M448.478 106.15L447.993 106.698C447.858 106.851 447.863 107.084 448.008 107.229L450.329 109.55C450.475 109.695 450.706 109.702 450.86 109.566L451.408 109.081C451.574 108.933 451.583 108.675 451.425 108.517L449.041 106.133C448.883 105.975 448.626 105.984 448.478 106.15Z" fill="#8C95A9"/>
<path d="M452.203 108.377L452.662 107.97C452.828 107.823 452.837 107.565 452.679 107.407L450.151 104.879C449.993 104.721 449.735 104.73 449.587 104.896L449.181 105.355C449.046 105.508 449.051 105.741 449.196 105.886L451.672 108.361C451.817 108.506 452.048 108.513 452.203 108.377Z" fill="#8C95A9"/>
<path d="M448.17 111.947L448.718 111.462C448.884 111.314 448.893 111.056 448.735 110.898L446.659 108.822C446.5 108.663 446.243 108.673 446.095 108.839L445.61 109.387C445.475 109.54 445.48 109.772 445.625 109.917L447.638 111.93C447.783 112.075 448.015 112.082 448.169 111.946L448.17 111.947Z" fill="#8C95A9"/>
<path d="M447.392 112.09L445.469 110.168C445.311 110.01 445.054 110.019 444.906 110.185L444.499 110.644C444.364 110.797 444.37 111.03 444.515 111.175L446.385 113.045C446.53 113.19 446.761 113.197 446.916 113.061L447.375 112.654C447.541 112.506 447.55 112.249 447.392 112.09Z" fill="#8C95A9"/>
<path d="M452.454 107.25C452.601 107.308 452.751 107.361 452.905 107.411C452.983 107.436 453.06 107.461 453.137 107.483C454.15 107.782 456.953 108.244 457.459 108.622C457.205 108.716 456.972 108.886 456.801 109.139C456.468 109.632 456.498 110.3 456.874 110.76C457.395 111.396 458.332 111.431 458.898 110.865C459.131 110.632 459.263 110.335 459.291 110.03L459.293 110.028C459.296 109.986 459.299 109.944 459.297 109.903C459.293 107.758 455.386 107.276 453.108 106.28C452.287 105.922 451.636 105.27 451.279 104.451C450.284 102.171 449.802 98.264 447.655 98.2614C447.613 98.2614 447.573 98.2627 447.531 98.2653L447.528 98.2679C447.178 98.3019 446.838 98.4693 446.595 98.7727C446.197 99.2643 446.196 99.9822 446.591 100.474C447.109 101.12 448.054 101.158 448.623 100.589C448.767 100.445 448.87 100.276 448.937 100.097C449.49 101.004 449.778 103.407 450.076 104.419C450.099 104.498 450.123 104.573 450.148 104.651C450.197 104.805 450.251 104.955 450.308 105.102C450.512 105.614 450.77 106.079 451.115 106.439C451.477 106.783 451.94 107.042 452.453 107.246L452.454 107.25Z" fill="white"/>
<path d="M447.614 98.9123C448.157 99.1542 448.641 99.8447 448.624 100.591C448.767 100.448 448.871 100.279 448.937 100.1C448.358 99.081 447.615 98.911 447.615 98.911L447.614 98.9123Z" fill="#8C95A9"/>
<path d="M456.806 109.13C457.134 109.043 458.366 109.388 458.58 109.817C458.656 109.618 458.359 109.169 457.457 108.623C457.205 108.716 456.976 108.882 456.806 109.13Z" fill="#8C95A9"/>
<path d="M447.532 98.2648C447.573 98.2622 447.615 98.2596 447.656 98.2609C449.825 98.2648 450.293 102.256 451.311 104.523C451.653 105.29 452.268 105.904 453.036 106.248C455.303 107.265 459.294 107.734 459.298 109.903C459.298 109.945 459.297 109.985 459.294 110.027L459.291 110.03C459.261 110.335 459.132 110.631 458.899 110.864C459.132 110.631 459.822 109.941 459.523 109.056C458.821 106.949 454.222 106.336 452.686 104.876C451.227 103.341 450.615 98.7408 448.507 98.0399C447.622 97.7404 446.931 98.4309 446.699 98.6637C446.931 98.4309 447.228 98.2988 447.533 98.2714L447.536 98.2687L447.532 98.2648Z" fill="#8C95A9"/>
<path d="M454.499 106.5L476.499 89.9997L478.457 79.1021L467.999 81.4997L450.999 103C451.457 104.19 453.309 106.042 454.499 106.5Z" fill="#EAF0FF"/>
<path fill-rule="evenodd" clip-rule="evenodd" d="M453.552 105.954L472.209 89.5003L474 84.5003L468.5 85.8511L451.547 103.95C452.07 104.669 452.833 105.432 453.552 105.954Z" fill="#BFC7DC"/>
<rect x="82.5" y="57.5" width="282" height="79" rx="19.5" stroke="#E5E7EB"/>
<circle cx="124" cy="97" r="30" fill="#399C37"/>
<g clip-path="url(#clip1_754_25515)">
<path d="M137.633 82.6609C134.123 81.7491 130.703 80.5155 127.417 78.9724L124.357 77.5381V119.118L132.988 111.755C136.967 108.36 139.475 103.534 139.979 98.3027L141.391 83.6381L137.633 82.6609Z" fill="#EAF0FF"/>
<path d="M121.296 78.9748C118.008 80.5155 114.589 81.7515 111.08 82.6633L107.322 83.6405L108.735 98.3051C109.238 103.537 111.747 108.364 115.725 111.758L124.356 119.12V77.5381L121.296 78.9724V78.9748Z" fill="#9CA3B5"/>
<path d="M124.356 78.411C124.7 78.411 124.979 78.1295 124.979 77.7822C124.979 77.4349 124.7 77.1533 124.356 77.1533C124.012 77.1533 123.732 77.4349 123.732 77.7822C123.732 78.1295 124.012 78.411 124.356 78.411Z" fill="white"/>
<path d="M124.384 90.5635L124.355 90.5925V117.738H122.779L124.355 119.119L135.633 109.255L137.516 103.806L124.384 90.5635Z" fill="#9CA3B5"/>
<path d="M124.355 90.5918L111.537 103.52L113.827 109.903L122.78 117.737H124.355V90.5918Z" fill="#4A556C"/>
<path d="M124.355 79.391L126.278 80.2932C130.038 82.0564 133.981 83.4786 137.998 84.5235L139.312 84.8646L138.048 97.9715C137.58 102.826 135.29 107.235 131.597 110.384L124.355 116.564L117.112 110.384C113.419 107.235 111.129 102.826 110.661 97.9715L109.397 84.8646L110.712 84.5235C114.728 83.4811 118.671 82.0564 122.431 80.2932L124.355 79.391ZM124.355 76C123.877 76 123.4 76.104 122.956 76.312L121.016 77.2214C117.431 78.9024 113.702 80.2472 109.875 81.2438L108.129 81.6985C106.776 82.0492 105.877 83.3432 106.014 84.746L107.321 98.3005C107.87 104.006 110.606 109.269 114.944 112.972L124.357 121.002L133.77 112.972C138.108 109.269 140.844 104.006 141.393 98.3005L142.7 84.746C142.835 83.3432 141.938 82.0492 140.583 81.6985L138.837 81.2438C135.009 80.2497 131.28 78.9024 127.695 77.2214L125.755 76.312C125.311 76.104 124.834 76 124.357 76H124.355Z" fill="#4A556C"/>
<path d="M130.635 80.8593C130.98 80.8593 131.259 80.5777 131.259 80.2304C131.259 79.8831 130.98 79.6016 130.635 79.6016C130.291 79.6016 130.012 79.8831 130.012 80.2304C130.012 80.5777 130.291 80.8593 130.635 80.8593Z" fill="white"/>
<path d="M118.04 80.8593C118.384 80.8593 118.663 80.5777 118.663 80.2304C118.663 79.8831 118.384 79.6016 118.04 79.6016C117.695 79.6016 117.416 79.8831 117.416 80.2304C117.416 80.5777 117.695 80.8593 118.04 80.8593Z" fill="#9CA3B5"/>
<path d="M140.19 83.953C140.534 83.953 140.813 83.6715 140.813 83.3242C140.813 82.9769 140.534 82.6953 140.19 82.6953C139.846 82.6953 139.566 82.9769 139.566 83.3242C139.566 83.6715 139.846 83.953 140.19 83.953Z" fill="white"/>
<path d="M108.647 83.953C108.991 83.953 109.27 83.6715 109.27 83.3242C109.27 82.9769 108.991 82.6953 108.647 82.6953C108.303 82.6953 108.023 82.9769 108.023 83.3242C108.023 83.6715 108.303 83.953 108.647 83.953Z" fill="#9CA3B5"/>
<path d="M108.647 92.8974C108.991 92.8974 109.27 92.6158 109.27 92.2685C109.27 91.9212 108.991 91.6396 108.647 91.6396C108.303 91.6396 108.023 91.9212 108.023 92.2685C108.023 92.6158 108.303 92.8974 108.647 92.8974Z" fill="#9CA3B5"/>
<path d="M140.19 92.8974C140.534 92.8974 140.813 92.6158 140.813 92.2685C140.813 91.9212 140.534 91.6396 140.19 91.6396C139.846 91.6396 139.566 91.9212 139.566 92.2685C139.566 92.6158 139.846 92.8974 140.19 92.8974Z" fill="white"/>
<path d="M109.606 101.839C109.95 101.839 110.229 101.557 110.229 101.21C110.229 100.863 109.95 100.581 109.606 100.581C109.262 100.581 108.982 100.863 108.982 101.21C108.982 101.557 109.262 101.839 109.606 101.839Z" fill="#9CA3B5"/>
<path d="M139.231 101.839C139.575 101.839 139.854 101.557 139.854 101.21C139.854 100.863 139.575 100.581 139.231 100.581C138.887 100.581 138.607 100.863 138.607 101.21C138.607 101.557 138.887 101.839 139.231 101.839Z" fill="white"/>
<path d="M113.204 109.255C113.548 109.255 113.827 108.973 113.827 108.626C113.827 108.279 113.548 107.997 113.204 107.997C112.859 107.997 112.58 108.279 112.58 108.626C112.58 108.973 112.859 109.255 113.204 109.255Z" fill="#9CA3B5"/>
<path d="M119.499 115.266C119.843 115.266 120.122 114.984 120.122 114.637C120.122 114.289 119.843 114.008 119.499 114.008C119.154 114.008 118.875 114.289 118.875 114.637C118.875 114.984 119.154 115.266 119.499 115.266Z" fill="#9CA3B5"/>
<path d="M129.211 115.266C129.556 115.266 129.835 114.984 129.835 114.637C129.835 114.289 129.556 114.008 129.211 114.008C128.867 114.008 128.588 114.289 128.588 114.637C128.588 114.984 128.867 115.266 129.211 115.266Z" fill="white"/>
<path d="M135.633 109.255C135.978 109.255 136.257 108.973 136.257 108.626C136.257 108.279 135.978 107.997 135.633 107.997C135.289 107.997 135.01 108.279 135.01 108.626C135.01 108.973 135.289 109.255 135.633 109.255Z" fill="white"/>
</g>
<path d="M170.462 85.072C170.462 84.1013 170.672 83.238 171.092 82.482C171.512 81.7167 172.095 81.124 172.842 80.704C173.598 80.2747 174.452 80.06 175.404 80.06C176.571 80.06 177.569 80.368 178.4 80.984C179.231 81.6 179.786 82.44 180.066 83.504H177.434C177.238 83.0933 176.958 82.7807 176.594 82.566C176.239 82.3513 175.833 82.244 175.376 82.244C174.639 82.244 174.041 82.5007 173.584 83.014C173.127 83.5273 172.898 84.2133 172.898 85.072C172.898 85.9307 173.127 86.6167 173.584 87.13C174.041 87.6433 174.639 87.9 175.376 87.9C175.833 87.9 176.239 87.7927 176.594 87.578C176.958 87.3633 177.238 87.0507 177.434 86.64H180.066C179.786 87.704 179.231 88.544 178.4 89.16C177.569 89.7667 176.571 90.07 175.404 90.07C174.452 90.07 173.598 89.86 172.842 89.44C172.095 89.0107 171.512 88.418 171.092 87.662C170.672 86.906 170.462 86.0427 170.462 85.072ZM185.088 90.112C184.323 90.112 183.632 89.9487 183.016 89.622C182.409 89.2953 181.929 88.8287 181.574 88.222C181.229 87.6153 181.056 86.906 181.056 86.094C181.056 85.2913 181.233 84.5867 181.588 83.98C181.943 83.364 182.428 82.8927 183.044 82.566C183.66 82.2393 184.351 82.076 185.116 82.076C185.881 82.076 186.572 82.2393 187.188 82.566C187.804 82.8927 188.289 83.364 188.644 83.98C188.999 84.5867 189.176 85.2913 189.176 86.094C189.176 86.8967 188.994 87.606 188.63 88.222C188.275 88.8287 187.785 89.2953 187.16 89.622C186.544 89.9487 185.853 90.112 185.088 90.112ZM185.088 88.04C185.545 88.04 185.933 87.872 186.25 87.536C186.577 87.2 186.74 86.7193 186.74 86.094C186.74 85.4687 186.581 84.988 186.264 84.652C185.956 84.316 185.573 84.148 185.116 84.148C184.649 84.148 184.262 84.316 183.954 84.652C183.646 84.9787 183.492 85.4593 183.492 86.094C183.492 86.7193 183.641 87.2 183.94 87.536C184.248 87.872 184.631 88.04 185.088 88.04ZM195.206 82.104C196.121 82.104 196.849 82.4027 197.39 83C197.941 83.588 198.216 84.4 198.216 85.436V90H195.836V85.758C195.836 85.2353 195.701 84.8293 195.43 84.54C195.159 84.2507 194.795 84.106 194.338 84.106C193.881 84.106 193.517 84.2507 193.246 84.54C192.975 84.8293 192.84 85.2353 192.84 85.758V90H190.446V82.188H192.84V83.224C193.083 82.8787 193.409 82.608 193.82 82.412C194.231 82.2067 194.693 82.104 195.206 82.104ZM203.058 90.112C202.376 90.112 201.77 89.9953 201.238 89.762C200.706 89.5287 200.286 89.2113 199.978 88.81C199.67 88.3993 199.497 87.942 199.46 87.438H201.826C201.854 87.7087 201.98 87.928 202.204 88.096C202.428 88.264 202.703 88.348 203.03 88.348C203.328 88.348 203.557 88.292 203.716 88.18C203.884 88.0587 203.968 87.9047 203.968 87.718C203.968 87.494 203.851 87.3307 203.618 87.228C203.384 87.116 203.006 86.9947 202.484 86.864C201.924 86.7333 201.457 86.598 201.084 86.458C200.71 86.3087 200.388 86.08 200.118 85.772C199.847 85.4547 199.712 85.03 199.712 84.498C199.712 84.05 199.833 83.644 200.076 83.28C200.328 82.9067 200.692 82.6127 201.168 82.398C201.653 82.1833 202.227 82.076 202.89 82.076C203.87 82.076 204.64 82.3187 205.2 82.804C205.769 83.2893 206.096 83.9333 206.18 84.736H203.968C203.93 84.4653 203.809 84.2507 203.604 84.092C203.408 83.9333 203.146 83.854 202.82 83.854C202.54 83.854 202.325 83.91 202.176 84.022C202.026 84.1247 201.952 84.2693 201.952 84.456C201.952 84.68 202.068 84.848 202.302 84.96C202.544 85.072 202.918 85.184 203.422 85.296C204 85.4453 204.472 85.5947 204.836 85.744C205.2 85.884 205.517 86.1173 205.788 86.444C206.068 86.7613 206.212 87.1907 206.222 87.732C206.222 88.1893 206.091 88.6 205.83 88.964C205.578 89.3187 205.209 89.5987 204.724 89.804C204.248 90.0093 203.692 90.112 203.058 90.112ZM215.05 85.968C215.05 86.192 215.036 86.4253 215.008 86.668H209.59C209.628 87.1533 209.782 87.5267 210.052 87.788C210.332 88.04 210.673 88.166 211.074 88.166C211.672 88.166 212.087 87.914 212.32 87.41H214.868C214.738 87.9233 214.5 88.3853 214.154 88.796C213.818 89.2067 213.394 89.5287 212.88 89.762C212.367 89.9953 211.793 90.112 211.158 90.112C210.393 90.112 209.712 89.9487 209.114 89.622C208.517 89.2953 208.05 88.8287 207.714 88.222C207.378 87.6153 207.21 86.906 207.21 86.094C207.21 85.282 207.374 84.5727 207.7 83.966C208.036 83.3593 208.503 82.8927 209.1 82.566C209.698 82.2393 210.384 82.076 211.158 82.076C211.914 82.076 212.586 82.2347 213.174 82.552C213.762 82.8693 214.22 83.322 214.546 83.91C214.882 84.498 215.05 85.184 215.05 85.968ZM212.6 85.338C212.6 84.9273 212.46 84.6007 212.18 84.358C211.9 84.1153 211.55 83.994 211.13 83.994C210.729 83.994 210.388 84.1107 210.108 84.344C209.838 84.5773 209.67 84.9087 209.604 85.338H212.6ZM218.707 83.49C218.987 83.0607 219.337 82.7247 219.757 82.482C220.177 82.23 220.644 82.104 221.157 82.104V84.638H220.499C219.902 84.638 219.454 84.7687 219.155 85.03C218.857 85.282 218.707 85.73 218.707 86.374V90H216.313V82.188H218.707V83.49ZM225.816 87.76L227.51 82.188H230.058L227.286 90H224.332L221.56 82.188H224.122L225.816 87.76ZM230.589 86.08C230.589 85.2773 230.739 84.5727 231.037 83.966C231.345 83.3593 231.761 82.8927 232.283 82.566C232.806 82.2393 233.389 82.076 234.033 82.076C234.584 82.076 235.065 82.188 235.475 82.412C235.895 82.636 236.217 82.93 236.441 83.294V82.188H238.835V90H236.441V88.894C236.208 89.258 235.881 89.552 235.461 89.776C235.051 90 234.57 90.112 234.019 90.112C233.385 90.112 232.806 89.9487 232.283 89.622C231.761 89.286 231.345 88.8147 231.037 88.208C230.739 87.592 230.589 86.8827 230.589 86.08ZM236.441 86.094C236.441 85.4967 236.273 85.0253 235.937 84.68C235.611 84.3347 235.209 84.162 234.733 84.162C234.257 84.162 233.851 84.3347 233.515 84.68C233.189 85.016 233.025 85.4827 233.025 86.08C233.025 86.6773 233.189 87.1533 233.515 87.508C233.851 87.8533 234.257 88.026 234.733 88.026C235.209 88.026 235.611 87.8533 235.937 87.508C236.273 87.1627 236.441 86.6913 236.441 86.094ZM244.921 87.97V90H243.703C242.835 90 242.159 89.79 241.673 89.37C241.188 88.9407 240.945 88.2453 240.945 87.284V84.176H239.993V82.188H240.945V80.284H243.339V82.188H244.907V84.176H243.339V87.312C243.339 87.5453 243.395 87.7133 243.507 87.816C243.619 87.9187 243.806 87.97 244.067 87.97H244.921ZM247.459 81.376C247.039 81.376 246.693 81.2547 246.423 81.012C246.161 80.76 246.031 80.452 246.031 80.088C246.031 79.7147 246.161 79.4067 246.423 79.164C246.693 78.912 247.039 78.786 247.459 78.786C247.869 78.786 248.205 78.912 248.467 79.164C248.737 79.4067 248.873 79.7147 248.873 80.088C248.873 80.452 248.737 80.76 248.467 81.012C248.205 81.2547 247.869 81.376 247.459 81.376ZM248.649 82.188V90H246.255V82.188H248.649ZM253.898 87.76L255.592 82.188H258.14L255.368 90H252.414L249.642 82.188H252.204L253.898 87.76ZM266.511 85.968C266.511 86.192 266.497 86.4253 266.469 86.668H261.051C261.089 87.1533 261.243 87.5267 261.513 87.788C261.793 88.04 262.134 88.166 262.535 88.166C263.133 88.166 263.548 87.914 263.781 87.41H266.329C266.199 87.9233 265.961 88.3853 265.615 88.796C265.279 89.2067 264.855 89.5287 264.341 89.762C263.828 89.9953 263.254 90.112 262.619 90.112C261.854 90.112 261.173 89.9487 260.575 89.622C259.978 89.2953 259.511 88.8287 259.175 88.222C258.839 87.6153 258.671 86.906 258.671 86.094C258.671 85.282 258.835 84.5727 259.161 83.966C259.497 83.3593 259.964 82.8927 260.561 82.566C261.159 82.2393 261.845 82.076 262.619 82.076C263.375 82.076 264.047 82.2347 264.635 82.552C265.223 82.8693 265.681 83.322 266.007 83.91C266.343 84.498 266.511 85.184 266.511 85.968ZM264.061 85.338C264.061 84.9273 263.921 84.6007 263.641 84.358C263.361 84.1153 263.011 83.994 262.591 83.994C262.19 83.994 261.849 84.1107 261.569 84.344C261.299 84.5773 261.131 84.9087 261.065 85.338H264.061Z" fill="#0198FF"/>
<path d="M175.232 111L173.312 107.664H172.268V111H170.9V102.66H173.78C174.42 102.66 174.96 102.772 175.4 102.996C175.848 103.22 176.18 103.52 176.396 103.896C176.62 104.272 176.732 104.692 176.732 105.156C176.732 105.7 176.572 106.196 176.252 106.644C175.94 107.084 175.456 107.384 174.8 107.544L176.864 111H175.232ZM172.268 106.572H173.78C174.292 106.572 174.676 106.444 174.932 106.188C175.196 105.932 175.328 105.588 175.328 105.156C175.328 104.724 175.2 104.388 174.944 104.148C174.688 103.9 174.3 103.776 173.78 103.776H172.268V106.572ZM184.542 107.532C184.542 107.78 184.526 108.004 184.494 108.204H179.442C179.482 108.732 179.678 109.156 180.03 109.476C180.382 109.796 180.814 109.956 181.326 109.956C182.062 109.956 182.582 109.648 182.886 109.032H184.362C184.162 109.64 183.798 110.14 183.27 110.532C182.75 110.916 182.102 111.108 181.326 111.108C180.694 111.108 180.126 110.968 179.622 110.688C179.126 110.4 178.734 110 178.446 109.488C178.166 108.968 178.026 108.368 178.026 107.688C178.026 107.008 178.162 106.412 178.434 105.9C178.714 105.38 179.102 104.98 179.598 104.7C180.102 104.42 180.678 104.28 181.326 104.28C181.95 104.28 182.506 104.416 182.994 104.688C183.482 104.96 183.862 105.344 184.134 105.84C184.406 106.328 184.542 106.892 184.542 107.532ZM183.114 107.1C183.106 106.596 182.926 106.192 182.574 105.888C182.222 105.584 181.786 105.432 181.266 105.432C180.794 105.432 180.39 105.584 180.054 105.888C179.718 106.184 179.518 106.588 179.454 107.1H183.114ZM190.964 106.08V107.232H186.032V106.08H190.964ZM194.504 105.504V109.164C194.504 109.412 194.56 109.592 194.672 109.704C194.792 109.808 194.992 109.86 195.272 109.86H196.112V111H195.032C194.416 111 193.944 110.856 193.616 110.568C193.288 110.28 193.124 109.812 193.124 109.164V105.504H192.344V104.388H193.124V102.744H194.504V104.388H196.112V105.504H194.504ZM203.433 107.532C203.433 107.78 203.417 108.004 203.385 108.204H198.333C198.373 108.732 198.569 109.156 198.921 109.476C199.273 109.796 199.705 109.956 200.217 109.956C200.953 109.956 201.473 109.648 201.777 109.032H203.253C203.053 109.64 202.689 110.14 202.161 110.532C201.641 110.916 200.993 111.108 200.217 111.108C199.585 111.108 199.017 110.968 198.513 110.688C198.017 110.4 197.625 110 197.337 109.488C197.057 108.968 196.917 108.368 196.917 107.688C196.917 107.008 197.053 106.412 197.325 105.9C197.605 105.38 197.993 104.98 198.489 104.7C198.993 104.42 199.569 104.28 200.217 104.28C200.841 104.28 201.397 104.416 201.885 104.688C202.373 104.96 202.753 105.344 203.025 105.84C203.297 106.328 203.433 106.892 203.433 107.532ZM202.005 107.1C201.997 106.596 201.817 106.192 201.465 105.888C201.113 105.584 200.677 105.432 200.157 105.432C199.685 105.432 199.281 105.584 198.945 105.888C198.609 106.184 198.409 106.588 198.345 107.1H202.005ZM207.179 111.108C206.659 111.108 206.191 111.016 205.775 110.832C205.367 110.64 205.043 110.384 204.803 110.064C204.563 109.736 204.435 109.372 204.419 108.972H205.835C205.859 109.252 205.991 109.488 206.231 109.68C206.479 109.864 206.787 109.956 207.155 109.956C207.539 109.956 207.835 109.884 208.043 109.74C208.259 109.588 208.367 109.396 208.367 109.164C208.367 108.916 208.247 108.732 208.007 108.612C207.775 108.492 207.403 108.36 206.891 108.216C206.395 108.08 205.991 107.948 205.679 107.82C205.367 107.692 205.095 107.496 204.863 107.232C204.639 106.968 204.527 106.62 204.527 106.188C204.527 105.836 204.631 105.516 204.839 105.228C205.047 104.932 205.343 104.7 205.727 104.532C206.119 104.364 206.567 104.28 207.071 104.28C207.823 104.28 208.427 104.472 208.883 104.856C209.347 105.232 209.595 105.748 209.627 106.404H208.259C208.235 106.108 208.115 105.872 207.899 105.696C207.683 105.52 207.391 105.432 207.023 105.432C206.663 105.432 206.387 105.5 206.195 105.636C206.003 105.772 205.907 105.952 205.907 106.176C205.907 106.352 205.971 106.5 206.099 106.62C206.227 106.74 206.383 106.836 206.567 106.908C206.751 106.972 207.023 107.056 207.383 107.16C207.863 107.288 208.255 107.42 208.559 107.556C208.871 107.684 209.139 107.876 209.363 108.132C209.587 108.388 209.703 108.728 209.711 109.152C209.711 109.528 209.607 109.864 209.399 110.16C209.191 110.456 208.895 110.688 208.511 110.856C208.135 111.024 207.691 111.108 207.179 111.108ZM212.785 105.504V109.164C212.785 109.412 212.841 109.592 212.953 109.704C213.073 109.808 213.273 109.86 213.553 109.86H214.393V111H213.313C212.697 111 212.225 110.856 211.897 110.568C211.569 110.28 211.405 109.812 211.405 109.164V105.504H210.625V104.388H211.405V102.744H212.785V104.388H214.393V105.504H212.785Z" fill="#9CA3AF"/>
<path d="M170 112.2H214.753V112.8H170V112.2Z" fill="#9CA3AF"/>
<defs>
<clipPath id="clip0_754_25515">
<rect width="33.7737" height="41.4" fill="white" transform="translate(108.76 177.6)"/>
</clipPath>
<clipPath id="clip1_754_25515">
<rect width="36.7105" height="45" fill="white" transform="translate(106 76)"/>
</clipPath>
</defs>
</svg>
