<svg width="12" height="20" viewBox="0 0 12 20" fill="none" xmlns="http://www.w3.org/2000/svg">
<path d="M3.55001 9.99962L10.9 17.3496C11.15 17.5996 11.2708 17.8913 11.2625 18.2246C11.2542 18.558 11.125 18.8496 10.875 19.0996C10.625 19.3496 10.3333 19.4746 10 19.4746C9.66668 19.4746 9.37501 19.3496 9.12501 19.0996L1.42501 11.4246C1.22501 11.2246 1.07501 10.9996 0.975012 10.7496C0.875012 10.4996 0.825012 10.2496 0.825012 9.99962C0.825012 9.74962 0.875012 9.49962 0.975012 9.24962C1.07501 8.99962 1.22501 8.77462 1.42501 8.57462L9.12501 0.874622C9.37501 0.624622 9.67085 0.503789 10.0125 0.512122C10.3542 0.520455 10.65 0.649622 10.9 0.899622C11.15 1.14962 11.275 1.44129 11.275 1.77462C11.275 2.10796 11.15 2.39962 10.9 2.64962L3.55001 9.99962Z" fill="#343A3F"/>
</svg>
