<svg width="16" height="9" viewBox="0 0 16 9" fill="none" xmlns="http://www.w3.org/2000/svg">
<path d="M8.00065 6.16667L13.8757 0.291667C14.0701 0.0972223 14.3062 1.52373e-08 14.584 1.19249e-08C14.8618 8.61241e-09 15.0979 0.0972222 15.2923 0.291667C15.4868 0.486111 15.584 0.722222 15.584 1C15.584 1.27778 15.4868 1.51389 15.2923 1.70833L9.06315 7.9375C8.91037 8.09028 8.74371 8.20139 8.56315 8.27083C8.3826 8.34028 8.1951 8.375 8.00065 8.375C7.80621 8.375 7.61871 8.34028 7.43815 8.27083C7.2576 8.20139 7.09093 8.09028 6.93815 7.9375L0.708984 1.70833C0.51454 1.51389 0.417317 1.27778 0.417317 1C0.417317 0.722222 0.51454 0.486111 0.708984 0.291667C0.903429 0.0972224 1.13954 1.72248e-07 1.41732 1.68936e-07C1.6951 1.65623e-07 1.93121 0.0972224 2.12565 0.291667L8.00065 6.16667Z" fill="#C1C7CD"/>
</svg>
