<svg width="10" height="16" viewBox="0 0 10 16" fill="none" xmlns="http://www.w3.org/2000/svg">
<path d="M7.04167 7.99966L0.916666 1.87467C0.708333 1.66633 0.607638 1.42328 0.614583 1.1455C0.621527 0.86772 0.729166 0.624665 0.9375 0.416331C1.14583 0.207998 1.38889 0.103831 1.66667 0.103831C1.94444 0.103831 2.1875 0.207998 2.39583 0.416331L8.8125 6.81216C8.97917 6.97883 9.10417 7.16633 9.1875 7.37466C9.27083 7.583 9.3125 7.79133 9.3125 7.99966C9.3125 8.208 9.27083 8.41633 9.1875 8.62466C9.10417 8.833 8.97917 9.0205 8.8125 9.18716L2.39583 15.6038C2.1875 15.8122 1.94097 15.9129 1.65625 15.9059C1.37153 15.899 1.125 15.7913 0.916667 15.583C0.708334 15.3747 0.604167 15.1316 0.604167 14.8538C0.604167 14.5761 0.708334 14.333 0.916667 14.1247L7.04167 7.99966Z" fill="#C1C7CD"/>
</svg>
