<svg width="20" height="12" viewBox="0 0 20 12" fill="none" xmlns="http://www.w3.org/2000/svg">
<path d="M10.0001 8.45078L17.3501 1.10078C17.6001 0.850781 17.8918 0.729947 18.2251 0.73828C18.5584 0.746614 18.8501 0.87578 19.1001 1.12578C19.3501 1.37578 19.4751 1.66745 19.4751 2.00078C19.4751 2.33411 19.3501 2.62578 19.1001 2.87578L11.4251 10.5758C11.2251 10.7758 11.0001 10.9258 10.7501 11.0258C10.5001 11.1258 10.2501 11.1758 10.0001 11.1758C9.75011 11.1758 9.50011 11.1258 9.25011 11.0258C9.00011 10.9258 8.77511 10.7758 8.57511 10.5758L0.87511 2.87578C0.62511 2.62578 0.504277 2.32995 0.51261 1.98828C0.520943 1.64661 0.65011 1.35078 0.90011 1.10078C1.15011 0.850781 1.44178 0.725781 1.77511 0.725781C2.10844 0.725781 2.40011 0.850781 2.65011 1.10078L10.0001 8.45078Z" fill="#343A3F"/>
</svg>
