<svg width="36" height="36" viewBox="0 0 36 36" fill="none" xmlns="http://www.w3.org/2000/svg">
<rect width="36" height="36" rx="6.85714" fill="#F7F8FA"/>
<path fill-rule="evenodd" clip-rule="evenodd" d="M17.9998 27.8154L23.4998 20.9404L19.7187 20.9404L22.4686 9.94088L13.5311 9.94088L16.281 20.9404L12.4998 20.9404L17.9998 27.8154Z" fill="url(#paint0_linear_3003_47143)"/>
<path fill-rule="evenodd" clip-rule="evenodd" d="M24.4167 19.5654L27.625 15.555L25.4192 15.555L26.823 9.9398L22.0106 9.9398L23.4144 15.555L21.2083 15.555L24.4167 19.5654Z" fill="url(#paint1_linear_3003_47143)"/>
<path fill-rule="evenodd" clip-rule="evenodd" d="M12.5001 19.5654L16.625 14.4093L13.789 14.4093L15.5939 7.18946L9.40649 7.18946L11.2114 14.4093L8.37512 14.4093L12.5001 19.5654Z" fill="url(#paint2_linear_3003_47143)"/>
<defs>
<linearGradient id="paint0_linear_3003_47143" x1="17.9998" y1="26.3259" x2="17.9998" y2="9.94088" gradientUnits="userSpaceOnUse">
<stop offset="0.44619" stop-color="#0F62FE"/>
<stop offset="1" stop-color="#0F62FE" stop-opacity="0"/>
</linearGradient>
<linearGradient id="paint1_linear_3003_47143" x1="24.4167" y1="18.7633" x2="24.4167" y2="9.9398" gradientUnits="userSpaceOnUse">
<stop offset="0.44619" stop-color="#0F62FE"/>
<stop offset="1" stop-color="#0F62FE" stop-opacity="0"/>
</linearGradient>
<linearGradient id="paint2_linear_3003_47143" x1="12.5001" y1="18.5341" x2="12.5001" y2="7.18946" gradientUnits="userSpaceOnUse">
<stop offset="0.44619" stop-color="#0F62FE"/>
<stop offset="1" stop-color="#0F62FE" stop-opacity="0"/>
</linearGradient>
</defs>
</svg>
