<svg width="327" height="40" viewBox="0 0 327 40" fill="none" xmlns="http://www.w3.org/2000/svg">
<path d="M2 12.5L6.11429 9.60345L7.64706 11.1455L14 6.5" stroke="#844DFA" stroke-width="2" stroke-linecap="round" stroke-linejoin="round"/>
<path d="M18.9395 15V5.80859H22.2148C24.3477 5.80859 25.4014 7.00195 25.4014 8.69043C25.4014 9.92822 24.8428 10.8677 23.7256 11.2803L25.7568 15H24.1699L22.3037 11.5342H22.2148H20.3359V15H18.9395ZM20.3359 10.3281H22.0752C23.4336 10.3281 23.9922 9.73145 23.9922 8.69043C23.9922 7.64941 23.4336 7.00195 22.0752 7.00195H20.3359V10.3281ZM28.7656 15L26.2139 5.80859H27.6865L29.4766 12.918H29.5527L31.4189 5.80859H32.8662L34.7324 12.918H34.8086L36.5986 5.80859H38.0713L35.5195 15H34.1104L32.1807 8.13184H32.1045L30.1748 15H28.7656ZM40.6104 5.80859V15H39.2139V5.80859H40.6104ZM45.3711 5.42773C47.123 5.42773 48.4307 6.53223 48.4307 8.13184C48.4307 9.54102 47.415 10.563 45.9805 10.7852V12.5879C46.9897 12.5435 47.999 12.4673 48.9385 12.3467L49.0273 13.248C46.6279 13.667 43.9746 13.6797 42.0068 13.667L41.8164 12.6768C42.6987 12.6704 43.7144 12.6641 44.7744 12.6387V10.7852C43.3018 10.5757 42.2988 9.54736 42.3115 8.13184C42.2988 6.53223 43.5811 5.42773 45.3711 5.42773ZM45.3711 6.44336C44.2793 6.45605 43.4795 7.11621 43.4795 8.13184C43.4795 9.14746 44.2793 9.82031 45.3711 9.80762C46.4502 9.82031 47.2373 9.14746 47.25 8.13184C47.2373 7.11621 46.4502 6.45605 45.3711 6.44336ZM50.8301 4.7041V9.3252H52.582V10.3408H50.8301V16.0791H49.624V4.7041H50.8301Z" fill="#878D96"/>
<path d="M71 12.5L66.8857 9.60345L65.3529 11.1455L59 6.5" stroke="#FF9900" stroke-width="2" stroke-linecap="round" stroke-linejoin="round"/>
<path d="M75.9395 15V5.80859H81.7031V7.01465H77.3359V9.79492H81.3984V10.9883H77.3359V13.7939H81.7539V15H75.9395ZM85.2324 15L82.6807 5.80859H84.1533L85.9434 12.918H86.0195L87.8857 5.80859H89.333L91.1992 12.918H91.2754L93.0654 5.80859H94.5381L91.9863 15H90.5771L88.6475 8.13184H88.5713L86.6416 15H85.2324ZM97.0771 5.80859V15H95.6807V5.80859H97.0771ZM107.284 4.7041V9.23633H109.049V10.2393H107.284V16.0664H106.078V4.7041H107.284ZM104.313 5.89746C104.301 9.18555 102.854 12.1182 99.1084 13.9717L98.4355 13.0322C101.286 11.6104 102.834 9.55371 103.082 6.90039H99.0068V5.89746H104.313Z" fill="#878D96"/>
<path d="M126.669 13.125L118.084 7.17926" stroke="#FF9900" stroke-width="2" stroke-linecap="round"/>
<path d="M118.084 13.125L126.669 7.17926" stroke="#844DFA" stroke-width="2" stroke-linecap="round"/>
<path d="M141.661 5.7959V7.01465C141.648 8.44922 141.648 9.94727 141.242 12.1182L140.062 11.9912C140.455 9.93457 140.455 8.41113 140.455 7.01465V6.77344H133.485V5.7959H141.661ZM142.791 13.54V14.543H132.419V13.54H134.869V9.8584H136.075V13.54H137.713V9.8584H138.894V13.54H142.791ZM147.552 8.36035C147.552 10.1123 148.618 11.9658 150.319 12.7783L149.634 13.6924C148.396 13.1084 147.463 11.9214 146.98 10.5312C146.479 12.0356 145.489 13.2925 144.188 13.8955L143.515 12.9688C145.241 12.1816 146.371 10.2393 146.371 8.36035V7.61133H143.857V6.64648H146.358V4.93262H147.577V6.64648H150.053V7.61133H147.552V8.36035ZM152.516 4.7041V9.28711H154.344V10.3027H152.516V16.0791H151.31V4.7041H152.516ZM161.669 9.51562V10.5059H159.27V12.6133C160.323 12.5625 161.383 12.4927 162.38 12.3848L162.469 13.2734C159.968 13.6543 157.264 13.6797 155.105 13.6924L154.953 12.6895C155.912 12.6895 156.972 12.6831 158.063 12.6514V10.5059H155.778V5.75781H161.618V6.73535H156.972V9.51562H161.669ZM164.297 4.7041V16.1045H163.091V4.7041H164.297ZM175.329 8.03027V8.99512H167.496V5.11035H168.689V8.03027H175.329ZM176.522 10.4297V11.3945H166.112V10.4297H176.522ZM175.405 14.8223V15.8125H167.407V12.4736H168.613V14.8223H175.405ZM184.724 8.05566C184.724 9.95996 185.968 11.9277 187.72 12.6768L187.06 13.6162C185.72 13.0259 184.654 11.7754 184.127 10.252C183.6 11.877 182.527 13.2607 181.207 13.9082L180.509 12.9561C182.223 12.1562 183.492 10.0107 183.505 8.05566V6.84961H180.902V5.84668H187.313V6.84961H184.724V8.05566ZM189.954 4.7041V16.0791H188.748V4.7041H189.954ZM201.253 4.7041V11.3311H200.047V8.47461H197.914V7.47168H200.047V4.7041H201.253ZM201.253 11.8643V15.9395H193.75V11.8643H201.253ZM194.943 12.8164V14.9619H200.072V12.8164H194.943ZM195.845 6.64648C195.845 8.06836 196.873 9.47754 198.587 10.0742L197.965 11.0264C196.689 10.5757 195.743 9.66162 195.248 8.53809C194.753 9.78857 193.756 10.7915 192.404 11.2676L191.782 10.3154C193.534 9.71875 194.613 8.20801 194.613 6.64648V6.37988H192.15V5.38965H198.282V6.37988H195.845V6.64648ZM212.793 4.7041V16.0791H211.638V4.7041H212.793ZM210.482 4.91992V15.5205H209.327V10.0361H208.045C207.943 12.2578 206.991 13.6416 205.582 13.6289C204.097 13.6416 203.132 12.0801 203.132 9.61719C203.132 7.1543 204.097 5.60547 205.582 5.61816C206.966 5.60547 207.905 6.91943 208.045 9.05859H209.327V4.91992H210.482ZM205.582 6.74805C204.757 6.74805 204.249 7.80176 204.249 9.61719C204.249 11.4326 204.757 12.4863 205.582 12.4863C206.42 12.4863 206.94 11.4326 206.94 9.61719C206.94 7.80176 206.42 6.74805 205.582 6.74805ZM218.341 7.59863C218.341 9.68066 219.509 11.75 221.248 12.5371L220.512 13.502C219.217 12.8545 218.246 11.5659 217.744 10.0107C217.243 11.6484 216.246 13.0322 214.938 13.7178L214.177 12.7402C215.941 11.9023 217.122 9.70605 217.122 7.59863V5.65625H218.341V7.59863ZM223.724 4.7041V16.1045H222.53V9.46484H219.991V8.4873H222.53V4.7041H223.724Z" fill="#878D96"/>
<path d="M0.939453 35V25.8086H4.21484C6.34766 25.8086 7.40137 27.002 7.40137 28.6904C7.40137 29.9282 6.84277 30.8677 5.72559 31.2803L7.75684 35H6.16992L4.30371 31.5342H4.21484H2.33594V35H0.939453ZM2.33594 30.3281H4.0752C5.43359 30.3281 5.99219 29.7314 5.99219 28.6904C5.99219 27.6494 5.43359 27.002 4.0752 27.002H2.33594V30.3281ZM8.83594 35V28.1064H10.1943V35H8.83594ZM9.52148 27.04C9.05176 27.04 8.6582 26.6846 8.6582 26.2402C8.6582 25.7959 9.05176 25.4404 9.52148 25.4404C9.97852 25.4404 10.3721 25.7959 10.3721 26.2402C10.3721 26.6846 9.97852 27.04 9.52148 27.04ZM15.7168 29.9854C15.5898 29.4395 15.1582 29.084 14.4092 29.084C13.6348 29.084 13.0762 29.4902 13.0889 30.0107C13.0762 30.417 13.4062 30.709 14.168 30.8867L15.2598 31.1406C16.5293 31.4199 17.1387 32.0293 17.1514 33.0068C17.1387 34.251 16.0977 35.1396 14.333 35.1396C12.6826 35.1396 11.6924 34.4033 11.5273 33.1211H12.9111C13.0254 33.7432 13.5078 34.0479 14.3203 34.0479C15.1963 34.0479 15.7549 33.6924 15.7676 33.1084C15.7549 32.6641 15.4248 32.3721 14.7012 32.207L13.6221 31.9785C12.3779 31.6992 11.7305 31.0391 11.7305 30.0869C11.7305 28.8555 12.7969 28.0176 14.3965 28.0176C15.9326 28.0176 16.8848 28.8047 17.0244 29.9854H15.7168ZM18.4717 35V25.8086H19.8301V31.0137H19.9443L22.6738 28.1064H24.2988L21.5186 31.0645L24.4893 35H22.8262L20.4902 31.9023L19.8301 32.5498V35H18.4717ZM26.8506 35L24.832 28.1064H26.2285L27.5742 33.1592H27.6504L28.9961 28.1064H30.3926L31.7256 33.1338H31.8018L33.1348 28.1064H34.5312L32.5127 35H31.1289L29.7324 30.0361H29.6309L28.2471 35H26.8506ZM38.4033 35.1396C36.3721 35.1396 35.1279 33.7432 35.1279 31.5977C35.1279 29.4775 36.3975 28.0176 38.3145 28.0176C39.8887 28.0176 41.374 28.9951 41.374 31.4834V31.9658H36.4736C36.5117 33.2734 37.2798 34.0225 38.416 34.0225C39.1904 34.0225 39.6855 33.6924 39.9141 33.2734H41.2852C40.9805 34.3906 39.9141 35.1396 38.4033 35.1396ZM36.4863 30.9502H40.041C40.041 29.8965 39.3682 29.1348 38.3271 29.1348C37.2417 29.1348 36.5371 29.9727 36.4863 30.9502ZM42.4023 33.0576C42.4023 31.4834 43.7354 31.0771 44.9795 30.9883C45.4365 30.9565 46.4712 30.8994 46.7949 30.8867L46.7822 30.3408C46.7822 29.5664 46.3125 29.1094 45.3857 29.1094C44.5859 29.1094 44.1035 29.4775 43.9639 29.9854H42.6182C42.7451 28.8428 43.8115 28.0176 45.4365 28.0176C46.5283 28.0176 48.1406 28.4238 48.1406 30.417V35H46.8203V34.0605H46.7695C46.5029 34.5811 45.8682 35.1523 44.7256 35.1523C43.418 35.1523 42.4023 34.4033 42.4023 33.0576ZM43.7227 33.0703C43.7227 33.7305 44.2686 34.0732 45.0303 34.0732C46.1348 34.0732 46.7949 33.3369 46.7949 32.5117V31.877C46.4775 31.9023 45.4873 31.9722 45.1699 31.9912C44.2812 32.0547 43.7227 32.3848 43.7227 33.0703ZM53.0029 28.1064V29.1855H51.5938V32.9688C51.5938 33.7432 51.9873 33.8828 52.4189 33.8955C52.6094 33.8955 52.9141 33.8701 53.1045 33.8574V35.0381C52.9141 35.0635 52.6221 35.0889 52.2539 35.0889C51.1875 35.0889 50.2354 34.5049 50.248 33.248V29.1855H49.2324V28.1064H50.248V26.4561H51.5938V28.1064H53.0029ZM55.834 30.9121V35H54.4756V25.8086H55.8086V29.2363H55.8975C56.2275 28.4873 56.8623 28.0176 57.9414 28.0176C59.3633 28.0176 60.3027 28.8936 60.3027 30.6201V35H58.9443V30.7852C58.9443 29.7695 58.3984 29.1855 57.4844 29.1855C56.5322 29.1855 55.834 29.8076 55.834 30.9121ZM64.9111 35.1396C62.8799 35.1396 61.6357 33.7432 61.6357 31.5977C61.6357 29.4775 62.9053 28.0176 64.8223 28.0176C66.3965 28.0176 67.8818 28.9951 67.8818 31.4834V31.9658H62.9814C63.0195 33.2734 63.7876 34.0225 64.9238 34.0225C65.6982 34.0225 66.1934 33.6924 66.4219 33.2734H67.793C67.4883 34.3906 66.4219 35.1396 64.9111 35.1396ZM62.9941 30.9502H66.5488C66.5488 29.8965 65.876 29.1348 64.835 29.1348C63.7495 29.1348 63.0449 29.9727 62.9941 30.9502ZM69.2275 35V28.1064H70.5352V29.1982H70.6113C70.8652 28.4619 71.5508 28.0049 72.3633 28.0049C72.5283 28.0049 72.7949 28.0176 72.9346 28.0303V29.3252C72.8203 29.2998 72.5029 29.249 72.2236 29.249C71.2842 29.249 70.5859 29.8965 70.5859 30.7979V35H69.2275Z" fill="#878D96"/>
<path d="M77.7266 35H76.2412L79.542 25.8086H81.1543L84.4678 35H82.9824L82.1445 32.5752H78.5645L77.7266 35ZM78.9707 31.4072H81.7383L80.3799 27.4844H80.3164L78.9707 31.4072ZM87.0322 25.8086V35H85.6357V25.8086H87.0322Z" fill="#878D96"/>
<path d="M90.2501 30L91.6501 27.375L88.8501 27.025L93.0501 23H93.7501L92.3501 25.625L95.1501 25.975L90.9501 30H90.2501Z" fill="#878D96"/>
<path d="M107.28 24.7041V29.2363H109.045V30.2393H107.28V36.0664H106.074V24.7041H107.28ZM104.31 25.8975C104.297 29.1855 102.85 32.1182 99.1045 33.9717L98.4316 33.0322C101.282 31.6104 102.831 29.5537 103.078 26.9004H99.0029V25.8975H104.31ZM121.689 24.7041V29.3125H123.518V30.3154H121.689V36.0791H120.496V24.7041H121.689ZM119.506 26.4814V27.4717H112.765V26.4814H115.57V24.8564H116.776V26.4814H119.506ZM116.18 28.3096C117.805 28.3096 118.998 29.4014 119.011 30.9502C118.998 32.5117 117.805 33.5908 116.18 33.6035C114.542 33.5908 113.349 32.5117 113.349 30.9502C113.349 29.4014 114.542 28.3096 116.18 28.3096ZM116.18 29.2998C115.215 29.2998 114.491 29.9727 114.504 30.9502C114.491 31.9404 115.215 32.6006 116.18 32.5879C117.145 32.6006 117.855 31.9404 117.855 30.9502C117.855 29.9727 117.145 29.2998 116.18 29.2998ZM129.7 25.377V28.627H125.739V30.0869C127.713 30.0806 129.11 30.0107 130.767 29.7314L130.894 30.709C129.129 31.0137 127.631 31.0771 125.447 31.0771H124.533V27.6875H128.52V26.3545H124.521V25.377H129.7ZM133.001 24.7168V27.5605H134.664V28.5635H133.001V31.623H131.795V24.7168H133.001ZM133.001 32.1943V36.0664H131.795V33.1719H125.485V32.1943H133.001ZM147.905 24.7168V33.0449H146.699V24.7168H147.905ZM148.248 34.8604V35.8379H140.466V32.2578H141.685V34.8604H148.248ZM142.611 26.4688C142.599 28.1318 143.665 29.6553 145.417 30.2646L144.795 31.2295C143.481 30.7407 142.51 29.7759 142.002 28.5381C141.5 29.8584 140.517 30.9185 139.184 31.4326L138.536 30.4805C140.326 29.8203 141.38 28.1826 141.38 26.4688V25.3389H142.611V26.4688ZM159.56 26.3037V27.2812H150.203V26.3037H154.291V24.8691H155.484V26.3037H159.56ZM160.118 33.8193V34.7969H149.708V33.8193H154.291V32.3086C152.298 32.188 151.092 31.4009 151.092 30.1377C151.092 28.7666 152.539 27.9668 154.888 27.9668C157.211 27.9668 158.671 28.7666 158.671 30.1377C158.671 31.4009 157.458 32.188 155.484 32.3086V33.8193H160.118ZM154.888 28.9189C153.263 28.9189 152.311 29.3506 152.323 30.1377C152.311 30.9248 153.263 31.3564 154.888 31.3691C156.487 31.3564 157.439 30.9248 157.439 30.1377C157.439 29.3506 156.487 28.9189 154.888 28.9189ZM171.341 29.9219V30.8486H160.931V29.9219H171.341ZM170.059 31.6484V34.1494H163.381V35.0889H170.414V35.9395H162.175V33.3496H168.865V32.5117H162.162V31.6484H170.059ZM170.033 24.9961V27.459H163.457V28.3223H170.224V29.1729H162.264V26.6592H168.827V25.8467H162.238V24.9961H170.033ZM185.763 33.667V34.6699H175.353V33.667H179.936V31.3311H176.546V25.4785H177.752V27.4336H183.338V25.4785H184.531V31.3311H181.129V33.667H185.763ZM177.752 30.3535H183.338V28.4111H177.752V30.3535ZM196.325 24.7041V36.0791H195.17V30.252H193.71V35.4951H192.58V24.9326H193.71V29.2617H195.17V24.7041H196.325ZM188.327 26.0498V32.1182C189.381 32.1118 190.53 32.0293 191.818 31.7754L191.945 32.8291C190.384 33.1084 189.076 33.1846 187.857 33.1846H187.121V26.0498H188.327ZM208.233 33.6543V34.6572H197.823V33.6543H200.312V30.6836C199.378 30.1694 198.813 29.3506 198.813 28.335C198.813 26.5449 200.565 25.3643 203.003 25.3643C205.453 25.3643 207.205 26.5449 207.205 28.335C207.205 29.3379 206.659 30.144 205.745 30.6582V33.6543H208.233ZM203.003 26.3291C201.213 26.3291 199.981 27.1035 199.981 28.335C199.981 29.5537 201.213 30.3535 203.003 30.3535C204.78 30.3535 206.037 29.5537 206.037 28.335C206.037 27.1035 204.78 26.3291 203.003 26.3291ZM201.505 33.6543H204.526V31.1152C204.063 31.2358 203.549 31.293 203.003 31.293C202.47 31.293 201.962 31.2358 201.505 31.1279V33.6543ZM210.354 35.0889C209.858 35.0889 209.439 34.6826 209.452 34.1875C209.439 33.6924 209.858 33.2861 210.354 33.2861C210.836 33.2861 211.255 33.6924 211.255 34.1875C211.255 34.6826 210.836 35.0889 210.354 35.0889Z" fill="#878D96"/>
</svg>
