<svg width="34" height="29" viewBox="0 0 34 29" fill="none" xmlns="http://www.w3.org/2000/svg">
<path d="M19.64 5.76667L16 17.5H29V14.3L28.48 12.1667L26.92 7.9L25.36 4.16667L23.8 1.5H22.76L21.72 2.03333L19.64 5.76667Z" fill="#FFD7D9"/>
<path d="M2 17.5V16V14.5L3.33333 11.5H4.66667L6 12.5L8 17.5H7.33333H2Z" fill="#FFD7D9"/>
<path d="M2.39307 16.2474C2.8393 13.5633 4.1185 9.00039 5.66545 12.2213C7.59913 16.2474 9.68155 32.9484 13.1027 25.3435C16.5238 17.7386 19.9474 -5.00783 24.8535 3.42354C27.9771 8.7917 29.1671 13.7126 29.3158 14.4581" stroke="#FA4D56" stroke-width="1.5" stroke-linecap="round"/>
<ellipse cx="29.5" cy="14" rx="1.5" ry="1.5" fill="#FA4D56"/>
<path d="M29.5 16C30.6046 16 31.5 15.1046 31.5 14C31.5 12.8954 30.6046 12 29.5 12C28.3954 12 27.5 12.8954 27.5 14C27.5 15.1046 28.3954 16 29.5 16Z" stroke="#FF0000" stroke-opacity="0.2"/>
<line x1="0.5" y1="17.25" x2="32.5" y2="17.25" stroke="#A2A9B0" stroke-width="0.5" stroke-dasharray="1 1"/>
<g clip-path="url(#clip0_2923_36158)">
<path d="M16 17.5H8L8.53333 20.4412L9.6 24.5588L10.6667 26.9118L11.7333 27.5L12.8 26.9118L16 17.5Z" fill="#D0E2FF"/>
<path d="M1.65322 16.1244C1.58529 16.533 1.86146 16.9193 2.27007 16.9872C2.67867 17.0552 3.06498 16.779 3.13291 16.3704L1.65322 16.1244ZM5.66545 12.2213L4.98938 12.546L5.66545 12.2213ZM24.8535 3.42354L25.5017 3.04634L24.8535 3.42354ZM3.13291 16.3704C3.35425 15.039 3.77086 13.3304 4.27919 12.3712C4.4032 12.1372 4.51259 11.9874 4.59644 11.9041C4.6822 11.819 4.6827 11.8592 4.60076 11.8632C4.50298 11.868 4.49008 11.8137 4.57702 11.898C4.67133 11.9894 4.81469 12.1823 4.98938 12.546L6.34152 11.8966C6.12947 11.4551 5.89446 11.086 5.62098 10.8209C5.34013 10.5487 4.97 10.3435 4.52779 10.365C4.1014 10.3858 3.77026 10.6106 3.53935 10.8399C3.30653 11.0712 3.11426 11.366 2.95379 11.6688C2.32423 12.8568 1.87811 14.7717 1.65322 16.1244L3.13291 16.3704ZM4.98938 12.546C5.43393 13.4716 5.90861 15.1878 6.43608 17.2274C6.95275 19.2252 7.50854 21.4822 8.11179 23.3721C8.41379 24.3182 8.73482 25.1957 9.07885 25.9177C9.4121 26.6171 9.8094 27.2645 10.3038 27.6557C10.5633 27.8611 10.8836 28.0231 11.2587 28.0496C11.6414 28.0768 11.9949 27.9567 12.3012 27.7489C12.8714 27.3621 13.3485 26.6252 13.7867 25.6512L12.4187 25.0358C12.0016 25.9631 11.6652 26.3678 11.4592 26.5076C11.4159 26.5369 11.3884 26.5474 11.3765 26.551C11.3704 26.5528 11.3671 26.5532 11.3662 26.5533C11.3652 26.5534 11.3649 26.5534 11.3646 26.5534C11.3643 26.5534 11.3624 26.5532 11.3584 26.5522C11.3542 26.5512 11.3471 26.549 11.3367 26.5444C11.3155 26.5352 11.2813 26.5164 11.2347 26.4796C11.0226 26.3117 10.7459 25.9291 10.433 25.2725C10.1309 24.6385 9.83373 23.8338 9.54075 22.916C8.95405 21.0779 8.41285 18.8801 7.8883 16.8518C7.37456 14.8653 6.86381 12.9841 6.34152 11.8966L4.98938 12.546ZM13.7867 25.6512C14.6683 23.6914 15.5379 20.7889 16.4132 17.7309C17.2959 14.6466 18.1906 11.3803 19.1314 8.61118C19.6011 7.22844 20.0764 5.98815 20.5592 4.97018C21.048 3.9396 21.5188 3.19331 21.9594 2.75212C22.3926 2.31845 22.6687 2.29259 22.8658 2.35144C23.1502 2.43633 23.6153 2.78678 24.2053 3.80074L25.5017 3.04634C24.8652 1.95246 24.1501 1.16937 23.2948 0.914097C22.3523 0.632776 21.5293 1.06013 20.8981 1.69211C20.2744 2.31656 19.7157 3.24836 19.2039 4.32736C18.6861 5.41898 18.1897 6.71977 17.7111 8.12868C16.755 10.9429 15.8457 14.2622 14.9711 17.3182C14.0889 20.4005 13.2476 23.1932 12.4187 25.0358L13.7867 25.6512ZM24.2053 3.80074C27.2771 9.0798 28.4432 13.9177 28.5803 14.6049L30.0513 14.3114C29.891 13.5075 28.6772 8.5036 25.5017 3.04634L24.2053 3.80074Z" fill="#4589FF"/>
</g>
<defs>
<clipPath id="clip0_2923_36158">
<rect width="33" height="11" fill="white" transform="translate(0 17.5)"/>
</clipPath>
</defs>
</svg>
