<svg width="30" height="30" viewBox="0 0 30 30" fill="none" xmlns="http://www.w3.org/2000/svg">
<mask id="mask0_3940_874339" style="mask-type:alpha" maskUnits="userSpaceOnUse" x="0" y="0" width="30" height="30">
<rect width="30" height="30" fill="#D9D9D9"/>
</mask>
<g mask="url(#mask0_3940_874339)">
<path d="M7.5 24.4688C6.8125 24.4688 6.22396 24.224 5.73438 23.7344C5.24479 23.2448 5 22.6562 5 21.9688V19.4688C5 19.1146 5.11979 18.8177 5.35938 18.5781C5.59896 18.3385 5.89583 18.2188 6.25 18.2188C6.60417 18.2188 6.90104 18.3385 7.14062 18.5781C7.38021 18.8177 7.5 19.1146 7.5 19.4688V21.9688H22.5V19.4688C22.5 19.1146 22.6198 18.8177 22.8594 18.5781C23.099 18.3385 23.3958 18.2188 23.75 18.2188C24.1042 18.2188 24.401 18.3385 24.6406 18.5781C24.8802 18.8177 25 19.1146 25 19.4688V21.9688C25 22.6562 24.7552 23.2448 24.2656 23.7344C23.776 24.224 23.1875 24.4688 22.5 24.4688H7.5ZM13.75 9.28125L11.4062 11.625C11.1562 11.875 10.8594 11.9948 10.5156 11.9844C10.1719 11.974 9.875 11.8438 9.625 11.5938C9.39583 11.3438 9.27604 11.0521 9.26562 10.7188C9.25521 10.3854 9.375 10.0938 9.625 9.84375L14.125 5.34375C14.25 5.21875 14.3854 5.13021 14.5312 5.07812C14.6771 5.02604 14.8333 5 15 5C15.1667 5 15.3229 5.02604 15.4688 5.07812C15.6146 5.13021 15.75 5.21875 15.875 5.34375L20.375 9.84375C20.625 10.0938 20.7448 10.3854 20.7344 10.7188C20.724 11.0521 20.6042 11.3438 20.375 11.5938C20.125 11.8438 19.8281 11.974 19.4844 11.9844C19.1406 11.9948 18.8438 11.875 18.5938 11.625L16.25 9.28125V18.2188C16.25 18.5729 16.1302 18.8698 15.8906 19.1094C15.651 19.349 15.3542 19.4688 15 19.4688C14.6458 19.4688 14.349 19.349 14.1094 19.1094C13.8698 18.8698 13.75 18.5729 13.75 18.2188V9.28125Z" fill="#C1C7CD"/>
</g>
</svg>
