<svg width="12" height="7" viewBox="0 0 12 7" fill="none" xmlns="http://www.w3.org/2000/svg">
<path d="M6 2.77539L2.1 6.67539C1.91667 6.85872 1.68334 6.95039 1.4 6.95039C1.11667 6.95039 0.883336 6.85872 0.700003 6.67539C0.51667 6.49206 0.425003 6.25872 0.425003 5.97539C0.425003 5.69206 0.51667 5.45872 0.700003 5.27539L5.3 0.675391C5.4 0.575391 5.50834 0.504557 5.625 0.462891C5.74167 0.421224 5.86667 0.400391 6 0.400391C6.13334 0.400391 6.25834 0.421224 6.375 0.462891C6.49167 0.504557 6.6 0.575391 6.7 0.675391L11.3 5.27539C11.4833 5.45872 11.575 5.69206 11.575 5.97539C11.575 6.25872 11.4833 6.49206 11.3 6.67539C11.1167 6.85872 10.8833 6.95039 10.6 6.95039C10.3167 6.95039 10.0833 6.85872 9.9 6.67539L6 2.77539Z" fill="#878D96"/>
</svg>
