<svg width="17" height="14" viewBox="0 0 17 14" fill="none" xmlns="http://www.w3.org/2000/svg">
<path d="M1.5 12C1.09722 12 0.746528 11.853 0.447917 11.5591C0.149306 11.2652 0 10.9119 0 10.4992V1.4941C0 1.08137 0.1465 0.729167 0.4395 0.4375C0.732486 0.145833 1.0847 0 1.49615 0H5.36744C5.56692 0 5.75694 0.0347222 5.9375 0.104167C6.11806 0.173611 6.28472 0.284722 6.4375 0.4375L8 2H14.5C14.9125 2 15.2656 2.14688 15.5594 2.44063C15.8531 2.73438 16 3.0875 16 3.5V5.6875C15.7625 5.59349 15.5156 5.53178 15.2594 5.5024C15.0031 5.47302 14.75 5.49306 14.5 5.5625V3.5H7.375L5.375 1.5H1.5V10.5H9.02083L8.5 11.0208V12H1.5ZM10 13.25V11.9493C10 11.8442 10.0208 11.7465 10.0625 11.6562C10.1042 11.566 10.1597 11.4861 10.2292 11.4167L14.375 7.29167C14.4758 7.18872 14.5878 7.11438 14.711 7.06863C14.8342 7.02288 14.9567 7 15.0783 7C15.211 7 15.3382 7.02431 15.4599 7.07292C15.5815 7.12153 15.6921 7.19444 15.7917 7.29167L16.7083 8.22917C16.7998 8.32997 16.8713 8.44198 16.9228 8.56519C16.9743 8.6884 17 8.81083 17 8.93248C17 9.05415 16.9771 9.17857 16.9314 9.30575C16.8856 9.43293 16.8113 9.54629 16.7083 9.64583L12.5833 13.7708C12.5139 13.8403 12.434 13.8958 12.3438 13.9375C12.2535 13.9792 12.1558 14 12.0507 14H10.75C10.5375 14 10.3594 13.9281 10.2156 13.7844C10.0719 13.6406 10 13.4625 10 13.25ZM11 13H11.9375L14.3333 10.6042L13.875 10.125L13.4167 9.66667L11 12.0625V13ZM13.875 10.125L13.4167 9.66667L14.3333 10.6042L13.875 10.125Z" fill="#697077"/>
</svg>
