<svg width="54" height="54" viewBox="0 0 54 54" fill="none" xmlns="http://www.w3.org/2000/svg">
<rect width="54" height="54" fill="white"/>
<line y1="33" x2="54" y2="33" stroke="#C1C7CD" stroke-dasharray="2 2"/>
<path d="M3.01354 29.3565C2.92296 29.9013 3.29119 30.4163 3.836 30.5069C4.38081 30.5975 4.89588 30.2293 4.98646 29.6845L3.01354 29.3565ZM9.46961 22.791L8.56819 23.224L9.46961 22.791ZM41.5414 8.08603L40.6771 8.58897L41.5414 8.08603ZM4.98646 29.6845C5.35702 27.4555 6.05834 24.5648 6.92849 22.9228C7.14193 22.52 7.33879 22.2452 7.50411 22.081C7.67199 21.9142 7.72874 21.9367 7.6777 21.9392C7.60556 21.9427 7.64875 21.8959 7.82685 22.0686C8.01478 22.2507 8.26989 22.6029 8.56819 23.224L10.371 22.3581C10.0229 21.6333 9.64562 21.0461 9.2188 20.6324C8.78215 20.2092 8.22826 19.91 7.58041 19.9416C6.95367 19.9721 6.45607 20.3031 6.09466 20.662C5.73071 21.0236 5.42333 21.4918 5.16129 21.9863C4.12951 23.9333 3.38883 27.0991 3.01354 29.3565L4.98646 29.6845ZM8.56819 23.224C9.32437 24.7984 10.1239 27.6948 11.0032 31.0949C11.8681 34.4394 12.7946 38.2018 13.8001 41.3519C14.3034 42.9285 14.8359 44.3828 15.4039 45.5748C15.9574 46.7366 16.6011 47.7738 17.3797 48.3901C17.7854 48.7111 18.2737 48.9545 18.8363 48.9943C19.4092 49.0349 19.9446 48.8563 20.4186 48.5348C21.3101 47.93 22.0837 46.7544 22.8125 45.1344L20.9886 44.3139C20.2878 45.8716 19.7018 46.6042 19.2959 46.8796C19.1211 46.9982 19.0233 47.0026 18.9776 46.9993C18.9216 46.9954 18.8057 46.9681 18.6209 46.8218C18.2186 46.5034 17.7358 45.8193 17.2094 44.7145C16.6974 43.64 16.1966 42.2826 15.7054 40.7437C14.722 37.6628 13.8149 33.9792 12.9395 30.5942C12.0785 27.2648 11.2309 24.1484 10.371 22.3581L8.56819 23.224ZM22.8125 45.1344C24.2772 41.8785 25.726 37.0457 27.1901 31.9303C28.6642 26.7798 30.1621 21.3113 31.7371 16.6753C32.5238 14.3597 33.3217 12.2764 34.1346 10.5625C34.9555 8.83174 35.7573 7.55299 36.5247 6.78458C37.2822 6.02621 37.8361 5.91511 38.2917 6.05108C38.8635 6.22177 39.6831 6.88067 40.6771 8.58897L42.4058 7.5831C41.3497 5.76825 40.1967 4.5325 38.8637 4.13463C37.4143 3.70202 36.1312 4.34845 35.1097 5.37124C34.0982 6.384 33.1791 7.91009 32.3275 9.7054C31.468 11.5175 30.6419 13.6815 29.8434 16.032C28.248 20.7282 26.7306 26.2672 25.2673 31.38C23.7939 36.5279 22.383 41.2142 20.9886 44.3139L22.8125 45.1344ZM40.6771 8.58897C45.829 17.4428 47.7862 25.557 48.0193 26.7255L49.9807 26.3342C49.7165 25.0101 47.6959 16.6745 42.4058 7.5831L40.6771 8.58897Z" fill="#FA4D56"/>
<circle cx="49" cy="26.5" r="2" fill="#FA4D56"/>
<circle cx="49" cy="26.5" r="3" stroke="#FF0000" stroke-opacity="0.2" stroke-width="2"/>
</svg>
