<svg width="40" height="40" viewBox="0 0 40 40" fill="none" xmlns="http://www.w3.org/2000/svg">
<rect width="40" height="40" rx="20" fill="white"/>
<path d="M22.2013 12.3055L19.168 22.0833H30.0013V19.4166L29.568 17.6388L28.268 14.0833L26.968 10.9722L25.668 8.74994H24.8013L23.9346 9.19438L22.2013 12.3055Z" fill="#FFD7D9"/>
<path d="M7.5 22.0833V20.8333V19.5833L8.61111 17.0833H9.72222L10.8333 17.9166L12.5 22.0833H11.9444H7.5Z" fill="#FFD7D9"/>
<path d="M7.82812 21.0392C8.19999 18.8024 9.26599 15 10.5551 17.6841C12.1665 21.0392 13.9019 34.9567 16.7528 28.6193C19.6037 22.2819 22.4568 3.32648 26.5452 10.3526C29.1482 14.8261 30.1398 18.9268 30.2638 19.5481" stroke="#FA4D56" stroke-width="1.25" stroke-linecap="round"/>
<ellipse cx="30.418" cy="19.1666" rx="1.25" ry="1.25" fill="#FA4D56"/>
<path d="M30.418 20.8333C31.3384 20.8333 32.0846 20.0871 32.0846 19.1666C32.0846 18.2462 31.3384 17.5 30.418 17.5C29.4975 17.5 28.7513 18.2462 28.7513 19.1666C28.7513 20.0871 29.4975 20.8333 30.418 20.8333Z" stroke="#FF0000" stroke-opacity="0.2" stroke-width="0.833333"/>
<line x1="6.25" y1="21.8749" x2="32.9167" y2="21.8749" stroke="#A2A9B0" stroke-width="0.416667" stroke-dasharray="0.83 0.83"/>
<g clip-path="url(#clip0_3336_69081)">
<path d="M19.1667 22.0833H12.5L12.9444 24.5343L13.8333 27.9657L14.7222 29.9264L15.6111 30.4166L16.5 29.9264L19.1667 22.0833Z" fill="#D0E2FF"/>
<path d="M7.21159 20.937C7.15498 21.2775 7.38512 21.5994 7.72562 21.656C8.06613 21.7126 8.38805 21.4825 8.44466 21.142L7.21159 20.937ZM10.5551 17.6844L9.99172 17.955L10.5551 17.6844ZM26.5452 10.3529L27.0854 10.0386L26.5452 10.3529ZM8.44466 21.142C8.62912 20.0325 8.97628 18.6087 9.39989 17.8093C9.50324 17.6143 9.5944 17.4895 9.66427 17.4201C9.73573 17.3491 9.73616 17.3827 9.66787 17.386C9.58639 17.39 9.57563 17.3448 9.64808 17.415C9.72668 17.4912 9.84615 17.6519 9.99172 17.955L11.1185 17.4138C10.9418 17.0459 10.746 16.7383 10.5181 16.5174C10.284 16.2905 9.97557 16.1195 9.60706 16.1375C9.25174 16.1548 8.97579 16.3421 8.78336 16.5332C8.58935 16.726 8.42912 16.9716 8.2954 17.224C7.77076 18.214 7.399 19.8097 7.21159 20.937L8.44466 21.142ZM9.99172 17.955C10.3622 18.7263 10.7577 20.1565 11.1973 21.8561C11.6279 23.521 12.091 25.4018 12.5937 26.9767C12.8454 27.7652 13.1129 28.4964 13.3996 29.0981C13.6773 29.6809 14.0084 30.2204 14.4204 30.5464C14.6366 30.7176 14.9036 30.8525 15.2161 30.8747C15.5351 30.8973 15.8297 30.7972 16.0849 30.6241C16.5601 30.3018 16.9577 29.6876 17.3228 28.876L16.1828 28.3632C15.8352 29.1359 15.5549 29.4731 15.3832 29.5896C15.3471 29.6141 15.3242 29.6228 15.3143 29.6258C15.3093 29.6273 15.3065 29.6277 15.3057 29.6278C15.3049 29.6278 15.3047 29.6278 15.3044 29.6278C15.3042 29.6278 15.3026 29.6277 15.2992 29.6268C15.2958 29.6259 15.2898 29.6241 15.2811 29.6204C15.2635 29.6126 15.235 29.597 15.1961 29.5663C15.0194 29.4264 14.7888 29.1076 14.5281 28.5604C14.2763 28.0321 14.0287 27.3615 13.7845 26.5966C13.2956 25.0649 12.8446 23.2334 12.4075 21.5432C11.9794 19.8877 11.5537 18.32 11.1185 17.4138L9.99172 17.955ZM17.3228 28.876C18.0575 27.2428 18.7822 24.8241 19.5115 22.2757C20.2472 19.7055 20.9928 16.9835 21.7767 14.676C22.1682 13.5237 22.5642 12.4901 22.9666 11.6418C23.3739 10.783 23.7662 10.1611 24.1334 9.79341C24.4944 9.43202 24.7245 9.41047 24.8888 9.45951C25.1258 9.53025 25.5133 9.82229 26.005 10.6673L27.0854 10.0386C26.5549 9.12703 25.959 8.47445 25.2463 8.26173C24.4608 8.02729 23.775 8.38342 23.249 8.91007C22.7293 9.43045 22.2636 10.2069 21.8372 11.1061C21.4057 12.0158 20.992 13.0998 20.5932 14.2739C19.7964 16.6191 19.0387 19.3851 18.3098 21.9318C17.5746 24.5004 16.8736 26.8276 16.1828 28.3632L17.3228 28.876ZM26.005 10.6673C28.5648 15.0665 29.5366 19.098 29.6508 19.6707L30.8767 19.4262C30.743 18.7562 29.7316 14.5863 27.0854 10.0386L26.005 10.6673Z" fill="#4589FF"/>
</g>
<defs>
<clipPath id="clip0_3336_69081">
<rect width="27.5" height="9.16667" fill="white" transform="translate(5.83398 22.0833)"/>
</clipPath>
</defs>
</svg>
