<svg width="30" height="30" viewBox="0 0 30 30" fill="none" xmlns="http://www.w3.org/2000/svg">
<rect width="30" height="30" rx="5" fill="#F2F4F8"/>
<mask id="mask0_3413_98995" style="mask-type:alpha" maskUnits="userSpaceOnUse" x="3" y="3" width="24" height="24">
<rect x="3" y="3" width="24" height="24" fill="#D9D9D9"/>
</mask>
<g mask="url(#mask0_3413_98995)">
<path d="M9 23C8.45 23 7.97917 22.8042 7.5875 22.4125C7.19583 22.0209 7 21.55 7 21V19C7 18.7167 7.09583 18.4792 7.2875 18.2875C7.47917 18.0959 7.71667 18 8 18C8.28333 18 8.52083 18.0959 8.7125 18.2875C8.90417 18.4792 9 18.7167 9 19V21H21V19C21 18.7167 21.0958 18.4792 21.2875 18.2875C21.4792 18.0959 21.7167 18 22 18C22.2833 18 22.5208 18.0959 22.7125 18.2875C22.9042 18.4792 23 18.7167 23 19V21C23 21.55 22.8042 22.0209 22.4125 22.4125C22.0208 22.8042 21.55 23 21 23H9ZM14 10.85L12.125 12.725C11.925 12.925 11.6875 13.0209 11.4125 13.0125C11.1375 13.0042 10.9 12.9 10.7 12.7C10.5167 12.5 10.4208 12.2667 10.4125 12C10.4042 11.7334 10.5 11.5 10.7 11.3L14.3 7.70005C14.4 7.60005 14.5083 7.52922 14.625 7.48755C14.7417 7.44588 14.8667 7.42505 15 7.42505C15.1333 7.42505 15.2583 7.44588 15.375 7.48755C15.4917 7.52922 15.6 7.60005 15.7 7.70005L19.3 11.3C19.5 11.5 19.5958 11.7334 19.5875 12C19.5792 12.2667 19.4833 12.5 19.3 12.7C19.1 12.9 18.8625 13.0042 18.5875 13.0125C18.3125 13.0209 18.075 12.925 17.875 12.725L16 10.85V18C16 18.2834 15.9042 18.5209 15.7125 18.7125C15.5208 18.9042 15.2833 19 15 19C14.7167 19 14.4792 18.9042 14.2875 18.7125C14.0958 18.5209 14 18.2834 14 18V10.85Z" fill="#878D96"/>
</g>
</svg>
