<svg width="22" height="20" viewBox="0 0 22 20" fill="none" xmlns="http://www.w3.org/2000/svg">
<path d="M10.5784 16.7552L5.50289 19.8127C5.27867 19.9554 5.04426 20.0166 4.79966 19.9962C4.55506 19.9758 4.34103 19.8943 4.15758 19.7516C3.97413 19.6089 3.83145 19.4305 3.72953 19.2165C3.62761 19.0025 3.60723 18.763 3.66838 18.498L5.01369 12.7193L0.519133 8.83623C0.315298 8.65278 0.187902 8.44385 0.136943 8.20944C0.0859845 7.97503 0.101272 7.74572 0.182806 7.5215C0.26434 7.29728 0.386641 7.11383 0.549708 6.97114C0.712776 6.82846 0.936994 6.73674 1.22236 6.69597L7.15395 6.17619L9.44709 0.733805C9.54901 0.489203 9.70698 0.305752 9.92101 0.183451C10.135 0.0611504 10.3542 0 10.5784 0C10.8026 0 11.0217 0.0611504 11.2357 0.183451C11.4498 0.305752 11.6077 0.489203 11.7097 0.733805L14.0028 6.17619L19.9344 6.69597C20.2197 6.73674 20.444 6.82846 20.607 6.97114C20.7701 7.11383 20.8924 7.29728 20.9739 7.5215C21.0555 7.74572 21.0708 7.97503 21.0198 8.20944C20.9688 8.44385 20.8414 8.65278 20.6376 8.83623L16.1431 12.7193L17.4884 18.498C17.5495 18.763 17.5291 19.0025 17.4272 19.2165C17.3253 19.4305 17.1826 19.6089 16.9992 19.7516C16.8157 19.8943 16.6017 19.9758 16.3571 19.9962C16.1125 20.0166 15.8781 19.9554 15.6539 19.8127L10.5784 16.7552Z" fill="#878D96"/>
</svg>
