<svg width="30" height="30" viewBox="0 0 30 30" fill="none" xmlns="http://www.w3.org/2000/svg">
<mask id="mask0_3940_874288" style="mask-type:alpha" maskUnits="userSpaceOnUse" x="0" y="0" width="30" height="30">
<rect width="30" height="30" fill="#D9D9D9"/>
</mask>
<g mask="url(#mask0_3940_874288)">
<path d="M14.7019 22.125L9.51442 25.25C9.28526 25.3958 9.04567 25.4583 8.79567 25.4375C8.54567 25.4167 8.32692 25.3333 8.13942 25.1875C7.95192 25.0417 7.80609 24.8594 7.70192 24.6406C7.59776 24.4219 7.57692 24.1771 7.63942 23.9062L9.01442 18L4.42067 14.0312C4.21234 13.8437 4.08213 13.6302 4.03005 13.3906C3.97796 13.151 3.99359 12.9167 4.07692 12.6875C4.16026 12.4583 4.28526 12.2708 4.45192 12.125C4.61859 11.9792 4.84776 11.8854 5.13942 11.8438L11.2019 11.3125L13.5457 5.75C13.6498 5.5 13.8113 5.3125 14.03 5.1875C14.2488 5.0625 14.4728 5 14.7019 5C14.9311 5 15.155 5.0625 15.3738 5.1875C15.5925 5.3125 15.754 5.5 15.8582 5.75L18.2019 11.3125L24.2644 11.8438C24.5561 11.8854 24.7853 11.9792 24.9519 12.125C25.1186 12.2708 25.2436 12.4583 25.3269 12.6875C25.4103 12.9167 25.4259 13.151 25.3738 13.3906C25.3217 13.6302 25.1915 13.8437 24.9832 14.0312L20.3894 18L21.7644 23.9062C21.8269 24.1771 21.8061 24.4219 21.7019 24.6406C21.5978 24.8594 21.4519 25.0417 21.2644 25.1875C21.0769 25.3333 20.8582 25.4167 20.6082 25.4375C20.3582 25.4583 20.1186 25.3958 19.8894 25.25L14.7019 22.125Z" fill="#C1C7CD"/>
</g>
</svg>
