<svg width="24" height="22" viewBox="0 0 24 22" fill="none" xmlns="http://www.w3.org/2000/svg">
<path d="M12 18.0625L7.03125 21.0625C6.71875 21.25 6.39583 21.3333 6.0625 21.3125C5.72917 21.2917 5.4375 21.1875 5.1875 21C4.9375 20.8125 4.75 20.5677 4.625 20.2656C4.5 19.9635 4.47917 19.6354 4.5625 19.2813L5.875 13.5938L1.46875 9.78125C1.17708 9.55208 1 9.27604 0.9375 8.95313C0.875 8.63021 0.895833 8.32292 1 8.03125C1.10417 7.73958 1.28125 7.48958 1.53125 7.28125C1.78125 7.07292 2.08333 6.94792 2.4375 6.90625L8.21875 6.40625L10.4688 1.0625C10.6146 0.708333 10.8281 0.453125 11.1094 0.296875C11.3906 0.140625 11.6875 0.0625 12 0.0625C12.3125 0.0625 12.6094 0.140625 12.8906 0.296875C13.1719 0.453125 13.3854 0.708333 13.5312 1.0625L15.7812 6.40625L21.5625 6.90625C21.9167 6.94792 22.2188 7.07292 22.4688 7.28125C22.7188 7.48958 22.8958 7.73958 23 8.03125C23.1042 8.32292 23.125 8.63021 23.0625 8.95313C23 9.27604 22.8229 9.55208 22.5312 9.78125L18.125 13.5938L19.4375 19.2813C19.5208 19.6354 19.5 19.9635 19.375 20.2656C19.25 20.5677 19.0625 20.8125 18.8125 21C18.5625 21.1875 18.2708 21.2917 17.9375 21.3125C17.6042 21.3333 17.2812 21.25 16.9688 21.0625L12 18.0625Z" fill="#FFE03D"/>
</svg>
