<svg width="30" height="30" viewBox="0 0 30 30" fill="none" xmlns="http://www.w3.org/2000/svg">
<rect width="30" height="30" rx="5" fill="#FFF1F1"/>
<mask id="mask0_3423_99034" style="mask-type:alpha" maskUnits="userSpaceOnUse" x="3" y="3" width="24" height="24">
<rect x="3" y="3" width="24" height="24" fill="#FA4D56"/>
</mask>
<g mask="url(#mask0_3423_99034)">
<path d="M10 24C9.45 24 8.97917 23.8042 8.5875 23.4125C8.19583 23.0208 8 22.55 8 22V9C7.71667 9 7.47917 8.90417 7.2875 8.7125C7.09583 8.52083 7 8.28333 7 8C7 7.71667 7.09583 7.47917 7.2875 7.2875C7.47917 7.09583 7.71667 7 8 7H12C12 6.71667 12.0958 6.47917 12.2875 6.2875C12.4792 6.09583 12.7167 6 13 6H17C17.2833 6 17.5208 6.09583 17.7125 6.2875C17.9042 6.47917 18 6.71667 18 7H22C22.2833 7 22.5208 7.09583 22.7125 7.2875C22.9042 7.47917 23 7.71667 23 8C23 8.28333 22.9042 8.52083 22.7125 8.7125C22.5208 8.90417 22.2833 9 22 9V22C22 22.55 21.8042 23.0208 21.4125 23.4125C21.0208 23.8042 20.55 24 20 24H10ZM20 9H10V22H20V9ZM12 20H14V11H12V20ZM16 20H18V11H16V20Z" fill="#FA4D56"/>
</g>
</svg>
