<svg width="31" height="30" viewBox="0 0 31 30" fill="none" xmlns="http://www.w3.org/2000/svg">
<mask id="mask0_2984_3846" style="mask-type:alpha" maskUnits="userSpaceOnUse" x="0" y="0" width="31" height="30">
<rect x="0.5" width="30" height="30" fill="#D9D9D9"/>
</mask>
<g mask="url(#mask0_2984_3846)">
<path d="M6 22.7143L6 12.9549C6 12.593 6.08411 12.2501 6.25234 11.9263C6.42057 11.6025 6.65313 11.3358 6.95 11.1263L14.075 5.45714C14.4906 5.15238 14.9656 5 15.5 5C16.0344 5 16.5094 5.15238 16.925 5.45714L24.05 11.1263C24.3469 11.3358 24.5794 11.6025 24.7477 11.9263C24.9159 12.2501 25 12.593 25 12.9549V22.7143C25 23.3429 24.7674 23.881 24.3023 24.3286C23.8372 24.7762 23.2781 25 22.625 25H18.329C17.9925 25 17.7105 24.8905 17.4829 24.6714C17.2553 24.4524 17.1415 24.181 17.1415 23.8571V20.3534C17.1415 20.0296 17.0277 19.7581 16.8 19.5391C16.5724 19.3201 16.2904 19.2105 15.954 19.2105H15.0664C14.7299 19.2105 14.4479 19.3201 14.2203 19.5391C13.9927 19.7581 13.8789 20.0296 13.8789 20.3534V23.8571C13.8789 24.181 13.7651 24.4524 13.5375 24.6714C13.3099 24.8905 13.0279 25 12.6914 25H8.375C7.72187 25 7.16276 24.7762 6.69766 24.3286C6.23255 23.881 6 23.3429 6 22.7143Z" fill="#21272A"/>
</g>
</svg>
