<svg width="20" height="17" viewBox="0 0 20 17" fill="none" xmlns="http://www.w3.org/2000/svg">
<path d="M1.69643 16.75C1.35744 16.75 1.07329 16.6353 0.843973 16.406C0.614658 16.1767 0.5 15.8926 0.5 15.5536C0.5 15.2146 0.614658 14.9304 0.843973 14.7011C1.07329 14.4718 1.35744 14.3571 1.69643 14.3571H17.925C18.264 14.3571 18.5481 14.4718 18.7775 14.7011C19.0068 14.9304 19.1214 15.2146 19.1214 15.5536C19.1214 15.8926 19.0068 16.1767 18.7775 16.406C18.5481 16.6353 18.264 16.75 17.925 16.75H1.69643ZM1.69643 9.57143C1.35744 9.57143 1.07329 9.45677 0.843973 9.22746C0.614658 8.99814 0.5 8.71399 0.5 8.375C0.5 8.03601 0.614658 7.75186 0.843973 7.52254C1.07329 7.29323 1.35744 7.17857 1.69643 7.17857H17.925C18.264 7.17857 18.5481 7.29323 18.7775 7.52254C19.0068 7.75186 19.1214 8.03601 19.1214 8.375C19.1214 8.71399 19.0068 8.99814 18.7775 9.22746C18.5481 9.45677 18.264 9.57143 17.925 9.57143H1.69643ZM1.69643 2.39286C1.35744 2.39286 1.07329 2.2782 0.843973 2.04888C0.614658 1.81957 0.5 1.53542 0.5 1.19643C0.5 0.85744 0.614658 0.573289 0.843973 0.343974C1.07329 0.114658 1.35744 0 1.69643 0H17.925C18.264 0 18.5481 0.114658 18.7775 0.343974C19.0068 0.573289 19.1214 0.85744 19.1214 1.19643C19.1214 1.53542 19.0068 1.81957 18.7775 2.04888C18.5481 2.2782 18.264 2.39286 17.925 2.39286H1.69643Z" fill="#878D96"/>
</svg>
