<svg width="31" height="30" viewBox="0 0 31 30" fill="none" xmlns="http://www.w3.org/2000/svg">
<mask id="mask0_2984_3858" style="mask-type:alpha" maskUnits="userSpaceOnUse" x="0" y="0" width="31" height="30">
<rect x="0.5" width="30" height="30" fill="#D9D9D9"/>
</mask>
<g mask="url(#mask0_2984_3858)">
<path d="M7.69643 23.75C7.35744 23.75 7.07329 23.6353 6.84397 23.406C6.61466 23.1767 6.5 22.8926 6.5 22.5536C6.5 22.2146 6.61466 21.9304 6.84397 21.7011C7.07329 21.4718 7.35744 21.3571 7.69643 21.3571H23.925C24.264 21.3571 24.5481 21.4718 24.7775 21.7011C25.0068 21.9304 25.1214 22.2146 25.1214 22.5536C25.1214 22.8926 25.0068 23.1767 24.7775 23.406C24.5481 23.6353 24.264 23.75 23.925 23.75H7.69643ZM7.69643 16.5714C7.35744 16.5714 7.07329 16.4568 6.84397 16.2275C6.61466 15.9981 6.5 15.714 6.5 15.375C6.5 15.036 6.61466 14.7519 6.84397 14.5225C7.07329 14.2932 7.35744 14.1786 7.69643 14.1786H23.925C24.264 14.1786 24.5481 14.2932 24.7775 14.5225C25.0068 14.7519 25.1214 15.036 25.1214 15.375C25.1214 15.714 25.0068 15.9981 24.7775 16.2275C24.5481 16.4568 24.264 16.5714 23.925 16.5714H7.69643ZM7.69643 9.39286C7.35744 9.39286 7.07329 9.2782 6.84397 9.04888C6.61466 8.81957 6.5 8.53542 6.5 8.19643C6.5 7.85744 6.61466 7.57329 6.84397 7.34397C7.07329 7.11466 7.35744 7 7.69643 7H23.925C24.264 7 24.5481 7.11466 24.7775 7.34397C25.0068 7.57329 25.1214 7.85744 25.1214 8.19643C25.1214 8.53542 25.0068 8.81957 24.7775 9.04888C24.5481 9.2782 24.264 9.39286 23.925 9.39286H7.69643Z" fill="#21272A"/>
</g>
</svg>
