<svg width="31" height="30" viewBox="0 0 31 30" fill="none" xmlns="http://www.w3.org/2000/svg">
<mask id="mask0_2984_3852" style="mask-type:alpha" maskUnits="userSpaceOnUse" x="0" y="0" width="31" height="30">
<rect x="0.5" width="30" height="30" fill="#D9D9D9"/>
</mask>
<g mask="url(#mask0_2984_3852)">
<path d="M16.5113 13.0013V4C18.9217 4.25284 20.9571 5.21365 22.6174 6.88243C24.2777 8.5512 25.2427 10.5908 25.5124 13.0013H16.5113ZM14.5139 24C11.9518 23.7472 9.80688 22.6684 8.07915 20.7636C6.35142 18.8588 5.48755 16.6085 5.48755 14.0126C5.48755 11.3999 6.35142 9.14117 8.07915 7.23641C9.80688 5.33165 11.9518 4.25284 14.5139 4V24ZM16.5113 24V14.9987H25.5124C25.2764 17.4092 24.3198 19.453 22.6427 21.1302C20.9655 22.8074 18.9217 23.764 16.5113 24Z" fill="#21272A"/>
</g>
</svg>
