<svg width="21" height="20" viewBox="0 0 21 20" fill="none" xmlns="http://www.w3.org/2000/svg">
<path d="M11.5113 9.00127V0C13.9217 0.252845 15.957 1.21365 17.6173 2.88243C19.2776 4.5512 20.2426 6.59081 20.5123 9.00127H11.5113ZM9.51384 20C6.95174 19.7472 4.80682 18.6684 3.07909 16.7636C1.35135 14.8588 0.487488 12.6085 0.487488 10.0126C0.487488 7.39992 1.35135 5.14117 3.07909 3.23641C4.80682 1.33165 6.95174 0.252845 9.51384 0V20ZM11.5113 20V10.9987H20.5123C20.2764 13.4092 19.3198 15.453 17.6426 17.1302C15.9655 18.8074 13.9217 19.764 11.5113 20Z" fill="#878D96"/>
</svg>
