<svg width="31" height="30" viewBox="0 0 31 30" fill="none" xmlns="http://www.w3.org/2000/svg">
<mask id="mask0_2984_3855" style="mask-type:alpha" maskUnits="userSpaceOnUse" x="0" y="0" width="31" height="30">
<rect x="0.5" width="30" height="30" fill="#D9D9D9"/>
</mask>
<g mask="url(#mask0_2984_3855)">
<path fill-rule="evenodd" clip-rule="evenodd" d="M14.0211 18.3136C17.2922 18.3136 19.944 15.6619 19.944 12.3907C19.944 9.11963 17.2922 6.46787 14.0211 6.46787C10.75 6.46787 8.09824 9.11963 8.09824 12.3907C8.09824 15.6619 10.75 18.3136 14.0211 18.3136ZM14.0211 20.7815C18.6552 20.7815 22.4119 17.0248 22.4119 12.3907C22.4119 7.75667 18.6552 4 14.0211 4C9.38704 4 5.63037 7.75667 5.63037 12.3907C5.63037 17.0248 9.38704 20.7815 14.0211 20.7815Z" fill="#21272A"/>
<path fill-rule="evenodd" clip-rule="evenodd" d="M23.5239 23.6386L17.5908 17.7054L19.3358 15.9604L25.269 21.8935C25.7508 22.3754 25.7508 23.1567 25.269 23.6386C24.7871 24.1205 24.0058 24.1205 23.5239 23.6386Z" fill="#21272A"/>
</g>
</svg>
