<svg width="30" height="30" viewBox="0 0 30 30" fill="none" xmlns="http://www.w3.org/2000/svg">
<mask id="mask0_2984_3864" style="mask-type:alpha" maskUnits="userSpaceOnUse" x="0" y="0" width="30" height="30">
<rect width="30" height="30" fill="#D9D9D9"/>
</mask>
<g mask="url(#mask0_2984_3864)">
<path d="M15.0784 21.7552L10.0029 24.8127C9.77867 24.9554 9.54426 25.0166 9.29966 24.9962C9.05506 24.9758 8.84103 24.8943 8.65758 24.7516C8.47413 24.6089 8.33145 24.4305 8.22953 24.2165C8.12761 24.0025 8.10723 23.763 8.16838 23.498L9.51369 17.7193L5.01913 13.8362C4.8153 13.6528 4.6879 13.4439 4.63694 13.2094C4.58598 12.975 4.60127 12.7457 4.68281 12.5215C4.76434 12.2973 4.88664 12.1138 5.04971 11.9711C5.21278 11.8285 5.43699 11.7367 5.72236 11.696L11.6539 11.1762L13.9471 5.7338C14.049 5.4892 14.207 5.30575 14.421 5.18345C14.635 5.06115 14.8542 5 15.0784 5C15.3026 5 15.5217 5.06115 15.7357 5.18345C15.9498 5.30575 16.1077 5.4892 16.2097 5.7338L18.5028 11.1762L24.4344 11.696C24.7197 11.7367 24.944 11.8285 25.107 11.9711C25.2701 12.1138 25.3924 12.2973 25.4739 12.5215C25.5555 12.7457 25.5708 12.975 25.5198 13.2094C25.4688 13.4439 25.3414 13.6528 25.1376 13.8362L20.6431 17.7193L21.9884 23.498C22.0495 23.763 22.0291 24.0025 21.9272 24.2165C21.8253 24.4305 21.6826 24.6089 21.4992 24.7516C21.3157 24.8943 21.1017 24.9758 20.8571 24.9962C20.6125 25.0166 20.3781 24.9554 20.1539 24.8127L15.0784 21.7552Z" fill="#FFC700"/>
</g>
</svg>
