<svg width="31" height="30" viewBox="0 0 31 30" fill="none" xmlns="http://www.w3.org/2000/svg">
<mask id="mask0_2984_3849" style="mask-type:alpha" maskUnits="userSpaceOnUse" x="0" y="0" width="31" height="30">
<rect x="0.5" width="30" height="30" fill="#D9D9D9"/>
</mask>
<g mask="url(#mask0_2984_3849)">
<path d="M15.5785 21.7552L10.503 24.8127C10.2788 24.9554 10.0444 25.0166 9.79978 24.9962C9.55518 24.9758 9.34115 24.8943 9.1577 24.7516C8.97425 24.6089 8.83157 24.4305 8.72965 24.2165C8.62773 24.0025 8.60735 23.763 8.6685 23.498L10.0138 17.7193L5.51926 13.8362C5.31542 13.6528 5.18802 13.4439 5.13707 13.2094C5.08611 12.975 5.10139 12.7457 5.18293 12.5215C5.26446 12.2973 5.38676 12.1138 5.54983 11.9711C5.7129 11.8285 5.93712 11.7367 6.22248 11.696L12.1541 11.1762L14.4472 5.7338C14.5491 5.4892 14.7071 5.30575 14.9211 5.18345C15.1352 5.06115 15.3543 5 15.5785 5C15.8027 5 16.0218 5.06115 16.2359 5.18345C16.4499 5.30575 16.6079 5.4892 16.7098 5.7338L19.0029 11.1762L24.9345 11.696C25.2199 11.7367 25.4441 11.8285 25.6072 11.9711C25.7702 12.1138 25.8925 12.2973 25.9741 12.5215C26.0556 12.7457 26.0709 12.975 26.0199 13.2094C25.969 13.4439 25.8416 13.6528 25.6377 13.8362L21.1432 17.7193L22.4885 23.498C22.5496 23.763 22.5293 24.0025 22.4273 24.2165C22.3254 24.4305 22.1827 24.6089 21.9993 24.7516C21.8158 24.8943 21.6018 24.9758 21.3572 24.9962C21.1126 25.0166 20.8782 24.9554 20.654 24.8127L15.5785 21.7552Z" fill="#21272A"/>
</g>
</svg>
