<svg width="406" height="337" viewBox="0 0 406 337" fill="none" xmlns="http://www.w3.org/2000/svg">
<g filter="url(#filter0_d_1629_42613)">
<path d="M10 39C10 27.9543 18.9543 19 30 19H264.205L274.6 19L284.995 19H368C379.046 19 388 27.9543 388 39V299C388 310.046 379.046 319 368 319H30C18.9543 319 10 310.046 10 299V39Z" fill="white"/>
</g>
<path d="M197.701 2.25C198.278 1.25 199.722 1.25 200.299 2.25L209.825 18.75C210.403 19.75 209.681 21 208.526 21L189.474 21C188.319 21 187.597 19.75 188.175 18.75L197.701 2.25Z" fill="white"/>
<path d="M39.88 98L37.836 94.29H37.262V98H34.868V88.172H38.886C39.6607 88.172 40.3187 88.3073 40.86 88.578C41.4107 88.8487 41.8213 89.222 42.092 89.698C42.3627 90.1647 42.498 90.6873 42.498 91.266C42.498 91.9193 42.3113 92.5027 41.938 93.016C41.574 93.5293 41.0327 93.8933 40.314 94.108L42.582 98H39.88ZM37.262 92.596H38.746C39.1847 92.596 39.5113 92.4887 39.726 92.274C39.95 92.0593 40.062 91.756 40.062 91.364C40.062 90.9907 39.95 90.6967 39.726 90.482C39.5113 90.2673 39.1847 90.16 38.746 90.16H37.262V92.596ZM57.5248 88.172L54.9628 98H52.0648L50.4968 91.532L48.8728 98H45.9748L43.4828 88.172H46.0448L47.4588 95.326L49.2088 88.172H51.8408L53.5208 95.326L54.9488 88.172H57.5248ZM64.0862 88.172V98H61.6922V88.172H64.0862ZM70.5811 90.104C71.4958 90.104 72.2238 90.4027 72.7651 91C73.3158 91.588 73.5911 92.4 73.5911 93.436V98H71.2111V93.758C71.2111 93.2353 71.0758 92.8293 70.8051 92.54C70.5345 92.2507 70.1705 92.106 69.7131 92.106C69.2558 92.106 68.8918 92.2507 68.6211 92.54C68.3505 92.8293 68.2151 93.2353 68.2151 93.758V98H65.8211V90.188H68.2151V91.224C68.4578 90.8787 68.7845 90.608 69.1951 90.412C69.6058 90.2067 70.0678 90.104 70.5811 90.104ZM74.7787 94.08C74.7787 93.2773 74.9281 92.5727 75.2267 91.966C75.5347 91.3593 75.9501 90.8927 76.4727 90.566C76.9954 90.2393 77.5787 90.076 78.2227 90.076C78.7361 90.076 79.2027 90.1833 79.6227 90.398C80.0521 90.6127 80.3881 90.902 80.6307 91.266V87.64H83.0247V98H80.6307V96.88C80.4067 97.2533 80.0847 97.552 79.6647 97.776C79.2541 98 78.7734 98.112 78.2227 98.112C77.5787 98.112 76.9954 97.9487 76.4727 97.622C75.9501 97.286 75.5347 96.8147 75.2267 96.208C74.9281 95.592 74.7787 94.8827 74.7787 94.08ZM80.6307 94.094C80.6307 93.4967 80.4627 93.0253 80.1267 92.68C79.8001 92.3347 79.3987 92.162 78.9227 92.162C78.4467 92.162 78.0407 92.3347 77.7047 92.68C77.3781 93.016 77.2147 93.4827 77.2147 94.08C77.2147 94.6773 77.3781 95.1533 77.7047 95.508C78.0407 95.8533 78.4467 96.026 78.9227 96.026C79.3987 96.026 79.8001 95.8533 80.1267 95.508C80.4627 95.1627 80.6307 94.6913 80.6307 94.094ZM92.1207 93.968C92.1207 94.192 92.1067 94.4253 92.0787 94.668H86.6607C86.698 95.1533 86.852 95.5267 87.1227 95.788C87.4027 96.04 87.7433 96.166 88.1447 96.166C88.742 96.166 89.1573 95.914 89.3907 95.41H91.9387C91.808 95.9233 91.57 96.3853 91.2247 96.796C90.8887 97.2067 90.464 97.5287 89.9507 97.762C89.4373 97.9953 88.8633 98.112 88.2287 98.112C87.4633 98.112 86.782 97.9487 86.1847 97.622C85.5873 97.2953 85.1207 96.8287 84.7847 96.222C84.4487 95.6153 84.2807 94.906 84.2807 94.094C84.2807 93.282 84.444 92.5727 84.7707 91.966C85.1067 91.3593 85.5733 90.8927 86.1707 90.566C86.768 90.2393 87.454 90.076 88.2287 90.076C88.9847 90.076 89.6567 90.2347 90.2447 90.552C90.8327 90.8693 91.29 91.322 91.6167 91.91C91.9527 92.498 92.1207 93.184 92.1207 93.968ZM89.6707 93.338C89.6707 92.9273 89.5307 92.6007 89.2507 92.358C88.9707 92.1153 88.6207 91.994 88.2007 91.994C87.7993 91.994 87.4587 92.1107 87.1787 92.344C86.908 92.5773 86.74 92.9087 86.6747 93.338H89.6707ZM98.0036 98L96.5056 95.83L95.2456 98H92.6556L95.2316 94.01L92.5856 90.188H95.2736L96.7716 92.344L98.0316 90.188H100.622L98.0036 94.122L100.692 98H98.0036Z" fill="#111111"/>
<path d="M128.848 91.2188C128.561 89.8516 127.392 89.1133 126.086 89.1133C124.295 89.1133 122.907 90.4941 122.9 93.0508C122.907 95.6006 124.295 96.9814 126.086 96.9883C127.392 96.9814 128.554 96.25 128.848 94.8965H130.078C129.723 96.9199 128.096 98.1367 126.086 98.1367C123.543 98.1367 121.704 96.1816 121.711 93.0508C121.704 89.9199 123.543 87.9648 126.086 87.9648C128.089 87.9648 129.709 89.1611 130.078 91.2188H128.848ZM132.252 88.1016L135.164 96.4004H135.273L138.199 88.1016H139.498L135.875 98H134.576L130.953 88.1016H132.252ZM139.621 95.8945C139.621 94.1924 141.125 93.8027 142.41 93.707C142.889 93.6729 144.085 93.6045 144.42 93.5977V92.9961C144.42 92.0527 143.859 91.5059 142.738 91.5059C141.802 91.5059 141.234 91.9365 141.07 92.5039H139.84C139.99 91.3076 141.152 90.4805 142.793 90.4805C143.764 90.4805 145.589 90.7676 145.582 93.1055V98H144.42V96.9883H144.365C144.119 97.4873 143.442 98.1709 142.15 98.1777C140.742 98.1709 139.621 97.3438 139.621 95.8945ZM140.797 95.9492C140.804 96.7354 141.453 97.1318 142.355 97.125C143.682 97.1318 144.42 96.2432 144.42 95.3066V94.5615C144.071 94.582 142.902 94.6709 142.547 94.6914C141.48 94.7598 140.804 95.1357 140.797 95.9492ZM147.619 98V88.1016H150.982C153.3 88.1016 154.359 89.3867 154.359 91.1504C154.359 92.4629 153.771 93.4883 152.514 93.9258L154.742 98H153.307L151.235 94.1514C151.16 94.1582 151.078 94.1582 150.996 94.1582H148.85V98H147.619ZM148.85 93.0371H150.941C152.521 93.0371 153.136 92.3262 153.143 91.1504C153.136 89.9678 152.521 89.1953 150.928 89.1953H148.85V93.0371ZM167.512 88.1016V98H166.336L160.977 90.2891H160.881V98H159.65V88.1016H160.84L166.199 95.8262H166.295V88.1016H167.512ZM169.152 89.1953V88.1016H176.617V89.1953H173.514V98H172.27V89.1953H169.152ZM183.658 90.5898C183.556 89.6191 182.653 89.0586 181.471 89.0586C180.158 89.0586 179.304 89.7422 179.297 90.6855C179.304 91.7246 180.459 92.1143 181.211 92.2988L182.195 92.5723C183.255 92.8457 184.998 93.4541 184.998 95.3066C184.998 96.9199 183.699 98.1709 181.402 98.1777C179.27 98.1709 177.95 97.0703 177.834 95.4297H179.092C179.194 96.5371 180.227 97.0635 181.402 97.0566C182.77 97.0635 183.795 96.3594 183.795 95.2793C183.795 94.3154 182.879 93.9463 181.84 93.6523L180.623 93.3242C179.071 92.873 178.101 92.0801 178.107 90.7402C178.101 89.0654 179.591 87.9648 181.512 87.9648C183.433 87.9648 184.813 89.0859 184.861 90.5898H183.658ZM194.377 92.5176V93.5977H190.043V92.5176H194.377ZM200.297 88.1016L203.209 96.4004H203.318L206.244 88.1016H207.543L203.92 98H202.621L198.998 88.1016H200.297ZM207.666 95.8945C207.666 94.1924 209.17 93.8027 210.455 93.707C210.934 93.6729 212.13 93.6045 212.465 93.5977V92.9961C212.465 92.0527 211.904 91.5059 210.783 91.5059C209.847 91.5059 209.279 91.9365 209.115 92.5039H207.885C208.035 91.3076 209.197 90.4805 210.838 90.4805C211.809 90.4805 213.634 90.7676 213.627 93.1055V98H212.465V96.9883H212.41C212.164 97.4873 211.487 98.1709 210.195 98.1777C208.787 98.1709 207.666 97.3438 207.666 95.8945ZM208.842 95.9492C208.849 96.7354 209.498 97.1318 210.4 97.125C211.727 97.1318 212.465 96.2432 212.465 95.3066V94.5615C212.116 94.582 210.947 94.6709 210.592 94.6914C209.525 94.7598 208.849 95.1357 208.842 95.9492ZM215.664 98V88.1016H219.027C221.345 88.1016 222.404 89.3867 222.404 91.1504C222.404 92.4629 221.816 93.4883 220.559 93.9258L222.787 98H221.352L219.28 94.1514C219.205 94.1582 219.123 94.1582 219.041 94.1582H216.895V98H215.664ZM216.895 93.0371H218.986C220.565 93.0371 221.181 92.3262 221.188 91.1504C221.181 89.9678 220.565 89.1953 218.973 89.1953H216.895V93.0371ZM235.557 88.1016V98H234.381L229.021 90.2891H228.926V98H227.695V88.1016H228.885L234.244 95.8262H234.34V88.1016H235.557ZM237.197 89.1953V88.1016H244.662V89.1953H241.559V98H240.314V89.1953H237.197ZM251.703 90.5898C251.601 89.6191 250.698 89.0586 249.516 89.0586C248.203 89.0586 247.349 89.7422 247.342 90.6855C247.349 91.7246 248.504 92.1143 249.256 92.2988L250.24 92.5723C251.3 92.8457 253.043 93.4541 253.043 95.3066C253.043 96.9199 251.744 98.1709 249.447 98.1777C247.314 98.1709 245.995 97.0703 245.879 95.4297H247.137C247.239 96.5371 248.271 97.0635 249.447 97.0566C250.814 97.0635 251.84 96.3594 251.84 95.2793C251.84 94.3154 250.924 93.9463 249.885 93.6523L248.668 93.3242C247.116 92.873 246.146 92.0801 246.152 90.7402C246.146 89.0654 247.636 87.9648 249.557 87.9648C251.478 87.9648 252.858 89.0859 252.906 90.5898H251.703ZM265.334 96.7012V97.6035H254.205V96.7012H259.209V94.4043H255.6V90.6582H262.873V88.7441H255.572V87.8555H263.926V91.5332H256.666V93.5156H264.213V94.4043H260.262V96.7012H265.334ZM270.42 98V88.1016H273.783C276.101 88.1016 277.16 89.3867 277.16 91.1504C277.16 92.4629 276.572 93.4883 275.314 93.9258L277.543 98H276.107L274.036 94.1514C273.961 94.1582 273.879 94.1582 273.797 94.1582H271.65V98H270.42ZM271.65 93.0371H273.742C275.321 93.0371 275.937 92.3262 275.943 91.1504C275.937 89.9678 275.321 89.1953 273.729 89.1953H271.65V93.0371ZM280.77 98L278.062 88.1016H279.307L281.371 96.1133H281.467L283.559 88.1016H284.939L287.045 96.1133H287.127L289.191 88.1016H290.436L287.729 98H286.457L284.297 90.166H284.215L282.041 98H280.77ZM292.979 88.1016V98H291.748V88.1016H292.979ZM307.58 86.9531V89.7559H309.412V90.6719H307.58V93.5566H306.514V86.9531H307.58ZM298.105 92.8047C301.113 92.0869 302.904 90.5488 303.096 88.5801H298.652V87.6914H304.271C304.265 90.7402 302.104 92.8047 298.516 93.6934L298.105 92.8047ZM299.432 98.9434V94.1855H300.43V95.6621H302.617V94.1855H303.615V98.9434H299.432ZM300.43 98.082H302.617V96.4961H300.43V98.082ZM303.684 98.2324C305.119 97.6035 305.83 96.25 305.844 95.0879V94.0625H306.869V95.0469C306.869 96.25 307.573 97.6104 308.988 98.2324L308.414 99.0527C307.396 98.5947 306.719 97.7539 306.356 96.8037C305.987 97.7539 305.297 98.5947 304.271 99.0527L303.684 98.2324ZM320.199 86.9531V99.1348H319.119V86.9531H320.199ZM310.629 92.1348C310.636 89.5508 311.921 87.9033 313.732 87.8965C315.537 87.9033 316.843 89.5508 316.836 92.1348C316.843 94.7256 315.537 96.3662 313.732 96.3594C311.921 96.3662 310.636 94.7256 310.629 92.1348ZM311.668 92.1348C311.668 94.1104 312.516 95.4092 313.732 95.4023C314.956 95.4092 315.797 94.1104 315.797 92.1348C315.797 90.1592 314.956 88.8604 313.732 88.8535C312.516 88.8604 311.668 90.1592 311.668 92.1348ZM331.971 88.2246C331.957 91.7314 330.713 94.9443 326.42 97.0977L325.805 96.2773C328.04 95.1562 329.421 93.7549 330.18 92.1143L326.037 92.5039L325.846 91.5742L330.508 91.2666C330.733 90.583 330.856 89.8652 330.911 89.1133H326.461V88.2246H331.971ZM331.93 92.7363V91.8477H334.787V86.9531H335.854V99.1074H334.787V92.7363H331.93ZM342.238 90.6855C342.245 92.75 343.742 94.8486 345.533 95.6211L344.932 96.4688C343.51 95.8262 342.286 94.4248 341.719 92.7432C341.151 94.5273 339.921 96.0723 338.533 96.7695L337.891 95.9219C339.634 95.0879 341.151 92.791 341.158 90.6855V89.0996H338.287V88.2109H345.137V89.0996H342.238V90.6855ZM346.832 99.1074V86.9531H347.912V99.1074H346.832ZM356.143 88.0195V89.0996H358.986V86.9668H360.066V95.8398H358.986V92.5996H356.143V93.6934H350.564V88.0195H356.143ZM351.631 92.832H355.09V88.9082H351.631V92.832ZM352.205 98.8477V95.0469H353.285V97.9453H360.34V98.8477H352.205ZM356.143 91.7109H358.986V90.002H356.143V91.7109ZM125.607 110.686C125.594 112.634 127.002 114.78 128.766 115.621L128.15 116.469C126.783 115.799 125.628 114.363 125.081 112.716C124.521 114.5 123.304 116.072 121.943 116.77L121.287 115.922C123.037 115.067 124.541 112.757 124.555 110.686V109.1H121.725V108.211H128.342V109.1H125.607V110.686ZM129.832 119.107V106.953H130.898V111.875H132.936V112.791H130.898V119.107H129.832ZM137.68 109.25C137.673 110.925 138.938 112.47 140.729 113.092L140.182 113.953C138.801 113.447 137.728 112.422 137.188 111.137C136.675 112.586 135.574 113.7 134.139 114.254L133.551 113.393C135.403 112.743 136.62 111.096 136.627 109.209V107.705H137.68V109.25ZM135.506 118.848V115.074H136.6V117.945H143.654V118.848H135.506ZM142.027 115.936V106.953H143.094V110.686H144.926V111.602H143.094V115.936H142.027ZM158.611 106.953V111.902H160.58V112.805H158.611V119.107H157.545V106.953H158.611ZM149.287 115.949C152.425 114.391 154.134 112.046 154.38 109.168H149.848V108.266H155.467C155.46 111.704 153.847 114.842 149.889 116.797L149.287 115.949ZM167.717 107.787C167.717 108.259 167.662 108.71 167.566 109.141H170.301V106.967H171.381V114.213H170.301V112.6H167.074V111.711H170.301V110.029H167.272C166.452 111.943 164.545 113.331 161.92 114.049L161.496 113.188C164.463 112.367 166.343 110.74 166.562 108.662H162.111V107.787H167.717ZM163.205 115.607V114.746H171.381V119.094H170.301V115.607H163.205ZM183.426 106.953V119.135H182.346V106.953H183.426ZM173.855 112.135C173.862 109.551 175.147 107.903 176.959 107.896C178.764 107.903 180.069 109.551 180.062 112.135C180.069 114.726 178.764 116.366 176.959 116.359C175.147 116.366 173.862 114.726 173.855 112.135ZM174.895 112.135C174.895 114.11 175.742 115.409 176.959 115.402C178.183 115.409 179.023 114.11 179.023 112.135C179.023 110.159 178.183 108.86 176.959 108.854C175.742 108.86 174.895 110.159 174.895 112.135ZM198.424 106.953V111.971H200.461V112.859H198.424V119.107H197.357V106.953H198.424ZM188.949 109.797V108.908H192.08V107.104H193.146V108.908H196.182V109.797H188.949ZM189.646 113.598C189.64 111.957 190.897 110.809 192.627 110.809C194.343 110.809 195.594 111.957 195.607 113.598C195.594 115.245 194.343 116.387 192.627 116.387C190.897 116.387 189.64 115.245 189.646 113.598ZM190.672 113.598C190.665 114.705 191.492 115.484 192.627 115.471C193.748 115.484 194.568 114.705 194.582 113.598C194.568 112.497 193.748 111.704 192.627 111.711C191.492 111.704 190.665 112.497 190.672 113.598ZM207.146 107.691V111.041H202.717V112.805C204.877 112.798 206.442 112.723 208.336 112.408L208.445 113.297C206.497 113.618 204.87 113.7 202.607 113.693H201.664V110.193H206.094V108.566H201.637V107.691H207.146ZM202.662 115.867V114.992H210.619V119.107H209.553V115.867H202.662ZM209.553 114.35V106.967H210.619V110.084H212.465V110.986H210.619V114.35H209.553ZM222.719 106.912V109.865H224.564V110.754H222.719V113.639H221.652V106.912H222.719ZM213.244 108.922V108.061H216.334V106.83H217.4V108.061H220.49V108.922H213.244ZM213.941 111.465C213.935 110.234 215.097 109.476 216.867 109.469C218.631 109.476 219.779 110.234 219.793 111.465C219.779 112.702 218.631 113.454 216.867 113.461C215.097 113.454 213.935 112.702 213.941 111.465ZM214.967 115.074V114.268H222.719V116.961H216.047V118.15H223.17V118.971H214.994V116.168H221.652V115.074H214.967ZM214.967 111.465C214.96 112.196 215.712 112.654 216.867 112.654C218.016 112.654 218.768 112.196 218.781 111.465C218.768 110.74 218.016 110.269 216.867 110.262C215.712 110.269 214.96 110.74 214.967 111.465ZM238.236 106.953V111.902H240.205V112.805H238.236V119.107H237.17V106.953H238.236ZM228.912 115.949C232.05 114.391 233.759 112.046 234.005 109.168H229.473V108.266H235.092C235.085 111.704 233.472 114.842 229.514 116.797L228.912 115.949ZM250.746 110.357V111.246H242.447V107.199H243.514V110.357H250.746ZM240.93 113.557V112.668H252.018V113.557H240.93ZM242.27 116.852C242.263 115.437 243.842 114.644 246.467 114.65C249.071 114.644 250.637 115.437 250.65 116.852C250.637 118.26 249.071 119.053 246.467 119.053C243.842 119.053 242.263 118.26 242.27 116.852ZM243.363 116.852C243.35 117.699 244.519 118.212 246.467 118.219C248.395 118.212 249.563 117.699 249.57 116.852C249.563 115.99 248.395 115.505 246.467 115.498C244.519 115.505 243.35 115.99 243.363 116.852ZM257.213 108.867C257.199 110.604 258.437 112.128 260.221 112.736L259.619 113.57C258.279 113.071 257.227 112.08 256.7 110.802C256.181 112.258 255.073 113.386 253.604 113.939L253.016 113.064C254.889 112.408 256.133 110.795 256.146 108.908V107.65H257.213V108.867ZM254.998 116.811C254.991 115.348 256.543 114.507 259.072 114.514C261.595 114.507 263.146 115.348 263.146 116.811C263.146 118.26 261.595 119.08 259.072 119.08C256.543 119.08 254.991 118.26 254.998 116.811ZM256.064 116.811C256.058 117.692 257.206 118.226 259.072 118.219C260.932 118.226 262.08 117.692 262.08 116.811C262.08 115.901 260.932 115.361 259.072 115.361C257.206 115.361 256.058 115.901 256.064 116.811ZM259.318 110.453V109.564H262.025V106.953H263.105V114.158H262.025V110.453H259.318ZM275.15 106.953V119.135H274.07V106.953H275.15ZM265.58 112.135C265.587 109.551 266.872 107.903 268.684 107.896C270.488 107.903 271.794 109.551 271.787 112.135C271.794 114.726 270.488 116.366 268.684 116.359C266.872 116.366 265.587 114.726 265.58 112.135ZM266.619 112.135C266.619 114.11 267.467 115.409 268.684 115.402C269.907 115.409 270.748 114.11 270.748 112.135C270.748 110.159 269.907 108.86 268.684 108.854C267.467 108.86 266.619 110.159 266.619 112.135ZM291.816 112.736V113.625H280.742V112.736H291.816ZM281.371 111.15C283.49 110.904 285.534 109.858 285.582 108.471H281.754V107.582H290.832V108.471H286.977C287.024 109.845 289.048 110.904 291.201 111.15L290.805 112.012C288.815 111.759 286.949 110.863 286.279 109.517C285.609 110.863 283.757 111.759 281.754 112.012L281.371 111.15ZM282.082 116.893C282.075 115.498 283.654 114.691 286.279 114.691C288.884 114.691 290.449 115.498 290.463 116.893C290.449 118.301 288.884 119.08 286.279 119.08C283.654 119.08 282.075 118.301 282.082 116.893ZM283.176 116.893C283.162 117.74 284.331 118.226 286.279 118.219C288.207 118.226 289.376 117.74 289.383 116.893C289.376 116.038 288.207 115.553 286.279 115.539C284.331 115.553 283.162 116.038 283.176 116.893ZM302.248 106.953V111.902H304.217V112.805H302.248V119.107H301.182V106.953H302.248ZM292.924 115.949C296.062 114.391 297.771 112.046 298.017 109.168H293.484V108.266H299.104C299.097 111.704 297.483 114.842 293.525 116.797L292.924 115.949ZM314.443 106.953V110.07H316.275V110.986H314.443V114.021H313.377V106.953H314.443ZM304.969 109.1V108.211H308.059V106.844H309.125V108.211H312.215V109.1H304.969ZM305.666 111.793C305.659 110.494 306.828 109.667 308.592 109.66C310.335 109.667 311.504 110.494 311.518 111.793C311.504 113.092 310.335 113.933 308.592 113.926C306.828 113.933 305.659 113.092 305.666 111.793ZM306.691 111.793C306.685 112.586 307.443 113.105 308.592 113.105C309.727 113.105 310.492 112.586 310.506 111.793C310.492 111.007 309.727 110.48 308.592 110.494C307.443 110.48 306.685 111.007 306.691 111.793ZM306.76 118.943V114.555H307.826V115.854H313.377V114.555H314.443V118.943H306.76ZM307.826 118.082H313.377V116.701H307.826V118.082ZM327.062 106.953V119.107H325.996V106.953H327.062ZM317.834 115.977V108.156H318.887V115.047C320.746 115.033 322.66 114.89 324.697 114.459L324.848 115.375C322.688 115.826 320.767 115.977 318.818 115.977H317.834ZM338.547 106.953V111.766H340.584V112.668H338.547V119.135H337.48V106.953H338.547ZM329.674 116.086V108.143H335.348V109.031H330.74V115.184C332.941 115.177 334.493 115.081 336.305 114.746L336.441 115.676C334.534 116.018 332.941 116.086 330.631 116.086H329.674ZM342.525 118.082C342.047 118.075 341.637 117.679 341.65 117.193C341.637 116.715 342.047 116.318 342.525 116.318C343.011 116.318 343.407 116.715 343.4 117.193C343.407 117.679 343.011 118.075 342.525 118.082Z" fill="#1F2937"/>
<path d="M132.676 56.8047V58.0215H121.41V56.8047H124.035V55.2393C123.099 54.8428 122.572 54.2207 122.572 53.4141C122.572 51.9307 124.302 51.0625 127.029 51.0625C129.75 51.0625 131.479 51.9307 131.486 53.4141C131.479 54.2275 130.946 54.8496 130.01 55.2393V56.8047H132.676ZM122.723 60.9746C122.723 59.5527 124.329 58.7598 127.029 58.7734C129.688 58.7598 131.302 59.5527 131.309 60.9746C131.302 62.4102 129.688 63.1895 127.029 63.1895C124.329 63.1895 122.723 62.4102 122.723 60.9746ZM124.158 53.4141C124.145 54.166 125.204 54.5693 127.029 54.5625C128.848 54.5693 129.914 54.166 129.914 53.4141C129.914 52.6553 128.848 52.2314 127.029 52.2383C125.204 52.2314 124.145 52.6553 124.158 53.4141ZM124.268 60.9746C124.261 61.6719 125.231 62.0479 127.029 62.041C128.8 62.0479 129.777 61.6719 129.791 60.9746C129.777 60.2842 128.8 59.9287 127.029 59.9219C125.231 59.9287 124.261 60.2842 124.268 60.9746ZM125.566 56.8047H128.492V55.6289C128.048 55.6904 127.556 55.7246 127.029 55.7246C126.503 55.7246 126.011 55.6904 125.566 55.6289V56.8047ZM136.887 51.7598C138.555 51.7598 139.792 53.1543 140.011 55.4102H142.369V50.8574H143.873V63.2305H142.369V56.6406H140.024C139.86 59.0264 138.603 60.4961 136.887 60.4961C135.027 60.4961 133.708 58.8076 133.715 56.1211C133.708 53.4551 135.027 51.7598 136.887 51.7598ZM135.178 56.1211C135.171 58.0215 135.868 59.1221 136.887 59.1289C137.912 59.1221 138.603 58.0215 138.609 56.1211C138.603 54.2344 137.912 53.127 136.887 53.127C135.868 53.127 135.171 54.2344 135.178 56.1211ZM159.281 50.8574V57.1875H157.764V54.0566H155.303V52.8398H157.764V50.8574H159.281ZM148.863 56.0391C150.853 55.4375 151.885 53.9131 151.885 52.252V51.2676H153.416V52.252C153.409 53.7764 154.407 55.2188 156.328 55.8066L155.521 56.9824C154.182 56.5381 153.211 55.6631 152.664 54.542C152.131 55.793 151.112 56.7773 149.656 57.2559L148.863 56.0391ZM151.146 58.9102V57.7207H159.281V60.9199H152.65V61.8633H159.678V63.0664H151.16V59.7852H157.777V58.9102H151.146ZM171.381 50.8574V58.1309H169.863V56.4219H167.375V57.3789H161.564V51.7871H167.375V52.7441H169.863V50.8574H171.381ZM163 60.8379C162.986 59.334 164.593 58.4521 167.197 58.459C169.815 58.4521 171.415 59.334 171.422 60.8379C171.415 62.3418 169.815 63.2031 167.197 63.2031C164.593 63.2031 162.986 62.3418 163 60.8379ZM163.082 56.1621H165.871V52.9902H163.082V56.1621ZM164.504 60.8379C164.497 61.6035 165.481 62.0273 167.197 62.0273C168.927 62.0273 169.904 61.6035 169.904 60.8379C169.904 60.0381 168.927 59.6279 167.197 59.6211C165.481 59.6279 164.497 60.0381 164.504 60.8379ZM167.375 55.1914H169.863V53.9473H167.375V55.1914Z" fill="#6B7280"/>
<path d="M45.6758 56.8047V58.0215H34.4102V56.8047H37.0352V55.2393C36.0986 54.8428 35.5723 54.2207 35.5723 53.4141C35.5723 51.9307 37.3018 51.0625 40.0293 51.0625C42.75 51.0625 44.4795 51.9307 44.4863 53.4141C44.4795 54.2275 43.9463 54.8496 43.0098 55.2393V56.8047H45.6758ZM35.7227 60.9746C35.7227 59.5527 37.3291 58.7598 40.0293 58.7734C42.6885 58.7598 44.3018 59.5527 44.3086 60.9746C44.3018 62.4102 42.6885 63.1895 40.0293 63.1895C37.3291 63.1895 35.7227 62.4102 35.7227 60.9746ZM37.1582 53.4141C37.1445 54.166 38.2041 54.5693 40.0293 54.5625C41.8477 54.5693 42.9141 54.166 42.9141 53.4141C42.9141 52.6553 41.8477 52.2314 40.0293 52.2383C38.2041 52.2314 37.1445 52.6553 37.1582 53.4141ZM37.2676 60.9746C37.2607 61.6719 38.2314 62.0479 40.0293 62.041C41.7998 62.0479 42.7773 61.6719 42.791 60.9746C42.7773 60.2842 41.7998 59.9287 40.0293 59.9219C38.2314 59.9287 37.2607 60.2842 37.2676 60.9746ZM38.5664 56.8047H41.4922V55.6289C41.0479 55.6904 40.5557 55.7246 40.0293 55.7246C39.5029 55.7246 39.0107 55.6904 38.5664 55.6289V56.8047ZM49.8867 51.7598C51.5547 51.7598 52.792 53.1543 53.0107 55.4102H55.3691V50.8574H56.873V63.2305H55.3691V56.6406H53.0244C52.8604 59.0264 51.6025 60.4961 49.8867 60.4961C48.0273 60.4961 46.708 58.8076 46.7148 56.1211C46.708 53.4551 48.0273 51.7598 49.8867 51.7598ZM48.1777 56.1211C48.1709 58.0215 48.8682 59.1221 49.8867 59.1289C50.9121 59.1221 51.6025 58.0215 51.6094 56.1211C51.6025 54.2344 50.9121 53.127 49.8867 53.127C48.8682 53.127 48.1709 54.2344 48.1777 56.1211Z" fill="#6B7280"/>
<path d="M125.607 146.686C125.594 148.634 127.002 150.78 128.766 151.621L128.15 152.469C126.783 151.799 125.628 150.363 125.081 148.716C124.521 150.5 123.304 152.072 121.943 152.77L121.287 151.922C123.037 151.067 124.541 148.757 124.555 146.686V145.1H121.725V144.211H128.342V145.1H125.607V146.686ZM129.832 155.107V142.953H130.898V147.875H132.936V148.791H130.898V155.107H129.832ZM137.68 145.25C137.673 146.925 138.938 148.47 140.729 149.092L140.182 149.953C138.801 149.447 137.728 148.422 137.188 147.137C136.675 148.586 135.574 149.7 134.139 150.254L133.551 149.393C135.403 148.743 136.62 147.096 136.627 145.209V143.705H137.68V145.25ZM135.506 154.848V151.074H136.6V153.945H143.654V154.848H135.506ZM142.027 151.936V142.953H143.094V146.686H144.926V147.602H143.094V151.936H142.027ZM149.67 143.842C151.577 143.849 152.931 145.011 152.938 146.699C152.931 148.395 151.577 149.55 149.67 149.557C147.749 149.55 146.382 148.395 146.389 146.699C146.382 145.011 147.749 143.849 149.67 143.842ZM145.76 151.539C148.002 151.546 151.099 151.525 153.785 151.129L153.867 151.922C151.085 152.441 148.098 152.455 145.91 152.455L145.76 151.539ZM147.441 146.699C147.435 147.834 148.371 148.613 149.67 148.613C150.955 148.613 151.892 147.834 151.885 146.699C151.892 145.571 150.955 144.785 149.67 144.785C148.371 144.785 147.435 145.571 147.441 146.699ZM154.592 155.135V142.953H155.658V155.135H154.592ZM171.34 142.953V155.135H170.273V142.953H171.34ZM161.988 144.977V144.088H167.648V148.408H163.109V151.279C165.126 151.286 166.924 151.19 169.098 150.842L169.207 151.744C166.972 152.093 165.126 152.182 163.027 152.182H162.016V147.533H166.568V144.977H161.988ZM179.461 144.744C179.468 146.829 181.847 148.682 183.959 149.078L183.467 149.98C181.628 149.557 179.7 148.251 178.914 146.467C178.121 148.251 176.2 149.55 174.361 149.98L173.869 149.078C175.975 148.675 178.333 146.836 178.34 144.744V143.814H179.461V144.744ZM173.404 153.453V152.564H184.533V153.453H173.404ZM195.197 144.197V145.701C195.204 147.492 195.204 149.146 194.691 151.607L193.611 151.512C193.885 150.343 194.015 149.331 194.083 148.388L186.666 148.791L186.516 147.902L194.131 147.588C194.151 146.945 194.158 146.323 194.158 145.701V145.1H186.844V144.197H195.197ZM185.504 153.398V152.496H196.578V153.398H185.504ZM212.246 152.646V153.549H201.117V152.646H206.135V149.693H207.215V152.646H212.246ZM201.664 149.256C203.722 148.907 206.107 147.205 206.107 145.264V144.963H202.033V144.061H211.289V144.963H207.215V145.264C207.222 147.205 209.614 148.873 211.713 149.215L211.275 150.062C209.416 149.693 207.454 148.511 206.675 146.829C205.896 148.531 203.94 149.741 202.115 150.117L201.664 149.256ZM223.266 142.953V155.107H222.186V142.953H223.266ZM213.367 151.949C216.655 150.391 218.337 148.06 218.576 145.154H213.928V144.279H219.67C219.656 147.772 218.029 150.869 213.955 152.824L213.367 151.949ZM235.393 142.967V150.268H234.312V148.627H231.086V147.738H234.312V146.098H231.209C230.409 148.053 228.536 149.468 225.932 150.24L225.48 149.393C228.413 148.524 230.252 146.877 230.464 144.771H226.096V143.869H231.633C231.633 144.348 231.578 144.806 231.476 145.236H234.312V142.967H235.393ZM227.354 152.715C227.347 151.266 228.926 150.391 231.414 150.391C233.875 150.391 235.461 151.266 235.461 152.715C235.461 154.171 233.875 155.053 231.414 155.053C228.926 155.053 227.347 154.171 227.354 152.715ZM228.406 152.715C228.413 153.631 229.582 154.185 231.414 154.178C233.219 154.185 234.388 153.631 234.395 152.715C234.388 151.799 233.219 151.245 231.414 151.252C229.582 151.245 228.413 151.799 228.406 152.715ZM248.545 152.66V153.549H237.416V152.66H242.42V150.035H238.729V143.814H239.809V146.016H246.125V143.814H247.178V150.035H243.473V152.66H248.545ZM239.809 149.16H246.125V146.891H239.809V149.16ZM260.631 148.6V149.447H249.502V148.6H260.631ZM250.842 151.225V150.418H259.236V153.002H251.936V154.164H259.633V154.943H250.855V152.264H258.17V151.225H250.842ZM250.91 144.102V143.322H259.195V145.838H252.018V146.904H259.414V147.684H250.951V145.1H258.115V144.102H250.91ZM275.52 142.953V155.107H274.494V142.953H275.52ZM264.979 151.867C266.674 150.855 267.665 148.634 267.658 146.426V145.277H265.32V144.389H270.926V145.277H268.697V146.426C268.697 148.524 269.647 150.623 271.322 151.594L270.666 152.387C269.47 151.669 268.622 150.356 268.198 148.812C267.761 150.486 266.879 151.915 265.662 152.674L264.979 151.867ZM269.996 148.217V147.342H272.047V143.254H273.059V154.479H272.047V148.217H269.996ZM282.725 150.637C285.329 150.637 286.983 151.457 286.99 152.865C286.983 154.26 285.329 155.08 282.725 155.08C280.12 155.08 278.466 154.26 278.473 152.865C278.466 151.457 280.12 150.637 282.725 150.637ZM277.242 149.502V148.627H281.822V146.275H282.875V148.627H288.303V149.502H277.242ZM278.555 144.457V143.582H286.895V144.607C286.888 145.592 286.888 146.576 286.553 147.834L285.5 147.711C285.828 146.46 285.828 145.558 285.828 144.607V144.457H278.555ZM279.539 152.865C279.532 153.713 280.79 154.232 282.725 154.232C284.666 154.232 285.91 153.713 285.924 152.865C285.91 151.997 284.666 151.464 282.725 151.457C280.79 151.464 279.532 151.997 279.539 152.865ZM298.734 142.953V147.971H300.771V148.859H298.734V155.107H297.668V142.953H298.734ZM289.26 145.797V144.908H292.391V143.104H293.457V144.908H296.492V145.797H289.26ZM289.957 149.598C289.95 147.957 291.208 146.809 292.938 146.809C294.653 146.809 295.904 147.957 295.918 149.598C295.904 151.245 294.653 152.387 292.938 152.387C291.208 152.387 289.95 151.245 289.957 149.598ZM290.982 149.598C290.976 150.705 291.803 151.484 292.938 151.471C294.059 151.484 294.879 150.705 294.893 149.598C294.879 148.497 294.059 147.704 292.938 147.711C291.803 147.704 290.976 148.497 290.982 149.598ZM311.258 146.645V147.506H302.932V143.404H303.998V146.645H311.258ZM301.414 150.035V149.16H312.543V150.035H301.414ZM302.863 154.807V151.279H303.93V153.918H311.326V154.807H302.863ZM327.09 142.953V155.107H326.01V142.953H327.09ZM317.191 151.949C320.479 150.391 322.161 148.06 322.4 145.154H317.752V144.279H323.494C323.48 147.772 321.854 150.869 317.779 152.824L317.191 151.949ZM335.375 144.471C335.368 145.968 337.405 147.185 339.559 147.479L339.135 148.326C337.173 148.039 335.334 147.062 334.678 145.64C334.015 147.062 332.189 148.039 330.221 148.326L329.824 147.479C331.964 147.185 333.987 145.968 333.98 144.471V144.443H330.152V143.568H339.23V144.443H335.375V144.471ZM329.127 150.104V149.215H340.256V150.104H335.307V152.592H334.24V150.104H329.127ZM330.549 154.848V151.375H331.629V153.945H339.012V154.848H330.549ZM125.84 166.686C125.847 168.75 127.344 170.849 129.135 171.621L128.533 172.469C127.111 171.826 125.888 170.425 125.32 168.743C124.753 170.527 123.522 172.072 122.135 172.77L121.492 171.922C123.235 171.088 124.753 168.791 124.76 166.686V165.1H121.889V164.211H128.738V165.1H125.84V166.686ZM130.434 175.107V162.953H131.514V175.107H130.434ZM144.721 172.729V173.617H133.592V172.729H136.695V169.83H134.604V168.941H136.504V164.977H134.576V164.088H143.654V164.977H141.727V168.941H143.627V169.83H141.535V172.729H144.721ZM137.57 168.941H140.674V164.977H137.57V168.941ZM137.775 172.729H140.469V169.83H137.775V172.729ZM156.82 172.701V173.604H145.691V172.701H150.695V170.404H147.086V166.658H154.359V164.744H147.059V163.855H155.412V167.533H148.152V169.516H155.699V170.404H151.748V172.701H156.82ZM159.787 173.084L158.721 176.803H157.709L158.461 173.084H159.787ZM165.488 174V164.102H168.852C171.169 164.102 172.229 165.387 172.229 167.15C172.229 168.463 171.641 169.488 170.383 169.926L172.611 174H171.176L169.104 170.151C169.029 170.158 168.947 170.158 168.865 170.158H166.719V174H165.488ZM166.719 169.037H168.811C170.39 169.037 171.005 168.326 171.012 167.15C171.005 165.968 170.39 165.195 168.797 165.195H166.719V169.037ZM175.838 174L173.131 164.102H174.375L176.439 172.113H176.535L178.627 164.102H180.008L182.113 172.113H182.195L184.26 164.102H185.504L182.797 174H181.525L179.365 166.166H179.283L177.109 174H175.838ZM191.561 164.102V174H190.33V164.102H191.561ZM194.773 169.543V174H193.598V166.576H194.732V167.738H194.828C195.177 166.979 195.874 166.48 197.002 166.48C198.506 166.48 199.511 167.396 199.504 169.283V174H198.328V169.365C198.328 168.217 197.699 167.533 196.646 167.533C195.566 167.533 194.773 168.258 194.773 169.543ZM204.193 174.15C202.341 174.157 201.035 172.667 201.035 170.309C201.035 167.957 202.341 166.48 204.207 166.48C205.649 166.48 206.101 167.355 206.354 167.752H206.436V164.102H207.625V174H206.477V172.865H206.354C206.094 173.275 205.608 174.157 204.193 174.15ZM202.225 170.281C202.225 171.86 202.949 173.098 204.357 173.098C205.718 173.098 206.47 171.949 206.477 170.281C206.47 168.634 205.738 167.533 204.357 167.533C202.929 167.533 202.225 168.729 202.225 170.281ZM212.779 174.15C210.633 174.157 209.307 172.626 209.307 170.35C209.307 168.066 210.653 166.48 212.67 166.48C214.229 166.48 215.876 167.438 215.869 170.186V170.678H210.482C210.544 172.25 211.46 173.111 212.779 173.111C213.668 173.111 214.229 172.722 214.502 172.264H215.76C215.411 173.392 214.311 174.157 212.779 174.15ZM210.489 169.68H214.68C214.673 168.442 213.894 167.52 212.67 167.52C211.385 167.52 210.571 168.531 210.489 169.68ZM218.098 166.576L219.848 169.598L221.611 166.576H222.965L220.572 170.281L222.965 174H221.625L219.848 171.129L218.098 174H216.744L219.082 170.281L216.744 166.576H218.098ZM233.342 162.953V167.902H235.311V168.805H233.342V175.107H232.275V162.953H233.342ZM224.018 171.949C227.155 170.391 228.864 168.046 229.11 165.168H224.578V164.266H230.197C230.19 167.704 228.577 170.842 224.619 172.797L224.018 171.949ZM240.15 174V164.102H246.152V165.195H241.381V168.504H245.838V169.584H241.381V172.906H246.221V174H240.15ZM249.926 174L247.219 164.102H248.463L250.527 172.113H250.623L252.715 164.102H254.096L256.201 172.113H256.283L258.348 164.102H259.592L256.885 174H255.613L253.453 166.166H253.371L251.197 174H249.926ZM265.648 164.102V174H264.418V164.102H265.648ZM268.861 169.543V174H267.686V166.576H268.82V167.738H268.916C269.265 166.979 269.962 166.48 271.09 166.48C272.594 166.48 273.599 167.396 273.592 169.283V174H272.416V169.365C272.416 168.217 271.787 167.533 270.734 167.533C269.654 167.533 268.861 168.258 268.861 169.543ZM278.281 174.15C276.429 174.157 275.123 172.667 275.123 170.309C275.123 167.957 276.429 166.48 278.295 166.48C279.737 166.48 280.188 167.355 280.441 167.752H280.523V164.102H281.713V174H280.564V172.865H280.441C280.182 173.275 279.696 174.157 278.281 174.15ZM276.312 170.281C276.312 171.86 277.037 173.098 278.445 173.098C279.806 173.098 280.558 171.949 280.564 170.281C280.558 168.634 279.826 167.533 278.445 167.533C277.017 167.533 276.312 168.729 276.312 170.281ZM286.867 174.15C284.721 174.157 283.395 172.626 283.395 170.35C283.395 168.066 284.741 166.48 286.758 166.48C288.316 166.48 289.964 167.438 289.957 170.186V170.678H284.57C284.632 172.25 285.548 173.111 286.867 173.111C287.756 173.111 288.316 172.722 288.59 172.264H289.848C289.499 173.392 288.398 174.157 286.867 174.15ZM284.577 169.68H288.768C288.761 168.442 287.981 167.52 286.758 167.52C285.473 167.52 284.659 168.531 284.577 169.68ZM292.186 166.576L293.936 169.598L295.699 166.576H297.053L294.66 170.281L297.053 174H295.713L293.936 171.129L292.186 174H290.832L293.17 170.281L290.832 166.576H292.186ZM309.152 172.66V173.549H298.023V172.66H303.027V170.035H299.336V163.814H300.416V166.016H306.732V163.814H307.785V170.035H304.08V172.66H309.152ZM300.416 169.16H306.732V166.891H300.416V169.16ZM319.529 162.953V167.766H321.566V168.668H319.529V175.135H318.463V162.953H319.529ZM310.656 172.086V164.143H316.33V165.031H311.723V171.184C313.924 171.177 315.476 171.081 317.287 170.746L317.424 171.676C315.517 172.018 313.924 172.086 311.613 172.086H310.656ZM335.402 163.555V164.471C335.402 165.407 335.402 166.501 335.108 167.943H336.811V168.818H325.75V167.943H334.028C334.158 167.362 334.227 166.843 334.274 166.371L326.994 166.686L326.857 165.824L334.322 165.599C334.343 165.202 334.336 164.826 334.336 164.471V164.43H327.145V163.555H335.402ZM327.049 170.828V169.994H335.498V172.797H328.143V174.082H335.922V174.943H327.076V171.977H334.432V170.828H327.049ZM131.568 182.967V190.268H130.488V188.627H127.262V187.738H130.488V186.098H127.385C126.585 188.053 124.712 189.468 122.107 190.24L121.656 189.393C124.589 188.524 126.428 186.877 126.64 184.771H122.271V183.869H127.809C127.809 184.348 127.754 184.806 127.651 185.236H130.488V182.967H131.568ZM123.529 192.715C123.522 191.266 125.102 190.391 127.59 190.391C130.051 190.391 131.637 191.266 131.637 192.715C131.637 194.171 130.051 195.053 127.59 195.053C125.102 195.053 123.522 194.171 123.529 192.715ZM124.582 192.715C124.589 193.631 125.758 194.185 127.59 194.178C129.395 194.185 130.563 193.631 130.57 192.715C130.563 191.799 129.395 191.245 127.59 191.252C125.758 191.245 124.589 191.799 124.582 192.715ZM144.707 189.926V190.828H139.635V195.107H138.582V190.828H133.578V189.926H144.707ZM134.836 186.125C134.843 184.478 136.559 183.452 139.115 183.445C141.665 183.452 143.395 184.478 143.395 186.125C143.395 187.745 141.665 188.771 139.115 188.764C136.559 188.771 134.843 187.745 134.836 186.125ZM135.943 186.125C135.93 187.205 137.222 187.902 139.115 187.902C141.009 187.902 142.294 187.205 142.301 186.125C142.294 185.024 141.009 184.32 139.115 184.32C137.222 184.32 135.93 185.024 135.943 186.125ZM159.24 182.953V195.135H158.174V182.953H159.24ZM149.889 184.977V184.088H155.549V188.408H151.01V191.279C153.026 191.286 154.824 191.19 156.998 190.842L157.107 191.744C154.872 192.093 153.026 192.182 150.928 192.182H149.916V187.533H154.469V184.977H149.889ZM167.361 184.744C167.368 186.829 169.747 188.682 171.859 189.078L171.367 189.98C169.528 189.557 167.601 188.251 166.814 186.467C166.021 188.251 164.101 189.55 162.262 189.98L161.77 189.078C163.875 188.675 166.233 186.836 166.24 184.744V183.814H167.361V184.744ZM161.305 193.453V192.564H172.434V193.453H161.305ZM183.098 184.197V185.701C183.104 187.492 183.104 189.146 182.592 191.607L181.512 191.512C181.785 190.343 181.915 189.331 181.983 188.388L174.566 188.791L174.416 187.902L182.031 187.588C182.052 186.945 182.059 186.323 182.059 185.701V185.1H174.744V184.197H183.098ZM173.404 193.398V192.496H184.479V193.398H173.404ZM200.092 189.393V190.254H189.004V189.393H200.092ZM190.248 192.305V191.443H198.656V195.107H197.562V192.305H190.248ZM190.48 188.217V183.281H198.711V184.143H191.561V185.305H198.383V186.139H191.561V187.383H198.779V188.217H190.48ZM212.246 192.66V193.549H201.117V192.66H206.121V190.035H202.43V183.814H203.51V186.016H209.826V183.814H210.879V190.035H207.174V192.66H212.246ZM203.51 189.16H209.826V186.891H203.51V189.16ZM222.623 182.953V187.902H224.592V188.805H222.623V195.107H221.557V182.953H222.623ZM213.299 191.949C216.437 190.391 218.146 188.046 218.392 185.168H213.859V184.266H219.479C219.472 187.704 217.858 190.842 213.9 192.797L213.299 191.949ZM230.402 183.473V185.223H233.943V183.473H235.01V188.764H229.35V183.473H230.402ZM230.402 187.889H233.943V186.057H230.402V187.889ZM230.58 190.678V189.816H238.332V192.756H231.66V194.096H238.783V194.971H230.607V191.936H237.266V190.678H230.58ZM237.266 189.242V182.953H238.332V185.592H240.164V186.494H238.332V189.242H237.266ZM244.553 185.373C244.56 186.72 245.496 188.08 247.055 188.668L246.494 189.488C245.325 189.037 244.484 188.169 244.047 187.123C243.603 188.278 242.728 189.311 241.531 189.83L240.943 188.996C242.543 188.299 243.521 186.727 243.527 185.373V183.719H244.553V185.373ZM243.158 192.92C243.145 191.546 244.703 190.739 247.232 190.746C249.748 190.739 251.313 191.546 251.32 192.92C251.313 194.28 249.748 195.08 247.232 195.08C244.703 195.08 243.145 194.28 243.158 192.92ZM244.225 192.92C244.211 193.747 245.366 194.253 247.232 194.246C249.078 194.253 250.24 193.747 250.254 192.92C250.24 192.079 249.078 191.573 247.232 191.566C245.366 191.573 244.211 192.079 244.225 192.92ZM247.602 190.09V183.199H248.613V186.234H250.227V182.967H251.252V190.473H250.227V187.123H248.613V190.09H247.602ZM262.531 182.953V186.07H264.363V186.986H262.531V190.021H261.465V182.953H262.531ZM253.057 185.1V184.211H256.146V182.844H257.213V184.211H260.303V185.1H253.057ZM253.754 187.793C253.747 186.494 254.916 185.667 256.68 185.66C258.423 185.667 259.592 186.494 259.605 187.793C259.592 189.092 258.423 189.933 256.68 189.926C254.916 189.933 253.747 189.092 253.754 187.793ZM254.779 187.793C254.772 188.586 255.531 189.105 256.68 189.105C257.814 189.105 258.58 188.586 258.594 187.793C258.58 187.007 257.814 186.48 256.68 186.494C255.531 186.48 254.772 187.007 254.779 187.793ZM254.848 194.943V190.555H255.914V191.854H261.465V190.555H262.531V194.943H254.848ZM255.914 194.082H261.465V192.701H255.914V194.082ZM275.15 182.953V195.107H274.084V182.953H275.15ZM265.922 191.977V184.156H266.975V191.047C268.834 191.033 270.748 190.89 272.785 190.459L272.936 191.375C270.775 191.826 268.854 191.977 266.906 191.977H265.922ZM286.635 182.953V187.766H288.672V188.668H286.635V195.135H285.568V182.953H286.635ZM277.762 192.086V184.143H283.436V185.031H278.828V191.184C281.029 191.177 282.581 191.081 284.393 190.746L284.529 191.676C282.622 192.018 281.029 192.086 278.719 192.086H277.762ZM290.613 194.082C290.135 194.075 289.725 193.679 289.738 193.193C289.725 192.715 290.135 192.318 290.613 192.318C291.099 192.318 291.495 192.715 291.488 193.193C291.495 193.679 291.099 194.075 290.613 194.082Z" fill="#1F2937"/>
<path d="M125.225 219.965C126.927 219.985 128.82 221.011 128.82 224.654C128.82 228.175 127.378 230.137 125.061 230.137C123.317 230.137 122.094 229.07 121.848 227.498H123.064C123.283 228.387 123.96 229.043 125.061 229.043C126.674 229.043 127.658 227.648 127.672 225.242H127.535C126.968 226.062 126.059 226.555 125.006 226.555C123.235 226.555 121.766 225.194 121.766 223.287C121.766 221.441 123.119 219.944 125.225 219.965ZM122.969 223.273C122.962 224.497 123.892 225.475 125.184 225.475C126.476 225.475 127.48 224.408 127.48 223.246C127.48 222.111 126.53 221.045 125.225 221.045C123.933 221.045 122.955 222.05 122.969 223.273ZM133.742 230.137C131.958 230.137 130.604 229.036 130.529 227.512H131.719C131.808 228.394 132.669 229.05 133.742 229.057C135.027 229.05 135.957 228.113 135.957 226.869C135.957 225.584 134.993 224.634 133.66 224.627C132.826 224.613 132.177 224.873 131.814 225.516H130.625L131.322 220.102H136.682V221.195H132.348L131.979 224.094H132.074C132.519 223.752 133.182 223.52 133.879 223.52C135.766 223.52 137.153 224.914 137.16 226.842C137.153 228.756 135.718 230.137 133.742 230.137ZM143.914 227.621C143.914 226.541 144.611 225.618 145.855 225.625C147.113 225.618 147.783 226.541 147.783 227.621V228.141C147.783 229.228 147.093 230.144 145.855 230.15C144.591 230.144 143.914 229.228 143.914 228.141V227.621ZM138.979 222.48V221.961C138.972 220.874 139.683 219.951 140.92 219.951C142.185 219.951 142.841 220.874 142.848 221.961V222.48C142.841 223.561 142.164 224.477 140.92 224.477C139.648 224.477 138.972 223.561 138.979 222.48ZM139.348 230L146.156 220.102H147.264L140.455 230H139.348ZM139.977 222.48C139.977 223.068 140.229 223.629 140.92 223.629C141.597 223.629 141.836 223.068 141.836 222.48V221.961C141.836 221.366 141.61 220.806 140.92 220.799C140.25 220.806 139.977 221.366 139.977 221.961V222.48ZM144.926 228.141C144.919 228.735 145.165 229.296 145.855 229.289C146.525 229.296 146.778 228.735 146.771 228.141V227.621C146.778 227.033 146.546 226.473 145.855 226.473C145.179 226.473 144.919 227.033 144.926 227.621V228.141ZM156.766 220.102V230H155.521V221.387H155.467L153.061 222.986V221.742L155.521 220.102H156.766ZM162.412 219.404C164.23 219.411 165.55 220.519 165.557 222.098C165.55 223.684 164.23 224.777 162.412 224.777C160.573 224.777 159.247 223.684 159.254 222.098C159.247 220.519 160.573 219.411 162.412 219.404ZM160.307 222.098C160.293 223.164 161.188 223.902 162.412 223.902C163.615 223.902 164.518 223.164 164.518 222.098C164.518 221.045 163.615 220.3 162.412 220.307C161.188 220.3 160.293 221.045 160.307 222.098ZM161.1 226.65V225.789H169.002V228.715H162.18V230.082H169.439V230.943H161.127V227.908H167.936V226.65H161.1ZM167.936 225.201V218.953H169.002V225.201H167.936ZM185.668 224.969V225.83H174.58V224.969H179.598V223.547H175.988V219.527H184.287V220.389H177.041V222.672H184.369V223.547H180.637V224.969H185.668ZM175.92 228.906C175.913 227.519 177.492 226.726 180.117 226.719C182.722 226.726 184.287 227.519 184.301 228.906C184.287 230.308 182.722 231.094 180.117 231.107C177.492 231.094 175.913 230.308 175.92 228.906ZM177.014 228.906C177 229.761 178.169 230.253 180.117 230.246C182.045 230.253 183.214 229.761 183.221 228.906C183.214 228.065 182.045 227.566 180.117 227.566C178.169 227.566 177 228.065 177.014 228.906ZM196.182 218.953V222.658H198.014V223.561H196.182V227.922H195.115V218.953H196.182ZM186.912 222.809C186.905 221.045 188.286 219.821 190.098 219.814C191.923 219.821 193.283 221.045 193.297 222.809C193.283 224.565 191.923 225.803 190.098 225.803C188.286 225.803 186.905 224.565 186.912 222.809ZM187.965 222.809C187.958 224.005 188.895 224.859 190.098 224.859C191.321 224.859 192.237 224.005 192.244 222.809C192.237 221.605 191.321 220.758 190.098 220.758C188.895 220.758 187.958 221.605 187.965 222.809ZM188.58 230.848V226.992H189.633V229.945H196.742V230.848H188.58ZM203.865 219.473V221.223H207.406V219.473H208.473V224.764H202.812V219.473H203.865ZM203.865 223.889H207.406V222.057H203.865V223.889ZM204.043 226.678V225.816H211.795V228.756H205.123V230.096H212.246V230.971H204.07V227.936H210.729V226.678H204.043ZM210.729 225.242V218.953H211.795V221.592H213.627V222.494H211.795V225.242H210.729ZM218.016 221.373C218.022 222.72 218.959 224.08 220.518 224.668L219.957 225.488C218.788 225.037 217.947 224.169 217.51 223.123C217.065 224.278 216.19 225.311 214.994 225.83L214.406 224.996C216.006 224.299 216.983 222.727 216.99 221.373V219.719H218.016V221.373ZM216.621 228.92C216.607 227.546 218.166 226.739 220.695 226.746C223.211 226.739 224.776 227.546 224.783 228.92C224.776 230.28 223.211 231.08 220.695 231.08C218.166 231.08 216.607 230.28 216.621 228.92ZM217.688 228.92C217.674 229.747 218.829 230.253 220.695 230.246C222.541 230.253 223.703 229.747 223.717 228.92C223.703 228.079 222.541 227.573 220.695 227.566C218.829 227.573 217.674 228.079 217.688 228.92ZM221.064 226.09V219.199H222.076V222.234H223.689V218.967H224.715V226.473H223.689V223.123H222.076V226.09H221.064ZM239.412 218.953V223.902H241.381V224.805H239.412V231.107H238.346V218.953H239.412ZM230.088 227.949C233.226 226.391 234.935 224.046 235.181 221.168H230.648V220.266H236.268C236.261 223.704 234.647 226.842 230.689 228.797L230.088 227.949ZM251.922 222.357V223.246H243.623V219.199H244.689V222.357H251.922ZM242.105 225.557V224.668H253.193V225.557H242.105ZM243.445 228.852C243.438 227.437 245.018 226.644 247.643 226.65C250.247 226.644 251.812 227.437 251.826 228.852C251.812 230.26 250.247 231.053 247.643 231.053C245.018 231.053 243.438 230.26 243.445 228.852ZM244.539 228.852C244.525 229.699 245.694 230.212 247.643 230.219C249.57 230.212 250.739 229.699 250.746 228.852C250.739 227.99 249.57 227.505 247.643 227.498C245.694 227.505 244.525 227.99 244.539 228.852ZM263.707 218.967V222.973H265.539V223.875H263.707V228.072H262.641V218.967H263.707ZM254.232 221.332V220.457H257.322V218.967H258.389V220.457H261.479V221.332H254.232ZM254.93 224.271C254.923 222.891 256.099 222.002 257.855 222.002C259.592 222.002 260.768 222.891 260.781 224.271C260.768 225.639 259.592 226.521 257.855 226.514C256.099 226.521 254.923 225.639 254.93 224.271ZM255.955 224.271C255.948 225.126 256.707 225.68 257.855 225.666C258.99 225.68 259.756 225.126 259.77 224.271C259.756 223.403 258.99 222.843 257.855 222.85C256.707 222.843 255.948 223.403 255.955 224.271ZM256.105 230.848V227.348H257.158V229.945H264.268V230.848H256.105ZM279.662 229.945V230.848H271.254V227.348H272.334V229.945H279.662ZM269.818 226.377V225.475H274.822V223.41H275.875V225.475H280.934V226.377H269.818ZM270.543 223.355C272.669 223 274.809 221.537 274.809 219.828V219.281H275.889V219.828C275.889 221.551 278.028 223.021 280.154 223.355L279.73 224.203C277.898 223.854 276.107 222.822 275.355 221.346C274.604 222.822 272.812 223.861 270.98 224.203L270.543 223.355ZM291.939 218.953V225.256H290.887V218.953H291.939ZM282 224.285C283.832 223.649 285.131 222.022 285.131 220.238V219.309H286.225V220.238C286.211 221.954 287.523 223.472 289.328 224.066L288.795 224.9C287.366 224.415 286.238 223.396 285.691 222.084C285.145 223.499 284.003 224.613 282.561 225.133L282 224.285ZM284.051 226.732V225.871H291.953V228.783H285.131V230.096H292.391V230.971H284.078V227.949H290.887V226.732H284.051ZM297.996 219.842C299.903 219.849 301.257 221.011 301.264 222.699C301.257 224.395 299.903 225.55 297.996 225.557C296.075 225.55 294.708 224.395 294.715 222.699C294.708 221.011 296.075 219.849 297.996 219.842ZM294.086 227.539C296.328 227.546 299.425 227.525 302.111 227.129L302.193 227.922C299.411 228.441 296.424 228.455 294.236 228.455L294.086 227.539ZM295.768 222.699C295.761 223.834 296.697 224.613 297.996 224.613C299.281 224.613 300.218 223.834 300.211 222.699C300.218 221.571 299.281 220.785 297.996 220.785C296.697 220.785 295.761 221.571 295.768 222.699ZM302.918 231.135V218.953H303.984V231.135H302.918ZM319.666 218.967V225.912H318.6V218.967H319.666ZM309.918 222.453C309.911 220.758 311.258 219.609 313.104 219.609C314.949 219.609 316.282 220.758 316.289 222.453C316.282 224.121 314.949 225.283 313.104 225.283C311.258 225.283 309.911 224.121 309.918 222.453ZM310.971 222.453C310.957 223.581 311.853 224.374 313.104 224.367C314.341 224.374 315.236 223.581 315.236 222.453C315.236 221.318 314.341 220.519 313.104 220.525C311.853 220.519 310.957 221.318 310.971 222.453ZM311.764 230.943V226.568H319.666V230.943H311.764ZM312.816 230.068H318.613V227.443H312.816V230.068ZM332.135 218.953V231.107H331.109V218.953H332.135ZM321.717 227.703C324.362 226.138 325.688 223.943 325.9 221.4H322.264V220.512H326.967C326.967 221.134 326.912 221.749 326.803 222.344H328.648V219.281H329.674V230.492H328.648V226.281H326.393V225.393H328.648V223.232H326.591C326.003 225.29 324.67 227.108 322.373 228.482L321.717 227.703ZM343.332 218.953V221.756H345.164V222.672H343.332V225.557H342.266V218.953H343.332ZM333.857 224.805C336.865 224.087 338.656 222.549 338.848 220.58H334.404V219.691H340.023C340.017 222.74 337.856 224.805 334.268 225.693L333.857 224.805ZM335.184 230.943V226.186H336.182V227.662H338.369V226.186H339.367V230.943H335.184ZM336.182 230.082H338.369V228.496H336.182V230.082ZM339.436 230.232C340.871 229.604 341.582 228.25 341.596 227.088V226.062H342.621V227.047C342.621 228.25 343.325 229.61 344.74 230.232L344.166 231.053C343.147 230.595 342.471 229.754 342.108 228.804C341.739 229.754 341.049 230.595 340.023 231.053L339.436 230.232Z" fill="#1F2937"/>
<path d="M131.336 265.945V266.848H122.928V263.348H124.008V265.945H131.336ZM121.492 262.377V261.475H126.496V259.41H127.549V261.475H132.607V262.377H121.492ZM122.217 259.355C124.343 259 126.482 257.537 126.482 255.828V255.281H127.562V255.828C127.562 257.551 129.702 259.021 131.828 259.355L131.404 260.203C129.572 259.854 127.781 258.822 127.029 257.346C126.277 258.822 124.486 259.861 122.654 260.203L122.217 259.355ZM143.613 254.953V261.256H142.561V254.953H143.613ZM133.674 260.285C135.506 259.649 136.805 258.022 136.805 256.238V255.309H137.898V256.238C137.885 257.954 139.197 259.472 141.002 260.066L140.469 260.9C139.04 260.415 137.912 259.396 137.365 258.084C136.818 259.499 135.677 260.613 134.234 261.133L133.674 260.285ZM135.725 262.732V261.871H143.627V264.783H136.805V266.096H144.064V266.971H135.752V263.949H142.561V262.732H135.725ZM155.713 254.953V267.135H154.633V254.953H155.713ZM146.143 260.135C146.149 257.551 147.435 255.903 149.246 255.896C151.051 255.903 152.356 257.551 152.35 260.135C152.356 262.726 151.051 264.366 149.246 264.359C147.435 264.366 146.149 262.726 146.143 260.135ZM147.182 260.135C147.182 262.11 148.029 263.409 149.246 263.402C150.47 263.409 151.311 262.11 151.311 260.135C151.311 258.159 150.47 256.86 149.246 256.854C148.029 256.86 147.182 258.159 147.182 260.135ZM171.34 254.967V261.912H170.273V254.967H171.34ZM161.592 258.453C161.585 256.758 162.932 255.609 164.777 255.609C166.623 255.609 167.956 256.758 167.963 258.453C167.956 260.121 166.623 261.283 164.777 261.283C162.932 261.283 161.585 260.121 161.592 258.453ZM162.645 258.453C162.631 259.581 163.526 260.374 164.777 260.367C166.015 260.374 166.91 259.581 166.91 258.453C166.91 257.318 166.015 256.519 164.777 256.525C163.526 256.519 162.631 257.318 162.645 258.453ZM163.438 266.943V262.568H171.34V266.943H163.438ZM164.49 266.068H170.287V263.443H164.49V266.068ZM183.809 254.953V267.107H182.783V254.953H183.809ZM173.391 263.703C176.036 262.138 177.362 259.943 177.574 257.4H173.938V256.512H178.641C178.641 257.134 178.586 257.749 178.477 258.344H180.322V255.281H181.348V266.492H180.322V262.281H178.066V261.393H180.322V259.232H178.265C177.677 261.29 176.344 263.108 174.047 264.482L173.391 263.703ZM195.006 254.953V257.756H196.838V258.672H195.006V261.557H193.939V254.953H195.006ZM185.531 260.805C188.539 260.087 190.33 258.549 190.521 256.58H186.078V255.691H191.697C191.69 258.74 189.53 260.805 185.941 261.693L185.531 260.805ZM186.857 266.943V262.186H187.855V263.662H190.043V262.186H191.041V266.943H186.857ZM187.855 266.082H190.043V264.496H187.855V266.082ZM191.109 266.232C192.545 265.604 193.256 264.25 193.27 263.088V262.062H194.295V263.047C194.295 264.25 194.999 265.61 196.414 266.232L195.84 267.053C194.821 266.595 194.145 265.754 193.782 264.804C193.413 265.754 192.723 266.595 191.697 267.053L191.109 266.232ZM198.451 261.83C198.458 259.396 199.114 257.366 200.297 255.65H201.35C200.42 256.922 199.675 259.533 199.668 261.83C199.675 264.134 200.42 266.745 201.35 268.023H200.297C199.114 266.301 198.458 264.271 198.451 261.83ZM203.428 256.102L206.34 264.4H206.449L209.375 256.102H210.674L207.051 266H205.752L202.129 256.102H203.428ZM210.797 263.895C210.797 262.192 212.301 261.803 213.586 261.707C214.064 261.673 215.261 261.604 215.596 261.598V260.996C215.596 260.053 215.035 259.506 213.914 259.506C212.978 259.506 212.41 259.937 212.246 260.504H211.016C211.166 259.308 212.328 258.48 213.969 258.48C214.939 258.48 216.765 258.768 216.758 261.105V266H215.596V264.988H215.541C215.295 265.487 214.618 266.171 213.326 266.178C211.918 266.171 210.797 265.344 210.797 263.895ZM211.973 263.949C211.979 264.735 212.629 265.132 213.531 265.125C214.857 265.132 215.596 264.243 215.596 263.307V262.562C215.247 262.582 214.078 262.671 213.723 262.691C212.656 262.76 211.979 263.136 211.973 263.949ZM218.795 266V256.102H222.158C224.476 256.102 225.535 257.387 225.535 259.15C225.535 260.463 224.947 261.488 223.689 261.926L225.918 266H224.482L222.411 262.151C222.336 262.158 222.254 262.158 222.172 262.158H220.025V266H218.795ZM220.025 261.037H222.117C223.696 261.037 224.312 260.326 224.318 259.15C224.312 257.968 223.696 257.195 222.104 257.195H220.025V261.037ZM229.65 261.83C229.644 264.264 228.987 266.294 227.805 268.01H226.752C227.682 266.738 228.427 264.127 228.434 261.83C228.427 259.526 227.682 256.915 226.752 255.637H227.805C228.987 257.359 229.644 259.39 229.65 261.83ZM237.02 255.172C239.72 255.172 241.306 255.917 241.312 257.264C241.306 258.645 239.72 259.39 237.02 259.396C234.306 259.39 232.713 258.645 232.713 257.264C232.713 255.917 234.306 255.172 237.02 255.172ZM231.482 261.092V260.217H242.557V261.092H231.482ZM232.822 262.965V262.145H241.135V264.865H233.916V266.123H241.504V266.971H232.85V264.072H240.082V262.965H232.822ZM233.834 257.264C233.82 258.111 235.003 258.576 237.02 258.576C239.036 258.576 240.212 258.111 240.219 257.264C240.212 256.464 239.036 255.985 237.02 255.979C235.003 255.985 233.82 256.464 233.834 257.264ZM257.172 262.555V266.943H249.297V262.555H257.172ZM247.82 261.174V255.691H248.9V260.244C250.794 260.251 252.407 260.135 254.178 259.766L254.314 260.682C252.435 261.071 250.773 261.174 248.75 261.174H247.82ZM250.35 266.068H256.119V263.416H250.35V266.068ZM252.592 258.139V257.264H256.092V254.953H257.172V261.967H256.092V258.139H252.592ZM263.379 263.102C263.372 264.195 263.953 265.337 265.108 266.007C266.277 265.275 266.872 264.038 266.879 263.102V262.363H267.932V263.102C267.925 264.359 268.834 265.624 270.42 266.15L269.859 266.957C268.649 266.513 267.802 265.665 267.392 264.64C267.009 265.631 266.264 266.574 265.129 267.053C263.967 266.602 263.215 265.706 262.846 264.681C262.408 265.658 261.574 266.513 260.412 266.957L259.879 266.15C261.417 265.597 262.34 264.277 262.354 263.102V262.363H263.379V263.102ZM259.4 258.494C259.4 256.826 260.727 255.644 262.545 255.65C264.145 255.644 265.396 256.607 265.635 258.016H268.191V254.953H269.271V261.898H268.191V258.904H265.642C265.437 260.354 264.172 261.338 262.545 261.338C260.727 261.338 259.4 260.169 259.4 258.494ZM260.439 258.494C260.426 259.622 261.321 260.442 262.545 260.449C263.741 260.442 264.637 259.622 264.637 258.494C264.637 257.366 263.741 256.553 262.545 256.566C261.321 256.553 260.426 257.366 260.439 258.494ZM276.832 255.172C279.532 255.172 281.118 255.917 281.125 257.264C281.118 258.645 279.532 259.39 276.832 259.396C274.118 259.39 272.525 258.645 272.525 257.264C272.525 255.917 274.118 255.172 276.832 255.172ZM271.295 261.092V260.217H282.369V261.092H271.295ZM272.635 262.965V262.145H280.947V264.865H273.729V266.123H281.316V266.971H272.662V264.072H279.895V262.965H272.635ZM273.646 257.264C273.633 258.111 274.815 258.576 276.832 258.576C278.849 258.576 280.024 258.111 280.031 257.264C280.024 256.464 278.849 255.985 276.832 255.979C274.815 255.985 273.633 256.464 273.646 257.264ZM294.961 255.227V259.93H296.438V254.953H297.463V267.107H296.438V260.818H294.961V266.506H293.963V255.227H294.961ZM287.277 263.936V256.498H289.916V257.387H288.275V263.026C288.733 263.006 289.335 262.951 289.998 262.787L290.094 263.703C289.068 263.929 288.275 263.942 287.756 263.936H287.277ZM290.449 263.936V256.498H293.143V257.387H291.42V263.026C291.994 263.013 292.671 262.958 293.402 262.746L293.498 263.662C292.486 263.929 291.646 263.942 290.941 263.936H290.449ZM312.939 254.953V267.107H311.9V254.953H312.939ZM302.672 260.203C302.679 257.619 303.704 255.985 305.283 255.979C306.322 255.985 307.122 256.689 307.56 257.906H309.494V255.213H310.52V266.492H309.494V262.5H307.56C307.129 263.724 306.322 264.435 305.283 264.428C303.704 264.435 302.679 262.787 302.672 260.203ZM303.67 260.203C303.663 262.172 304.285 263.416 305.283 263.402C306.274 263.416 306.91 262.172 306.91 260.203C306.91 258.228 306.274 256.99 305.283 256.99C304.285 256.99 303.663 258.228 303.67 260.203ZM307.785 258.795C307.867 259.226 307.908 259.697 307.908 260.203C307.908 260.702 307.867 261.174 307.792 261.598H309.494V258.795H307.785ZM318.682 256.922C318.682 258.576 319.939 260.094 321.703 260.695L321.115 261.543C319.775 261.051 318.716 260.046 318.183 258.774C317.663 260.217 316.576 261.331 315.154 261.885L314.58 261.023C316.398 260.347 317.622 258.72 317.629 256.84V255.582H318.682V256.922ZM316.193 264.865C316.2 263.478 317.725 262.664 320.227 262.664C322.722 262.664 324.232 263.478 324.232 264.865C324.232 266.28 322.722 267.08 320.227 267.08C317.725 267.08 316.2 266.28 316.193 264.865ZM317.273 264.865C317.26 265.727 318.395 266.226 320.227 266.232C322.065 266.226 323.187 265.727 323.193 264.865C323.187 264.038 322.065 263.525 320.227 263.525C318.395 263.525 317.26 264.038 317.273 264.865ZM323.057 262.35V254.953H324.123V258.125H325.955V259.027H324.123V262.35H323.057ZM333.967 260.203V261.092H331.301V263.484C332.49 263.437 333.687 263.354 334.814 263.225L334.896 264.031C332.203 264.421 329.264 264.476 326.939 264.469L326.789 263.566C327.849 263.566 329.024 263.56 330.234 263.525V261.092H327.719V256.115H333.912V256.99H328.771V260.203H333.967ZM335.621 267.135V254.953H336.688V267.135H335.621ZM348.65 258.645V259.506H340.324V255.404H341.391V258.645H348.65ZM338.807 262.035V261.16H349.936V262.035H338.807ZM340.256 266.807V263.279H341.322V265.918H348.719V266.807H340.256ZM131.541 274.953V287.107H130.461V274.953H131.541ZM121.643 283.949C124.931 282.391 126.612 280.06 126.852 277.154H122.203V276.279H127.945C127.932 279.772 126.305 282.869 122.23 284.824L121.643 283.949ZM143.982 274.953V287.107H142.957V280.736H141.166V286.479H140.182V275.227H141.166V279.848H142.957V274.953H143.982ZM134.043 284.1V276.443H138.596V277.332H135.109V283.184C136.784 283.177 137.939 283.115 139.293 282.842L139.389 283.744C137.926 284.045 136.688 284.093 134.822 284.1H134.043ZM159.049 285.945V286.848H150.641V283.348H151.721V285.945H159.049ZM149.205 282.377V281.475H154.209V279.41H155.262V281.475H160.32V282.377H149.205ZM149.93 279.355C152.056 279 154.195 277.537 154.195 275.828V275.281H155.275V275.828C155.275 277.551 157.415 279.021 159.541 279.355L159.117 280.203C157.285 279.854 155.494 278.822 154.742 277.346C153.99 278.822 152.199 279.861 150.367 280.203L149.93 279.355ZM171.326 274.953V281.256H170.273V274.953H171.326ZM161.387 280.285C163.219 279.649 164.518 278.022 164.518 276.238V275.309H165.611V276.238C165.598 277.954 166.91 279.472 168.715 280.066L168.182 280.9C166.753 280.415 165.625 279.396 165.078 278.084C164.531 279.499 163.39 280.613 161.947 281.133L161.387 280.285ZM163.438 282.732V281.871H171.34V284.783H164.518V286.096H171.777V286.971H163.465V283.949H170.273V282.732H163.438Z" fill="#1F2937"/>
<path d="M37.262 146.09V148.078H40.468V149.926H37.262V152.082H40.888V154H34.868V144.172H40.888V146.09H37.262ZM55.9662 144.172L53.4042 154H50.5062L48.9382 147.532L47.3142 154H44.4162L41.9242 144.172H44.4862L45.9002 151.326L47.6502 144.172H50.2822L51.9622 151.326L53.3902 144.172H55.9662ZM62.5276 144.172V154H60.1336V144.172H62.5276ZM69.0225 146.104C69.9372 146.104 70.6652 146.403 71.2065 147C71.7572 147.588 72.0325 148.4 72.0325 149.436V154H69.6525V149.758C69.6525 149.235 69.5172 148.829 69.2465 148.54C68.9759 148.251 68.6119 148.106 68.1545 148.106C67.6972 148.106 67.3332 148.251 67.0625 148.54C66.7919 148.829 66.6565 149.235 66.6565 149.758V154H64.2625V146.188H66.6565V147.224C66.8992 146.879 67.2259 146.608 67.6365 146.412C68.0472 146.207 68.5092 146.104 69.0225 146.104ZM73.2201 150.08C73.2201 149.277 73.3695 148.573 73.6681 147.966C73.9761 147.359 74.3915 146.893 74.9141 146.566C75.4368 146.239 76.0201 146.076 76.6641 146.076C77.1775 146.076 77.6441 146.183 78.0641 146.398C78.4935 146.613 78.8295 146.902 79.0721 147.266V143.64H81.4661V154H79.0721V152.88C78.8481 153.253 78.5261 153.552 78.1061 153.776C77.6955 154 77.2148 154.112 76.6641 154.112C76.0201 154.112 75.4368 153.949 74.9141 153.622C74.3915 153.286 73.9761 152.815 73.6681 152.208C73.3695 151.592 73.2201 150.883 73.2201 150.08ZM79.0721 150.094C79.0721 149.497 78.9041 149.025 78.5681 148.68C78.2415 148.335 77.8401 148.162 77.3641 148.162C76.8881 148.162 76.4821 148.335 76.1461 148.68C75.8195 149.016 75.6561 149.483 75.6561 150.08C75.6561 150.677 75.8195 151.153 76.1461 151.508C76.4821 151.853 76.8881 152.026 77.3641 152.026C77.8401 152.026 78.2415 151.853 78.5681 151.508C78.9041 151.163 79.0721 150.691 79.0721 150.094ZM90.5621 149.968C90.5621 150.192 90.5481 150.425 90.5201 150.668H85.1021C85.1394 151.153 85.2934 151.527 85.5641 151.788C85.8441 152.04 86.1847 152.166 86.5861 152.166C87.1834 152.166 87.5987 151.914 87.8321 151.41H90.3801C90.2494 151.923 90.0114 152.385 89.6661 152.796C89.3301 153.207 88.9054 153.529 88.3921 153.762C87.8787 153.995 87.3047 154.112 86.6701 154.112C85.9047 154.112 85.2234 153.949 84.6261 153.622C84.0287 153.295 83.5621 152.829 83.2261 152.222C82.8901 151.615 82.7221 150.906 82.7221 150.094C82.7221 149.282 82.8854 148.573 83.2121 147.966C83.5481 147.359 84.0147 146.893 84.6121 146.566C85.2094 146.239 85.8954 146.076 86.6701 146.076C87.4261 146.076 88.0981 146.235 88.6861 146.552C89.2741 146.869 89.7314 147.322 90.0581 147.91C90.3941 148.498 90.5621 149.184 90.5621 149.968ZM88.1121 149.338C88.1121 148.927 87.9721 148.601 87.6921 148.358C87.4121 148.115 87.0621 147.994 86.6421 147.994C86.2407 147.994 85.9001 148.111 85.6201 148.344C85.3494 148.577 85.1814 148.909 85.1161 149.338H88.1121ZM96.445 154L94.947 151.83L93.687 154H91.097L93.673 150.01L91.027 146.188H93.715L95.213 148.344L96.473 146.188H99.063L96.445 150.122L99.133 154H96.445Z" fill="#111111"/>
<path d="M44.094 220.172L40.608 230H37.612L34.126 220.172H36.674L39.11 227.592L41.56 220.172H44.094ZM44.6186 226.08C44.6186 225.277 44.7679 224.573 45.0666 223.966C45.3746 223.359 45.7899 222.893 46.3126 222.566C46.8352 222.239 47.4186 222.076 48.0626 222.076C48.6132 222.076 49.0939 222.188 49.5046 222.412C49.9246 222.636 50.2466 222.93 50.4706 223.294V222.188H52.8646V230H50.4706V228.894C50.2372 229.258 49.9106 229.552 49.4906 229.776C49.0799 230 48.5992 230.112 48.0486 230.112C47.4139 230.112 46.8352 229.949 46.3126 229.622C45.7899 229.286 45.3746 228.815 45.0666 228.208C44.7679 227.592 44.6186 226.883 44.6186 226.08ZM50.4706 226.094C50.4706 225.497 50.3026 225.025 49.9666 224.68C49.6399 224.335 49.2386 224.162 48.7626 224.162C48.2866 224.162 47.8806 224.335 47.5446 224.68C47.2179 225.016 47.0546 225.483 47.0546 226.08C47.0546 226.677 47.2179 227.153 47.5446 227.508C47.8806 227.853 48.2866 228.026 48.7626 228.026C49.2386 228.026 49.6399 227.853 49.9666 227.508C50.3026 227.163 50.4706 226.691 50.4706 226.094ZM59.6085 230L57.5645 226.29H56.9905V230H54.5965V220.172H58.6145C59.3892 220.172 60.0472 220.307 60.5885 220.578C61.1392 220.849 61.5498 221.222 61.8205 221.698C62.0912 222.165 62.2265 222.687 62.2265 223.266C62.2265 223.919 62.0398 224.503 61.6665 225.016C61.3025 225.529 60.7612 225.893 60.0425 226.108L62.3105 230H59.6085ZM56.9905 224.596H58.4745C58.9132 224.596 59.2398 224.489 59.4545 224.274C59.6785 224.059 59.7905 223.756 59.7905 223.364C59.7905 222.991 59.6785 222.697 59.4545 222.482C59.2398 222.267 58.9132 222.16 58.4745 222.16H56.9905V224.596Z" fill="#111111"/>
<path d="M34.462 261.072C34.462 260.101 34.672 259.238 35.092 258.482C35.512 257.717 36.0953 257.124 36.842 256.704C37.598 256.275 38.452 256.06 39.404 256.06C40.5707 256.06 41.5693 256.368 42.4 256.984C43.2307 257.6 43.786 258.44 44.066 259.504H41.434C41.238 259.093 40.958 258.781 40.594 258.566C40.2393 258.351 39.8333 258.244 39.376 258.244C38.6387 258.244 38.0413 258.501 37.584 259.014C37.1267 259.527 36.898 260.213 36.898 261.072C36.898 261.931 37.1267 262.617 37.584 263.13C38.0413 263.643 38.6387 263.9 39.376 263.9C39.8333 263.9 40.2393 263.793 40.594 263.578C40.958 263.363 41.238 263.051 41.434 262.64H44.066C43.786 263.704 43.2307 264.544 42.4 265.16C41.5693 265.767 40.5707 266.07 39.404 266.07C38.452 266.07 37.598 265.86 36.842 265.44C36.0953 265.011 35.512 264.418 35.092 263.662C34.672 262.906 34.462 262.043 34.462 261.072ZM54.7581 256.172L51.2721 266H48.2761L44.7901 256.172H47.3381L49.7741 263.592L52.2241 256.172H54.7581ZM55.2826 262.08C55.2826 261.277 55.432 260.573 55.7306 259.966C56.0386 259.359 56.454 258.893 56.9766 258.566C57.4993 258.239 58.0826 258.076 58.7266 258.076C59.2773 258.076 59.758 258.188 60.1686 258.412C60.5886 258.636 60.9106 258.93 61.1346 259.294V258.188H63.5286V266H61.1346V264.894C60.9013 265.258 60.5746 265.552 60.1546 265.776C59.744 266 59.2633 266.112 58.7126 266.112C58.078 266.112 57.4993 265.949 56.9766 265.622C56.454 265.286 56.0386 264.815 55.7306 264.208C55.432 263.592 55.2826 262.883 55.2826 262.08ZM61.1346 262.094C61.1346 261.497 60.9666 261.025 60.6306 260.68C60.304 260.335 59.9026 260.162 59.4266 260.162C58.9506 260.162 58.5446 260.335 58.2086 260.68C57.882 261.016 57.7186 261.483 57.7186 262.08C57.7186 262.677 57.882 263.153 58.2086 263.508C58.5446 263.853 58.9506 264.026 59.4266 264.026C59.9026 264.026 60.304 263.853 60.6306 263.508C60.9666 263.163 61.1346 262.691 61.1346 262.094ZM70.2726 266L68.2286 262.29H67.6546V266H65.2606V256.172H69.2786C70.0532 256.172 70.7112 256.307 71.2526 256.578C71.8032 256.849 72.2139 257.222 72.4846 257.698C72.7552 258.165 72.8906 258.687 72.8906 259.266C72.8906 259.919 72.7039 260.503 72.3306 261.016C71.9666 261.529 71.4252 261.893 70.7066 262.108L72.9746 266H70.2726ZM67.6546 260.596H69.1386C69.5772 260.596 69.9039 260.489 70.1186 260.274C70.3426 260.059 70.4546 259.756 70.4546 259.364C70.4546 258.991 70.3426 258.697 70.1186 258.482C69.9039 258.267 69.5772 258.16 69.1386 258.16H67.6546V260.596Z" fill="#111111"/>
<defs>
<filter id="filter0_d_1629_42613" x="0" y="9" width="406" height="328" filterUnits="userSpaceOnUse" color-interpolation-filters="sRGB">
<feFlood flood-opacity="0" result="BackgroundImageFix"/>
<feColorMatrix in="SourceAlpha" type="matrix" values="0 0 0 0 0 0 0 0 0 0 0 0 0 0 0 0 0 0 127 0" result="hardAlpha"/>
<feOffset dx="4" dy="4"/>
<feGaussianBlur stdDeviation="7"/>
<feComposite in2="hardAlpha" operator="out"/>
<feColorMatrix type="matrix" values="0 0 0 0 0 0 0 0 0 0 0 0 0 0 0 0 0 0 0.14 0"/>
<feBlend mode="normal" in2="BackgroundImageFix" result="effect1_dropShadow_1629_42613"/>
<feBlend mode="normal" in="SourceGraphic" in2="effect1_dropShadow_1629_42613" result="shape"/>
</filter>
</defs>
</svg>
