<svg width="28" height="28" viewBox="0 0 28 28" fill="none" xmlns="http://www.w3.org/2000/svg">
<circle cx="14" cy="14" r="13.5" fill="white" stroke="#E5E7EB"/>
<path d="M19 19H9C8.73478 19 8.48043 18.8946 8.29289 18.7071C8.10536 18.5196 8 18.2652 8 18V11C8 10.7348 8.10536 10.4804 8.29289 10.2929C8.48043 10.1054 8.73478 10 9 10H10.9996L11.9996 8.5H15.9996L16.9996 10H19C19.2652 10 19.5196 10.1054 19.7071 10.2929C19.8946 10.4804 20 10.7348 20 11V18C20 18.2652 19.8946 18.5196 19.7071 18.7071C19.5196 18.8946 19.2652 19 19 19Z" stroke="#9CA3AF" stroke-width="1.2" stroke-linecap="round" stroke-linejoin="round"/>
<path d="M14 16.5C15.2426 16.5 16.25 15.4926 16.25 14.25C16.25 13.0074 15.2426 12 14 12C12.7574 12 11.75 13.0074 11.75 14.25C11.75 15.4926 12.7574 16.5 14 16.5Z" stroke="#9CA3AF" stroke-width="1.2" stroke-linecap="round" stroke-linejoin="round"/>
</svg>
