<svg width="44" height="44" viewBox="0 0 44 44" fill="none" xmlns="http://www.w3.org/2000/svg">
<rect width="44" height="44" rx="22" fill="#F7931A" fill-opacity="0.1"/>
<path fill-rule="evenodd" clip-rule="evenodd" d="M30.9552 19.4079C31.3167 16.9882 29.4744 15.6875 26.9553 14.8198L27.7724 11.5421L25.7767 11.0448L24.9812 14.2362C24.4572 14.1055 23.9185 13.9821 23.3832 13.86L24.1845 10.6476L22.1904 10.1504L21.3727 13.427C20.9386 13.3281 20.5124 13.2303 20.0987 13.1275L20.101 13.1173L17.3495 12.4302L16.8187 14.5612C16.8187 14.5612 18.299 14.9005 18.2678 14.9215C19.0758 15.1232 19.2224 15.6579 19.1974 16.0819L18.2666 19.8159C18.3223 19.8301 18.3945 19.8505 18.474 19.8824L18.2638 19.8301L16.9585 25.0609C16.8596 25.3064 16.609 25.6746 16.0442 25.5348C16.0641 25.5638 14.594 25.1728 14.594 25.1728L13.6035 27.4572L16.2005 28.1045C16.4935 28.1779 16.783 28.2534 17.0694 28.3281L17.0696 28.3282L17.07 28.3283C17.2554 28.3767 17.4394 28.4247 17.6222 28.4716L16.7966 31.7873L18.7894 32.2846L19.6077 29.0046C20.1515 29.1523 20.68 29.2887 21.1971 29.4171L20.3823 32.6818L22.3774 33.179L23.2031 29.87C26.6052 30.5139 29.1641 30.2542 30.2398 27.1776C31.1075 24.7 30.1972 23.2709 28.4072 22.3384C29.7108 22.0366 30.6927 21.1791 30.9547 19.4079H30.9552ZM26.3962 25.8002C25.8298 28.0742 22.2697 27.1333 20.6422 26.7032C20.4965 26.6647 20.3663 26.6302 20.2551 26.6026L21.3507 22.2105C21.4866 22.2444 21.6526 22.2817 21.8407 22.3239L21.8408 22.3239C23.5244 22.7017 26.9749 23.476 26.3968 25.8002H26.3962ZM22.1792 20.2858C23.5371 20.6481 26.4971 21.4378 27.0128 19.3721C27.5399 17.2588 24.6616 16.6218 23.2559 16.3107C23.0979 16.2757 22.9585 16.2449 22.8446 16.2165L21.8513 20.2C21.9453 20.2234 22.0556 20.2529 22.1792 20.2858Z" fill="#F7931A"/>
</svg>
