<svg width="60" height="60" viewBox="0 0 60 60" fill="none" xmlns="http://www.w3.org/2000/svg">
<circle cx="30" cy="30" r="30" fill="#399C37"/>
<g clip-path="url(#clip0_910_42332)">
<path d="M43.6335 15.6609C40.1226 14.7491 36.7029 13.5155 33.4174 11.9724L30.3574 10.5381V52.118L38.9883 44.7555C42.9668 41.3596 45.4752 36.5343 45.9788 31.3027L47.3913 16.6381L43.6335 15.6609Z" fill="#EAF0FF"/>
<path d="M27.2962 11.9748C24.0083 13.5155 20.5886 14.7515 17.0801 15.6633L13.3223 16.6405L14.7348 31.3051C15.2384 36.5367 17.7468 41.3645 21.7253 44.7579L30.3562 52.1205V10.5381L27.2962 11.9724V11.9748Z" fill="#9CA3B5"/>
<path d="M30.3559 11.412C30.7003 11.412 30.9794 11.1305 30.9794 10.7832C30.9794 10.4358 30.7003 10.1543 30.3559 10.1543C30.0116 10.1543 29.7324 10.4358 29.7324 10.7832C29.7324 11.1305 30.0116 11.412 30.3559 11.412Z" fill="white"/>
<path d="M30.3836 23.5625L30.3549 23.5915V50.7366H28.7793L30.3549 52.1177L41.6333 42.2543L43.5158 36.8049L30.3836 23.5625Z" fill="#9CA3B5"/>
<path d="M30.3551 23.5918L17.5371 36.5198L19.8273 42.9027L28.7795 50.7369H30.3551V23.5918Z" fill="#4A556C"/>
<path d="M30.3546 12.391L32.2779 13.2932C36.0381 15.0564 39.9807 16.4786 43.9975 17.5235L45.3117 17.8646L44.0479 30.9715C43.5802 35.8259 41.29 40.2352 37.5969 43.3843L30.3546 49.5641L23.1122 43.3843C19.4191 40.2352 17.1289 35.8259 16.6613 30.9715L15.3975 17.8646L16.7116 17.5235C20.7285 16.4811 24.671 15.0564 28.4313 13.2932L30.3546 12.391ZM30.3546 9C29.8773 9 29.4001 9.104 28.9565 9.31201L27.0164 10.2214C23.4312 11.9024 19.7021 13.2472 15.8747 14.2438L14.1288 14.6985C12.7763 15.0492 11.877 16.3432 12.0137 17.746L13.3207 31.3005C13.8698 37.0062 16.6061 42.2693 20.9443 45.9723L30.357 54.0024L39.7696 45.9723C44.1078 42.2693 46.8441 37.0062 47.3933 31.3005L48.7002 17.746C48.8345 16.3432 47.9376 15.0492 46.5827 14.6985L44.8369 14.2438C41.0095 13.2497 37.2804 11.9024 33.6952 10.2214L31.7551 9.31201C31.3114 9.104 30.8342 9 30.357 9L30.3546 9Z" fill="#4A556C"/>
<path d="M36.6352 13.8593C36.9796 13.8593 37.2587 13.5777 37.2587 13.2304C37.2587 12.8831 36.9796 12.6016 36.6352 12.6016C36.2909 12.6016 36.0117 12.8831 36.0117 13.2304C36.0117 13.5777 36.2909 13.8593 36.6352 13.8593Z" fill="white"/>
<path d="M24.0395 13.8593C24.3839 13.8593 24.663 13.5777 24.663 13.2304C24.663 12.8831 24.3839 12.6016 24.0395 12.6016C23.6952 12.6016 23.416 12.8831 23.416 13.2304C23.416 13.5777 23.6952 13.8593 24.0395 13.8593Z" fill="#9CA3B5"/>
<path d="M46.1899 16.953C46.5343 16.953 46.8134 16.6715 46.8134 16.3242C46.8134 15.9769 46.5343 15.6953 46.1899 15.6953C45.8456 15.6953 45.5664 15.9769 45.5664 16.3242C45.5664 16.6715 45.8456 16.953 46.1899 16.953Z" fill="white"/>
<path d="M14.647 16.953C14.9913 16.953 15.2705 16.6715 15.2705 16.3242C15.2705 15.9769 14.9913 15.6953 14.647 15.6953C14.3026 15.6953 14.0234 15.9769 14.0234 16.3242C14.0234 16.6715 14.3026 16.953 14.647 16.953Z" fill="#9CA3B5"/>
<path d="M14.647 25.8974C14.9913 25.8974 15.2705 25.6158 15.2705 25.2685C15.2705 24.9212 14.9913 24.6396 14.647 24.6396C14.3026 24.6396 14.0234 24.9212 14.0234 25.2685C14.0234 25.6158 14.3026 25.8974 14.647 25.8974Z" fill="#9CA3B5"/>
<path d="M46.1899 25.8974C46.5343 25.8974 46.8134 25.6158 46.8134 25.2685C46.8134 24.9212 46.5343 24.6396 46.1899 24.6396C45.8456 24.6396 45.5664 24.9212 45.5664 25.2685C45.5664 25.6158 45.8456 25.8974 46.1899 25.8974Z" fill="white"/>
<path d="M15.6059 34.8388C15.9503 34.8388 16.2294 34.5572 16.2294 34.2099C16.2294 33.8626 15.9503 33.5811 15.6059 33.5811C15.2616 33.5811 14.9824 33.8626 14.9824 34.2099C14.9824 34.5572 15.2616 34.8388 15.6059 34.8388Z" fill="#9CA3B5"/>
<path d="M45.2309 34.8388C45.5753 34.8388 45.8544 34.5572 45.8544 34.2099C45.8544 33.8626 45.5753 33.5811 45.2309 33.5811C44.8866 33.5811 44.6074 33.8626 44.6074 34.2099C44.6074 34.5572 44.8866 34.8388 45.2309 34.8388Z" fill="white"/>
<path d="M19.2036 42.2548C19.5479 42.2548 19.8271 41.9732 19.8271 41.6259C19.8271 41.2786 19.5479 40.9971 19.2036 40.9971C18.8592 40.9971 18.5801 41.2786 18.5801 41.6259C18.5801 41.9732 18.8592 42.2548 19.2036 42.2548Z" fill="#9CA3B5"/>
<path d="M25.4985 48.2655C25.8429 48.2655 26.122 47.984 26.122 47.6367C26.122 47.2894 25.8429 47.0078 25.4985 47.0078C25.1542 47.0078 24.875 47.2894 24.875 47.6367C24.875 47.984 25.1542 48.2655 25.4985 48.2655Z" fill="#9CA3B5"/>
<path d="M35.2114 48.2655C35.5558 48.2655 35.8349 47.984 35.8349 47.6367C35.8349 47.2894 35.5558 47.0078 35.2114 47.0078C34.867 47.0078 34.5879 47.2894 34.5879 47.6367C34.5879 47.984 34.867 48.2655 35.2114 48.2655Z" fill="white"/>
<path d="M41.6333 42.2548C41.9776 42.2548 42.2568 41.9732 42.2568 41.6259C42.2568 41.2786 41.9776 40.9971 41.6333 40.9971C41.2889 40.9971 41.0098 41.2786 41.0098 41.6259C41.0098 41.9732 41.2889 42.2548 41.6333 42.2548Z" fill="white"/>
</g>
<defs>
<clipPath id="clip0_910_42332">
<rect width="36.7105" height="45" fill="white" transform="translate(12 9)"/>
</clipPath>
</defs>
</svg>
