<svg width="290" height="290" viewBox="0 0 290 290" fill="none" xmlns="http://www.w3.org/2000/svg">
<mask id="path-1-inside-1_910_42436" fill="white">
<path d="M290 144.999C290 225.08 225.082 289.998 145.001 289.998C64.9203 289.998 0.00195312 225.08 0.00195312 144.999C0.00195312 64.9183 64.9203 0 145.001 0C225.082 0 290 64.9183 290 144.999ZM72.5015 144.999C72.5015 185.039 104.961 217.499 145.001 217.499C185.041 217.499 217.501 185.039 217.501 144.999C217.501 104.959 185.041 72.4995 145.001 72.4995C104.961 72.4995 72.5015 104.959 72.5015 144.999Z"/>
</mask>
<path d="M290 144.999C290 225.08 225.082 289.998 145.001 289.998C64.9203 289.998 0.00195312 225.08 0.00195312 144.999C0.00195312 64.9183 64.9203 0 145.001 0C225.082 0 290 64.9183 290 144.999ZM72.5015 144.999C72.5015 185.039 104.961 217.499 145.001 217.499C185.041 217.499 217.501 185.039 217.501 144.999C217.501 104.959 185.041 72.4995 145.001 72.4995C104.961 72.4995 72.5015 104.959 72.5015 144.999Z" fill="#D1D5DB" stroke="white" stroke-width="4" mask="url(#path-1-inside-1_910_42436)"/>
</svg>
