<svg width="20" height="20" viewBox="0 0 20 20" fill="none" xmlns="http://www.w3.org/2000/svg">
<path d="M10.1875 2C11.8486 2 13.385 2.30952 14.7966 2.92856C16.2083 3.54759 17.3242 4.38935 18.1445 5.45383C18.9648 6.51832 19.375 7.67942 19.375 8.93715C19.375 10.1949 18.9648 11.3576 18.1445 12.4254C17.3242 13.4931 16.21 14.3365 14.8018 14.9556C13.3936 15.5746 11.8555 15.8841 10.1875 15.8841C9.66113 15.8841 9.11768 15.8481 8.55713 15.776C6.12354 17.394 4.82812 18.2129 4.6709 18.2325C4.5957 18.2587 4.52393 18.2555 4.45557 18.2227C4.42822 18.2031 4.40771 18.1769 4.39404 18.1441C4.38037 18.1113 4.37354 18.0819 4.37354 18.0557V18.0164C4.41455 17.7609 4.72559 16.6964 5.30664 14.8229C3.9873 14.1941 2.9397 13.3605 2.16382 12.3222C1.38794 11.2839 1 10.1556 1 8.93715C1 7.67942 1.41016 6.51832 2.23047 5.45383C3.05078 4.38935 4.16675 3.54759 5.57837 2.92856C6.98999 2.30952 8.52637 2 10.1875 2Z" fill="#3C1E1E"/>
</svg>
