<svg width="60" height="60" viewBox="0 0 60 60" fill="none" xmlns="http://www.w3.org/2000/svg">
<circle cx="30" cy="30" r="30" fill="#7640AD"/>
<path d="M14.8064 47.4576C15.5531 46.7108 15.5531 45.5001 14.8064 44.7533C14.0596 44.0066 12.8489 44.0066 12.1021 44.7533C11.3554 45.5001 11.3554 46.7108 12.1021 47.4576C12.8489 48.2044 14.0596 48.2044 14.8064 47.4576Z" fill="#8C95A9"/>
<path d="M14.8064 47.4576C15.0391 47.2248 15.1987 46.9476 15.2863 46.6534C15.2863 46.6534 15.2628 46.1905 14.316 45.2437C13.3693 44.297 12.9063 44.2734 12.9063 44.2734C12.6121 44.361 12.3349 44.5206 12.1021 44.7533C11.3554 45.5 11.3554 46.7109 12.1021 47.4576C12.8488 48.2043 14.0597 48.2043 14.8064 47.4576Z" fill="white"/>
<path d="M13.6538 43.9038L18.8753 38.0075L21.5534 40.6856L15.6571 45.9071L13.6538 43.9038Z" fill="#5A6684"/>
<path d="M18.5146 43.7572L19.0625 43.272C19.2286 43.1243 19.2377 42.8667 19.0795 42.7084L16.8499 40.4789C16.6917 40.3206 16.4341 40.3298 16.2863 40.4959L15.8012 41.0438C15.6665 41.1968 15.6717 41.4295 15.8169 41.5747L17.9837 43.7415C18.1288 43.8866 18.3603 43.8932 18.5146 43.7572Z" fill="#8C95A9"/>
<path d="M17.4777 39.1502L16.9926 39.6981C16.8579 39.8511 16.8631 40.0838 17.0083 40.229L19.3294 42.5501C19.4745 42.6952 19.706 42.7018 19.8603 42.5658L20.4082 42.0806C20.5743 41.9329 20.5834 41.6753 20.4252 41.517L18.0413 39.1332C17.8831 38.9749 17.6255 38.9841 17.4777 39.1502Z" fill="#8C95A9"/>
<path d="M21.2027 41.377L21.6617 40.9703C21.8278 40.8225 21.837 40.5649 21.6787 40.4067L19.151 37.879C18.9928 37.7207 18.7352 37.7299 18.5874 37.896L18.1807 38.355C18.046 38.508 18.0513 38.7407 18.1964 38.8859L20.6718 41.3613C20.817 41.5064 21.0484 41.513 21.2027 41.377Z" fill="#8C95A9"/>
<path d="M17.1702 44.947L17.7181 44.4618C17.8842 44.3141 17.8933 44.0564 17.7351 43.8982L15.6585 41.8216C15.5003 41.6634 15.2427 41.6726 15.0949 41.8386L14.6098 42.3866C14.4751 42.5396 14.4803 42.7723 14.6255 42.9175L16.638 44.93C16.7831 45.0751 17.0146 45.0817 17.1689 44.9457L17.1702 44.947Z" fill="#8C95A9"/>
<path d="M16.3916 45.0903L14.4694 43.168C14.3111 43.0098 14.0535 43.019 13.9058 43.185L13.4991 43.644C13.3644 43.797 13.3696 44.0298 13.5148 44.1749L15.3847 46.0449C15.5299 46.19 15.7613 46.1966 15.9156 46.0606L16.3746 45.6539C16.5407 45.5061 16.5499 45.2485 16.3916 45.0903Z" fill="#8C95A9"/>
<path d="M21.4543 40.2502C21.6008 40.3078 21.7512 40.3614 21.9055 40.4111C21.9826 40.4359 22.0598 40.4608 22.1369 40.483C23.1504 40.7825 25.9527 41.2441 26.4588 41.622C26.2051 41.7161 25.9723 41.8861 25.801 42.1385C25.4675 42.6315 25.4976 43.2997 25.8742 43.76C26.3947 44.3955 27.3323 44.4308 27.8985 43.8646C28.1313 43.6319 28.2633 43.335 28.2908 43.0303L28.2934 43.0277C28.296 42.9859 28.2986 42.944 28.2973 42.9035C28.2934 40.7576 24.3861 40.2764 22.1082 39.28C21.2869 38.9217 20.6357 38.2704 20.2787 37.4505C19.2836 35.1713 18.8024 31.264 16.6552 31.2614C16.6133 31.2614 16.5728 31.2627 16.531 31.2653L16.5283 31.2679C16.1779 31.3019 15.8379 31.4693 15.5947 31.7727C15.1971 32.2643 15.1958 32.9822 15.5908 33.4739C16.1086 34.1199 17.054 34.1578 17.6229 33.589C17.7667 33.4452 17.87 33.2765 17.9367 33.0973C18.4898 34.0035 18.7775 36.407 19.0757 37.4191C19.0992 37.4976 19.1228 37.5735 19.1476 37.6506C19.1973 37.8049 19.2509 37.9553 19.3084 38.1017C19.5124 38.6144 19.7701 39.0786 20.1153 39.4395C20.4775 39.7834 20.9404 40.0423 21.453 40.2463L21.4543 40.2502Z" fill="white"/>
<path d="M16.6141 31.9123C17.1567 32.1542 17.6406 32.8447 17.6236 33.5914C17.7674 33.4475 17.8707 33.2788 17.9374 33.0997C17.3581 32.081 16.6154 31.911 16.6154 31.911L16.6141 31.9123Z" fill="#8C95A9"/>
<path d="M25.8059 42.1301C26.1341 42.0425 27.366 42.3877 27.5804 42.8167C27.6563 42.6179 27.3594 42.1694 26.4571 41.6228C26.2048 41.7156 25.9759 41.8817 25.8059 42.1301Z" fill="#8C95A9"/>
<path d="M16.5316 31.2648C16.5735 31.2622 16.6153 31.2596 16.6559 31.2609C18.8253 31.2648 19.2934 35.2558 20.3108 37.5233C20.6534 38.2896 21.268 38.9042 22.0356 39.2481C24.3031 40.2655 28.2941 40.7336 28.298 42.903C28.298 42.9449 28.2967 42.9854 28.2941 43.0273L28.2915 43.0299C28.2614 43.3346 28.1319 43.6314 27.8992 43.8642C28.1319 43.6314 28.8224 42.941 28.5229 42.0557C27.8207 39.949 23.2217 39.3357 21.6865 37.8764C20.2271 36.3412 19.6151 31.7408 17.5072 31.0399C16.6219 30.7404 15.9314 31.4309 15.6987 31.6637C15.9314 31.4309 16.2283 31.2988 16.5329 31.2714L16.5356 31.2687L16.5316 31.2648Z" fill="#8C95A9"/>
<path d="M23.499 39.4997L45.4993 22.9997L47.4567 12.1021L36.9993 14.4997L19.9992 35.9997C20.4569 37.1897 22.309 39.042 23.499 39.4997Z" fill="#EAF0FF"/>
<path fill-rule="evenodd" clip-rule="evenodd" d="M22.5516 38.9544L41.2092 22.5003L42.9996 17.5003L37.4995 18.8511L20.5468 36.9498C21.0698 37.6686 21.8329 38.4317 22.5516 38.9544Z" fill="#BFC7DC"/>
</svg>
