<svg width="60" height="60" viewBox="0 0 60 60" fill="none" xmlns="http://www.w3.org/2000/svg">
<circle cx="30" cy="30" r="30" fill="#3585B1"/>
<g clip-path="url(#clip0_910_43566)">
<path d="M43.8624 17.7276C40.6324 16.8887 37.4862 15.7539 34.4636 14.3342L31.6484 13.0146V51.2682L39.5888 44.4946C43.249 41.3704 45.5568 36.9312 46.0201 32.118L47.3196 18.6266L43.8624 17.7276Z" fill="#EAF0FF"/>
<path d="M28.8306 14.3364C25.8058 15.7539 22.6596 16.891 19.4318 17.7299L15.9746 18.6288L17.2741 32.1203C17.7374 36.9334 20.0452 41.3749 23.7054 44.4969L31.6458 51.2704V13.0146L28.8306 14.3342V14.3364Z" fill="#9CA3B5"/>
<path d="M31.6459 13.8182C31.9627 13.8182 32.2195 13.5592 32.2195 13.2397C32.2195 12.9202 31.9627 12.6611 31.6459 12.6611C31.3291 12.6611 31.0723 12.9202 31.0723 13.2397C31.0723 13.5592 31.3291 13.8182 31.6459 13.8182Z" fill="white"/>
<path d="M31.6733 24.998L31.6468 25.0247V49.9982H30.1973L31.6468 51.2688L42.0229 42.1944L43.7548 37.1811L31.6733 24.998Z" fill="#9CA3B5"/>
<path d="M31.6461 25.0244L19.8535 36.9181L21.9605 42.7905L30.1965 49.9979H31.6461V25.0244Z" fill="#4A556C"/>
<path d="M31.646 14.7193L33.4154 15.5494C36.8748 17.1715 40.5019 18.4799 44.1975 19.4412L45.4065 19.755L44.2438 31.8134C43.8136 36.2794 41.7066 40.3359 38.3089 43.2331L31.646 48.9185L24.983 43.2331C21.5853 40.3359 19.4784 36.2794 19.0481 31.8134L17.8854 19.755L19.0945 19.4412C22.79 18.4822 26.4171 17.1715 29.8765 15.5494L31.646 14.7193ZM31.646 11.5996C31.2069 11.5996 30.7679 11.6953 30.3597 11.8867L28.5748 12.7233C25.2764 14.2699 21.8457 15.5071 18.3245 16.4239L16.7183 16.8422C15.474 17.1649 14.6466 18.3553 14.7724 19.646L15.9748 32.116C16.48 37.3653 18.9974 42.2073 22.9885 45.6141L31.6482 53.0018L40.3078 45.6141C44.2989 42.2073 46.8163 37.3653 47.3215 32.116L48.524 19.646C48.6475 18.3553 47.8224 17.1649 46.5758 16.8422L44.9696 16.4239C41.4484 15.5093 38.0177 14.2699 34.7193 12.7233L32.9344 11.8867C32.5263 11.6953 32.0872 11.5996 31.6482 11.5996L31.646 11.5996Z" fill="#4A556C"/>
</g>
<path d="M21.6981 51.2408C21.6981 50.2692 20.9105 49.4816 19.9389 49.4816C18.9673 49.4816 18.1797 50.2692 18.1797 51.2408C18.1797 52.2124 18.9673 53 19.9389 53C20.9105 53 21.6981 52.2124 21.6981 51.2408Z" fill="#9CA3B5"/>
<path d="M21.6981 51.2408C21.6981 50.9379 21.6216 50.6538 21.4872 50.4054C21.4872 50.4054 21.1707 50.1196 19.9389 50.1196C18.7071 50.1196 18.3907 50.4054 18.3907 50.4054C18.2563 50.6538 18.1797 50.9379 18.1797 51.2408C18.1797 52.2123 18.9674 53 19.9389 53C20.9104 53 21.6981 52.2123 21.6981 51.2408Z" fill="white"/>
<path d="M18.6362 49.6787L18.1973 42.4462L21.6817 42.4462L21.2427 49.6787L18.6362 49.6787Z" fill="#4A556C"/>
<path d="M21.7027 46.4207L21.7435 45.7486C21.7554 45.5445 21.5938 45.3709 21.3879 45.3709L18.4871 45.3709C18.2812 45.3709 18.1196 45.5445 18.1315 45.7486L18.1723 46.4207C18.1842 46.6078 18.339 46.7559 18.5279 46.7559L21.3471 46.7559C21.5359 46.7559 21.6907 46.6095 21.7027 46.4207Z" fill="#A8B2C7"/>
<path d="M18.0319 44.0983L18.0727 44.7703C18.0846 44.9574 18.2394 45.1055 18.4283 45.1055L21.4482 45.1055C21.6371 45.1055 21.7919 44.9592 21.8038 44.7703L21.8446 44.0983C21.8565 43.8941 21.6949 43.7206 21.4891 43.7206L18.3875 43.7206C18.1816 43.7206 18.02 43.8941 18.0319 44.0983Z" fill="#A8B2C7"/>
<path d="M21.904 43.1238L21.938 42.5607C21.9499 42.3565 21.7883 42.183 21.5825 42.183L18.2937 42.183C18.0878 42.183 17.9262 42.3565 17.9381 42.5607L17.9721 43.1238C17.9841 43.311 18.1389 43.459 18.3277 43.459L21.5484 43.459C21.7373 43.459 21.8921 43.3127 21.904 43.1238Z" fill="#A8B2C7"/>
<path d="M21.6032 48.0691L21.644 47.3971C21.6559 47.1929 21.4943 47.0194 21.2885 47.0194L18.5867 47.0194C18.3808 47.0194 18.2192 47.1929 18.2311 47.3971L18.2719 48.0691C18.2838 48.2563 18.4387 48.4043 18.6275 48.4043L21.2459 48.4043C21.4348 48.4043 21.5896 48.258 21.6015 48.0691L21.6032 48.0691Z" fill="#A8B2C7"/>
<path d="M21.1893 48.6683L18.6882 48.6683C18.4824 48.6683 18.3207 48.8418 18.3326 49.046L18.3667 49.6092C18.3786 49.7963 18.5334 49.9443 18.7223 49.9443L21.1552 49.9443C21.3441 49.9443 21.4989 49.798 21.5108 49.6092L21.5448 49.046C21.5567 48.8418 21.3951 48.6683 21.1893 48.6683Z" fill="#A8B2C7"/>
<path d="M21.3346 42.2266C21.4673 42.1688 21.6 42.1058 21.7327 42.0378C21.7991 42.0038 21.8655 41.9697 21.9301 41.934C22.7842 41.4695 24.9075 39.9468 25.4826 39.8634C25.3788 40.0897 25.338 40.3517 25.3907 40.6273C25.4945 41.165 25.9487 41.5801 26.4932 41.6346C27.2452 41.7094 27.8781 41.1224 27.8781 40.3858C27.8781 40.0829 27.7709 39.8039 27.5906 39.5878L27.5906 39.5844C27.565 39.5555 27.5395 39.5266 27.5123 39.501C26.1138 38.1076 23.2589 40.3364 21.1288 41.1701C20.3614 41.4712 19.5142 41.4712 18.7485 41.1701C16.6184 40.3347 13.7635 38.1059 12.365 39.501C12.3378 39.5283 12.3123 39.5555 12.2867 39.5844L12.2867 39.5878C12.0809 39.8379 11.9686 40.168 12.0077 40.5236C12.069 41.102 12.5351 41.5699 13.1119 41.6329C13.869 41.7162 14.5087 41.1258 14.5087 40.3858C14.5087 40.1986 14.4662 40.0217 14.393 39.8617C15.3424 40.0914 17.0931 41.4678 17.9455 41.9323C18.0119 41.968 18.0765 42.0021 18.1429 42.0361C18.2756 42.1041 18.4083 42.1671 18.541 42.2249C19.0072 42.4257 19.4767 42.5601 19.9361 42.5703C20.3955 42.5584 20.8651 42.4257 21.3312 42.2249L21.3346 42.2266Z" fill="white"/>
<path d="M12.7617 39.9521C13.2721 39.7565 14.036 39.8909 14.5107 40.3877C14.5107 40.2005 14.4682 40.0236 14.395 39.8637C13.3555 39.5778 12.7617 39.9504 12.7617 39.9504L12.7617 39.9521Z" fill="#9CA3B5"/>
<path d="M25.3891 40.6191C25.5456 40.3486 26.5716 39.7719 26.9901 39.9114C26.9101 39.7327 26.4253 39.634 25.4827 39.8654C25.3789 40.09 25.3381 40.3469 25.3891 40.6191Z" fill="#9CA3B5"/>
<path d="M12.2863 39.5847C12.3119 39.5558 12.3374 39.5268 12.3646 39.5013C13.7784 38.0926 16.6793 40.3843 18.8162 41.1976C19.5376 41.4732 20.3372 41.4732 21.0603 41.1976C23.1972 40.3843 26.0981 38.0926 27.5119 39.5013C27.5391 39.5285 27.5646 39.5558 27.5902 39.5847L27.5902 39.5881C27.7688 39.8059 27.8777 40.0832 27.8777 40.386C27.8777 40.0832 27.8777 39.1849 27.107 38.8038C25.2797 37.8901 21.8889 40.483 19.9408 40.5323C17.9927 40.483 14.6019 37.8884 12.7746 38.8038C12.0039 39.1849 12.0039 40.0832 12.0039 40.386C12.0039 40.0832 12.1111 39.8042 12.2914 39.5881L12.2914 39.5847L12.2863 39.5847Z" fill="#9CA3B5"/>
<path d="M21.6212 40.5558L21.4527 11.6767L19.9385 6.99966L18.4243 11.6767L18.2559 40.5558C19.3277 41.0322 20.5493 41.0322 21.6212 40.5558Z" fill="white"/>
<path d="M19.9102 40.912C20.4937 40.9154 21.0773 40.798 21.6217 40.5565L21.4533 11.6774L19.9391 7.00032L19.9102 40.912Z" fill="#CED2DA"/>
<path d="M19.8984 14.6362C19.6789 14.6362 19.502 14.8132 19.502 15.0326L19.502 40.8901C19.7657 40.9173 20.0311 40.919 20.2948 40.8969L20.2948 15.0326C20.2948 14.8132 20.1178 14.6362 19.8984 14.6362Z" fill="#8C95A9"/>
<defs>
<clipPath id="clip0_910_43566">
<rect width="33.7737" height="41.4" fill="white" transform="translate(14.7598 11.5996)"/>
</clipPath>
</defs>
</svg>
