<svg width="28" height="28" viewBox="0 0 28 28" fill="none" xmlns="http://www.w3.org/2000/svg">
<path d="M10.1376 23.6258H5.25C5.01794 23.6258 4.79538 23.5337 4.63128 23.3696C4.46719 23.2055 4.375 22.9829 4.375 22.7508V17.8633C4.375 17.7484 4.39763 17.6346 4.44161 17.5284C4.48558 17.4223 4.55003 17.3258 4.63128 17.2446L17.7563 4.11956C17.9204 3.95547 18.1429 3.86328 18.375 3.86328C18.6071 3.86328 18.8296 3.95547 18.9937 4.11956L23.8813 9.00713C24.0454 9.17122 24.1376 9.39378 24.1376 9.62584C24.1376 9.85791 24.0454 10.0805 23.8813 10.2446L10.7563 23.3696C10.675 23.4508 10.5786 23.5153 10.4724 23.5592C10.3663 23.6032 10.2525 23.6258 10.1376 23.6258Z" stroke="#9CA3AF" stroke-width="2" stroke-linecap="round" stroke-linejoin="round"/>
<path d="M14.875 7L21 13.125" stroke="#9CA3AF" stroke-width="2" stroke-linecap="round" stroke-linejoin="round"/>
<path d="M10.4431 23.5681L4.42969 17.5547" stroke="#9CA3AF" stroke-width="2" stroke-linecap="round" stroke-linejoin="round"/>
</svg>
