<svg width="32" height="32" viewBox="0 0 32 32" fill="none" xmlns="http://www.w3.org/2000/svg">
<circle cx="16" cy="16" r="15.5" fill="white" stroke="#E5E7EB"/>
<path d="M13.2411 22.8749H9.75C9.58424 22.8749 9.42527 22.8091 9.30806 22.6918C9.19085 22.5746 9.125 22.4157 9.125 22.2499V18.7588C9.125 18.6767 9.14117 18.5954 9.17258 18.5196C9.20398 18.4438 9.25002 18.3749 9.30806 18.3168L18.6831 8.94185C18.8003 8.82464 18.9592 8.75879 19.125 8.75879C19.2908 8.75879 19.4497 8.82464 19.5669 8.94185L23.0581 12.433C23.1753 12.5502 23.2411 12.7091 23.2411 12.8749C23.2411 13.0407 23.1753 13.1996 23.0581 13.3168L13.6831 22.6918C13.625 22.7499 13.5561 22.7959 13.4803 22.8273C13.4045 22.8587 13.3232 22.8749 13.2411 22.8749Z" stroke="#9CA3AF" stroke-width="1.5" stroke-linecap="round" stroke-linejoin="round"/>
<path d="M16.625 11L21 15.375" stroke="#9CA3AF" stroke-width="1.5" stroke-linecap="round" stroke-linejoin="round"/>
<path d="M13.4594 22.8354L9.16406 18.54" stroke="#9CA3AF" stroke-width="1.5" stroke-linecap="round" stroke-linejoin="round"/>
</svg>
