<svg width="28" height="28" viewBox="0 0 28 28" fill="none" xmlns="http://www.w3.org/2000/svg">
<path d="M19 24C20.6569 24 22 22.6569 22 21C22 19.3431 20.6569 18 19 18C17.3431 18 16 19.3431 16 21C16 22.6569 17.3431 24 19 24Z" stroke="#9CA3AF" stroke-width="2" stroke-linecap="round" stroke-linejoin="round"/>
<path d="M7 17C8.65685 17 10 15.6569 10 14C10 12.3431 8.65685 11 7 11C5.34315 11 4 12.3431 4 14C4 15.6569 5.34315 17 7 17Z" stroke="#9CA3AF" stroke-width="2" stroke-linecap="round" stroke-linejoin="round"/>
<path d="M9.58984 15.5098L16.4198 19.4898" stroke="#9CA3AF" stroke-width="2" stroke-linecap="round" stroke-linejoin="round"/>
<path d="M19 10C20.6569 10 22 8.65685 22 7C22 5.34315 20.6569 4 19 4C17.3431 4 16 5.34315 16 7C16 8.65685 17.3431 10 19 10Z" stroke="#9CA3AF" stroke-width="2" stroke-linecap="round" stroke-linejoin="round"/>
<path d="M16.4098 8.50977L9.58984 12.4898" stroke="#9CA3AF" stroke-width="2" stroke-linecap="round" stroke-linejoin="round"/>
</svg>
