<svg width="28" height="28" viewBox="0 0 28 28" fill="none" xmlns="http://www.w3.org/2000/svg">
<g clip-path="url(#clip0_951_73447)">
<path d="M22.166 8.16667L21.1545 22.3323C21.1126 22.921 20.8492 23.4719 20.4173 23.8742C19.9854 24.2764 19.4172 24.5 18.827 24.5H9.17168C8.58151 24.5 8.01326 24.2764 7.58138 23.8742C7.1495 23.4719 6.88608 22.921 6.84418 22.3323L5.83268 8.16667M4.66602 8.16667H23.3327H4.66602ZM10.4993 8.16667V4.66667C10.4993 4.35725 10.6223 4.0605 10.8411 3.84171C11.0599 3.62292 11.3566 3.5 11.666 3.5H16.3327C16.6421 3.5 16.9388 3.62292 17.1576 3.84171C17.3764 4.0605 17.4993 4.35725 17.4993 4.66667V8.16667H10.4993ZM11.666 12.8333V19.8333V12.8333ZM16.3327 12.8333V19.8333V12.8333Z" stroke="#9CA3AF" stroke-width="1.8" stroke-linecap="round" stroke-linejoin="round"/>
<path d="M22.5 7.66667L21.4885 21.8323C21.4466 22.421 21.1832 22.9719 20.7513 23.3742C20.3194 23.7764 19.7512 24 19.161 24H9.50567C8.9155 24 8.34724 23.7764 7.91537 23.3742C7.48349 22.9719 7.22007 22.421 7.17817 21.8323L6.16667 7.66667M5 7.66667H23.6667H5ZM10.8333 7.66667V4.16667C10.8333 3.85725 10.9562 3.5605 11.175 3.34171C11.3938 3.12292 11.6906 3 12 3H16.6667C16.9761 3 17.2728 3.12292 17.4916 3.34171C17.7104 3.5605 17.8333 3.85725 17.8333 4.16667V7.66667H10.8333ZM12 12.3333V19.3333V12.3333ZM16.6667 12.3333V19.3333V12.3333Z" stroke="#9CA3AF" stroke-width="2" stroke-linecap="round" stroke-linejoin="round"/>
</g>
<defs>
<clipPath id="clip0_951_73447">
<rect width="28" height="28" fill="white"/>
</clipPath>
</defs>
</svg>
